<svg xmlns="http://www.w3.org/2000/svg" width="208.922" height="132.531" viewBox="0 0 208.922 132.531">
  <g id="Grupo_1108807" data-name="Grupo 1108807" transform="translate(-857.59 -1861.625)">
    <path id="Trazado_899260" data-name="Trazado 899260" d="M1.016,0V-11.375h3.5A5.315,5.315,0,0,1,7.2-10.7,4.712,4.712,0,0,1,9.047-8.777a5.928,5.928,0,0,1,.664,2.832v.523A5.945,5.945,0,0,1,9.059-2.6,4.672,4.672,0,0,1,7.219-.687,5.355,5.355,0,0,1,4.539,0ZM3.359-9.477v7.594H4.492a2.545,2.545,0,0,0,2.1-.9,4.06,4.06,0,0,0,.742-2.57v-.6a4.124,4.124,0,0,0-.719-2.629,2.537,2.537,0,0,0-2.1-.895ZM16.164,0a2.507,2.507,0,0,1-.227-.758A2.732,2.732,0,0,1,13.8.156a3,3,0,0,1-2.059-.719,2.312,2.312,0,0,1-.816-1.812,2.389,2.389,0,0,1,1-2.062A4.915,4.915,0,0,1,14.8-5.164h1.039v-.484a1.393,1.393,0,0,0-.3-.937,1.183,1.183,0,0,0-.949-.352,1.345,1.345,0,0,0-.895.273.929.929,0,0,0-.324.75H11.117a2.268,2.268,0,0,1,.453-1.359,3,3,0,0,1,1.281-.98,4.669,4.669,0,0,1,1.859-.355,3.689,3.689,0,0,1,2.48.785,2.747,2.747,0,0,1,.918,2.207v3.664a4.041,4.041,0,0,0,.336,1.82V0ZM14.3-1.57a1.945,1.945,0,0,0,.922-.223,1.462,1.462,0,0,0,.625-.6V-3.844H15q-1.7,0-1.8,1.172l-.008.133a.9.9,0,0,0,.3.7A1.153,1.153,0,0,0,14.3-1.57Zm8.25-8.961v2.078h1.445V-6.8H22.547v4.219a1.007,1.007,0,0,0,.18.672.9.9,0,0,0,.688.2,3.6,3.6,0,0,0,.664-.055V-.047a4.648,4.648,0,0,1-1.367.2,2.156,2.156,0,0,1-2.422-2.4V-6.8H19.055V-8.453h1.234v-2.078ZM24.664-4.3a5.013,5.013,0,0,1,.484-2.242A3.546,3.546,0,0,1,26.543-8.07a4.069,4.069,0,0,1,2.113-.539,3.849,3.849,0,0,1,2.793,1.047,4.2,4.2,0,0,1,1.207,2.844l.016.578A4.418,4.418,0,0,1,31.586-1.02,3.775,3.775,0,0,1,28.672.156a3.793,3.793,0,0,1-2.918-1.172A4.5,4.5,0,0,1,24.664-4.2Zm2.258.16A3.16,3.16,0,0,0,27.375-2.3a1.5,1.5,0,0,0,1.3.638,1.5,1.5,0,0,0,1.281-.63,3.457,3.457,0,0,0,.461-2.015,3.128,3.128,0,0,0-.461-1.831,1.5,1.5,0,0,0-1.3-.649,1.474,1.474,0,0,0-1.281.646A3.516,3.516,0,0,0,26.922-4.144ZM38.641-2.336a.727.727,0,0,0-.41-.652,4.659,4.659,0,0,0-1.316-.426Q33.9-4.047,33.9-5.977a2.323,2.323,0,0,1,.934-1.879,3.766,3.766,0,0,1,2.441-.754,4.053,4.053,0,0,1,2.574.758,2.388,2.388,0,0,1,.965,1.969H38.555a1.092,1.092,0,0,0-.312-.8A1.322,1.322,0,0,0,37.266-7a1.351,1.351,0,0,0-.883.258.814.814,0,0,0-.312.656.7.7,0,0,0,.355.605,3.657,3.657,0,0,0,1.2.4,9.8,9.8,0,0,1,1.422.379A2.336,2.336,0,0,1,40.836-2.43a2.2,2.2,0,0,1-.992,1.871,4.28,4.28,0,0,1-2.562.715,4.47,4.47,0,0,1-1.887-.379A3.166,3.166,0,0,1,34.1-1.262a2.414,2.414,0,0,1-.469-1.426h2.141a1.179,1.179,0,0,0,.445.922,1.766,1.766,0,0,0,1.109.32,1.635,1.635,0,0,0,.98-.246A.766.766,0,0,0,38.641-2.336ZM42.4-1.109a1.137,1.137,0,0,1,.363-.875,1.289,1.289,0,0,1,.91-.336,1.3,1.3,0,0,1,.918.336,1.137,1.137,0,0,1,.363.875,1.121,1.121,0,0,1-.359.863,1.305,1.305,0,0,1-.922.332,1.294,1.294,0,0,1-.914-.332A1.121,1.121,0,0,1,42.4-1.109Zm0-6.4a1.137,1.137,0,0,1,.363-.875,1.289,1.289,0,0,1,.91-.336,1.3,1.3,0,0,1,.918.336,1.137,1.137,0,0,1,.363.875,1.121,1.121,0,0,1-.359.863,1.305,1.305,0,0,1-.922.332,1.294,1.294,0,0,1-.914-.332A1.121,1.121,0,0,1,42.4-7.508Z" transform="translate(857.051 1873)" fill="#12263f"/>
    <path id="Trazado_899261" data-name="Trazado 899261" d="M5.492-4.6H2.82V0H1.313V-11.375H5.078a4.457,4.457,0,0,1,2.957.875A3.148,3.148,0,0,1,9.07-7.953,3.062,3.062,0,0,1,8.5-6.1a3.428,3.428,0,0,1-1.6,1.18L9.57-.094V0H7.961ZM2.82-5.828h2.3A2.6,2.6,0,0,0,6.9-6.407a1.959,1.959,0,0,0,.66-1.55,2.062,2.062,0,0,0-.629-1.62,2.663,2.663,0,0,0-1.816-.571H2.82Zm18.7-.531H15V-7.617h6.516Zm0,3.242H15v-1.25h6.516Zm11.656-8.266v1.227h-.266a3.805,3.805,0,0,0-2.687,1A4.161,4.161,0,0,0,29.063-6.43a3.085,3.085,0,0,1,2.453-1.031,2.95,2.95,0,0,1,2.371,1.047,4.038,4.038,0,0,1,.887,2.7A4.025,4.025,0,0,1,33.816-.9,3.3,3.3,0,0,1,31.25.156,3.247,3.247,0,0,1,28.6-1.1a4.97,4.97,0,0,1-1.016-3.23v-.555a7.488,7.488,0,0,1,1.34-4.8,4.921,4.921,0,0,1,3.988-1.7Zm-1.9,5.125a2.306,2.306,0,0,0-1.367.445A2.32,2.32,0,0,0,29.039-4.7v.531A3.731,3.731,0,0,0,29.672-1.9a1.9,1.9,0,0,0,1.578.859,1.838,1.838,0,0,0,1.535-.719,2.982,2.982,0,0,0,.559-1.883,2.983,2.983,0,0,0-.566-1.895A1.816,1.816,0,0,0,31.273-6.258ZM43.617-4.852a6.61,6.61,0,0,1-.867,3.773A3.084,3.084,0,0,1,40.039.156a3.107,3.107,0,0,1-2.7-1.207,6.274,6.274,0,0,1-.906-3.605v-1.93a6.463,6.463,0,0,1,.867-3.727,3.108,3.108,0,0,1,2.719-1.219,3.136,3.136,0,0,1,2.7,1.176,6.237,6.237,0,0,1,.891,3.629ZM42.172-6.828A5.3,5.3,0,0,0,41.656-9.5a1.775,1.775,0,0,0-1.633-.84,1.751,1.751,0,0,0-1.617.836,5.171,5.171,0,0,0-.523,2.57v2.313A5.381,5.381,0,0,0,38.418-1.9a1.771,1.771,0,0,0,1.621.879,1.747,1.747,0,0,0,1.59-.828,5.186,5.186,0,0,0,.543-2.609Zm12.07,5.563a2.4,2.4,0,0,0,1.68-1.321,6.349,6.349,0,0,0,.625-2.94V-6.575a4.389,4.389,0,0,0-.758-2.768,2.5,2.5,0,0,0-2.078-.962,2.465,2.465,0,0,0-2.07.977,4.464,4.464,0,0,0-.75,2.768v.884A6.479,6.479,0,0,0,51.5-2.642,2.464,2.464,0,0,0,53.25-1.266V0H49.406V-1.227h1.727a5.5,5.5,0,0,1-1.3-2,6.715,6.715,0,0,1-.469-2.465v-.867a5.891,5.891,0,0,1,.551-2.594,4.149,4.149,0,0,1,1.543-1.762,4.152,4.152,0,0,1,2.25-.621,4.178,4.178,0,0,1,2.238.609A4.143,4.143,0,0,1,57.492-9.2a5.769,5.769,0,0,1,.578,2.516v1.016A6.675,6.675,0,0,1,57.6-3.223a5.5,5.5,0,0,1-1.3,2h1.719V0H54.242ZM2.93,24H1.43V12.625h1.5Zm13.086-6.359H9.5V16.383h6.516Zm0,3.242H9.5v-1.25h6.516Zm13.117-1.734a6.61,6.61,0,0,1-.867,3.773,3.084,3.084,0,0,1-2.711,1.234,3.107,3.107,0,0,1-2.7-1.207,6.274,6.274,0,0,1-.906-3.605v-1.93a6.463,6.463,0,0,1,.867-3.727,3.108,3.108,0,0,1,2.719-1.219,3.136,3.136,0,0,1,2.7,1.176,6.237,6.237,0,0,1,.891,3.629Zm-1.445-1.977a5.3,5.3,0,0,0-.516-2.676,1.775,1.775,0,0,0-1.633-.84,1.751,1.751,0,0,0-1.617.836,5.171,5.171,0,0,0-.523,2.57v2.313a5.381,5.381,0,0,0,.535,2.723,1.771,1.771,0,0,0,1.621.879,1.747,1.747,0,0,0,1.59-.828,5.186,5.186,0,0,0,.543-2.609Zm3.477,6.07a.905.905,0,0,1,.223-.625.848.848,0,0,1,.668-.25.874.874,0,0,1,.676.25.887.887,0,0,1,.23.625.839.839,0,0,1-.23.6.89.89,0,0,1-.676.242.8.8,0,0,1-.891-.844ZM42.648,24H35.2V22.961l3.938-4.375a9.355,9.355,0,0,0,1.207-1.613,2.693,2.693,0,0,0,.332-1.285,2.041,2.041,0,0,0-.539-1.461,1.885,1.885,0,0,0-1.437-.57,2.232,2.232,0,0,0-1.676.613,2.343,2.343,0,0,0-.6,1.707H34.977a3.355,3.355,0,0,1,1.012-2.539,3.751,3.751,0,0,1,2.707-.969A3.6,3.6,0,0,1,41.2,13.3a2.838,2.838,0,0,1,.922,2.215q0,1.68-2.141,4l-3.047,3.3h5.711Zm2.2-5.7.578-5.672H51.25v1.336h-4.6l-.344,3.1a3.671,3.671,0,0,1,1.9-.492A3.138,3.138,0,0,1,50.672,17.6a4.026,4.026,0,0,1,.914,2.777,3.886,3.886,0,0,1-.949,2.77,3.46,3.46,0,0,1-2.652,1.012,3.6,3.6,0,0,1-2.461-.836,3.337,3.337,0,0,1-1.086-2.312H45.8a2.3,2.3,0,0,0,.7,1.473,2.162,2.162,0,0,0,1.484.5,1.95,1.95,0,0,0,1.582-.687,2.874,2.874,0,0,0,.574-1.9,2.638,2.638,0,0,0-.621-1.832,2.113,2.113,0,0,0-1.652-.691,2.383,2.383,0,0,0-1.484.414L46,18.594Zm18.938,2.727H59.016L57.945,24H56.4l4.344-11.375h1.313L66.406,24H64.867ZM59.469,19.8h3.867L61.4,14.477Z" transform="translate(857.051 1907)" fill="#12263f"/>
    <path id="Trazado_899262" data-name="Trazado 899262" d="M6.914-2.984A1.2,1.2,0,0,0,6.445-4a6.148,6.148,0,0,0-1.687-.75,11.963,11.963,0,0,1-1.93-.777A3.153,3.153,0,0,1,.891-8.352,2.747,2.747,0,0,1,1.41-10,3.389,3.389,0,0,1,2.9-11.125a5.616,5.616,0,0,1,2.184-.406,5.112,5.112,0,0,1,2.172.441,3.458,3.458,0,0,1,1.48,1.246,3.261,3.261,0,0,1,.527,1.828H6.922A1.534,1.534,0,0,0,6.43-9.23a2.023,2.023,0,0,0-1.383-.434A2.162,2.162,0,0,0,3.711-9.3a1.146,1.146,0,0,0-.477.957,1.1,1.1,0,0,0,.559.93,6.311,6.311,0,0,0,1.645.7A7.106,7.106,0,0,1,8.352-5.219,2.972,2.972,0,0,1,9.266-3,2.737,2.737,0,0,1,8.148-.684a4.891,4.891,0,0,1-3.008.84A5.808,5.808,0,0,1,2.75-.324,3.783,3.783,0,0,1,1.105-1.641,3.371,3.371,0,0,1,.539-3.578H2.891q0,1.883,2.25,1.883a2.189,2.189,0,0,0,1.3-.34A1.106,1.106,0,0,0,6.914-2.984ZM15.766-.859A2.831,2.831,0,0,1,13.453.156a2.67,2.67,0,0,1-2.074-.781,3.335,3.335,0,0,1-.73-2.289V-8.453h2.258v5.467q0,1.322,1.2,1.322a1.63,1.63,0,0,0,1.578-.8V-8.453h2.266V0H15.828Zm8.469-1.477a.727.727,0,0,0-.41-.652,4.659,4.659,0,0,0-1.316-.426q-3.016-.633-3.016-2.562a2.323,2.323,0,0,1,.934-1.879,3.766,3.766,0,0,1,2.441-.754,4.053,4.053,0,0,1,2.574.758,2.388,2.388,0,0,1,.965,1.969H24.148a1.092,1.092,0,0,0-.312-.8A1.322,1.322,0,0,0,22.859-7a1.351,1.351,0,0,0-.883.258.814.814,0,0,0-.312.656.7.7,0,0,0,.355.605,3.657,3.657,0,0,0,1.2.4,9.8,9.8,0,0,1,1.422.379A2.336,2.336,0,0,1,26.43-2.43a2.2,2.2,0,0,1-.992,1.871,4.28,4.28,0,0,1-2.562.715,4.47,4.47,0,0,1-1.887-.379A3.166,3.166,0,0,1,19.7-1.262a2.414,2.414,0,0,1-.469-1.426h2.141a1.179,1.179,0,0,0,.445.922,1.766,1.766,0,0,0,1.109.32,1.635,1.635,0,0,0,.98-.246A.766.766,0,0,0,24.234-2.336Zm6.352-8.2v2.078h1.445V-6.8H30.586v4.219a1.007,1.007,0,0,0,.18.672.9.9,0,0,0,.688.2,3.6,3.6,0,0,0,.664-.055V-.047a4.648,4.648,0,0,1-1.367.2,2.156,2.156,0,0,1-2.422-2.4V-6.8H27.094V-8.453h1.234v-2.078ZM35.672,0H33.406V-8.453h2.266Zm-2.4-10.641a1.112,1.112,0,0,1,.34-.836,1.277,1.277,0,0,1,.926-.328,1.28,1.28,0,0,1,.922.328,1.105,1.105,0,0,1,.344.836,1.108,1.108,0,0,1-.348.844,1.283,1.283,0,0,1-.918.328,1.283,1.283,0,0,1-.918-.328A1.108,1.108,0,0,1,33.273-10.641Zm6.961.109v2.078H41.68V-6.8H40.234v4.219a1.007,1.007,0,0,0,.18.672.9.9,0,0,0,.688.2,3.6,3.6,0,0,0,.664-.055V-.047a4.648,4.648,0,0,1-1.367.2,2.156,2.156,0,0,1-2.422-2.4V-6.8H36.742V-8.453h1.234v-2.078ZM48-.859A2.831,2.831,0,0,1,45.688.156a2.67,2.67,0,0,1-2.074-.781,3.335,3.335,0,0,1-.73-2.289V-8.453h2.258v5.467q0,1.322,1.2,1.322a1.63,1.63,0,0,0,1.578-.8V-8.453h2.266V0H48.063ZM55.047-3.2l1.563-5.258h2.422l-3.4,9.766-.187.445a2.577,2.577,0,0,1-2.5,1.656,3.552,3.552,0,0,1-1-.148V1.555l.344.008a1.857,1.857,0,0,0,.957-.2,1.283,1.283,0,0,0,.5-.648l.266-.7L51.047-8.453h2.43ZM63.813.156A4.15,4.15,0,0,1,60.785-.984a4.054,4.054,0,0,1-1.168-3.039v-.219a5.106,5.106,0,0,1,.492-2.277A3.612,3.612,0,0,1,61.5-8.066a3.914,3.914,0,0,1,2.059-.543,3.508,3.508,0,0,1,2.73,1.094,4.444,4.444,0,0,1,1,3.1v.922H61.906a2.1,2.1,0,0,0,.66,1.328,2,2,0,0,0,1.395.5A2.437,2.437,0,0,0,66-2.609l1.109,1.242A3.389,3.389,0,0,1,65.734-.246,4.511,4.511,0,0,1,63.813.156Zm-.258-6.945a1.411,1.411,0,0,0-1.09.455,2.357,2.357,0,0,0-.535,1.3H65.07v-.181a1.681,1.681,0,0,0-.406-1.165A1.456,1.456,0,0,0,63.555-6.789Zm7.094-1.664.07.977a2.951,2.951,0,0,1,2.43-1.133,2.453,2.453,0,0,1,2,.789,3.682,3.682,0,0,1,.672,2.359V0H73.563V-5.406a1.465,1.465,0,0,0-.312-1.043,1.4,1.4,0,0,0-1.039-.324,1.553,1.553,0,0,0-1.43.813V0H68.523V-8.453ZM77.18-4.289a5.094,5.094,0,0,1,.887-3.148,2.877,2.877,0,0,1,2.426-1.172,2.589,2.589,0,0,1,2.039.922V-12H84.8V0H82.758l-.109-.9A2.657,2.657,0,0,1,80.477.156,2.869,2.869,0,0,1,78.082-1.02,5.258,5.258,0,0,1,77.18-4.289Zm2.258.168A3.337,3.337,0,0,0,79.852-2.3a1.349,1.349,0,0,0,1.2.634,1.511,1.511,0,0,0,1.477-.884V-5.889a1.489,1.489,0,0,0-1.461-.884Q79.438-6.773,79.438-4.121ZM86.2-4.3a5.013,5.013,0,0,1,.484-2.242A3.546,3.546,0,0,1,88.074-8.07a4.069,4.069,0,0,1,2.113-.539A3.849,3.849,0,0,1,92.98-7.562a4.2,4.2,0,0,1,1.207,2.844l.016.578A4.418,4.418,0,0,1,93.117-1.02,3.775,3.775,0,0,1,90.2.156a3.793,3.793,0,0,1-2.918-1.172A4.5,4.5,0,0,1,86.2-4.2Zm2.258.16A3.16,3.16,0,0,0,88.906-2.3a1.5,1.5,0,0,0,1.3.638,1.5,1.5,0,0,0,1.281-.63,3.457,3.457,0,0,0,.461-2.015,3.128,3.128,0,0,0-.461-1.831,1.5,1.5,0,0,0-1.3-.649,1.474,1.474,0,0,0-1.281.646A3.516,3.516,0,0,0,88.453-4.144ZM95.7-1.109a1.137,1.137,0,0,1,.363-.875,1.289,1.289,0,0,1,.91-.336,1.3,1.3,0,0,1,.918.336,1.137,1.137,0,0,1,.363.875,1.121,1.121,0,0,1-.359.863,1.305,1.305,0,0,1-.922.332,1.294,1.294,0,0,1-.914-.332A1.121,1.121,0,0,1,95.7-1.109Zm0-6.4a1.137,1.137,0,0,1,.363-.875,1.289,1.289,0,0,1,.91-.336,1.3,1.3,0,0,1,.918.336,1.137,1.137,0,0,1,.363.875,1.121,1.121,0,0,1-.359.863,1.305,1.305,0,0,1-.922.332,1.294,1.294,0,0,1-.914-.332A1.121,1.121,0,0,1,95.7-7.508Z" transform="translate(857.051 1965)" fill="#12263f"/>
    <path id="Trazado_899263" data-name="Trazado 899263" d="M4.484-2.008,9.1-11.375h1.656L4.883,0h-1.3l-2.3-11.375H2.82ZM21.617-6.359H15.1V-7.617h6.516Zm0,3.242H15.1v-1.25h6.516ZM28.688,0H27.227L29.2-11.375h1.461Zm8.8-7.684-2.359-.7.359-1.178,2.359.874-.07-2.685h1.2L38.9-8.651l2.32-.859.359,1.186-2.4.71L40.727-5.5l-.969.734L38.3-7.012,36.9-4.816l-.977-.711Zm13.625,3.09H48.492L47.7,0H46.219L48.2-11.375l3.422.008a3.814,3.814,0,0,1,2.727.907,2.83,2.83,0,0,1,.789,2.448,3.241,3.241,0,0,1-.777,1.885A4.247,4.247,0,0,1,52.516-4.9L54.281-.1l-.008.1H52.711ZM48.7-5.828l2.156.008a3.012,3.012,0,0,0,1.9-.6,2.326,2.326,0,0,0,.906-1.6,1.837,1.837,0,0,0-.391-1.531,2.087,2.087,0,0,0-1.547-.586l-2.273-.008Zm18.359-.531H60.547V-7.617h6.516Zm0,3.242H60.547v-1.25h6.516ZM80.18-4.852a6.61,6.61,0,0,1-.867,3.773A3.084,3.084,0,0,1,76.6.156a3.107,3.107,0,0,1-2.7-1.207A6.274,6.274,0,0,1,73-4.656v-1.93a6.463,6.463,0,0,1,.867-3.727,3.108,3.108,0,0,1,2.719-1.219,3.136,3.136,0,0,1,2.7,1.176,6.237,6.237,0,0,1,.891,3.629ZM78.734-6.828A5.3,5.3,0,0,0,78.219-9.5a1.775,1.775,0,0,0-1.633-.84,1.751,1.751,0,0,0-1.617.836,5.171,5.171,0,0,0-.523,2.57v2.313A5.381,5.381,0,0,0,74.98-1.9a1.771,1.771,0,0,0,1.621.879,1.747,1.747,0,0,0,1.59-.828,5.186,5.186,0,0,0,.543-2.609Zm3.477,6.07a.905.905,0,0,1,.223-.625.848.848,0,0,1,.668-.25.874.874,0,0,1,.676.25.887.887,0,0,1,.23.625.839.839,0,0,1-.23.6A.89.89,0,0,1,83.1.086a.863.863,0,0,1-.668-.242A.855.855,0,0,1,82.211-.758ZM93.7,0H86.242V-1.039L90.18-5.414a9.354,9.354,0,0,0,1.207-1.613,2.693,2.693,0,0,0,.332-1.285,2.041,2.041,0,0,0-.539-1.461,1.885,1.885,0,0,0-1.437-.57,2.232,2.232,0,0,0-1.676.613,2.343,2.343,0,0,0-.6,1.707H86.023a3.355,3.355,0,0,1,1.012-2.539,3.751,3.751,0,0,1,2.707-.969,3.6,3.6,0,0,1,2.508.832,2.838,2.838,0,0,1,.922,2.215q0,1.68-2.141,4l-3.047,3.3H93.7Zm2.2-5.7.578-5.672H102.3v1.336H97.7l-.344,3.1a3.671,3.671,0,0,1,1.9-.492A3.138,3.138,0,0,1,101.719-6.4a4.026,4.026,0,0,1,.914,2.777,3.886,3.886,0,0,1-.949,2.77A3.46,3.46,0,0,1,99.031.156,3.6,3.6,0,0,1,96.57-.68a3.337,3.337,0,0,1-1.086-2.312h1.367a2.3,2.3,0,0,0,.7,1.473,2.162,2.162,0,0,0,1.484.5,1.95,1.95,0,0,0,1.582-.687,2.874,2.874,0,0,0,.574-1.9,2.638,2.638,0,0,0-.621-1.832,2.113,2.113,0,0,0-1.652-.691,2.383,2.383,0,0,0-1.484.414l-.383.313Zm14.477,2.727h-4.609L104.2,0h-1.57l6.18-11.375H110.1L112.352,0h-1.445ZM106.406-4.2h3.742l-.945-5.3Zm16.055-2.812,2.727-4.359h1.766l-3.594,5.641L127.039,0h-1.781l-2.8-4.437L119.648,0h-1.773l3.688-5.734-3.6-5.641h1.758Zm15.578-4.367v1.227h-.266a3.805,3.805,0,0,0-2.687,1A4.161,4.161,0,0,0,133.93-6.43a3.085,3.085,0,0,1,2.453-1.031,2.95,2.95,0,0,1,2.371,1.047,4.038,4.038,0,0,1,.887,2.7A4.025,4.025,0,0,1,138.684-.9,3.3,3.3,0,0,1,136.117.156,3.247,3.247,0,0,1,133.469-1.1a4.97,4.97,0,0,1-1.016-3.23v-.555a7.488,7.488,0,0,1,1.34-4.8,4.921,4.921,0,0,1,3.988-1.7Zm-1.9,5.125a2.306,2.306,0,0,0-1.367.445,2.32,2.32,0,0,0-.867,1.117v.531a3.731,3.731,0,0,0,.633,2.266,1.9,1.9,0,0,0,1.578.859,1.838,1.838,0,0,0,1.535-.719,2.982,2.982,0,0,0,.559-1.883,2.983,2.983,0,0,0-.566-1.895A1.816,1.816,0,0,0,136.141-6.258Zm12.344,1.406a6.61,6.61,0,0,1-.867,3.773A3.084,3.084,0,0,1,144.906.156a3.107,3.107,0,0,1-2.7-1.207,6.274,6.274,0,0,1-.906-3.605v-1.93a6.463,6.463,0,0,1,.867-3.727,3.108,3.108,0,0,1,2.719-1.219,3.136,3.136,0,0,1,2.7,1.176,6.237,6.237,0,0,1,.891,3.629Zm-1.445-1.977a5.3,5.3,0,0,0-.516-2.676,1.775,1.775,0,0,0-1.633-.84,1.751,1.751,0,0,0-1.617.836,5.171,5.171,0,0,0-.523,2.57v2.313a5.381,5.381,0,0,0,.535,2.723,1.771,1.771,0,0,0,1.621.879,1.747,1.747,0,0,0,1.59-.828,5.186,5.186,0,0,0,.543-2.609Zm8.109,5.563a2.4,2.4,0,0,0,1.68-1.321,6.349,6.349,0,0,0,.625-2.94V-6.575a4.39,4.39,0,0,0-.758-2.768,2.5,2.5,0,0,0-2.078-.962,2.465,2.465,0,0,0-2.07.977,4.464,4.464,0,0,0-.75,2.768v.884a6.479,6.479,0,0,0,.613,3.034,2.464,2.464,0,0,0,1.746,1.376V0h-3.844V-1.227h1.727a5.5,5.5,0,0,1-1.3-2,6.715,6.715,0,0,1-.469-2.465v-.867a5.891,5.891,0,0,1,.551-2.594,4.149,4.149,0,0,1,1.543-1.762,4.152,4.152,0,0,1,2.25-.621,4.178,4.178,0,0,1,2.238.609A4.143,4.143,0,0,1,158.4-9.2a5.769,5.769,0,0,1,.578,2.516v1.016a6.675,6.675,0,0,1-.469,2.449,5.5,5.5,0,0,1-1.3,2h1.719V0h-3.781ZM171.7-6.359H165.18V-7.617H171.7Zm0,3.242H165.18v-1.25H171.7ZM182.43,0h-1.453V-9.633l-2.914,1.07V-9.875L182.2-11.43h.227Zm4.9-5.7.578-5.672h5.828v1.336h-4.6l-.344,3.1a3.671,3.671,0,0,1,1.9-.492A3.138,3.138,0,0,1,193.156-6.4a4.026,4.026,0,0,1,.914,2.777,3.886,3.886,0,0,1-.949,2.77A3.46,3.46,0,0,1,190.469.156a3.6,3.6,0,0,1-2.461-.836,3.337,3.337,0,0,1-1.086-2.312h1.367a2.3,2.3,0,0,0,.7,1.473,2.162,2.162,0,0,0,1.484.5,1.95,1.95,0,0,0,1.582-.687,2.874,2.874,0,0,0,.574-1.9A2.638,2.638,0,0,0,192-5.441a2.113,2.113,0,0,0-1.652-.691,2.383,2.383,0,0,0-1.484.414l-.383.313Zm11.859,3.7,4.617-9.367h1.656L199.586,0h-1.3l-2.3-11.375h1.539Z" transform="translate(861.051 1994)" fill="#12263f"/>
  </g>
</svg>
