<svg xmlns="http://www.w3.org/2000/svg" width="338" height="233" viewBox="0 0 338 233">
  <g id="Grupo_1108799" data-name="Grupo 1108799" transform="translate(2626 9398)">
    <path id="Trazado_899231" data-name="Trazado 899231" d="M0,0H338V233H0Z" transform="translate(-2626 -9398)" fill="#f4c0c0"/>
    <path id="Trazado_898905" data-name="Trazado 898905" d="M-4300-9137.633v-63.227h60.938" transform="translate(1708 -167)" fill="none" stroke="#000" stroke-width="3"/>
    <path id="Trazado_898906" data-name="Trazado 898906" d="M-4196.82-9200.859h61.137" transform="translate(1708 -167)" fill="none" stroke="#000" stroke-width="3"/>
    <path id="Trazado_898907" data-name="Trazado 898907" d="M-4239.062-9137.633v-63.227H-4300" transform="translate(1923 -167)" fill="none" stroke="#000" stroke-width="3"/>
    <path id="Trazado_898908" data-name="Trazado 898908" d="M-4239.062-9200.859v65.945H-4300" transform="translate(1923 -65.141)" fill="none" stroke="#000" stroke-width="3"/>
    <path id="Trazado_898909" data-name="Trazado 898909" d="M-4196.82-9200.859h61.137" transform="translate(1708 0.805)" fill="none" stroke="#000" stroke-width="3"/>
    <path id="Trazado_898910" data-name="Trazado 898910" d="M-4300-9218.724v77.948h60.938" transform="translate(1708 -59.279)" fill="none" stroke="#000" stroke-width="3"/>
    <path id="Trazado_898911" data-name="Trazado 898911" d="M-4249.752-9209.859h14.453l6.706-16.7,4.688,26.589,6.9-23.133,4.063,23.133,8.794-23.133,6.224,13.239h10.516" transform="translate(1708 -158)" fill="none" stroke="red" stroke-width="3"/>
    <path id="Trazado_898912" data-name="Trazado 898912" d="M-4249.752-9209.859h14.453l6.706-16.7,4.688,26.589,6.9-23.133,4.063,23.133,8.794-23.133,6.224,13.239h10.516" transform="translate(1814.702 -158)" fill="none" stroke="red" stroke-width="3"/>
    <path id="Trazado_898913" data-name="Trazado 898913" d="M-4249.752-9209.859h14.453l6.706-16.7,4.688,26.589,6.9-23.133,4.063,23.133,8.794-23.133,6.224,13.239h10.516" transform="translate(-11526.322 -5069.588) rotate(90)" fill="none" stroke="red" stroke-width="3"/>
    <path id="Trazado_898914" data-name="Trazado 898914" d="M-4249.752-9209.859h14.453l6.706-16.7,4.688,26.589,6.9-23.133,4.063,23.133,8.794-23.133,6.224,13.239h10.516" transform="translate(1814.702 10)" fill="none" stroke="red" stroke-width="3"/>
    <path id="Trazado_898915" data-name="Trazado 898915" d="M-4249.752-9209.859h14.453l6.706-16.7,4.688,26.589,6.9-23.133,4.063,23.133,8.794-23.133,6.224,13.239h10.516" transform="translate(1711.702 10)" fill="none" stroke="red" stroke-width="3"/>
    <path id="Trazado_898916" data-name="Trazado 898916" d="M-7827.068-9340.49h26.643" transform="translate(5222.245 46.616)" fill="none" stroke="#ff2c29" stroke-width="3"/>
    <path id="Trazado_898917" data-name="Trazado 898917" d="M-7827.068-9340.49h39.772" transform="translate(5215.245 37.364)" fill="none" stroke="#ff2c29" stroke-width="3"/>
    <path id="Trazado_899233" data-name="Trazado 899233" d="M7.2-8.39h4.361v1.88H7.2v4.941h-2V-6.51H.838V-8.39H5.2v-4.565h2Z" transform="translate(-2582 -9314)" fill="#12263f"/>
    <path id="Trazado_899235" data-name="Trazado 899235" d="M6.993-2.739l4.469-12.9h2.256L7.917,0H6.091L.3-15.641H2.546Z" transform="translate(-2612 -9265)" fill="#12263f"/>
    <path id="Trazado_899234" data-name="Trazado 899234" d="M6.993-2.739l4.469-12.9h2.256L7.917,0H6.091L.3-15.641H2.546ZM21.828,0h-2V-13.245l-4.007,1.472v-1.8l5.693-2.138h.312ZM42.389-8.744H33.43v-1.729h8.959Zm0,4.458H33.43V-6h8.959ZM58.233-6.875a4.862,4.862,0,0,1-1.488,1.192,4.036,4.036,0,0,1-1.9.451A4.167,4.167,0,0,1,52.492-5.9a4.33,4.33,0,0,1-1.552-1.875,6.39,6.39,0,0,1-.548-2.669,6.511,6.511,0,0,1,.6-2.825,4.379,4.379,0,0,1,1.692-1.923,4.825,4.825,0,0,1,2.557-.666,4.368,4.368,0,0,1,3.658,1.735,7.567,7.567,0,0,1,1.337,4.732v.58q0,4.565-1.8,6.666A6.933,6.933,0,0,1,52.98.011h-.387V-1.676h.419a5.471,5.471,0,0,0,3.781-1.281A5.5,5.5,0,0,0,58.233-6.875Zm-3.062,0a3.069,3.069,0,0,0,1.842-.612A3.609,3.609,0,0,0,58.244-9V-9.8a5.469,5.469,0,0,0-.849-3.18A2.532,2.532,0,0,0,55.247-14.2a2.552,2.552,0,0,0-2.105,1,4.143,4.143,0,0,0-.795,2.648,4.312,4.312,0,0,0,.768,2.637A2.432,2.432,0,0,0,55.172-6.875Zm17.606.2a9.089,9.089,0,0,1-1.192,5.188,4.241,4.241,0,0,1-3.728,1.7,4.272,4.272,0,0,1-3.706-1.66A8.627,8.627,0,0,1,62.906-6.4V-9.056A8.887,8.887,0,0,1,64.1-14.18a4.273,4.273,0,0,1,3.738-1.676,4.312,4.312,0,0,1,3.717,1.617,8.576,8.576,0,0,1,1.225,4.99ZM70.791-9.389a7.282,7.282,0,0,0-.709-3.679,2.44,2.44,0,0,0-2.245-1.155,2.408,2.408,0,0,0-2.224,1.149,7.11,7.11,0,0,0-.72,3.534v3.18a7.4,7.4,0,0,0,.736,3.744,2.436,2.436,0,0,0,2.229,1.208,2.4,2.4,0,0,0,2.186-1.139,7.131,7.131,0,0,0,.747-3.588ZM81.018-2.739l4.469-12.9h2.256L81.941,0H80.115l-5.79-15.641H76.57Z" transform="translate(-2557 -9290)" fill="#12263f"/>
    <path id="Trazado_899232" data-name="Trazado 899232" d="M5.7,0H4.242V-9.633L1.328-8.562V-9.875L5.469-11.43H5.7ZM17.063-4.852A6.61,6.61,0,0,1,16.2-1.078,3.084,3.084,0,0,1,13.484.156a3.107,3.107,0,0,1-2.7-1.207,6.274,6.274,0,0,1-.906-3.605v-1.93a6.463,6.463,0,0,1,.867-3.727,3.108,3.108,0,0,1,2.719-1.219,3.136,3.136,0,0,1,2.7,1.176,6.237,6.237,0,0,1,.891,3.629ZM15.617-6.828A5.3,5.3,0,0,0,15.1-9.5a1.775,1.775,0,0,0-1.633-.84,1.751,1.751,0,0,0-1.617.836,5.171,5.171,0,0,0-.523,2.57v2.313A5.381,5.381,0,0,0,11.863-1.9a1.771,1.771,0,0,0,1.621.879,1.747,1.747,0,0,0,1.59-.828,5.186,5.186,0,0,0,.543-2.609Zm12.07,5.563a2.4,2.4,0,0,0,1.68-1.321,6.349,6.349,0,0,0,.625-2.94V-6.575a4.389,4.389,0,0,0-.758-2.768,2.5,2.5,0,0,0-2.078-.962,2.465,2.465,0,0,0-2.07.977,4.464,4.464,0,0,0-.75,2.768v.884a6.479,6.479,0,0,0,.613,3.034A2.464,2.464,0,0,0,26.7-1.266V0H22.852V-1.227h1.727a5.5,5.5,0,0,1-1.3-2,6.715,6.715,0,0,1-.469-2.465v-.867a5.891,5.891,0,0,1,.551-2.594,4.149,4.149,0,0,1,1.543-1.762,4.152,4.152,0,0,1,2.25-.621,4.178,4.178,0,0,1,2.238.609A4.143,4.143,0,0,1,30.938-9.2a5.769,5.769,0,0,1,.578,2.516v1.016a6.675,6.675,0,0,1-.469,2.449,5.5,5.5,0,0,1-1.3,2h1.719V0H27.688Z" transform="translate(-2525 -9338)" fill="#12263f"/>
    <path id="Trazado_899237" data-name="Trazado 899237" d="M1.609-5.7l.578-5.672H8.016v1.336h-4.6l-.344,3.1a3.671,3.671,0,0,1,1.9-.492A3.138,3.138,0,0,1,7.438-6.4a4.026,4.026,0,0,1,.914,2.777A3.886,3.886,0,0,1,7.4-.855,3.46,3.46,0,0,1,4.75.156,3.6,3.6,0,0,1,2.289-.68,3.337,3.337,0,0,1,1.2-2.992H2.57a2.3,2.3,0,0,0,.7,1.473,2.162,2.162,0,0,0,1.484.5,1.95,1.95,0,0,0,1.582-.687,2.874,2.874,0,0,0,.574-1.9,2.638,2.638,0,0,0-.621-1.832,2.113,2.113,0,0,0-1.652-.691,2.383,2.383,0,0,0-1.484.414l-.383.313ZM18.7-1.266a2.4,2.4,0,0,0,1.68-1.321,6.349,6.349,0,0,0,.625-2.94V-6.575a4.389,4.389,0,0,0-.758-2.768,2.5,2.5,0,0,0-2.078-.962,2.465,2.465,0,0,0-2.07.977,4.464,4.464,0,0,0-.75,2.768v.884a6.479,6.479,0,0,0,.613,3.034,2.464,2.464,0,0,0,1.746,1.376V0H13.867V-1.227h1.727a5.5,5.5,0,0,1-1.3-2,6.715,6.715,0,0,1-.469-2.465v-.867a5.891,5.891,0,0,1,.551-2.594,4.149,4.149,0,0,1,1.543-1.762,4.152,4.152,0,0,1,2.25-.621,4.178,4.178,0,0,1,2.238.609A4.143,4.143,0,0,1,21.953-9.2a5.769,5.769,0,0,1,.578,2.516v1.016a6.675,6.675,0,0,1-.469,2.449,5.5,5.5,0,0,1-1.3,2h1.719V0H18.7Z" transform="translate(-2417 -9338)" fill="#12263f"/>
    <path id="Trazado_899236" data-name="Trazado 899236" d="M8.4,0H.945V-1.039L4.883-5.414A9.354,9.354,0,0,0,6.09-7.027a2.693,2.693,0,0,0,.332-1.285,2.041,2.041,0,0,0-.539-1.461,1.885,1.885,0,0,0-1.437-.57A2.232,2.232,0,0,0,2.77-9.73a2.343,2.343,0,0,0-.6,1.707H.727a3.355,3.355,0,0,1,1.012-2.539,3.751,3.751,0,0,1,2.707-.969,3.6,3.6,0,0,1,2.508.832,2.838,2.838,0,0,1,.922,2.215q0,1.68-2.141,4L2.688-1.18H8.4Zm8.664-4.852A6.61,6.61,0,0,1,16.2-1.078,3.084,3.084,0,0,1,13.484.156a3.107,3.107,0,0,1-2.7-1.207,6.274,6.274,0,0,1-.906-3.605v-1.93a6.463,6.463,0,0,1,.867-3.727,3.108,3.108,0,0,1,2.719-1.219,3.136,3.136,0,0,1,2.7,1.176,6.237,6.237,0,0,1,.891,3.629ZM15.617-6.828A5.3,5.3,0,0,0,15.1-9.5a1.775,1.775,0,0,0-1.633-.84,1.751,1.751,0,0,0-1.617.836,5.171,5.171,0,0,0-.523,2.57v2.313A5.381,5.381,0,0,0,11.863-1.9a1.771,1.771,0,0,0,1.621.879,1.747,1.747,0,0,0,1.59-.828,5.186,5.186,0,0,0,.543-2.609Zm12.07,5.563a2.4,2.4,0,0,0,1.68-1.321,6.349,6.349,0,0,0,.625-2.94V-6.575a4.389,4.389,0,0,0-.758-2.768,2.5,2.5,0,0,0-2.078-.962,2.465,2.465,0,0,0-2.07.977,4.464,4.464,0,0,0-.75,2.768v.884a6.479,6.479,0,0,0,.613,3.034A2.464,2.464,0,0,0,26.7-1.266V0H22.852V-1.227h1.727a5.5,5.5,0,0,1-1.3-2,6.715,6.715,0,0,1-.469-2.465v-.867a5.891,5.891,0,0,1,.551-2.594,4.149,4.149,0,0,1,1.543-1.762,4.152,4.152,0,0,1,2.25-.621,4.178,4.178,0,0,1,2.238.609A4.143,4.143,0,0,1,30.938-9.2a5.769,5.769,0,0,1,.578,2.516v1.016a6.675,6.675,0,0,1-.469,2.449,5.5,5.5,0,0,1-1.3,2h1.719V0H27.688Z" transform="translate(-2525 -9230)" fill="#12263f"/>
    <path id="Trazado_899238" data-name="Trazado 899238" d="M1.609-5.7l.578-5.672H8.016v1.336h-4.6l-.344,3.1a3.671,3.671,0,0,1,1.9-.492A3.138,3.138,0,0,1,7.438-6.4a4.026,4.026,0,0,1,.914,2.777A3.886,3.886,0,0,1,7.4-.855,3.46,3.46,0,0,1,4.75.156,3.6,3.6,0,0,1,2.289-.68,3.337,3.337,0,0,1,1.2-2.992H2.57a2.3,2.3,0,0,0,.7,1.473,2.162,2.162,0,0,0,1.484.5,1.95,1.95,0,0,0,1.582-.687,2.874,2.874,0,0,0,.574-1.9,2.638,2.638,0,0,0-.621-1.832,2.113,2.113,0,0,0-1.652-.691,2.383,2.383,0,0,0-1.484.414l-.383.313ZM18.7-1.266a2.4,2.4,0,0,0,1.68-1.321,6.349,6.349,0,0,0,.625-2.94V-6.575a4.389,4.389,0,0,0-.758-2.768,2.5,2.5,0,0,0-2.078-.962,2.465,2.465,0,0,0-2.07.977,4.464,4.464,0,0,0-.75,2.768v.884a6.479,6.479,0,0,0,.613,3.034,2.464,2.464,0,0,0,1.746,1.376V0H13.867V-1.227h1.727a5.5,5.5,0,0,1-1.3-2,6.715,6.715,0,0,1-.469-2.465v-.867a5.891,5.891,0,0,1,.551-2.594,4.149,4.149,0,0,1,1.543-1.762,4.152,4.152,0,0,1,2.25-.621,4.178,4.178,0,0,1,2.238.609A4.143,4.143,0,0,1,21.953-9.2a5.769,5.769,0,0,1,.578,2.516v1.016a6.675,6.675,0,0,1-.469,2.449,5.5,5.5,0,0,1-1.3,2h1.719V0H18.7Z" transform="translate(-2417 -9230)" fill="#12263f"/>
    <path id="Trazado_899239" data-name="Trazado 899239" d="M8.4,0H.945V-1.039L4.883-5.414A9.354,9.354,0,0,0,6.09-7.027a2.693,2.693,0,0,0,.332-1.285,2.041,2.041,0,0,0-.539-1.461,1.885,1.885,0,0,0-1.437-.57A2.232,2.232,0,0,0,2.77-9.73a2.343,2.343,0,0,0-.6,1.707H.727a3.355,3.355,0,0,1,1.012-2.539,3.751,3.751,0,0,1,2.707-.969,3.6,3.6,0,0,1,2.508.832,2.838,2.838,0,0,1,.922,2.215q0,1.68-2.141,4L2.688-1.18H8.4ZM18.7-1.266a2.4,2.4,0,0,0,1.68-1.321,6.349,6.349,0,0,0,.625-2.94V-6.575a4.389,4.389,0,0,0-.758-2.768,2.5,2.5,0,0,0-2.078-.962,2.465,2.465,0,0,0-2.07.977,4.464,4.464,0,0,0-.75,2.768v.884a6.479,6.479,0,0,0,.613,3.034,2.464,2.464,0,0,0,1.746,1.376V0H13.867V-1.227h1.727a5.5,5.5,0,0,1-1.3-2,6.715,6.715,0,0,1-.469-2.465v-.867a5.891,5.891,0,0,1,.551-2.594,4.149,4.149,0,0,1,1.543-1.762,4.152,4.152,0,0,1,2.25-.621,4.178,4.178,0,0,1,2.238.609A4.143,4.143,0,0,1,21.953-9.2a5.769,5.769,0,0,1,.578,2.516v1.016a6.675,6.675,0,0,1-.469,2.449,5.5,5.5,0,0,1-1.3,2h1.719V0H18.7Z" transform="translate(-2364 -9282)" fill="#12263f"/>
  </g>
</svg>
