<svg xmlns="http://www.w3.org/2000/svg" width="400" height="276" viewBox="0 0 400 276">
  <g id="Grupo_1108799" data-name="Grupo 1108799" transform="translate(2158 9100)">
    <path id="Trazado_899231" data-name="Trazado 899231" d="M0,0H400V276H0Z" transform="translate(-2158 -9100)" fill="#f4c0c0"/>
    <path id="Trazado_898965" data-name="Trazado 898965" d="M-3694.5-8424.692v-59.4h312.4v65.126" transform="translate(1579 -582)" fill="none" stroke="#000" stroke-width="3"/>
    <path id="Trazado_898966" data-name="Trazado 898966" d="M-4249.752-9209.859h14.453l6.706-16.7,4.688,26.589,6.9-23.133,4.063,23.133,8.794-23.133,6.224,13.239h10.516" transform="translate(-11013.359 -4753.588) rotate(90)" fill="none" stroke="red" stroke-width="3"/>
    <path id="Trazado_898967" data-name="Trazado 898967" d="M-7827.068-9340.49h26.643" transform="translate(5698.682 342.616)" fill="none" stroke="#ff2c29" stroke-width="3"/>
    <path id="Trazado_898968" data-name="Trazado 898968" d="M-7827.068-9340.49h39.772" transform="translate(5691.682 335.364)" fill="none" stroke="#ff2c29" stroke-width="3"/>
    <path id="Trazado_898969" data-name="Trazado 898969" d="M-7827.067-9340.49h47.8" transform="translate(5688.175 349.868)" fill="none" stroke="#ff2c29" stroke-width="2"/>
    <path id="Trazado_898970" data-name="Trazado 898970" d="M-7827.068-9340.49h26.643" transform="translate(5698.682 357.12)" fill="none" stroke="#ff2c29" stroke-width="3"/>
    <path id="Trazado_899232" data-name="Trazado 899232" d="M5.086-1.992l3.25-9.383H9.977L5.758,0H4.43L.219-11.375H1.852ZM15.875,0H14.422V-9.633l-2.914,1.07V-9.875l4.141-1.555h.227ZM27.227-4.242H23.414v-1.18h3.813ZM39.9,0H32.445V-1.039l3.938-4.375A9.355,9.355,0,0,0,37.59-7.027a2.693,2.693,0,0,0,.332-1.285,2.041,2.041,0,0,0-.539-1.461,1.885,1.885,0,0,0-1.437-.57,2.232,2.232,0,0,0-1.676.613,2.343,2.343,0,0,0-.6,1.707H32.227a3.355,3.355,0,0,1,1.012-2.539,3.751,3.751,0,0,1,2.707-.969,3.6,3.6,0,0,1,2.508.832,2.838,2.838,0,0,1,.922,2.215q0,1.68-2.141,4l-3.047,3.3H39.9Zm2.2-5.7.578-5.672H48.5v1.336H43.9l-.344,3.1a3.671,3.671,0,0,1,1.9-.492A3.138,3.138,0,0,1,47.922-6.4a4.026,4.026,0,0,1,.914,2.777,3.886,3.886,0,0,1-.949,2.77A3.46,3.46,0,0,1,45.234.156,3.6,3.6,0,0,1,42.773-.68a3.337,3.337,0,0,1-1.086-2.312h1.367a2.3,2.3,0,0,0,.7,1.473,2.162,2.162,0,0,0,1.484.5,1.95,1.95,0,0,0,1.582-.687,2.874,2.874,0,0,0,.574-1.9,2.638,2.638,0,0,0-.621-1.832,2.113,2.113,0,0,0-1.652-.691,2.383,2.383,0,0,0-1.484.414l-.383.313ZM54.555-1.992l3.25-9.383h1.641L55.227,0H53.9L49.688-11.375H51.32Z" transform="translate(-2077 -8985)" fill="#12263f"/>
    <path id="Trazado_899234" data-name="Trazado 899234" d="M5.086-1.992l3.25-9.383H9.977L5.758,0H4.43L.219-11.375H1.852ZM18.578,0H11.125V-1.039l3.938-4.375A9.354,9.354,0,0,0,16.27-7.027,2.693,2.693,0,0,0,16.6-8.312a2.041,2.041,0,0,0-.539-1.461,1.885,1.885,0,0,0-1.437-.57,2.232,2.232,0,0,0-1.676.613,2.343,2.343,0,0,0-.6,1.707H10.906a3.355,3.355,0,0,1,1.012-2.539,3.751,3.751,0,0,1,2.707-.969,3.6,3.6,0,0,1,2.508.832,2.838,2.838,0,0,1,.922,2.215q0,1.68-2.141,4l-3.047,3.3h5.711Zm8.648-4.242H23.414v-1.18h3.813ZM33.109-5.7l.578-5.672h5.828v1.336h-4.6l-.344,3.1a3.671,3.671,0,0,1,1.9-.492A3.138,3.138,0,0,1,38.938-6.4a4.026,4.026,0,0,1,.914,2.777A3.886,3.886,0,0,1,38.9-.855,3.46,3.46,0,0,1,36.25.156,3.6,3.6,0,0,1,33.789-.68,3.337,3.337,0,0,1,32.7-2.992H34.07a2.3,2.3,0,0,0,.7,1.473,2.162,2.162,0,0,0,1.484.5,1.95,1.95,0,0,0,1.582-.687,2.874,2.874,0,0,0,.574-1.9,2.638,2.638,0,0,0-.621-1.832,2.113,2.113,0,0,0-1.652-.691,2.383,2.383,0,0,0-1.484.414l-.383.313ZM45.57-1.992l3.25-9.383h1.641L46.242,0H44.914L40.7-11.375h1.633Z" transform="translate(-1984 -8895)" fill="#12263f"/>
    <path id="Trazado_898971" data-name="Trazado 898971" d="M-2159.993-8399v120.341h140.331" transform="translate(45 -582)" fill="none" stroke="#000" stroke-width="3"/>
    <path id="Trazado_898972" data-name="Trazado 898972" d="M-7827.068-9340.49h26.643" transform="translate(-11296.164 -1046.985) rotate(90)" fill="none" stroke="#ff2c29" stroke-width="3"/>
    <path id="Trazado_898973" data-name="Trazado 898973" d="M-7827.068-9340.49h39.772" transform="translate(-11288.912 -1053.985) rotate(90)" fill="none" stroke="#ff2c29" stroke-width="3"/>
    <path id="Trazado_898974" data-name="Trazado 898974" d="M-7827.067-9340.49h47.8" transform="translate(-11303.416 -1057.492) rotate(90)" fill="none" stroke="#ff2c29" stroke-width="2"/>
    <path id="Trazado_898975" data-name="Trazado 898975" d="M-7827.068-9340.49h26.643" transform="translate(-11310.668 -1046.985) rotate(90)" fill="none" stroke="#ff2c29" stroke-width="3"/>
    <path id="Trazado_899233" data-name="Trazado 899233" d="M2.789-3.216A4.663,4.663,0,0,1,3-4.683a3.761,3.761,0,0,1,.8-1.193L4.82-6.929a2.36,2.36,0,0,0,.656-1.59A1.815,1.815,0,0,0,5.047-9.8a1.62,1.62,0,0,0-1.25-.464,1.881,1.881,0,0,0-1.281.422,1.426,1.426,0,0,0-.484,1.133H.586a2.632,2.632,0,0,1,.9-2.043A3.374,3.374,0,0,1,3.8-11.531a3.185,3.185,0,0,1,2.3.792,2.87,2.87,0,0,1,.824,2.172A3.926,3.926,0,0,1,5.656-5.876L4.8-5.034a2.623,2.623,0,0,0-.57,1.818ZM2.727-.734a.861.861,0,0,1,.215-.6.81.81,0,0,1,.637-.241.822.822,0,0,1,.641.241.852.852,0,0,1,.219.6.824.824,0,0,1-.219.588.837.837,0,0,1-.641.233.824.824,0,0,1-.637-.233A.832.832,0,0,1,2.727-.734Z" transform="translate(-1837 -8966)" fill="#12263f"/>
    <path id="Trazado_898976" data-name="Trazado 898976" d="M-1993.422-8278.731H-1848.1v-80.443" transform="translate(45 -582)" fill="none" stroke="#000" stroke-width="3"/>
  </g>
</svg>
