<svg xmlns="http://www.w3.org/2000/svg" width="400" height="276" viewBox="0 0 400 276">
  <g id="Grupo_1108810" data-name="Grupo 1108810" transform="translate(2203 7671)">
    <path id="Trazado_899277" data-name="Trazado 899277" d="M0,0H400V276H0Z" transform="translate(-2203 -7671)" fill="#f4c0c0"/>
    <g id="Grupo_1108592" data-name="Grupo 1108592" transform="translate(0 207)">
      <path id="Trazado_898979" data-name="Trazado 898979" d="M-7827.068-9340.49h26.643" transform="translate(5653.682 1564.616)" fill="none" stroke="#ff2c29" stroke-width="3"/>
      <path id="Trazado_898980" data-name="Trazado 898980" d="M-7827.068-9340.49h39.772" transform="translate(5646.682 1557.364)" fill="none" stroke="#ff2c29" stroke-width="3"/>
      <path id="Trazado_898981" data-name="Trazado 898981" d="M-7827.067-9340.49h47.8" transform="translate(5643.175 1571.868)" fill="none" stroke="#ff2c29" stroke-width="2"/>
      <path id="Trazado_898982" data-name="Trazado 898982" d="M-7827.068-9340.49h26.643" transform="translate(5653.682 1579.12)" fill="none" stroke="#ff2c29" stroke-width="3"/>
    </g>
    <path id="Trazado_899278" data-name="Trazado 899278" d="M5.086-1.992l3.25-9.383H9.977L5.758,0H4.43L.219-11.375H1.852ZM15.875,0H14.422V-9.633l-2.914,1.07V-9.875l4.141-1.555h.227ZM27.227-4.242H23.414v-1.18h3.813Zm10.891-7.141v1.227h-.266a3.805,3.805,0,0,0-2.687,1A4.161,4.161,0,0,0,34.008-6.43a3.085,3.085,0,0,1,2.453-1.031,2.95,2.95,0,0,1,2.371,1.047,4.038,4.038,0,0,1,.887,2.7A4.025,4.025,0,0,1,38.762-.9,3.3,3.3,0,0,1,36.2.156,3.247,3.247,0,0,1,33.547-1.1a4.97,4.97,0,0,1-1.016-3.23v-.555a7.488,7.488,0,0,1,1.34-4.8,4.921,4.921,0,0,1,3.988-1.7Zm-1.9,5.125a2.306,2.306,0,0,0-1.367.445A2.32,2.32,0,0,0,33.984-4.7v.531A3.731,3.731,0,0,0,34.617-1.9a1.9,1.9,0,0,0,1.578.859,1.838,1.838,0,0,0,1.535-.719,2.982,2.982,0,0,0,.559-1.883,2.983,2.983,0,0,0-.566-1.895A1.816,1.816,0,0,0,36.219-6.258ZM45.57-1.992l3.25-9.383h1.641L46.242,0H44.914L40.7-11.375h1.633Z" transform="translate(-2125 -7556)" fill="#12263f"/>
    <path id="Trazado_899279" data-name="Trazado 899279" d="M5.086-1.992l3.25-9.383H9.977L5.758,0H4.43L.219-11.375H1.852ZM18.578,0H11.125V-1.039l3.938-4.375A9.354,9.354,0,0,0,16.27-7.027,2.693,2.693,0,0,0,16.6-8.312a2.041,2.041,0,0,0-.539-1.461,1.885,1.885,0,0,0-1.437-.57,2.232,2.232,0,0,0-1.676.613,2.343,2.343,0,0,0-.6,1.707H10.906a3.355,3.355,0,0,1,1.012-2.539,3.751,3.751,0,0,1,2.707-.969,3.6,3.6,0,0,1,2.508.832,2.838,2.838,0,0,1,.922,2.215q0,1.68-2.141,4l-3.047,3.3h5.711Zm8.648-4.242H23.414v-1.18h3.813Zm10.891-7.141v1.227h-.266a3.805,3.805,0,0,0-2.687,1A4.161,4.161,0,0,0,34.008-6.43a3.085,3.085,0,0,1,2.453-1.031,2.95,2.95,0,0,1,2.371,1.047,4.038,4.038,0,0,1,.887,2.7A4.025,4.025,0,0,1,38.762-.9,3.3,3.3,0,0,1,36.2.156,3.247,3.247,0,0,1,33.547-1.1a4.97,4.97,0,0,1-1.016-3.23v-.555a7.488,7.488,0,0,1,1.34-4.8,4.921,4.921,0,0,1,3.988-1.7Zm-1.9,5.125a2.306,2.306,0,0,0-1.367.445A2.32,2.32,0,0,0,33.984-4.7v.531A3.731,3.731,0,0,0,34.617-1.9a1.9,1.9,0,0,0,1.578.859,1.838,1.838,0,0,0,1.535-.719,2.982,2.982,0,0,0,.559-1.883,2.983,2.983,0,0,0-.566-1.895A1.816,1.816,0,0,0,36.219-6.258ZM45.57-1.992l3.25-9.383h1.641L46.242,0H44.914L40.7-11.375h1.633Z" transform="translate(-1935 -7556)" fill="#12263f"/>
    <path id="Trazado_898983" data-name="Trazado 898983" d="M-2159.993-8399v120.341h315.172V-8399" transform="translate(0 847)" fill="none" stroke="#000" stroke-width="3"/>
    <path id="Trazado_898989" data-name="Trazado 898989" d="M-4249.752-9209.859h14.453l6.706-16.7,4.688,26.589,6.9-23.133,4.063,23.133,8.794-23.133,6.224,13.239h10.516" transform="translate(2212.215 1579.364)" fill="none" stroke="red" stroke-width="3"/>
    <g id="Grupo_1108593" data-name="Grupo 1108593" transform="translate(311.894 207)">
      <path id="Trazado_898979-2" data-name="Trazado 898979" d="M-7827.068-9340.49h26.643" transform="translate(5653.682 1564.616)" fill="none" stroke="#ff2c29" stroke-width="3"/>
      <path id="Trazado_898980-2" data-name="Trazado 898980" d="M-7827.068-9340.49h39.772" transform="translate(5646.682 1557.364)" fill="none" stroke="#ff2c29" stroke-width="3"/>
      <path id="Trazado_898981-2" data-name="Trazado 898981" d="M-7827.067-9340.49h47.8" transform="translate(5643.175 1571.868)" fill="none" stroke="#ff2c29" stroke-width="2"/>
      <path id="Trazado_898982-2" data-name="Trazado 898982" d="M-7827.068-9340.49h26.643" transform="translate(5653.682 1579.12)" fill="none" stroke="#ff2c29" stroke-width="3"/>
    </g>
    <path id="Trazado_898990" data-name="Trazado 898990" d="M-2159.993-7786.4v-50.489h122.165" transform="translate(0 207)" fill="none" stroke="#000" stroke-width="3"/>
    <path id="Trazado_898991" data-name="Trazado 898991" d="M-2033.186-7786.4v-50.489h-126.806" transform="translate(185.087 207)" fill="none" stroke="#000" stroke-width="3"/>
    <path id="Trazado_899280" data-name="Trazado 899280" d="M5.492-4.6H2.82V0H1.313V-11.375H5.078a4.457,4.457,0,0,1,2.957.875A3.148,3.148,0,0,1,9.07-7.953,3.062,3.062,0,0,1,8.5-6.1a3.428,3.428,0,0,1-1.6,1.18L9.57-.094V0H7.961ZM2.82-5.828h2.3A2.6,2.6,0,0,0,6.9-6.407a1.959,1.959,0,0,0,.66-1.55,2.062,2.062,0,0,0-.629-1.62,2.663,2.663,0,0,0-1.816-.571H2.82ZM15.547,0H14.094V-9.633L11.18-8.562V-9.875L15.32-11.43h.227ZM26.539-6.359H20.023V-7.617h6.516Zm0,3.242H20.023v-1.25h6.516ZM37.273,0H35.82V-9.633l-2.914,1.07V-9.875l4.141-1.555h.227Zm4.414-.758a.905.905,0,0,1,.223-.625.848.848,0,0,1,.668-.25.874.874,0,0,1,.676.25.887.887,0,0,1,.23.625.839.839,0,0,1-.23.6.89.89,0,0,1-.676.242.863.863,0,0,1-.668-.242A.855.855,0,0,1,41.688-.758ZM52.852-4.852a6.61,6.61,0,0,1-.867,3.773A3.084,3.084,0,0,1,49.273.156a3.107,3.107,0,0,1-2.7-1.207,6.274,6.274,0,0,1-.906-3.605v-1.93a6.463,6.463,0,0,1,.867-3.727,3.108,3.108,0,0,1,2.719-1.219,3.136,3.136,0,0,1,2.7,1.176,6.237,6.237,0,0,1,.891,3.629ZM51.406-6.828A5.3,5.3,0,0,0,50.891-9.5a1.775,1.775,0,0,0-1.633-.84,1.751,1.751,0,0,0-1.617.836,5.171,5.171,0,0,0-.523,2.57v2.313A5.381,5.381,0,0,0,47.652-1.9a1.771,1.771,0,0,0,1.621.879,1.747,1.747,0,0,0,1.59-.828,5.186,5.186,0,0,0,.543-2.609Zm8.109,5.563A2.4,2.4,0,0,0,61.2-2.587a6.349,6.349,0,0,0,.625-2.94V-6.575a4.389,4.389,0,0,0-.758-2.768,2.5,2.5,0,0,0-2.078-.962,2.465,2.465,0,0,0-2.07.977,4.464,4.464,0,0,0-.75,2.768v.884a6.479,6.479,0,0,0,.613,3.034,2.464,2.464,0,0,0,1.746,1.376V0H54.68V-1.227h1.727a5.5,5.5,0,0,1-1.3-2,6.715,6.715,0,0,1-.469-2.465v-.867a5.891,5.891,0,0,1,.551-2.594,4.149,4.149,0,0,1,1.543-1.762,4.152,4.152,0,0,1,2.25-.621,4.178,4.178,0,0,1,2.238.609A4.143,4.143,0,0,1,62.766-9.2a5.769,5.769,0,0,1,.578,2.516v1.016a6.675,6.675,0,0,1-.469,2.449,5.5,5.5,0,0,1-1.3,2H63.3V0H59.516Z" transform="translate(-2038 -7599)" fill="#12263f"/>
  </g>
</svg>
