<svg xmlns="http://www.w3.org/2000/svg" xmlns:xlink="http://www.w3.org/1999/xlink" width="77" height="77" viewBox="0 0 77 77">
  <defs>
    <clipPath id="clip-path">
      <rect id="Rectángulo_403452" data-name="Rectángulo 403452" width="25.721" height="53.553" fill="none"/>
    </clipPath>
  </defs>
  <g id="Grupo_1108798" data-name="Grupo 1108798" transform="translate(-552.051 -3747)">
    <g id="Elipse_11614" data-name="Elipse 11614" transform="translate(552.051 3747)" fill="#fdfbec" stroke="#707070" stroke-width="1">
      <circle cx="38.5" cy="38.5" r="38.5" stroke="none"/>
      <circle cx="38.5" cy="38.5" r="38" fill="none"/>
    </g>
    <g id="Grupo_1108794" data-name="Grupo 1108794" transform="translate(578.051 3759)">
      <g id="Grupo_1108793" data-name="Grupo 1108793" clip-path="url(#clip-path)">
        <path id="Trazado_899199" data-name="Trazado 899199" d="M31.721,65.228a.589.589,0,0,1-.588-.589V59.133H27.975a.589.589,0,0,1-.484-.923l4.494-6.5h0l1.123-1.625a.588.588,0,0,1,1.066.424l-.832,5.417H36.4a.588.588,0,0,1,.51.882l-4.682,8.126a.588.588,0,0,1-.51.295M29.1,57.956h2.623a.589.589,0,0,1,.588.588v3.894L35.384,57.1H32.657a.589.589,0,0,1-.582-.678l.548-3.567Z" transform="translate(-19.328 -35.168)"/>
        <path id="Trazado_899200" data-name="Trazado 899200" d="M25.132,36.5H.588A.589.589,0,0,1,0,35.909V32.15a.589.589,0,0,1,.588-.588H25.132a.589.589,0,0,1,.588.588v3.759a.589.589,0,0,1-.588.588M1.177,35.321H24.544V32.739H1.177Z" transform="translate(0 -22.275)"/>
        <path id="Trazado_899201" data-name="Trazado 899201" d="M18.987,65.423A10.572,10.572,0,0,1,8.644,55.812c0-.017,0-.035,0-.052V44.924a.588.588,0,0,1,.588-.588H28.689a.589.589,0,0,1,.588.588V55.759a.427.427,0,0,1,0,.051,10.468,10.468,0,0,1-9.846,9.6c-.147.006-.3.01-.441.01m-9.168-9.69a9.367,9.367,0,0,0,9.556,8.5,9.288,9.288,0,0,0,8.725-8.5V45.513H9.819Zm18.87.027h0Z" transform="translate(-6.099 -31.29)"/>
        <path id="Trazado_899202" data-name="Trazado 899202" d="M17.708,10.464H15.054a.589.589,0,0,1-.588-.588V.588A.589.589,0,0,1,15.054,0h2.653A.589.589,0,0,1,18.3.588V9.875a.589.589,0,0,1-.588.588M15.643,9.287H17.12V1.177H15.643Z" transform="translate(-10.209)"/>
        <path id="Trazado_899203" data-name="Trazado 899203" d="M63.171,10.464H60.517a.589.589,0,0,1-.588-.588V.588A.589.589,0,0,1,60.517,0h2.654a.589.589,0,0,1,.588.588V9.875a.589.589,0,0,1-.588.588M61.106,9.287h1.477V1.177H61.106Z" transform="translate(-42.295)"/>
        <path id="Trazado_899204" data-name="Trazado 899204" d="M38.077,116.708H32.044a.589.589,0,0,1-.588-.588v-3.531a.589.589,0,0,1,.588-.588h6.032a.589.589,0,0,1,.588.588v3.531a.589.589,0,0,1-.588.588m-5.444-1.177h4.855v-2.354H32.633Z" transform="translate(-22.2 -79.044)"/>
        <path id="Trazado_899205" data-name="Trazado 899205" d="M39.62,141.066H35.794a.589.589,0,0,1-.588-.589V124.589a.589.589,0,0,1,.588-.588H39.62a.589.589,0,0,1,.588.588v15.889a.589.589,0,0,1-.588.589m-3.237-1.177h2.648V125.177H36.383Z" transform="translate(-24.847 -87.514)"/>
      </g>
    </g>
  </g>
</svg>
