<svg xmlns="http://www.w3.org/2000/svg" width="584.352" height="210" viewBox="0 0 584.352 210">
  <g id="Grupo_1108799" data-name="Grupo 1108799" transform="translate(2593.781 6673)">
    <path id="Trazado_898998" data-name="Trazado 898998" d="M-4102.469-7122.459v-84.27h420v74.109" transform="translate(1596.367 544.729)" fill="none" stroke="#000" stroke-width="3"/>
    <path id="Trazado_898999" data-name="Trazado 898999" d="M-4102.469-7216.451v83.832h420v-74.109" transform="translate(1596.367 663.838)" fill="none" stroke="#000" stroke-width="3"/>
    <path id="Trazado_899000" data-name="Trazado 899000" d="M-3967.051-7206.729v78.641" transform="translate(1565.949 544.729)" fill="none" stroke="#000" stroke-width="3"/>
    <path id="Trazado_899001" data-name="Trazado 899001" d="M-3967.051-7206.729v78.641" transform="translate(1565.949 659.307)" fill="none" stroke="#000" stroke-width="3"/>
    <path id="Trazado_899002" data-name="Trazado 899002" d="M-3967.051-7206.729v78.641" transform="translate(1670.949 544.729)" fill="none" stroke="#000" stroke-width="3"/>
    <path id="Trazado_899003" data-name="Trazado 899003" d="M-3967.051-7206.729v78.641" transform="translate(1670.949 659.307)" fill="none" stroke="#000" stroke-width="3"/>
    <path id="Trazado_899004" data-name="Trazado 899004" d="M-3967.051-7206.729v78.641" transform="translate(1775.949 544.729)" fill="none" stroke="#000" stroke-width="3"/>
    <path id="Trazado_899005" data-name="Trazado 899005" d="M-3967.051-7206.729v78.641" transform="translate(1775.949 659.307)" fill="none" stroke="#000" stroke-width="3"/>
    <path id="Trazado_899006" data-name="Trazado 899006" d="M-4249.752-9209.859h14.453l6.706-16.7,4.688,26.589,6.9-23.133,4.063,23.133,8.794-23.133,6.224,13.239h10.516" transform="translate(-11611.361 -2346.859) rotate(90)" fill="none" stroke="red" stroke-width="3"/>
    <path id="Trazado_899007" data-name="Trazado 899007" d="M-4249.752-9209.859h14.453l6.706-16.7,4.688,26.589,6.9-23.133,4.063,23.133,8.794-23.133,6.224,13.239h10.516" transform="translate(-11506.656 -2346.859) rotate(90)" fill="none" stroke="red" stroke-width="3"/>
    <path id="Trazado_899008" data-name="Trazado 899008" d="M-4249.752-9209.859h14.453l6.706-16.7,4.688,26.589,6.9-23.133,4.063,23.133,8.794-23.133,6.224,13.239h10.516" transform="translate(-11400.656 -2346.859) rotate(90)" fill="none" stroke="red" stroke-width="3"/>
    <path id="Trazado_899009" data-name="Trazado 899009" d="M-4249.752-9209.859h14.453l6.706-16.7,4.688,26.589,6.9-23.133,4.063,23.133,8.794-23.133,6.224,13.239h10.516" transform="translate(-11296.656 -2346.859) rotate(90)" fill="none" stroke="red" stroke-width="3"/>
    <g id="Grupo_1108599" data-name="Grupo 1108599" transform="translate(-3101.051 -11071)">
      <path id="Trazado_899010" data-name="Trazado 899010" d="M-7827.068-9340.49h26.643" transform="translate(8408.623 13842.346)" fill="none" stroke="#ff2c29" stroke-width="3"/>
      <path id="Trazado_899011" data-name="Trazado 899011" d="M-7827.068-9340.49h39.772" transform="translate(8401.623 13835.094)" fill="none" stroke="#ff2c29" stroke-width="3"/>
      <path id="Trazado_899012" data-name="Trazado 899012" d="M-7827.067-9340.49h47.8" transform="translate(8398.117 13849.598)" fill="none" stroke="#ff2c29" stroke-width="2"/>
      <path id="Trazado_899013" data-name="Trazado 899013" d="M-7827.068-9340.49h26.643" transform="translate(8408.623 13856.85)" fill="none" stroke="#ff2c29" stroke-width="3"/>
    </g>
    <path id="Trazado_899234" data-name="Trazado 899234" d="M8.506-9.915H13.66v2.222H8.506v5.84H6.145v-5.84H.99V-9.915H6.145v-5.4H8.506Z" transform="translate(-2494.051 -6589.271)" fill="#12263f"/>
    <path id="Trazado_899240" data-name="Trazado 899240" d="M6.31-3.187l3.4-10.55h2.4L7.186,0H5.4L.419-13.736h2.4Z" transform="translate(-2530.051 -6530.271)" fill="#12263f"/>
    <path id="Trazado_899235" data-name="Trazado 899235" d="M5.086-1.992l3.25-9.383H9.977L5.758,0H4.43L.219-11.375H1.852ZM15.875,0H14.422V-9.633l-2.914,1.07V-9.875l4.141-1.555h.227ZM26.867-6.359H20.352V-7.617h6.516Zm0,3.242H20.352v-1.25h6.516ZM33.641,0H32.188V-9.633l-2.914,1.07V-9.875l4.141-1.555h.227ZM45.328,0H37.875V-1.039l3.938-4.375A9.355,9.355,0,0,0,43.02-7.027a2.693,2.693,0,0,0,.332-1.285,2.041,2.041,0,0,0-.539-1.461,1.885,1.885,0,0,0-1.437-.57A2.232,2.232,0,0,0,39.7-9.73a2.343,2.343,0,0,0-.6,1.707H37.656a3.355,3.355,0,0,1,1.012-2.539,3.751,3.751,0,0,1,2.707-.969,3.6,3.6,0,0,1,2.508.832A2.838,2.838,0,0,1,44.8-8.484q0,1.68-2.141,4l-3.047,3.3h5.711ZM51-1.992l3.25-9.383h1.641L51.672,0H50.344L46.133-11.375h1.633Z" transform="translate(-2594 -6560)" fill="#12263f"/>
    <path id="Trazado_899236" data-name="Trazado 899236" d="M5.492-4.6H2.82V0H1.313V-11.375H5.078a4.457,4.457,0,0,1,2.957.875A3.148,3.148,0,0,1,9.07-7.953,3.062,3.062,0,0,1,8.5-6.1a3.428,3.428,0,0,1-1.6,1.18L9.57-.094V0H7.961ZM2.82-5.828h2.3A2.6,2.6,0,0,0,6.9-6.407a1.959,1.959,0,0,0,.66-1.55,2.062,2.062,0,0,0-.629-1.62,2.663,2.663,0,0,0-1.816-.571H2.82ZM15.547,0H14.094V-9.633L11.18-8.562V-9.875L15.32-11.43h.227ZM5.7,15H4.242V5.367L1.328,6.438V5.125L5.469,3.57H5.7Zm4.414-.758a.905.905,0,0,1,.223-.625.848.848,0,0,1,.668-.25.874.874,0,0,1,.676.25.887.887,0,0,1,.23.625.839.839,0,0,1-.23.6.89.89,0,0,1-.676.242.8.8,0,0,1-.891-.844ZM14.8,9.3l.578-5.672h5.828V4.961h-4.6l-.344,3.1a3.671,3.671,0,0,1,1.9-.492A3.138,3.138,0,0,1,20.633,8.6a4.026,4.026,0,0,1,.914,2.777,3.886,3.886,0,0,1-.949,2.77,3.46,3.46,0,0,1-2.652,1.012,3.6,3.6,0,0,1-2.461-.836A3.337,3.337,0,0,1,14.4,12.008h1.367a2.3,2.3,0,0,0,.7,1.473,2.162,2.162,0,0,0,1.484.5,1.95,1.95,0,0,0,1.582-.687,2.874,2.874,0,0,0,.574-1.9,2.638,2.638,0,0,0-.621-1.832,2.113,2.113,0,0,0-1.652-.691,2.383,2.383,0,0,0-1.484.414l-.383.313Zm11.586.414L25,11.156V15H23.5V3.625H25V9.25l5.055-5.625h1.813L27.391,8.648,32.219,15h-1.8Zm11.578,4.023a2.4,2.4,0,0,0,1.68-1.321,6.349,6.349,0,0,0,.625-2.94V8.425a4.389,4.389,0,0,0-.758-2.768A2.5,2.5,0,0,0,37.438,4.7a2.465,2.465,0,0,0-2.07.977,4.464,4.464,0,0,0-.75,2.768v.884a6.479,6.479,0,0,0,.613,3.034,2.464,2.464,0,0,0,1.746,1.376V15H33.133V13.773h1.727a5.5,5.5,0,0,1-1.3-2,6.715,6.715,0,0,1-.469-2.465V8.445a5.891,5.891,0,0,1,.551-2.594A4.2,4.2,0,0,1,41.219,5.8,5.769,5.769,0,0,1,41.8,8.313V9.328a6.675,6.675,0,0,1-.469,2.449,5.5,5.5,0,0,1-1.3,2H41.75V15H37.969Z" transform="translate(-2376 -6566)" fill="#12263f"/>
    <path id="Trazado_899237" data-name="Trazado 899237" d="M5.492-4.6H2.82V0H1.313V-11.375H5.078a4.457,4.457,0,0,1,2.957.875A3.148,3.148,0,0,1,9.07-7.953,3.062,3.062,0,0,1,8.5-6.1a3.428,3.428,0,0,1-1.6,1.18L9.57-.094V0H7.961ZM2.82-5.828h2.3A2.6,2.6,0,0,0,6.9-6.407a1.959,1.959,0,0,0,.66-1.55,2.062,2.062,0,0,0-.629-1.62,2.663,2.663,0,0,0-1.816-.571H2.82ZM18.25,0H10.8V-1.039l3.938-4.375a9.354,9.354,0,0,0,1.207-1.613,2.693,2.693,0,0,0,.332-1.285,2.041,2.041,0,0,0-.539-1.461,1.885,1.885,0,0,0-1.437-.57,2.232,2.232,0,0,0-1.676.613,2.343,2.343,0,0,0-.6,1.707H10.578a3.355,3.355,0,0,1,1.012-2.539,3.751,3.751,0,0,1,2.707-.969A3.6,3.6,0,0,1,16.8-10.7a2.838,2.838,0,0,1,.922,2.215q0,1.68-2.141,4l-3.047,3.3H18.25ZM5.7,15H4.242V5.367L1.328,6.438V5.125L5.469,3.57H5.7Zm11.367-4.852a6.61,6.61,0,0,1-.867,3.773,3.084,3.084,0,0,1-2.711,1.234,3.107,3.107,0,0,1-2.7-1.207,6.274,6.274,0,0,1-.906-3.605V8.414a6.463,6.463,0,0,1,.867-3.727,3.108,3.108,0,0,1,2.719-1.219,3.136,3.136,0,0,1,2.7,1.176,6.237,6.237,0,0,1,.891,3.629ZM15.617,8.172A5.3,5.3,0,0,0,15.1,5.5a1.775,1.775,0,0,0-1.633-.84,1.751,1.751,0,0,0-1.617.836,5.171,5.171,0,0,0-.523,2.57v2.313a5.381,5.381,0,0,0,.535,2.723,1.771,1.771,0,0,0,1.621.879,1.747,1.747,0,0,0,1.59-.828,5.186,5.186,0,0,0,.543-2.609ZM22.18,9.711l-1.391,1.445V15h-1.5V3.625h1.5V9.25l5.055-5.625h1.813L23.18,8.648,28.008,15h-1.8Zm11.578,4.023a2.4,2.4,0,0,0,1.68-1.321,6.349,6.349,0,0,0,.625-2.94V8.425A4.389,4.389,0,0,0,35.3,5.657,2.5,2.5,0,0,0,33.227,4.7a2.465,2.465,0,0,0-2.07.977,4.464,4.464,0,0,0-.75,2.768v.884a6.479,6.479,0,0,0,.613,3.034,2.464,2.464,0,0,0,1.746,1.376V15H28.922V13.773h1.727a5.5,5.5,0,0,1-1.3-2,6.715,6.715,0,0,1-.469-2.465V8.445a5.891,5.891,0,0,1,.551-2.594A4.2,4.2,0,0,1,37.008,5.8a5.769,5.769,0,0,1,.578,2.516V9.328a6.675,6.675,0,0,1-.469,2.449,5.5,5.5,0,0,1-1.3,2h1.719V15H33.758Z" transform="translate(-2271 -6566)" fill="#12263f"/>
    <path id="Trazado_899238" data-name="Trazado 899238" d="M5.492-4.6H2.82V0H1.313V-11.375H5.078a4.457,4.457,0,0,1,2.957.875A3.148,3.148,0,0,1,9.07-7.953,3.062,3.062,0,0,1,8.5-6.1a3.428,3.428,0,0,1-1.6,1.18L9.57-.094V0H7.961ZM2.82-5.828h2.3A2.6,2.6,0,0,0,6.9-6.407a1.959,1.959,0,0,0,.66-1.55,2.062,2.062,0,0,0-.629-1.62,2.663,2.663,0,0,0-1.816-.571H2.82ZM12.9-6.391h1.086a2.387,2.387,0,0,0,1.609-.539,1.8,1.8,0,0,0,.586-1.414,1.764,1.764,0,0,0-1.992-2,2.072,2.072,0,0,0-1.5.535,1.873,1.873,0,0,0-.559,1.418H10.688a2.9,2.9,0,0,1,.988-2.246,3.6,3.6,0,0,1,2.512-.895,3.558,3.558,0,0,1,2.523.852,3.076,3.076,0,0,1,.914,2.367,2.5,2.5,0,0,1-.48,1.438,2.9,2.9,0,0,1-1.309,1.039,2.8,2.8,0,0,1,1.449.984,2.734,2.734,0,0,1,.512,1.68,3.1,3.1,0,0,1-1,2.43,3.745,3.745,0,0,1-2.6.9A3.844,3.844,0,0,1,11.59-.711a2.877,2.877,0,0,1-1-2.289h1.453a1.859,1.859,0,0,0,.586,1.438,2.229,2.229,0,0,0,1.57.539,2.187,2.187,0,0,0,1.6-.547,2.108,2.108,0,0,0,.555-1.57,1.912,1.912,0,0,0-.609-1.523,2.655,2.655,0,0,0-1.758-.547H12.9ZM7.047,11.18H8.625v1.18H7.047V15H5.594V12.359H.414v-.852L5.508,3.625H7.047Zm-4.992,0H5.594V5.6l-.172.313Zm8.055,3.063a.905.905,0,0,1,.223-.625.848.848,0,0,1,.668-.25.874.874,0,0,1,.676.25.887.887,0,0,1,.23.625.839.839,0,0,1-.23.6.89.89,0,0,1-.676.242.8.8,0,0,1-.891-.844Zm11.375-9.8L16.773,15H15.258l4.7-10.187H13.8V3.625h7.688Zm4.906,5.273L25,11.156V15H23.5V3.625H25V9.25l5.055-5.625h1.813L27.391,8.648,32.219,15h-1.8Zm11.578,4.023a2.4,2.4,0,0,0,1.68-1.321,6.349,6.349,0,0,0,.625-2.94V8.425a4.389,4.389,0,0,0-.758-2.768A2.5,2.5,0,0,0,37.438,4.7a2.465,2.465,0,0,0-2.07.977,4.464,4.464,0,0,0-.75,2.768v.884a6.479,6.479,0,0,0,.613,3.034,2.464,2.464,0,0,0,1.746,1.376V15H33.133V13.773h1.727a5.5,5.5,0,0,1-1.3-2,6.715,6.715,0,0,1-.469-2.465V8.445a5.891,5.891,0,0,1,.551-2.594A4.2,4.2,0,0,1,41.219,5.8,5.769,5.769,0,0,1,41.8,8.313V9.328a6.675,6.675,0,0,1-.469,2.449,5.5,5.5,0,0,1-1.3,2H41.75V15H37.969Z" transform="translate(-2165 -6566)" fill="#12263f"/>
    <path id="Trazado_899239" data-name="Trazado 899239" d="M5.492-4.6H2.82V0H1.313V-11.375H5.078a4.457,4.457,0,0,1,2.957.875A3.148,3.148,0,0,1,9.07-7.953,3.062,3.062,0,0,1,8.5-6.1a3.428,3.428,0,0,1-1.6,1.18L9.57-.094V0H7.961ZM2.82-5.828h2.3A2.6,2.6,0,0,0,6.9-6.407a1.959,1.959,0,0,0,.66-1.55,2.062,2.062,0,0,0-.629-1.62,2.663,2.663,0,0,0-1.816-.571H2.82ZM16.9-3.82h1.578v1.18H16.9V0H15.445V-2.641h-5.18v-.852l5.094-7.883H16.9Zm-4.992,0h3.539V-9.4l-.172.313ZM5.7,15H4.242V5.367L1.328,6.438V5.125L5.469,3.57H5.7Zm11.367-4.852a6.61,6.61,0,0,1-.867,3.773,3.084,3.084,0,0,1-2.711,1.234,3.107,3.107,0,0,1-2.7-1.207,6.274,6.274,0,0,1-.906-3.605V8.414a6.463,6.463,0,0,1,.867-3.727,3.108,3.108,0,0,1,2.719-1.219,3.136,3.136,0,0,1,2.7,1.176,6.237,6.237,0,0,1,.891,3.629ZM15.617,8.172A5.3,5.3,0,0,0,15.1,5.5a1.775,1.775,0,0,0-1.633-.84,1.751,1.751,0,0,0-1.617.836,5.171,5.171,0,0,0-.523,2.57v2.313a5.381,5.381,0,0,0,.535,2.723,1.771,1.771,0,0,0,1.621.879,1.747,1.747,0,0,0,1.59-.828,5.186,5.186,0,0,0,.543-2.609Zm10.43,1.977a6.61,6.61,0,0,1-.867,3.773,3.084,3.084,0,0,1-2.711,1.234,3.107,3.107,0,0,1-2.7-1.207,6.274,6.274,0,0,1-.906-3.605V8.414a6.463,6.463,0,0,1,.867-3.727,3.108,3.108,0,0,1,2.719-1.219,3.136,3.136,0,0,1,2.7,1.176,6.237,6.237,0,0,1,.891,3.629ZM24.6,8.172A5.3,5.3,0,0,0,24.086,5.5a1.775,1.775,0,0,0-1.633-.84,1.751,1.751,0,0,0-1.617.836,5.171,5.171,0,0,0-.523,2.57v2.313a5.381,5.381,0,0,0,.535,2.723,1.771,1.771,0,0,0,1.621.879,1.747,1.747,0,0,0,1.59-.828,5.186,5.186,0,0,0,.543-2.609Zm6.563,1.539-1.391,1.445V15h-1.5V3.625h1.5V9.25l5.055-5.625h1.813L32.164,8.648,36.992,15H35.2Zm11.578,4.023a2.4,2.4,0,0,0,1.68-1.321,6.349,6.349,0,0,0,.625-2.94V8.425a4.389,4.389,0,0,0-.758-2.768A2.5,2.5,0,0,0,42.211,4.7a2.465,2.465,0,0,0-2.07.977,4.464,4.464,0,0,0-.75,2.768v.884A6.479,6.479,0,0,0,40,12.358a2.464,2.464,0,0,0,1.746,1.376V15H37.906V13.773h1.727a5.5,5.5,0,0,1-1.3-2,6.715,6.715,0,0,1-.469-2.465V8.445a5.891,5.891,0,0,1,.551-2.594A4.2,4.2,0,0,1,45.992,5.8a5.769,5.769,0,0,1,.578,2.516V9.328a6.675,6.675,0,0,1-.469,2.449,5.5,5.5,0,0,1-1.3,2h1.719V15H42.742Z" transform="translate(-2056 -6566)" fill="#12263f"/>
    <path id="Trazado_899231" data-name="Trazado 899231" d="M5.5,0A5.5,5.5,0,1,1,0,5.5,5.5,5.5,0,0,1,5.5,0Z" transform="translate(-2475 -6673)"/>
    <path id="Trazado_899232" data-name="Trazado 899232" d="M5.5,0A5.5,5.5,0,1,1,0,5.5,5.5,5.5,0,0,1,5.5,0Z" transform="translate(-2370 -6673)"/>
    <path id="Trazado_899233" data-name="Trazado 899233" d="M5.5,0A5.5,5.5,0,1,1,0,5.5,5.5,5.5,0,0,1,5.5,0Z" transform="translate(-2265 -6673)"/>
    <path id="Trazado_899241" data-name="Trazado 899241" d="M5.5,0A5.5,5.5,0,1,1,0,5.5,5.5,5.5,0,0,1,5.5,0Z" transform="translate(-2407 -6474)"/>
    <path id="Trazado_899242" data-name="Trazado 899242" d="M5.5,0A5.5,5.5,0,1,1,0,5.5,5.5,5.5,0,0,1,5.5,0Z" transform="translate(-2302 -6474)"/>
    <path id="Trazado_899243" data-name="Trazado 899243" d="M5.5,0A5.5,5.5,0,1,1,0,5.5,5.5,5.5,0,0,1,5.5,0Z" transform="translate(-2197 -6474)"/>
  </g>
</svg>
