<svg xmlns="http://www.w3.org/2000/svg" width="583.844" height="210" viewBox="0 0 583.844 210">
  <g id="Grupo_1108811" data-name="Grupo 1108811" transform="translate(-507.777 -4605)">
    <path id="Trazado_898998" data-name="Trazado 898998" d="M-4102.469-7122.459v-84.27h420v74.109" transform="translate(4697.418 11822.729)" fill="none" stroke="#000" stroke-width="3"/>
    <path id="Trazado_898999" data-name="Trazado 898999" d="M-4102.469-7216.451v83.832h420v-74.109" transform="translate(4697.418 11941.838)" fill="none" stroke="#000" stroke-width="3"/>
    <path id="Trazado_899000" data-name="Trazado 899000" d="M-3967.051-7206.729v78.641" transform="translate(4667 11822.729)" fill="none" stroke="#000" stroke-width="3"/>
    <path id="Trazado_899001" data-name="Trazado 899001" d="M-3967.051-7206.729v78.641" transform="translate(4667 11937.307)" fill="none" stroke="#000" stroke-width="3"/>
    <path id="Trazado_899002" data-name="Trazado 899002" d="M-3967.051-7206.729v78.641" transform="translate(4772 11822.729)" fill="none" stroke="#000" stroke-width="3"/>
    <path id="Trazado_899003" data-name="Trazado 899003" d="M-3967.051-7206.729v78.641" transform="translate(4772 11937.307)" fill="none" stroke="#000" stroke-width="3"/>
    <path id="Trazado_899004" data-name="Trazado 899004" d="M-3967.051-7206.729v78.641" transform="translate(4877 11822.729)" fill="none" stroke="#000" stroke-width="3"/>
    <path id="Trazado_899005" data-name="Trazado 899005" d="M-3967.051-7206.729v78.641" transform="translate(4877 11937.307)" fill="none" stroke="#000" stroke-width="3"/>
    <path id="Trazado_899006" data-name="Trazado 899006" d="M-4249.752-9209.859h14.453l6.706-16.7,4.688,26.589,6.9-23.133,4.063,23.133,8.794-23.133,6.224,13.239h10.516" transform="translate(-8510.311 8931.141) rotate(90)" fill="none" stroke="red" stroke-width="3"/>
    <path id="Trazado_899007" data-name="Trazado 899007" d="M-4249.752-9209.859h14.453l6.706-16.7,4.688,26.589,6.9-23.133,4.063,23.133,8.794-23.133,6.224,13.239h10.516" transform="translate(-8405.605 8931.141) rotate(90)" fill="none" stroke="red" stroke-width="3"/>
    <path id="Trazado_899008" data-name="Trazado 899008" d="M-4249.752-9209.859h14.453l6.706-16.7,4.688,26.589,6.9-23.133,4.063,23.133,8.794-23.133,6.224,13.239h10.516" transform="translate(-8299.605 8931.141) rotate(90)" fill="none" stroke="red" stroke-width="3"/>
    <path id="Trazado_899009" data-name="Trazado 899009" d="M-4249.752-9209.859h14.453l6.706-16.7,4.688,26.589,6.9-23.133,4.063,23.133,8.794-23.133,6.224,13.239h10.516" transform="translate(-8195.605 8931.141) rotate(90)" fill="none" stroke="red" stroke-width="3"/>
    <g id="Grupo_1108599" data-name="Grupo 1108599" transform="translate(0 207)">
      <path id="Trazado_899010" data-name="Trazado 899010" d="M-7827.068-9340.49h26.643" transform="translate(8408.623 13842.346)" fill="none" stroke="#ff2c29" stroke-width="3"/>
      <path id="Trazado_899011" data-name="Trazado 899011" d="M-7827.068-9340.49h39.772" transform="translate(8401.623 13835.094)" fill="none" stroke="#ff2c29" stroke-width="3"/>
      <path id="Trazado_899012" data-name="Trazado 899012" d="M-7827.067-9340.49h47.8" transform="translate(8398.117 13849.598)" fill="none" stroke="#ff2c29" stroke-width="2"/>
      <path id="Trazado_899013" data-name="Trazado 899013" d="M-7827.068-9340.49h26.643" transform="translate(8408.623 13856.85)" fill="none" stroke="#ff2c29" stroke-width="3"/>
    </g>
    <path id="Trazado_899281" data-name="Trazado 899281" d="M8.506-9.915H13.66v2.222H8.506v5.84H6.145v-5.84H.99V-9.915H6.145v-5.4H8.506Z" transform="translate(607 4688.729)" fill="#12263f"/>
    <path id="Trazado_899282" data-name="Trazado 899282" d="M6.31-3.187l3.4-10.55h2.4L7.186,0H5.4L.419-13.736h2.4Z" transform="translate(571 4747.729)" fill="#12263f"/>
    <path id="Trazado_899283" data-name="Trazado 899283" d="M8.4,0H.945V-1.039L4.883-5.414A9.354,9.354,0,0,0,6.09-7.027a2.693,2.693,0,0,0,.332-1.285,2.041,2.041,0,0,0-.539-1.461,1.885,1.885,0,0,0-1.437-.57A2.232,2.232,0,0,0,2.77-9.73a2.343,2.343,0,0,0-.6,1.707H.727a3.355,3.355,0,0,1,1.012-2.539,3.751,3.751,0,0,1,2.707-.969,3.6,3.6,0,0,1,2.508.832,2.838,2.838,0,0,1,.922,2.215q0,1.68-2.141,4L2.688-1.18H8.4Zm7.633-3.82h1.578v1.18H16.031V0H14.578V-2.641H9.4v-.852l5.094-7.883h1.539Zm-4.992,0h3.539V-9.4l-.172.313ZM27.016-1.992l3.25-9.383h1.641L27.688,0H26.359L22.148-11.375h1.633Z" transform="translate(507.051 4718)" fill="#12263f"/>
    <path id="Trazado_899284" data-name="Trazado 899284" d="M8.4,0H.945V-1.039L4.883-5.414A9.354,9.354,0,0,0,6.09-7.027a2.693,2.693,0,0,0,.332-1.285,2.041,2.041,0,0,0-.539-1.461,1.885,1.885,0,0,0-1.437-.57A2.232,2.232,0,0,0,2.77-9.73a2.343,2.343,0,0,0-.6,1.707H.727a3.355,3.355,0,0,1,1.012-2.539,3.751,3.751,0,0,1,2.707-.969,3.6,3.6,0,0,1,2.508.832,2.838,2.838,0,0,1,.922,2.215q0,1.68-2.141,4L2.688-1.18H8.4Zm8.758-5.289L15.766-3.844V0h-1.5V-11.375h1.5V-5.75l5.055-5.625h1.813L18.156-6.352,22.984,0h-1.8ZM28.734-1.266a2.4,2.4,0,0,0,1.68-1.321,6.349,6.349,0,0,0,.625-2.94V-6.575a4.389,4.389,0,0,0-.758-2.768A2.5,2.5,0,0,0,28.2-10.3a2.465,2.465,0,0,0-2.07.977,4.464,4.464,0,0,0-.75,2.768v.884A6.479,6.479,0,0,0,26-2.642a2.464,2.464,0,0,0,1.746,1.376V0H23.9V-1.227h1.727a5.5,5.5,0,0,1-1.3-2,6.715,6.715,0,0,1-.469-2.465v-.867a5.891,5.891,0,0,1,.551-2.594,4.149,4.149,0,0,1,1.543-1.762,4.152,4.152,0,0,1,2.25-.621,4.178,4.178,0,0,1,2.238.609A4.143,4.143,0,0,1,31.984-9.2a5.769,5.769,0,0,1,.578,2.516v1.016a6.675,6.675,0,0,1-.469,2.449,5.5,5.5,0,0,1-1.3,2h1.719V0H28.734Z" transform="translate(725.051 4712)" fill="#12263f"/>
    <path id="Trazado_899285" data-name="Trazado 899285" d="M7.844-8.406a2.641,2.641,0,0,1-.449,1.516A3.057,3.057,0,0,1,6.18-5.852,3.26,3.26,0,0,1,7.59-4.734a2.811,2.811,0,0,1,.52,1.664,2.972,2.972,0,0,1-1,2.352A3.827,3.827,0,0,1,4.492.156,3.81,3.81,0,0,1,1.863-.723,2.986,2.986,0,0,1,.875-3.07a2.9,2.9,0,0,1,.5-1.664A3.136,3.136,0,0,1,2.773-5.859,2.981,2.981,0,0,1,1.578-6.9a2.679,2.679,0,0,1-.437-1.508,2.94,2.94,0,0,1,.922-2.281,3.458,3.458,0,0,1,2.43-.844,3.461,3.461,0,0,1,2.426.844A2.934,2.934,0,0,1,7.844-8.406ZM6.664-3.1a2.1,2.1,0,0,0-.605-1.555,2.147,2.147,0,0,0-1.582-.6,2.11,2.11,0,0,0-1.566.594A2.12,2.12,0,0,0,2.32-3.1a2.019,2.019,0,0,0,.574,1.523,2.2,2.2,0,0,0,1.6.555,2.2,2.2,0,0,0,1.594-.559A2.014,2.014,0,0,0,6.664-3.1ZM4.492-10.344a1.865,1.865,0,0,0-1.379.527,1.937,1.937,0,0,0-.527,1.434,1.928,1.928,0,0,0,.52,1.4,1.844,1.844,0,0,0,1.387.535A1.844,1.844,0,0,0,5.879-6.98a1.928,1.928,0,0,0,.52-1.4A1.929,1.929,0,0,0,5.859-9.8,1.839,1.839,0,0,0,4.492-10.344ZM17.156-5.289,15.766-3.844V0h-1.5V-11.375h1.5V-5.75l5.055-5.625h1.813L18.156-6.352,22.984,0h-1.8ZM28.734-1.266a2.4,2.4,0,0,0,1.68-1.321,6.349,6.349,0,0,0,.625-2.94V-6.575a4.389,4.389,0,0,0-.758-2.768A2.5,2.5,0,0,0,28.2-10.3a2.465,2.465,0,0,0-2.07.977,4.464,4.464,0,0,0-.75,2.768v.884A6.479,6.479,0,0,0,26-2.642a2.464,2.464,0,0,0,1.746,1.376V0H23.9V-1.227h1.727a5.5,5.5,0,0,1-1.3-2,6.715,6.715,0,0,1-.469-2.465v-.867a5.891,5.891,0,0,1,.551-2.594,4.149,4.149,0,0,1,1.543-1.762,4.152,4.152,0,0,1,2.25-.621,4.178,4.178,0,0,1,2.238.609A4.143,4.143,0,0,1,31.984-9.2a5.769,5.769,0,0,1,.578,2.516v1.016a6.675,6.675,0,0,1-.469,2.449,5.5,5.5,0,0,1-1.3,2h1.719V0H28.734Z" transform="translate(830.051 4712)" fill="#12263f"/>
    <path id="Trazado_899286" data-name="Trazado 899286" d="M7.047-3.82H8.625v1.18H7.047V0H5.594V-2.641H.414v-.852l5.094-7.883H7.047Zm-4.992,0H5.594V-9.4l-.172.313ZM10.109-.758a.905.905,0,0,1,.223-.625A.848.848,0,0,1,11-1.633a.874.874,0,0,1,.676.25.887.887,0,0,1,.23.625.839.839,0,0,1-.23.6A.89.89,0,0,1,11,.086a.863.863,0,0,1-.668-.242A.855.855,0,0,1,10.109-.758Zm11.375-9.8L16.773,0H15.258l4.7-10.187H13.8v-1.187h7.688Zm4.906,5.273L25-3.844V0H23.5V-11.375H25V-5.75l5.055-5.625h1.813L27.391-6.352,32.219,0h-1.8ZM37.969-1.266a2.4,2.4,0,0,0,1.68-1.321,6.349,6.349,0,0,0,.625-2.94V-6.575a4.389,4.389,0,0,0-.758-2.768,2.5,2.5,0,0,0-2.078-.962,2.465,2.465,0,0,0-2.07.977,4.464,4.464,0,0,0-.75,2.768v.884a6.479,6.479,0,0,0,.613,3.034,2.464,2.464,0,0,0,1.746,1.376V0H33.133V-1.227h1.727a5.5,5.5,0,0,1-1.3-2,6.715,6.715,0,0,1-.469-2.465v-.867a5.891,5.891,0,0,1,.551-2.594,4.149,4.149,0,0,1,1.543-1.762,4.152,4.152,0,0,1,2.25-.621,4.178,4.178,0,0,1,2.238.609A4.143,4.143,0,0,1,41.219-9.2,5.769,5.769,0,0,1,41.8-6.687v1.016a6.675,6.675,0,0,1-.469,2.449,5.5,5.5,0,0,1-1.3,2H41.75V0H37.969Z" transform="translate(936.051 4715)" fill="#12263f"/>
    <path id="Trazado_899287" data-name="Trazado 899287" d="M5.7,0H4.242V-9.633L1.328-8.562V-9.875L5.469-11.43H5.7ZM17.063-4.852A6.61,6.61,0,0,1,16.2-1.078,3.084,3.084,0,0,1,13.484.156a3.107,3.107,0,0,1-2.7-1.207,6.274,6.274,0,0,1-.906-3.605v-1.93a6.463,6.463,0,0,1,.867-3.727,3.108,3.108,0,0,1,2.719-1.219,3.136,3.136,0,0,1,2.7,1.176,6.237,6.237,0,0,1,.891,3.629ZM15.617-6.828A5.3,5.3,0,0,0,15.1-9.5a1.775,1.775,0,0,0-1.633-.84,1.751,1.751,0,0,0-1.617.836,5.171,5.171,0,0,0-.523,2.57v2.313A5.381,5.381,0,0,0,11.863-1.9a1.771,1.771,0,0,0,1.621.879,1.747,1.747,0,0,0,1.59-.828,5.186,5.186,0,0,0,.543-2.609Zm10.43,1.977a6.61,6.61,0,0,1-.867,3.773A3.084,3.084,0,0,1,22.469.156a3.107,3.107,0,0,1-2.7-1.207,6.274,6.274,0,0,1-.906-3.605v-1.93a6.463,6.463,0,0,1,.867-3.727,3.108,3.108,0,0,1,2.719-1.219,3.136,3.136,0,0,1,2.7,1.176,6.237,6.237,0,0,1,.891,3.629ZM24.6-6.828A5.3,5.3,0,0,0,24.086-9.5a1.775,1.775,0,0,0-1.633-.84,1.751,1.751,0,0,0-1.617.836,5.171,5.171,0,0,0-.523,2.57v2.313A5.381,5.381,0,0,0,20.848-1.9a1.771,1.771,0,0,0,1.621.879,1.747,1.747,0,0,0,1.59-.828A5.186,5.186,0,0,0,24.6-4.461Zm6.563,1.539L29.773-3.844V0h-1.5V-11.375h1.5V-5.75l5.055-5.625h1.813L32.164-6.352,36.992,0H35.2ZM42.742-1.266a2.4,2.4,0,0,0,1.68-1.321,6.349,6.349,0,0,0,.625-2.94V-6.575a4.389,4.389,0,0,0-.758-2.768,2.5,2.5,0,0,0-2.078-.962,2.465,2.465,0,0,0-2.07.977,4.464,4.464,0,0,0-.75,2.768v.884A6.479,6.479,0,0,0,40-2.642,2.464,2.464,0,0,0,41.75-1.266V0H37.906V-1.227h1.727a5.5,5.5,0,0,1-1.3-2,6.715,6.715,0,0,1-.469-2.465v-.867a5.891,5.891,0,0,1,.551-2.594,4.149,4.149,0,0,1,1.543-1.762,4.152,4.152,0,0,1,2.25-.621,4.178,4.178,0,0,1,2.238.609A4.143,4.143,0,0,1,45.992-9.2a5.769,5.769,0,0,1,.578,2.516v1.016A6.675,6.675,0,0,1,46.1-3.223a5.5,5.5,0,0,1-1.3,2h1.719V0H42.742Z" transform="translate(1045.051 4712)" fill="#12263f"/>
    <path id="Trazado_899288" data-name="Trazado 899288" d="M5.5,0A5.5,5.5,0,1,1,0,5.5,5.5,5.5,0,0,1,5.5,0Z" transform="translate(626.051 4605)"/>
    <path id="Trazado_899289" data-name="Trazado 899289" d="M5.5,0A5.5,5.5,0,1,1,0,5.5,5.5,5.5,0,0,1,5.5,0Z" transform="translate(731.051 4605)"/>
    <path id="Trazado_899290" data-name="Trazado 899290" d="M5.5,0A5.5,5.5,0,1,1,0,5.5,5.5,5.5,0,0,1,5.5,0Z" transform="translate(836.051 4605)"/>
    <path id="Trazado_899291" data-name="Trazado 899291" d="M5.5,0A5.5,5.5,0,1,1,0,5.5,5.5,5.5,0,0,1,5.5,0Z" transform="translate(694.051 4804)"/>
    <path id="Trazado_899292" data-name="Trazado 899292" d="M5.5,0A5.5,5.5,0,1,1,0,5.5,5.5,5.5,0,0,1,5.5,0Z" transform="translate(799.051 4804)"/>
    <path id="Trazado_899293" data-name="Trazado 899293" d="M5.5,0A5.5,5.5,0,1,1,0,5.5,5.5,5.5,0,0,1,5.5,0Z" transform="translate(904.051 4804)"/>
  </g>
</svg>
