<svg xmlns="http://www.w3.org/2000/svg" width="470" height="151" viewBox="0 0 470 151">
  <g id="Grupo_1108799" data-name="Grupo 1108799" transform="translate(2406 6478)">
    <path id="Trazado_899231" data-name="Trazado 899231" d="M0,0H230V69H0Z" transform="translate(-2406 -6478)" fill="#f4c0c0"/>
    <path id="Trazado_899232" data-name="Trazado 899232" d="M2.6,0H.313L2.281-11.375H4.57ZM7.673,5H6.388L7.263-.049,5.65.438l.2-1.126,2.771-.957.169,0ZM21.491-6.359H14.975V-7.617h6.516Zm0,3.242H14.975v-1.25h6.516Z" transform="translate(-2386.051 -6440)" fill="#12263f"/>
    <path id="Trazado_899233" data-name="Trazado 899233" d="M4.734-2.844l3.828-8.531h2.625L5.57,0H3.18L1.133-11.375H3.594Z" transform="translate(-2353.051 -6449)" fill="#12263f"/>
    <path id="Trazado_899014" data-name="Trazado 899014" d="M-3842.051-10039.182H-3821" transform="translate(1481.949 3595)" fill="none" stroke="#000" stroke-width="1"/>
    <path id="Trazado_899234" data-name="Trazado 899234" d="M5.039-4.164H3.18L2.453,0H.164L2.141-11.375l3.766.008a4.289,4.289,0,0,1,2.91.891A2.817,2.817,0,0,1,9.719-8a3.574,3.574,0,0,1-2.5,3.258L8.82-.125V0H6.383Zm-1.531-1.9,1.7.016a2.386,2.386,0,0,0,1.5-.488A1.933,1.933,0,0,0,7.414-7.82a1.473,1.473,0,0,0-.242-1.187,1.442,1.442,0,0,0-1.117-.461L4.1-9.477ZM15.25,0h-2.2l1.5-8.656-2.766.836.344-1.93,4.75-1.641.289-.008Z" transform="translate(-2358.051 -6426)" fill="#12263f"/>
    <path id="Trazado_899235" data-name="Trazado 899235" d="M7.7-6.359H1.188V-7.617H7.7Zm0,3.242H1.188v-1.25H7.7Z" transform="translate(-2334.051 -6440)" fill="#12263f"/>
    <path id="Trazado_899236" data-name="Trazado 899236" d="M5.266,0h-2.2l1.5-8.656L1.8-7.82l.344-1.93,4.75-1.641L7.18-11.4Zm11.3,0H8.992L9.25-1.641,13.289-5.43A8.947,8.947,0,0,0,14.938-7.32a2.214,2.214,0,0,0,.3-1.422,1.061,1.061,0,0,0-1.117-.992,1.6,1.6,0,0,0-1.254.523A2.453,2.453,0,0,0,12.258-7.8l-2.2.008a3.863,3.863,0,0,1,.633-1.93,3.882,3.882,0,0,1,1.52-1.348,4.405,4.405,0,0,1,2.051-.473,3.5,3.5,0,0,1,2.469.891,2.756,2.756,0,0,1,.781,2.289A5.546,5.546,0,0,1,15.609-5L14.484-3.93,12.156-1.836l4.7.016ZM22.7-2.844l3.828-8.531h2.625L23.539,0H21.148L19.1-11.375h2.461Z" transform="translate(-2305.102 -6449)" fill="#12263f"/>
    <path id="Trazado_899015" data-name="Trazado 899015" d="M-3842.051-10039.182h42.416" transform="translate(1526.344 3595)" fill="none" stroke="#000" stroke-width="1"/>
    <path id="Trazado_899237" data-name="Trazado 899237" d="M5.266,0h-2.2l1.5-8.656L1.8-7.82l.344-1.93,4.75-1.641L7.18-11.4Zm5.281-2.328A1.22,1.22,0,0,1,11.441-2a1.111,1.111,0,0,1,.371.855,1.151,1.151,0,0,1-.344.879,1.194,1.194,0,0,1-.883.363A1.2,1.2,0,0,1,9.7-.219a1.149,1.149,0,0,1-.375-.852,1.161,1.161,0,0,1,.336-.883A1.238,1.238,0,0,1,10.547-2.328Zm4.227-3.3,1.531-5.75h6.219l-.3,1.883H17.859l-.75,2.461a3.016,3.016,0,0,1,1.641-.437,2.693,2.693,0,0,1,2.262,1.035,3.855,3.855,0,0,1,.676,2.73,4.423,4.423,0,0,1-.66,2.023A3.852,3.852,0,0,1,19.539-.3a4.108,4.108,0,0,1-2.031.461,3.613,3.613,0,0,1-1.746-.441,3.12,3.12,0,0,1-1.223-1.2,3.409,3.409,0,0,1-.445-1.7h2.164a1.7,1.7,0,0,0,.383,1.09,1.259,1.259,0,0,0,.953.41,1.545,1.545,0,0,0,1.285-.57,2.845,2.845,0,0,0,.605-1.594,2.02,2.02,0,0,0-.27-1.406,1.3,1.3,0,0,0-1.105-.531,2.195,2.195,0,0,0-1.531.609ZM26.234-3.367l-1.023.891L24.781,0h-2.2l2.078-12h2.211L25.727-5.484l.43-.461,2.508-2.508h2.828L27.8-4.82,30.148,0H27.734ZM35.969-1.93a3,3,0,0,0,1.492-1.523,10.563,10.563,0,0,0,.789-3.43,7.066,7.066,0,0,0,.039-1.062q-.125-1.617-1.328-1.672a1.8,1.8,0,0,0-1.535.691A4.341,4.341,0,0,0,34.59-6.75q-.215,1.438-.254,1.941a9.019,9.019,0,0,0-.023.988q.031,1.469.883,1.883L34.9,0H31l.352-1.906,1.633-.008a7.176,7.176,0,0,1-1.062-3.031,7.876,7.876,0,0,1,.164-2.1A5.992,5.992,0,0,1,33.047-9.4,5,5,0,0,1,34.809-11a4.5,4.5,0,0,1,2.277-.527,3.779,3.779,0,0,1,2.129.66,3.625,3.625,0,0,1,1.313,1.734,5.031,5.031,0,0,1,.262,2.41l-.07.547a6.113,6.113,0,0,1-2.547,4.3l1.672-.039L39.508,0H35.672Z" transform="translate(-2314.291 -6426)" fill="#12263f"/>
    <path id="Trazado_899238" data-name="Trazado 899238" d="M7.7-6.359H1.188V-7.617H7.7Zm0,3.242H1.188v-1.25H7.7Z" transform="translate(-2261.051 -6440)" fill="#12263f"/>
    <path id="Trazado_899239" data-name="Trazado 899239" d="M8.625-8.414a3.118,3.118,0,0,1-1.953,2.6,2.927,2.927,0,0,1,.992,1.141,2.9,2.9,0,0,1,.273,1.484A3.227,3.227,0,0,1,6.7-.734,4.309,4.309,0,0,1,3.836.156a3.576,3.576,0,0,1-2.5-.891A2.765,2.765,0,0,1,.484-3.047,3.31,3.31,0,0,1,2.711-5.906a2.7,2.7,0,0,1-1.07-2.383,3.3,3.3,0,0,1,.57-1.719A3.32,3.32,0,0,1,3.6-11.156a4.279,4.279,0,0,1,1.9-.375,3.315,3.315,0,0,1,2.344.879A2.736,2.736,0,0,1,8.625-8.414ZM5.766-3.348a1.489,1.489,0,0,0-.242-1.115,1.166,1.166,0,0,0-.969-.46,1.677,1.677,0,0,0-1.223.46,2,2,0,0,0-.613,1.247,1.462,1.462,0,0,0,.238,1.1,1.185,1.185,0,0,0,.98.448A1.675,1.675,0,0,0,5.16-2.116,1.974,1.974,0,0,0,5.766-3.348ZM6.4-8.3a1.423,1.423,0,0,0-.2-1.017.976.976,0,0,0-.812-.393A1.38,1.38,0,0,0,4.336-9.3,1.843,1.843,0,0,0,3.82-8.176a1.534,1.534,0,0,0,.191,1.032.939.939,0,0,0,.816.417,1.371,1.371,0,0,0,1.047-.425A1.9,1.9,0,0,0,6.4-8.3Zm10.07-.16-.18.961a3.112,3.112,0,0,1,2.477-1.109,2.379,2.379,0,0,1,1.3.359,1.679,1.679,0,0,1,.7.93,3.255,3.255,0,0,1,2.625-1.289,2.126,2.126,0,0,1,1.754.8,3.271,3.271,0,0,1,.5,2.234l-.016.2L24.719,0H22.508l.9-5.4a3.908,3.908,0,0,0,.023-.54.837.837,0,0,0-.937-.845,1.86,1.86,0,0,0-1.555.97l-.023.18L19.93,0h-2.2l.9-5.383a3.9,3.9,0,0,0,.023-.539.836.836,0,0,0-.93-.852,1.867,1.867,0,0,0-1.508.789L15.156,0h-2.2l1.461-8.453ZM33.3-2.344H29.328L28.156,0H25.633l6.078-11.375h2.117L35.992,0H33.656Zm-3.031-1.9h2.742l-.641-4.234Z" transform="translate(-2243.102 -6440)" fill="#12263f"/>
    <path id="Trazado_899249" data-name="Trazado 899249" d="M0,0H230V69H0Z" transform="translate(-2166 -6478)" fill="#f4c0c0"/>
    <path id="Trazado_899251" data-name="Trazado 899251" d="M2.6,0H.313L2.281-11.375H4.57ZM9.026,5H4.606l.15-.957,2.356-2.21A5.219,5.219,0,0,0,8.074.73,1.292,1.292,0,0,0,8.252-.1.619.619,0,0,0,7.6-.678a.932.932,0,0,0-.731.305,1.431,1.431,0,0,0-.358.825l-1.285,0A2.268,2.268,0,0,1,6.481-1.455a2.57,2.57,0,0,1,1.2-.276,2.039,2.039,0,0,1,1.44.52A1.608,1.608,0,0,1,9.573.124a3.235,3.235,0,0,1-1.107,1.96l-.656.624L6.452,3.929,9.2,3.938ZM21.491-6.359H14.975V-7.617h6.516Zm0,3.242H14.975v-1.25h6.516Z" transform="translate(-2146.051 -6440)" fill="#12263f"/>
    <path id="Trazado_899253" data-name="Trazado 899253" d="M4.734-2.844l3.828-8.531h2.625L5.57,0H3.18L1.133-11.375H3.594Z" transform="translate(-2109.051 -6449)" fill="#12263f"/>
    <path id="Trazado_899016" data-name="Trazado 899016" d="M-3842.051-10039.182H-3820" transform="translate(1721.949 3595)" fill="none" stroke="#000" stroke-width="1"/>
    <path id="Trazado_899254" data-name="Trazado 899254" d="M5.039-4.164H3.18L2.453,0H.164L2.141-11.375l3.766.008a4.289,4.289,0,0,1,2.91.891A2.817,2.817,0,0,1,9.719-8a3.574,3.574,0,0,1-2.5,3.258L8.82-.125V0H6.383Zm-1.531-1.9,1.7.016a2.386,2.386,0,0,0,1.5-.488A1.933,1.933,0,0,0,7.414-7.82a1.473,1.473,0,0,0-.242-1.187,1.442,1.442,0,0,0-1.117-.461L4.1-9.477ZM17.57,0H9.992l.258-1.641L14.289-5.43A8.947,8.947,0,0,0,15.938-7.32a2.214,2.214,0,0,0,.3-1.422,1.061,1.061,0,0,0-1.117-.992,1.6,1.6,0,0,0-1.254.523A2.453,2.453,0,0,0,13.258-7.8l-2.2.008a3.863,3.863,0,0,1,.633-1.93,3.882,3.882,0,0,1,1.52-1.348,4.405,4.405,0,0,1,2.051-.473,3.5,3.5,0,0,1,2.469.891,2.756,2.756,0,0,1,.781,2.289A5.546,5.546,0,0,1,16.609-5L15.484-3.93,13.156-1.836l4.7.016Z" transform="translate(-2118.051 -6426)" fill="#12263f"/>
    <path id="Trazado_899257" data-name="Trazado 899257" d="M7.7-6.359H1.188V-7.617H7.7Zm0,3.242H1.188v-1.25H7.7Z" transform="translate(-2091.051 -6440)" fill="#12263f"/>
    <path id="Trazado_899258" data-name="Trazado 899258" d="M5.266,0h-2.2l1.5-8.656L1.8-7.82l.344-1.93,4.75-1.641L7.18-11.4Zm11.3,0H8.992L9.25-1.641,13.289-5.43A8.947,8.947,0,0,0,14.938-7.32a2.214,2.214,0,0,0,.3-1.422,1.061,1.061,0,0,0-1.117-.992,1.6,1.6,0,0,0-1.254.523A2.453,2.453,0,0,0,12.258-7.8l-2.2.008a3.863,3.863,0,0,1,.633-1.93,3.882,3.882,0,0,1,1.52-1.348,4.405,4.405,0,0,1,2.051-.473,3.5,3.5,0,0,1,2.469.891,2.756,2.756,0,0,1,.781,2.289A5.546,5.546,0,0,1,15.609-5L14.484-3.93,12.156-1.836l4.7.016ZM22.7-2.844l3.828-8.531h2.625L23.539,0H21.148L19.1-11.375h2.461Z" transform="translate(-2070.102 -6449)" fill="#12263f"/>
    <path id="Trazado_899017" data-name="Trazado 899017" d="M-3842.051-10039.182h42.416" transform="translate(1766.344 3595)" fill="none" stroke="#000" stroke-width="1"/>
    <path id="Trazado_899259" data-name="Trazado 899259" d="M5.266,0h-2.2l1.5-8.656L1.8-7.82l.344-1.93,4.75-1.641L7.18-11.4Zm7.508.156a2.884,2.884,0,0,1-2.281-1,4.205,4.205,0,0,1-.828-2.7A8.6,8.6,0,0,1,9.727-4.7l.32-2.133a6.638,6.638,0,0,1,1.508-3.531,3.652,3.652,0,0,1,2.883-1.164,2.9,2.9,0,0,1,2.285,1,4.161,4.161,0,0,1,.832,2.691,8.673,8.673,0,0,1-.062,1.164l-.328,2.117a6.781,6.781,0,0,1-1.5,3.551A3.63,3.63,0,0,1,12.773.156ZM15.422-8.1q0-1.552-1.094-1.606-1.578-.07-2.008,2.4L11.93-4.674A9.495,9.495,0,0,0,11.8-3.3q-.039,1.583,1.086,1.637,1.586.1,2.016-2.472l.414-2.776A8.178,8.178,0,0,0,15.422-8.1Zm6.227,4.738-1.023.891L20.2,0h-2.2L20.07-12h2.211L21.141-5.484l.43-.461,2.508-2.508h2.828l-3.7,3.633L25.563,0H23.148ZM31.383-1.93a3,3,0,0,0,1.492-1.523,10.563,10.563,0,0,0,.789-3.43A7.066,7.066,0,0,0,33.7-7.945q-.125-1.617-1.328-1.672a1.8,1.8,0,0,0-1.535.691A4.341,4.341,0,0,0,30-6.75q-.215,1.438-.254,1.941a9.02,9.02,0,0,0-.023.988q.031,1.469.883,1.883L30.313,0h-3.9l.352-1.906L28.4-1.914a7.176,7.176,0,0,1-1.062-3.031,7.876,7.876,0,0,1,.164-2.1A5.992,5.992,0,0,1,28.461-9.4,5,5,0,0,1,30.223-11a4.5,4.5,0,0,1,2.277-.527,3.779,3.779,0,0,1,2.129.66,3.625,3.625,0,0,1,1.313,1.734,5.031,5.031,0,0,1,.262,2.41l-.07.547a6.113,6.113,0,0,1-2.547,4.3l1.672-.039L34.922,0H31.086Z" transform="translate(-2074.291 -6426)" fill="#12263f"/>
    <path id="Trazado_899260" data-name="Trazado 899260" d="M7.7-6.359H1.188V-7.617H7.7Zm0,3.242H1.188v-1.25H7.7Z" transform="translate(-2021.051 -6440)" fill="#12263f"/>
    <path id="Trazado_899265" data-name="Trazado 899265" d="M5.266,0h-2.2l1.5-8.656L1.8-7.82l.344-1.93,4.75-1.641L7.18-11.4Zm5.281-2.328A1.22,1.22,0,0,1,11.441-2a1.111,1.111,0,0,1,.371.855,1.151,1.151,0,0,1-.344.879,1.194,1.194,0,0,1-.883.363A1.2,1.2,0,0,1,9.7-.219a1.149,1.149,0,0,1-.375-.852,1.161,1.161,0,0,1,.336-.883A1.238,1.238,0,0,1,10.547-2.328ZM21.156,0H13.578l.258-1.641L17.875-5.43A8.947,8.947,0,0,0,19.523-7.32a2.214,2.214,0,0,0,.3-1.422,1.061,1.061,0,0,0-1.117-.992,1.6,1.6,0,0,0-1.254.523A2.453,2.453,0,0,0,16.844-7.8l-2.2.008a3.863,3.863,0,0,1,.633-1.93,3.882,3.882,0,0,1,1.52-1.348,4.405,4.405,0,0,1,2.051-.473,3.5,3.5,0,0,1,2.469.891,2.756,2.756,0,0,1,.781,2.289A5.546,5.546,0,0,1,20.2-5L19.07-3.93,16.742-1.836l4.7.016Zm8.883-8.461-.18.961a3.112,3.112,0,0,1,2.477-1.109,2.379,2.379,0,0,1,1.3.359,1.679,1.679,0,0,1,.7.93,3.255,3.255,0,0,1,2.625-1.289,2.126,2.126,0,0,1,1.754.8,3.271,3.271,0,0,1,.5,2.234l-.016.2L38.289,0H36.078l.9-5.4A3.908,3.908,0,0,0,37-5.944a.837.837,0,0,0-.937-.845,1.86,1.86,0,0,0-1.555.97l-.023.18L33.5,0H31.3l.9-5.383a3.9,3.9,0,0,0,.023-.539.836.836,0,0,0-.93-.852,1.867,1.867,0,0,0-1.508.789L28.727,0h-2.2l1.461-8.453ZM46.867-2.344H42.9L41.727,0H39.2l6.078-11.375H47.4L49.563,0H47.227Zm-3.031-1.9h2.742l-.641-4.234Z" transform="translate(-2003.102 -6440)" fill="#12263f"/>
    <path id="Trazado_899240" data-name="Trazado 899240" d="M0,0H230V69H0Z" transform="translate(-2406 -6396)" fill="#f4c0c0"/>
    <path id="Trazado_899241" data-name="Trazado 899241" d="M2.6,0H.313L2.281-11.375H4.57ZM6.525,1.1l.615,0a1.2,1.2,0,0,0,.786-.26,1.013,1.013,0,0,0,.367-.7.736.736,0,0,0-.141-.59.717.717,0,0,0-.561-.23.958.958,0,0,0-.64.2.872.872,0,0,0-.326.549L5.34.088a1.722,1.722,0,0,1,.69-1.315,2.429,2.429,0,0,1,1.579-.5,2.168,2.168,0,0,1,1.486.524,1.6,1.6,0,0,1,.5,1.34A1.8,1.8,0,0,1,8.384,1.619a1.389,1.389,0,0,1,.654.608,1.649,1.649,0,0,1,.18.877,1.906,1.906,0,0,1-.369,1.057,2.16,2.16,0,0,1-.9.7,2.894,2.894,0,0,1-1.221.23A2.075,2.075,0,0,1,5.276,4.56a1.767,1.767,0,0,1-.551-1.379H6a.824.824,0,0,0,.207.6.808.808,0,0,0,.6.244,1.128,1.128,0,0,0,.766-.254,1.027,1.027,0,0,0,.374-.688.833.833,0,0,0-.162-.7.906.906,0,0,0-.672-.256l-.756,0ZM21.491-6.359H14.975V-7.617h6.516Zm0,3.242H14.975v-1.25h6.516Z" transform="translate(-2386.051 -6358)" fill="#12263f"/>
    <path id="Trazado_899242" data-name="Trazado 899242" d="M4.734-2.844l3.828-8.531h2.625L5.57,0H3.18L1.133-11.375H3.594Z" transform="translate(-2353.051 -6367)" fill="#12263f"/>
    <path id="Trazado_899018" data-name="Trazado 899018" d="M-3842.051-10039.182H-3821" transform="translate(1481.949 3677)" fill="none" stroke="#000" stroke-width="1"/>
    <path id="Trazado_899243" data-name="Trazado 899243" d="M5.039-4.164H3.18L2.453,0H.164L2.141-11.375l3.766.008a4.289,4.289,0,0,1,2.91.891A2.817,2.817,0,0,1,9.719-8a3.574,3.574,0,0,1-2.5,3.258L8.82-.125V0H6.383Zm-1.531-1.9,1.7.016a2.386,2.386,0,0,0,1.5-.488A1.933,1.933,0,0,0,7.414-7.82a1.473,1.473,0,0,0-.242-1.187,1.442,1.442,0,0,0-1.117-.461L4.1-9.477ZM15.25,0h-2.2l1.5-8.656-2.766.836.344-1.93,4.75-1.641.289-.008Z" transform="translate(-2358.051 -6344)" fill="#12263f"/>
    <path id="Trazado_899244" data-name="Trazado 899244" d="M7.7-6.359H1.188V-7.617H7.7Zm0,3.242H1.188v-1.25H7.7Z" transform="translate(-2334.051 -6358)" fill="#12263f"/>
    <path id="Trazado_899245" data-name="Trazado 899245" d="M5.266,0h-2.2l1.5-8.656L1.8-7.82l.344-1.93,4.75-1.641L7.18-11.4Zm11.3,0H8.992L9.25-1.641,13.289-5.43A8.947,8.947,0,0,0,14.938-7.32a2.214,2.214,0,0,0,.3-1.422,1.061,1.061,0,0,0-1.117-.992,1.6,1.6,0,0,0-1.254.523A2.453,2.453,0,0,0,12.258-7.8l-2.2.008a3.863,3.863,0,0,1,.633-1.93,3.882,3.882,0,0,1,1.52-1.348,4.405,4.405,0,0,1,2.051-.473,3.5,3.5,0,0,1,2.469.891,2.756,2.756,0,0,1,.781,2.289A5.546,5.546,0,0,1,15.609-5L14.484-3.93,12.156-1.836l4.7.016ZM22.7-2.844l3.828-8.531h2.625L23.539,0H21.148L19.1-11.375h2.461Z" transform="translate(-2305.102 -6367)" fill="#12263f"/>
    <path id="Trazado_899019" data-name="Trazado 899019" d="M-3842.051-10039.182h42.416" transform="translate(1526.344 3677)" fill="none" stroke="#000" stroke-width="1"/>
    <path id="Trazado_899246" data-name="Trazado 899246" d="M7.172-4.281h1.25L8.1-2.461H6.852L6.422,0h-2.2l.43-2.461H.133L.289-4l5.8-7.375H8.4ZM2.578-4.3l2.391.016.773-4.047-.2.281Zm7.969,1.969A1.22,1.22,0,0,1,11.441-2a1.111,1.111,0,0,1,.371.855,1.151,1.151,0,0,1-.344.879,1.194,1.194,0,0,1-.883.363A1.2,1.2,0,0,1,9.7-.219a1.149,1.149,0,0,1-.375-.852,1.161,1.161,0,0,1,.336-.883A1.238,1.238,0,0,1,10.547-2.328ZM22.664-10,16.883,0h-2.43l5.766-9.555H14.781l.289-1.82h7.8Zm3.57,6.631-1.023.891L24.781,0h-2.2l2.078-12h2.211L25.727-5.484l.43-.461,2.508-2.508h2.828L27.8-4.82,30.148,0H27.734ZM35.969-1.93a3,3,0,0,0,1.492-1.523,10.563,10.563,0,0,0,.789-3.43,7.066,7.066,0,0,0,.039-1.062q-.125-1.617-1.328-1.672a1.8,1.8,0,0,0-1.535.691A4.341,4.341,0,0,0,34.59-6.75q-.215,1.438-.254,1.941a9.019,9.019,0,0,0-.023.988q.031,1.469.883,1.883L34.9,0H31l.352-1.906,1.633-.008a7.176,7.176,0,0,1-1.062-3.031,7.876,7.876,0,0,1,.164-2.1A5.992,5.992,0,0,1,33.047-9.4,5,5,0,0,1,34.809-11a4.5,4.5,0,0,1,2.277-.527,3.779,3.779,0,0,1,2.129.66,3.625,3.625,0,0,1,1.313,1.734,5.031,5.031,0,0,1,.262,2.41l-.07.547a6.113,6.113,0,0,1-2.547,4.3l1.672-.039L39.508,0H35.672Z" transform="translate(-2314.291 -6344)" fill="#12263f"/>
    <path id="Trazado_899247" data-name="Trazado 899247" d="M7.7-6.359H1.188V-7.617H7.7Zm0,3.242H1.188v-1.25H7.7Z" transform="translate(-2261.051 -6358)" fill="#12263f"/>
    <path id="Trazado_899248" data-name="Trazado 899248" d="M7.586,0H.008L.266-1.641,4.3-5.43A8.947,8.947,0,0,0,5.953-7.32a2.214,2.214,0,0,0,.3-1.422,1.061,1.061,0,0,0-1.117-.992,1.6,1.6,0,0,0-1.254.523A2.453,2.453,0,0,0,3.273-7.8l-2.2.008A3.863,3.863,0,0,1,1.7-9.719a3.882,3.882,0,0,1,1.52-1.348,4.405,4.405,0,0,1,2.051-.473,3.5,3.5,0,0,1,2.469.891,2.756,2.756,0,0,1,.781,2.289A5.546,5.546,0,0,1,6.625-5L5.5-3.93,3.172-1.836l4.7.016Zm2.961-2.328A1.22,1.22,0,0,1,11.441-2a1.111,1.111,0,0,1,.371.855,1.151,1.151,0,0,1-.344.879,1.194,1.194,0,0,1-.883.363A1.2,1.2,0,0,1,9.7-.219a1.149,1.149,0,0,1-.375-.852,1.161,1.161,0,0,1,.336-.883A1.238,1.238,0,0,1,10.547-2.328Zm4.227-3.3,1.531-5.75h6.219l-.3,1.883H17.859l-.75,2.461a3.016,3.016,0,0,1,1.641-.437,2.693,2.693,0,0,1,2.262,1.035,3.855,3.855,0,0,1,.676,2.73,4.423,4.423,0,0,1-.66,2.023A3.852,3.852,0,0,1,19.539-.3a4.108,4.108,0,0,1-2.031.461,3.613,3.613,0,0,1-1.746-.441,3.12,3.12,0,0,1-1.223-1.2,3.409,3.409,0,0,1-.445-1.7h2.164a1.7,1.7,0,0,0,.383,1.09,1.259,1.259,0,0,0,.953.41,1.545,1.545,0,0,0,1.285-.57,2.845,2.845,0,0,0,.605-1.594,2.02,2.02,0,0,0-.27-1.406,1.3,1.3,0,0,0-1.105-.531,2.195,2.195,0,0,0-1.531.609Zm8.984,0,1.531-5.75h6.219l-.3,1.883H26.844l-.75,2.461a3.016,3.016,0,0,1,1.641-.437A2.693,2.693,0,0,1,30-6.434a3.855,3.855,0,0,1,.676,2.73,4.423,4.423,0,0,1-.66,2.023A3.852,3.852,0,0,1,28.523-.3a4.108,4.108,0,0,1-2.031.461,3.613,3.613,0,0,1-1.746-.441,3.12,3.12,0,0,1-1.223-1.2,3.409,3.409,0,0,1-.445-1.7h2.164a1.7,1.7,0,0,0,.383,1.09,1.259,1.259,0,0,0,.953.41,1.545,1.545,0,0,0,1.285-.57,2.845,2.845,0,0,0,.605-1.594,2.02,2.02,0,0,0-.27-1.406,1.3,1.3,0,0,0-1.105-.531,2.195,2.195,0,0,0-1.531.609ZM39.023-8.461l-.18.961A3.112,3.112,0,0,1,41.32-8.609a2.379,2.379,0,0,1,1.3.359,1.679,1.679,0,0,1,.7.93,3.255,3.255,0,0,1,2.625-1.289,2.126,2.126,0,0,1,1.754.8,3.271,3.271,0,0,1,.5,2.234l-.016.2L47.273,0H45.063l.9-5.4a3.908,3.908,0,0,0,.023-.54.837.837,0,0,0-.937-.845,1.86,1.86,0,0,0-1.555.97l-.023.18L42.484,0h-2.2l.9-5.383a3.9,3.9,0,0,0,.023-.539.836.836,0,0,0-.93-.852,1.867,1.867,0,0,0-1.508.789L37.711,0h-2.2l1.461-8.453ZM55.852-2.344H51.883L50.711,0H48.188l6.078-11.375h2.117L58.547,0H56.211Zm-3.031-1.9h2.742l-.641-4.234Z" transform="translate(-2247.102 -6358)" fill="#12263f"/>
    <path id="Trazado_899250" data-name="Trazado 899250" d="M0,0H230V69H0Z" transform="translate(-2166 -6396)" fill="#f4c0c0"/>
    <path id="Trazado_899252" data-name="Trazado 899252" d="M2.6,0H.313L2.281-11.375H4.57ZM8.785,2.5h.729L9.327,3.565H8.6L8.347,5H7.062l.251-1.435H4.679l.091-.9,3.386-4.3H9.5Zm-2.68-.009L7.5,2.5,7.951.142,7.832.306ZM21.491-6.359H14.975V-7.617h6.516Zm0,3.242H14.975v-1.25h6.516Z" transform="translate(-2146.051 -6358)" fill="#12263f"/>
    <path id="Trazado_899255" data-name="Trazado 899255" d="M4.734-2.844l3.828-8.531h2.625L5.57,0H3.18L1.133-11.375H3.594Z" transform="translate(-2113.051 -6367)" fill="#12263f"/>
    <path id="Trazado_899020" data-name="Trazado 899020" d="M-3842.051-10039.182H-3821" transform="translate(1721.949 3677)" fill="none" stroke="#000" stroke-width="1"/>
    <path id="Trazado_899256" data-name="Trazado 899256" d="M5.039-4.164H3.18L2.453,0H.164L2.141-11.375l3.766.008a4.289,4.289,0,0,1,2.91.891A2.817,2.817,0,0,1,9.719-8a3.574,3.574,0,0,1-2.5,3.258L8.82-.125V0H6.383Zm-1.531-1.9,1.7.016a2.386,2.386,0,0,0,1.5-.488A1.933,1.933,0,0,0,7.414-7.82a1.473,1.473,0,0,0-.242-1.187,1.442,1.442,0,0,0-1.117-.461L4.1-9.477ZM15.25,0h-2.2l1.5-8.656-2.766.836.344-1.93,4.75-1.641.289-.008Z" transform="translate(-2118.051 -6344)" fill="#12263f"/>
    <path id="Trazado_899261" data-name="Trazado 899261" d="M7.7-6.359H1.188V-7.617H7.7Zm0,3.242H1.188v-1.25H7.7Z" transform="translate(-2094.051 -6358)" fill="#12263f"/>
    <path id="Trazado_899262" data-name="Trazado 899262" d="M5.266,0h-2.2l1.5-8.656L1.8-7.82l.344-1.93,4.75-1.641L7.18-11.4Zm11.3,0H8.992L9.25-1.641,13.289-5.43A8.947,8.947,0,0,0,14.938-7.32a2.214,2.214,0,0,0,.3-1.422,1.061,1.061,0,0,0-1.117-.992,1.6,1.6,0,0,0-1.254.523A2.453,2.453,0,0,0,12.258-7.8l-2.2.008a3.863,3.863,0,0,1,.633-1.93,3.882,3.882,0,0,1,1.52-1.348,4.405,4.405,0,0,1,2.051-.473,3.5,3.5,0,0,1,2.469.891,2.756,2.756,0,0,1,.781,2.289A5.546,5.546,0,0,1,15.609-5L14.484-3.93,12.156-1.836l4.7.016ZM22.7-2.844l3.828-8.531h2.625L23.539,0H21.148L19.1-11.375h2.461Z" transform="translate(-2065.102 -6367)" fill="#12263f"/>
    <path id="Trazado_899021" data-name="Trazado 899021" d="M-3842.051-10039.182h42.416" transform="translate(1766.344 3677)" fill="none" stroke="#000" stroke-width="1"/>
    <path id="Trazado_899263" data-name="Trazado 899263" d="M5.266,0h-2.2l1.5-8.656L1.8-7.82l.344-1.93,4.75-1.641L7.18-11.4Zm7.508.156a2.884,2.884,0,0,1-2.281-1,4.205,4.205,0,0,1-.828-2.7A8.6,8.6,0,0,1,9.727-4.7l.32-2.133a6.638,6.638,0,0,1,1.508-3.531,3.652,3.652,0,0,1,2.883-1.164,2.9,2.9,0,0,1,2.285,1,4.161,4.161,0,0,1,.832,2.691,8.673,8.673,0,0,1-.062,1.164l-.328,2.117a6.781,6.781,0,0,1-1.5,3.551A3.63,3.63,0,0,1,12.773.156ZM15.422-8.1q0-1.552-1.094-1.606-1.578-.07-2.008,2.4L11.93-4.674A9.495,9.495,0,0,0,11.8-3.3q-.039,1.583,1.086,1.637,1.586.1,2.016-2.472l.414-2.776A8.178,8.178,0,0,0,15.422-8.1ZM21.758.156a2.884,2.884,0,0,1-2.281-1,4.205,4.205,0,0,1-.828-2.7A8.6,8.6,0,0,1,18.711-4.7l.32-2.133a6.638,6.638,0,0,1,1.508-3.531,3.652,3.652,0,0,1,2.883-1.164,2.9,2.9,0,0,1,2.285,1,4.161,4.161,0,0,1,.832,2.691,8.673,8.673,0,0,1-.062,1.164l-.328,2.117a6.781,6.781,0,0,1-1.5,3.551A3.63,3.63,0,0,1,21.758.156ZM24.406-8.1q0-1.552-1.094-1.606-1.578-.07-2.008,2.4l-.391,2.635A9.494,9.494,0,0,0,20.789-3.3q-.039,1.583,1.086,1.637,1.586.1,2.016-2.472L24.3-6.912A8.178,8.178,0,0,0,24.406-8.1Zm6.227,4.738-1.023.891L29.18,0h-2.2l2.078-12h2.211L30.125-5.484l.43-.461,2.508-2.508h2.828L32.2-4.82,34.547,0H32.133ZM40.367-1.93a3,3,0,0,0,1.492-1.523,10.563,10.563,0,0,0,.789-3.43,7.066,7.066,0,0,0,.039-1.062q-.125-1.617-1.328-1.672a1.8,1.8,0,0,0-1.535.691,4.341,4.341,0,0,0-.836,2.176q-.215,1.438-.254,1.941a9.019,9.019,0,0,0-.023.988q.031,1.469.883,1.883L39.3,0H35.4l.352-1.906,1.633-.008A7.176,7.176,0,0,1,36.32-4.945a7.877,7.877,0,0,1,.164-2.1A5.992,5.992,0,0,1,37.445-9.4,5,5,0,0,1,39.207-11a4.5,4.5,0,0,1,2.277-.527,3.779,3.779,0,0,1,2.129.66,3.625,3.625,0,0,1,1.313,1.734,5.031,5.031,0,0,1,.262,2.41l-.07.547a6.113,6.113,0,0,1-2.547,4.3l1.672-.039L43.906,0H40.07Z" transform="translate(-2074.291 -6344)" fill="#12263f"/>
    <path id="Trazado_899264" data-name="Trazado 899264" d="M7.7-6.359H1.188V-7.617H7.7Zm0,3.242H1.188v-1.25H7.7Z" transform="translate(-2021.051 -6358)" fill="#12263f"/>
    <path id="Trazado_899266" data-name="Trazado 899266" d="M3.789.156a2.884,2.884,0,0,1-2.281-1,4.205,4.205,0,0,1-.828-2.7A8.6,8.6,0,0,1,.742-4.7l.32-2.133A6.638,6.638,0,0,1,2.57-10.367a3.652,3.652,0,0,1,2.883-1.164,2.9,2.9,0,0,1,2.285,1A4.161,4.161,0,0,1,8.57-7.844,8.673,8.673,0,0,1,8.508-6.68L8.18-4.562a6.781,6.781,0,0,1-1.5,3.551A3.63,3.63,0,0,1,3.789.156ZM6.438-8.1q0-1.552-1.094-1.606-1.578-.07-2.008,2.4L2.945-4.674A9.494,9.494,0,0,0,2.82-3.3Q2.781-1.719,3.906-1.664q1.586.1,2.016-2.472l.414-2.776A8.178,8.178,0,0,0,6.438-8.1Zm4.109,5.777A1.22,1.22,0,0,1,11.441-2a1.111,1.111,0,0,1,.371.855,1.151,1.151,0,0,1-.344.879,1.194,1.194,0,0,1-.883.363A1.2,1.2,0,0,1,9.7-.219a1.149,1.149,0,0,1-.375-.852,1.161,1.161,0,0,1,.336-.883A1.238,1.238,0,0,1,10.547-2.328ZM18.836,0h-2.2l1.5-8.656-2.766.836.344-1.93,4.75-1.641.289-.008Zm11.3,0H22.563l.258-1.641L26.859-5.43A8.947,8.947,0,0,0,28.508-7.32a2.214,2.214,0,0,0,.3-1.422A1.061,1.061,0,0,0,27.7-9.734a1.6,1.6,0,0,0-1.254.523A2.453,2.453,0,0,0,25.828-7.8l-2.2.008a3.863,3.863,0,0,1,.633-1.93,3.882,3.882,0,0,1,1.52-1.348,4.405,4.405,0,0,1,2.051-.473,3.5,3.5,0,0,1,2.469.891,2.756,2.756,0,0,1,.781,2.289A5.546,5.546,0,0,1,29.18-5L28.055-3.93,25.727-1.836l4.7.016Zm8.883-8.461-.18.961A3.112,3.112,0,0,1,41.32-8.609a2.379,2.379,0,0,1,1.3.359,1.679,1.679,0,0,1,.7.93,3.255,3.255,0,0,1,2.625-1.289,2.126,2.126,0,0,1,1.754.8,3.271,3.271,0,0,1,.5,2.234l-.016.2L47.273,0H45.063l.9-5.4a3.908,3.908,0,0,0,.023-.54.837.837,0,0,0-.937-.845,1.86,1.86,0,0,0-1.555.97l-.023.18L42.484,0h-2.2l.9-5.383a3.9,3.9,0,0,0,.023-.539.836.836,0,0,0-.93-.852,1.867,1.867,0,0,0-1.508.789L37.711,0h-2.2l1.461-8.453ZM55.852-2.344H51.883L50.711,0H48.188l6.078-11.375h2.117L58.547,0H56.211Zm-3.031-1.9h2.742l-.641-4.234Z" transform="translate(-2007.102 -6358)" fill="#12263f"/>
  </g>
</svg>
