<svg xmlns="http://www.w3.org/2000/svg" width="654.063" height="205" viewBox="0 0 654.063 205">
  <g id="Grupo_1108799" data-name="Grupo 1108799" transform="translate(2751.266 5635)">
    <path id="Trazado_899022" data-name="Trazado 899022" d="M-4102.469-7141.682v-65.047h519.857v74.109" transform="translate(1413.418 1577.729)" fill="none" stroke="#000" stroke-width="3"/>
    <path id="Trazado_899023" data-name="Trazado 899023" d="M-4102.469-7196.756v64.136h519.857v-74.109" transform="translate(1413.418 1696.838)" fill="none" stroke="#000" stroke-width="3"/>
    <path id="Trazado_899024" data-name="Trazado 899024" d="M-3967.051-7206.729v78.641" transform="translate(1482.949 1577.729)" fill="none" stroke="#000" stroke-width="3"/>
    <path id="Trazado_899025" data-name="Trazado 899025" d="M-3967.051-7206.729v78.641" transform="translate(1482.949 1692.307)" fill="none" stroke="#000" stroke-width="3"/>
    <path id="Trazado_899026" data-name="Trazado 899026" d="M-3967.051-7206.729v78.641" transform="translate(1587.949 1577.729)" fill="none" stroke="#000" stroke-width="3"/>
    <path id="Trazado_899027" data-name="Trazado 899027" d="M-3967.051-7206.729v78.641" transform="translate(1587.949 1692.307)" fill="none" stroke="#000" stroke-width="3"/>
    <path id="Trazado_899028" data-name="Trazado 899028" d="M-3967.051-7206.729v78.641" transform="translate(1692.949 1577.729)" fill="none" stroke="#000" stroke-width="3"/>
    <path id="Trazado_899029" data-name="Trazado 899029" d="M-3967.051-7206.729v78.641" transform="translate(1692.949 1692.307)" fill="none" stroke="#000" stroke-width="3"/>
    <path id="Trazado_899030" data-name="Trazado 899030" d="M-4249.752-9209.859h14.453l6.706-16.7,4.688,26.589,6.9-23.133,4.063,23.133,8.794-23.133,6.224,13.239h10.516" transform="translate(-11694.361 -1313.859) rotate(90)" fill="none" stroke="red" stroke-width="3"/>
    <path id="Trazado_899032" data-name="Trazado 899032" d="M-4249.752-9209.859h14.453l6.706-16.7,4.688,26.589,6.9-23.133,4.063,23.133,8.794-23.133,6.224,13.239h10.516" transform="translate(-11483.656 -1313.859) rotate(90)" fill="none" stroke="red" stroke-width="3"/>
    <path id="Trazado_899033" data-name="Trazado 899033" d="M-4249.752-9209.859h14.453l6.706-16.7,4.688,26.589,6.9-23.133,4.063,23.133,8.794-23.133,6.224,13.239h10.516" transform="translate(-11379.656 -1313.859) rotate(90)" fill="none" stroke="red" stroke-width="3"/>
    <path id="Trazado_899235" data-name="Trazado 899235" d="M2.789-3.216A4.663,4.663,0,0,1,3-4.683a3.761,3.761,0,0,1,.8-1.193L4.82-6.929a2.36,2.36,0,0,0,.656-1.59A1.815,1.815,0,0,0,5.047-9.8a1.62,1.62,0,0,0-1.25-.464,1.881,1.881,0,0,0-1.281.422,1.426,1.426,0,0,0-.484,1.133H.586a2.632,2.632,0,0,1,.9-2.043A3.374,3.374,0,0,1,3.8-11.531a3.185,3.185,0,0,1,2.3.792,2.87,2.87,0,0,1,.824,2.172A3.926,3.926,0,0,1,5.656-5.876L4.8-5.034a2.623,2.623,0,0,0-.57,1.818ZM2.727-.734a.861.861,0,0,1,.215-.6.81.81,0,0,1,.637-.241.822.822,0,0,1,.641.241.852.852,0,0,1,.219.6.824.824,0,0,1-.219.588.837.837,0,0,1-.641.233.824.824,0,0,1-.637-.233A.832.832,0,0,1,2.727-.734Z" transform="translate(-2351 -5527)" fill="#12263f"/>
    <path id="Trazado_899236" data-name="Trazado 899236" d="M5.492-4.6H2.82V0H1.313V-11.375H5.078a4.457,4.457,0,0,1,2.957.875A3.148,3.148,0,0,1,9.07-7.953,3.062,3.062,0,0,1,8.5-6.1a3.428,3.428,0,0,1-1.6,1.18L9.57-.094V0H7.961ZM2.82-5.828h2.3A2.6,2.6,0,0,0,6.9-6.407a1.959,1.959,0,0,0,.66-1.55,2.062,2.062,0,0,0-.629-1.62,2.663,2.663,0,0,0-1.816-.571H2.82ZM15.547,0H14.094V-9.633L11.18-8.562V-9.875L15.32-11.43h.227ZM5.7,15H4.242V5.367L1.328,6.438V5.125L5.469,3.57H5.7Zm4.414-.758a.905.905,0,0,1,.223-.625.848.848,0,0,1,.668-.25.874.874,0,0,1,.676.25.887.887,0,0,1,.23.625.839.839,0,0,1-.23.6.89.89,0,0,1-.676.242.8.8,0,0,1-.891-.844Zm11.164-4.094a6.61,6.61,0,0,1-.867,3.773A3.084,3.084,0,0,1,17.7,15.156,3.107,3.107,0,0,1,15,13.949a6.274,6.274,0,0,1-.906-3.605V8.414a6.463,6.463,0,0,1,.867-3.727A3.108,3.108,0,0,1,17.68,3.469a3.136,3.136,0,0,1,2.7,1.176,6.237,6.237,0,0,1,.891,3.629ZM19.828,8.172A5.3,5.3,0,0,0,19.313,5.5a1.775,1.775,0,0,0-1.633-.84,1.751,1.751,0,0,0-1.617.836,5.171,5.171,0,0,0-.523,2.57v2.313a5.381,5.381,0,0,0,.535,2.723,1.771,1.771,0,0,0,1.621.879,1.747,1.747,0,0,0,1.59-.828,5.186,5.186,0,0,0,.543-2.609Zm6.563,1.539L25,11.156V15H23.5V3.625H25V9.25l5.055-5.625h1.813L27.391,8.648,32.219,15h-1.8Zm11.578,4.023a2.4,2.4,0,0,0,1.68-1.321,6.349,6.349,0,0,0,.625-2.94V8.425a4.389,4.389,0,0,0-.758-2.768A2.5,2.5,0,0,0,37.438,4.7a2.465,2.465,0,0,0-2.07.977,4.464,4.464,0,0,0-.75,2.768v.884a6.479,6.479,0,0,0,.613,3.034,2.464,2.464,0,0,0,1.746,1.376V15H33.133V13.773h1.727a5.5,5.5,0,0,1-1.3-2,6.715,6.715,0,0,1-.469-2.465V8.445a5.891,5.891,0,0,1,.551-2.594A4.2,4.2,0,0,1,41.219,5.8,5.769,5.769,0,0,1,41.8,8.313V9.328a6.675,6.675,0,0,1-.469,2.449,5.5,5.5,0,0,1-1.3,2H41.75V15H37.969Z" transform="translate(-2248 -5533)" fill="#12263f"/>
    <path id="Trazado_899237" data-name="Trazado 899237" d="M5.492-4.6H2.82V0H1.313V-11.375H5.078a4.457,4.457,0,0,1,2.957.875A3.148,3.148,0,0,1,9.07-7.953,3.062,3.062,0,0,1,8.5-6.1a3.428,3.428,0,0,1-1.6,1.18L9.57-.094V0H7.961ZM2.82-5.828h2.3A2.6,2.6,0,0,0,6.9-6.407a1.959,1.959,0,0,0,.66-1.55,2.062,2.062,0,0,0-.629-1.62,2.663,2.663,0,0,0-1.816-.571H2.82ZM18.25,0H10.8V-1.039l3.938-4.375a9.354,9.354,0,0,0,1.207-1.613,2.693,2.693,0,0,0,.332-1.285,2.041,2.041,0,0,0-.539-1.461,1.885,1.885,0,0,0-1.437-.57,2.232,2.232,0,0,0-1.676.613,2.343,2.343,0,0,0-.6,1.707H10.578a3.355,3.355,0,0,1,1.012-2.539,3.751,3.751,0,0,1,2.707-.969A3.6,3.6,0,0,1,16.8-10.7a2.838,2.838,0,0,1,.922,2.215q0,1.68-2.141,4l-3.047,3.3H18.25ZM5.7,15H4.242V5.367L1.328,6.438V5.125L5.469,3.57H5.7Zm4.414-.758a.905.905,0,0,1,.223-.625.848.848,0,0,1,.668-.25.874.874,0,0,1,.676.25.887.887,0,0,1,.23.625.839.839,0,0,1-.23.6.89.89,0,0,1-.676.242.8.8,0,0,1-.891-.844Zm11.164-4.094a6.61,6.61,0,0,1-.867,3.773A3.084,3.084,0,0,1,17.7,15.156,3.107,3.107,0,0,1,15,13.949a6.274,6.274,0,0,1-.906-3.605V8.414a6.463,6.463,0,0,1,.867-3.727A3.108,3.108,0,0,1,17.68,3.469a3.136,3.136,0,0,1,2.7,1.176,6.237,6.237,0,0,1,.891,3.629ZM19.828,8.172A5.3,5.3,0,0,0,19.313,5.5a1.775,1.775,0,0,0-1.633-.84,1.751,1.751,0,0,0-1.617.836,5.171,5.171,0,0,0-.523,2.57v2.313a5.381,5.381,0,0,0,.535,2.723,1.771,1.771,0,0,0,1.621.879,1.747,1.747,0,0,0,1.59-.828,5.186,5.186,0,0,0,.543-2.609Zm6.563,1.539L25,11.156V15H23.5V3.625H25V9.25l5.055-5.625h1.813L27.391,8.648,32.219,15h-1.8Zm11.578,4.023a2.4,2.4,0,0,0,1.68-1.321,6.349,6.349,0,0,0,.625-2.94V8.425a4.389,4.389,0,0,0-.758-2.768A2.5,2.5,0,0,0,37.438,4.7a2.465,2.465,0,0,0-2.07.977,4.464,4.464,0,0,0-.75,2.768v.884a6.479,6.479,0,0,0,.613,3.034,2.464,2.464,0,0,0,1.746,1.376V15H33.133V13.773h1.727a5.5,5.5,0,0,1-1.3-2,6.715,6.715,0,0,1-.469-2.465V8.445a5.891,5.891,0,0,1,.551-2.594A4.2,4.2,0,0,1,41.219,5.8,5.769,5.769,0,0,1,41.8,8.313V9.328a6.675,6.675,0,0,1-.469,2.449,5.5,5.5,0,0,1-1.3,2H41.75V15H37.969Z" transform="translate(-2139 -5533)" fill="#12263f"/>
    <path id="Trazado_899231" data-name="Trazado 899231" d="M5.5,0A5.5,5.5,0,1,1,0,5.5,5.5,5.5,0,0,1,5.5,0Z" transform="translate(-2590 -5635)"/>
    <path id="Trazado_899038" data-name="Trazado 899038" d="M-4249.752-9209.859h14.453l6.706-16.7,4.688,26.589,6.9-23.133,4.063,23.133,8.794-23.133,6.224,13.239h10.516" transform="translate(-11898.656 -1313.859) rotate(90)" fill="none" stroke="red" stroke-width="3"/>
    <path id="Trazado_899039" data-name="Trazado 899039" d="M-3967.051-7206.729v78.641" transform="translate(1383 1577.729)" fill="none" stroke="#000" stroke-width="3"/>
    <path id="Trazado_899040" data-name="Trazado 899040" d="M-3967.051-7206.729v78.641" transform="translate(1383 1692.307)" fill="none" stroke="#000" stroke-width="3"/>
    <path id="Trazado_899241" data-name="Trazado 899241" d="M5.5,0A5.5,5.5,0,1,1,0,5.5,5.5,5.5,0,0,1,5.5,0Z" transform="translate(-2590 -5441)"/>
    <path id="Trazado_899232" data-name="Trazado 899232" d="M5.5,0A5.5,5.5,0,1,1,0,5.5,5.5,5.5,0,0,1,5.5,0Z" transform="translate(-2490 -5635)"/>
    <path id="Trazado_899242" data-name="Trazado 899242" d="M5.5,0A5.5,5.5,0,1,1,0,5.5,5.5,5.5,0,0,1,5.5,0Z" transform="translate(-2490 -5441)"/>
    <path id="Trazado_899233" data-name="Trazado 899233" d="M5.5,0A5.5,5.5,0,1,1,0,5.5,5.5,5.5,0,0,1,5.5,0Z" transform="translate(-2385 -5635)"/>
    <path id="Trazado_899243" data-name="Trazado 899243" d="M5.5,0A5.5,5.5,0,1,1,0,5.5,5.5,5.5,0,0,1,5.5,0Z" transform="translate(-2385 -5441)"/>
    <path id="Trazado_899234" data-name="Trazado 899234" d="M5.5,0A5.5,5.5,0,1,1,0,5.5,5.5,5.5,0,0,1,5.5,0Z" transform="translate(-2280 -5635)"/>
    <path id="Trazado_899244" data-name="Trazado 899244" d="M5.5,0A5.5,5.5,0,1,1,0,5.5,5.5,5.5,0,0,1,5.5,0Z" transform="translate(-2280 -5441)"/>
    <path id="Trazado_899041" data-name="Trazado 899041" d="M-4249.752-9209.859h14.453l6.706-16.7,4.688,26.589,6.9-23.133,4.063,23.133,8.794-23.133,6.224,13.239h10.516" transform="translate(-11794.311 -1313.859) rotate(90)" fill="none" stroke="red" stroke-width="3"/>
    <path id="Trazado_899238" data-name="Trazado 899238" d="M5.492-4.6H2.82V0H1.313V-11.375H5.078a4.457,4.457,0,0,1,2.957.875A3.148,3.148,0,0,1,9.07-7.953,3.062,3.062,0,0,1,8.5-6.1a3.428,3.428,0,0,1-1.6,1.18L9.57-.094V0H7.961ZM2.82-5.828h2.3A2.6,2.6,0,0,0,6.9-6.407a1.959,1.959,0,0,0,.66-1.55,2.062,2.062,0,0,0-.629-1.62,2.663,2.663,0,0,0-1.816-.571H2.82ZM16.9-3.82h1.578v1.18H16.9V0H15.445V-2.641h-5.18v-.852l5.094-7.883H16.9Zm-4.992,0h3.539V-9.4l-.172.313ZM3.047,8.609H4.133A2.387,2.387,0,0,0,5.742,8.07a1.8,1.8,0,0,0,.586-1.414,1.764,1.764,0,0,0-1.992-2,2.072,2.072,0,0,0-1.5.535,1.873,1.873,0,0,0-.559,1.418H.836a2.9,2.9,0,0,1,.988-2.246,3.6,3.6,0,0,1,2.512-.895,3.558,3.558,0,0,1,2.523.852,3.076,3.076,0,0,1,.914,2.367,2.5,2.5,0,0,1-.48,1.438A2.9,2.9,0,0,1,5.984,9.164a2.8,2.8,0,0,1,1.449.984,2.734,2.734,0,0,1,.512,1.68,3.1,3.1,0,0,1-1,2.43,3.745,3.745,0,0,1-2.6.9,3.844,3.844,0,0,1-2.605-.867A2.877,2.877,0,0,1,.734,12H2.188a1.859,1.859,0,0,0,.586,1.438,2.229,2.229,0,0,0,1.57.539,2.187,2.187,0,0,0,1.6-.547,2.108,2.108,0,0,0,.555-1.57,1.912,1.912,0,0,0-.609-1.523,2.655,2.655,0,0,0-1.758-.547H3.047Zm7.063,5.633a.905.905,0,0,1,.223-.625.848.848,0,0,1,.668-.25.874.874,0,0,1,.676.25.887.887,0,0,1,.23.625.839.839,0,0,1-.23.6.89.89,0,0,1-.676.242.8.8,0,0,1-.891-.844Zm11.164-4.094a6.61,6.61,0,0,1-.867,3.773A3.084,3.084,0,0,1,17.7,15.156,3.107,3.107,0,0,1,15,13.949a6.274,6.274,0,0,1-.906-3.605V8.414a6.463,6.463,0,0,1,.867-3.727A3.108,3.108,0,0,1,17.68,3.469a3.136,3.136,0,0,1,2.7,1.176,6.237,6.237,0,0,1,.891,3.629ZM19.828,8.172A5.3,5.3,0,0,0,19.313,5.5a1.775,1.775,0,0,0-1.633-.84,1.751,1.751,0,0,0-1.617.836,5.171,5.171,0,0,0-.523,2.57v2.313a5.381,5.381,0,0,0,.535,2.723,1.771,1.771,0,0,0,1.621.879,1.747,1.747,0,0,0,1.59-.828,5.186,5.186,0,0,0,.543-2.609Zm6.563,1.539L25,11.156V15H23.5V3.625H25V9.25l5.055-5.625h1.813L27.391,8.648,32.219,15h-1.8Zm11.578,4.023a2.4,2.4,0,0,0,1.68-1.321,6.349,6.349,0,0,0,.625-2.94V8.425a4.389,4.389,0,0,0-.758-2.768A2.5,2.5,0,0,0,37.438,4.7a2.465,2.465,0,0,0-2.07.977,4.464,4.464,0,0,0-.75,2.768v.884a6.479,6.479,0,0,0,.613,3.034,2.464,2.464,0,0,0,1.746,1.376V15H33.133V13.773h1.727a5.5,5.5,0,0,1-1.3-2,6.715,6.715,0,0,1-.469-2.465V8.445a5.891,5.891,0,0,1,.551-2.594A4.2,4.2,0,0,1,41.219,5.8,5.769,5.769,0,0,1,41.8,8.313V9.328a6.675,6.675,0,0,1-.469,2.449,5.5,5.5,0,0,1-1.3,2H41.75V15H37.969Z" transform="translate(-2647 -5533)" fill="#12263f"/>
    <path id="Trazado_899239" data-name="Trazado 899239" d="M5.492-4.6H2.82V0H1.313V-11.375H5.078a4.457,4.457,0,0,1,2.957.875A3.148,3.148,0,0,1,9.07-7.953,3.062,3.062,0,0,1,8.5-6.1a3.428,3.428,0,0,1-1.6,1.18L9.57-.094V0H7.961ZM2.82-5.828h2.3A2.6,2.6,0,0,0,6.9-6.407a1.959,1.959,0,0,0,.66-1.55,2.062,2.062,0,0,0-.629-1.62,2.663,2.663,0,0,0-1.816-.571H2.82ZM15.867-2.242a1.064,1.064,0,0,0-.441-.91,4.249,4.249,0,0,0-1.539-.559,7.277,7.277,0,0,1-1.742-.562,2.479,2.479,0,0,1-.953-.781,1.869,1.869,0,0,1-.309-1.078,2.193,2.193,0,0,1,.879-1.758,3.432,3.432,0,0,1,2.246-.719,3.532,3.532,0,0,1,2.332.742,2.357,2.357,0,0,1,.895,1.9H15.781a1.3,1.3,0,0,0-.5-1.023,1.888,1.888,0,0,0-1.27-.43,1.976,1.976,0,0,0-1.234.344,1.082,1.082,0,0,0-.445.9.877.877,0,0,0,.414.789,5.1,5.1,0,0,0,1.5.508,7.8,7.8,0,0,1,1.754.578,2.558,2.558,0,0,1,1,.809,1.988,1.988,0,0,1,.324,1.152,2.163,2.163,0,0,1-.906,1.816,3.8,3.8,0,0,1-2.352.684,4.257,4.257,0,0,1-1.8-.359,2.922,2.922,0,0,1-1.223-1A2.42,2.42,0,0,1,10.594-2.6h1.445a1.5,1.5,0,0,0,.582,1.152,2.258,2.258,0,0,0,1.434.426,2.331,2.331,0,0,0,1.316-.332A1.02,1.02,0,0,0,15.867-2.242ZM3.047,8.609H4.133A2.387,2.387,0,0,0,5.742,8.07a1.8,1.8,0,0,0,.586-1.414,1.764,1.764,0,0,0-1.992-2,2.072,2.072,0,0,0-1.5.535,1.873,1.873,0,0,0-.559,1.418H.836a2.9,2.9,0,0,1,.988-2.246,3.6,3.6,0,0,1,2.512-.895,3.558,3.558,0,0,1,2.523.852,3.076,3.076,0,0,1,.914,2.367,2.5,2.5,0,0,1-.48,1.438A2.9,2.9,0,0,1,5.984,9.164a2.8,2.8,0,0,1,1.449.984,2.734,2.734,0,0,1,.512,1.68,3.1,3.1,0,0,1-1,2.43,3.745,3.745,0,0,1-2.6.9,3.844,3.844,0,0,1-2.605-.867A2.877,2.877,0,0,1,.734,12H2.188a1.859,1.859,0,0,0,.586,1.438,2.229,2.229,0,0,0,1.57.539,2.187,2.187,0,0,0,1.6-.547,2.108,2.108,0,0,0,.555-1.57,1.912,1.912,0,0,0-.609-1.523,2.655,2.655,0,0,0-1.758-.547H3.047Zm7.063,5.633a.905.905,0,0,1,.223-.625.848.848,0,0,1,.668-.25.874.874,0,0,1,.676.25.887.887,0,0,1,.23.625.839.839,0,0,1-.23.6.89.89,0,0,1-.676.242.8.8,0,0,1-.891-.844Zm11.164-4.094a6.61,6.61,0,0,1-.867,3.773A3.084,3.084,0,0,1,17.7,15.156,3.107,3.107,0,0,1,15,13.949a6.274,6.274,0,0,1-.906-3.605V8.414a6.463,6.463,0,0,1,.867-3.727A3.108,3.108,0,0,1,17.68,3.469a3.136,3.136,0,0,1,2.7,1.176,6.237,6.237,0,0,1,.891,3.629ZM19.828,8.172A5.3,5.3,0,0,0,19.313,5.5a1.775,1.775,0,0,0-1.633-.84,1.751,1.751,0,0,0-1.617.836,5.171,5.171,0,0,0-.523,2.57v2.313a5.381,5.381,0,0,0,.535,2.723,1.771,1.771,0,0,0,1.621.879,1.747,1.747,0,0,0,1.59-.828,5.186,5.186,0,0,0,.543-2.609Zm6.563,1.539L25,11.156V15H23.5V3.625H25V9.25l5.055-5.625h1.813L27.391,8.648,32.219,15h-1.8Zm11.578,4.023a2.4,2.4,0,0,0,1.68-1.321,6.349,6.349,0,0,0,.625-2.94V8.425a4.389,4.389,0,0,0-.758-2.768A2.5,2.5,0,0,0,37.438,4.7a2.465,2.465,0,0,0-2.07.977,4.464,4.464,0,0,0-.75,2.768v.884a6.479,6.479,0,0,0,.613,3.034,2.464,2.464,0,0,0,1.746,1.376V15H33.133V13.773h1.727a5.5,5.5,0,0,1-1.3-2,6.715,6.715,0,0,1-.469-2.465V8.445a5.891,5.891,0,0,1,.551-2.594A4.2,4.2,0,0,1,41.219,5.8,5.769,5.769,0,0,1,41.8,8.313V9.328a6.675,6.675,0,0,1-.469,2.449,5.5,5.5,0,0,1-1.3,2H41.75V15H37.969Z" transform="translate(-2752 -5533)" fill="#12263f"/>
    <path id="Trazado_899240" data-name="Trazado 899240" d="M5.492-4.6H2.82V0H1.313V-11.375H5.078a4.457,4.457,0,0,1,2.957.875A3.148,3.148,0,0,1,9.07-7.953,3.062,3.062,0,0,1,8.5-6.1a3.428,3.428,0,0,1-1.6,1.18L9.57-.094V0H7.961ZM2.82-5.828h2.3A2.6,2.6,0,0,0,6.9-6.407a1.959,1.959,0,0,0,.66-1.55,2.062,2.062,0,0,0-.629-1.62,2.663,2.663,0,0,0-1.816-.571H2.82ZM12.9-6.391h1.086a2.387,2.387,0,0,0,1.609-.539,1.8,1.8,0,0,0,.586-1.414,1.764,1.764,0,0,0-1.992-2,2.072,2.072,0,0,0-1.5.535,1.873,1.873,0,0,0-.559,1.418H10.688a2.9,2.9,0,0,1,.988-2.246,3.6,3.6,0,0,1,2.512-.895,3.558,3.558,0,0,1,2.523.852,3.076,3.076,0,0,1,.914,2.367,2.5,2.5,0,0,1-.48,1.438,2.9,2.9,0,0,1-1.309,1.039,2.8,2.8,0,0,1,1.449.984,2.734,2.734,0,0,1,.512,1.68,3.1,3.1,0,0,1-1,2.43,3.745,3.745,0,0,1-2.6.9A3.844,3.844,0,0,1,11.59-.711a2.877,2.877,0,0,1-1-2.289h1.453a1.859,1.859,0,0,0,.586,1.438,2.229,2.229,0,0,0,1.57.539,2.187,2.187,0,0,0,1.6-.547,2.108,2.108,0,0,0,.555-1.57,1.912,1.912,0,0,0-.609-1.523,2.655,2.655,0,0,0-1.758-.547H12.9Zm-9.852,15H4.133A2.387,2.387,0,0,0,5.742,8.07a1.8,1.8,0,0,0,.586-1.414,1.764,1.764,0,0,0-1.992-2,2.072,2.072,0,0,0-1.5.535,1.873,1.873,0,0,0-.559,1.418H.836a2.9,2.9,0,0,1,.988-2.246,3.6,3.6,0,0,1,2.512-.895,3.558,3.558,0,0,1,2.523.852,3.076,3.076,0,0,1,.914,2.367,2.5,2.5,0,0,1-.48,1.438A2.9,2.9,0,0,1,5.984,9.164a2.8,2.8,0,0,1,1.449.984,2.734,2.734,0,0,1,.512,1.68,3.1,3.1,0,0,1-1,2.43,3.745,3.745,0,0,1-2.6.9,3.844,3.844,0,0,1-2.605-.867A2.877,2.877,0,0,1,.734,12H2.188a1.859,1.859,0,0,0,.586,1.438,2.229,2.229,0,0,0,1.57.539,2.187,2.187,0,0,0,1.6-.547,2.108,2.108,0,0,0,.555-1.57,1.912,1.912,0,0,0-.609-1.523,2.655,2.655,0,0,0-1.758-.547H3.047Zm7.063,5.633a.905.905,0,0,1,.223-.625.848.848,0,0,1,.668-.25.874.874,0,0,1,.676.25.887.887,0,0,1,.23.625.839.839,0,0,1-.23.6.89.89,0,0,1-.676.242.8.8,0,0,1-.891-.844Zm11.164-4.094a6.61,6.61,0,0,1-.867,3.773A3.084,3.084,0,0,1,17.7,15.156,3.107,3.107,0,0,1,15,13.949a6.274,6.274,0,0,1-.906-3.605V8.414a6.463,6.463,0,0,1,.867-3.727A3.108,3.108,0,0,1,17.68,3.469a3.136,3.136,0,0,1,2.7,1.176,6.237,6.237,0,0,1,.891,3.629ZM19.828,8.172A5.3,5.3,0,0,0,19.313,5.5a1.775,1.775,0,0,0-1.633-.84,1.751,1.751,0,0,0-1.617.836,5.171,5.171,0,0,0-.523,2.57v2.313a5.381,5.381,0,0,0,.535,2.723,1.771,1.771,0,0,0,1.621.879,1.747,1.747,0,0,0,1.59-.828,5.186,5.186,0,0,0,.543-2.609Zm6.563,1.539L25,11.156V15H23.5V3.625H25V9.25l5.055-5.625h1.813L27.391,8.648,32.219,15h-1.8Zm11.578,4.023a2.4,2.4,0,0,0,1.68-1.321,6.349,6.349,0,0,0,.625-2.94V8.425a4.389,4.389,0,0,0-.758-2.768A2.5,2.5,0,0,0,37.438,4.7a2.465,2.465,0,0,0-2.07.977,4.464,4.464,0,0,0-.75,2.768v.884a6.479,6.479,0,0,0,.613,3.034,2.464,2.464,0,0,0,1.746,1.376V15H33.133V13.773h1.727a5.5,5.5,0,0,1-1.3-2,6.715,6.715,0,0,1-.469-2.465V8.445a5.891,5.891,0,0,1,.551-2.594A4.2,4.2,0,0,1,41.219,5.8,5.769,5.769,0,0,1,41.8,8.313V9.328a6.675,6.675,0,0,1-.469,2.449,5.5,5.5,0,0,1-1.3,2H41.75V15H37.969Z" transform="translate(-2542 -5533)" fill="#12263f"/>
    <g id="Grupo_1108600" data-name="Grupo 1108600" transform="translate(-2974.45 -10038.923)">
      <path id="Trazado_899010" data-name="Trazado 899010" d="M-7827.068-9340.49h26.643" transform="translate(8408.623 13842.346)" fill="none" stroke="#ff2c29" stroke-width="3"/>
      <path id="Trazado_899011" data-name="Trazado 899011" d="M-7827.068-9340.49h39.772" transform="translate(8401.623 13835.094)" fill="none" stroke="#ff2c29" stroke-width="3"/>
      <path id="Trazado_899012" data-name="Trazado 899012" d="M-7827.067-9340.49h47.8" transform="translate(8398.117 13849.598)" fill="none" stroke="#ff2c29" stroke-width="2"/>
      <path id="Trazado_899013" data-name="Trazado 899013" d="M-7827.068-9340.49h26.643" transform="translate(8408.623 13856.85)" fill="none" stroke="#ff2c29" stroke-width="3"/>
    </g>
  </g>
</svg>
