<svg xmlns="http://www.w3.org/2000/svg" width="707.906" height="205" viewBox="0 0 707.906 205">
  <g id="Grupo_1108808" data-name="Grupo 1108808" transform="translate(-430.363 -6268)">
    <path id="Trazado_899022" data-name="Trazado 899022" d="M-4102.469-7141.682v-65.047h519.857v74.109" transform="translate(4634.469 13480.729)" fill="none" stroke="#000" stroke-width="3"/>
    <path id="Trazado_899023" data-name="Trazado 899023" d="M-4102.469-7196.756v64.136h519.857v-74.109" transform="translate(4634.469 13599.838)" fill="none" stroke="#000" stroke-width="3"/>
    <path id="Trazado_899024" data-name="Trazado 899024" d="M-3967.051-7206.729v78.641" transform="translate(4704 13480.729)" fill="none" stroke="#000" stroke-width="3"/>
    <path id="Trazado_899025" data-name="Trazado 899025" d="M-3967.051-7206.729v78.641" transform="translate(4704 13595.307)" fill="none" stroke="#000" stroke-width="3"/>
    <path id="Trazado_899026" data-name="Trazado 899026" d="M-3967.051-7206.729v78.641" transform="translate(4809 13480.729)" fill="none" stroke="#000" stroke-width="3"/>
    <path id="Trazado_899027" data-name="Trazado 899027" d="M-3967.051-7206.729v78.641" transform="translate(4809 13595.307)" fill="none" stroke="#000" stroke-width="3"/>
    <path id="Trazado_899028" data-name="Trazado 899028" d="M-3967.051-7206.729v78.641" transform="translate(4914 13480.729)" fill="none" stroke="#000" stroke-width="3"/>
    <path id="Trazado_899029" data-name="Trazado 899029" d="M-3967.051-7206.729v78.641" transform="translate(4914 13595.307)" fill="none" stroke="#000" stroke-width="3"/>
    <path id="Trazado_899030" data-name="Trazado 899030" d="M-4249.752-9209.859h14.453l6.706-16.7,4.688,26.589,6.9-23.133,4.063,23.133,8.794-23.133,6.224,13.239h10.516" transform="translate(-8473.311 10589.141) rotate(90)" fill="none" stroke="red" stroke-width="3"/>
    <path id="Trazado_899032" data-name="Trazado 899032" d="M-4249.752-9209.859h14.453l6.706-16.7,4.688,26.589,6.9-23.133,4.063,23.133,8.794-23.133,6.224,13.239h10.516" transform="translate(-8262.605 10589.141) rotate(90)" fill="none" stroke="red" stroke-width="3"/>
    <path id="Trazado_899033" data-name="Trazado 899033" d="M-4249.752-9209.859h14.453l6.706-16.7,4.688,26.589,6.9-23.133,4.063,23.133,8.794-23.133,6.224,13.239h10.516" transform="translate(-8158.605 10589.141) rotate(90)" fill="none" stroke="red" stroke-width="3"/>
    <path id="Trazado_899287" data-name="Trazado 899287" d="M2.789-3.216A4.663,4.663,0,0,1,3-4.683a3.761,3.761,0,0,1,.8-1.193L4.82-6.929a2.36,2.36,0,0,0,.656-1.59A1.815,1.815,0,0,0,5.047-9.8a1.62,1.62,0,0,0-1.25-.464,1.881,1.881,0,0,0-1.281.422,1.426,1.426,0,0,0-.484,1.133H.586a2.632,2.632,0,0,1,.9-2.043A3.374,3.374,0,0,1,3.8-11.531a3.185,3.185,0,0,1,2.3.792,2.87,2.87,0,0,1,.824,2.172A3.926,3.926,0,0,1,5.656-5.876L4.8-5.034a2.623,2.623,0,0,0-.57,1.818ZM2.727-.734a.861.861,0,0,1,.215-.6.81.81,0,0,1,.637-.241.822.822,0,0,1,.641.241.852.852,0,0,1,.219.6.824.824,0,0,1-.219.588.837.837,0,0,1-.641.233.824.824,0,0,1-.637-.233A.832.832,0,0,1,2.727-.734Z" transform="translate(870.051 6376)" fill="#12263f"/>
    <path id="Trazado_899288" data-name="Trazado 899288" d="M5.492-4.6H2.82V0H1.313V-11.375H5.078a4.457,4.457,0,0,1,2.957.875A3.148,3.148,0,0,1,9.07-7.953,3.062,3.062,0,0,1,8.5-6.1a3.428,3.428,0,0,1-1.6,1.18L9.57-.094V0H7.961ZM2.82-5.828h2.3A2.6,2.6,0,0,0,6.9-6.407a1.959,1.959,0,0,0,.66-1.55,2.062,2.062,0,0,0-.629-1.62,2.663,2.663,0,0,0-1.816-.571H2.82ZM18.25,0H10.8V-1.039l3.938-4.375a9.354,9.354,0,0,0,1.207-1.613,2.693,2.693,0,0,0,.332-1.285,2.041,2.041,0,0,0-.539-1.461,1.885,1.885,0,0,0-1.437-.57,2.232,2.232,0,0,0-1.676.613,2.343,2.343,0,0,0-.6,1.707H10.578a3.355,3.355,0,0,1,1.012-2.539,3.751,3.751,0,0,1,2.707-.969A3.6,3.6,0,0,1,16.8-10.7a2.838,2.838,0,0,1,.922,2.215q0,1.68-2.141,4l-3.047,3.3H18.25Zm8.289-6.359H20.023V-7.617h6.516Zm0,3.242H20.023v-1.25h6.516ZM36.016,0H28.563V-1.039L32.5-5.414a9.355,9.355,0,0,0,1.207-1.613,2.693,2.693,0,0,0,.332-1.285A2.041,2.041,0,0,0,33.5-9.773a1.885,1.885,0,0,0-1.437-.57,2.232,2.232,0,0,0-1.676.613,2.343,2.343,0,0,0-.6,1.707H28.344a3.355,3.355,0,0,1,1.012-2.539,3.751,3.751,0,0,1,2.707-.969,3.6,3.6,0,0,1,2.508.832,2.838,2.838,0,0,1,.922,2.215q0,1.68-2.141,4L30.3-1.18h5.711Zm4.8-5.289L39.422-3.844V0h-1.5V-11.375h1.5V-5.75l5.055-5.625h1.813L41.813-6.352,46.641,0h-1.8ZM52.391-1.266a2.4,2.4,0,0,0,1.68-1.321,6.349,6.349,0,0,0,.625-2.94V-6.575a4.389,4.389,0,0,0-.758-2.768,2.5,2.5,0,0,0-2.078-.962,2.465,2.465,0,0,0-2.07.977,4.464,4.464,0,0,0-.75,2.768v.884a6.479,6.479,0,0,0,.613,3.034A2.464,2.464,0,0,0,51.4-1.266V0H47.555V-1.227h1.727a5.5,5.5,0,0,1-1.3-2,6.715,6.715,0,0,1-.469-2.465v-.867a5.891,5.891,0,0,1,.551-2.594,4.149,4.149,0,0,1,1.543-1.762,4.152,4.152,0,0,1,2.25-.621,4.178,4.178,0,0,1,2.238.609A4.143,4.143,0,0,1,55.641-9.2a5.769,5.769,0,0,1,.578,2.516v1.016a6.675,6.675,0,0,1-.469,2.449,5.5,5.5,0,0,1-1.3,2h1.719V0H52.391Z" transform="translate(973.051 6376)" fill="#12263f"/>
    <path id="Trazado_899289" data-name="Trazado 899289" d="M5.492-4.6H2.82V0H1.313V-11.375H5.078a4.457,4.457,0,0,1,2.957.875A3.148,3.148,0,0,1,9.07-7.953,3.062,3.062,0,0,1,8.5-6.1a3.428,3.428,0,0,1-1.6,1.18L9.57-.094V0H7.961ZM2.82-5.828h2.3A2.6,2.6,0,0,0,6.9-6.407a1.959,1.959,0,0,0,.66-1.55,2.062,2.062,0,0,0-.629-1.62,2.663,2.663,0,0,0-1.816-.571H2.82ZM15.547,0H14.094V-9.633L11.18-8.562V-9.875L15.32-11.43h.227ZM26.539-6.359H20.023V-7.617h6.516Zm0,3.242H20.023v-1.25h6.516ZM36.016,0H28.563V-1.039L32.5-5.414a9.355,9.355,0,0,0,1.207-1.613,2.693,2.693,0,0,0,.332-1.285A2.041,2.041,0,0,0,33.5-9.773a1.885,1.885,0,0,0-1.437-.57,2.232,2.232,0,0,0-1.676.613,2.343,2.343,0,0,0-.6,1.707H28.344a3.355,3.355,0,0,1,1.012-2.539,3.751,3.751,0,0,1,2.707-.969,3.6,3.6,0,0,1,2.508.832,2.838,2.838,0,0,1,.922,2.215q0,1.68-2.141,4L30.3-1.18h5.711Zm4.8-5.289L39.422-3.844V0h-1.5V-11.375h1.5V-5.75l5.055-5.625h1.813L41.813-6.352,46.641,0h-1.8ZM52.391-1.266a2.4,2.4,0,0,0,1.68-1.321,6.349,6.349,0,0,0,.625-2.94V-6.575a4.389,4.389,0,0,0-.758-2.768,2.5,2.5,0,0,0-2.078-.962,2.465,2.465,0,0,0-2.07.977,4.464,4.464,0,0,0-.75,2.768v.884a6.479,6.479,0,0,0,.613,3.034A2.464,2.464,0,0,0,51.4-1.266V0H47.555V-1.227h1.727a5.5,5.5,0,0,1-1.3-2,6.715,6.715,0,0,1-.469-2.465v-.867a5.891,5.891,0,0,1,.551-2.594,4.149,4.149,0,0,1,1.543-1.762,4.152,4.152,0,0,1,2.25-.621,4.178,4.178,0,0,1,2.238.609A4.143,4.143,0,0,1,55.641-9.2a5.769,5.769,0,0,1,.578,2.516v1.016a6.675,6.675,0,0,1-.469,2.449,5.5,5.5,0,0,1-1.3,2h1.719V0H52.391Z" transform="translate(1082.051 6376)" fill="#12263f"/>
    <path id="Trazado_899290" data-name="Trazado 899290" d="M5.5,0A5.5,5.5,0,1,1,0,5.5,5.5,5.5,0,0,1,5.5,0Z" transform="translate(631.051 6268)"/>
    <path id="Trazado_899038" data-name="Trazado 899038" d="M-4249.752-9209.859h14.453l6.706-16.7,4.688,26.589,6.9-23.133,4.063,23.133,8.794-23.133,6.224,13.239h10.516" transform="translate(-8677.605 10589.141) rotate(90)" fill="none" stroke="red" stroke-width="3"/>
    <path id="Trazado_899039" data-name="Trazado 899039" d="M-3967.051-7206.729v78.641" transform="translate(4604.051 13480.729)" fill="none" stroke="#000" stroke-width="3"/>
    <path id="Trazado_899040" data-name="Trazado 899040" d="M-3967.051-7206.729v78.641" transform="translate(4604.051 13595.307)" fill="none" stroke="#000" stroke-width="3"/>
    <path id="Trazado_899291" data-name="Trazado 899291" d="M5.5,0A5.5,5.5,0,1,1,0,5.5,5.5,5.5,0,0,1,5.5,0Z" transform="translate(631.051 6462)"/>
    <path id="Trazado_899292" data-name="Trazado 899292" d="M5.5,0A5.5,5.5,0,1,1,0,5.5,5.5,5.5,0,0,1,5.5,0Z" transform="translate(731.051 6268)"/>
    <path id="Trazado_899293" data-name="Trazado 899293" d="M5.5,0A5.5,5.5,0,1,1,0,5.5,5.5,5.5,0,0,1,5.5,0Z" transform="translate(731.051 6462)"/>
    <path id="Trazado_899294" data-name="Trazado 899294" d="M5.5,0A5.5,5.5,0,1,1,0,5.5,5.5,5.5,0,0,1,5.5,0Z" transform="translate(836.051 6268)"/>
    <path id="Trazado_899295" data-name="Trazado 899295" d="M5.5,0A5.5,5.5,0,1,1,0,5.5,5.5,5.5,0,0,1,5.5,0Z" transform="translate(836.051 6462)"/>
    <path id="Trazado_899296" data-name="Trazado 899296" d="M5.5,0A5.5,5.5,0,1,1,0,5.5,5.5,5.5,0,0,1,5.5,0Z" transform="translate(941.051 6268)"/>
    <path id="Trazado_899297" data-name="Trazado 899297" d="M5.5,0A5.5,5.5,0,1,1,0,5.5,5.5,5.5,0,0,1,5.5,0Z" transform="translate(941.051 6462)"/>
    <path id="Trazado_899041" data-name="Trazado 899041" d="M-4249.752-9209.859h14.453l6.706-16.7,4.688,26.589,6.9-23.133,4.063,23.133,8.794-23.133,6.224,13.239h10.516" transform="translate(-8573.26 10589.141) rotate(90)" fill="none" stroke="red" stroke-width="3"/>
    <path id="Trazado_899298" data-name="Trazado 899298" d="M5.492-4.6H2.82V0H1.313V-11.375H5.078a4.457,4.457,0,0,1,2.957.875A3.148,3.148,0,0,1,9.07-7.953,3.062,3.062,0,0,1,8.5-6.1a3.428,3.428,0,0,1-1.6,1.18L9.57-.094V0H7.961ZM2.82-5.828h2.3A2.6,2.6,0,0,0,6.9-6.407a1.959,1.959,0,0,0,.66-1.55,2.062,2.062,0,0,0-.629-1.62,2.663,2.663,0,0,0-1.816-.571H2.82Zm8.641.125.578-5.672h5.828v1.336h-4.6l-.344,3.1a3.671,3.671,0,0,1,1.9-.492A3.138,3.138,0,0,1,17.289-6.4,4.026,4.026,0,0,1,18.2-3.625a3.886,3.886,0,0,1-.949,2.77A3.46,3.46,0,0,1,14.6.156,3.6,3.6,0,0,1,12.141-.68a3.337,3.337,0,0,1-1.086-2.312h1.367a2.3,2.3,0,0,0,.7,1.473,2.162,2.162,0,0,0,1.484.5,1.95,1.95,0,0,0,1.582-.687,2.874,2.874,0,0,0,.574-1.9,2.638,2.638,0,0,0-.621-1.832,2.113,2.113,0,0,0-1.652-.691A2.383,2.383,0,0,0,13-5.719l-.383.313ZM30.5-6.359H23.984V-7.617H30.5Zm0,3.242H23.984v-1.25H30.5ZM43.938,0H36.484V-1.039l3.938-4.375a9.355,9.355,0,0,0,1.207-1.613,2.693,2.693,0,0,0,.332-1.285,2.041,2.041,0,0,0-.539-1.461,1.885,1.885,0,0,0-1.437-.57,2.232,2.232,0,0,0-1.676.613,2.343,2.343,0,0,0-.6,1.707H36.266a3.355,3.355,0,0,1,1.012-2.539,3.751,3.751,0,0,1,2.707-.969,3.6,3.6,0,0,1,2.508.832,2.838,2.838,0,0,1,.922,2.215q0,1.68-2.141,4l-3.047,3.3h5.711Zm4.8-5.289L47.344-3.844V0h-1.5V-11.375h1.5V-5.75L52.4-11.375h1.813L49.734-6.352,54.563,0h-1.8ZM60.313-1.266a2.4,2.4,0,0,0,1.68-1.321,6.349,6.349,0,0,0,.625-2.94V-6.575a4.389,4.389,0,0,0-.758-2.768,2.5,2.5,0,0,0-2.078-.962,2.465,2.465,0,0,0-2.07.977,4.464,4.464,0,0,0-.75,2.768v.884a6.479,6.479,0,0,0,.613,3.034A2.464,2.464,0,0,0,59.32-1.266V0H55.477V-1.227H57.2a5.5,5.5,0,0,1-1.3-2,6.715,6.715,0,0,1-.469-2.465v-.867a5.891,5.891,0,0,1,.551-2.594,4.149,4.149,0,0,1,1.543-1.762,4.152,4.152,0,0,1,2.25-.621,4.178,4.178,0,0,1,2.238.609A4.143,4.143,0,0,1,63.563-9.2a5.769,5.769,0,0,1,.578,2.516v1.016a6.675,6.675,0,0,1-.469,2.449,5.5,5.5,0,0,1-1.3,2h1.719V0H60.313Z" transform="translate(553.051 6379)" fill="#12263f"/>
    <path id="Trazado_899299" data-name="Trazado 899299" d="M5.492-4.6H2.82V0H1.313V-11.375H5.078a4.457,4.457,0,0,1,2.957.875A3.148,3.148,0,0,1,9.07-7.953,3.062,3.062,0,0,1,8.5-6.1a3.428,3.428,0,0,1-1.6,1.18L9.57-.094V0H7.961ZM2.82-5.828h2.3A2.6,2.6,0,0,0,6.9-6.407a1.959,1.959,0,0,0,.66-1.55,2.062,2.062,0,0,0-.629-1.62,2.663,2.663,0,0,0-1.816-.571H2.82ZM15.867-2.242a1.064,1.064,0,0,0-.441-.91,4.249,4.249,0,0,0-1.539-.559,7.277,7.277,0,0,1-1.742-.562,2.479,2.479,0,0,1-.953-.781,1.869,1.869,0,0,1-.309-1.078,2.193,2.193,0,0,1,.879-1.758,3.432,3.432,0,0,1,2.246-.719,3.532,3.532,0,0,1,2.332.742,2.357,2.357,0,0,1,.895,1.9H15.781a1.3,1.3,0,0,0-.5-1.023,1.888,1.888,0,0,0-1.27-.43,1.976,1.976,0,0,0-1.234.344,1.082,1.082,0,0,0-.445.9.877.877,0,0,0,.414.789,5.1,5.1,0,0,0,1.5.508,7.8,7.8,0,0,1,1.754.578,2.558,2.558,0,0,1,1,.809,1.988,1.988,0,0,1,.324,1.152,2.163,2.163,0,0,1-.906,1.816,3.8,3.8,0,0,1-2.352.684,4.257,4.257,0,0,1-1.8-.359,2.922,2.922,0,0,1-1.223-1A2.42,2.42,0,0,1,10.594-2.6h1.445a1.5,1.5,0,0,0,.582,1.152,2.258,2.258,0,0,0,1.434.426,2.331,2.331,0,0,0,1.316-.332A1.02,1.02,0,0,0,15.867-2.242ZM25.8-6.359H19.289V-7.617H25.8Zm0,3.242H19.289v-1.25H25.8Zm9.156-1.734a6.61,6.61,0,0,1-.867,3.773A3.084,3.084,0,0,1,31.383.156a3.107,3.107,0,0,1-2.7-1.207,6.274,6.274,0,0,1-.906-3.605v-1.93a6.463,6.463,0,0,1,.867-3.727,3.108,3.108,0,0,1,2.719-1.219,3.136,3.136,0,0,1,2.7,1.176,6.237,6.237,0,0,1,.891,3.629ZM33.516-6.828A5.3,5.3,0,0,0,33-9.5a1.775,1.775,0,0,0-1.633-.84,1.751,1.751,0,0,0-1.617.836,5.171,5.171,0,0,0-.523,2.57v2.313A5.381,5.381,0,0,0,29.762-1.9a1.771,1.771,0,0,0,1.621.879,1.747,1.747,0,0,0,1.59-.828,5.186,5.186,0,0,0,.543-2.609Zm3.477,6.07a.905.905,0,0,1,.223-.625.848.848,0,0,1,.668-.25.874.874,0,0,1,.676.25.887.887,0,0,1,.23.625.839.839,0,0,1-.23.6.89.89,0,0,1-.676.242.863.863,0,0,1-.668-.242A.855.855,0,0,1,36.992-.758Zm9.7-10.625v1.227H46.43a3.805,3.805,0,0,0-2.687,1A4.161,4.161,0,0,0,42.586-6.43a3.085,3.085,0,0,1,2.453-1.031A2.95,2.95,0,0,1,47.41-6.414a4.038,4.038,0,0,1,.887,2.7A4.025,4.025,0,0,1,47.34-.9,3.3,3.3,0,0,1,44.773.156,3.247,3.247,0,0,1,42.125-1.1a4.97,4.97,0,0,1-1.016-3.23v-.555a7.488,7.488,0,0,1,1.34-4.8,4.921,4.921,0,0,1,3.988-1.7ZM44.8-6.258a2.306,2.306,0,0,0-1.367.445A2.32,2.32,0,0,0,42.563-4.7v.531A3.731,3.731,0,0,0,43.2-1.9a1.9,1.9,0,0,0,1.578.859,1.838,1.838,0,0,0,1.535-.719,2.982,2.982,0,0,0,.559-1.883A2.983,2.983,0,0,0,46.3-5.535,1.816,1.816,0,0,0,44.8-6.258Zm12.555-4.3L52.641,0H51.125l4.7-10.187H49.664v-1.187h7.688Zm4.906,5.273L60.867-3.844V0h-1.5V-11.375h1.5V-5.75l5.055-5.625h1.813L63.258-6.352,68.086,0h-1.8ZM73.836-1.266a2.4,2.4,0,0,0,1.68-1.321,6.349,6.349,0,0,0,.625-2.94V-6.575a4.389,4.389,0,0,0-.758-2.768A2.5,2.5,0,0,0,73.3-10.3a2.465,2.465,0,0,0-2.07.977,4.464,4.464,0,0,0-.75,2.768v.884A6.479,6.479,0,0,0,71.1-2.642a2.464,2.464,0,0,0,1.746,1.376V0H69V-1.227h1.727a5.5,5.5,0,0,1-1.3-2,6.715,6.715,0,0,1-.469-2.465v-.867a5.891,5.891,0,0,1,.551-2.594,4.149,4.149,0,0,1,1.543-1.762,4.152,4.152,0,0,1,2.25-.621,4.178,4.178,0,0,1,2.238.609A4.143,4.143,0,0,1,77.086-9.2a5.769,5.769,0,0,1,.578,2.516v1.016A6.675,6.675,0,0,1,77.2-3.223a5.5,5.5,0,0,1-1.3,2h1.719V0H73.836Z" transform="translate(429.051 6379)" fill="#12263f"/>
    <path id="Trazado_899300" data-name="Trazado 899300" d="M5.492-4.6H2.82V0H1.313V-11.375H5.078a4.457,4.457,0,0,1,2.957.875A3.148,3.148,0,0,1,9.07-7.953,3.062,3.062,0,0,1,8.5-6.1a3.428,3.428,0,0,1-1.6,1.18L9.57-.094V0H7.961ZM2.82-5.828h2.3A2.6,2.6,0,0,0,6.9-6.407a1.959,1.959,0,0,0,.66-1.55,2.062,2.062,0,0,0-.629-1.62,2.663,2.663,0,0,0-1.816-.571H2.82ZM16.9-3.82h1.578v1.18H16.9V0H15.445V-2.641h-5.18v-.852l5.094-7.883H16.9Zm-4.992,0h3.539V-9.4l-.172.313ZM30.5-6.359H23.984V-7.617H30.5Zm0,3.242H23.984v-1.25H30.5Zm12.086-.7h1.578v1.18H42.586V0H41.133V-2.641h-5.18v-.852l5.094-7.883h1.539Zm-4.992,0h3.539V-9.4l-.172.313ZM48.734-5.289,47.344-3.844V0h-1.5V-11.375h1.5V-5.75L52.4-11.375h1.813L49.734-6.352,54.563,0h-1.8ZM60.313-1.266a2.4,2.4,0,0,0,1.68-1.321,6.349,6.349,0,0,0,.625-2.94V-6.575a4.389,4.389,0,0,0-.758-2.768,2.5,2.5,0,0,0-2.078-.962,2.465,2.465,0,0,0-2.07.977,4.464,4.464,0,0,0-.75,2.768v.884a6.479,6.479,0,0,0,.613,3.034A2.464,2.464,0,0,0,59.32-1.266V0H55.477V-1.227H57.2a5.5,5.5,0,0,1-1.3-2,6.715,6.715,0,0,1-.469-2.465v-.867a5.891,5.891,0,0,1,.551-2.594,4.149,4.149,0,0,1,1.543-1.762,4.152,4.152,0,0,1,2.25-.621,4.178,4.178,0,0,1,2.238.609A4.143,4.143,0,0,1,63.563-9.2a5.769,5.769,0,0,1,.578,2.516v1.016a6.675,6.675,0,0,1-.469,2.449,5.5,5.5,0,0,1-1.3,2h1.719V0H60.313Z" transform="translate(654.051 6379)" fill="#12263f"/>
    <g id="Grupo_1108600" data-name="Grupo 1108600" transform="translate(246.601 1864.077)">
      <path id="Trazado_899010" data-name="Trazado 899010" d="M-7827.068-9340.49h26.643" transform="translate(8408.623 13842.346)" fill="none" stroke="#ff2c29" stroke-width="3"/>
      <path id="Trazado_899011" data-name="Trazado 899011" d="M-7827.068-9340.49h39.772" transform="translate(8401.623 13835.094)" fill="none" stroke="#ff2c29" stroke-width="3"/>
      <path id="Trazado_899012" data-name="Trazado 899012" d="M-7827.067-9340.49h47.8" transform="translate(8398.117 13849.598)" fill="none" stroke="#ff2c29" stroke-width="2"/>
      <path id="Trazado_899013" data-name="Trazado 899013" d="M-7827.068-9340.49h26.643" transform="translate(8408.623 13856.85)" fill="none" stroke="#ff2c29" stroke-width="3"/>
    </g>
    <path id="Trazado_899301" data-name="Trazado 899301" d="M5.492-4.6H2.82V0H1.313V-11.375H5.078a4.457,4.457,0,0,1,2.957.875A3.148,3.148,0,0,1,9.07-7.953,3.062,3.062,0,0,1,8.5-6.1a3.428,3.428,0,0,1-1.6,1.18L9.57-.094V0H7.961ZM2.82-5.828h2.3A2.6,2.6,0,0,0,6.9-6.407a1.959,1.959,0,0,0,.66-1.55,2.062,2.062,0,0,0-.629-1.62,2.663,2.663,0,0,0-1.816-.571H2.82ZM16.9-3.82h1.578v1.18H16.9V0H15.445V-2.641h-5.18v-.852l5.094-7.883H16.9Zm-4.992,0h3.539V-9.4l-.172.313ZM30.5-6.359H23.984V-7.617H30.5Zm0,3.242H23.984v-1.25H30.5ZM43.938,0H36.484V-1.039l3.938-4.375a9.355,9.355,0,0,0,1.207-1.613,2.693,2.693,0,0,0,.332-1.285,2.041,2.041,0,0,0-.539-1.461,1.885,1.885,0,0,0-1.437-.57,2.232,2.232,0,0,0-1.676.613,2.343,2.343,0,0,0-.6,1.707H36.266a3.355,3.355,0,0,1,1.012-2.539,3.751,3.751,0,0,1,2.707-.969,3.6,3.6,0,0,1,2.508.832,2.838,2.838,0,0,1,.922,2.215q0,1.68-2.141,4l-3.047,3.3h5.711Zm4.8-5.289L47.344-3.844V0h-1.5V-11.375h1.5V-5.75L52.4-11.375h1.813L49.734-6.352,54.563,0h-1.8ZM60.313-1.266a2.4,2.4,0,0,0,1.68-1.321,6.349,6.349,0,0,0,.625-2.94V-6.575a4.389,4.389,0,0,0-.758-2.768,2.5,2.5,0,0,0-2.078-.962,2.465,2.465,0,0,0-2.07.977,4.464,4.464,0,0,0-.75,2.768v.884a6.479,6.479,0,0,0,.613,3.034A2.464,2.464,0,0,0,59.32-1.266V0H55.477V-1.227H57.2a5.5,5.5,0,0,1-1.3-2,6.715,6.715,0,0,1-.469-2.465v-.867a5.891,5.891,0,0,1,.551-2.594,4.149,4.149,0,0,1,1.543-1.762,4.152,4.152,0,0,1,2.25-.621,4.178,4.178,0,0,1,2.238.609A4.143,4.143,0,0,1,63.563-9.2a5.769,5.769,0,0,1,.578,2.516v1.016a6.675,6.675,0,0,1-.469,2.449,5.5,5.5,0,0,1-1.3,2h1.719V0H60.313Z" transform="translate(753.051 6407)" fill="#12263f"/>
  </g>
</svg>
