<svg xmlns="http://www.w3.org/2000/svg" width="400" height="69" viewBox="0 0 400 69">
  <g id="Grupo_1108799" data-name="Grupo 1108799" transform="translate(5352 5259)">
    <path id="Trazado_899231" data-name="Trazado 899231" d="M0,0H400V69H0Z" transform="translate(-5352 -5259)" fill="#f4c0c0"/>
    <path id="Trazado_899233" data-name="Trazado 899233" d="M7.7-6.359H1.188V-7.617H7.7Zm0,3.242H1.188v-1.25H7.7Z" transform="translate(-5270.051 -5221)" fill="#12263f"/>
    <path id="Trazado_899234" data-name="Trazado 899234" d="M5.039-4.164H3.18L2.453,0H.164L2.141-11.375l3.766.008a4.289,4.289,0,0,1,2.91.891A2.817,2.817,0,0,1,9.719-8a3.574,3.574,0,0,1-2.5,3.258L8.82-.125V0H6.383Zm-1.531-1.9,1.7.016a2.386,2.386,0,0,0,1.5-.488A1.933,1.933,0,0,0,7.414-7.82a1.473,1.473,0,0,0-.242-1.187,1.442,1.442,0,0,0-1.117-.461L4.1-9.477ZM18.148-8.617a2.4,2.4,0,0,1,1.906.945L20.883-12h2.211L21.016,0H19.047l.125-.906a2.736,2.736,0,0,1-2.2,1.07A2.433,2.433,0,0,1,15.586-.25a2.607,2.607,0,0,1-.918-1.168,4.7,4.7,0,0,1-.355-1.7,6.4,6.4,0,0,1,.023-.953l.047-.352A6.767,6.767,0,0,1,15.105-6.7a3.766,3.766,0,0,1,1.313-1.461A3.094,3.094,0,0,1,18.148-8.617Zm-1.6,4.547a6.327,6.327,0,0,0-.039,1q.078,1.375,1.109,1.4a1.885,1.885,0,0,0,1.617-.875l.6-3.359a1.248,1.248,0,0,0-1.219-.875,1.606,1.606,0,0,0-1.34.621A4.176,4.176,0,0,0,16.547-4.07ZM26.789.156a3.677,3.677,0,0,1-1.965-.543,3.292,3.292,0,0,1-1.277-1.469,4.093,4.093,0,0,1-.328-2.059l.023-.312a5.465,5.465,0,0,1,.719-2.266,4.341,4.341,0,0,1,1.547-1.59A3.827,3.827,0,0,1,27.6-8.609a2.924,2.924,0,0,1,2.473,1.2,4.117,4.117,0,0,1,.637,2.962l-.125.962h-5.18a1.814,1.814,0,0,0,.4,1.313,1.521,1.521,0,0,0,1.172.508A2.7,2.7,0,0,0,29.086-2.6l1.008,1.25A3.135,3.135,0,0,1,28.719-.23,4.5,4.5,0,0,1,26.789.156Zm.7-6.945a1.565,1.565,0,0,0-1.082.383,3.363,3.363,0,0,0-.848,1.383h3.031l.047-.2a2.071,2.071,0,0,0,.008-.594,1.134,1.134,0,0,0-.383-.707A1.2,1.2,0,0,0,27.492-6.789Zm9.539.453a4.548,4.548,0,0,0-.742-.078,2.136,2.136,0,0,0-1.867.883L33.445,0h-2.2l1.469-8.453,2.07-.008-.2,1.031a2.325,2.325,0,0,1,1.969-1.2,3.214,3.214,0,0,1,.766.109Z" transform="translate(-5327.102 -5221)" fill="#12263f"/>
    <path id="Trazado_899232" data-name="Trazado 899232" d="M5.039-4.164H3.18L2.453,0H.164L2.141-11.375l3.766.008a4.289,4.289,0,0,1,2.91.891A2.817,2.817,0,0,1,9.719-8a3.574,3.574,0,0,1-2.5,3.258L8.82-.125V0H6.383Zm-1.531-1.9,1.7.016a2.386,2.386,0,0,0,1.5-.488A1.933,1.933,0,0,0,7.414-7.82a1.473,1.473,0,0,0-.242-1.187,1.442,1.442,0,0,0-1.117-.461L4.1-9.477ZM15.25,0h-2.2l1.5-8.656-2.766.836.344-1.93,4.75-1.641.289-.008ZM25.977-7.551,23.7-8.269,24.359-9.6l2.242,1,.336-2.778h1.5l-.625,2.708,2.4-.921.2,1.506-2.562.695,1.258,2.125-1.258.813-.984-2.289L25.133-4.566,23.969-5.5ZM39.008-4.164H37.148L36.422,0H34.133l1.977-11.375,3.766.008a4.289,4.289,0,0,1,2.91.891A2.817,2.817,0,0,1,43.688-8a3.574,3.574,0,0,1-2.5,3.258l1.6,4.617V0H40.352Zm-1.531-1.9,1.7.016a2.386,2.386,0,0,0,1.5-.488,1.933,1.933,0,0,0,.707-1.285,1.473,1.473,0,0,0-.242-1.187,1.442,1.442,0,0,0-1.117-.461L38.07-9.477ZM51.539,0H43.961l.258-1.641L48.258-5.43A8.947,8.947,0,0,0,49.906-7.32a2.214,2.214,0,0,0,.3-1.422,1.061,1.061,0,0,0-1.117-.992,1.6,1.6,0,0,0-1.254.523A2.453,2.453,0,0,0,47.227-7.8l-2.2.008a3.863,3.863,0,0,1,.633-1.93,3.882,3.882,0,0,1,1.52-1.348,4.405,4.405,0,0,1,2.051-.473,3.5,3.5,0,0,1,2.469.891,2.756,2.756,0,0,1,.781,2.289A5.546,5.546,0,0,1,50.578-5L49.453-3.93,47.125-1.836l4.7.016Z" transform="translate(-5235 -5230.5)" fill="#12263f"/>
    <path id="Trazado_899042" data-name="Trazado 899042" d="M-3842.051-10039.182h78.771" transform="translate(-1406.949 4813.5)" fill="none" stroke="#000" stroke-width="1"/>
    <path id="Trazado_899237" data-name="Trazado 899237" d="M5.039-4.164H3.18L2.453,0H.164L2.141-11.375l3.766.008a4.289,4.289,0,0,1,2.91.891A2.817,2.817,0,0,1,9.719-8a3.574,3.574,0,0,1-2.5,3.258L8.82-.125V0H6.383Zm-1.531-1.9,1.7.016a2.386,2.386,0,0,0,1.5-.488A1.933,1.933,0,0,0,7.414-7.82a1.473,1.473,0,0,0-.242-1.187,1.442,1.442,0,0,0-1.117-.461L4.1-9.477ZM15.25,0h-2.2l1.5-8.656-2.766.836.344-1.93,4.75-1.641.289-.008ZM28.477-6.367h2.734l-.359,2.039H28.125L27.57-1.141h-2.1l.555-3.187h-2.75l.359-2.039h2.742l.531-3.055h2.1Zm11.969,2.2H38.586L37.859,0H35.57l1.977-11.375,3.766.008a4.289,4.289,0,0,1,2.91.891A2.817,2.817,0,0,1,45.125-8a3.574,3.574,0,0,1-2.5,3.258l1.6,4.617V0H41.789Zm-1.531-1.9,1.7.016a2.386,2.386,0,0,0,1.5-.488A1.933,1.933,0,0,0,42.82-7.82a1.473,1.473,0,0,0-.242-1.187,1.442,1.442,0,0,0-1.117-.461l-1.953-.008ZM52.977,0H45.4l.258-1.641L49.7-5.43A8.947,8.947,0,0,0,51.344-7.32a2.214,2.214,0,0,0,.3-1.422,1.061,1.061,0,0,0-1.117-.992,1.6,1.6,0,0,0-1.254.523A2.453,2.453,0,0,0,48.664-7.8l-2.2.008a3.863,3.863,0,0,1,.633-1.93,3.882,3.882,0,0,1,1.52-1.348,4.405,4.405,0,0,1,2.051-.473,3.5,3.5,0,0,1,2.469.891,2.756,2.756,0,0,1,.781,2.289A5.546,5.546,0,0,1,52.016-5L50.891-3.93,48.563-1.836l4.7.016Z" transform="translate(-5235 -5207.5)" fill="#12263f"/>
    <path id="Trazado_899235" data-name="Trazado 899235" d="M7.7-6.359H1.188V-7.617H7.7Zm0,3.242H1.188v-1.25H7.7Z" transform="translate(-5162.051 -5221)" fill="#12263f"/>
    <path id="Trazado_899236" data-name="Trazado 899236" d="M5.266,0h-2.2l1.5-8.656L1.8-7.82l.344-1.93,4.75-1.641L7.18-11.4Zm8.219-4.539-1.5,1.391L11.438,0H9.148l1.977-11.375h2.289l-.875,5.016L13.7-7.672l3.422-3.7h2.984L15.2-6.2,18.125,0H15.516ZM25.922-7.551l-2.281-.718L24.3-9.6l2.242,1,.336-2.778h1.5l-.625,2.708,2.4-.921.2,1.506L27.8-7.387l1.258,2.125L27.8-4.449l-.984-2.289L25.078-4.566,23.914-5.5ZM39.18,0h-2.2l1.5-8.656-2.766.836.344-1.93,4.75-1.641.289-.008ZM47.4-4.539,45.9-3.148,45.352,0H43.063l1.977-11.375h2.289l-.875,5.016,1.164-1.312,3.422-3.7h2.984L49.109-6.2,52.039,0H49.43Z" transform="translate(-5128.051 -5230.5)" fill="#12263f"/>
    <path id="Trazado_899043" data-name="Trazado 899043" d="M-3842.051-10039.182h78.771" transform="translate(-1300 4813.5)" fill="none" stroke="#000" stroke-width="1"/>
    <path id="Trazado_899238" data-name="Trazado 899238" d="M.953-4.594A13.2,13.2,0,0,1,2.621-9.582a7.175,7.175,0,0,1,3.246-3.066l.375,1.258Q3.57-9.352,2.859-4.836A19.376,19.376,0,0,0,2.6-2.086Q2.562,1.125,4.07,2.375l-.492,1.18A5.13,5.13,0,0,1,1.219.313,10.87,10.87,0,0,1,.82-3a13.121,13.121,0,0,1,.1-1.406ZM10.789,0h-2.2l1.5-8.656L7.32-7.82l.344-1.93,4.75-1.641L12.7-11.4Zm8.219-4.539-1.5,1.391L16.961,0H14.672l1.977-11.375h2.289l-.875,5.016,1.164-1.312,3.422-3.7h2.984L20.719-6.2,23.648,0H21.039ZM33.945-6.367H36.68L36.32-4.328H33.594l-.555,3.188h-2.1l.555-3.187h-2.75L29.1-6.367h2.742l.531-3.055h2.1ZM46.141,0h-2.2l1.5-8.656-2.766.836.344-1.93,4.75-1.641.289-.008Zm8.219-4.539-1.5,1.391L52.313,0H50.023L52-11.375h2.289l-.875,5.016,1.164-1.312L58-11.375h2.984L56.07-6.2,59,0H56.391Zm4.992,8.117-.375-1.234q2.68-2.07,3.383-6.625a19.275,19.275,0,0,0,.242-2.7q.039-3.211-1.453-4.469l.492-1.18a4.565,4.565,0,0,1,1.582,1.457A6.725,6.725,0,0,1,64.2-8.859a11.6,11.6,0,0,1,.3,2.781,13.865,13.865,0,0,1-.75,4.223,11.039,11.039,0,0,1-1.84,3.441A6.68,6.68,0,0,1,59.352,3.578Z" transform="translate(-5133.051 -5207.5)" fill="#12263f"/>
    <path id="Trazado_899239" data-name="Trazado 899239" d="M7.7-6.359H1.188V-7.617H7.7Zm0,3.242H1.188v-1.25H7.7Z" transform="translate(-5057.051 -5221)" fill="#12263f"/>
    <path id="Trazado_899240" data-name="Trazado 899240" d="M1.2-5.625l1.531-5.75H8.953l-.3,1.883H4.289l-.75,2.461A3.016,3.016,0,0,1,5.18-7.469,2.693,2.693,0,0,1,7.441-6.434,3.855,3.855,0,0,1,8.117-3.7a4.423,4.423,0,0,1-.66,2.023A3.852,3.852,0,0,1,5.969-.3,4.108,4.108,0,0,1,3.938.164,3.613,3.613,0,0,1,2.191-.277a3.12,3.12,0,0,1-1.223-1.2,3.409,3.409,0,0,1-.445-1.7H2.688a1.7,1.7,0,0,0,.383,1.09,1.259,1.259,0,0,0,.953.41,1.545,1.545,0,0,0,1.285-.57,2.845,2.845,0,0,0,.605-1.594,2.02,2.02,0,0,0-.27-1.406,1.3,1.3,0,0,0-1.105-.531,2.195,2.195,0,0,0-1.531.609ZM12.773.156a2.884,2.884,0,0,1-2.281-1,4.205,4.205,0,0,1-.828-2.7A8.6,8.6,0,0,1,9.727-4.7l.32-2.133a6.638,6.638,0,0,1,1.508-3.531,3.652,3.652,0,0,1,2.883-1.164,2.9,2.9,0,0,1,2.285,1,4.161,4.161,0,0,1,.832,2.691,8.673,8.673,0,0,1-.062,1.164l-.328,2.117a6.781,6.781,0,0,1-1.5,3.551A3.63,3.63,0,0,1,12.773.156ZM15.422-8.1q0-1.552-1.094-1.606-1.578-.07-2.008,2.4L11.93-4.674A9.495,9.495,0,0,0,11.8-3.3q-.039,1.583,1.086,1.637,1.586.1,2.016-2.472l.414-2.776A8.178,8.178,0,0,0,15.422-8.1ZM21.758.156a2.884,2.884,0,0,1-2.281-1,4.205,4.205,0,0,1-.828-2.7A8.6,8.6,0,0,1,18.711-4.7l.32-2.133a6.638,6.638,0,0,1,1.508-3.531,3.652,3.652,0,0,1,2.883-1.164,2.9,2.9,0,0,1,2.285,1,4.161,4.161,0,0,1,.832,2.691,8.673,8.673,0,0,1-.062,1.164l-.328,2.117a6.781,6.781,0,0,1-1.5,3.551A3.63,3.63,0,0,1,21.758.156ZM24.406-8.1q0-1.552-1.094-1.606-1.578-.07-2.008,2.4l-.391,2.635A9.494,9.494,0,0,0,20.789-3.3q-.039,1.583,1.086,1.637,1.586.1,2.016-2.472L24.3-6.912A8.178,8.178,0,0,0,24.406-8.1ZM32-1.93a3,3,0,0,0,1.492-1.523,10.563,10.563,0,0,0,.789-3.43,7.066,7.066,0,0,0,.039-1.062Q34.2-9.562,32.992-9.617a1.8,1.8,0,0,0-1.535.691,4.341,4.341,0,0,0-.836,2.176q-.215,1.438-.254,1.941a9.02,9.02,0,0,0-.023.988q.031,1.469.883,1.883L30.93,0h-3.9l.352-1.906,1.633-.008a7.176,7.176,0,0,1-1.062-3.031,7.876,7.876,0,0,1,.164-2.1A5.992,5.992,0,0,1,29.078-9.4,5,5,0,0,1,30.84-11a4.5,4.5,0,0,1,2.277-.527,3.779,3.779,0,0,1,2.129.66,3.625,3.625,0,0,1,1.313,1.734,5.031,5.031,0,0,1,.262,2.41l-.07.547a6.113,6.113,0,0,1-2.547,4.3l1.672-.039L35.539,0H31.7Z" transform="translate(-5033.051 -5220)" fill="#12263f"/>
  </g>
</svg>
