<svg xmlns="http://www.w3.org/2000/svg" width="210" height="69" viewBox="0 0 210 69">
  <g id="Grupo_1108799" data-name="Grupo 1108799" transform="translate(2805 5276)">
    <path id="Trazado_899231" data-name="Trazado 899231" d="M0,0H210V69H0Z" transform="translate(-2805 -5276)" fill="#f4c0c0"/>
    <path id="Trazado_899234" data-name="Trazado 899234" d="M7.7-6.359H1.188V-7.617H7.7Zm0,3.242H1.188v-1.25H7.7Z" transform="translate(-2731.25 -5238)" fill="#12263f"/>
    <path id="Trazado_899235" data-name="Trazado 899235" d="M5.039-4.164H3.18L2.453,0H.164L2.141-11.375l3.766.008a4.289,4.289,0,0,1,2.91.891A2.817,2.817,0,0,1,9.719-8a3.574,3.574,0,0,1-2.5,3.258L8.82-.125V0H6.383Zm-1.531-1.9,1.7.016a2.386,2.386,0,0,0,1.5-.488A1.933,1.933,0,0,0,7.414-7.82a1.473,1.473,0,0,0-.242-1.187,1.442,1.442,0,0,0-1.117-.461L4.1-9.477ZM16.281,0H14.063l1.469-8.453H17.75Zm-.492-10.6a1.1,1.1,0,0,1,.344-.867A1.209,1.209,0,0,1,17-11.812a1.215,1.215,0,0,1,.867.3,1.1,1.1,0,0,1,.383.828,1.132,1.132,0,0,1-.324.844,1.215,1.215,0,0,1-.887.375,1.235,1.235,0,0,1-.863-.3A1.091,1.091,0,0,1,15.789-10.6Zm5.234,8.766,3.984.016L24.688,0h-6.82l.258-1.492,4.711-5.117-3.711-.016.32-1.828h6.586l-.25,1.445Zm9.3-6.781a2.346,2.346,0,0,1,2.008,1.063l.359-.906,1.969.008L32.625,3.25H30.406L31.2-.742a2.647,2.647,0,0,1-2.055.9,2.433,2.433,0,0,1-1.383-.414,2.6,2.6,0,0,1-.918-1.176,4.733,4.733,0,0,1-.355-1.691,6.527,6.527,0,0,1,.023-.961l.047-.344a6.781,6.781,0,0,1,.723-2.3A3.673,3.673,0,0,1,28.59-8.176,3.151,3.151,0,0,1,30.32-8.617ZM28.688-3.08q.078,1.393,1.109,1.416a1.881,1.881,0,0,0,1.594-.822l.641-3.521A1.242,1.242,0,0,0,30.8-6.8a1.612,1.612,0,0,0-1.367.653,3.761,3.761,0,0,0-.7,1.89A8.224,8.224,0,0,0,28.688-3.08Z" transform="translate(-2788.301 -5238)" fill="#12263f"/>
    <path id="Trazado_899232" data-name="Trazado 899232" d="M3.3-6.687l1.055.008A2.055,2.055,0,0,0,5.7-7.125a1.737,1.737,0,0,0,.629-1.2,1.261,1.261,0,0,0-.242-1.012,1.23,1.23,0,0,0-.961-.395,1.642,1.642,0,0,0-1.1.348,1.494,1.494,0,0,0-.559.941l-2.2.016a2.952,2.952,0,0,1,1.184-2.254,4.165,4.165,0,0,1,2.707-.863,3.716,3.716,0,0,1,2.547.9,2.739,2.739,0,0,1,.852,2.3A3.078,3.078,0,0,1,6.484-5.8,2.381,2.381,0,0,1,7.605-4.754a2.826,2.826,0,0,1,.309,1.5,3.267,3.267,0,0,1-.633,1.813,3.7,3.7,0,0,1-1.547,1.2A4.962,4.962,0,0,1,3.641.156a3.557,3.557,0,0,1-2.484-.91A3.03,3.03,0,0,1,.211-3.117H2.4a1.412,1.412,0,0,0,.355,1.035,1.385,1.385,0,0,0,1.035.418A1.933,1.933,0,0,0,5.1-2.1a1.761,1.761,0,0,0,.641-1.179,1.428,1.428,0,0,0-.277-1.2,1.553,1.553,0,0,0-1.152-.439l-1.3-.008Zm9.367,3.32-1.023.891L11.211,0h-2.2l2.078-12H13.3L12.156-5.484l.43-.461,2.508-2.508h2.828l-3.7,3.633L16.578,0H14.164Z" transform="translate(-2696.199 -5247.5)" fill="#12263f"/>
    <path id="Trazado_899044" data-name="Trazado 899044" d="M-3842.051-10039.182h39" transform="translate(1131.852 4796.5)" fill="none" stroke="#000" stroke-width="1"/>
    <path id="Trazado_899237" data-name="Trazado 899237" d="M3.3-6.687l1.055.008A2.055,2.055,0,0,0,5.7-7.125a1.737,1.737,0,0,0,.629-1.2,1.261,1.261,0,0,0-.242-1.012,1.23,1.23,0,0,0-.961-.395,1.642,1.642,0,0,0-1.1.348,1.494,1.494,0,0,0-.559.941l-2.2.016a2.952,2.952,0,0,1,1.184-2.254,4.165,4.165,0,0,1,2.707-.863,3.716,3.716,0,0,1,2.547.9,2.739,2.739,0,0,1,.852,2.3A3.078,3.078,0,0,1,6.484-5.8,2.381,2.381,0,0,1,7.605-4.754a2.826,2.826,0,0,1,.309,1.5,3.267,3.267,0,0,1-.633,1.813,3.7,3.7,0,0,1-1.547,1.2A4.962,4.962,0,0,1,3.641.156a3.557,3.557,0,0,1-2.484-.91A3.03,3.03,0,0,1,.211-3.117H2.4a1.412,1.412,0,0,0,.355,1.035,1.385,1.385,0,0,0,1.035.418A1.933,1.933,0,0,0,5.1-2.1a1.761,1.761,0,0,0,.641-1.179,1.428,1.428,0,0,0-.277-1.2,1.553,1.553,0,0,0-1.152-.439l-1.3-.008Z" transform="translate(-2696.199 -5224.5)" fill="#12263f"/>
    <path id="Trazado_899236" data-name="Trazado 899236" d="M7.7-6.359H1.188V-7.617H7.7Zm0,3.242H1.188v-1.25H7.7Z" transform="translate(-2659.199 -5238)" fill="#12263f"/>
    <path id="Trazado_899233" data-name="Trazado 899233" d="M5.266,0h-2.2l1.5-8.656L1.8-7.82l.344-1.93,4.75-1.641L7.18-11.4Zm7.4-3.367-1.023.891L11.211,0h-2.2l2.078-12H13.3L12.156-5.484l.43-.461,2.508-2.508h2.828l-3.7,3.633L16.578,0H14.164ZM22.4-1.93a3,3,0,0,0,1.492-1.523,10.563,10.563,0,0,0,.789-3.43,7.066,7.066,0,0,0,.039-1.062q-.125-1.617-1.328-1.672a1.8,1.8,0,0,0-1.535.691A4.341,4.341,0,0,0,21.02-6.75q-.215,1.438-.254,1.941a9.02,9.02,0,0,0-.023.988q.031,1.469.883,1.883L21.328,0h-3.9l.352-1.906,1.633-.008a7.176,7.176,0,0,1-1.062-3.031,7.876,7.876,0,0,1,.164-2.1A5.992,5.992,0,0,1,19.477-9.4,5,5,0,0,1,21.238-11a4.5,4.5,0,0,1,2.277-.527,3.779,3.779,0,0,1,2.129.66,3.625,3.625,0,0,1,1.313,1.734,5.031,5.031,0,0,1,.262,2.41l-.07.547a6.113,6.113,0,0,1-2.547,4.3l1.672-.039L25.938,0H22.1Z" transform="translate(-2639.699 -5239)" fill="#12263f"/>
  </g>
</svg>
