<svg xmlns="http://www.w3.org/2000/svg" width="505" height="69" viewBox="0 0 505 69">
  <g id="Grupo_1108808" data-name="Grupo 1108808" transform="translate(-180.051 -7075)">
    <path id="Trazado_899268" data-name="Trazado 899268" d="M0,0H505V69H0Z" transform="translate(180.051 7075)" fill="#f4c0c0"/>
    <path id="Trazado_899269" data-name="Trazado 899269" d="M7.7-6.359H1.188V-7.617H7.7Zm0,3.242H1.188v-1.25H7.7Z" transform="translate(262 7113)" fill="#12263f"/>
    <path id="Trazado_899270" data-name="Trazado 899270" d="M5.039-4.164H3.18L2.453,0H.164L2.141-11.375l3.766.008a4.289,4.289,0,0,1,2.91.891A2.817,2.817,0,0,1,9.719-8a3.574,3.574,0,0,1-2.5,3.258L8.82-.125V0H6.383Zm-1.531-1.9,1.7.016a2.386,2.386,0,0,0,1.5-.488A1.933,1.933,0,0,0,7.414-7.82a1.473,1.473,0,0,0-.242-1.187,1.442,1.442,0,0,0-1.117-.461L4.1-9.477ZM23.586-9.477H20.211L18.57,0H16.281l1.641-9.477H14.586l.336-1.9h9Zm2.789.867a3.39,3.39,0,0,1,1.926.574A3.234,3.234,0,0,1,29.488-6.5a4.762,4.762,0,0,1,.27,2.176,5.143,5.143,0,0,1-1.4,3.262A3.96,3.96,0,0,1,25.336.156,3.38,3.38,0,0,1,23.43-.41a3.222,3.222,0,0,1-1.187-1.527,4.657,4.657,0,0,1-.273-2.156,5.3,5.3,0,0,1,1.422-3.328A3.878,3.878,0,0,1,26.375-8.609ZM24.148-3.294A1.95,1.95,0,0,0,24.5-2.113a1.168,1.168,0,0,0,.945.449A1.712,1.712,0,0,0,27.039-2.6a4.647,4.647,0,0,0,.539-2.531,2.122,2.122,0,0,0-.363-1.2,1.149,1.149,0,0,0-.949-.464,1.715,1.715,0,0,0-1.574.924A4.6,4.6,0,0,0,24.148-3.294Zm10.711-7.237-.367,2.078H35.9L35.609-6.8H34.2l-.719,4.234a1.077,1.077,0,0,0,.063.609q.109.211.531.227.125.008.672-.039L34.594-.039a3.706,3.706,0,0,1-1.266.18,1.985,1.985,0,0,1-1.617-.68,2.456,2.456,0,0,1-.437-1.8L32-6.8H30.8l.289-1.656h1.2l.359-2.078ZM40.6,0a2.281,2.281,0,0,1-.086-.766,2.863,2.863,0,0,1-2.156.922,2.594,2.594,0,0,1-1.84-.723,2.186,2.186,0,0,1-.684-1.746A2.527,2.527,0,0,1,37-4.434a5.266,5.266,0,0,1,2.965-.738l1.031.016.109-.508a1.764,1.764,0,0,0,.023-.492.846.846,0,0,0-.277-.574.955.955,0,0,0-.629-.215,1.345,1.345,0,0,0-.875.254,1.231,1.231,0,0,0-.461.777l-2.211.008a2.457,2.457,0,0,1,1.113-1.965A4.312,4.312,0,0,1,40.4-8.609a3.117,3.117,0,0,1,2.25.855,2.5,2.5,0,0,1,.68,2.121L42.68-1.586l-.039.5a2.412,2.412,0,0,0,.133.938L42.766,0Zm-1.7-1.555a2.017,2.017,0,0,0,1.664-.828l.273-1.461-.766-.008a2.139,2.139,0,0,0-1.758.742,1.292,1.292,0,0,0-.242.633.75.75,0,0,0,.176.668A.891.891,0,0,0,38.906-1.555ZM46.438,0H44.219L46.3-12h2.211Z" transform="translate(204.949 7113)" fill="#12263f"/>
    <path id="Trazado_899271" data-name="Trazado 899271" d="M5.039-4.164H3.18L2.453,0H.164L2.141-11.375l3.766.008a4.289,4.289,0,0,1,2.91.891A2.817,2.817,0,0,1,9.719-8a3.574,3.574,0,0,1-2.5,3.258L8.82-.125V0H6.383Zm-1.531-1.9,1.7.016a2.386,2.386,0,0,0,1.5-.488A1.933,1.933,0,0,0,7.414-7.82a1.473,1.473,0,0,0-.242-1.187,1.442,1.442,0,0,0-1.117-.461L4.1-9.477ZM18.148-8.617a2.4,2.4,0,0,1,1.906.945L20.883-12h2.211L21.016,0H19.047l.125-.906a2.736,2.736,0,0,1-2.2,1.07A2.433,2.433,0,0,1,15.586-.25a2.607,2.607,0,0,1-.918-1.168,4.7,4.7,0,0,1-.355-1.7,6.4,6.4,0,0,1,.023-.953l.047-.352A6.767,6.767,0,0,1,15.105-6.7a3.766,3.766,0,0,1,1.313-1.461A3.094,3.094,0,0,1,18.148-8.617Zm-1.6,4.547a6.327,6.327,0,0,0-.039,1q.078,1.375,1.109,1.4a1.885,1.885,0,0,0,1.617-.875l.6-3.359a1.248,1.248,0,0,0-1.219-.875,1.606,1.606,0,0,0-1.34.621A4.176,4.176,0,0,0,16.547-4.07ZM26.789.156a3.677,3.677,0,0,1-1.965-.543,3.292,3.292,0,0,1-1.277-1.469,4.093,4.093,0,0,1-.328-2.059l.023-.312a5.465,5.465,0,0,1,.719-2.266,4.341,4.341,0,0,1,1.547-1.59A3.827,3.827,0,0,1,27.6-8.609a2.924,2.924,0,0,1,2.473,1.2,4.117,4.117,0,0,1,.637,2.962l-.125.962h-5.18a1.814,1.814,0,0,0,.4,1.313,1.521,1.521,0,0,0,1.172.508A2.7,2.7,0,0,0,29.086-2.6l1.008,1.25A3.135,3.135,0,0,1,28.719-.23,4.5,4.5,0,0,1,26.789.156Zm.7-6.945a1.565,1.565,0,0,0-1.082.383,3.363,3.363,0,0,0-.848,1.383h3.031l.047-.2a2.071,2.071,0,0,0,.008-.594,1.134,1.134,0,0,0-.383-.707A1.2,1.2,0,0,0,27.492-6.789Zm9.539.453a4.548,4.548,0,0,0-.742-.078,2.136,2.136,0,0,0-1.867.883L33.445,0h-2.2l1.469-8.453,2.07-.008-.2,1.031a2.325,2.325,0,0,1,1.969-1.2,3.214,3.214,0,0,1,.766.109Zm6.938-1.215-2.281-.718L42.352-9.6l2.242,1,.336-2.778h1.5L45.8-8.667l2.4-.921.2,1.506-2.562.695L47.1-5.262l-1.258.813-.984-2.289L43.125-4.566,41.961-5.5ZM57-4.164H55.141L54.414,0H52.125L54.1-11.375l3.766.008a4.289,4.289,0,0,1,2.91.891A2.817,2.817,0,0,1,61.68-8a3.574,3.574,0,0,1-2.5,3.258l1.6,4.617V0H58.344Zm-1.531-1.9,1.7.016a2.386,2.386,0,0,0,1.5-.488,1.933,1.933,0,0,0,.707-1.285,1.473,1.473,0,0,0-.242-1.187,1.442,1.442,0,0,0-1.117-.461l-1.953-.008ZM68.242,0H66.023l1.469-8.453h2.219ZM67.75-10.6a1.1,1.1,0,0,1,.344-.867,1.209,1.209,0,0,1,.867-.344,1.215,1.215,0,0,1,.867.3,1.1,1.1,0,0,1,.383.828,1.132,1.132,0,0,1-.324.844A1.215,1.215,0,0,1,69-9.461a1.235,1.235,0,0,1-.863-.3A1.091,1.091,0,0,1,67.75-10.6Zm5.234,8.766,3.984.016L76.648,0h-6.82l.258-1.492L74.8-6.609l-3.711-.016.32-1.828h6.586l-.25,1.445Zm9.3-6.781a2.346,2.346,0,0,1,2.008,1.063l.359-.906,1.969.008L84.586,3.25H82.367l.789-3.992a2.647,2.647,0,0,1-2.055.9,2.433,2.433,0,0,1-1.383-.414A2.6,2.6,0,0,1,78.8-1.434a4.733,4.733,0,0,1-.355-1.691,6.527,6.527,0,0,1,.023-.961l.047-.344a6.781,6.781,0,0,1,.723-2.3,3.673,3.673,0,0,1,1.313-1.449A3.151,3.151,0,0,1,82.281-8.617ZM80.648-3.08q.078,1.393,1.109,1.416a1.881,1.881,0,0,0,1.594-.822l.641-3.521a1.242,1.242,0,0,0-1.227-.79,1.612,1.612,0,0,0-1.367.653,3.761,3.761,0,0,0-.7,1.89A8.223,8.223,0,0,0,80.648-3.08Z" transform="translate(297.051 7103.5)" fill="#12263f"/>
    <path id="Trazado_899046" data-name="Trazado 899046" d="M-3842.051-10039.182H-3735.1" transform="translate(4125.102 17147.5)" fill="none" stroke="#000" stroke-width="1"/>
    <path id="Trazado_899272" data-name="Trazado 899272" d="M7.7-6.359H1.188V-7.617H7.7Zm0,3.242H1.188v-1.25H7.7Z" transform="translate(409 7113)" fill="#12263f"/>
    <path id="Trazado_899273" data-name="Trazado 899273" d="M5.039-4.164H3.18L2.453,0H.164L2.141-11.375l3.766.008a4.289,4.289,0,0,1,2.91.891A2.817,2.817,0,0,1,9.719-8a3.574,3.574,0,0,1-2.5,3.258L8.82-.125V0H6.383Zm-1.531-1.9,1.7.016a2.386,2.386,0,0,0,1.5-.488A1.933,1.933,0,0,0,7.414-7.82a1.473,1.473,0,0,0-.242-1.187,1.442,1.442,0,0,0-1.117-.461L4.1-9.477ZM18.148-8.617a2.4,2.4,0,0,1,1.906.945L20.883-12h2.211L21.016,0H19.047l.125-.906a2.736,2.736,0,0,1-2.2,1.07A2.433,2.433,0,0,1,15.586-.25a2.607,2.607,0,0,1-.918-1.168,4.7,4.7,0,0,1-.355-1.7,6.4,6.4,0,0,1,.023-.953l.047-.352A6.767,6.767,0,0,1,15.105-6.7a3.766,3.766,0,0,1,1.313-1.461A3.094,3.094,0,0,1,18.148-8.617Zm-1.6,4.547a6.327,6.327,0,0,0-.039,1q.078,1.375,1.109,1.4a1.885,1.885,0,0,0,1.617-.875l.6-3.359a1.248,1.248,0,0,0-1.219-.875,1.606,1.606,0,0,0-1.34.621A4.176,4.176,0,0,0,16.547-4.07ZM26.789.156a3.677,3.677,0,0,1-1.965-.543,3.292,3.292,0,0,1-1.277-1.469,4.093,4.093,0,0,1-.328-2.059l.023-.312a5.465,5.465,0,0,1,.719-2.266,4.341,4.341,0,0,1,1.547-1.59A3.827,3.827,0,0,1,27.6-8.609a2.924,2.924,0,0,1,2.473,1.2,4.117,4.117,0,0,1,.637,2.962l-.125.962h-5.18a1.814,1.814,0,0,0,.4,1.313,1.521,1.521,0,0,0,1.172.508A2.7,2.7,0,0,0,29.086-2.6l1.008,1.25A3.135,3.135,0,0,1,28.719-.23,4.5,4.5,0,0,1,26.789.156Zm.7-6.945a1.565,1.565,0,0,0-1.082.383,3.363,3.363,0,0,0-.848,1.383h3.031l.047-.2a2.071,2.071,0,0,0,.008-.594,1.134,1.134,0,0,0-.383-.707A1.2,1.2,0,0,0,27.492-6.789Zm9.539.453a4.548,4.548,0,0,0-.742-.078,2.136,2.136,0,0,0-1.867.883L33.445,0h-2.2l1.469-8.453,2.07-.008-.2,1.031a2.325,2.325,0,0,1,1.969-1.2,3.214,3.214,0,0,1,.766.109Zm6.938-1.215-2.281-.718L42.352-9.6l2.242,1,.336-2.778h1.5L45.8-8.667l2.4-.921.2,1.506-2.562.695L47.1-5.262l-1.258.813-.984-2.289L43.125-4.566,41.961-5.5ZM57-4.164H55.141L54.414,0H52.125L54.1-11.375l3.766.008a4.289,4.289,0,0,1,2.91.891A2.817,2.817,0,0,1,61.68-8a3.574,3.574,0,0,1-2.5,3.258l1.6,4.617V0H58.344Zm-1.531-1.9,1.7.016a2.386,2.386,0,0,0,1.5-.488,1.933,1.933,0,0,0,.707-1.285,1.473,1.473,0,0,0-.242-1.187,1.442,1.442,0,0,0-1.117-.461l-1.953-.008ZM68.242,0H66.023l1.469-8.453h2.219ZM67.75-10.6a1.1,1.1,0,0,1,.344-.867,1.209,1.209,0,0,1,.867-.344,1.215,1.215,0,0,1,.867.3,1.1,1.1,0,0,1,.383.828,1.132,1.132,0,0,1-.324.844A1.215,1.215,0,0,1,69-9.461a1.235,1.235,0,0,1-.863-.3A1.091,1.091,0,0,1,67.75-10.6Zm5.234,8.766,3.984.016L76.648,0h-6.82l.258-1.492L74.8-6.609l-3.711-.016.32-1.828h6.586l-.25,1.445Zm9.3-6.781a2.346,2.346,0,0,1,2.008,1.063l.359-.906,1.969.008L84.586,3.25H82.367l.789-3.992a2.647,2.647,0,0,1-2.055.9,2.433,2.433,0,0,1-1.383-.414A2.6,2.6,0,0,1,78.8-1.434a4.733,4.733,0,0,1-.355-1.691,6.527,6.527,0,0,1,.023-.961l.047-.344a6.781,6.781,0,0,1,.723-2.3,3.673,3.673,0,0,1,1.313-1.449A3.151,3.151,0,0,1,82.281-8.617ZM80.648-3.08q.078,1.393,1.109,1.416a1.881,1.881,0,0,0,1.594-.822l.641-3.521a1.242,1.242,0,0,0-1.227-.79,1.612,1.612,0,0,0-1.367.653,3.761,3.761,0,0,0-.7,1.89A8.223,8.223,0,0,0,80.648-3.08Z" transform="translate(297.051 7126.5)" fill="#12263f"/>
    <path id="Trazado_899274" data-name="Trazado 899274" d="M5.266,0h-2.2l1.5-8.656L1.8-7.82l.344-1.93,4.75-1.641L7.18-11.4Zm7.4-3.367-1.023.891L11.211,0h-2.2l2.078-12H13.3L12.156-5.484l.43-.461,2.508-2.508h2.828l-3.7,3.633L16.578,0H14.164ZM22.4-1.93a3,3,0,0,0,1.492-1.523,10.563,10.563,0,0,0,.789-3.43,7.066,7.066,0,0,0,.039-1.062q-.125-1.617-1.328-1.672a1.8,1.8,0,0,0-1.535.691A4.341,4.341,0,0,0,21.02-6.75q-.215,1.438-.254,1.941a9.02,9.02,0,0,0-.023.988q.031,1.469.883,1.883L21.328,0h-3.9l.352-1.906,1.633-.008a7.176,7.176,0,0,1-1.062-3.031,7.876,7.876,0,0,1,.164-2.1A5.992,5.992,0,0,1,19.477-9.4,5,5,0,0,1,21.238-11a4.5,4.5,0,0,1,2.277-.527,3.779,3.779,0,0,1,2.129.66,3.625,3.625,0,0,1,1.313,1.734,5.031,5.031,0,0,1,.262,2.41l-.07.547a6.113,6.113,0,0,1-2.547,4.3l1.672-.039L25.938,0H22.1ZM34.867-7.551l-2.281-.718L33.25-9.6l2.242,1,.336-2.778h1.5L36.7-8.667l2.4-.921.2,1.506-2.562.695L38-5.262l-1.258.813-.984-2.289L34.023-4.566,32.859-5.5ZM50.445,0H42.867l.258-1.641L47.164-5.43A8.947,8.947,0,0,0,48.813-7.32a2.214,2.214,0,0,0,.3-1.422A1.061,1.061,0,0,0,48-9.734a1.6,1.6,0,0,0-1.254.523A2.453,2.453,0,0,0,46.133-7.8l-2.2.008a3.863,3.863,0,0,1,.633-1.93,3.882,3.882,0,0,1,1.52-1.348,4.405,4.405,0,0,1,2.051-.473,3.5,3.5,0,0,1,2.469.891,2.756,2.756,0,0,1,.781,2.289A5.546,5.546,0,0,1,49.484-5L48.359-3.93,46.031-1.836l4.7.016Zm5.078-3.367L54.5-2.477,54.07,0h-2.2l2.078-12h2.211L55.016-5.484l.43-.461,2.508-2.508h2.828l-3.7,3.633L59.438,0H57.023ZM65.258-1.93A3,3,0,0,0,66.75-3.453a10.563,10.563,0,0,0,.789-3.43,7.066,7.066,0,0,0,.039-1.062q-.125-1.617-1.328-1.672a1.8,1.8,0,0,0-1.535.691,4.341,4.341,0,0,0-.836,2.176q-.215,1.438-.254,1.941a9.019,9.019,0,0,0-.023.988q.031,1.469.883,1.883L64.188,0h-3.9l.352-1.906,1.633-.008a7.176,7.176,0,0,1-1.062-3.031,7.877,7.877,0,0,1,.164-2.1A5.992,5.992,0,0,1,62.336-9.4,5,5,0,0,1,64.1-11a4.5,4.5,0,0,1,2.277-.527,3.779,3.779,0,0,1,2.129.66,3.625,3.625,0,0,1,1.313,1.734,5.031,5.031,0,0,1,.262,2.41l-.07.547a6.113,6.113,0,0,1-2.547,4.3l1.672-.039L68.8,0H64.961Z" transform="translate(444.051 7103.5)" fill="#12263f"/>
    <path id="Trazado_899047" data-name="Trazado 899047" d="M-3842.051-10039.182H-3735.1" transform="translate(4272.102 17147.5)" fill="none" stroke="#000" stroke-width="1"/>
    <path id="Trazado_899275" data-name="Trazado 899275" d="M5.266,0h-2.2l1.5-8.656L1.8-7.82l.344-1.93,4.75-1.641L7.18-11.4Zm7.4-3.367-1.023.891L11.211,0h-2.2l2.078-12H13.3L12.156-5.484l.43-.461,2.508-2.508h2.828l-3.7,3.633L16.578,0H14.164ZM22.4-1.93a3,3,0,0,0,1.492-1.523,10.563,10.563,0,0,0,.789-3.43,7.066,7.066,0,0,0,.039-1.062q-.125-1.617-1.328-1.672a1.8,1.8,0,0,0-1.535.691A4.341,4.341,0,0,0,21.02-6.75q-.215,1.438-.254,1.941a9.02,9.02,0,0,0-.023.988q.031,1.469.883,1.883L21.328,0h-3.9l.352-1.906,1.633-.008a7.176,7.176,0,0,1-1.062-3.031,7.876,7.876,0,0,1,.164-2.1A5.992,5.992,0,0,1,19.477-9.4,5,5,0,0,1,21.238-11a4.5,4.5,0,0,1,2.277-.527,3.779,3.779,0,0,1,2.129.66,3.625,3.625,0,0,1,1.313,1.734,5.031,5.031,0,0,1,.262,2.41l-.07.547a6.113,6.113,0,0,1-2.547,4.3l1.672-.039L25.938,0H22.1ZM37.367-6.367H40.1l-.359,2.039H37.016l-.555,3.188h-2.1l.555-3.187h-2.75l.359-2.039h2.742L35.8-9.422h2.1ZM51.883,0H44.3l.258-1.641L48.6-5.43A8.947,8.947,0,0,0,50.25-7.32a2.214,2.214,0,0,0,.3-1.422,1.061,1.061,0,0,0-1.117-.992,1.6,1.6,0,0,0-1.254.523A2.453,2.453,0,0,0,47.57-7.8l-2.2.008A3.863,3.863,0,0,1,46-9.719a3.882,3.882,0,0,1,1.52-1.348,4.405,4.405,0,0,1,2.051-.473,3.5,3.5,0,0,1,2.469.891,2.756,2.756,0,0,1,.781,2.289A5.546,5.546,0,0,1,50.922-5L49.8-3.93,47.469-1.836l4.7.016Zm5.9-4.539-1.5,1.391L55.734,0H53.445l1.977-11.375h2.289l-.875,5.016L58-7.672l3.422-3.7h2.984L59.492-6.2,62.422,0H59.813ZM68.258-1.93A3,3,0,0,0,69.75-3.453a10.563,10.563,0,0,0,.789-3.43,7.066,7.066,0,0,0,.039-1.062q-.125-1.617-1.328-1.672a1.8,1.8,0,0,0-1.535.691,4.341,4.341,0,0,0-.836,2.176q-.215,1.438-.254,1.941a9.021,9.021,0,0,0-.023.988q.031,1.469.883,1.883L67.188,0h-3.9l.352-1.906,1.633-.008a7.176,7.176,0,0,1-1.062-3.031,7.876,7.876,0,0,1,.164-2.1A5.992,5.992,0,0,1,65.336-9.4,5,5,0,0,1,67.1-11a4.5,4.5,0,0,1,2.277-.527,3.779,3.779,0,0,1,2.129.66,3.625,3.625,0,0,1,1.313,1.734,5.031,5.031,0,0,1,.262,2.41l-.07.547a6.113,6.113,0,0,1-2.547,4.3l1.672-.039L71.8,0H67.961Z" transform="translate(444.051 7126.5)" fill="#12263f"/>
    <path id="Trazado_899276" data-name="Trazado 899276" d="M7.7-6.359H1.188V-7.617H7.7Zm0,3.242H1.188v-1.25H7.7Z" transform="translate(548 7113)" fill="#12263f"/>
    <path id="Trazado_899277" data-name="Trazado 899277" d="M3.789.156a2.884,2.884,0,0,1-2.281-1,4.205,4.205,0,0,1-.828-2.7A8.6,8.6,0,0,1,.742-4.7l.32-2.133A6.638,6.638,0,0,1,2.57-10.367a3.652,3.652,0,0,1,2.883-1.164,2.9,2.9,0,0,1,2.285,1A4.161,4.161,0,0,1,8.57-7.844,8.673,8.673,0,0,1,8.508-6.68L8.18-4.562a6.781,6.781,0,0,1-1.5,3.551A3.63,3.63,0,0,1,3.789.156ZM6.438-8.1q0-1.552-1.094-1.606-1.578-.07-2.008,2.4L2.945-4.674A9.494,9.494,0,0,0,2.82-3.3Q2.781-1.719,3.906-1.664q1.586.1,2.016-2.472l.414-2.776A8.178,8.178,0,0,0,6.438-8.1ZM9.227,2.852,8.063,2.219l.57-.914a4.9,4.9,0,0,0,.641-1.57l.289-1.656h1.859L11.2-.484A5.172,5.172,0,0,1,9.227,2.852ZM20.594-11.5l-.172,1.867-.43.008a4.28,4.28,0,0,0-3.867,2.953,3.049,3.049,0,0,1,2.289-.93,2.518,2.518,0,0,1,1.559.516,2.868,2.868,0,0,1,.934,1.367A4.677,4.677,0,0,1,21.117-3.8a4.54,4.54,0,0,1-.668,2.043,4.039,4.039,0,0,1-1.5,1.438,3.915,3.915,0,0,1-2.008.488A3.276,3.276,0,0,1,15.02-.465,3.391,3.391,0,0,1,13.852-2.1a5.156,5.156,0,0,1-.242-2.266l.086-.7a7.646,7.646,0,0,1,2.152-4.684A6.109,6.109,0,0,1,20.3-11.5Zm-2.93,5.7a1.734,1.734,0,0,0-1.023.282,2.541,2.541,0,0,0-.75.759l-.1.7a5.964,5.964,0,0,0-.031.767,2.062,2.062,0,0,0,.336,1.182A1.069,1.069,0,0,0,17-1.656a1.5,1.5,0,0,0,1.055-.376,2.33,2.33,0,0,0,.7-1.072,3.145,3.145,0,0,0,.148-1.37,1.68,1.68,0,0,0-.395-.967A1.117,1.117,0,0,0,17.664-5.8ZM30.93-10,25.148,0h-2.43l5.766-9.555H23.047l.289-1.82h7.8ZM34.5-3.367l-1.023.891L33.047,0h-2.2l2.078-12h2.211L33.992-5.484l.43-.461L36.93-8.453h2.828l-3.7,3.633L38.414,0H36ZM44.234-1.93a3,3,0,0,0,1.492-1.523,10.563,10.563,0,0,0,.789-3.43,7.066,7.066,0,0,0,.039-1.062q-.125-1.617-1.328-1.672a1.8,1.8,0,0,0-1.535.691,4.341,4.341,0,0,0-.836,2.176q-.215,1.438-.254,1.941a9.019,9.019,0,0,0-.023.988q.031,1.469.883,1.883L43.164,0h-3.9l.352-1.906,1.633-.008a7.176,7.176,0,0,1-1.062-3.031,7.877,7.877,0,0,1,.164-2.1A5.992,5.992,0,0,1,41.313-9.4,5,5,0,0,1,43.074-11a4.5,4.5,0,0,1,2.277-.527,3.779,3.779,0,0,1,2.129.66,3.625,3.625,0,0,1,1.313,1.734,5.031,5.031,0,0,1,.262,2.41l-.07.547a6.113,6.113,0,0,1-2.547,4.3l1.672-.039L47.773,0H43.938Z" transform="translate(572.051 7113)" fill="#12263f"/>
  </g>
</svg>
