<svg xmlns="http://www.w3.org/2000/svg" width="547.821" height="230.551" viewBox="0 0 547.821 230.551">
  <g id="Grupo_1108809" data-name="Grupo 1108809" transform="translate(-532.2 -7308.211)">
    <path id="Trazado_899048" data-name="Trazado 899048" d="M-4069.051-4424.738v-90.551h500.477v90.551" transform="translate(4626.051 11825)" fill="none" stroke="#000" stroke-width="3"/>
    <path id="Trazado_899049" data-name="Trazado 899049" d="M-4069.051-4515.289v90.551h500.477v-90.551" transform="translate(4626.051 11962)" fill="none" stroke="#000" stroke-width="3"/>
    <path id="Trazado_899050" data-name="Trazado 899050" d="M-3967.051-7206.729v90.551" transform="translate(4777.051 14516.439)" fill="none" stroke="#000" stroke-width="3"/>
    <path id="Trazado_899051" data-name="Trazado 899051" d="M-3967.051-7206.729v90.551" transform="translate(4777.051 14653.439)" fill="none" stroke="#000" stroke-width="3"/>
    <path id="Trazado_899052" data-name="Trazado 899052" d="M-4249.752-9209.859h14.453l6.706-16.7,4.688,26.589,6.9-23.133,4.063,23.133,8.794-23.133,6.224,13.239h10.516" transform="translate(-8399.966 11639.141) rotate(90)" fill="none" stroke="red" stroke-width="3"/>
    <path id="Trazado_899053" data-name="Trazado 899053" d="M-4249.752-9209.859h14.453l6.706-16.7,4.688,26.589,6.9-23.133,4.063,23.133,8.794-23.133,6.224,13.239h10.516" transform="translate(-8151.966 11639.141) rotate(90)" fill="none" stroke="red" stroke-width="3"/>
    <g id="Grupo_1108601" data-name="Grupo 1108601" transform="translate(-38.85 2920.658)">
      <path id="Trazado_899010" data-name="Trazado 899010" d="M-7827.068-9340.49h26.643" transform="translate(8408.623 13842.346)" fill="none" stroke="#ff2c29" stroke-width="3"/>
      <path id="Trazado_899011" data-name="Trazado 899011" d="M-7827.068-9340.49h39.772" transform="translate(8401.623 13835.094)" fill="none" stroke="#ff2c29" stroke-width="3"/>
      <path id="Trazado_899012" data-name="Trazado 899012" d="M-7827.067-9340.49h47.8" transform="translate(8398.117 13849.598)" fill="none" stroke="#ff2c29" stroke-width="2"/>
      <path id="Trazado_899013" data-name="Trazado 899013" d="M-7827.068-9340.49h26.643" transform="translate(8408.623 13856.85)" fill="none" stroke="#ff2c29" stroke-width="3"/>
    </g>
    <path id="Trazado_899278" data-name="Trazado 899278" d="M5.492-4.6H2.82V0H1.313V-11.375H5.078a4.457,4.457,0,0,1,2.957.875A3.148,3.148,0,0,1,9.07-7.953,3.062,3.062,0,0,1,8.5-6.1a3.428,3.428,0,0,1-1.6,1.18L9.57-.094V0H7.961ZM2.82-5.828h2.3A2.6,2.6,0,0,0,6.9-6.407a1.959,1.959,0,0,0,.66-1.55,2.062,2.062,0,0,0-.629-1.62,2.663,2.663,0,0,0-1.816-.571H2.82ZM12.516,0H11.07V-8.453h1.445ZM10.953-10.7a.863.863,0,0,1,.215-.594.807.807,0,0,1,.637-.242.819.819,0,0,1,.641.242.854.854,0,0,1,.219.594.826.826,0,0,1-.219.586.834.834,0,0,1-.641.234.821.821,0,0,1-.637-.234A.834.834,0,0,1,10.953-10.7ZM16.188-1.18h4.945V0H14.422V-1.062l4.664-6.2H14.492v-1.2H20.9V-7.43ZM22.406-4.3a4.961,4.961,0,0,1,.914-3.152,2.962,2.962,0,0,1,2.453-1.16A2.96,2.96,0,0,1,28.141-7.6l.063-.852h1.328V3.25H28.086V-.781a3.033,3.033,0,0,1-2.328.938,2.915,2.915,0,0,1-2.441-1.191,5.072,5.072,0,0,1-.91-3.16Zm1.445.164a3.761,3.761,0,0,0,.613,2.281,1.951,1.951,0,0,0,1.652.828,2.164,2.164,0,0,0,1.969-1.141V-6.3a2.171,2.171,0,0,0-1.953-1.117,1.965,1.965,0,0,0-1.664.832A4.094,4.094,0,0,0,23.852-4.133Zm18.57-2.227H35.906V-7.617h6.516Zm0,3.242H35.906v-1.25h6.516ZM55.859,0H48.406V-1.039l3.938-4.375a9.355,9.355,0,0,0,1.207-1.613,2.693,2.693,0,0,0,.332-1.285,2.041,2.041,0,0,0-.539-1.461,1.885,1.885,0,0,0-1.437-.57,2.232,2.232,0,0,0-1.676.613,2.343,2.343,0,0,0-.6,1.707H48.188A3.355,3.355,0,0,1,49.2-10.562a3.751,3.751,0,0,1,2.707-.969,3.6,3.6,0,0,1,2.508.832,2.838,2.838,0,0,1,.922,2.215q0,1.68-2.141,4l-3.047,3.3h5.711Zm4.8-5.289L59.266-3.844V0h-1.5V-11.375h1.5V-5.75l5.055-5.625h1.813L61.656-6.352,66.484,0h-1.8ZM72.234-1.266a2.4,2.4,0,0,0,1.68-1.321,6.349,6.349,0,0,0,.625-2.94V-6.575a4.389,4.389,0,0,0-.758-2.768A2.5,2.5,0,0,0,71.7-10.3a2.465,2.465,0,0,0-2.07.977,4.464,4.464,0,0,0-.75,2.768v.884A6.479,6.479,0,0,0,69.5-2.642a2.464,2.464,0,0,0,1.746,1.376V0H67.4V-1.227h1.727a5.5,5.5,0,0,1-1.3-2,6.715,6.715,0,0,1-.469-2.465v-.867a5.891,5.891,0,0,1,.551-2.594,4.149,4.149,0,0,1,1.543-1.762,4.152,4.152,0,0,1,2.25-.621,4.178,4.178,0,0,1,2.238.609A4.143,4.143,0,0,1,75.484-9.2a5.769,5.769,0,0,1,.578,2.516v1.016a6.675,6.675,0,0,1-.469,2.449,5.5,5.5,0,0,1-1.3,2h1.719V0H72.234Z" transform="translate(842.051 7419)" fill="#12263f"/>
    <path id="Trazado_899279" data-name="Trazado 899279" d="M2.789-3.216A4.663,4.663,0,0,1,3-4.683a3.761,3.761,0,0,1,.8-1.193L4.82-6.929a2.36,2.36,0,0,0,.656-1.59A1.815,1.815,0,0,0,5.047-9.8a1.62,1.62,0,0,0-1.25-.464,1.881,1.881,0,0,0-1.281.422,1.426,1.426,0,0,0-.484,1.133H.586a2.632,2.632,0,0,1,.9-2.043A3.374,3.374,0,0,1,3.8-11.531a3.185,3.185,0,0,1,2.3.792,2.87,2.87,0,0,1,.824,2.172A3.926,3.926,0,0,1,5.656-5.876L4.8-5.034a2.623,2.623,0,0,0-.57,1.818ZM2.727-.734a.861.861,0,0,1,.215-.6.81.81,0,0,1,.637-.241.822.822,0,0,1,.641.241.852.852,0,0,1,.219.6.824.824,0,0,1-.219.588.837.837,0,0,1-.641.233.824.824,0,0,1-.637-.233A.832.832,0,0,1,2.727-.734Z" transform="translate(587.051 7419)" fill="#12263f"/>
    <path id="Trazado_899280" data-name="Trazado 899280" d="M5.492-4.6H2.82V0H1.313V-11.375H5.078a4.457,4.457,0,0,1,2.957.875A3.148,3.148,0,0,1,9.07-7.953,3.062,3.062,0,0,1,8.5-6.1a3.428,3.428,0,0,1-1.6,1.18L9.57-.094V0H7.961ZM2.82-5.828h2.3A2.6,2.6,0,0,0,6.9-6.407a1.959,1.959,0,0,0,.66-1.55,2.062,2.062,0,0,0-.629-1.62,2.663,2.663,0,0,0-1.816-.571H2.82ZM10.594-4.3a4.952,4.952,0,0,1,.922-3.129A2.915,2.915,0,0,1,13.93-8.609a2.932,2.932,0,0,1,2.352,1.016V-12h1.445V0H16.4l-.07-.906A2.943,2.943,0,0,1,13.914.156a2.887,2.887,0,0,1-2.395-1.2,5.008,5.008,0,0,1-.926-3.141Zm1.445.164a3.749,3.749,0,0,0,.594,2.25,1.92,1.92,0,0,0,1.641.813A2.108,2.108,0,0,0,16.281-2.3V-6.187a2.125,2.125,0,0,0-1.992-1.2,1.929,1.929,0,0,0-1.656.82A4.128,4.128,0,0,0,12.039-4.133ZM23.477.156a3.693,3.693,0,0,1-2.8-1.129A4.19,4.19,0,0,1,19.6-3.992v-.266a5.073,5.073,0,0,1,.48-2.246,3.748,3.748,0,0,1,1.344-1.547A3.378,3.378,0,0,1,23.3-8.609a3.166,3.166,0,0,1,2.563,1.086,4.7,4.7,0,0,1,.914,3.109v.6H21.047a3,3,0,0,0,.73,2.02,2.3,2.3,0,0,0,1.777.77,2.517,2.517,0,0,0,1.3-.312,3.259,3.259,0,0,0,.93-.828l.883.688A3.55,3.55,0,0,1,23.477.156ZM23.3-7.422a1.928,1.928,0,0,0-1.469.637A3.1,3.1,0,0,0,21.094-5h4.234v-.109a2.753,2.753,0,0,0-.594-1.707A1.815,1.815,0,0,0,23.3-7.422Zm9.234.266a4.331,4.331,0,0,0-.711-.055A1.9,1.9,0,0,0,29.891-6V0H28.445V-8.453h1.406l.023.977a2.251,2.251,0,0,1,2.016-1.133,1.477,1.477,0,0,1,.641.109Zm11.9.8H37.914V-7.617H44.43Zm0,3.242H37.914v-1.25H44.43ZM55.164,0H53.711V-9.633L50.8-8.562V-9.875l4.141-1.555h.227Zm7.5-5.289L61.273-3.844V0h-1.5V-11.375h1.5V-5.75l5.055-5.625h1.813L63.664-6.352,68.492,0H66.7ZM74.242-1.266a2.4,2.4,0,0,0,1.68-1.321,6.349,6.349,0,0,0,.625-2.94V-6.575a4.389,4.389,0,0,0-.758-2.768,2.5,2.5,0,0,0-2.078-.962,2.465,2.465,0,0,0-2.07.977,4.464,4.464,0,0,0-.75,2.768v.884A6.479,6.479,0,0,0,71.5-2.642,2.464,2.464,0,0,0,73.25-1.266V0H69.406V-1.227h1.727a5.5,5.5,0,0,1-1.3-2,6.715,6.715,0,0,1-.469-2.465v-.867a5.891,5.891,0,0,1,.551-2.594,4.149,4.149,0,0,1,1.543-1.762,4.152,4.152,0,0,1,2.25-.621,4.178,4.178,0,0,1,2.238.609A4.143,4.143,0,0,1,77.492-9.2a5.769,5.769,0,0,1,.578,2.516v1.016A6.675,6.675,0,0,1,77.6-3.223a5.5,5.5,0,0,1-1.3,2h1.719V0H74.242Z" transform="translate(962.051 7419)" fill="#12263f"/>
  </g>
</svg>
