<svg xmlns="http://www.w3.org/2000/svg" width="547.821" height="230.551" viewBox="0 0 547.821 230.551">
  <g id="Grupo_1108799" data-name="Grupo 1108799" transform="translate(2615.851 4450.789)">
    <path id="Trazado_899048" data-name="Trazado 899048" d="M-4069.051-4424.738v-90.551h500.477v90.551" transform="translate(1478 66)" fill="none" stroke="#000" stroke-width="3"/>
    <path id="Trazado_899049" data-name="Trazado 899049" d="M-4069.051-4515.289v90.551h500.477v-90.551" transform="translate(1478 203)" fill="none" stroke="#000" stroke-width="3"/>
    <path id="Trazado_899050" data-name="Trazado 899050" d="M-3967.051-7206.729v90.551" transform="translate(1629 2757.439)" fill="none" stroke="#000" stroke-width="3"/>
    <path id="Trazado_899051" data-name="Trazado 899051" d="M-3967.051-7206.729v90.551" transform="translate(1629 2894.439)" fill="none" stroke="#000" stroke-width="3"/>
    <path id="Trazado_899052" data-name="Trazado 899052" d="M-4249.752-9209.859h14.453l6.706-16.7,4.688,26.589,6.9-23.133,4.063,23.133,8.794-23.133,6.224,13.239h10.516" transform="translate(-11548.017 -119.859) rotate(90)" fill="none" stroke="red" stroke-width="3"/>
    <path id="Trazado_899053" data-name="Trazado 899053" d="M-4249.752-9209.859h14.453l6.706-16.7,4.688,26.589,6.9-23.133,4.063,23.133,8.794-23.133,6.224,13.239h10.516" transform="translate(-11300.017 -119.859) rotate(90)" fill="none" stroke="red" stroke-width="3"/>
    <g id="Grupo_1108601" data-name="Grupo 1108601" transform="translate(-3186.9 -8838.342)">
      <path id="Trazado_899010" data-name="Trazado 899010" d="M-7827.068-9340.49h26.643" transform="translate(8408.623 13842.346)" fill="none" stroke="#ff2c29" stroke-width="3"/>
      <path id="Trazado_899011" data-name="Trazado 899011" d="M-7827.068-9340.49h39.772" transform="translate(8401.623 13835.094)" fill="none" stroke="#ff2c29" stroke-width="3"/>
      <path id="Trazado_899012" data-name="Trazado 899012" d="M-7827.067-9340.49h47.8" transform="translate(8398.117 13849.598)" fill="none" stroke="#ff2c29" stroke-width="2"/>
      <path id="Trazado_899013" data-name="Trazado 899013" d="M-7827.068-9340.49h26.643" transform="translate(8408.623 13856.85)" fill="none" stroke="#ff2c29" stroke-width="3"/>
    </g>
    <path id="Trazado_899231" data-name="Trazado 899231" d="M7.594-5.023H2.82V0H1.32V-11.375H8.367v1.227H2.82v3.9H7.594ZM11.508,0H10.063V-12h1.445Zm7.844,0H17.906V-8.453h1.445ZM17.789-10.7A.863.863,0,0,1,18-11.289a.807.807,0,0,1,.637-.242.819.819,0,0,1,.641.242.854.854,0,0,1,.219.594.826.826,0,0,1-.219.586.834.834,0,0,1-.641.234A.821.821,0,0,1,18-10.109.834.834,0,0,1,17.789-10.7ZM23.023-1.18h4.945V0H21.258V-1.062l4.664-6.2H21.328v-1.2h6.406V-7.43ZM29.242-4.3a4.961,4.961,0,0,1,.914-3.152,2.962,2.962,0,0,1,2.453-1.16A2.96,2.96,0,0,1,34.977-7.6l.063-.852h1.328V3.25H34.922V-.781a3.033,3.033,0,0,1-2.328.938,2.915,2.915,0,0,1-2.441-1.191,5.072,5.072,0,0,1-.91-3.16Zm1.445.164A3.761,3.761,0,0,0,31.3-1.852a1.951,1.951,0,0,0,1.652.828,2.164,2.164,0,0,0,1.969-1.141V-6.3a2.171,2.171,0,0,0-1.953-1.117A1.965,1.965,0,0,0,31.3-6.59,4.094,4.094,0,0,0,30.688-4.133ZM5.7,15H4.242V5.367L1.328,6.438V5.125L5.469,3.57H5.7Zm4.414-.758a.905.905,0,0,1,.223-.625.848.848,0,0,1,.668-.25.874.874,0,0,1,.676.25.887.887,0,0,1,.23.625.839.839,0,0,1-.23.6.89.89,0,0,1-.676.242.8.8,0,0,1-.891-.844Zm11.164-4.094a6.61,6.61,0,0,1-.867,3.773A3.084,3.084,0,0,1,17.7,15.156,3.107,3.107,0,0,1,15,13.949a6.274,6.274,0,0,1-.906-3.605V8.414a6.463,6.463,0,0,1,.867-3.727A3.108,3.108,0,0,1,17.68,3.469a3.136,3.136,0,0,1,2.7,1.176,6.237,6.237,0,0,1,.891,3.629ZM19.828,8.172A5.3,5.3,0,0,0,19.313,5.5a1.775,1.775,0,0,0-1.633-.84,1.751,1.751,0,0,0-1.617.836,5.171,5.171,0,0,0-.523,2.57v2.313a5.381,5.381,0,0,0,.535,2.723,1.771,1.771,0,0,0,1.621.879,1.747,1.747,0,0,0,1.59-.828,5.186,5.186,0,0,0,.543-2.609Zm6.563,1.539L25,11.156V15H23.5V3.625H25V9.25l5.055-5.625h1.813L27.391,8.648,32.219,15h-1.8Zm11.578,4.023a2.4,2.4,0,0,0,1.68-1.321,6.349,6.349,0,0,0,.625-2.94V8.425a4.389,4.389,0,0,0-.758-2.768A2.5,2.5,0,0,0,37.438,4.7a2.465,2.465,0,0,0-2.07.977,4.464,4.464,0,0,0-.75,2.768v.884a6.479,6.479,0,0,0,.613,3.034,2.464,2.464,0,0,0,1.746,1.376V15H33.133V13.773h1.727a5.5,5.5,0,0,1-1.3-2,6.715,6.715,0,0,1-.469-2.465V8.445a5.891,5.891,0,0,1,.551-2.594A4.2,4.2,0,0,1,41.219,5.8,5.769,5.769,0,0,1,41.8,8.313V9.328a6.675,6.675,0,0,1-.469,2.449,5.5,5.5,0,0,1-1.3,2H41.75V15H37.969Z" transform="translate(-2306 -4340)" fill="#12263f"/>
    <path id="Trazado_899232" data-name="Trazado 899232" d="M2.789-3.216A4.663,4.663,0,0,1,3-4.683a3.761,3.761,0,0,1,.8-1.193L4.82-6.929a2.36,2.36,0,0,0,.656-1.59A1.815,1.815,0,0,0,5.047-9.8a1.62,1.62,0,0,0-1.25-.464,1.881,1.881,0,0,0-1.281.422,1.426,1.426,0,0,0-.484,1.133H.586a2.632,2.632,0,0,1,.9-2.043A3.374,3.374,0,0,1,3.8-11.531a3.185,3.185,0,0,1,2.3.792,2.87,2.87,0,0,1,.824,2.172A3.926,3.926,0,0,1,5.656-5.876L4.8-5.034a2.623,2.623,0,0,0-.57,1.818ZM2.727-.734a.861.861,0,0,1,.215-.6.81.81,0,0,1,.637-.241.822.822,0,0,1,.641.241.852.852,0,0,1,.219.6.824.824,0,0,1-.219.588.837.837,0,0,1-.641.233.824.824,0,0,1-.637-.233A.832.832,0,0,1,2.727-.734Z" transform="translate(-2561 -4340)" fill="#12263f"/>
    <path id="Trazado_899233" data-name="Trazado 899233" d="M7.594-5.023H2.82V0H1.32V-11.375H8.367v1.227H2.82v3.9H7.594ZM11.508,0H10.063V-12h1.445ZM17.43-4.3a4.952,4.952,0,0,1,.922-3.129,2.915,2.915,0,0,1,2.414-1.184,2.932,2.932,0,0,1,2.352,1.016V-12h1.445V0H23.234l-.07-.906A2.943,2.943,0,0,1,20.75.156a2.887,2.887,0,0,1-2.395-1.2,5.008,5.008,0,0,1-.926-3.141Zm1.445.164a3.749,3.749,0,0,0,.594,2.25,1.92,1.92,0,0,0,1.641.813A2.108,2.108,0,0,0,23.117-2.3V-6.187a2.125,2.125,0,0,0-1.992-1.2,1.929,1.929,0,0,0-1.656.82A4.128,4.128,0,0,0,18.875-4.133ZM30.313.156a3.693,3.693,0,0,1-2.8-1.129,4.19,4.19,0,0,1-1.078-3.02v-.266a5.073,5.073,0,0,1,.48-2.246,3.748,3.748,0,0,1,1.344-1.547,3.378,3.378,0,0,1,1.871-.559A3.166,3.166,0,0,1,32.7-7.523a4.7,4.7,0,0,1,.914,3.109v.6H27.883a3,3,0,0,0,.73,2.02,2.3,2.3,0,0,0,1.777.77,2.517,2.517,0,0,0,1.3-.312,3.259,3.259,0,0,0,.93-.828l.883.688A3.55,3.55,0,0,1,30.313.156Zm-.18-7.578a1.928,1.928,0,0,0-1.469.637A3.1,3.1,0,0,0,27.93-5h4.234v-.109a2.753,2.753,0,0,0-.594-1.707A1.815,1.815,0,0,0,30.133-7.422Zm9.234.266a4.331,4.331,0,0,0-.711-.055A1.9,1.9,0,0,0,36.727-6V0H35.281V-8.453h1.406l.023.977a2.251,2.251,0,0,1,2.016-1.133,1.477,1.477,0,0,1,.641.109ZM1.609,9.3l.578-5.672H8.016V4.961h-4.6l-.344,3.1a3.671,3.671,0,0,1,1.9-.492A3.138,3.138,0,0,1,7.438,8.6a4.026,4.026,0,0,1,.914,2.777,3.886,3.886,0,0,1-.949,2.77A3.46,3.46,0,0,1,4.75,15.156a3.6,3.6,0,0,1-2.461-.836A3.337,3.337,0,0,1,1.2,12.008H2.57a2.3,2.3,0,0,0,.7,1.473,2.162,2.162,0,0,0,1.484.5,1.95,1.95,0,0,0,1.582-.687,2.874,2.874,0,0,0,.574-1.9,2.638,2.638,0,0,0-.621-1.832,2.113,2.113,0,0,0-1.652-.691,2.383,2.383,0,0,0-1.484.414l-.383.313Zm15.453.852a6.61,6.61,0,0,1-.867,3.773,3.084,3.084,0,0,1-2.711,1.234,3.107,3.107,0,0,1-2.7-1.207,6.274,6.274,0,0,1-.906-3.605V8.414a6.463,6.463,0,0,1,.867-3.727,3.108,3.108,0,0,1,2.719-1.219,3.136,3.136,0,0,1,2.7,1.176,6.237,6.237,0,0,1,.891,3.629ZM15.617,8.172A5.3,5.3,0,0,0,15.1,5.5a1.775,1.775,0,0,0-1.633-.84,1.751,1.751,0,0,0-1.617.836,5.171,5.171,0,0,0-.523,2.57v2.313a5.381,5.381,0,0,0,.535,2.723,1.771,1.771,0,0,0,1.621.879,1.747,1.747,0,0,0,1.59-.828,5.186,5.186,0,0,0,.543-2.609Zm10.43,1.977a6.61,6.61,0,0,1-.867,3.773,3.084,3.084,0,0,1-2.711,1.234,3.107,3.107,0,0,1-2.7-1.207,6.274,6.274,0,0,1-.906-3.605V8.414a6.463,6.463,0,0,1,.867-3.727,3.108,3.108,0,0,1,2.719-1.219,3.136,3.136,0,0,1,2.7,1.176,6.237,6.237,0,0,1,.891,3.629ZM24.6,8.172A5.3,5.3,0,0,0,24.086,5.5a1.775,1.775,0,0,0-1.633-.84,1.751,1.751,0,0,0-1.617.836,5.171,5.171,0,0,0-.523,2.57v2.313a5.381,5.381,0,0,0,.535,2.723,1.771,1.771,0,0,0,1.621.879,1.747,1.747,0,0,0,1.59-.828,5.186,5.186,0,0,0,.543-2.609Zm8.109,5.563a2.4,2.4,0,0,0,1.68-1.321,6.349,6.349,0,0,0,.625-2.94V8.425a4.389,4.389,0,0,0-.758-2.768A2.5,2.5,0,0,0,32.18,4.7a2.465,2.465,0,0,0-2.07.977,4.464,4.464,0,0,0-.75,2.768v.884a6.479,6.479,0,0,0,.613,3.034,2.464,2.464,0,0,0,1.746,1.376V15H27.875V13.773H29.6a5.5,5.5,0,0,1-1.3-2,6.715,6.715,0,0,1-.469-2.465V8.445a5.891,5.891,0,0,1,.551-2.594A4.2,4.2,0,0,1,35.961,5.8a5.769,5.769,0,0,1,.578,2.516V9.328a6.675,6.675,0,0,1-.469,2.449,5.5,5.5,0,0,1-1.3,2h1.719V15H32.711Z" transform="translate(-2157 -4340)" fill="#12263f"/>
  </g>
</svg>
