<svg xmlns="http://www.w3.org/2000/svg" width="295" height="69" viewBox="0 0 295 69">
  <g id="Grupo_1108799" data-name="Grupo 1108799" transform="translate(5113 3795)">
    <path id="Trazado_899231" data-name="Trazado 899231" d="M0,0H295V69H0Z" transform="translate(-5113 -3795)" fill="#f4c0c0"/>
    <path id="Trazado_899232" data-name="Trazado 899232" d="M4.734-2.844l3.828-8.531h2.625L5.57,0H3.18L1.133-11.375H3.594ZM22.18-5.828H15.391l.328-1.844h6.789Zm-.586,3.383H14.8l.328-1.844h6.789ZM32.117-4.164H30.258L29.531,0H27.242l1.977-11.375,3.766.008a4.289,4.289,0,0,1,2.91.891A2.817,2.817,0,0,1,36.8-8a3.574,3.574,0,0,1-2.5,3.258L35.9-.125V0H33.461Zm-1.531-1.9,1.7.016a2.386,2.386,0,0,0,1.5-.488,1.933,1.933,0,0,0,.707-1.285,1.473,1.473,0,0,0-.242-1.187,1.442,1.442,0,0,0-1.117-.461L31.18-9.477ZM44.07-7.551l-2.281-.718L42.453-9.6l2.242,1,.336-2.778h1.5l-.625,2.708,2.4-.921.2,1.506-2.562.695L47.2-5.262l-1.258.813-.984-2.289L43.227-4.566,42.063-5.5ZM54.664,0H52.375l1.969-11.375h2.289ZM68.617-5.828H61.828l.328-1.844h6.789Zm-.586,3.383H61.242l.328-1.844h6.789Zm8.781-4.242,1.055.008a2.055,2.055,0,0,0,1.348-.445,1.737,1.737,0,0,0,.629-1.2A1.261,1.261,0,0,0,79.6-9.332a1.23,1.23,0,0,0-.961-.395,1.642,1.642,0,0,0-1.1.348,1.494,1.494,0,0,0-.559.941l-2.2.016a2.952,2.952,0,0,1,1.184-2.254,4.165,4.165,0,0,1,2.707-.863,3.716,3.716,0,0,1,2.547.9,2.739,2.739,0,0,1,.852,2.3A3.078,3.078,0,0,1,80-5.8a2.381,2.381,0,0,1,1.121,1.043,2.826,2.826,0,0,1,.309,1.5A3.267,3.267,0,0,1,80.8-1.437a3.7,3.7,0,0,1-1.547,1.2,4.962,4.962,0,0,1-2.094.395,3.557,3.557,0,0,1-2.484-.91,3.03,3.03,0,0,1-.945-2.363h2.188a1.412,1.412,0,0,0,.355,1.035,1.385,1.385,0,0,0,1.035.418A1.933,1.933,0,0,0,78.617-2.1a1.761,1.761,0,0,0,.641-1.179,1.428,1.428,0,0,0-.277-1.2,1.553,1.553,0,0,0-1.152-.439l-1.3-.008Zm8.984,0,1.055.008A2.055,2.055,0,0,0,88.2-7.125a1.737,1.737,0,0,0,.629-1.2,1.261,1.261,0,0,0-.242-1.012,1.23,1.23,0,0,0-.961-.395,1.642,1.642,0,0,0-1.1.348,1.494,1.494,0,0,0-.559.941l-2.2.016a2.952,2.952,0,0,1,1.184-2.254,4.165,4.165,0,0,1,2.707-.863,3.716,3.716,0,0,1,2.547.9,2.739,2.739,0,0,1,.852,2.3A3.078,3.078,0,0,1,88.984-5.8a2.381,2.381,0,0,1,1.121,1.043,2.826,2.826,0,0,1,.309,1.5,3.267,3.267,0,0,1-.633,1.813,3.7,3.7,0,0,1-1.547,1.2,4.962,4.962,0,0,1-2.094.395,3.557,3.557,0,0,1-2.484-.91,3.03,3.03,0,0,1-.945-2.363H84.9a1.412,1.412,0,0,0,.355,1.035,1.385,1.385,0,0,0,1.035.418A1.933,1.933,0,0,0,87.6-2.1a1.761,1.761,0,0,0,.641-1.179,1.428,1.428,0,0,0-.277-1.2,1.553,1.553,0,0,0-1.152-.439l-1.3-.008Zm8.984,0,1.055.008a2.055,2.055,0,0,0,1.348-.445,1.737,1.737,0,0,0,.629-1.2,1.261,1.261,0,0,0-.242-1.012,1.23,1.23,0,0,0-.961-.395,1.642,1.642,0,0,0-1.1.348,1.494,1.494,0,0,0-.559.941l-2.2.016a2.952,2.952,0,0,1,1.184-2.254,4.165,4.165,0,0,1,2.707-.863,3.716,3.716,0,0,1,2.547.9,2.739,2.739,0,0,1,.852,2.3A3.078,3.078,0,0,1,97.969-5.8,2.381,2.381,0,0,1,99.09-4.754a2.826,2.826,0,0,1,.309,1.5,3.267,3.267,0,0,1-.633,1.813,3.7,3.7,0,0,1-1.547,1.2,4.962,4.962,0,0,1-2.094.395,3.557,3.557,0,0,1-2.484-.91A3.03,3.03,0,0,1,91.7-3.117h2.188a1.412,1.412,0,0,0,.355,1.035,1.385,1.385,0,0,0,1.035.418A1.933,1.933,0,0,0,96.586-2.1a1.761,1.761,0,0,0,.641-1.179,1.428,1.428,0,0,0-.277-1.2A1.553,1.553,0,0,0,95.8-4.914l-1.3-.008Zm7.25,4.359a1.22,1.22,0,0,1,.895.324,1.111,1.111,0,0,1,.371.855,1.151,1.151,0,0,1-.344.879,1.194,1.194,0,0,1-.883.363,1.2,1.2,0,0,1-.883-.312,1.149,1.149,0,0,1-.375-.852,1.161,1.161,0,0,1,.336-.883A1.238,1.238,0,0,1,102.031-2.328Zm6.32-4.359,1.055.008a2.055,2.055,0,0,0,1.348-.445,1.737,1.737,0,0,0,.629-1.2,1.261,1.261,0,0,0-.242-1.012,1.23,1.23,0,0,0-.961-.395,1.642,1.642,0,0,0-1.1.348,1.494,1.494,0,0,0-.559.941l-2.2.016a2.952,2.952,0,0,1,1.184-2.254,4.165,4.165,0,0,1,2.707-.863,3.716,3.716,0,0,1,2.547.9,2.739,2.739,0,0,1,.852,2.3,3.078,3.078,0,0,1-2.07,2.547,2.381,2.381,0,0,1,1.121,1.043,2.826,2.826,0,0,1,.309,1.5,3.267,3.267,0,0,1-.633,1.813,3.7,3.7,0,0,1-1.547,1.2A4.962,4.962,0,0,1,108.7.156a3.557,3.557,0,0,1-2.484-.91,3.03,3.03,0,0,1-.945-2.363h2.188a1.412,1.412,0,0,0,.355,1.035,1.385,1.385,0,0,0,1.035.418,1.933,1.933,0,0,0,1.313-.435,1.761,1.761,0,0,0,.641-1.179,1.428,1.428,0,0,0-.277-1.2,1.553,1.553,0,0,0-1.152-.439l-1.3-.008Zm8.984,0,1.055.008a2.055,2.055,0,0,0,1.348-.445,1.737,1.737,0,0,0,.629-1.2,1.261,1.261,0,0,0-.242-1.012,1.23,1.23,0,0,0-.961-.395,1.642,1.642,0,0,0-1.1.348,1.494,1.494,0,0,0-.559.941l-2.2.016a2.952,2.952,0,0,1,1.184-2.254,4.165,4.165,0,0,1,2.707-.863,3.716,3.716,0,0,1,2.547.9,2.739,2.739,0,0,1,.852,2.3,3.078,3.078,0,0,1-2.07,2.547,2.381,2.381,0,0,1,1.121,1.043,2.826,2.826,0,0,1,.309,1.5,3.267,3.267,0,0,1-.633,1.813,3.7,3.7,0,0,1-1.547,1.2,4.962,4.962,0,0,1-2.094.395,3.557,3.557,0,0,1-2.484-.91,3.03,3.03,0,0,1-.945-2.363h2.188a1.412,1.412,0,0,0,.355,1.035,1.385,1.385,0,0,0,1.035.418,1.933,1.933,0,0,0,1.313-.435,1.761,1.761,0,0,0,.641-1.179,1.428,1.428,0,0,0-.277-1.2,1.553,1.553,0,0,0-1.152-.439l-1.3-.008ZM128.07-1.93a3,3,0,0,0,1.492-1.523,10.563,10.563,0,0,0,.789-3.43,7.065,7.065,0,0,0,.039-1.062q-.125-1.617-1.328-1.672a1.8,1.8,0,0,0-1.535.691,4.341,4.341,0,0,0-.836,2.176q-.215,1.438-.254,1.941a9.021,9.021,0,0,0-.023.988q.031,1.469.883,1.883L127,0h-3.9l.352-1.906,1.633-.008a7.176,7.176,0,0,1-1.062-3.031,7.876,7.876,0,0,1,.164-2.1,5.992,5.992,0,0,1,.961-2.352A5,5,0,0,1,126.91-11a4.5,4.5,0,0,1,2.277-.527,3.779,3.779,0,0,1,2.129.66,3.625,3.625,0,0,1,1.313,1.734,5.031,5.031,0,0,1,.262,2.41l-.07.547a6.113,6.113,0,0,1-2.547,4.3l1.672-.039L131.609,0h-3.836Zm12.469-5.621-2.281-.718.664-1.327,2.242,1,.336-2.778H143l-.625,2.708,2.4-.921.2,1.506-2.562.695,1.258,2.125-1.258.813-.984-2.289L139.7-4.566l-1.164-.93ZM156.273-11.5,156.1-9.633l-.43.008A4.28,4.28,0,0,0,151.8-6.672a3.049,3.049,0,0,1,2.289-.93,2.518,2.518,0,0,1,1.559.516,2.868,2.868,0,0,1,.934,1.367A4.677,4.677,0,0,1,156.8-3.8a4.54,4.54,0,0,1-.668,2.043,4.039,4.039,0,0,1-1.5,1.438,3.915,3.915,0,0,1-2.008.488A3.276,3.276,0,0,1,150.7-.465,3.391,3.391,0,0,1,149.531-2.1a5.156,5.156,0,0,1-.242-2.266l.086-.7a7.646,7.646,0,0,1,2.152-4.684,6.109,6.109,0,0,1,4.449-1.746Zm-2.93,5.7a1.734,1.734,0,0,0-1.023.282,2.541,2.541,0,0,0-.75.759l-.1.7a5.964,5.964,0,0,0-.031.767,2.062,2.062,0,0,0,.336,1.182,1.069,1.069,0,0,0,.906.454,1.5,1.5,0,0,0,1.055-.376,2.33,2.33,0,0,0,.7-1.072,3.145,3.145,0,0,0,.148-1.37,1.68,1.68,0,0,0-.395-.967A1.117,1.117,0,0,0,153.344-5.8Zm11.023,3.461H160.4L159.227,0H156.7l6.078-11.375H164.9L167.063,0h-2.336Zm-3.031-1.9h2.742l-.641-4.234Zm18.656-1.586H173.2l.328-1.844h6.789Zm-.586,3.383h-6.789l.328-1.844h6.789ZM190.156,0h-2.2l1.5-8.656-2.766.836.344-1.93,4.75-1.641.289-.008Zm5.281-2.328a1.22,1.22,0,0,1,.895.324,1.111,1.111,0,0,1,.371.855,1.151,1.151,0,0,1-.344.879,1.194,1.194,0,0,1-.883.363,1.2,1.2,0,0,1-.883-.312,1.149,1.149,0,0,1-.375-.852,1.161,1.161,0,0,1,.336-.883A1.238,1.238,0,0,1,195.438-2.328Zm8.984-2.227a2.919,2.919,0,0,1-2.055.875,2.618,2.618,0,0,1-1.594-.5,2.88,2.88,0,0,1-.973-1.371,4.375,4.375,0,0,1-.223-1.9,4.716,4.716,0,0,1,.8-2.273,4.133,4.133,0,0,1,1.789-1.5,3.737,3.737,0,0,1,1.594-.3,2.925,2.925,0,0,1,2.242.984,4.19,4.19,0,0,1,.945,2.555,7.063,7.063,0,0,1-.023,1.1l-.086.672a7.587,7.587,0,0,1-2.121,4.656,6.149,6.149,0,0,1-4.457,1.68h-.164l.172-1.891h.117a4.212,4.212,0,0,0,2.531-.668A4.236,4.236,0,0,0,204.422-4.555ZM202.977-5.4a1.956,1.956,0,0,0,1.656-.959l.133-.944a6.307,6.307,0,0,0,.039-.741,2.247,2.247,0,0,0-.312-1.2,1,1,0,0,0-.859-.468,1.432,1.432,0,0,0-1.012.4,2.536,2.536,0,0,0-.68,1.119,3.519,3.519,0,0,0-.168,1.411,1.741,1.741,0,0,0,.371,1A1.059,1.059,0,0,0,202.977-5.4Zm10.43.844a2.919,2.919,0,0,1-2.055.875,2.618,2.618,0,0,1-1.594-.5,2.88,2.88,0,0,1-.973-1.371,4.375,4.375,0,0,1-.223-1.9,4.716,4.716,0,0,1,.8-2.273,4.133,4.133,0,0,1,1.789-1.5,3.737,3.737,0,0,1,1.594-.3,2.925,2.925,0,0,1,2.242.984,4.19,4.19,0,0,1,.945,2.555,7.063,7.063,0,0,1-.023,1.1l-.086.672A7.587,7.587,0,0,1,213.7-1.562a6.149,6.149,0,0,1-4.457,1.68h-.164l.172-1.891h.117a4.212,4.212,0,0,0,2.531-.668A4.236,4.236,0,0,0,213.406-4.555ZM211.961-5.4a1.956,1.956,0,0,0,1.656-.959l.133-.944a6.307,6.307,0,0,0,.039-.741,2.247,2.247,0,0,0-.312-1.2,1,1,0,0,0-.859-.468,1.432,1.432,0,0,0-1.012.4,2.536,2.536,0,0,0-.68,1.119,3.519,3.519,0,0,0-.168,1.411,1.741,1.741,0,0,0,.371,1A1.059,1.059,0,0,0,211.961-5.4Zm12.094,2.031-1.023.891L222.6,0h-2.2l2.078-12h2.211l-1.141,6.516.43-.461,2.508-2.508h2.828l-3.7,3.633L227.969,0h-2.414Zm9.422.523,3.828-8.531h2.625L234.313,0h-2.391l-2.047-11.375h2.461Z" transform="translate(-5088.102 -3755)" fill="#12263f"/>
  </g>
</svg>
