<svg xmlns="http://www.w3.org/2000/svg" width="295" height="69" viewBox="0 0 295 69">
  <g id="Grupo_1108806" data-name="Grupo 1108806" transform="translate(-180.051 -7745)">
    <path id="Trazado_899251" data-name="Trazado 899251" d="M0,0H295V69H0Z" transform="translate(180.051 7745)" fill="#f4c0c0"/>
    <path id="Trazado_899252" data-name="Trazado 899252" d="M4.734-2.844l3.828-8.531h2.625L5.57,0H3.18L1.133-11.375H3.594ZM22.18-5.828H15.391l.328-1.844h6.789Zm-.586,3.383H14.8l.328-1.844h6.789ZM32.117-4.164H30.258L29.531,0H27.242l1.977-11.375,3.766.008a4.289,4.289,0,0,1,2.91.891A2.817,2.817,0,0,1,36.8-8a3.574,3.574,0,0,1-2.5,3.258L35.9-.125V0H33.461Zm-1.531-1.9,1.7.016a2.386,2.386,0,0,0,1.5-.488,1.933,1.933,0,0,0,.707-1.285,1.473,1.473,0,0,0-.242-1.187,1.442,1.442,0,0,0-1.117-.461L31.18-9.477ZM44.07-7.551l-2.281-.718L42.453-9.6l2.242,1,.336-2.778h1.5l-.625,2.708,2.4-.921.2,1.506-2.562.695L47.2-5.262l-1.258.813-.984-2.289L43.227-4.566,42.063-5.5ZM54.664,0H52.375l1.969-11.375h2.289ZM68.617-5.828H61.828l.328-1.844h6.789Zm-.586,3.383H61.242l.328-1.844h6.789ZM77.3.156a2.884,2.884,0,0,1-2.281-1,4.205,4.205,0,0,1-.828-2.7A8.6,8.6,0,0,1,74.258-4.7l.32-2.133a6.638,6.638,0,0,1,1.508-3.531,3.652,3.652,0,0,1,2.883-1.164,2.9,2.9,0,0,1,2.285,1,4.161,4.161,0,0,1,.832,2.691,8.673,8.673,0,0,1-.062,1.164L81.7-4.562a6.781,6.781,0,0,1-1.5,3.551A3.63,3.63,0,0,1,77.3.156ZM79.953-8.1q0-1.552-1.094-1.606-1.578-.07-2.008,2.4l-.391,2.635A9.494,9.494,0,0,0,76.336-3.3Q76.3-1.719,77.422-1.664q1.586.1,2.016-2.472l.414-2.776A8.178,8.178,0,0,0,79.953-8.1ZM82.742,2.852l-1.164-.633.57-.914a4.9,4.9,0,0,0,.641-1.57l.289-1.656h1.859L84.711-.484A5.172,5.172,0,0,1,82.742,2.852ZM94.109-11.5l-.172,1.867-.43.008a4.28,4.28,0,0,0-3.867,2.953A3.049,3.049,0,0,1,91.93-7.6a2.518,2.518,0,0,1,1.559.516,2.868,2.868,0,0,1,.934,1.367A4.677,4.677,0,0,1,94.633-3.8a4.54,4.54,0,0,1-.668,2.043,4.039,4.039,0,0,1-1.5,1.438,3.915,3.915,0,0,1-2.008.488,3.276,3.276,0,0,1-1.918-.629A3.391,3.391,0,0,1,87.367-2.1a5.156,5.156,0,0,1-.242-2.266l.086-.7a7.646,7.646,0,0,1,2.152-4.684A6.109,6.109,0,0,1,93.813-11.5ZM91.18-5.8a1.734,1.734,0,0,0-1.023.282,2.541,2.541,0,0,0-.75.759l-.1.7a5.964,5.964,0,0,0-.031.767,2.062,2.062,0,0,0,.336,1.182,1.069,1.069,0,0,0,.906.454,1.5,1.5,0,0,0,1.055-.376,2.33,2.33,0,0,0,.7-1.072,3.145,3.145,0,0,0,.148-1.37,1.68,1.68,0,0,0-.395-.967A1.117,1.117,0,0,0,91.18-5.8ZM104.445-10,98.664,0h-2.43L102-9.555H96.563l.289-1.82h7.8Zm3.57,6.631-1.023.891L106.563,0h-2.2l2.078-12h2.211l-1.141,6.516.43-.461,2.508-2.508h2.828l-3.7,3.633L111.93,0h-2.414ZM117.75-1.93a3,3,0,0,0,1.492-1.523,10.563,10.563,0,0,0,.789-3.43,7.066,7.066,0,0,0,.039-1.062q-.125-1.617-1.328-1.672a1.8,1.8,0,0,0-1.535.691,4.341,4.341,0,0,0-.836,2.176q-.215,1.438-.254,1.941a9.021,9.021,0,0,0-.023.988q.031,1.469.883,1.883L116.68,0h-3.9l.352-1.906,1.633-.008A7.176,7.176,0,0,1,113.7-4.945a7.876,7.876,0,0,1,.164-2.1,5.992,5.992,0,0,1,.961-2.352A5,5,0,0,1,116.59-11a4.5,4.5,0,0,1,2.277-.527,3.779,3.779,0,0,1,2.129.66,3.625,3.625,0,0,1,1.313,1.734,5.031,5.031,0,0,1,.262,2.41l-.07.547a6.113,6.113,0,0,1-2.547,4.3l1.672-.039L121.289,0h-3.836Zm12.469-5.621-2.281-.718L128.6-9.6l2.242,1,.336-2.778h1.5l-.625,2.708,2.4-.921.2,1.506-2.562.695,1.258,2.125-1.258.813-.984-2.289-1.734,2.172-1.164-.93Zm9.2,1.926,1.531-5.75h6.219l-.3,1.883H142.5l-.75,2.461a3.016,3.016,0,0,1,1.641-.437,2.693,2.693,0,0,1,2.262,1.035,3.855,3.855,0,0,1,.676,2.73,4.423,4.423,0,0,1-.66,2.023A3.852,3.852,0,0,1,144.18-.3a4.108,4.108,0,0,1-2.031.461A3.613,3.613,0,0,1,140.4-.277a3.12,3.12,0,0,1-1.223-1.2,3.409,3.409,0,0,1-.445-1.7H140.9a1.7,1.7,0,0,0,.383,1.09,1.259,1.259,0,0,0,.953.41,1.545,1.545,0,0,0,1.285-.57,2.845,2.845,0,0,0,.605-1.594,2.02,2.02,0,0,0-.27-1.406,1.3,1.3,0,0,0-1.105-.531,2.195,2.195,0,0,0-1.531.609Zm14.633,3.281h-3.969L148.906,0h-2.523l6.078-11.375h2.117L156.742,0h-2.336Zm-3.031-1.9h2.742l-.641-4.234Zm18.656-1.586h-6.789l.328-1.844H170Zm-.586,3.383H162.3l.328-1.844h6.789Zm8.781-4.242,1.055.008a2.055,2.055,0,0,0,1.348-.445,1.737,1.737,0,0,0,.629-1.2,1.261,1.261,0,0,0-.242-1.012,1.23,1.23,0,0,0-.961-.395,1.642,1.642,0,0,0-1.1.348,1.494,1.494,0,0,0-.559.941l-2.2.016a2.952,2.952,0,0,1,1.184-2.254,4.165,4.165,0,0,1,2.707-.863,3.716,3.716,0,0,1,2.547.9,2.739,2.739,0,0,1,.852,2.3,3.078,3.078,0,0,1-2.07,2.547,2.381,2.381,0,0,1,1.121,1.043,2.826,2.826,0,0,1,.309,1.5,3.267,3.267,0,0,1-.633,1.813,3.7,3.7,0,0,1-1.547,1.2,4.962,4.962,0,0,1-2.094.395,3.557,3.557,0,0,1-2.484-.91,3.03,3.03,0,0,1-.945-2.363h2.188a1.412,1.412,0,0,0,.355,1.035,1.385,1.385,0,0,0,1.035.418,1.933,1.933,0,0,0,1.313-.435,1.761,1.761,0,0,0,.641-1.179,1.428,1.428,0,0,0-.277-1.2,1.553,1.553,0,0,0-1.152-.439l-1.3-.008Zm7.25,4.359a1.22,1.22,0,0,1,.895.324,1.111,1.111,0,0,1,.371.855,1.151,1.151,0,0,1-.344.879,1.194,1.194,0,0,1-.883.363,1.2,1.2,0,0,1-.883-.312,1.149,1.149,0,0,1-.375-.852,1.161,1.161,0,0,1,.336-.883A1.238,1.238,0,0,1,185.117-2.328Zm6.32-4.359,1.055.008a2.055,2.055,0,0,0,1.348-.445,1.737,1.737,0,0,0,.629-1.2,1.261,1.261,0,0,0-.242-1.012,1.23,1.23,0,0,0-.961-.395,1.642,1.642,0,0,0-1.1.348,1.494,1.494,0,0,0-.559.941l-2.2.016a2.952,2.952,0,0,1,1.184-2.254,4.165,4.165,0,0,1,2.707-.863,3.716,3.716,0,0,1,2.547.9,2.739,2.739,0,0,1,.852,2.3,3.078,3.078,0,0,1-2.07,2.547,2.381,2.381,0,0,1,1.121,1.043,2.826,2.826,0,0,1,.309,1.5,3.267,3.267,0,0,1-.633,1.813,3.7,3.7,0,0,1-1.547,1.2,4.962,4.962,0,0,1-2.094.395,3.557,3.557,0,0,1-2.484-.91,3.03,3.03,0,0,1-.945-2.363h2.188a1.412,1.412,0,0,0,.355,1.035,1.385,1.385,0,0,0,1.035.418,1.933,1.933,0,0,0,1.313-.435,1.761,1.761,0,0,0,.641-1.179,1.428,1.428,0,0,0-.277-1.2,1.553,1.553,0,0,0-1.152-.439l-1.3-.008Zm6.891,1.063,1.531-5.75h6.219l-.3,1.883h-4.367l-.75,2.461a3.016,3.016,0,0,1,1.641-.437,2.693,2.693,0,0,1,2.262,1.035,3.855,3.855,0,0,1,.676,2.73,4.423,4.423,0,0,1-.66,2.023A3.852,3.852,0,0,1,203.094-.3a4.108,4.108,0,0,1-2.031.461,3.613,3.613,0,0,1-1.746-.441,3.12,3.12,0,0,1-1.223-1.2,3.409,3.409,0,0,1-.445-1.7h2.164a1.7,1.7,0,0,0,.383,1.09,1.259,1.259,0,0,0,.953.41,1.545,1.545,0,0,0,1.285-.57,2.845,2.845,0,0,0,.605-1.594,2.02,2.02,0,0,0-.27-1.406,1.3,1.3,0,0,0-1.105-.531,2.195,2.195,0,0,0-1.531.609Zm15.406,2.258-1.023.891L212.281,0h-2.2l2.078-12h2.211l-1.141,6.516.43-.461,2.508-2.508h2.828L215.3-4.82,217.648,0h-2.414Zm9.422.523,3.828-8.531h2.625L223.992,0H221.6l-2.047-11.375h2.461Z" transform="translate(204.949 7785)" fill="#12263f"/>
  </g>
</svg>
