<svg xmlns="http://www.w3.org/2000/svg" width="723.872" height="414.325" viewBox="0 0 723.872 414.325">
  <g id="Grupo_1108806" data-name="Grupo 1108806" transform="translate(-449.2 -8544.099)">
    <path id="Trazado_899060" data-name="Trazado 899060" d="M-4005.051-3279.426h-125v78.3" transform="translate(4605.051 11845.512)" fill="none" stroke="#000" stroke-width="3"/>
    <path id="Trazado_899061" data-name="Trazado 899061" d="M-4130.051-3142.265v110.775" transform="translate(4605.051 11825)" fill="none" stroke="#000" stroke-width="3"/>
    <path id="Trazado_899062" data-name="Trazado 899062" d="M-4025.051-3197.125h-105v-82.3" transform="translate(4605.051 12094.691)" fill="none" stroke="#000" stroke-width="3"/>
    <path id="Trazado_899063" data-name="Trazado 899063" d="M-3964.773-2976.984h-60.277v95.668h60.277" transform="translate(4605.051 11825)" fill="none" stroke="#000" stroke-width="3"/>
    <path id="Trazado_899064" data-name="Trazado 899064" d="M-4025.051-2976.984h60.277v95.668h-60.277" transform="translate(4710.051 11825)" fill="none" stroke="#000" stroke-width="3"/>
    <path id="Trazado_899065" data-name="Trazado 899065" d="M-3859.774-2929.15h359.723v-82.584" transform="translate(4605.051 11825)" fill="none" stroke="#000" stroke-width="3"/>
    <path id="Trazado_899066" data-name="Trazado 899066" d="M-3557.191-3054v40h102.953v-40" transform="translate(4605.051 11825)" fill="none" stroke="#000" stroke-width="3"/>
    <path id="Trazado_899067" data-name="Trazado 899067" d="M-3557.191-3014v-40h102.953v40" transform="translate(4605.051 11750)" fill="none" stroke="#000" stroke-width="3"/>
    <path id="Trazado_899068" data-name="Trazado 899068" d="M-3941.789-3258.914h268.994" transform="translate(4605.051 11825)" fill="none" stroke="#000" stroke-width="3"/>
    <path id="Trazado_899069" data-name="Trazado 899069" d="M-4130.051-3279.426h117.735v39.492" transform="translate(5117.316 11845.512)" fill="none" stroke="#000" stroke-width="3"/>
    <path id="Trazado_899070" data-name="Trazado 899070" d="M-4130.051-3142.266v33" transform="translate(5235.051 11805.262)" fill="none" stroke="#000" stroke-width="3"/>
    <path id="Trazado_899071" data-name="Trazado 899071" d="M-3795.051-3258.914v72.842" transform="translate(4605.051 11825)" fill="none" stroke="#000" stroke-width="3"/>
    <path id="Trazado_899072" data-name="Trazado 899072" d="M-3795.051-3258.914v95.264" transform="translate(4605.051 12059.5)" fill="none" stroke="#000" stroke-width="3"/>
    <path id="Trazado_899073" data-name="Trazado 899073" d="M-3795.051-3258.914v64.558" transform="translate(4605.051 11951.91)" fill="none" stroke="#000" stroke-width="3"/>
    <path id="Trazado_899074" data-name="Trazado 899074" d="M-4249.752-9209.859h14.453l6.706-16.7,4.688,26.589,6.9-23.133,4.063,23.133,8.794-23.133,6.224,13.239h10.516" transform="translate(-8735.26 12880.408) rotate(90)" fill="none" stroke="red" stroke-width="3"/>
    <path id="Trazado_899075" data-name="Trazado 899075" d="M-4249.752-9209.859h14.453l6.706-16.7,4.688,26.589,6.9-23.133,4.063,23.133,8.794-23.133,6.224,13.239h10.516" transform="translate(-8399.915 12880.408) rotate(90)" fill="none" stroke="red" stroke-width="3"/>
    <path id="Trazado_899076" data-name="Trazado 899076" d="M-4249.752-9209.859h14.453l6.706-16.7,4.688,26.589,6.9-23.133,4.063,23.133,8.794-23.133,6.224,13.239h10.516" transform="translate(-8399.915 12995.252) rotate(90)" fill="none" stroke="red" stroke-width="3"/>
    <path id="Trazado_899077" data-name="Trazado 899077" d="M-4249.752-9209.859h14.453l6.706-16.7,4.688,26.589,6.9-23.133,4.063,23.133,8.794-23.133,6.224,13.239h10.516" transform="translate(4849.752 17776.086)" fill="none" stroke="red" stroke-width="3"/>
    <path id="Trazado_899078" data-name="Trazado 899078" d="M-4249.752-9209.859h14.453l6.706-16.7,4.688,26.589,6.9-23.133,4.063,23.133,8.794-23.133,6.224,13.239h10.516" transform="translate(4881.844 18057.762)" fill="none" stroke="red" stroke-width="3"/>
    <path id="Trazado_899079" data-name="Trazado 899079" d="M-4249.752-9209.859h14.453l6.706-16.7,4.688,26.589,6.9-23.133,4.063,23.133,8.794-23.133,6.224,13.239h10.516" transform="translate(4881.844 18152.762)" fill="none" stroke="red" stroke-width="3"/>
    <path id="Trazado_899080" data-name="Trazado 899080" d="M-4249.752-9209.859h14.453l6.706-16.7,4.688,26.589,6.9-23.133,4.063,23.133,8.794-23.133,6.224,13.239h10.516" transform="translate(-8161.915 12969.252) rotate(90)" fill="none" stroke="red" stroke-width="3"/>
    <path id="Trazado_899081" data-name="Trazado 899081" d="M-4249.752-9209.859h14.453l6.706-16.7,4.688,26.589,6.9-23.133,4.063,23.133,8.794-23.133,6.224,13.239h10.516" transform="translate(-8058.915 12969.252) rotate(90)" fill="none" stroke="red" stroke-width="3"/>
    <path id="Trazado_899082" data-name="Trazado 899082" d="M-4249.752-9209.859h14.453l6.706-16.7,4.688,26.589,6.9-23.133,4.063,23.133,8.794-23.133,6.224,13.239h10.516" transform="translate(-8104.915 12850.408) rotate(90)" fill="none" stroke="red" stroke-width="3"/>
    <path id="Trazado_899083" data-name="Trazado 899083" d="M-4249.752-9209.859h14.453l6.706-16.7,4.688,26.589,6.9-23.133,4.063,23.133,8.794-23.133,6.224,13.239h10.516" transform="translate(5176.752 17776.086)" fill="none" stroke="red" stroke-width="3"/>
    <g id="Grupo_1108604" data-name="Grupo 1108604" transform="translate(-121.85 4298.906)">
      <path id="Trazado_899010" data-name="Trazado 899010" d="M-7827.068-9340.49h26.643" transform="translate(8408.623 13842.346)" fill="none" stroke="#ff2c29" stroke-width="3"/>
      <path id="Trazado_899011" data-name="Trazado 899011" d="M-7827.068-9340.49h39.772" transform="translate(8401.623 13835.094)" fill="none" stroke="#ff2c29" stroke-width="3"/>
      <path id="Trazado_899012" data-name="Trazado 899012" d="M-7827.067-9340.49h47.8" transform="translate(8398.117 13849.598)" fill="none" stroke="#ff2c29" stroke-width="2"/>
      <path id="Trazado_899013" data-name="Trazado 899013" d="M-7827.068-9340.49h26.643" transform="translate(8408.623 13856.85)" fill="none" stroke="#ff2c29" stroke-width="3"/>
    </g>
    <path id="Trazado_899251" data-name="Trazado 899251" d="M5.492-4.6H2.82V0H1.313V-11.375H5.078a4.457,4.457,0,0,1,2.957.875A3.148,3.148,0,0,1,9.07-7.953,3.062,3.062,0,0,1,8.5-6.1a3.428,3.428,0,0,1-1.6,1.18L9.57-.094V0H7.961ZM2.82-5.828h2.3A2.6,2.6,0,0,0,6.9-6.407a1.959,1.959,0,0,0,.66-1.55,2.062,2.062,0,0,0-.629-1.62,2.663,2.663,0,0,0-1.816-.571H2.82ZM15.547,0H14.094V-9.633L11.18-8.562V-9.875L15.32-11.43h.227ZM26.539-6.359H20.023V-7.617h6.516Zm0,3.242H20.023v-1.25h6.516ZM37.273,0H35.82V-9.633l-2.914,1.07V-9.875l4.141-1.555h.227Zm4.414-.758a.905.905,0,0,1,.223-.625.848.848,0,0,1,.668-.25.874.874,0,0,1,.676.25.887.887,0,0,1,.23.625.839.839,0,0,1-.23.6.89.89,0,0,1-.676.242.863.863,0,0,1-.668-.242A.855.855,0,0,1,41.688-.758ZM53.172,0H45.719V-1.039l3.938-4.375a9.355,9.355,0,0,0,1.207-1.613A2.693,2.693,0,0,0,51.2-8.312a2.041,2.041,0,0,0-.539-1.461,1.885,1.885,0,0,0-1.437-.57,2.232,2.232,0,0,0-1.676.613,2.343,2.343,0,0,0-.6,1.707H45.5a3.355,3.355,0,0,1,1.012-2.539,3.751,3.751,0,0,1,2.707-.969,3.6,3.6,0,0,1,2.508.832,2.838,2.838,0,0,1,.922,2.215q0,1.68-2.141,4l-3.047,3.3h5.711Zm4.8-5.289L56.578-3.844V0h-1.5V-11.375h1.5V-5.75l5.055-5.625h1.813L58.969-6.352,63.8,0H62ZM69.547-1.266a2.4,2.4,0,0,0,1.68-1.321,6.349,6.349,0,0,0,.625-2.94V-6.575a4.389,4.389,0,0,0-.758-2.768,2.5,2.5,0,0,0-2.078-.962,2.465,2.465,0,0,0-2.07.977,4.464,4.464,0,0,0-.75,2.768v.884a6.479,6.479,0,0,0,.613,3.034,2.464,2.464,0,0,0,1.746,1.376V0H64.711V-1.227h1.727a5.5,5.5,0,0,1-1.3-2,6.715,6.715,0,0,1-.469-2.465v-.867a5.891,5.891,0,0,1,.551-2.594,4.149,4.149,0,0,1,1.543-1.762,4.152,4.152,0,0,1,2.25-.621,4.178,4.178,0,0,1,2.238.609A4.143,4.143,0,0,1,72.8-9.2a5.769,5.769,0,0,1,.578,2.516v1.016a6.675,6.675,0,0,1-.469,2.449,5.5,5.5,0,0,1-1.3,2h1.719V0H69.547Z" transform="translate(506.051 8658)" fill="#12263f"/>
    <path id="Trazado_899252" data-name="Trazado 899252" d="M5.492-4.6H2.82V0H1.313V-11.375H5.078a4.457,4.457,0,0,1,2.957.875A3.148,3.148,0,0,1,9.07-7.953,3.062,3.062,0,0,1,8.5-6.1a3.428,3.428,0,0,1-1.6,1.18L9.57-.094V0H7.961ZM2.82-5.828h2.3A2.6,2.6,0,0,0,6.9-6.407a1.959,1.959,0,0,0,.66-1.55,2.062,2.062,0,0,0-.629-1.62,2.663,2.663,0,0,0-1.816-.571H2.82ZM18.25,0H10.8V-1.039l3.938-4.375a9.354,9.354,0,0,0,1.207-1.613,2.693,2.693,0,0,0,.332-1.285,2.041,2.041,0,0,0-.539-1.461,1.885,1.885,0,0,0-1.437-.57,2.232,2.232,0,0,0-1.676.613,2.343,2.343,0,0,0-.6,1.707H10.578a3.355,3.355,0,0,1,1.012-2.539,3.751,3.751,0,0,1,2.707-.969A3.6,3.6,0,0,1,16.8-10.7a2.838,2.838,0,0,1,.922,2.215q0,1.68-2.141,4l-3.047,3.3H18.25ZM30.5-6.359H23.984V-7.617H30.5Zm0,3.242H23.984v-1.25H30.5Zm8.086-3.273h1.086a2.387,2.387,0,0,0,1.609-.539,1.8,1.8,0,0,0,.586-1.414,1.764,1.764,0,0,0-1.992-2,2.072,2.072,0,0,0-1.5.535,1.873,1.873,0,0,0-.559,1.418H36.375a2.9,2.9,0,0,1,.988-2.246,3.6,3.6,0,0,1,2.512-.895,3.558,3.558,0,0,1,2.523.852,3.076,3.076,0,0,1,.914,2.367,2.5,2.5,0,0,1-.48,1.438,2.9,2.9,0,0,1-1.309,1.039,2.8,2.8,0,0,1,1.449.984,2.734,2.734,0,0,1,.512,1.68,3.1,3.1,0,0,1-1,2.43,3.745,3.745,0,0,1-2.6.9,3.844,3.844,0,0,1-2.605-.867,2.877,2.877,0,0,1-1-2.289h1.453a1.859,1.859,0,0,0,.586,1.438,2.229,2.229,0,0,0,1.57.539,2.187,2.187,0,0,0,1.6-.547,2.108,2.108,0,0,0,.555-1.57,1.912,1.912,0,0,0-.609-1.523,2.655,2.655,0,0,0-1.758-.547H38.586ZM45.648-.758a.905.905,0,0,1,.223-.625.848.848,0,0,1,.668-.25.874.874,0,0,1,.676.25.887.887,0,0,1,.23.625.839.839,0,0,1-.23.6.89.89,0,0,1-.676.242.863.863,0,0,1-.668-.242A.855.855,0,0,1,45.648-.758Zm4.7-4.945.578-5.672H56.75v1.336h-4.6l-.344,3.1a3.671,3.671,0,0,1,1.9-.492A3.138,3.138,0,0,1,56.172-6.4a4.026,4.026,0,0,1,.914,2.777,3.886,3.886,0,0,1-.949,2.77A3.46,3.46,0,0,1,53.484.156,3.6,3.6,0,0,1,51.023-.68a3.337,3.337,0,0,1-1.086-2.312H51.3A2.3,2.3,0,0,0,52-1.52a2.162,2.162,0,0,0,1.484.5,1.95,1.95,0,0,0,1.582-.687,2.874,2.874,0,0,0,.574-1.9,2.638,2.638,0,0,0-.621-1.832,2.113,2.113,0,0,0-1.652-.691,2.383,2.383,0,0,0-1.484.414l-.383.313Zm11.586.414L60.539-3.844V0h-1.5V-11.375h1.5V-5.75l5.055-5.625h1.813L62.93-6.352,67.758,0h-1.8ZM73.508-1.266a2.4,2.4,0,0,0,1.68-1.321,6.349,6.349,0,0,0,.625-2.94V-6.575a4.389,4.389,0,0,0-.758-2.768,2.5,2.5,0,0,0-2.078-.962,2.465,2.465,0,0,0-2.07.977,4.464,4.464,0,0,0-.75,2.768v.884a6.479,6.479,0,0,0,.613,3.034,2.464,2.464,0,0,0,1.746,1.376V0H68.672V-1.227H70.4a5.5,5.5,0,0,1-1.3-2,6.715,6.715,0,0,1-.469-2.465v-.867a5.891,5.891,0,0,1,.551-2.594,4.149,4.149,0,0,1,1.543-1.762,4.152,4.152,0,0,1,2.25-.621,4.178,4.178,0,0,1,2.238.609A4.143,4.143,0,0,1,76.758-9.2a5.769,5.769,0,0,1,.578,2.516v1.016a6.675,6.675,0,0,1-.469,2.449,5.5,5.5,0,0,1-1.3,2h1.719V0H73.508Z" transform="translate(596.051 8600)" fill="#12263f"/>
    <path id="Trazado_899253" data-name="Trazado 899253" d="M5.492-4.6H2.82V0H1.313V-11.375H5.078a4.457,4.457,0,0,1,2.957.875A3.148,3.148,0,0,1,9.07-7.953,3.062,3.062,0,0,1,8.5-6.1a3.428,3.428,0,0,1-1.6,1.18L9.57-.094V0H7.961ZM2.82-5.828h2.3A2.6,2.6,0,0,0,6.9-6.407a1.959,1.959,0,0,0,.66-1.55,2.062,2.062,0,0,0-.629-1.62,2.663,2.663,0,0,0-1.816-.571H2.82ZM16.9-3.82h1.578v1.18H16.9V0H15.445V-2.641h-5.18v-.852l5.094-7.883H16.9Zm-4.992,0h3.539V-9.4l-.172.313ZM26.539-6.359H20.023V-7.617h6.516Zm0,3.242H20.023v-1.25h6.516ZM33.313,0H31.859V-9.633l-2.914,1.07V-9.875l4.141-1.555h.227ZM45,0H37.547V-1.039l3.938-4.375a9.355,9.355,0,0,0,1.207-1.613,2.693,2.693,0,0,0,.332-1.285,2.041,2.041,0,0,0-.539-1.461,1.885,1.885,0,0,0-1.437-.57,2.232,2.232,0,0,0-1.676.613,2.343,2.343,0,0,0-.6,1.707H37.328a3.355,3.355,0,0,1,1.012-2.539,3.751,3.751,0,0,1,2.707-.969,3.6,3.6,0,0,1,2.508.832,2.838,2.838,0,0,1,.922,2.215q0,1.68-2.141,4l-3.047,3.3H45Zm8.664-4.852A6.61,6.61,0,0,1,52.8-1.078,3.084,3.084,0,0,1,50.086.156a3.107,3.107,0,0,1-2.7-1.207,6.274,6.274,0,0,1-.906-3.605v-1.93a6.463,6.463,0,0,1,.867-3.727,3.108,3.108,0,0,1,2.719-1.219,3.136,3.136,0,0,1,2.7,1.176,6.237,6.237,0,0,1,.891,3.629ZM52.219-6.828A5.3,5.3,0,0,0,51.7-9.5a1.775,1.775,0,0,0-1.633-.84,1.751,1.751,0,0,0-1.617.836,5.171,5.171,0,0,0-.523,2.57v2.313A5.381,5.381,0,0,0,48.465-1.9a1.771,1.771,0,0,0,1.621.879,1.747,1.747,0,0,0,1.59-.828,5.186,5.186,0,0,0,.543-2.609Zm8.109,5.563a2.4,2.4,0,0,0,1.68-1.321,6.349,6.349,0,0,0,.625-2.94V-6.575a4.389,4.389,0,0,0-.758-2.768A2.5,2.5,0,0,0,59.8-10.3a2.465,2.465,0,0,0-2.07.977,4.464,4.464,0,0,0-.75,2.768v.884a6.479,6.479,0,0,0,.613,3.034,2.464,2.464,0,0,0,1.746,1.376V0H55.492V-1.227h1.727a5.5,5.5,0,0,1-1.3-2,6.715,6.715,0,0,1-.469-2.465v-.867A5.891,5.891,0,0,1,56-9.148a4.149,4.149,0,0,1,1.543-1.762,4.152,4.152,0,0,1,2.25-.621,4.178,4.178,0,0,1,2.238.609A4.143,4.143,0,0,1,63.578-9.2a5.769,5.769,0,0,1,.578,2.516v1.016a6.675,6.675,0,0,1-.469,2.449,5.5,5.5,0,0,1-1.3,2h1.719V0H60.328Z" transform="translate(927.051 8600)" fill="#12263f"/>
    <path id="Trazado_899254" data-name="Trazado 899254" d="M5.492-4.6H2.82V0H1.313V-11.375H5.078a4.457,4.457,0,0,1,2.957.875A3.148,3.148,0,0,1,9.07-7.953,3.062,3.062,0,0,1,8.5-6.1a3.428,3.428,0,0,1-1.6,1.18L9.57-.094V0H7.961ZM2.82-5.828h2.3A2.6,2.6,0,0,0,6.9-6.407a1.959,1.959,0,0,0,.66-1.55,2.062,2.062,0,0,0-.629-1.62,2.663,2.663,0,0,0-1.816-.571H2.82ZM12.9-6.391h1.086a2.387,2.387,0,0,0,1.609-.539,1.8,1.8,0,0,0,.586-1.414,1.764,1.764,0,0,0-1.992-2,2.072,2.072,0,0,0-1.5.535,1.873,1.873,0,0,0-.559,1.418H10.688a2.9,2.9,0,0,1,.988-2.246,3.6,3.6,0,0,1,2.512-.895,3.558,3.558,0,0,1,2.523.852,3.076,3.076,0,0,1,.914,2.367,2.5,2.5,0,0,1-.48,1.438,2.9,2.9,0,0,1-1.309,1.039,2.8,2.8,0,0,1,1.449.984,2.734,2.734,0,0,1,.512,1.68,3.1,3.1,0,0,1-1,2.43,3.745,3.745,0,0,1-2.6.9A3.844,3.844,0,0,1,11.59-.711a2.877,2.877,0,0,1-1-2.289h1.453a1.859,1.859,0,0,0,.586,1.438,2.229,2.229,0,0,0,1.57.539,2.187,2.187,0,0,0,1.6-.547,2.108,2.108,0,0,0,.555-1.57,1.912,1.912,0,0,0-.609-1.523,2.655,2.655,0,0,0-1.758-.547H12.9Zm13.641.031H20.023V-7.617h6.516Zm0,3.242H20.023v-1.25h6.516ZM33.313,0H31.859V-9.633l-2.914,1.07V-9.875l4.141-1.555h.227ZM44.68-4.852a6.61,6.61,0,0,1-.867,3.773A3.084,3.084,0,0,1,41.1.156a3.107,3.107,0,0,1-2.7-1.207A6.274,6.274,0,0,1,37.5-4.656v-1.93a6.463,6.463,0,0,1,.867-3.727,3.108,3.108,0,0,1,2.719-1.219,3.136,3.136,0,0,1,2.7,1.176,6.237,6.237,0,0,1,.891,3.629ZM43.234-6.828A5.3,5.3,0,0,0,42.719-9.5a1.775,1.775,0,0,0-1.633-.84,1.751,1.751,0,0,0-1.617.836,5.171,5.171,0,0,0-.523,2.57v2.313A5.381,5.381,0,0,0,39.48-1.9a1.771,1.771,0,0,0,1.621.879,1.747,1.747,0,0,0,1.59-.828,5.186,5.186,0,0,0,.543-2.609Zm8.109,5.563a2.4,2.4,0,0,0,1.68-1.321,6.349,6.349,0,0,0,.625-2.94V-6.575a4.389,4.389,0,0,0-.758-2.768,2.5,2.5,0,0,0-2.078-.962,2.465,2.465,0,0,0-2.07.977,4.464,4.464,0,0,0-.75,2.768v.884a6.479,6.479,0,0,0,.613,3.034,2.464,2.464,0,0,0,1.746,1.376V0H46.508V-1.227h1.727a5.5,5.5,0,0,1-1.3-2,6.715,6.715,0,0,1-.469-2.465v-.867a5.891,5.891,0,0,1,.551-2.594,4.149,4.149,0,0,1,1.543-1.762,4.152,4.152,0,0,1,2.25-.621,4.178,4.178,0,0,1,2.238.609A4.143,4.143,0,0,1,54.594-9.2a5.769,5.769,0,0,1,.578,2.516v1.016A6.675,6.675,0,0,1,54.7-3.223a5.5,5.5,0,0,1-1.3,2h1.719V0H51.344Z" transform="translate(720.051 8658)" fill="#12263f"/>
    <path id="Trazado_899255" data-name="Trazado 899255" d="M5.492-4.6H2.82V0H1.313V-11.375H5.078a4.457,4.457,0,0,1,2.957.875A3.148,3.148,0,0,1,9.07-7.953,3.062,3.062,0,0,1,8.5-6.1a3.428,3.428,0,0,1-1.6,1.18L9.57-.094V0H7.961ZM2.82-5.828h2.3A2.6,2.6,0,0,0,6.9-6.407a1.959,1.959,0,0,0,.66-1.55,2.062,2.062,0,0,0-.629-1.62,2.663,2.663,0,0,0-1.816-.571H2.82ZM17.7-8.406a2.641,2.641,0,0,1-.449,1.516,3.057,3.057,0,0,1-1.215,1.039,3.26,3.26,0,0,1,1.41,1.117,2.811,2.811,0,0,1,.52,1.664,2.972,2.972,0,0,1-1,2.352,3.827,3.827,0,0,1-2.621.875,3.81,3.81,0,0,1-2.629-.879,2.986,2.986,0,0,1-.988-2.348,2.9,2.9,0,0,1,.5-1.664,3.136,3.136,0,0,1,1.395-1.125A2.981,2.981,0,0,1,11.43-6.9a2.679,2.679,0,0,1-.437-1.508,2.94,2.94,0,0,1,.922-2.281,3.458,3.458,0,0,1,2.43-.844,3.461,3.461,0,0,1,2.426.844A2.934,2.934,0,0,1,17.7-8.406Zm-1.18,5.3a2.1,2.1,0,0,0-.605-1.555,2.147,2.147,0,0,0-1.582-.6,2.11,2.11,0,0,0-1.566.594,2.12,2.12,0,0,0-.59,1.563,2.019,2.019,0,0,0,.574,1.523,2.2,2.2,0,0,0,1.6.555,2.2,2.2,0,0,0,1.594-.559A2.014,2.014,0,0,0,16.516-3.1Zm-2.172-7.242a1.865,1.865,0,0,0-1.379.527,1.937,1.937,0,0,0-.527,1.434,1.928,1.928,0,0,0,.52,1.4,1.844,1.844,0,0,0,1.387.535A1.844,1.844,0,0,0,15.73-6.98a1.928,1.928,0,0,0,.52-1.4A1.929,1.929,0,0,0,15.711-9.8,1.839,1.839,0,0,0,14.344-10.344Zm12.2,3.984H20.023V-7.617h6.516Zm0,3.242H20.023v-1.25h6.516ZM33.313,0H31.859V-9.633l-2.914,1.07V-9.875l4.141-1.555h.227ZM44.445-8.406A2.641,2.641,0,0,1,44-6.891a3.057,3.057,0,0,1-1.215,1.039,3.26,3.26,0,0,1,1.41,1.117,2.811,2.811,0,0,1,.52,1.664,2.972,2.972,0,0,1-1,2.352,3.827,3.827,0,0,1-2.621.875,3.81,3.81,0,0,1-2.629-.879,2.986,2.986,0,0,1-.988-2.348,2.9,2.9,0,0,1,.5-1.664,3.136,3.136,0,0,1,1.395-1.125A2.981,2.981,0,0,1,38.18-6.9a2.679,2.679,0,0,1-.437-1.508,2.94,2.94,0,0,1,.922-2.281,3.458,3.458,0,0,1,2.43-.844,3.461,3.461,0,0,1,2.426.844A2.934,2.934,0,0,1,44.445-8.406Zm-1.18,5.3a2.1,2.1,0,0,0-.605-1.555,2.147,2.147,0,0,0-1.582-.6,2.11,2.11,0,0,0-1.566.594,2.12,2.12,0,0,0-.59,1.563A2.019,2.019,0,0,0,39.5-1.578a2.2,2.2,0,0,0,1.6.555,2.2,2.2,0,0,0,1.594-.559A2.014,2.014,0,0,0,43.266-3.1Zm-2.172-7.242a1.865,1.865,0,0,0-1.379.527,1.937,1.937,0,0,0-.527,1.434,1.928,1.928,0,0,0,.52,1.4,1.844,1.844,0,0,0,1.387.535A1.844,1.844,0,0,0,42.48-6.98a1.928,1.928,0,0,0,.52-1.4A1.929,1.929,0,0,0,42.461-9.8,1.839,1.839,0,0,0,41.094-10.344Zm12.57,5.492A6.61,6.61,0,0,1,52.8-1.078,3.084,3.084,0,0,1,50.086.156a3.107,3.107,0,0,1-2.7-1.207,6.274,6.274,0,0,1-.906-3.605v-1.93a6.463,6.463,0,0,1,.867-3.727,3.108,3.108,0,0,1,2.719-1.219,3.136,3.136,0,0,1,2.7,1.176,6.237,6.237,0,0,1,.891,3.629ZM52.219-6.828A5.3,5.3,0,0,0,51.7-9.5a1.775,1.775,0,0,0-1.633-.84,1.751,1.751,0,0,0-1.617.836,5.171,5.171,0,0,0-.523,2.57v2.313A5.381,5.381,0,0,0,48.465-1.9a1.771,1.771,0,0,0,1.621.879,1.747,1.747,0,0,0,1.59-.828,5.186,5.186,0,0,0,.543-2.609Zm8.109,5.563a2.4,2.4,0,0,0,1.68-1.321,6.349,6.349,0,0,0,.625-2.94V-6.575a4.389,4.389,0,0,0-.758-2.768A2.5,2.5,0,0,0,59.8-10.3a2.465,2.465,0,0,0-2.07.977,4.464,4.464,0,0,0-.75,2.768v.884a6.479,6.479,0,0,0,.613,3.034,2.464,2.464,0,0,0,1.746,1.376V0H55.492V-1.227h1.727a5.5,5.5,0,0,1-1.3-2,6.715,6.715,0,0,1-.469-2.465v-.867A5.891,5.891,0,0,1,56-9.148a4.149,4.149,0,0,1,1.543-1.762,4.152,4.152,0,0,1,2.25-.621,4.178,4.178,0,0,1,2.238.609A4.143,4.143,0,0,1,63.578-9.2a5.769,5.769,0,0,1,.578,2.516v1.016a6.675,6.675,0,0,1-.469,2.449,5.5,5.5,0,0,1-1.3,2h1.719V0H60.328Z" transform="translate(725.051 8771)" fill="#12263f"/>
    <path id="Trazado_899256" data-name="Trazado 899256" d="M5.492-4.6H2.82V0H1.313V-11.375H5.078a4.457,4.457,0,0,1,2.957.875A3.148,3.148,0,0,1,9.07-7.953,3.062,3.062,0,0,1,8.5-6.1a3.428,3.428,0,0,1-1.6,1.18L9.57-.094V0H7.961ZM2.82-5.828h2.3A2.6,2.6,0,0,0,6.9-6.407a1.959,1.959,0,0,0,.66-1.55,2.062,2.062,0,0,0-.629-1.62,2.663,2.663,0,0,0-1.816-.571H2.82ZM16.336-5a3.536,3.536,0,0,1-1.082.867,2.936,2.936,0,0,1-1.379.328,3.031,3.031,0,0,1-1.715-.484,3.149,3.149,0,0,1-1.129-1.363,4.648,4.648,0,0,1-.4-1.941,4.735,4.735,0,0,1,.434-2.055,3.185,3.185,0,0,1,1.23-1.4,3.509,3.509,0,0,1,1.859-.484,3.177,3.177,0,0,1,2.66,1.262,5.5,5.5,0,0,1,.973,3.441v.422q0,3.32-1.312,4.848A5.043,5.043,0,0,1,12.516.008h-.281V-1.219h.3a3.979,3.979,0,0,0,2.75-.932A4,4,0,0,0,16.336-5ZM14.109-5a2.232,2.232,0,0,0,1.34-.445,2.625,2.625,0,0,0,.895-1.1v-.578a3.977,3.977,0,0,0-.617-2.312,1.842,1.842,0,0,0-1.562-.891,1.856,1.856,0,0,0-1.531.73,3.013,3.013,0,0,0-.578,1.926,3.136,3.136,0,0,0,.559,1.918A1.769,1.769,0,0,0,14.109-5Zm12.43-1.359H20.023V-7.617h6.516Zm0,3.242H20.023v-1.25h6.516Zm7.7-8.266v1.227h-.266a3.805,3.805,0,0,0-2.687,1A4.161,4.161,0,0,0,30.125-6.43a3.085,3.085,0,0,1,2.453-1.031,2.95,2.95,0,0,1,2.371,1.047,4.038,4.038,0,0,1,.887,2.7A4.025,4.025,0,0,1,34.879-.9,3.3,3.3,0,0,1,32.313.156,3.247,3.247,0,0,1,29.664-1.1a4.97,4.97,0,0,1-1.016-3.23v-.555a7.488,7.488,0,0,1,1.34-4.8,4.921,4.921,0,0,1,3.988-1.7Zm-1.9,5.125a2.306,2.306,0,0,0-1.367.445A2.32,2.32,0,0,0,30.1-4.7v.531A3.731,3.731,0,0,0,30.734-1.9a1.9,1.9,0,0,0,1.578.859,1.838,1.838,0,0,0,1.535-.719,2.982,2.982,0,0,0,.559-1.883,2.983,2.983,0,0,0-.566-1.895A1.816,1.816,0,0,0,32.336-6.258ZM44.68-4.852a6.61,6.61,0,0,1-.867,3.773A3.084,3.084,0,0,1,41.1.156a3.107,3.107,0,0,1-2.7-1.207A6.274,6.274,0,0,1,37.5-4.656v-1.93a6.463,6.463,0,0,1,.867-3.727,3.108,3.108,0,0,1,2.719-1.219,3.136,3.136,0,0,1,2.7,1.176,6.237,6.237,0,0,1,.891,3.629ZM43.234-6.828A5.3,5.3,0,0,0,42.719-9.5a1.775,1.775,0,0,0-1.633-.84,1.751,1.751,0,0,0-1.617.836,5.171,5.171,0,0,0-.523,2.57v2.313A5.381,5.381,0,0,0,39.48-1.9a1.771,1.771,0,0,0,1.621.879,1.747,1.747,0,0,0,1.59-.828,5.186,5.186,0,0,0,.543-2.609Zm8.109,5.563a2.4,2.4,0,0,0,1.68-1.321,6.349,6.349,0,0,0,.625-2.94V-6.575a4.389,4.389,0,0,0-.758-2.768,2.5,2.5,0,0,0-2.078-.962,2.465,2.465,0,0,0-2.07.977,4.464,4.464,0,0,0-.75,2.768v.884a6.479,6.479,0,0,0,.613,3.034,2.464,2.464,0,0,0,1.746,1.376V0H46.508V-1.227h1.727a5.5,5.5,0,0,1-1.3-2,6.715,6.715,0,0,1-.469-2.465v-.867a5.891,5.891,0,0,1,.551-2.594,4.149,4.149,0,0,1,1.543-1.762,4.152,4.152,0,0,1,2.25-.621,4.178,4.178,0,0,1,2.238.609A4.143,4.143,0,0,1,54.594-9.2a5.769,5.769,0,0,1,.578,2.516v1.016A6.675,6.675,0,0,1,54.7-3.223a5.5,5.5,0,0,1-1.3,2h1.719V0H51.344Z" transform="translate(629.051 8808)" fill="#12263f"/>
    <path id="Trazado_899257" data-name="Trazado 899257" d="M5.492-4.6H2.82V0H1.313V-11.375H5.078a4.457,4.457,0,0,1,2.957.875A3.148,3.148,0,0,1,9.07-7.953,3.062,3.062,0,0,1,8.5-6.1a3.428,3.428,0,0,1-1.6,1.18L9.57-.094V0H7.961ZM2.82-5.828h2.3A2.6,2.6,0,0,0,6.9-6.407a1.959,1.959,0,0,0,.66-1.55,2.062,2.062,0,0,0-.629-1.62,2.663,2.663,0,0,0-1.816-.571H2.82ZM15.547,0H14.094V-9.633L11.18-8.562V-9.875L15.32-11.43h.227ZM26.914-4.852a6.61,6.61,0,0,1-.867,3.773A3.084,3.084,0,0,1,23.336.156a3.107,3.107,0,0,1-2.7-1.207,6.274,6.274,0,0,1-.906-3.605v-1.93a6.463,6.463,0,0,1,.867-3.727,3.108,3.108,0,0,1,2.719-1.219,3.136,3.136,0,0,1,2.7,1.176,6.237,6.237,0,0,1,.891,3.629ZM25.469-6.828A5.3,5.3,0,0,0,24.953-9.5a1.775,1.775,0,0,0-1.633-.84,1.751,1.751,0,0,0-1.617.836,5.171,5.171,0,0,0-.523,2.57v2.313A5.381,5.381,0,0,0,21.715-1.9a1.771,1.771,0,0,0,1.621.879,1.747,1.747,0,0,0,1.59-.828,5.186,5.186,0,0,0,.543-2.609Zm10.055.469H29.008V-7.617h6.516Zm0,3.242H29.008v-1.25h6.516ZM42.3,0H40.844V-9.633L37.93-8.562V-9.875L42.07-11.43H42.3ZM52.633-3.82h1.578v1.18H52.633V0H51.18V-2.641H46v-.852l5.094-7.883h1.539Zm-4.992,0H51.18V-9.4l-.172.313ZM62.648-4.852a6.61,6.61,0,0,1-.867,3.773A3.084,3.084,0,0,1,59.07.156a3.107,3.107,0,0,1-2.7-1.207,6.274,6.274,0,0,1-.906-3.605v-1.93a6.463,6.463,0,0,1,.867-3.727,3.108,3.108,0,0,1,2.719-1.219,3.136,3.136,0,0,1,2.7,1.176,6.237,6.237,0,0,1,.891,3.629ZM61.2-6.828A5.3,5.3,0,0,0,60.688-9.5a1.775,1.775,0,0,0-1.633-.84,1.751,1.751,0,0,0-1.617.836,5.171,5.171,0,0,0-.523,2.57v2.313A5.381,5.381,0,0,0,57.449-1.9a1.771,1.771,0,0,0,1.621.879,1.747,1.747,0,0,0,1.59-.828A5.186,5.186,0,0,0,61.2-4.461Zm8.109,5.563a2.4,2.4,0,0,0,1.68-1.321,6.349,6.349,0,0,0,.625-2.94V-6.575a4.389,4.389,0,0,0-.758-2.768,2.5,2.5,0,0,0-2.078-.962,2.465,2.465,0,0,0-2.07.977,4.464,4.464,0,0,0-.75,2.768v.884a6.479,6.479,0,0,0,.613,3.034A2.464,2.464,0,0,0,68.32-1.266V0H64.477V-1.227H66.2a5.5,5.5,0,0,1-1.3-2,6.715,6.715,0,0,1-.469-2.465v-.867a5.891,5.891,0,0,1,.551-2.594,4.149,4.149,0,0,1,1.543-1.762,4.152,4.152,0,0,1,2.25-.621,4.178,4.178,0,0,1,2.238.609A4.143,4.143,0,0,1,72.563-9.2a5.769,5.769,0,0,1,.578,2.516v1.016a6.675,6.675,0,0,1-.469,2.449,5.5,5.5,0,0,1-1.3,2h1.719V0H69.313Z" transform="translate(631.051 8895)" fill="#12263f"/>
    <path id="Trazado_899258" data-name="Trazado 899258" d="M2.789-3.216A4.663,4.663,0,0,1,3-4.683a3.761,3.761,0,0,1,.8-1.193L4.82-6.929a2.36,2.36,0,0,0,.656-1.59A1.815,1.815,0,0,0,5.047-9.8a1.62,1.62,0,0,0-1.25-.464,1.881,1.881,0,0,0-1.281.422,1.426,1.426,0,0,0-.484,1.133H.586a2.632,2.632,0,0,1,.9-2.043A3.374,3.374,0,0,1,3.8-11.531a3.185,3.185,0,0,1,2.3.792,2.87,2.87,0,0,1,.824,2.172A3.926,3.926,0,0,1,5.656-5.876L4.8-5.034a2.623,2.623,0,0,0-.57,1.818ZM2.727-.734a.861.861,0,0,1,.215-.6.81.81,0,0,1,.637-.241.822.822,0,0,1,.641.241.852.852,0,0,1,.219.6.824.824,0,0,1-.219.588.837.837,0,0,1-.641.233.824.824,0,0,1-.637-.233A.832.832,0,0,1,2.727-.734Z" transform="translate(511.051 8808)" fill="#12263f"/>
    <path id="Trazado_899259" data-name="Trazado 899259" d="M5.492-4.6H2.82V0H1.313V-11.375H5.078a4.457,4.457,0,0,1,2.957.875A3.148,3.148,0,0,1,9.07-7.953,3.062,3.062,0,0,1,8.5-6.1a3.428,3.428,0,0,1-1.6,1.18L9.57-.094V0H7.961ZM2.82-5.828h2.3A2.6,2.6,0,0,0,6.9-6.407a1.959,1.959,0,0,0,.66-1.55,2.062,2.062,0,0,0-.629-1.62,2.663,2.663,0,0,0-1.816-.571H2.82Zm13.648-5.555v1.227H16.2a3.805,3.805,0,0,0-2.687,1A4.161,4.161,0,0,0,12.359-6.43a3.085,3.085,0,0,1,2.453-1.031,2.95,2.95,0,0,1,2.371,1.047,4.038,4.038,0,0,1,.887,2.7A4.025,4.025,0,0,1,17.113-.9,3.3,3.3,0,0,1,14.547.156,3.247,3.247,0,0,1,11.9-1.1a4.97,4.97,0,0,1-1.016-3.23v-.555a7.488,7.488,0,0,1,1.34-4.8,4.921,4.921,0,0,1,3.988-1.7Zm-1.9,5.125a2.306,2.306,0,0,0-1.367.445A2.32,2.32,0,0,0,12.336-4.7v.531A3.731,3.731,0,0,0,12.969-1.9a1.9,1.9,0,0,0,1.578.859,1.838,1.838,0,0,0,1.535-.719,2.982,2.982,0,0,0,.559-1.883,2.983,2.983,0,0,0-.566-1.895A1.816,1.816,0,0,0,14.57-6.258Zm11.969-.1H20.023V-7.617h6.516Zm0,3.242H20.023v-1.25h6.516ZM33.313,0H31.859V-9.633l-2.914,1.07V-9.875l4.141-1.555h.227ZM44.68-4.852a6.61,6.61,0,0,1-.867,3.773A3.084,3.084,0,0,1,41.1.156a3.107,3.107,0,0,1-2.7-1.207A6.274,6.274,0,0,1,37.5-4.656v-1.93a6.463,6.463,0,0,1,.867-3.727,3.108,3.108,0,0,1,2.719-1.219,3.136,3.136,0,0,1,2.7,1.176,6.237,6.237,0,0,1,.891,3.629ZM43.234-6.828A5.3,5.3,0,0,0,42.719-9.5a1.775,1.775,0,0,0-1.633-.84,1.751,1.751,0,0,0-1.617.836,5.171,5.171,0,0,0-.523,2.57v2.313A5.381,5.381,0,0,0,39.48-1.9a1.771,1.771,0,0,0,1.621.879,1.747,1.747,0,0,0,1.59-.828,5.186,5.186,0,0,0,.543-2.609Zm10.43,1.977A6.61,6.61,0,0,1,52.8-1.078,3.084,3.084,0,0,1,50.086.156a3.107,3.107,0,0,1-2.7-1.207,6.274,6.274,0,0,1-.906-3.605v-1.93a6.463,6.463,0,0,1,.867-3.727,3.108,3.108,0,0,1,2.719-1.219,3.136,3.136,0,0,1,2.7,1.176,6.237,6.237,0,0,1,.891,3.629ZM52.219-6.828A5.3,5.3,0,0,0,51.7-9.5a1.775,1.775,0,0,0-1.633-.84,1.751,1.751,0,0,0-1.617.836,5.171,5.171,0,0,0-.523,2.57v2.313A5.381,5.381,0,0,0,48.465-1.9a1.771,1.771,0,0,0,1.621.879,1.747,1.747,0,0,0,1.59-.828,5.186,5.186,0,0,0,.543-2.609Zm8.109,5.563a2.4,2.4,0,0,0,1.68-1.321,6.349,6.349,0,0,0,.625-2.94V-6.575a4.389,4.389,0,0,0-.758-2.768A2.5,2.5,0,0,0,59.8-10.3a2.465,2.465,0,0,0-2.07.977,4.464,4.464,0,0,0-.75,2.768v.884a6.479,6.479,0,0,0,.613,3.034,2.464,2.464,0,0,0,1.746,1.376V0H55.492V-1.227h1.727a5.5,5.5,0,0,1-1.3-2,6.715,6.715,0,0,1-.469-2.465v-.867A5.891,5.891,0,0,1,56-9.148a4.149,4.149,0,0,1,1.543-1.762,4.152,4.152,0,0,1,2.25-.621,4.178,4.178,0,0,1,2.238.609A4.143,4.143,0,0,1,63.578-9.2a5.769,5.769,0,0,1,.578,2.516v1.016a6.675,6.675,0,0,1-.469,2.449,5.5,5.5,0,0,1-1.3,2h1.719V0H60.328Z" transform="translate(964.051 8751)" fill="#12263f"/>
    <path id="Trazado_899260" data-name="Trazado 899260" d="M5.492-4.6H2.82V0H1.313V-11.375H5.078a4.457,4.457,0,0,1,2.957.875A3.148,3.148,0,0,1,9.07-7.953,3.062,3.062,0,0,1,8.5-6.1a3.428,3.428,0,0,1-1.6,1.18L9.57-.094V0H7.961ZM2.82-5.828h2.3A2.6,2.6,0,0,0,6.9-6.407a1.959,1.959,0,0,0,.66-1.55,2.062,2.062,0,0,0-.629-1.62,2.663,2.663,0,0,0-1.816-.571H2.82Zm15.32-4.734L13.43,0H11.914l4.7-10.187H10.453v-1.187h7.688Zm8.4,4.2H20.023V-7.617h6.516Zm0,3.242H20.023v-1.25h6.516ZM36.016,0H28.563V-1.039L32.5-5.414a9.355,9.355,0,0,0,1.207-1.613,2.693,2.693,0,0,0,.332-1.285A2.041,2.041,0,0,0,33.5-9.773a1.885,1.885,0,0,0-1.437-.57,2.232,2.232,0,0,0-1.676.613,2.343,2.343,0,0,0-.6,1.707H28.344a3.355,3.355,0,0,1,1.012-2.539,3.751,3.751,0,0,1,2.707-.969,3.6,3.6,0,0,1,2.508.832,2.838,2.838,0,0,1,.922,2.215q0,1.68-2.141,4L30.3-1.18h5.711ZM44.68-4.852a6.61,6.61,0,0,1-.867,3.773A3.084,3.084,0,0,1,41.1.156a3.107,3.107,0,0,1-2.7-1.207A6.274,6.274,0,0,1,37.5-4.656v-1.93a6.463,6.463,0,0,1,.867-3.727,3.108,3.108,0,0,1,2.719-1.219,3.136,3.136,0,0,1,2.7,1.176,6.237,6.237,0,0,1,.891,3.629ZM43.234-6.828A5.3,5.3,0,0,0,42.719-9.5a1.775,1.775,0,0,0-1.633-.84,1.751,1.751,0,0,0-1.617.836,5.171,5.171,0,0,0-.523,2.57v2.313A5.381,5.381,0,0,0,39.48-1.9a1.771,1.771,0,0,0,1.621.879,1.747,1.747,0,0,0,1.59-.828,5.186,5.186,0,0,0,.543-2.609Zm10.43,1.977A6.61,6.61,0,0,1,52.8-1.078,3.084,3.084,0,0,1,50.086.156a3.107,3.107,0,0,1-2.7-1.207,6.274,6.274,0,0,1-.906-3.605v-1.93a6.463,6.463,0,0,1,.867-3.727,3.108,3.108,0,0,1,2.719-1.219,3.136,3.136,0,0,1,2.7,1.176,6.237,6.237,0,0,1,.891,3.629ZM52.219-6.828A5.3,5.3,0,0,0,51.7-9.5a1.775,1.775,0,0,0-1.633-.84,1.751,1.751,0,0,0-1.617.836,5.171,5.171,0,0,0-.523,2.57v2.313A5.381,5.381,0,0,0,48.465-1.9a1.771,1.771,0,0,0,1.621.879,1.747,1.747,0,0,0,1.59-.828,5.186,5.186,0,0,0,.543-2.609Zm8.109,5.563a2.4,2.4,0,0,0,1.68-1.321,6.349,6.349,0,0,0,.625-2.94V-6.575a4.389,4.389,0,0,0-.758-2.768A2.5,2.5,0,0,0,59.8-10.3a2.465,2.465,0,0,0-2.07.977,4.464,4.464,0,0,0-.75,2.768v.884a6.479,6.479,0,0,0,.613,3.034,2.464,2.464,0,0,0,1.746,1.376V0H55.492V-1.227h1.727a5.5,5.5,0,0,1-1.3-2,6.715,6.715,0,0,1-.469-2.465v-.867A5.891,5.891,0,0,1,56-9.148a4.149,4.149,0,0,1,1.543-1.762,4.152,4.152,0,0,1,2.25-.621,4.178,4.178,0,0,1,2.238.609A4.143,4.143,0,0,1,63.578-9.2a5.769,5.769,0,0,1,.578,2.516v1.016a6.675,6.675,0,0,1-.469,2.449,5.5,5.5,0,0,1-1.3,2h1.719V0H60.328Z" transform="translate(1074.051 8751)" fill="#12263f"/>
    <path id="Trazado_899261" data-name="Trazado 899261" d="M5.5,0A5.5,5.5,0,1,1,0,5.5,5.5,5.5,0,0,1,5.5,0Z" transform="translate(805.051 8561)"/>
    <path id="Trazado_899262" data-name="Trazado 899262" d="M5.5,0A5.5,5.5,0,1,1,0,5.5,5.5,5.5,0,0,1,5.5,0Z" transform="translate(805.051 8890)"/>
    <path id="Trazado_899263" data-name="Trazado 899263" d="M5.492-4.6H2.82V0H1.313V-11.375H5.078a4.457,4.457,0,0,1,2.957.875A3.148,3.148,0,0,1,9.07-7.953,3.062,3.062,0,0,1,8.5-6.1a3.428,3.428,0,0,1-1.6,1.18L9.57-.094V0H7.961ZM2.82-5.828h2.3A2.6,2.6,0,0,0,6.9-6.407a1.959,1.959,0,0,0,.66-1.55,2.062,2.062,0,0,0-.629-1.62,2.663,2.663,0,0,0-1.816-.571H2.82Zm8.641.125.578-5.672h5.828v1.336h-4.6l-.344,3.1a3.671,3.671,0,0,1,1.9-.492A3.138,3.138,0,0,1,17.289-6.4,4.026,4.026,0,0,1,18.2-3.625a3.886,3.886,0,0,1-.949,2.77A3.46,3.46,0,0,1,14.6.156,3.6,3.6,0,0,1,12.141-.68a3.337,3.337,0,0,1-1.086-2.312h1.367a2.3,2.3,0,0,0,.7,1.473,2.162,2.162,0,0,0,1.484.5,1.95,1.95,0,0,0,1.582-.687,2.874,2.874,0,0,0,.574-1.9,2.638,2.638,0,0,0-.621-1.832,2.113,2.113,0,0,0-1.652-.691A2.383,2.383,0,0,0,13-5.719l-.383.313Zm15.078-.656H20.023V-7.617h6.516Zm0,3.242H20.023v-1.25h6.516ZM34.1-5a3.536,3.536,0,0,1-1.082.867,2.936,2.936,0,0,1-1.379.328,3.031,3.031,0,0,1-1.715-.484A3.149,3.149,0,0,1,28.8-5.652a4.648,4.648,0,0,1-.4-1.941,4.735,4.735,0,0,1,.434-2.055,3.185,3.185,0,0,1,1.23-1.4,3.509,3.509,0,0,1,1.859-.484,3.177,3.177,0,0,1,2.66,1.262,5.5,5.5,0,0,1,.973,3.441v.422q0,3.32-1.312,4.848A5.043,5.043,0,0,1,30.281.008H30V-1.219h.3a3.979,3.979,0,0,0,2.75-.932A4,4,0,0,0,34.1-5ZM31.875-5a2.232,2.232,0,0,0,1.34-.445,2.625,2.625,0,0,0,.895-1.1v-.578a3.977,3.977,0,0,0-.617-2.312,1.842,1.842,0,0,0-1.562-.891A1.856,1.856,0,0,0,30.4-9.6a3.013,3.013,0,0,0-.578,1.926,3.136,3.136,0,0,0,.559,1.918A1.769,1.769,0,0,0,31.875-5Zm12.8.148a6.61,6.61,0,0,1-.867,3.773A3.084,3.084,0,0,1,41.1.156a3.107,3.107,0,0,1-2.7-1.207A6.274,6.274,0,0,1,37.5-4.656v-1.93a6.463,6.463,0,0,1,.867-3.727,3.108,3.108,0,0,1,2.719-1.219,3.136,3.136,0,0,1,2.7,1.176,6.237,6.237,0,0,1,.891,3.629ZM43.234-6.828A5.3,5.3,0,0,0,42.719-9.5a1.775,1.775,0,0,0-1.633-.84,1.751,1.751,0,0,0-1.617.836,5.171,5.171,0,0,0-.523,2.57v2.313A5.381,5.381,0,0,0,39.48-1.9a1.771,1.771,0,0,0,1.621.879,1.747,1.747,0,0,0,1.59-.828,5.186,5.186,0,0,0,.543-2.609Zm8.109,5.563a2.4,2.4,0,0,0,1.68-1.321,6.349,6.349,0,0,0,.625-2.94V-6.575a4.389,4.389,0,0,0-.758-2.768,2.5,2.5,0,0,0-2.078-.962,2.465,2.465,0,0,0-2.07.977,4.464,4.464,0,0,0-.75,2.768v.884a6.479,6.479,0,0,0,.613,3.034,2.464,2.464,0,0,0,1.746,1.376V0H46.508V-1.227h1.727a5.5,5.5,0,0,1-1.3-2,6.715,6.715,0,0,1-.469-2.465v-.867a5.891,5.891,0,0,1,.551-2.594,4.149,4.149,0,0,1,1.543-1.762,4.152,4.152,0,0,1,2.25-.621,4.178,4.178,0,0,1,2.238.609A4.143,4.143,0,0,1,54.594-9.2a5.769,5.769,0,0,1,.578,2.516v1.016A6.675,6.675,0,0,1,54.7-3.223a5.5,5.5,0,0,1-1.3,2h1.719V0H51.344Z" transform="translate(1029.051 8633)" fill="#12263f"/>
  </g>
</svg>
