<svg xmlns="http://www.w3.org/2000/svg" width="505" height="82" viewBox="0 0 505 82">
  <g id="Grupo_1108799" data-name="Grupo 1108799" transform="translate(2280 1296)">
    <path id="Trazado_899231" data-name="Trazado 899231" d="M0,0H505V82H0Z" transform="translate(-2280 -1296)" fill="#f4c0c0"/>
    <path id="Trazado_899234" data-name="Trazado 899234" d="M5.227-4.164H3.359V0H1.016V-11.375H5.242a4.778,4.778,0,0,1,3.109.9A3.1,3.1,0,0,1,9.445-7.937,3.5,3.5,0,0,1,8.941-6,3.437,3.437,0,0,1,7.414-4.758L9.875-.109V0H7.359Zm-1.867-1.9H5.25a1.936,1.936,0,0,0,1.367-.449A1.606,1.606,0,0,0,7.1-7.75a1.719,1.719,0,0,0-.457-1.266,1.9,1.9,0,0,0-1.4-.461H3.359Zm16.8,2.273A4.025,4.025,0,0,1,18.8-.9,4.76,4.76,0,0,1,15.578.156a4.28,4.28,0,0,1-3.441-1.473,6.038,6.038,0,0,1-1.254-4.043v-.7a6.819,6.819,0,0,1,.578-2.891,4.332,4.332,0,0,1,1.652-1.918,4.629,4.629,0,0,1,2.5-.668,4.637,4.637,0,0,1,3.172,1.055,4.326,4.326,0,0,1,1.391,2.961H17.828a2.376,2.376,0,0,0-.613-1.6,2.271,2.271,0,0,0-1.605-.5,1.991,1.991,0,0,0-1.754.84,4.707,4.707,0,0,0-.6,2.605V-5.3a5.038,5.038,0,0,0,.559,2.7,1.954,1.954,0,0,0,1.762.852,2.314,2.314,0,0,0,1.621-.5,2.241,2.241,0,0,0,.613-1.535ZM32.711-5.828H25.727V-7.672h6.984Zm0,3.383H25.727V-4.289h6.984Z" transform="translate(-2240.051 -1249.5)" fill="#12263f"/>
    <path id="Trazado_899232" data-name="Trazado 899232" d="M5.227-4.164H3.359V0H1.016V-11.375H5.242a4.778,4.778,0,0,1,3.109.9A3.1,3.1,0,0,1,9.445-7.937,3.5,3.5,0,0,1,8.941-6,3.437,3.437,0,0,1,7.414-4.758L9.875-.109V0H7.359Zm-1.867-1.9H5.25a1.936,1.936,0,0,0,1.367-.449A1.606,1.606,0,0,0,7.1-7.75a1.719,1.719,0,0,0-.457-1.266,1.9,1.9,0,0,0-1.4-.461H3.359ZM17.648-2.344H13.539L12.758,0H10.266L14.5-11.375h2.172L20.93,0H18.438Zm-3.477-1.9h2.844L15.586-8.5ZM27.625-7.52l-2.453-.695.461-1.413,2.43.976-.156-2.724h1.531L29.281-8.6l2.367-.96.461,1.428-2.5.695L31.25-5.355l-1.242.883L28.586-6.754l-1.406,2.2-1.242-.844Zm13.8,3.355H39.555V0H37.211V-11.375h4.227a4.778,4.778,0,0,1,3.109.9,3.1,3.1,0,0,1,1.094,2.539A3.5,3.5,0,0,1,45.137-6a3.437,3.437,0,0,1-1.527,1.238L46.07-.109V0H43.555Zm-1.867-1.9h1.891a1.936,1.936,0,0,0,1.367-.449A1.606,1.606,0,0,0,43.3-7.75a1.719,1.719,0,0,0-.457-1.266,1.9,1.9,0,0,0-1.4-.461H39.555ZM47.422,0V-11.375h3.984a5.232,5.232,0,0,1,3.141.793,2.712,2.712,0,0,1,1.07,2.324,2.57,2.57,0,0,1-.43,1.473,2.482,2.482,0,0,1-1.2.934,2.4,2.4,0,0,1,1.379.883,2.61,2.61,0,0,1,.5,1.625A3,3,0,0,1,54.828-.859,4.713,4.713,0,0,1,51.844,0Zm2.344-4.953v3.07h2.008a1.938,1.938,0,0,0,1.293-.395,1.353,1.353,0,0,0,.465-1.09,1.428,1.428,0,0,0-1.617-1.586Zm0-1.656H51.5q1.773-.031,1.773-1.414a1.307,1.307,0,0,0-.449-1.113,2.363,2.363,0,0,0-1.418-.34H49.766Z" transform="translate(-2175.051 -1261.5)" fill="#12263f"/>
    <path id="Trazado_899112" data-name="Trazado 899112" d="M-4340.051-2586h105" transform="translate(2145 1331)" fill="none" stroke="#000" stroke-width="1"/>
    <path id="Trazado_899235" data-name="Trazado 899235" d="M5.227-4.164H3.359V0H1.016V-11.375H5.242a4.778,4.778,0,0,1,3.109.9A3.1,3.1,0,0,1,9.445-7.937,3.5,3.5,0,0,1,8.941-6,3.437,3.437,0,0,1,7.414-4.758L9.875-.109V0H7.359Zm-1.867-1.9H5.25a1.936,1.936,0,0,0,1.367-.449A1.606,1.606,0,0,0,7.1-7.75a1.719,1.719,0,0,0-.457-1.266,1.9,1.9,0,0,0-1.4-.461H3.359ZM17.648-2.344H13.539L12.758,0H10.266L14.5-11.375h2.172L20.93,0H18.438Zm-3.477-1.9h2.844L15.586-8.5ZM27.625-7.52l-2.453-.695.461-1.413,2.43.976-.156-2.724h1.531L29.281-8.6l2.367-.96.461,1.428-2.5.695L31.25-5.355l-1.242.883L28.586-6.754l-1.406,2.2-1.242-.844Zm13.8,3.355H39.555V0H37.211V-11.375h4.227a4.778,4.778,0,0,1,3.109.9,3.1,3.1,0,0,1,1.094,2.539A3.5,3.5,0,0,1,45.137-6a3.437,3.437,0,0,1-1.527,1.238L46.07-.109V0H43.555Zm-1.867-1.9h1.891a1.936,1.936,0,0,0,1.367-.449A1.606,1.606,0,0,0,43.3-7.75a1.719,1.719,0,0,0-.457-1.266,1.9,1.9,0,0,0-1.4-.461H39.555ZM47.422,0V-11.375h3.984a5.232,5.232,0,0,1,3.141.793,2.712,2.712,0,0,1,1.07,2.324,2.57,2.57,0,0,1-.43,1.473,2.482,2.482,0,0,1-1.2.934,2.4,2.4,0,0,1,1.379.883,2.61,2.61,0,0,1,.5,1.625A3,3,0,0,1,54.828-.859,4.713,4.713,0,0,1,51.844,0Zm2.344-4.953v3.07h2.008a1.938,1.938,0,0,0,1.293-.395,1.353,1.353,0,0,0,.465-1.09,1.428,1.428,0,0,0-1.617-1.586Zm0-1.656H51.5q1.773-.031,1.773-1.414a1.307,1.307,0,0,0-.449-1.113,2.363,2.363,0,0,0-1.418-.34H49.766Z" transform="translate(-2175.051 -1237.5)" fill="#12263f"/>
    <path id="Trazado_899236" data-name="Trazado 899236" d="M8.047-5.828H1.063V-7.672H8.047Zm0,3.383H1.063V-4.289H8.047Z" transform="translate(-2080.051 -1249.5)" fill="#12263f"/>
    <path id="Trazado_899113" data-name="Trazado 899113" d="M-4340.051-2586h123.5" transform="translate(2284 1331)" fill="none" stroke="#000" stroke-width="1"/>
    <path id="Trazado_899233" data-name="Trazado 899233" d="M6.258,0H4V-8.7l-2.7.836V-9.7l4.711-1.687h.242ZM16.633-4.281h1.289v1.82H16.633V0H14.375V-2.461H9.711l-.1-1.422,4.742-7.492h2.281Zm-4.773,0h2.516V-8.3l-.148.258Zm13.953,0H27.1v1.82H25.813V0H23.555V-2.461H18.891l-.1-1.422,4.742-7.492h2.281Zm-4.773,0h2.516V-8.3l-.148.258Zm7.484,3.172a1.137,1.137,0,0,1,.363-.875,1.289,1.289,0,0,1,.91-.336,1.3,1.3,0,0,1,.918.336,1.137,1.137,0,0,1,.363.875,1.121,1.121,0,0,1-.359.863A1.305,1.305,0,0,1,29.8.086a1.294,1.294,0,0,1-.914-.332A1.121,1.121,0,0,1,28.523-1.109ZM40.617-4.7a5.762,5.762,0,0,1-.977,3.609A3.409,3.409,0,0,1,36.781.156,3.433,3.433,0,0,1,33.938-1.07,5.594,5.594,0,0,1,32.93-4.586V-6.68a5.687,5.687,0,0,1,.988-3.617,3.434,3.434,0,0,1,2.848-1.234,3.437,3.437,0,0,1,2.844,1.223A5.576,5.576,0,0,1,40.617-6.8Zm-2.258-2.3a4.165,4.165,0,0,0-.387-2.061,1.307,1.307,0,0,0-1.207-.645A1.284,1.284,0,0,0,35.59-9.1a3.9,3.9,0,0,0-.4,1.92v2.768a4.372,4.372,0,0,0,.379,2.068,1.29,1.29,0,0,0,1.215.676,1.268,1.268,0,0,0,1.2-.649A4.268,4.268,0,0,0,38.359-4.3ZM47.625,0H45.367V-8.7l-2.7.836V-9.7l4.711-1.687h.242ZM57.2-7.52l-2.453-.695L55.2-9.627l2.43.976-.156-2.724h1.531L58.852-8.6l2.367-.96.461,1.428-2.5.695L60.82-5.355l-1.242.883L58.156-6.754l-1.406,2.2-1.242-.844ZM72.023,0H69.766V-8.7l-2.7.836V-9.7l4.711-1.687h.242Zm9.82-11.492v1.859h-.219a3.836,3.836,0,0,0-2.465.8,3.238,3.238,0,0,0-1.121,2.148,3.075,3.075,0,0,1,2.289-.922,2.9,2.9,0,0,1,2.359,1.063,4.259,4.259,0,0,1,.875,2.8,4.19,4.19,0,0,1-.48,2.008,3.446,3.446,0,0,1-1.359,1.4,3.949,3.949,0,0,1-1.988.5,3.689,3.689,0,0,1-2.9-1.25A4.852,4.852,0,0,1,75.727-4.43v-.812a7.3,7.3,0,0,1,.7-3.27,5.127,5.127,0,0,1,2.008-2.2,5.884,5.884,0,0,1,3.035-.785Zm-2.2,5.7a1.8,1.8,0,0,0-.992.285,1.715,1.715,0,0,0-.656.753v.686A3.04,3.04,0,0,0,78.438-2.3a1.439,1.439,0,0,0,1.25.635,1.423,1.423,0,0,0,1.176-.573,2.337,2.337,0,0,0,.449-1.485,2.333,2.333,0,0,0-.453-1.5A1.477,1.477,0,0,0,79.641-5.789ZM92.313-8.352A2.646,2.646,0,0,1,91.9-6.883a2.98,2.98,0,0,1-1.141,1.023,3.3,3.3,0,0,1,1.313,1.1,2.816,2.816,0,0,1,.484,1.645A2.981,2.981,0,0,1,91.523-.723a4.183,4.183,0,0,1-2.8.879,4.2,4.2,0,0,1-2.812-.883,2.974,2.974,0,0,1-1.039-2.391,2.834,2.834,0,0,1,.484-1.648,3.239,3.239,0,0,1,1.3-1.094A2.95,2.95,0,0,1,85.52-6.883a2.664,2.664,0,0,1-.41-1.469,2.948,2.948,0,0,1,.969-2.316,3.814,3.814,0,0,1,2.633-.863,3.839,3.839,0,0,1,2.629.855A2.937,2.937,0,0,1,92.313-8.352Zm-2.023,5.07a1.638,1.638,0,0,0-.43-1.187A1.532,1.532,0,0,0,88.7-4.914a1.529,1.529,0,0,0-1.148.441,1.635,1.635,0,0,0-.43,1.191,1.634,1.634,0,0,0,.422,1.172,1.537,1.537,0,0,0,1.172.445,1.533,1.533,0,0,0,1.152-.43A1.631,1.631,0,0,0,90.289-3.281Zm-.234-4.961A1.563,1.563,0,0,0,89.7-9.309a1.247,1.247,0,0,0-.992-.4,1.256,1.256,0,0,0-.984.391,1.553,1.553,0,0,0-.352,1.078,1.633,1.633,0,0,0,.352,1.094,1.23,1.23,0,0,0,.992.414,1.219,1.219,0,0,0,.988-.414A1.645,1.645,0,0,0,90.055-8.242Zm4.234,7.133a1.137,1.137,0,0,1,.363-.875,1.289,1.289,0,0,1,.91-.336,1.3,1.3,0,0,1,.918.336,1.137,1.137,0,0,1,.363.875,1.121,1.121,0,0,1-.359.863,1.305,1.305,0,0,1-.922.332,1.294,1.294,0,0,1-.914-.332A1.121,1.121,0,0,1,94.289-1.109ZM106.523,0h-7.8V-1.547l3.68-3.922a9.078,9.078,0,0,0,1.121-1.445,2.322,2.322,0,0,0,.363-1.172,1.738,1.738,0,0,0-.383-1.191,1.382,1.382,0,0,0-1.094-.434,1.49,1.49,0,0,0-1.207.527,2.089,2.089,0,0,0-.441,1.387H98.5A3.729,3.729,0,0,1,99-9.7a3.5,3.5,0,0,1,1.4-1.348,4.262,4.262,0,0,1,2.055-.488,4.036,4.036,0,0,1,2.73.844,2.985,2.985,0,0,1,.973,2.383,3.825,3.825,0,0,1-.437,1.719,9.551,9.551,0,0,1-1.5,2.039L101.633-1.82h4.891Z" transform="translate(-2052.345 -1261.5)" fill="#12263f"/>
    <path id="Trazado_899237" data-name="Trazado 899237" d="M6.258,0H4V-8.7l-2.7.836V-9.7l4.711-1.687h.242ZM16.633-4.281h1.289v1.82H16.633V0H14.375V-2.461H9.711l-.1-1.422,4.742-7.492h2.281Zm-4.773,0h2.516V-8.3l-.148.258Zm13.953,0H27.1v1.82H25.813V0H23.555V-2.461H18.891l-.1-1.422,4.742-7.492h2.281Zm-4.773,0h2.516V-8.3l-.148.258Zm7.484,3.172a1.137,1.137,0,0,1,.363-.875,1.289,1.289,0,0,1,.91-.336,1.3,1.3,0,0,1,.918.336,1.137,1.137,0,0,1,.363.875,1.121,1.121,0,0,1-.359.863A1.305,1.305,0,0,1,29.8.086a1.294,1.294,0,0,1-.914-.332A1.121,1.121,0,0,1,28.523-1.109ZM40.617-4.7a5.762,5.762,0,0,1-.977,3.609A3.409,3.409,0,0,1,36.781.156,3.433,3.433,0,0,1,33.938-1.07,5.594,5.594,0,0,1,32.93-4.586V-6.68a5.687,5.687,0,0,1,.988-3.617,3.434,3.434,0,0,1,2.848-1.234,3.437,3.437,0,0,1,2.844,1.223A5.576,5.576,0,0,1,40.617-6.8Zm-2.258-2.3a4.165,4.165,0,0,0-.387-2.061,1.307,1.307,0,0,0-1.207-.645A1.284,1.284,0,0,0,35.59-9.1a3.9,3.9,0,0,0-.4,1.92v2.768a4.372,4.372,0,0,0,.379,2.068,1.29,1.29,0,0,0,1.215.676,1.268,1.268,0,0,0,1.2-.649A4.268,4.268,0,0,0,38.359-4.3ZM47.625,0H45.367V-8.7l-2.7.836V-9.7l4.711-1.687h.242ZM57.2-7.52l-2.453-.695L55.2-9.627l2.43.976-.156-2.724h1.531L58.852-8.6l2.367-.96.461,1.428-2.5.695L60.82-5.355l-1.242.883L58.156-6.754l-1.406,2.2-1.242-.844ZM72.023,0H69.766V-8.7l-2.7.836V-9.7l4.711-1.687h.242Zm9.82-11.492v1.859h-.219a3.836,3.836,0,0,0-2.465.8,3.238,3.238,0,0,0-1.121,2.148,3.075,3.075,0,0,1,2.289-.922,2.9,2.9,0,0,1,2.359,1.063,4.259,4.259,0,0,1,.875,2.8,4.19,4.19,0,0,1-.48,2.008,3.446,3.446,0,0,1-1.359,1.4,3.949,3.949,0,0,1-1.988.5,3.689,3.689,0,0,1-2.9-1.25A4.852,4.852,0,0,1,75.727-4.43v-.812a7.3,7.3,0,0,1,.7-3.27,5.127,5.127,0,0,1,2.008-2.2,5.884,5.884,0,0,1,3.035-.785Zm-2.2,5.7a1.8,1.8,0,0,0-.992.285,1.715,1.715,0,0,0-.656.753v.686A3.04,3.04,0,0,0,78.438-2.3a1.439,1.439,0,0,0,1.25.635,1.423,1.423,0,0,0,1.176-.573,2.337,2.337,0,0,0,.449-1.485,2.333,2.333,0,0,0-.453-1.5A1.477,1.477,0,0,0,79.641-5.789ZM92.313-8.352A2.646,2.646,0,0,1,91.9-6.883a2.98,2.98,0,0,1-1.141,1.023,3.3,3.3,0,0,1,1.313,1.1,2.816,2.816,0,0,1,.484,1.645A2.981,2.981,0,0,1,91.523-.723a4.183,4.183,0,0,1-2.8.879,4.2,4.2,0,0,1-2.812-.883,2.974,2.974,0,0,1-1.039-2.391,2.834,2.834,0,0,1,.484-1.648,3.239,3.239,0,0,1,1.3-1.094A2.95,2.95,0,0,1,85.52-6.883a2.664,2.664,0,0,1-.41-1.469,2.948,2.948,0,0,1,.969-2.316,3.814,3.814,0,0,1,2.633-.863,3.839,3.839,0,0,1,2.629.855A2.937,2.937,0,0,1,92.313-8.352Zm-2.023,5.07a1.638,1.638,0,0,0-.43-1.187A1.532,1.532,0,0,0,88.7-4.914a1.529,1.529,0,0,0-1.148.441,1.635,1.635,0,0,0-.43,1.191,1.634,1.634,0,0,0,.422,1.172,1.537,1.537,0,0,0,1.172.445,1.533,1.533,0,0,0,1.152-.43A1.631,1.631,0,0,0,90.289-3.281Zm-.234-4.961A1.563,1.563,0,0,0,89.7-9.309a1.247,1.247,0,0,0-.992-.4,1.256,1.256,0,0,0-.984.391,1.553,1.553,0,0,0-.352,1.078,1.633,1.633,0,0,0,.352,1.094,1.23,1.23,0,0,0,.992.414,1.219,1.219,0,0,0,.988-.414A1.645,1.645,0,0,0,90.055-8.242Zm4.234,7.133a1.137,1.137,0,0,1,.363-.875,1.289,1.289,0,0,1,.91-.336,1.3,1.3,0,0,1,.918.336,1.137,1.137,0,0,1,.363.875,1.121,1.121,0,0,1-.359.863,1.305,1.305,0,0,1-.922.332,1.294,1.294,0,0,1-.914-.332A1.121,1.121,0,0,1,94.289-1.109ZM106.523,0h-7.8V-1.547l3.68-3.922a9.078,9.078,0,0,0,1.121-1.445,2.322,2.322,0,0,0,.363-1.172,1.738,1.738,0,0,0-.383-1.191,1.382,1.382,0,0,0-1.094-.434,1.49,1.49,0,0,0-1.207.527,2.089,2.089,0,0,0-.441,1.387H98.5A3.729,3.729,0,0,1,99-9.7a3.5,3.5,0,0,1,1.4-1.348,4.262,4.262,0,0,1,2.055-.488,4.036,4.036,0,0,1,2.73.844,2.985,2.985,0,0,1,.973,2.383,3.825,3.825,0,0,1-.437,1.719,9.551,9.551,0,0,1-1.5,2.039L101.633-1.82h4.891Z" transform="translate(-2052.345 -1237.5)" fill="#12263f"/>
    <path id="Trazado_899238" data-name="Trazado 899238" d="M8.047-5.828H1.063V-7.672H8.047Zm0,3.383H1.063V-4.289H8.047Z" transform="translate(-1921.051 -1249.5)" fill="#12263f"/>
    <path id="Trazado_899239" data-name="Trazado 899239" d="M8.508-10.115,4.109,0H1.727L6.133-9.555H.477v-1.82H8.508Zm9.18,0L13.289,0H10.906l4.406-9.555H9.656v-1.82h8.031Zm1.656,9.005a1.137,1.137,0,0,1,.363-.875,1.289,1.289,0,0,1,.91-.336,1.3,1.3,0,0,1,.918.336,1.137,1.137,0,0,1,.363.875,1.121,1.121,0,0,1-.359.863,1.305,1.305,0,0,1-.922.332A1.294,1.294,0,0,1,19.7-.246,1.121,1.121,0,0,1,19.344-1.109Zm4.773-4.484.656-5.781h6.375v1.883H26.625l-.281,2.445a3.58,3.58,0,0,1,1.711-.43A3.279,3.279,0,0,1,30.6-6.469a4.026,4.026,0,0,1,.922,2.82,4.124,4.124,0,0,1-.465,1.973A3.281,3.281,0,0,1,29.727-.324a4.158,4.158,0,0,1-2.047.48,4.416,4.416,0,0,1-1.914-.418,3.4,3.4,0,0,1-1.395-1.176,3.2,3.2,0,0,1-.543-1.727h2.234a1.669,1.669,0,0,0,.5,1.105,1.573,1.573,0,0,0,1.113.395,1.388,1.388,0,0,0,1.18-.551,2.551,2.551,0,0,0,.414-1.559,2.11,2.11,0,0,0-.477-1.484,1.749,1.749,0,0,0-1.352-.516,1.954,1.954,0,0,0-1.3.422l-.219.2ZM40.375-8.352a2.646,2.646,0,0,1-.414,1.469A2.98,2.98,0,0,1,38.82-5.859a3.3,3.3,0,0,1,1.313,1.1,2.816,2.816,0,0,1,.484,1.645A2.981,2.981,0,0,1,39.586-.723a4.183,4.183,0,0,1-2.8.879,4.2,4.2,0,0,1-2.812-.883A2.974,2.974,0,0,1,32.93-3.117a2.834,2.834,0,0,1,.484-1.648,3.239,3.239,0,0,1,1.3-1.094,2.95,2.95,0,0,1-1.137-1.023,2.664,2.664,0,0,1-.41-1.469,2.948,2.948,0,0,1,.969-2.316,3.814,3.814,0,0,1,2.633-.863,3.839,3.839,0,0,1,2.629.855A2.937,2.937,0,0,1,40.375-8.352Zm-2.023,5.07a1.638,1.638,0,0,0-.43-1.187,1.532,1.532,0,0,0-1.156-.445,1.529,1.529,0,0,0-1.148.441,1.635,1.635,0,0,0-.43,1.191,1.634,1.634,0,0,0,.422,1.172,1.537,1.537,0,0,0,1.172.445,1.533,1.533,0,0,0,1.152-.43A1.631,1.631,0,0,0,38.352-3.281Zm-.234-4.961a1.563,1.563,0,0,0-.352-1.066,1.247,1.247,0,0,0-.992-.4,1.256,1.256,0,0,0-.984.391,1.553,1.553,0,0,0-.352,1.078,1.633,1.633,0,0,0,.352,1.094,1.23,1.23,0,0,0,.992.414,1.219,1.219,0,0,0,.988-.414A1.645,1.645,0,0,0,38.117-8.242Zm12.977,6.3q1.359-.586,1.453-3.656l.008-1.141a3.793,3.793,0,0,0-.5-2.152,1.6,1.6,0,0,0-1.4-.723,1.6,1.6,0,0,0-1.387.723,3.77,3.77,0,0,0-.5,2.152v.68a8.269,8.269,0,0,0,.383,2.793,2.067,2.067,0,0,0,1.133,1.324V0h-4V-1.906h1.7a5.423,5.423,0,0,1-1.336-1.855,5.605,5.605,0,0,1-.492-2.262v-.7a5.323,5.323,0,0,1,.57-2.484,4.165,4.165,0,0,1,1.6-1.711,4.5,4.5,0,0,1,2.336-.609,4.521,4.521,0,0,1,2.316.6,4.162,4.162,0,0,1,1.6,1.672,5.247,5.247,0,0,1,.6,2.418v.781a5.527,5.527,0,0,1-.492,2.3,5.48,5.48,0,0,1-1.336,1.848h1.688V0H51.094Z" transform="translate(-1901.051 -1249.5)" fill="#12263f"/>
  </g>
</svg>
