<svg xmlns="http://www.w3.org/2000/svg" width="315" height="82" viewBox="0 0 315 82">
  <g id="Grupo_1108808" data-name="Grupo 1108808" transform="translate(2085.949 -907.5)">
    <path id="Trazado_899262" data-name="Trazado 899262" d="M0,0H315V82H0Z" transform="translate(-2085.949 907.5)" fill="#f4c0c0"/>
    <path id="Trazado_899263" data-name="Trazado 899263" d="M5.219-2.82,7.8-11.375h2.609L6.445,0H4L.055-11.375h2.6ZM22.492-5.828H15.508V-7.672h6.984Zm0,3.383H15.508V-4.289h6.984ZM32.625-4.164H30.766L30.039,0H27.75l1.977-11.375,3.766.008a4.289,4.289,0,0,1,2.91.891A2.817,2.817,0,0,1,37.3-8a3.574,3.574,0,0,1-2.5,3.258l1.6,4.617V0H33.969Zm-1.531-1.9,1.7.016a2.386,2.386,0,0,0,1.5-.488A1.933,1.933,0,0,0,35-7.82a1.473,1.473,0,0,0-.242-1.187,1.442,1.442,0,0,0-1.117-.461l-1.953-.008ZM44.219-7.52l-2.453-.695.461-1.413,2.43.976L44.5-11.375h1.531L45.875-8.6l2.367-.96L48.7-8.128l-2.5.695,1.641,2.078L46.6-4.473,45.18-6.754l-1.406,2.2-1.242-.844ZM56.3,0H53.953V-11.375H56.3ZM69.484-5.828H62.5V-7.672h6.984Zm0,3.383H62.5V-4.289h6.984ZM82.031-4.281H83.32v1.82H82.031V0H79.773V-2.461H75.109l-.1-1.422,4.742-7.492h2.281Zm-4.773,0h2.516V-8.3l-.148.258Zm14.688-4.07a2.646,2.646,0,0,1-.414,1.469,2.98,2.98,0,0,1-1.141,1.023,3.3,3.3,0,0,1,1.313,1.1,2.816,2.816,0,0,1,.484,1.645A2.981,2.981,0,0,1,91.156-.723a4.183,4.183,0,0,1-2.8.879,4.2,4.2,0,0,1-2.812-.883A2.974,2.974,0,0,1,84.5-3.117a2.834,2.834,0,0,1,.484-1.648,3.239,3.239,0,0,1,1.3-1.094,2.95,2.95,0,0,1-1.137-1.023,2.664,2.664,0,0,1-.41-1.469,2.948,2.948,0,0,1,.969-2.316,3.814,3.814,0,0,1,2.633-.863,3.839,3.839,0,0,1,2.629.855A2.937,2.937,0,0,1,91.945-8.352Zm-2.023,5.07a1.638,1.638,0,0,0-.43-1.187,1.532,1.532,0,0,0-1.156-.445,1.529,1.529,0,0,0-1.148.441,1.635,1.635,0,0,0-.43,1.191,1.634,1.634,0,0,0,.422,1.172,1.537,1.537,0,0,0,1.172.445,1.533,1.533,0,0,0,1.152-.43A1.631,1.631,0,0,0,89.922-3.281Zm-.234-4.961a1.563,1.563,0,0,0-.352-1.066,1.247,1.247,0,0,0-.992-.4,1.256,1.256,0,0,0-.984.391,1.553,1.553,0,0,0-.352,1.078,1.633,1.633,0,0,0,.352,1.094,1.23,1.23,0,0,0,.992.414,1.219,1.219,0,0,0,.988-.414A1.645,1.645,0,0,0,89.688-8.242Zm4.359,2.648.656-5.781h6.375v1.883H96.555l-.281,2.445a3.58,3.58,0,0,1,1.711-.43,3.279,3.279,0,0,1,2.547,1.008,4.026,4.026,0,0,1,.922,2.82,4.124,4.124,0,0,1-.465,1.973A3.281,3.281,0,0,1,99.656-.324a4.158,4.158,0,0,1-2.047.48A4.416,4.416,0,0,1,95.7-.262,3.4,3.4,0,0,1,94.3-1.437a3.2,3.2,0,0,1-.543-1.727h2.234a1.669,1.669,0,0,0,.5,1.105,1.573,1.573,0,0,0,1.113.395,1.388,1.388,0,0,0,1.18-.551A2.551,2.551,0,0,0,99.2-3.773a2.11,2.11,0,0,0-.477-1.484,1.749,1.749,0,0,0-1.352-.516,1.954,1.954,0,0,0-1.3.422l-.219.2Zm9.18,0,.656-5.781h6.375v1.883h-4.523l-.281,2.445a3.58,3.58,0,0,1,1.711-.43,3.279,3.279,0,0,1,2.547,1.008,4.026,4.026,0,0,1,.922,2.82,4.124,4.124,0,0,1-.465,1.973,3.281,3.281,0,0,1-1.332,1.352,4.158,4.158,0,0,1-2.047.48,4.416,4.416,0,0,1-1.914-.418,3.4,3.4,0,0,1-1.395-1.176,3.2,3.2,0,0,1-.543-1.727h2.234a1.669,1.669,0,0,0,.5,1.105,1.573,1.573,0,0,0,1.113.395,1.388,1.388,0,0,0,1.18-.551,2.551,2.551,0,0,0,.414-1.559,2.11,2.11,0,0,0-.477-1.484,1.749,1.749,0,0,0-1.352-.516,1.954,1.954,0,0,0-1.3.422l-.219.2Zm9.055,4.484a1.137,1.137,0,0,1,.363-.875,1.289,1.289,0,0,1,.91-.336,1.3,1.3,0,0,1,.918.336,1.137,1.137,0,0,1,.363.875,1.121,1.121,0,0,1-.359.863,1.305,1.305,0,0,1-.922.332,1.294,1.294,0,0,1-.914-.332A1.121,1.121,0,0,1,112.281-1.109ZM124.375-4.7a5.763,5.763,0,0,1-.977,3.609,3.409,3.409,0,0,1-2.859,1.25A3.433,3.433,0,0,1,117.7-1.07a5.594,5.594,0,0,1-1.008-3.516V-6.68a5.687,5.687,0,0,1,.988-3.617,3.434,3.434,0,0,1,2.848-1.234,3.437,3.437,0,0,1,2.844,1.223A5.576,5.576,0,0,1,124.375-6.8Zm-2.258-2.3a4.165,4.165,0,0,0-.387-2.061,1.307,1.307,0,0,0-1.207-.645,1.284,1.284,0,0,0-1.176.614,3.9,3.9,0,0,0-.4,1.92v2.768a4.373,4.373,0,0,0,.379,2.068,1.29,1.29,0,0,0,1.215.676,1.268,1.268,0,0,0,1.2-.649,4.268,4.268,0,0,0,.383-1.986ZM133.7,0h-7.8V-1.547l3.68-3.922A9.078,9.078,0,0,0,130.7-6.914a2.322,2.322,0,0,0,.363-1.172,1.738,1.738,0,0,0-.383-1.191,1.382,1.382,0,0,0-1.094-.434,1.49,1.49,0,0,0-1.207.527,2.089,2.089,0,0,0-.441,1.387h-2.266a3.729,3.729,0,0,1,.5-1.9,3.5,3.5,0,0,1,1.4-1.348,4.262,4.262,0,0,1,2.055-.488,4.036,4.036,0,0,1,2.73.844,2.985,2.985,0,0,1,.973,2.383,3.825,3.825,0,0,1-.437,1.719,9.552,9.552,0,0,1-1.5,2.039L128.8-1.82H133.7Zm6.352-1.937q1.359-.586,1.453-3.656l.008-1.141a3.793,3.793,0,0,0-.5-2.152,1.6,1.6,0,0,0-1.4-.723,1.6,1.6,0,0,0-1.387.723,3.77,3.77,0,0,0-.5,2.152v.68a8.27,8.27,0,0,0,.383,2.793,2.067,2.067,0,0,0,1.133,1.324V0h-4V-1.906h1.7a5.423,5.423,0,0,1-1.336-1.855,5.605,5.605,0,0,1-.492-2.262v-.7a5.323,5.323,0,0,1,.57-2.484,4.165,4.165,0,0,1,1.6-1.711,4.5,4.5,0,0,1,2.336-.609,4.521,4.521,0,0,1,2.316.6,4.162,4.162,0,0,1,1.6,1.672,5.247,5.247,0,0,1,.6,2.418v.781a5.527,5.527,0,0,1-.492,2.3A5.48,5.48,0,0,1,142.3-1.906h1.688V0h-3.937ZM151.7-7.52l-2.453-.695.461-1.413,2.43.976-.156-2.724h1.531L153.359-8.6l2.367-.96.461,1.428-2.5.695,1.641,2.078-1.242.883-1.422-2.281-1.406,2.2-1.242-.844Zm9.68,1.926.656-5.781h6.375v1.883h-4.523l-.281,2.445a3.58,3.58,0,0,1,1.711-.43,3.279,3.279,0,0,1,2.547,1.008,4.026,4.026,0,0,1,.922,2.82,4.124,4.124,0,0,1-.465,1.973,3.281,3.281,0,0,1-1.332,1.352,4.158,4.158,0,0,1-2.047.48,4.416,4.416,0,0,1-1.914-.418,3.4,3.4,0,0,1-1.395-1.176,3.2,3.2,0,0,1-.543-1.727h2.234a1.669,1.669,0,0,0,.5,1.105,1.573,1.573,0,0,0,1.113.395,1.388,1.388,0,0,0,1.18-.551,2.551,2.551,0,0,0,.414-1.559,2.11,2.11,0,0,0-.477-1.484,1.749,1.749,0,0,0-1.352-.516,1.954,1.954,0,0,0-1.3.422l-.219.2Zm16.5.891a5.762,5.762,0,0,1-.977,3.609,3.409,3.409,0,0,1-2.859,1.25A3.433,3.433,0,0,1,171.2-1.07,5.594,5.594,0,0,1,170.2-4.586V-6.68a5.687,5.687,0,0,1,.988-3.617,3.434,3.434,0,0,1,2.848-1.234,3.437,3.437,0,0,1,2.844,1.223A5.576,5.576,0,0,1,177.883-6.8Zm-2.258-2.3a4.165,4.165,0,0,0-.387-2.061,1.307,1.307,0,0,0-1.207-.645,1.284,1.284,0,0,0-1.176.614,3.9,3.9,0,0,0-.4,1.92v2.768a4.372,4.372,0,0,0,.379,2.068,1.29,1.29,0,0,0,1.215.676,1.268,1.268,0,0,0,1.2-.649,4.268,4.268,0,0,0,.383-1.986Zm5.992-1.448.07.945a2.971,2.971,0,0,1,2.43-1.1,2.255,2.255,0,0,1,2.242,1.289A2.9,2.9,0,0,1,188.9-8.609a2.521,2.521,0,0,1,2.047.8,3.681,3.681,0,0,1,.672,2.41V0h-2.266V-5.391a1.61,1.61,0,0,0-.281-1.051,1.246,1.246,0,0,0-.992-.332,1.409,1.409,0,0,0-1.406.969L186.68,0h-2.258V-5.383a1.59,1.59,0,0,0-.289-1.062,1.259,1.259,0,0,0-.984-.328,1.463,1.463,0,0,0-1.391.8V0H179.5V-8.453Zm18.3,6.109h-4.109L195.031,0h-2.492l4.234-11.375h2.172L203.2,0h-2.492Zm-3.477-1.9h2.844L197.859-8.5Zm18.836-1.586H208.3V-7.672h6.984Zm0,3.383H208.3V-4.289h6.984ZM228.945,0h-7.8V-1.547l3.68-3.922a9.078,9.078,0,0,0,1.121-1.445,2.322,2.322,0,0,0,.363-1.172,1.738,1.738,0,0,0-.383-1.191,1.382,1.382,0,0,0-1.094-.434,1.49,1.49,0,0,0-1.207.527,2.089,2.089,0,0,0-.441,1.387h-2.266a3.729,3.729,0,0,1,.5-1.9,3.5,3.5,0,0,1,1.4-1.348,4.262,4.262,0,0,1,2.055-.488,4.036,4.036,0,0,1,2.73.844,2.985,2.985,0,0,1,.973,2.383,3.825,3.825,0,0,1-.437,1.719,9.552,9.552,0,0,1-1.5,2.039L224.055-1.82h4.891Zm8.063-4.281H238.3v1.82h-1.289V0H234.75V-2.461h-4.664l-.1-1.422,4.742-7.492h2.281Zm-4.773,0h2.516V-8.3l-.148.258ZM247.3,0h-7.8V-1.547l3.68-3.922a9.078,9.078,0,0,0,1.121-1.445,2.322,2.322,0,0,0,.363-1.172,1.738,1.738,0,0,0-.383-1.191,1.382,1.382,0,0,0-1.094-.434,1.49,1.49,0,0,0-1.207.527,2.089,2.089,0,0,0-.441,1.387h-2.266a3.729,3.729,0,0,1,.5-1.9,3.5,3.5,0,0,1,1.4-1.348,4.262,4.262,0,0,1,2.055-.488,4.036,4.036,0,0,1,2.73.844,2.985,2.985,0,0,1,.973,2.383,3.825,3.825,0,0,1-.437,1.719A9.552,9.552,0,0,1,245-4.547L242.414-1.82H247.3ZM248.9-1.109a1.137,1.137,0,0,1,.363-.875,1.289,1.289,0,0,1,.91-.336,1.3,1.3,0,0,1,.918.336,1.137,1.137,0,0,1,.363.875,1.121,1.121,0,0,1-.359.863,1.305,1.305,0,0,1-.922.332,1.294,1.294,0,0,1-.914-.332A1.121,1.121,0,0,1,248.9-1.109Zm12.172-9.005L256.672,0h-2.383L258.7-9.555h-5.656v-1.82h8.031Zm1.781,4.521.656-5.781h6.375v1.883h-4.523l-.281,2.445a3.58,3.58,0,0,1,1.711-.43,3.279,3.279,0,0,1,2.547,1.008,4.026,4.026,0,0,1,.922,2.82,4.124,4.124,0,0,1-.465,1.973,3.281,3.281,0,0,1-1.332,1.352,4.158,4.158,0,0,1-2.047.48A4.416,4.416,0,0,1,264.5-.262a3.4,3.4,0,0,1-1.395-1.176,3.2,3.2,0,0,1-.543-1.727H264.8a1.669,1.669,0,0,0,.5,1.105,1.573,1.573,0,0,0,1.113.395,1.388,1.388,0,0,0,1.18-.551A2.552,2.552,0,0,0,268-3.773a2.11,2.11,0,0,0-.477-1.484,1.749,1.749,0,0,0-1.352-.516,1.954,1.954,0,0,0-1.3.422l-.219.2Zm16.789,2.75,3.828-8.531h2.625L280.477,0h-2.391l-2.047-11.375H278.5Z" transform="translate(-2068 954)" fill="#12263f"/>
  </g>
</svg>
