<svg xmlns="http://www.w3.org/2000/svg" width="330.217" height="69" viewBox="0 0 330.217 69">
  <g id="Grupo_1085689" data-name="Grupo 1085689" transform="translate(-16030.949 -8223)">
    <g id="Grupo_1108807" data-name="Grupo 1108807" transform="translate(15703.898 2325)">
      <path id="Trazado_899278" data-name="Trazado 899278" d="M0,0H330.217V69H0Z" transform="translate(327.051 5898)" fill="#f4c0c0"/>
      <path id="Trazado_899279" data-name="Trazado 899279" d="M5.266,0h-2.2l1.5-8.656L1.8-7.82l.344-1.93,4.75-1.641L7.18-11.4Zm5.281-2.328A1.22,1.22,0,0,1,11.441-2a1.111,1.111,0,0,1,.371.855,1.151,1.151,0,0,1-.344.879A1.194,1.194,0,0,1,10.585.1,1.2,1.2,0,0,1,9.7-.219a1.149,1.149,0,0,1-.375-.852,1.161,1.161,0,0,1,.336-.883A1.238,1.238,0,0,1,10.547-2.328Zm22.867-3.5H26.625l.328-1.844h6.789Zm-.586,3.383H26.039l.328-1.844h6.789Z" transform="translate(347 5935)" fill="#12263f"/>
      <path id="Trazado_899280" data-name="Trazado 899280" d="M4.734-2.844l3.828-8.531h2.625L5.57,0H3.18L1.133-11.375H3.594Z" transform="translate(400 5928)" fill="#12263f"/>
      <path id="Trazado_899249" data-name="Trazado 899249" d="M-3842.051-10039.182H-3821" transform="translate(4235 15972)" fill="none" stroke="#000" stroke-width="1"/>
      <path id="Trazado_899281" data-name="Trazado 899281" d="M5.039-4.164H3.18L2.453,0H.164L2.141-11.375l3.766.008a4.289,4.289,0,0,1,2.91.891A2.817,2.817,0,0,1,9.719-8a3.574,3.574,0,0,1-2.5,3.258L8.82-.125V0H6.383Zm-1.531-1.9,1.7.016a2.386,2.386,0,0,0,1.5-.488A1.933,1.933,0,0,0,7.414-7.82a1.473,1.473,0,0,0-.242-1.187,1.442,1.442,0,0,0-1.117-.461L4.1-9.477ZM15.25,0h-2.2l1.5-8.656-2.766.836.344-1.93,4.75-1.641.289-.008Z" transform="translate(395 5951)" fill="#12263f"/>
      <path id="Trazado_899282" data-name="Trazado 899282" d="M8.008-5.828H1.219l.328-1.844H8.336ZM7.422-2.445H.633L.961-4.289H7.75Z" transform="translate(427 5935)" fill="#12263f"/>
      <path id="Trazado_899283" data-name="Trazado 899283" d="M7.586,0H.008L.266-1.641,4.3-5.43A8.947,8.947,0,0,0,5.953-7.32a2.214,2.214,0,0,0,.3-1.422,1.061,1.061,0,0,0-1.117-.992,1.6,1.6,0,0,0-1.254.523A2.453,2.453,0,0,0,3.273-7.8l-2.2.008A3.863,3.863,0,0,1,1.7-9.719a3.882,3.882,0,0,1,1.52-1.348,4.405,4.405,0,0,1,2.051-.473,3.5,3.5,0,0,1,2.469.891A2.756,2.756,0,0,1,8.521-8.36,5.546,5.546,0,0,1,6.625-5L5.5-3.93,3.172-1.836l4.7.016Zm8.57-4.281h1.25l-.32,1.82h-1.25L15.406,0H13.2l.43-2.461H9.117L9.273-4l5.8-7.375h2.3ZM11.563-4.3l2.391.016.773-4.047-.2.281ZM26.648-2.844l3.828-8.531H33.1L27.484,0h-2.39L23.047-11.375h2.461Z" transform="translate(475 5928)" fill="#12263f"/>
      <path id="Trazado_899250" data-name="Trazado 899250" d="M-3842.05-10039.182h88.1" transform="translate(4290 15972)" fill="none" stroke="#000" stroke-width="1"/>
      <path id="Trazado_899284" data-name="Trazado 899284" d="M5.266,0h-2.2l1.5-8.656L1.8-7.82l.344-1.93,4.75-1.641L7.18-11.4ZM14.25,0h-2.2l1.5-8.656-2.766.836.344-1.93,4.75-1.641.289-.008ZM27.063-10,21.281,0h-2.43l5.766-9.555H19.18l.289-1.82h7.8Zm5.852,5.443a2.919,2.919,0,0,1-2.055.875,2.618,2.618,0,0,1-1.594-.5,2.88,2.88,0,0,1-.973-1.371,4.375,4.375,0,0,1-.223-1.9,4.716,4.716,0,0,1,.8-2.273,4.133,4.133,0,0,1,1.789-1.5,3.737,3.737,0,0,1,1.594-.3,2.925,2.925,0,0,1,2.242.984,4.19,4.19,0,0,1,.945,2.555,7.062,7.062,0,0,1-.023,1.1l-.086.672A7.587,7.587,0,0,1,33.21-1.559,6.149,6.149,0,0,1,28.75.117h-.164l.172-1.891h.117a4.212,4.212,0,0,0,2.531-.668,4.236,4.236,0,0,0,1.508-2.113ZM31.469-5.4a1.956,1.956,0,0,0,1.656-.959l.133-.944a6.307,6.307,0,0,0,.039-.741,2.247,2.247,0,0,0-.312-1.2,1,1,0,0,0-.859-.468,1.432,1.432,0,0,0-1.012.4,2.536,2.536,0,0,0-.68,1.119,3.519,3.519,0,0,0-.168,1.411,1.741,1.741,0,0,0,.371,1,1.059,1.059,0,0,0,.832.382ZM37.5-2.328A1.22,1.22,0,0,1,38.4-2a1.111,1.111,0,0,1,.371.855,1.151,1.151,0,0,1-.344.879A1.194,1.194,0,0,1,37.539.1a1.2,1.2,0,0,1-.883-.312,1.149,1.149,0,0,1-.375-.852,1.161,1.161,0,0,1,.336-.883A1.238,1.238,0,0,1,37.5-2.328ZM48.109,0H40.531l.258-1.641L44.828-5.43a8.947,8.947,0,0,0,1.649-1.89,2.214,2.214,0,0,0,.3-1.422,1.061,1.061,0,0,0-1.117-.992,1.6,1.6,0,0,0-1.254.523A2.453,2.453,0,0,0,43.8-7.8l-2.2.008a3.863,3.863,0,0,1,.633-1.93,3.882,3.882,0,0,1,1.52-1.348,4.405,4.405,0,0,1,2.051-.473,3.5,3.5,0,0,1,2.469.891,2.756,2.756,0,0,1,.781,2.289A5.546,5.546,0,0,1,47.148-5L46.023-3.93,43.7-1.836l4.7.016ZM58.6-10,52.82,0H50.39l5.766-9.555H50.719l.289-1.82h7.8Zm8.336,5.459-1.5,1.391L64.891,0H62.6l1.977-11.375h2.289l-.875,5.016,1.164-1.312,3.422-3.7h2.984L68.648-6.2,71.578,0H68.969ZM77.414-1.93a3,3,0,0,0,1.492-1.523,10.563,10.563,0,0,0,.789-3.43,7.067,7.067,0,0,0,.039-1.062q-.125-1.617-1.328-1.672a1.8,1.8,0,0,0-1.535.691,4.341,4.341,0,0,0-.836,2.176q-.215,1.438-.254,1.941a9.022,9.022,0,0,0-.023.988q.031,1.469.883,1.883L76.344,0h-3.9L72.8-1.906l1.633-.008a7.176,7.176,0,0,1-1.062-3.031,7.877,7.877,0,0,1,.164-2.1A5.992,5.992,0,0,1,74.492-9.4,5,5,0,0,1,76.254-11a4.5,4.5,0,0,1,2.277-.527,3.779,3.779,0,0,1,2.129.66,3.625,3.625,0,0,1,1.313,1.734,5.031,5.031,0,0,1,.262,2.41l-.07.547a6.113,6.113,0,0,1-2.547,4.3l1.672-.039L80.953,0H77.117Z" transform="translate(450 5951)" fill="#12263f"/>
      <path id="Trazado_899285" data-name="Trazado 899285" d="M8.008-5.828H1.219l.328-1.844H8.336ZM7.422-2.445H.633L.961-4.289H7.75Z" transform="translate(548 5935)" fill="#12263f"/>
      <g id="Grupo_1085688" data-name="Grupo 1085688">
        <path id="Trazado_899286" data-name="Trazado 899286" d="M7.586,0H.008L.266-1.641,4.3-5.43A8.947,8.947,0,0,0,5.953-7.32a2.214,2.214,0,0,0,.3-1.422,1.061,1.061,0,0,0-1.117-.992,1.6,1.6,0,0,0-1.254.523A2.453,2.453,0,0,0,3.273-7.8l-2.2.008A3.863,3.863,0,0,1,1.7-9.719a3.882,3.882,0,0,1,1.52-1.348,4.405,4.405,0,0,1,2.051-.473,3.5,3.5,0,0,1,2.469.891A2.756,2.756,0,0,1,8.521-8.36,5.546,5.546,0,0,1,6.625-5L5.5-3.93,3.172-1.836l4.7.016Zm5.188.156a2.884,2.884,0,0,1-2.281-1,4.2,4.2,0,0,1-.828-2.7A8.6,8.6,0,0,1,9.727-4.7l.32-2.133a6.638,6.638,0,0,1,1.508-3.531,3.652,3.652,0,0,1,2.883-1.164,2.9,2.9,0,0,1,2.285,1,4.161,4.161,0,0,1,.832,2.691,8.673,8.673,0,0,1-.062,1.164l-.328,2.117A6.781,6.781,0,0,1,15.665-1,3.63,3.63,0,0,1,12.773.156ZM15.422-8.1q0-1.552-1.094-1.606-1.578-.07-2.008,2.4l-.39,2.632A9.495,9.495,0,0,0,11.8-3.3q-.039,1.583,1.086,1.637,1.586.1,2.016-2.472l.414-2.776A8.178,8.178,0,0,0,15.422-8.1Zm4.109,5.777a1.22,1.22,0,0,1,.9.323,1.111,1.111,0,0,1,.371.855,1.151,1.151,0,0,1-.344.879A1.194,1.194,0,0,1,19.57.1a1.2,1.2,0,0,1-.883-.312,1.149,1.149,0,0,1-.375-.852,1.161,1.161,0,0,1,.336-.883,1.238,1.238,0,0,1,.883-.378Zm6.32-4.359,1.055.008a2.055,2.055,0,0,0,1.348-.445,1.737,1.737,0,0,0,.629-1.2,1.261,1.261,0,0,0-.242-1.012,1.23,1.23,0,0,0-.961-.4,1.642,1.642,0,0,0-1.1.348,1.494,1.494,0,0,0-.559.941l-2.2.016A2.952,2.952,0,0,1,25-10.676a4.165,4.165,0,0,1,2.707-.863,3.716,3.716,0,0,1,2.547.9,2.739,2.739,0,0,1,.852,2.3A3.078,3.078,0,0,1,29.039-5.8,2.381,2.381,0,0,1,30.16-4.754a2.826,2.826,0,0,1,.309,1.5,3.267,3.267,0,0,1-.633,1.813,3.7,3.7,0,0,1-1.547,1.2,4.962,4.962,0,0,1-2.089.4,3.557,3.557,0,0,1-2.484-.91,3.03,3.03,0,0,1-.945-2.363h2.188a1.412,1.412,0,0,0,.355,1.035,1.385,1.385,0,0,0,1.035.418A1.933,1.933,0,0,0,27.656-2.1,1.761,1.761,0,0,0,28.3-3.277a1.428,1.428,0,0,0-.277-1.2,1.553,1.553,0,0,0-1.152-.439l-1.3-.008Zm6.891,1.063,1.531-5.75h6.219l-.3,1.883H35.828l-.75,2.461a3.016,3.016,0,0,1,1.641-.437A2.693,2.693,0,0,1,38.98-6.434a3.855,3.855,0,0,1,.676,2.73A4.423,4.423,0,0,1,39-1.68,3.852,3.852,0,0,1,37.508-.3a4.108,4.108,0,0,1-2.031.461A3.613,3.613,0,0,1,33.73-.277a3.12,3.12,0,0,1-1.223-1.2,3.409,3.409,0,0,1-.445-1.7h2.164a1.7,1.7,0,0,0,.383,1.09,1.259,1.259,0,0,0,.953.41,1.545,1.545,0,0,0,1.285-.57,2.845,2.845,0,0,0,.6-1.594,2.02,2.02,0,0,0-.27-1.406,1.3,1.3,0,0,0-1.1-.531,2.195,2.195,0,0,0-1.531.609ZM48.008-8.461l-.18.961A3.112,3.112,0,0,1,50.3-8.609a2.379,2.379,0,0,1,1.3.359,1.679,1.679,0,0,1,.7.93,3.255,3.255,0,0,1,2.625-1.289,2.126,2.126,0,0,1,1.754.8,3.271,3.271,0,0,1,.5,2.234l-.016.2L56.258,0H54.047l.9-5.4a3.908,3.908,0,0,0,.023-.54.837.837,0,0,0-.276-.636.837.837,0,0,0-.661-.209,1.86,1.86,0,0,0-1.555.97l-.023.18L51.469,0h-2.2l.9-5.383a3.9,3.9,0,0,0,.023-.539.836.836,0,0,0-.271-.638.836.836,0,0,0-.659-.214,1.867,1.867,0,0,0-1.508.789L46.7,0H44.5l1.461-8.453ZM64.836-2.344H60.867L59.7,0H57.172L63.25-11.375h2.117L67.531,0H65.2ZM61.8-4.242h2.742L63.9-8.476Z" transform="translate(568.95 5936)" fill="#12263f"/>
      </g>
    </g>
  </g>
</svg>
