<svg xmlns="http://www.w3.org/2000/svg" width="49.937" height="52" viewBox="0 0 49.937 52">
  <g id="Grupo_1108487" data-name="Grupo 1108487" transform="translate(-189.73 -2044)">
    <rect id="Rectángulo_402557" data-name="Rectángulo 402557" width="26" height="52" rx="5" transform="translate(189.73 2044)" fill="#ffb5b4"/>
    <g id="_12-Electrician" data-name="12-Electrician" transform="translate(191.789 2048.117)">
      <path id="Trazado_874336" data-name="Trazado 874336" d="M28.239,37.5l2,2.992-2.244,2.244L25,38.244V36.172A19.717,19.717,0,0,1,27.244,36Z" transform="translate(-6.297 -9.068)" fill="#96e8ff"/>
      <path id="Trazado_874337" data-name="Trazado 874337" d="M33.325,38l-2,2.992L29.33,38Z" transform="translate(-7.387 -9.571)" fill="#f2f6fc"/>
      <path id="Trazado_874338" data-name="Trazado 874338" d="M60.481,32l-2.663,1.84,1.077,1.2L53,36.489l2.663-1.84-1.077-1.2Z" transform="translate(-13.349 -8.06)" fill="#ffc247"/>
      <path id="Trazado_874339" data-name="Trazado 874339" d="M52.985,22.489,48.2,29.97l1.047-4.489H47L51.788,18l-1.047,4.489Z" transform="translate(-11.838 -4.534)" fill="#ffc247"/>
      <path id="Trazado_874340" data-name="Trazado 874340" d="M47,52.99l.711,4.5a2.931,2.931,0,0,1-2.992,2.992c-1.661,0-7.676-1.377-12.718-2.6,1.676-.411,3.239-.8,4.5-1.115,1.8-.464,2.985-.771,2.985-.771l2.992-1.5L46.962,53Z" transform="translate(-8.06 -13.347)" fill="#368dcf"/>
      <path id="Trazado_874341" data-name="Trazado 874341" d="M37.244,58.257c1.8-.464,2.985-.771,2.985-.771l2.992-1.5,4.04-1.347L47,52.99,46.962,53l-4.489,1.5-2.992,1.5s-1.182.307-2.985.771c-1.257.314-2.82.7-4.5,1.115,1.122.274,2.3.554,3.461.823C36.1,58.543,36.7,58.392,37.244,58.257Z" transform="translate(-8.06 -13.347)" fill="#2b75ad"/>
      <path id="Trazado_874342" data-name="Trazado 874342" d="M48.7,46.03l.823,5.207-.037.007-4.489,1.5L42,54.237V49.748Z" transform="translate(-10.578 -11.594)" fill="#ffcdbe"/>
      <path id="Trazado_874343" data-name="Trazado 874343" d="M44.992,52.517,42,54.014v1.5l2.992-1.5,4.489-1.5.037-.007-.225-1.426Z" transform="translate(-10.578 -12.867)" fill="#ffbeaa"/>
      <path id="Trazado_874344" data-name="Trazado 874344" d="M36.489,47.384c-1.234.075-2.776.2-4.489.4V40.547l2.244,2.244L37.237,38.3V36.23a19.668,19.668,0,0,1,8.229,2.82l.711,4.511-6.7,3.718S38.329,47.28,36.489,47.384Z" transform="translate(-8.06 -9.126)" fill="#4ab8f7"/>
      <path id="Trazado_874345" data-name="Trazado 874345" d="M40.436,62.123H15c1.661,0,7.676-1.377,12.718-2.6C32.76,60.747,38.775,62.123,40.436,62.123Z" transform="translate(-3.778 -14.992)" fill="#4ab8f7"/>
      <path id="Trazado_874346" data-name="Trazado 874346" d="M27.718,60.268c2.686.653,5.642,1.347,8.074,1.855h4.644c-1.661,0-7.676-1.377-12.718-2.6-5.042,1.227-11.057,2.6-12.718,2.6h4.644C22.076,61.615,25.032,60.921,27.718,60.268Z" transform="translate(-3.778 -14.992)" fill="#1ea1e3"/>
      <path id="Trazado_874347" data-name="Trazado 874347" d="M37.451,15a1.5,1.5,0,0,1,0,2.992H19.5A1.5,1.5,0,1,1,19.5,15Z" transform="translate(-4.533 -3.778)" fill="#fe8205"/>
      <path id="Trazado_874348" data-name="Trazado 874348" d="M38.506,16.307a1.463,1.463,0,0,1-1.055.441H19.5A1.5,1.5,0,0,1,18.209,16a1.469,1.469,0,0,0-.209.748,1.5,1.5,0,0,0,1.5,1.5H37.451A1.484,1.484,0,0,0,38.739,16a1.45,1.45,0,0,1-.233.307Z" transform="translate(-4.533 -4.03)" fill="#fe6a16"/>
      <path id="Trazado_874349" data-name="Trazado 874349" d="M37.955,12.129H20A8.965,8.965,0,0,1,26.179,3.6l.554,5.536h4.489L31.775,3.6a8.965,8.965,0,0,1,6.179,8.529Z" transform="translate(-5.037 -0.907)" fill="#ffa426"/>
      <path id="Trazado_874350" data-name="Trazado 874350" d="M36.989,4.216A8.874,8.874,0,0,0,35.554,3.6L35,9.136h1.5Z" transform="translate(-8.815 -0.907)" fill="#ff9500"/>
      <path id="Trazado_874351" data-name="Trazado 874351" d="M26.241,4.216,26.179,3.6A8.965,8.965,0,0,0,20,12.129h1.5a8.963,8.963,0,0,1,4.745-7.913Z" transform="translate(-5.037 -0.907)" fill="#ff9500"/>
      <path id="Trazado_874352" data-name="Trazado 874352" d="M41,19a2.244,2.244,0,0,1,0,4.489Z" transform="translate(-10.327 -4.786)" fill="#faa68e"/>
      <path id="Trazado_874353" data-name="Trazado 874353" d="M40.992,51v4.489s-1.182.307-2.985.771L38,56.237V51.1C39.84,51,40.992,51,40.992,51Z" transform="translate(-9.571 -12.846)" fill="#f2f6fc"/>
      <path id="Trazado_874354" data-name="Trazado 874354" d="M38,55.748v1.5l.007.022c1.8-.464,2.985-.771,2.985-.771V55s-1.182.307-2.985.771Z" transform="translate(-9.571 -13.853)" fill="#dce1eb"/>
      <path id="Trazado_874355" data-name="Trazado 874355" d="M32.082,29.8A6.733,6.733,0,0,1,23,23.489V19H36.466v4.489A6.733,6.733,0,0,1,32.082,29.8Z" transform="translate(-5.793 -4.786)" fill="#ffcdbe"/>
      <path id="Trazado_874356" data-name="Trazado 874356" d="M23,19H36.466v1.5H23Z" transform="translate(-5.793 -4.786)" fill="#ffbeaa"/>
      <path id="Trazado_874357" data-name="Trazado 874357" d="M34,37.5l1-1.5a19.717,19.717,0,0,1,2.244.172v2.072l-2.992,4.489L32,40.489Z" transform="translate(-8.06 -9.068)" fill="#96e8ff"/>
      <path id="Trazado_874358" data-name="Trazado 874358" d="M26.711,51.544c1.713-.2,3.254-.329,4.489-.4v5.132l.007.022c-1.257.314-2.82.7-4.5,1.115-5.042,1.227-11.057,2.6-12.718,2.6A2.931,2.931,0,0,1,11,57.02l.823-5.237c.5.015,3.352.165,4.848,1.84.838-.269,1.7-.516,2.559-.733a60.351,60.351,0,0,1,7.481-1.347Z" transform="translate(-2.77 -12.881)" fill="#368dcf"/>
      <path id="Trazado_874359" data-name="Trazado 874359" d="M31.2,56.032c-1.255.314-2.816.7-4.489,1.113-5.042,1.227-11.057,2.6-12.718,2.6a2.741,2.741,0,0,1-2.88-2.216l-.113.72a2.931,2.931,0,0,0,2.992,2.992c1.661,0,7.676-1.377,12.718-2.6,1.676-.411,3.239-.8,4.5-1.115L31.2,57.5Z" transform="translate(-2.77 -14.113)" fill="#3286ba"/>
      <path id="Trazado_874360" data-name="Trazado 874360" d="M33.342,33.43l.643,1.923-1,1.5H28.995l-1-1.5.643-1.923A6.684,6.684,0,0,0,33.342,33.43Z" transform="translate(-7.052 -8.42)" fill="#faa68e"/>
      <path id="Trazado_874361" data-name="Trazado 874361" d="M32.385,1a1.5,1.5,0,0,1,1.489,1.646l-.03.3L33.29,8.481H28.8l-.554-5.536-.03-.3A1.5,1.5,0,0,1,29.706,1Z" transform="translate(-7.105 -0.252)" fill="#fe8205"/>
      <path id="Trazado_874362" data-name="Trazado 874362" d="M32.387,1H29.709a1.491,1.491,0,0,0-1.488,1.5h2.67A1.5,1.5,0,0,1,32.38,4.142l-.03.3-.4,4.04h1.347l.554-5.536.03-.3A1.5,1.5,0,0,0,32.387,1Z" transform="translate(-7.108 -0.252)" fill="#fe6a16"/>
      <path id="Trazado_874363" data-name="Trazado 874363" d="M27.227,40.547v7.242a70.133,70.133,0,0,0-7.481-.509l-6.7-3.718.711-4.511a19.668,19.668,0,0,1,8.229-2.82V38.3l2.992,4.489Z" transform="translate(-3.287 -9.126)" fill="#1ea1e3"/>
      <path id="Trazado_874364" data-name="Trazado 874364" d="M22,51a70.133,70.133,0,0,1,7.481.509A60.348,60.348,0,0,0,22,52.855Z" transform="translate(-5.541 -12.846)" fill="#2b75ad"/>
      <path id="Trazado_874365" data-name="Trazado 874365" d="M22.244,19v4.489a2.244,2.244,0,1,1,0-4.489Z" transform="translate(-5.037 -4.786)" fill="#faa68e"/>
      <path id="Trazado_874366" data-name="Trazado 874366" d="M19.506,49.748V51.6c-.86.217-1.721.464-2.559.733-1.5-1.676-4.347-1.825-4.848-1.84l.711-4.466Z" transform="translate(-3.047 -11.594)" fill="#ffcdbe"/>
      <path id="Trazado_874367" data-name="Trazado 874367" d="M12.218,51.006l-.118.744c.5.015,3.352.165,4.848,1.84.838-.269,1.7-.516,2.559-.733v-.748c-.86.217-1.721.464-2.559.733-1.406-1.573-4-1.8-4.73-1.836Z" transform="translate(-3.047 -12.847)" fill="#ffbeaa"/>
      <path id="Trazado_874368" data-name="Trazado 874368" d="M10.2,18l4.788,7.481H12.741l1.047,4.489L9,22.489h2.244Z" transform="translate(-2.266 -4.534)" fill="#ffc247"/>
      <path id="Trazado_874369" data-name="Trazado 874369" d="M8.481,36.489l-5.9-1.444,1.077-1.2L1,32l5.9,1.444-1.077,1.2Z" transform="translate(-0.251 -8.06)" fill="#ffc247"/>
      <path id="Trazado_874370" data-name="Trazado 874370" d="M29.481,30.97A7.489,7.489,0,0,1,22,23.489V19h1.5v4.489a5.985,5.985,0,1,0,11.97,0V19h1.5v4.489a7.489,7.489,0,0,1-7.481,7.481Z" transform="translate(-5.541 -4.786)"/>
      <path id="Trazado_874371" data-name="Trazado 874371" d="M41,23.985v-1.5A1.5,1.5,0,1,0,41,19.5V18a2.992,2.992,0,0,1,0,5.985Z" transform="translate(-10.327 -4.534)"/>
      <path id="Trazado_874372" data-name="Trazado 874372" d="M21.992,23.985a2.992,2.992,0,1,1,0-5.985v1.5a1.5,1.5,0,1,0,0,2.992Z" transform="translate(-4.785 -4.534)"/>
      <path id="Trazado_874376" data-name="Trazado 874376" d="M37.2,18.489H19.244a2.244,2.244,0,0,1,0-4.489H37.2a2.244,2.244,0,1,1,0,4.489ZM19.244,15.5a.748.748,0,0,0,0,1.5H37.2a.748.748,0,1,0,0-1.5Z" transform="translate(-4.281 -3.526)"/>
      <path id="Trazado_874377" data-name="Trazado 874377" d="M20.5,11.889H19a9.684,9.684,0,0,1,6.7-9.24l.463,1.421A8.191,8.191,0,0,0,20.5,11.889Z" transform="translate(-4.785 -0.667)"/>
      <path id="Trazado_874378" data-name="Trazado 874378" d="M42.59,11.89h-1.5a8.191,8.191,0,0,0-5.663-7.817l.463-1.421a9.684,9.684,0,0,1,6.7,9.239Z" transform="translate(-8.924 -0.668)"/>
      <path id="Trazado_874379" data-name="Trazado 874379" d="M33.037,8.977H28.548A.748.748,0,0,1,27.8,8.3l-.584-5.835A2.244,2.244,0,0,1,29.453,0h2.678a2.244,2.244,0,0,1,2.233,2.469L33.781,8.3a.748.748,0,0,1-.744.673Zm-3.812-1.5h3.138l.516-5.162a.748.748,0,0,0-.748-.823H29.453a.748.748,0,0,0-.748.823Z" transform="translate(-6.852)"/>
      <path id="Trazado_874380" data-name="Trazado 874380" d="M38,5h1.5v5.237H38Z" transform="translate(-9.571 -1.259)"/>
      <path id="Trazado_874381" data-name="Trazado 874381" d="M24,5h1.5v5.237H24Z" transform="translate(-6.045 -1.259)"/>
      <path id="Trazado_874382" data-name="Trazado 874382" d="M13.74,56.112A3.607,3.607,0,0,1,10,52.372a.682.682,0,0,1,.01-.117l2.244-14.214a.748.748,0,0,1,.323-.506,21.628,21.628,0,0,1,10.344-3.1l.584-1.748,1.421.473L24.178,35.4a.748.748,0,0,1-.712.512,21.065,21.065,0,0,0-9.788,2.693L11.5,52.422a2.119,2.119,0,0,0,2.244,2.193c2.289,0,14.315-2.992,19.451-4.319V47.148c-2.524.068-10.942.477-17.7,2.934l-.512-1.406c8.261-3,18.526-3.037,18.959-3.037a.748.748,0,0,1,.748.748v4.489a.748.748,0,0,1-.56.724c-.705.184-17.335,4.513-20.388,4.513Z" transform="translate(-2.517 -8.232)"/>
      <path id="Trazado_874383" data-name="Trazado 874383" d="M22.5,52.6H21V50.748A.748.748,0,0,1,21.748,50a70.258,70.258,0,0,1,7.569.514L29.141,52c-2.982-.355-5.461-.46-6.645-.491Z" transform="translate(-5.289 -12.594)"/>
      <path id="Trazado_874384" data-name="Trazado 874384" d="M44.659,56.112c-1.4,0-5.738-.883-12.895-2.624l.353-1.454c9.233,2.247,11.821,2.583,12.542,2.583A2.119,2.119,0,0,0,46.9,52.422L44.72,38.606a21.064,21.064,0,0,0-9.787-2.693.748.748,0,0,1-.708-.512l-.748-2.244,1.421-.473.584,1.748a21.62,21.62,0,0,1,10.344,3.1.748.748,0,0,1,.323.506l2.244,14.214a.683.683,0,0,1,.006.117,3.607,3.607,0,0,1-3.741,3.741Z" transform="translate(-8 -8.232)"/>
      <path id="Trazado_874385" data-name="Trazado 874385" d="M20.359,51.765h-1.5v-1.8l-6.348-3.527.726-1.308,6.733,3.741a.748.748,0,0,1,.385.654Z" transform="translate(-3.152 -11.366)"/>
      <path id="Trazado_874386" data-name="Trazado 874386" d="M0,0H7.7V1.5H0Z" transform="translate(31.033 37.506) rotate(-29.027)"/>
      <path id="Trazado_874387" data-name="Trazado 874387" d="M16.614,54.408C15.361,52.528,12.032,52.5,12,52.5V51c.169,0,4.161.029,5.859,2.577Z" transform="translate(-3.022 -12.846)"/>
      <path id="Trazado_874388" data-name="Trazado 874388" d="M37,51h1.5v5.237H37Z" transform="translate(-9.319 -12.846)"/>
      <path id="Trazado_874389" data-name="Trazado 874389" d="M42.222,56.428l-.669-1.339,2.992-1.5a.748.748,0,0,1,.1-.04l4.489-1.5.473,1.421-4.438,1.479Z" transform="translate(-10.466 -13.112)"/>
      <path id="Trazado_874390" data-name="Trazado 874390" d="M30.783,41.1a.748.748,0,0,1-.622-.333l-2.992-4.489,1.245-.83L30.783,39l2.37-3.555,1.245.83-2.992,4.489A.748.748,0,0,1,30.783,41.1Z" transform="translate(-6.843 -8.928)"/>
      <path id="Trazado_874391" data-name="Trazado 874391" d="M34.066,43.481a.748.748,0,0,1-.529-.219l-2.244-2.244,1.058-1.058,1.6,1.6,2.36-3.539V36h1.5v2.244a.753.753,0,0,1-.126.415l-2.992,4.489a.748.748,0,0,1-.548.333.63.63,0,0,1-.075,0Z" transform="translate(-7.882 -9.068)"/>
      <path id="Trazado_874392" data-name="Trazado 874392" d="M30.733,47.97h-1.5V42.295l-.967.967a.748.748,0,0,1-1.151-.114L24.126,38.66A.753.753,0,0,1,24,38.244V36h1.5v2.02l2.36,3.541,1.6-1.6a.748.748,0,0,1,1.277.527Z" transform="translate(-6.045 -9.068)"/>
      <path id="Trazado_874393" data-name="Trazado 874393" d="M29,37h4.489v1.5H29Z" transform="translate(-7.304 -9.32)"/>
      <path id="Trazado_874394" data-name="Trazado 874394" d="M15,62H40.436v1.5H15Z" transform="translate(-3.778 -15.616)"/>
      <path id="Trazado_874395" data-name="Trazado 874395" d="M47.945,30.467a.736.736,0,0,1-.291-.059.748.748,0,0,1-.438-.859l.833-3.571h-1.3a.748.748,0,0,1-.63-1.151l4.788-7.481a.748.748,0,0,1,1.358.573l-.832,3.571h1.3a.748.748,0,0,1,.63,1.151l-4.788,7.481A.748.748,0,0,1,47.945,30.467Zm.17-5.985h.878a.748.748,0,0,1,.729.918l-.058.245,1.7-2.66h-.878a.748.748,0,0,1-.729-.918l.058-.245Z" transform="translate(-11.586 -4.283)"/>
      <path id="Trazado_874396" data-name="Trazado 874396" d="M52.748,36.985a.748.748,0,0,1-.426-1.363l1.964-1.361-.512-.57a.748.748,0,0,1,.379-1.226l5.9-1.443a.748.748,0,0,1,.6,1.341l-1.964,1.361.512.57a.748.748,0,0,1-.379,1.226l-5.9,1.443a.723.723,0,0,1-.177.022Zm2.974-3.367.245.273a.748.748,0,0,1,.15.748l1.141-.279-.245-.273a.748.748,0,0,1-.15-.748Z" transform="translate(-13.097 -7.808)"/>
      <path id="Trazado_874397" data-name="Trazado 874397" d="M8.23,36.985a.723.723,0,0,1-.177-.022l-5.9-1.443a.748.748,0,0,1-.379-1.228l.512-.57L.323,32.363a.748.748,0,0,1,.6-1.341l5.9,1.443A.748.748,0,0,1,7.2,33.693l-.512.57,1.964,1.361a.748.748,0,0,1-.426,1.361ZM3.722,34.367l1.141.277a.748.748,0,0,1,.15-.748l.245-.273-1.142-.281a.748.748,0,0,1-.15.748Z" transform="translate(0 -7.808)"/>
      <path id="Trazado_874398" data-name="Trazado 874398" d="M13.536,30.467a.748.748,0,0,1-.629-.345L8.119,22.641a.748.748,0,0,1,.629-1.151h1.3l-.833-3.571a.748.748,0,0,1,1.358-.573l4.788,7.481a.748.748,0,0,1-.629,1.151h-1.3l.833,3.571a.748.748,0,0,1-.438.859.736.736,0,0,1-.291.059Zm-3.421-7.481,1.7,2.66-.058-.245a.748.748,0,0,1,.731-.918h.878l-1.7-2.66.058.245a.748.748,0,0,1-.731.918Z" transform="translate(-2.015 -4.283)"/>
    </g>
  </g>
</svg>
