<svg xmlns="http://www.w3.org/2000/svg" width="556" height="464.001" viewBox="0 0 556 464.001">
  <g id="Grupo_1108799" data-name="Grupo 1108799" transform="translate(8131 7356)">
    <path id="Trazado_899231" data-name="Trazado 899231" d="M0,0H182V464H0Z" transform="translate(-8131 -7356)" fill="#ffdad9"/>
    <path id="Trazado_899232" data-name="Trazado 899232" d="M0,0H374V464H0Z" transform="translate(-7949 -7356)" fill="#ffd1d0"/>
    <path id="Trazado_898811" data-name="Trazado 898811" d="M-7969.051-11016v464" transform="translate(20 3660)" fill="none" stroke="#fff" stroke-width="1"/>
    <path id="Trazado_899233" data-name="Trazado 899233" d="M2.93,0H1.43V-11.375h1.5ZM6.813-8.453l.047,1.063A3.08,3.08,0,0,1,9.391-8.609q2.68,0,2.7,3.023V0H10.648V-5.594a1.946,1.946,0,0,0-.418-1.352,1.675,1.675,0,0,0-1.277-.437,2.086,2.086,0,0,0-1.234.375,2.546,2.546,0,0,0-.828.984V0H5.445V-8.453ZM16.234-10.5v2.047h1.578v1.117H16.234v5.249a1.173,1.173,0,0,0,.211.763.888.888,0,0,0,.719.254,3.5,3.5,0,0,0,.688-.094V0a4.215,4.215,0,0,1-1.109.155A1.8,1.8,0,0,1,15.281-.43a2.517,2.517,0,0,1-.492-1.664V-7.336H13.25V-8.453h1.539V-10.5ZM23.008.156a3.693,3.693,0,0,1-2.8-1.129,4.19,4.19,0,0,1-1.078-3.02v-.266a5.073,5.073,0,0,1,.48-2.246,3.748,3.748,0,0,1,1.344-1.547,3.378,3.378,0,0,1,1.871-.559,3.166,3.166,0,0,1,2.563,1.086A4.7,4.7,0,0,1,26.3-4.414v.6H20.578a3,3,0,0,0,.73,2.02,2.3,2.3,0,0,0,1.777.77,2.517,2.517,0,0,0,1.3-.312,3.259,3.259,0,0,0,.93-.828l.883.688A3.55,3.55,0,0,1,23.008.156Zm-.18-7.578a1.928,1.928,0,0,0-1.469.637A3.1,3.1,0,0,0,20.625-5h4.234v-.109a2.753,2.753,0,0,0-.594-1.707A1.815,1.815,0,0,0,22.828-7.422Zm9.234.266a4.331,4.331,0,0,0-.711-.055A1.9,1.9,0,0,0,29.422-6V0H27.977V-8.453h1.406l.023.977a2.251,2.251,0,0,1,2.016-1.133,1.477,1.477,0,0,1,.641.109Zm5.414,0a4.331,4.331,0,0,0-.711-.055A1.9,1.9,0,0,0,34.836-6V0H33.391V-8.453H34.8l.023.977a2.251,2.251,0,0,1,2.016-1.133,1.477,1.477,0,0,1,.641.109Zm6.547,6.32a3.07,3.07,0,0,1-2.477.992,2.628,2.628,0,0,1-2.059-.785,3.4,3.4,0,0,1-.715-2.324v-5.5h1.445v5.461q0,1.922,1.563,1.922a2.163,2.163,0,0,0,2.2-1.234V-8.453H45.43V0H44.055Zm10.742-3.3a5.062,5.062,0,0,1-.883,3.109A2.829,2.829,0,0,1,51.492.156,3.1,3.1,0,0,1,49.07-.82V3.25H47.625v-11.7h1.32l.07.938a2.977,2.977,0,0,1,2.453-1.094,2.882,2.882,0,0,1,2.41,1.148,5.117,5.117,0,0,1,.887,3.2ZM53.32-4.3a3.735,3.735,0,0,0-.609-2.258,1.963,1.963,0,0,0-1.672-.828A2.125,2.125,0,0,0,49.07-6.219V-2.18a2.129,2.129,0,0,0,1.984,1.156,1.954,1.954,0,0,0,1.652-.824A4.077,4.077,0,0,0,53.32-4.3Zm5.242-6.2v2.047h1.578v1.117H58.563v5.249a1.173,1.173,0,0,0,.211.763.888.888,0,0,0,.719.254,3.5,3.5,0,0,0,.688-.094V0A4.215,4.215,0,0,1,59.07.156,1.8,1.8,0,0,1,57.609-.43a2.517,2.517,0,0,1-.492-1.664V-7.336H55.578V-8.453h1.539V-10.5Zm2.727,6.2a4.993,4.993,0,0,1,.488-2.234A3.643,3.643,0,0,1,63.137-8.07a3.7,3.7,0,0,1,1.988-.539,3.565,3.565,0,0,1,2.793,1.2,4.6,4.6,0,0,1,1.066,3.18v.1a5.036,5.036,0,0,1-.473,2.215A3.589,3.589,0,0,1,67.16-.391a3.743,3.743,0,0,1-2.02.547,3.556,3.556,0,0,1-2.785-1.2A4.575,4.575,0,0,1,61.289-4.2Zm1.453.172a3.616,3.616,0,0,0,.652,2.258,2.088,2.088,0,0,0,1.746.852,2.075,2.075,0,0,0,1.75-.863A3.955,3.955,0,0,0,67.539-4.3a3.61,3.61,0,0,0-.66-2.254,2.1,2.1,0,0,0-1.754-.863A2.075,2.075,0,0,0,63.4-6.57,3.925,3.925,0,0,0,62.742-4.133ZM74.883-7.156a4.331,4.331,0,0,0-.711-.055A1.9,1.9,0,0,0,72.242-6V0H70.8V-8.453H72.2l.023.977a2.251,2.251,0,0,1,2.016-1.133,1.477,1.477,0,0,1,.641.109Z" transform="translate(-8095 -7303)" fill="#12263f"/>
    <path id="Trazado_899237" data-name="Trazado 899237" d="M9.688-3.609A4.185,4.185,0,0,1,8.355-.824a4.365,4.365,0,0,1-2.98.98,4.008,4.008,0,0,1-3.23-1.445A5.815,5.815,0,0,1,.93-5.156V-6.25A6.481,6.481,0,0,1,1.5-9.039,4.231,4.231,0,0,1,3.1-10.887a4.47,4.47,0,0,1,2.406-.645A4.11,4.11,0,0,1,8.414-10.52a4.235,4.235,0,0,1,1.273,2.8H8.18a3.268,3.268,0,0,0-.848-1.975A2.565,2.565,0,0,0,5.508-10.3,2.684,2.684,0,0,0,3.254-9.241a4.882,4.882,0,0,0-.816,3.026v1.1a5.018,5.018,0,0,0,.773,2.948A2.5,2.5,0,0,0,5.375-1.07a2.887,2.887,0,0,0,1.918-.566A3.143,3.143,0,0,0,8.18-3.609Zm1.438-.7a4.993,4.993,0,0,1,.488-2.234A3.643,3.643,0,0,1,12.973-8.07a3.7,3.7,0,0,1,1.988-.539,3.565,3.565,0,0,1,2.793,1.2,4.6,4.6,0,0,1,1.066,3.18v.1a5.036,5.036,0,0,1-.473,2.215A3.589,3.589,0,0,1,17-.391a3.743,3.743,0,0,1-2.02.547,3.556,3.556,0,0,1-2.785-1.2A4.575,4.575,0,0,1,11.125-4.2Zm1.453.172a3.616,3.616,0,0,0,.652,2.258,2.088,2.088,0,0,0,1.746.852,2.075,2.075,0,0,0,1.75-.863A3.955,3.955,0,0,0,17.375-4.3a3.61,3.61,0,0,0-.66-2.254,2.1,2.1,0,0,0-1.754-.863,2.075,2.075,0,0,0-1.727.852A3.925,3.925,0,0,0,12.578-4.133ZM22-8.453l.047,1.063a3.08,3.08,0,0,1,2.531-1.219q2.68,0,2.7,3.023V0H25.836V-5.594a1.946,1.946,0,0,0-.418-1.352,1.675,1.675,0,0,0-1.277-.437,2.086,2.086,0,0,0-1.234.375,2.546,2.546,0,0,0-.828.984V0H20.633V-8.453Zm8.82,0,.039.938a3.122,3.122,0,0,1,2.508-1.094A2.417,2.417,0,0,1,35.781-7.25a3.2,3.2,0,0,1,1.1-.984,3.242,3.242,0,0,1,1.6-.375q2.781,0,2.828,2.945V0H39.859V-5.578a1.941,1.941,0,0,0-.414-1.355,1.823,1.823,0,0,0-1.391-.449,1.917,1.917,0,0,0-1.336.48A1.949,1.949,0,0,0,36.1-5.609V0H34.648V-5.539a1.613,1.613,0,0,0-1.8-1.844A1.934,1.934,0,0,0,30.9-6.172V0H29.453V-8.453ZM48.7-.836a3.07,3.07,0,0,1-2.477.992,2.628,2.628,0,0,1-2.059-.785,3.4,3.4,0,0,1-.715-2.324v-5.5H44.9v5.461q0,1.922,1.563,1.922a2.163,2.163,0,0,0,2.2-1.234V-8.453h1.445V0H48.734ZM54.266-10.5v2.047h1.578v1.117H54.266v5.249a1.173,1.173,0,0,0,.211.763.888.888,0,0,0,.719.254,3.5,3.5,0,0,0,.688-.094V0a4.215,4.215,0,0,1-1.109.155A1.8,1.8,0,0,1,53.313-.43a2.517,2.517,0,0,1-.492-1.664V-7.336H51.281V-8.453H52.82V-10.5ZM62.75,0a3.036,3.036,0,0,1-.2-.891A3.225,3.225,0,0,1,60.141.156,2.984,2.984,0,0,1,58.09-.551a2.287,2.287,0,0,1-.8-1.793,2.39,2.39,0,0,1,1-2.051,4.733,4.733,0,0,1,2.824-.73h1.406v-.664A1.623,1.623,0,0,0,62.07-7a1.821,1.821,0,0,0-1.336-.449,2.107,2.107,0,0,0-1.3.391,1.151,1.151,0,0,0-.523.945H57.461a2,2,0,0,1,.449-1.223,3.066,3.066,0,0,1,1.219-.934,4.1,4.1,0,0,1,1.691-.344,3.342,3.342,0,0,1,2.289.73,2.635,2.635,0,0,1,.859,2.012v3.891a4.757,4.757,0,0,0,.3,1.852V0Zm-2.4-1.1a2.54,2.54,0,0,0,1.289-.352,2.127,2.127,0,0,0,.883-.914V-4.1H61.391q-2.656,0-2.656,1.555a1.316,1.316,0,0,0,.453,1.063A1.742,1.742,0,0,0,60.352-1.1Zm5.531-3.2A4.952,4.952,0,0,1,66.8-7.426a2.915,2.915,0,0,1,2.414-1.184A2.932,2.932,0,0,1,71.57-7.594V-12h1.445V0H71.688l-.07-.906A2.943,2.943,0,0,1,69.2.156a2.887,2.887,0,0,1-2.395-1.2,5.008,5.008,0,0,1-.926-3.141Zm1.445.164a3.749,3.749,0,0,0,.594,2.25,1.92,1.92,0,0,0,1.641.813A2.109,2.109,0,0,0,71.57-2.3V-6.187a2.125,2.125,0,0,0-1.992-1.2,1.929,1.929,0,0,0-1.656.82A4.128,4.128,0,0,0,67.328-4.133ZM74.875-4.3a4.993,4.993,0,0,1,.488-2.234A3.643,3.643,0,0,1,76.723-8.07a3.7,3.7,0,0,1,1.988-.539,3.565,3.565,0,0,1,2.793,1.2,4.6,4.6,0,0,1,1.066,3.18v.1A5.036,5.036,0,0,1,82.1-1.918,3.589,3.589,0,0,1,80.746-.391a3.743,3.743,0,0,1-2.02.547,3.556,3.556,0,0,1-2.785-1.2A4.575,4.575,0,0,1,74.875-4.2Zm1.453.172a3.616,3.616,0,0,0,.652,2.258,2.088,2.088,0,0,0,1.746.852,2.075,2.075,0,0,0,1.75-.863A3.955,3.955,0,0,0,81.125-4.3a3.61,3.61,0,0,0-.66-2.254,2.1,2.1,0,0,0-1.754-.863,2.075,2.075,0,0,0-1.727.852A3.925,3.925,0,0,0,76.328-4.133ZM88.469-7.156a4.331,4.331,0,0,0-.711-.055A1.9,1.9,0,0,0,85.828-6V0H84.383V-8.453h1.406l.023.977a2.251,2.251,0,0,1,2.016-1.133,1.477,1.477,0,0,1,.641.109Z" transform="translate(-8095 -7224)" fill="#12263f"/>
    <path id="Trazado_899240" data-name="Trazado 899240" d="M2.82-4.453V0H1.32V-11.375h4.2a4.215,4.215,0,0,1,2.926.953A3.231,3.231,0,0,1,9.5-7.9,3.189,3.189,0,0,1,8.465-5.348,4.4,4.4,0,0,1,5.5-4.453Zm0-1.227h2.7a2.7,2.7,0,0,0,1.844-.567A2.075,2.075,0,0,0,8-7.887a2.143,2.143,0,0,0-.641-1.628A2.525,2.525,0,0,0,5.6-10.148H2.82ZM16.406-.836A3.07,3.07,0,0,1,13.93.156a2.628,2.628,0,0,1-2.059-.785,3.4,3.4,0,0,1-.715-2.324v-5.5H12.6v5.461q0,1.922,1.563,1.922a2.163,2.163,0,0,0,2.2-1.234V-8.453h1.445V0H16.438ZM21.578,0H20.133V-12h1.445Zm7.234-2.242a1.064,1.064,0,0,0-.441-.91,4.249,4.249,0,0,0-1.539-.559,7.277,7.277,0,0,1-1.742-.562,2.479,2.479,0,0,1-.953-.781,1.869,1.869,0,0,1-.309-1.078,2.193,2.193,0,0,1,.879-1.758,3.432,3.432,0,0,1,2.246-.719,3.532,3.532,0,0,1,2.332.742,2.357,2.357,0,0,1,.895,1.9H28.727a1.3,1.3,0,0,0-.5-1.023,1.888,1.888,0,0,0-1.27-.43,1.976,1.976,0,0,0-1.234.344,1.082,1.082,0,0,0-.445.9.877.877,0,0,0,.414.789,5.1,5.1,0,0,0,1.5.508,7.8,7.8,0,0,1,1.754.578,2.558,2.558,0,0,1,1,.809,1.988,1.988,0,0,1,.324,1.152,2.163,2.163,0,0,1-.906,1.816A3.8,3.8,0,0,1,27,.156,4.257,4.257,0,0,1,25.2-.2a2.922,2.922,0,0,1-1.223-1A2.42,2.42,0,0,1,23.539-2.6h1.445a1.5,1.5,0,0,0,.582,1.152A2.258,2.258,0,0,0,27-1.023a2.331,2.331,0,0,0,1.316-.332A1.02,1.02,0,0,0,28.813-2.242ZM37.359,0a3.036,3.036,0,0,1-.2-.891A3.225,3.225,0,0,1,34.75.156,2.984,2.984,0,0,1,32.7-.551a2.287,2.287,0,0,1-.8-1.793,2.39,2.39,0,0,1,1-2.051,4.733,4.733,0,0,1,2.824-.73h1.406v-.664A1.623,1.623,0,0,0,36.68-7a1.821,1.821,0,0,0-1.336-.449,2.107,2.107,0,0,0-1.3.391,1.151,1.151,0,0,0-.523.945H32.07a2,2,0,0,1,.449-1.223,3.066,3.066,0,0,1,1.219-.934,4.1,4.1,0,0,1,1.691-.344,3.342,3.342,0,0,1,2.289.73,2.635,2.635,0,0,1,.859,2.012v3.891a4.757,4.757,0,0,0,.3,1.852V0Zm-2.4-1.1a2.54,2.54,0,0,0,1.289-.352,2.127,2.127,0,0,0,.883-.914V-4.1H36q-2.656,0-2.656,1.555A1.316,1.316,0,0,0,33.8-1.484,1.742,1.742,0,0,0,34.961-1.1Zm5.531-3.2a4.952,4.952,0,0,1,.922-3.129,2.915,2.915,0,0,1,2.414-1.184A2.932,2.932,0,0,1,46.18-7.594V-12h1.445V0H46.3l-.07-.906A2.943,2.943,0,0,1,43.813.156a2.887,2.887,0,0,1-2.395-1.2,5.008,5.008,0,0,1-.926-3.141Zm1.445.164a3.749,3.749,0,0,0,.594,2.25,1.92,1.92,0,0,0,1.641.813A2.108,2.108,0,0,0,46.18-2.3V-6.187a2.125,2.125,0,0,0-1.992-1.2,1.929,1.929,0,0,0-1.656.82A4.128,4.128,0,0,0,41.938-4.133ZM49.484-4.3a4.993,4.993,0,0,1,.488-2.234A3.643,3.643,0,0,1,51.332-8.07a3.7,3.7,0,0,1,1.988-.539,3.565,3.565,0,0,1,2.793,1.2,4.6,4.6,0,0,1,1.066,3.18v.1a5.036,5.036,0,0,1-.473,2.215A3.589,3.589,0,0,1,55.355-.391a3.743,3.743,0,0,1-2.02.547,3.556,3.556,0,0,1-2.785-1.2A4.575,4.575,0,0,1,49.484-4.2Zm1.453.172a3.616,3.616,0,0,0,.652,2.258,2.088,2.088,0,0,0,1.746.852,2.075,2.075,0,0,0,1.75-.863A3.955,3.955,0,0,0,55.734-4.3a3.61,3.61,0,0,0-.66-2.254,2.1,2.1,0,0,0-1.754-.863,2.075,2.075,0,0,0-1.727.852A3.925,3.925,0,0,0,50.938-4.133ZM63.078-7.156a4.331,4.331,0,0,0-.711-.055A1.9,1.9,0,0,0,60.438-6V0H58.992V-8.453H60.4l.023.977a2.251,2.251,0,0,1,2.016-1.133,1.477,1.477,0,0,1,.641.109Z" transform="translate(-8095 -7154)" fill="#12263f"/>
    <path id="Trazado_899241" data-name="Trazado 899241" d="M.605-.226a.262.262,0,0,1-.083.174A.273.273,0,0,1,.336.01a.251.251,0,0,1-.2-.09A.363.363,0,0,1,.058-.322V-.391A.405.405,0,0,1,.094-.565a.264.264,0,0,1,.1-.115.279.279,0,0,1,.15-.04.257.257,0,0,1,.182.063.265.265,0,0,1,.08.175H.511A.2.2,0,0,0,.458-.606.16.16,0,0,0,.344-.644.168.168,0,0,0,.2-.578a.305.305,0,0,0-.051.189V-.32A.314.314,0,0,0,.2-.135a.156.156,0,0,0,.135.068A.18.18,0,0,0,.456-.1.2.2,0,0,0,.511-.226ZM.7-.269a.312.312,0,0,1,.031-.14A.228.228,0,0,1,.811-.5.231.231,0,0,1,.935-.538a.223.223,0,0,1,.175.075.287.287,0,0,1,.067.2v.006a.315.315,0,0,1-.03.138.224.224,0,0,1-.084.1A.234.234,0,0,1,.936.01.222.222,0,0,1,.762-.065.286.286,0,0,1,.7-.263Zm.091.011a.226.226,0,0,0,.041.141.13.13,0,0,0,.109.053.13.13,0,0,0,.109-.054.247.247,0,0,0,.041-.151A.226.226,0,0,0,1.045-.41a.131.131,0,0,0-.11-.054.13.13,0,0,0-.108.053A.245.245,0,0,0,.786-.258Zm.589-.27,0,.066a.193.193,0,0,1,.158-.076q.167,0,.169.189V0h-.09V-.35a.122.122,0,0,0-.026-.084.1.1,0,0,0-.08-.027.13.13,0,0,0-.077.023.159.159,0,0,0-.052.062V0H1.29V-.528Zm.444.26a.309.309,0,0,1,.058-.2.182.182,0,0,1,.151-.074.183.183,0,0,1,.147.063V-.75h.09V0H2.182l0-.057A.184.184,0,0,1,2.027.01a.18.18,0,0,1-.15-.075.313.313,0,0,1-.058-.2Zm.09.01a.234.234,0,0,0,.037.141.12.12,0,0,0,.1.051.132.132,0,0,0,.125-.077V-.387A.133.133,0,0,0,2.05-.461a.121.121,0,0,0-.1.051A.258.258,0,0,0,1.91-.258ZM2.625.01A.231.231,0,0,1,2.45-.061.262.262,0,0,1,2.382-.25V-.266a.317.317,0,0,1,.03-.14A.234.234,0,0,1,2.5-.5a.211.211,0,0,1,.117-.035.2.2,0,0,1,.16.068.294.294,0,0,1,.057.194v.038H2.473a.188.188,0,0,0,.046.126.144.144,0,0,0,.111.048.157.157,0,0,0,.081-.02.2.2,0,0,0,.058-.052l.055.043A.222.222,0,0,1,2.625.01ZM2.613-.464a.12.12,0,0,0-.092.04.193.193,0,0,0-.046.112H2.74V-.319A.172.172,0,0,0,2.7-.426.113.113,0,0,0,2.613-.464Zm.407-.064,0,.066a.193.193,0,0,1,.158-.076q.167,0,.169.189V0H3.26V-.35a.122.122,0,0,0-.026-.084.1.1,0,0,0-.08-.027.13.13,0,0,0-.077.023.159.159,0,0,0-.052.062V0h-.09V-.528Zm.774.388A.067.067,0,0,0,3.767-.2a.266.266,0,0,0-.1-.035.455.455,0,0,1-.109-.035A.155.155,0,0,1,3.5-.316a.117.117,0,0,1-.019-.067.137.137,0,0,1,.055-.11.215.215,0,0,1,.14-.045.221.221,0,0,1,.146.046.147.147,0,0,1,.056.119H3.789a.082.082,0,0,0-.031-.064.118.118,0,0,0-.079-.027A.123.123,0,0,0,3.6-.442a.068.068,0,0,0-.028.056A.055.055,0,0,0,3.6-.337a.318.318,0,0,0,.094.032.487.487,0,0,1,.11.036.16.16,0,0,1,.062.051.124.124,0,0,1,.02.072.135.135,0,0,1-.057.114A.238.238,0,0,1,3.681.01a.266.266,0,0,1-.112-.022.183.183,0,0,1-.076-.063.151.151,0,0,1-.028-.087h.09a.094.094,0,0,0,.036.072.141.141,0,0,0,.09.027.146.146,0,0,0,.082-.021A.064.064,0,0,0,3.794-.14ZM4.329,0a.19.19,0,0,1-.013-.056.2.2,0,0,1-.15.065.186.186,0,0,1-.128-.044.143.143,0,0,1-.05-.112A.149.149,0,0,1,4.05-.275.3.3,0,0,1,4.227-.32h.088V-.362a.1.1,0,0,0-.028-.075A.114.114,0,0,0,4.2-.465a.132.132,0,0,0-.081.024.072.072,0,0,0-.033.059H4a.125.125,0,0,1,.028-.076A.192.192,0,0,1,4.1-.517a.256.256,0,0,1,.106-.021.209.209,0,0,1,.143.046A.165.165,0,0,1,4.4-.367v.243a.3.3,0,0,0,.019.116V0Zm-.15-.069a.159.159,0,0,0,.081-.022.133.133,0,0,0,.055-.057V-.256H4.244q-.166,0-.166.1a.082.082,0,0,0,.028.066A.109.109,0,0,0,4.179-.069Zm.346-.2a.309.309,0,0,1,.058-.2.182.182,0,0,1,.151-.074.183.183,0,0,1,.147.063V-.75h.09V0H4.887l0-.057A.184.184,0,0,1,4.732.01a.18.18,0,0,1-.15-.075.313.313,0,0,1-.058-.2Zm.09.01a.234.234,0,0,0,.037.141.12.12,0,0,0,.1.051A.132.132,0,0,0,4.88-.144V-.387a.133.133,0,0,0-.125-.075.121.121,0,0,0-.1.051A.258.258,0,0,0,4.615-.258Zm.472-.011a.312.312,0,0,1,.031-.14A.228.228,0,0,1,5.2-.5a.231.231,0,0,1,.124-.034A.223.223,0,0,1,5.5-.463a.287.287,0,0,1,.067.2v.006a.315.315,0,0,1-.03.138.224.224,0,0,1-.084.1A.234.234,0,0,1,5.327.01a.222.222,0,0,1-.174-.075.286.286,0,0,1-.067-.2Zm.091.011a.226.226,0,0,0,.041.141.13.13,0,0,0,.109.053.13.13,0,0,0,.109-.054.247.247,0,0,0,.041-.151A.226.226,0,0,0,5.436-.41a.131.131,0,0,0-.11-.054.13.13,0,0,0-.108.053A.245.245,0,0,0,5.177-.258Zm.759-.189a.271.271,0,0,0-.044,0,.119.119,0,0,0-.121.076V0h-.09V-.528h.088v.061A.141.141,0,0,1,5.9-.538a.092.092,0,0,1,.04.007Z" transform="translate(-8050 -7168)" fill="#12263f"/>
    <path id="Trazado_899244" data-name="Trazado 899244" d="M1.32,0V-11.375H5.039a4.317,4.317,0,0,1,2.785.766,2.759,2.759,0,0,1,.934,2.266A2.31,2.31,0,0,1,8.3-6.934a2.938,2.938,0,0,1-1.234.949A2.638,2.638,0,0,1,8.527-5a2.814,2.814,0,0,1,.535,1.723A3.042,3.042,0,0,1,8.07-.875,4.1,4.1,0,0,1,5.266,0Zm1.5-5.32v4.094H5.3A2.385,2.385,0,0,0,6.949-1.77a1.907,1.907,0,0,0,.605-1.5q0-2.055-2.234-2.055Zm0-1.2H5.086A2.375,2.375,0,0,0,6.66-7.017a1.654,1.654,0,0,0,.59-1.339A1.626,1.626,0,0,0,6.7-9.722a2.686,2.686,0,0,0-1.664-.427H2.82ZM10.672-4.3a4.993,4.993,0,0,1,.488-2.234A3.643,3.643,0,0,1,12.52-8.07a3.7,3.7,0,0,1,1.988-.539,3.565,3.565,0,0,1,2.793,1.2,4.6,4.6,0,0,1,1.066,3.18v.1a5.036,5.036,0,0,1-.473,2.215A3.589,3.589,0,0,1,16.543-.391a3.743,3.743,0,0,1-2.02.547,3.556,3.556,0,0,1-2.785-1.2A4.575,4.575,0,0,1,10.672-4.2Zm1.453.172a3.616,3.616,0,0,0,.652,2.258,2.088,2.088,0,0,0,1.746.852,2.075,2.075,0,0,0,1.75-.863A3.955,3.955,0,0,0,16.922-4.3a3.61,3.61,0,0,0-.66-2.254,2.1,2.1,0,0,0-1.754-.863,2.075,2.075,0,0,0-1.727.852A3.925,3.925,0,0,0,12.125-4.133Zm9.414-4.32.039.938a3.122,3.122,0,0,1,2.508-1.094A2.417,2.417,0,0,1,26.5-7.25a3.2,3.2,0,0,1,1.1-.984,3.242,3.242,0,0,1,1.6-.375q2.781,0,2.828,2.945V0H30.578V-5.578a1.941,1.941,0,0,0-.414-1.355,1.823,1.823,0,0,0-1.391-.449,1.916,1.916,0,0,0-1.336.48,1.949,1.949,0,0,0-.617,1.293V0H25.367V-5.539a1.613,1.613,0,0,0-1.8-1.844,1.934,1.934,0,0,0-1.945,1.211V0H20.172V-8.453Zm19.82,4.32a5.026,5.026,0,0,1-.891,3.113A2.846,2.846,0,0,1,38.078.156,2.947,2.947,0,0,1,35.6-.977L35.531,0H34.2V-12h1.445v4.477a2.93,2.93,0,0,1,2.414-1.086A2.863,2.863,0,0,1,40.48-7.445a5.177,5.177,0,0,1,.879,3.188ZM39.914-4.3a3.906,3.906,0,0,0-.57-2.281,1.888,1.888,0,0,0-1.641-.8,2.122,2.122,0,0,0-2.055,1.328V-2.4a2.181,2.181,0,0,0,2.07,1.328,1.878,1.878,0,0,0,1.617-.8A4.153,4.153,0,0,0,39.914-4.3ZM44.75,0H43.3V-8.453H44.75ZM43.188-10.7a.863.863,0,0,1,.215-.594.807.807,0,0,1,.637-.242.819.819,0,0,1,.641.242.854.854,0,0,1,.219.594.826.826,0,0,1-.219.586.834.834,0,0,1-.641.234.821.821,0,0,1-.637-.234A.834.834,0,0,1,43.188-10.7ZM48.633,0H47.188V-12h1.445Zm3.883,0H51.07V-12h1.445Zm7.531,0a3.036,3.036,0,0,1-.2-.891A3.225,3.225,0,0,1,57.438.156a2.984,2.984,0,0,1-2.051-.707,2.287,2.287,0,0,1-.8-1.793,2.39,2.39,0,0,1,1-2.051,4.733,4.733,0,0,1,2.824-.73H59.82v-.664A1.623,1.623,0,0,0,59.367-7a1.821,1.821,0,0,0-1.336-.449,2.107,2.107,0,0,0-1.3.391,1.151,1.151,0,0,0-.523.945H54.758a2,2,0,0,1,.449-1.223,3.066,3.066,0,0,1,1.219-.934,4.1,4.1,0,0,1,1.691-.344,3.342,3.342,0,0,1,2.289.73,2.635,2.635,0,0,1,.859,2.012v3.891a4.757,4.757,0,0,0,.3,1.852V0Zm-2.4-1.1a2.54,2.54,0,0,0,1.289-.352,2.127,2.127,0,0,0,.883-.914V-4.1H58.688q-2.656,0-2.656,1.555a1.316,1.316,0,0,0,.453,1.063A1.742,1.742,0,0,0,57.648-1.1Z" transform="translate(-8095 -7072)" fill="#12263f"/>
    <path id="Trazado_899245" data-name="Trazado 899245" d="M2.82-4.453V0H1.32V-11.375h4.2a4.215,4.215,0,0,1,2.926.953A3.231,3.231,0,0,1,9.5-7.9,3.189,3.189,0,0,1,8.465-5.348,4.4,4.4,0,0,1,5.5-4.453Zm0-1.227h2.7a2.7,2.7,0,0,0,1.844-.567A2.075,2.075,0,0,0,8-7.887a2.143,2.143,0,0,0-.641-1.628A2.525,2.525,0,0,0,5.6-10.148H2.82ZM12.758,0H11.313V-8.453h1.445ZM11.2-10.7a.863.863,0,0,1,.215-.594.807.807,0,0,1,.637-.242.819.819,0,0,1,.641.242.854.854,0,0,1,.219.594.826.826,0,0,1-.219.586.834.834,0,0,1-.641.234.821.821,0,0,1-.637-.234A.834.834,0,0,1,11.2-10.7ZM16.641,0H15.2V-12h1.445Zm7.531,0a3.036,3.036,0,0,1-.2-.891A3.225,3.225,0,0,1,21.563.156a2.984,2.984,0,0,1-2.051-.707,2.287,2.287,0,0,1-.8-1.793,2.39,2.39,0,0,1,1-2.051,4.733,4.733,0,0,1,2.824-.73h1.406v-.664A1.623,1.623,0,0,0,23.492-7a1.821,1.821,0,0,0-1.336-.449,2.108,2.108,0,0,0-1.3.391,1.151,1.151,0,0,0-.523.945H18.883a2,2,0,0,1,.449-1.223,3.066,3.066,0,0,1,1.219-.934,4.1,4.1,0,0,1,1.691-.344,3.342,3.342,0,0,1,2.289.73,2.635,2.635,0,0,1,.859,2.012v3.891a4.757,4.757,0,0,0,.3,1.852V0Zm-2.4-1.1a2.54,2.54,0,0,0,1.289-.352,2.127,2.127,0,0,0,.883-.914V-4.1H22.813q-2.656,0-2.656,1.555a1.316,1.316,0,0,0,.453,1.063A1.742,1.742,0,0,0,21.773-1.1ZM27.6-4.617a12.079,12.079,0,0,1,.473-3.391,9.85,9.85,0,0,1,1.41-2.953,6,6,0,0,1,1.945-1.875l.3.953a6.222,6.222,0,0,0-1.871,2.672,11.583,11.583,0,0,0-.8,4.023l-.008.664a11.643,11.643,0,0,0,1.1,5.234,6.252,6.252,0,0,0,1.578,2.078l-.3.883a6.192,6.192,0,0,1-1.984-1.937A10.859,10.859,0,0,1,27.6-4.617Zm12.68.484a5.026,5.026,0,0,1-.891,3.113A2.846,2.846,0,0,1,37,.156,2.947,2.947,0,0,1,34.523-.977L34.453,0H33.125V-12H34.57v4.477a2.93,2.93,0,0,1,2.414-1.086A2.863,2.863,0,0,1,39.4-7.445a5.177,5.177,0,0,1,.879,3.188ZM38.836-4.3a3.906,3.906,0,0,0-.57-2.281,1.888,1.888,0,0,0-1.641-.8A2.122,2.122,0,0,0,34.57-6.055V-2.4a2.181,2.181,0,0,0,2.07,1.328,1.878,1.878,0,0,0,1.617-.8A4.153,4.153,0,0,0,38.836-4.3ZM47.32,0a3.036,3.036,0,0,1-.2-.891A3.225,3.225,0,0,1,44.711.156,2.984,2.984,0,0,1,42.66-.551a2.287,2.287,0,0,1-.8-1.793,2.39,2.39,0,0,1,1-2.051,4.733,4.733,0,0,1,2.824-.73h1.406v-.664A1.623,1.623,0,0,0,46.641-7,1.821,1.821,0,0,0,45.3-7.445a2.107,2.107,0,0,0-1.3.391,1.151,1.151,0,0,0-.523.945H42.031a2,2,0,0,1,.449-1.223A3.066,3.066,0,0,1,43.7-8.266a4.1,4.1,0,0,1,1.691-.344,3.342,3.342,0,0,1,2.289.73,2.635,2.635,0,0,1,.859,2.012v3.891a4.757,4.757,0,0,0,.3,1.852V0Zm-2.4-1.1a2.54,2.54,0,0,0,1.289-.352,2.127,2.127,0,0,0,.883-.914V-4.1H45.961Q43.3-4.1,43.3-2.547a1.316,1.316,0,0,0,.453,1.063A1.742,1.742,0,0,0,44.922-1.1Zm7.844-9.4v2.047h1.578v1.117H52.766v5.249a1.173,1.173,0,0,0,.211.763.888.888,0,0,0,.719.254,3.5,3.5,0,0,0,.688-.094V0a4.215,4.215,0,0,1-1.109.155A1.8,1.8,0,0,1,51.813-.43a2.517,2.517,0,0,1-.492-1.664V-7.336H49.781V-8.453H51.32V-10.5ZM59.539.156a3.693,3.693,0,0,1-2.8-1.129,4.19,4.19,0,0,1-1.078-3.02v-.266a5.073,5.073,0,0,1,.48-2.246,3.748,3.748,0,0,1,1.344-1.547,3.378,3.378,0,0,1,1.871-.559,3.166,3.166,0,0,1,2.563,1.086,4.7,4.7,0,0,1,.914,3.109v.6H57.109a3,3,0,0,0,.73,2.02,2.3,2.3,0,0,0,1.777.77,2.517,2.517,0,0,0,1.3-.312,3.259,3.259,0,0,0,.93-.828l.883.688A3.55,3.55,0,0,1,59.539.156Zm-.18-7.578a1.928,1.928,0,0,0-1.469.637A3.1,3.1,0,0,0,57.156-5h4.234v-.109A2.753,2.753,0,0,0,60.8-6.816,1.815,1.815,0,0,0,59.359-7.422Zm9.234.266a4.331,4.331,0,0,0-.711-.055A1.9,1.9,0,0,0,65.953-6V0H64.508V-8.453h1.406l.023.977a2.251,2.251,0,0,1,2.016-1.133,1.477,1.477,0,0,1,.641.109ZM71.492,0H70.047V-8.453h1.445ZM69.93-10.7a.863.863,0,0,1,.215-.594.807.807,0,0,1,.637-.242.819.819,0,0,1,.641.242.854.854,0,0,1,.219.594.826.826,0,0,1-.219.586.834.834,0,0,1-.641.234.821.821,0,0,1-.637-.234A.834.834,0,0,1,69.93-10.7ZM79.023,0a3.036,3.036,0,0,1-.2-.891A3.225,3.225,0,0,1,76.414.156a2.984,2.984,0,0,1-2.051-.707,2.288,2.288,0,0,1-.8-1.793,2.39,2.39,0,0,1,1-2.051,4.733,4.733,0,0,1,2.824-.73H78.8v-.664A1.623,1.623,0,0,0,78.344-7a1.821,1.821,0,0,0-1.336-.449,2.108,2.108,0,0,0-1.3.391,1.151,1.151,0,0,0-.523.945H73.734a2,2,0,0,1,.449-1.223A3.066,3.066,0,0,1,75.4-8.266a4.1,4.1,0,0,1,1.691-.344,3.342,3.342,0,0,1,2.289.73,2.635,2.635,0,0,1,.859,2.012v3.891a4.757,4.757,0,0,0,.3,1.852V0Zm-2.4-1.1a2.54,2.54,0,0,0,1.289-.352,2.127,2.127,0,0,0,.883-.914V-4.1H77.664q-2.656,0-2.656,1.555a1.316,1.316,0,0,0,.453,1.063A1.742,1.742,0,0,0,76.625-1.1Zm9.219-3.437a12.084,12.084,0,0,1-.457,3.34,9.876,9.876,0,0,1-1.4,2.949,6.127,6.127,0,0,1-1.973,1.922l-.3-.883A6.281,6.281,0,0,0,83.645-.074a12.387,12.387,0,0,0,.746-4.309v-.25a12.861,12.861,0,0,0-.344-3.051,10.3,10.3,0,0,0-.957-2.527,5.838,5.838,0,0,0-1.379-1.742l.3-.883A6.1,6.1,0,0,1,83.98-10.93a9.9,9.9,0,0,1,1.4,2.945A12.363,12.363,0,0,1,85.844-4.539Z" transform="translate(-8095 -6999)" fill="#12263f"/>
    <path id="Trazado_898813" data-name="Trazado 898813" d="M-8236-10900.418h556" transform="translate(105 3628)" fill="none" stroke="#fff" stroke-width="1"/>
    <path id="Trazado_898814" data-name="Trazado 898814" d="M-8236-10900.418h556" transform="translate(105 3707.418)" fill="none" stroke="#fff" stroke-width="1"/>
    <path id="Trazado_898815" data-name="Trazado 898815" d="M-8236-10900.418h556" transform="translate(105 3783.708)" fill="none" stroke="#fff" stroke-width="1"/>
    <path id="Trazado_898816" data-name="Trazado 898816" d="M-8236-10900.418h556" transform="translate(105 3863.418)" fill="none" stroke="#fff" stroke-width="1"/>
    <path id="Trazado_898817" data-name="Trazado 898817" d="M-8236-10900.418h556" transform="translate(105 3932.418)" fill="none" stroke="#fff" stroke-width="1"/>
    <path id="Trazado_899248" data-name="Trazado 899248" d="M3.258-11.375,6.977-2.094,10.7-11.375h1.945V0h-1.5V-4.43l.141-4.781L7.547,0H6.4L2.672-9.187,2.82-4.43V0H1.32V-11.375ZM14.68-4.3a4.993,4.993,0,0,1,.488-2.234A3.643,3.643,0,0,1,16.527-8.07a3.7,3.7,0,0,1,1.988-.539,3.565,3.565,0,0,1,2.793,1.2,4.6,4.6,0,0,1,1.066,3.18v.1A5.036,5.036,0,0,1,21.9-1.918,3.589,3.589,0,0,1,20.551-.391a3.743,3.743,0,0,1-2.02.547,3.556,3.556,0,0,1-2.785-1.2A4.575,4.575,0,0,1,14.68-4.2Zm1.453.172a3.616,3.616,0,0,0,.652,2.258,2.088,2.088,0,0,0,1.746.852,2.075,2.075,0,0,0,1.75-.863A3.955,3.955,0,0,0,20.93-4.3a3.61,3.61,0,0,0-.66-2.254,2.1,2.1,0,0,0-1.754-.863,2.075,2.075,0,0,0-1.727.852A3.925,3.925,0,0,0,16.133-4.133ZM26.148-10.5v2.047h1.578v1.117H26.148v5.249a1.173,1.173,0,0,0,.211.763.888.888,0,0,0,.719.254,3.5,3.5,0,0,0,.688-.094V0a4.215,4.215,0,0,1-1.109.155A1.8,1.8,0,0,1,25.2-.43,2.517,2.517,0,0,1,24.7-2.094V-7.336H23.164V-8.453H24.7V-10.5Zm2.727,6.2a4.993,4.993,0,0,1,.488-2.234A3.643,3.643,0,0,1,30.723-8.07a3.7,3.7,0,0,1,1.988-.539,3.565,3.565,0,0,1,2.793,1.2,4.6,4.6,0,0,1,1.066,3.18v.1A5.036,5.036,0,0,1,36.1-1.918,3.589,3.589,0,0,1,34.746-.391a3.743,3.743,0,0,1-2.02.547,3.556,3.556,0,0,1-2.785-1.2A4.575,4.575,0,0,1,28.875-4.2Zm1.453.172a3.616,3.616,0,0,0,.652,2.258,2.088,2.088,0,0,0,1.746.852,2.075,2.075,0,0,0,1.75-.863A3.955,3.955,0,0,0,35.125-4.3a3.61,3.61,0,0,0-.66-2.254,2.1,2.1,0,0,0-1.754-.863,2.075,2.075,0,0,0-1.727.852A3.925,3.925,0,0,0,30.328-4.133ZM42.469-7.156a4.331,4.331,0,0,0-.711-.055A1.9,1.9,0,0,0,39.828-6V0H38.383V-8.453h1.406l.023.977a2.251,2.251,0,0,1,2.016-1.133,1.477,1.477,0,0,1,.641.109Z" transform="translate(-8095 -6926)" fill="#12263f"/>
    <path id="Trazado_898818" data-name="Trazado 898818" d="M-7916.77-9491.5h62.2" transform="translate(0 2189.049)" fill="none" stroke="#000" stroke-width="3"/>
    <path id="Trazado_898819" data-name="Trazado 898819" d="M-7916.77-9491.5h62.2" transform="translate(3747.873 -3040.956) rotate(-30)" fill="none" stroke="#ff2c29" stroke-width="3"/>
    <g id="Trazado_899234" data-name="Trazado 899234" transform="translate(-7863 -7310)" fill="#fff">
      <path d="M 6.5 11.5 C 3.742990016937256 11.5 1.5 9.257010459899902 1.5 6.5 C 1.5 3.742990016937256 3.742990016937256 1.5 6.5 1.5 C 9.257010459899902 1.5 11.5 3.742990016937256 11.5 6.5 C 11.5 9.257010459899902 9.257010459899902 11.5 6.5 11.5 Z" stroke="none"/>
      <path d="M 6.5 3 C 4.570090293884277 3 3 4.570090293884277 3 6.5 C 3 8.429910659790039 4.570090293884277 10 6.5 10 C 8.429910659790039 10 10 8.429910659790039 10 6.5 C 10 4.570090293884277 8.429910659790039 3 6.5 3 M 6.5 0 C 10.0898494720459 0 13 2.910149574279785 13 6.5 C 13 10.0898494720459 10.0898494720459 13 6.5 13 C 2.910149574279785 13 0 10.0898494720459 0 6.5 C 0 2.910149574279785 2.910149574279785 0 6.5 0 Z" stroke="none" fill="#000"/>
    </g>
    <path id="Trazado_898820" data-name="Trazado 898820" d="M-7916.77-9491.5h62.2" transform="translate(148.913 2189.049)" fill="none" stroke="#000" stroke-width="3"/>
    <g id="Trazado_899235" data-name="Trazado 899235" transform="translate(-7775 -7310)" fill="#fff">
      <path d="M 6.5 11.5 C 3.742990016937256 11.5 1.5 9.257010459899902 1.5 6.5 C 1.5 3.742990016937256 3.742990016937256 1.5 6.5 1.5 C 9.257010459899902 1.5 11.5 3.742990016937256 11.5 6.5 C 11.5 9.257010459899902 9.257010459899902 11.5 6.5 11.5 Z" stroke="none"/>
      <path d="M 6.5 3 C 4.570090293884277 3 3 4.570090293884277 3 6.5 C 3 8.429910659790039 4.570090293884277 10 6.5 10 C 8.429910659790039 10 10 8.429910659790039 10 6.5 C 10 4.570090293884277 8.429910659790039 3 6.5 3 M 6.5 0 C 10.0898494720459 0 13 2.910149574279785 13 6.5 C 13 10.0898494720459 10.0898494720459 13 6.5 13 C 2.910149574279785 13 0 10.0898494720459 0 6.5 C 0 2.910149574279785 2.910149574279785 0 6.5 0 Z" stroke="none" fill="#000"/>
    </g>
    <path id="Trazado_898821" data-name="Trazado 898821" d="M-7916.77-9491.5h62.2" transform="translate(2 2271.549)" fill="none" stroke="#000" stroke-width="3"/>
    <path id="Trazado_898822" data-name="Trazado 898822" d="M-7916.77-9491.5h62.2" transform="translate(3747.873 -2955.182) rotate(-30)" fill="none" stroke="#ff2c29" stroke-width="3"/>
    <g id="Trazado_899238" data-name="Trazado 899238" transform="translate(-7861 -7227.5)" fill="#fff">
      <path d="M 6.5 11.5 C 3.742990016937256 11.5 1.5 9.257010459899902 1.5 6.5 C 1.5 3.742990016937256 3.742990016937256 1.5 6.5 1.5 C 9.257010459899902 1.5 11.5 3.742990016937256 11.5 6.5 C 11.5 9.257010459899902 9.257010459899902 11.5 6.5 11.5 Z" stroke="none"/>
      <path d="M 6.5 3 C 4.570090293884277 3 3 4.570090293884277 3 6.5 C 3 8.429910659790039 4.570090293884277 10 6.5 10 C 8.429910659790039 10 10 8.429910659790039 10 6.5 C 10 4.570090293884277 8.429910659790039 3 6.5 3 M 6.5 0 C 10.0898494720459 0 13 2.910149574279785 13 6.5 C 13 10.0898494720459 10.0898494720459 13 6.5 13 C 2.910149574279785 13 0 10.0898494720459 0 6.5 C 0 2.910149574279785 2.910149574279785 0 6.5 0 Z" stroke="none" fill="#000"/>
    </g>
    <path id="Trazado_898823" data-name="Trazado 898823" d="M-7916.77-9491.5h62.2" transform="translate(113.523 2241.049)" fill="none" stroke="#000" stroke-width="3"/>
    <g id="Trazado_899236" data-name="Trazado 899236" transform="translate(-7810.39 -7258)" fill="#fff">
      <path d="M 6.5 11.5 C 3.742990016937256 11.5 1.5 9.257010459899902 1.5 6.5 C 1.5 3.742990016937256 3.742990016937256 1.5 6.5 1.5 C 9.257010459899902 1.5 11.5 3.742990016937256 11.5 6.5 C 11.5 9.257010459899902 9.257010459899902 11.5 6.5 11.5 Z" stroke="none"/>
      <path d="M 6.5 3 C 4.570090293884277 3 3 4.570090293884277 3 6.5 C 3 8.429910659790039 4.570090293884277 10 6.5 10 C 8.429910659790039 10 10 8.429910659790039 10 6.5 C 10 4.570090293884277 8.429910659790039 3 6.5 3 M 6.5 0 C 10.0898494720459 0 13 2.910149574279785 13 6.5 C 13 10.0898494720459 10.0898494720459 13 6.5 13 C 2.910149574279785 13 0 10.0898494720459 0 6.5 C 0 2.910149574279785 2.910149574279785 0 6.5 0 Z" stroke="none" fill="#000"/>
    </g>
    <path id="Trazado_898824" data-name="Trazado 898824" d="M-7916.77-9491.5h62.2" transform="translate(113.523 2275.872)" fill="none" stroke="#000" stroke-width="3"/>
    <g id="Trazado_899239" data-name="Trazado 899239" transform="translate(-7810.39 -7223.177)" fill="#fff">
      <path d="M 6.5 11.5 C 3.742990016937256 11.5 1.5 9.257010459899902 1.5 6.5 C 1.5 3.742990016937256 3.742990016937256 1.5 6.5 1.5 C 9.257010459899902 1.5 11.5 3.742990016937256 11.5 6.5 C 11.5 9.257010459899902 9.257010459899902 11.5 6.5 11.5 Z" stroke="none"/>
      <path d="M 6.5 3 C 4.570090293884277 3 3 4.570090293884277 3 6.5 C 3 8.429910659790039 4.570090293884277 10 6.5 10 C 8.429910659790039 10 10 8.429910659790039 10 6.5 C 10 4.570090293884277 8.429910659790039 3 6.5 3 M 6.5 0 C 10.0898494720459 0 13 2.910149574279785 13 6.5 C 13 10.0898494720459 10.0898494720459 13 6.5 13 C 2.910149574279785 13 0 10.0898494720459 0 6.5 C 0 2.910149574279785 2.910149574279785 0 6.5 0 Z" stroke="none" fill="#000"/>
    </g>
    <path id="Trazado_898825" data-name="Trazado 898825" d="M-7916.77-9491.5h62.2" transform="translate(33.098 2353.049)" fill="none" stroke="#000" stroke-width="3"/>
    <g id="Trazado_899242" data-name="Trazado 899242" transform="translate(-7829.902 -7146)" fill="#fff">
      <path d="M 6.5 11.5 C 3.742990016937256 11.5 1.5 9.257010459899902 1.5 6.5 C 1.5 3.742990016937256 3.742990016937256 1.5 6.5 1.5 C 9.257010459899902 1.5 11.5 3.742990016937256 11.5 6.5 C 11.5 9.257010459899902 9.257010459899902 11.5 6.5 11.5 Z" stroke="none"/>
      <path d="M 6.5 3 C 4.570090293884277 3 3 4.570090293884277 3 6.5 C 3 8.429910659790039 4.570090293884277 10 6.5 10 C 8.429910659790039 10 10 8.429910659790039 10 6.5 C 10 4.570090293884277 8.429910659790039 3 6.5 3 M 6.5 0 C 10.0898494720459 0 13 2.910149574279785 13 6.5 C 13 10.0898494720459 10.0898494720459 13 6.5 13 C 2.910149574279785 13 0 10.0898494720459 0 6.5 C 0 2.910149574279785 2.910149574279785 0 6.5 0 Z" stroke="none" fill="#000"/>
    </g>
    <path id="Trazado_898826" data-name="Trazado 898826" d="M-7916.77-9491.5h62.2" transform="translate(152.484 2354.372)" fill="none" stroke="#000" stroke-width="3"/>
    <g id="Trazado_899243" data-name="Trazado 899243" transform="translate(-7771.428 -7144.677)" fill="#fff">
      <path d="M 6.5 11.5 C 3.742990016937256 11.5 1.5 9.257010459899902 1.5 6.5 C 1.5 3.742990016937256 3.742990016937256 1.5 6.5 1.5 C 9.257010459899902 1.5 11.5 3.742990016937256 11.5 6.5 C 11.5 9.257010459899902 9.257010459899902 11.5 6.5 11.5 Z" stroke="none"/>
      <path d="M 6.5 3 C 4.570090293884277 3 3 4.570090293884277 3 6.5 C 3 8.429910659790039 4.570090293884277 10 6.5 10 C 8.429910659790039 10 10 8.429910659790039 10 6.5 C 10 4.570090293884277 8.429910659790039 3 6.5 3 M 6.5 0 C 10.0898494720459 0 13 2.910149574279785 13 6.5 C 13 10.0898494720459 10.0898494720459 13 6.5 13 C 2.910149574279785 13 0 10.0898494720459 0 6.5 C 0 2.910149574279785 2.910149574279785 0 6.5 0 Z" stroke="none" fill="#000"/>
    </g>
    <path id="Trazado_898827" data-name="Trazado 898827" d="M-7827.069-9340.49h72.633" transform="translate(-1 2188)" fill="none" stroke="#ff2c29" stroke-width="3"/>
    <path id="Trazado_898828" data-name="Trazado 898828" d="M-7827.068-9340.49h26.643" transform="translate(-17132.242 647.936) rotate(90)" fill="none" stroke="#ff2c29" stroke-width="3"/>
    <g id="Grupo_1108523" data-name="Grupo 1108523" transform="translate(-8654.051 -9425)">
      <g id="Elipse_11588" data-name="Elipse 11588" transform="translate(840.051 2325)" fill="none" stroke="#ff2c29" stroke-width="3">
        <circle cx="22.5" cy="22.5" r="22.5" stroke="none"/>
        <circle cx="22.5" cy="22.5" r="21" fill="none"/>
      </g>
      <path id="Trazado_898829" data-name="Trazado 898829" d="M-7803.89-9274.939l29.739,29.739" transform="translate(8651.319 11605.857)" fill="none" stroke="#ff2c29" stroke-width="3"/>
      <path id="Trazado_898830" data-name="Trazado 898830" d="M-7803.89-9274.939l29.738,29.738" transform="translate(-8398.242 10136.95) rotate(90)" fill="none" stroke="#ff2c29" stroke-width="3"/>
    </g>
    <path id="Trazado_898831" data-name="Trazado 898831" d="M-7916.77-9491.5h50.051" transform="translate(52.719 2412.287)" fill="none" stroke="#000" stroke-width="3"/>
    <path id="Trazado_898832" data-name="Trazado 898832" d="M-7916.77-9491.5h50.051" transform="translate(146.795 2412.287)" fill="none" stroke="#000" stroke-width="3"/>
    <path id="Trazado_898833" data-name="Trazado 898833" d="M-7827.068-9340.49h26.643" transform="translate(-17137.881 811.486) rotate(90)" fill="none" stroke="#ff2c29" stroke-width="3"/>
    <path id="Trazado_898834" data-name="Trazado 898834" d="M-7827.068-9340.49h39.772" transform="translate(-17127.629 804.486) rotate(90)" fill="none" stroke="#ff2c29" stroke-width="3"/>
    <path id="Trazado_898835" data-name="Trazado 898835" d="M-7916.77-9491.5h27.119" transform="translate(89.701 2488.805)" fill="none" stroke="#000" stroke-width="3"/>
    <path id="Trazado_898836" data-name="Trazado 898836" d="M-7916.77-9491.5h27.119" transform="translate(130.6 2488.805)" fill="none" stroke="#000" stroke-width="3"/>
    <g id="Trazado_899246" data-name="Trazado 899246" transform="translate(-7814 -6954)" fill="none">
      <path d="M22.5,0A22.5,22.5,0,1,1,0,22.5,22.5,22.5,0,0,1,22.5,0Z" stroke="none"/>
      <path d="M 22.5 3 C 17.29136085510254 3 12.39448165893555 5.028350830078125 8.711418151855469 8.711418151855469 C 5.028350830078125 12.39448165893555 3 17.29136085510254 3 22.5 C 3 27.70863914489746 5.028350830078125 32.60552215576172 8.711418151855469 36.28858184814453 C 12.39448165893555 39.97164916992188 17.29136085510254 42 22.5 42 C 27.70863914489746 42 32.60552215576172 39.97164916992188 36.28858184814453 36.28858184814453 C 39.97164916992188 32.60552215576172 42 27.70863914489746 42 22.5 C 42 17.29136085510254 39.97164916992188 12.39448165893555 36.28858184814453 8.711418151855469 C 32.60552215576172 5.028350830078125 27.70863914489746 3 22.5 3 M 22.5 0 C 34.92641067504883 0 45 10.07358932495117 45 22.5 C 45 34.92641067504883 34.92641067504883 45 22.5 45 C 10.07358932495117 45 0 34.92641067504883 0 22.5 C 0 10.07358932495117 10.07358932495117 0 22.5 0 Z" stroke="none" fill="#ff2c29"/>
    </g>
    <path id="Trazado_899247" data-name="Trazado 899247" d="M4.881-14.93,9.188-3.486l4.3-11.443h3.353V0H14.253V-4.922l.256-6.583L10.1,0H8.244l-4.4-11.495L4.1-4.922V0H1.518V-14.93Z" transform="translate(-7800 -6926)" fill="#ff2c29"/>
    <path id="Trazado_898837" data-name="Trazado 898837" d="M-7916.77-9491.5h27.119" transform="translate(76.142 2560)" fill="none" stroke="#000" stroke-width="3"/>
    <path id="Trazado_898838" data-name="Trazado 898838" d="M-7916.77-9491.5h27.119" transform="translate(148.278 2560)" fill="none" stroke="#000" stroke-width="3"/>
  </g>
</svg>
