<svg xmlns="http://www.w3.org/2000/svg" xmlns:xlink="http://www.w3.org/1999/xlink" width="305.164" height="159.758" viewBox="0 0 305.164 159.758">
  <defs>
    <clipPath id="clip-path">
      <rect id="Rectángulo_403283" data-name="Rectángulo 403283" width="28.005" height="40.394" transform="translate(0 0)" fill="none"/>
    </clipPath>
    <clipPath id="clip-path-5">
      <rect id="Rectángulo_403285" data-name="Rectángulo 403285" width="28.141" height="50.383" transform="translate(0 0)" fill="none"/>
    </clipPath>
  </defs>
  <g id="Grupo_1108508" data-name="Grupo 1108508" transform="translate(-239.084 -2801.803)">
    <g id="Rectángulo_403281" data-name="Rectángulo 403281" transform="translate(252.051 2832)" fill="none" stroke="#000" stroke-width="3">
      <rect width="263" height="121" stroke="none"/>
      <rect x="1.5" y="1.5" width="260" height="118" fill="none"/>
    </g>
    <g id="Grupo_1108493" data-name="Grupo 1108493" transform="translate(364.697 2801.801)">
      <g id="Grupo_1108492" data-name="Grupo 1108492" transform="translate(0 0.002)" clip-path="url(#clip-path)">
        <path id="Trazado_898849" data-name="Trazado 898849" d="M27.55,7.462C26.336,3.821,23.116,1.306,19.135.388h0L19.077.374q-.206-.047-.414-.088L18.6.274q-.234-.045-.47-.082l-.066-.01c-.159-.025-.32-.047-.481-.067h-.007c-.162-.02-.326-.036-.49-.051L17,.056q-.243-.02-.488-.033l-.047,0Q16.234.009,16,.005h-.061q-.245,0-.491,0l-.089,0c-.168,0-.336.009-.5.018h0c-.167.009-.335.021-.5.035l-.09.007q-.247.022-.495.051l-.084.011q-.238.029-.476.065L13.156.2c-.167.026-.334.055-.5.086l-.1.02c-.166.032-.333.066-.5.1l-.061.014q-.233.053-.466.113l-.088.022q-.247.065-.494.137l-.1.031c-.17.051-.339.1-.508.16C2.861,3.375-1.541,10.356.5,16.477a15.8,15.8,0,0,0,5.038,7.11h0a16.859,16.859,0,0,1,3.826,4.482A1.7,1.7,0,0,0,8.78,29.64a2.306,2.306,0,0,0,.815,1.231,2.37,2.37,0,0,0,.45.281.344.344,0,0,0-.033.037,1.345,1.345,0,0,0-.7,1.058,2.174,2.174,0,0,0,1.05,1.895,1.79,1.79,0,0,0,.405.177.646.646,0,0,0,.044.1,1.575,1.575,0,0,0-.18.625,2.111,2.111,0,0,0,.428,1.325,2.9,2.9,0,0,0,1.131.986,3.647,3.647,0,0,0,1.192.316A5.053,5.053,0,0,0,14.4,39.754a2.025,2.025,0,0,0,.684.538,1.077,1.077,0,0,0,.852.03,1.586,1.586,0,0,0,.738-.985,9.971,9.971,0,0,0,.517-2.245,5.221,5.221,0,0,0,.982-.584,2.979,2.979,0,0,0,1-1.162,1.554,1.554,0,0,0-.379-1.67,1.65,1.65,0,0,0-.458-.355.528.528,0,0,0-.2-.253,5.193,5.193,0,0,0,.456-.349,4.311,4.311,0,0,0,.889-1,.84.84,0,0,0,.134-.625,1.458,1.458,0,0,0-.346-.594,1,1,0,0,0-.2-.172.156.156,0,0,0-.123-.124,2.64,2.64,0,0,0,.411-.459,1.935,1.935,0,0,0,.416-1.339,1.364,1.364,0,0,0-.861-1.167,10.442,10.442,0,0,1,2.5-4.261c2.82-2.73,5.3-5.2,6.341-10.009a10.989,10.989,0,0,0-.207-5.5" transform="translate(0 -0.002)" fill="#ffc53a"/>
        <path id="Trazado_898850" data-name="Trazado 898850" d="M330.95,996.187a1,1,0,0,0-.2-.172.156.156,0,0,0-.123-.124,2.639,2.639,0,0,0,.411-.459,1.935,1.935,0,0,0,.416-1.339,1.364,1.364,0,0,0-.861-1.167,1.873,1.873,0,0,0-.45-.114,8.7,8.7,0,0,1-3.244.9c-.108.013-.219.024-.332.034q-.266.025-.553.041c-.1.006-.208.011-.316.015q-.266.01-.548.012c-.119,0-.239,0-.362,0-.3,0-.615-.016-.941-.036s-.638-.047-.975-.083l-.086-.01q-.2-.022-.4-.049l-.126-.016c-.165-.022-.333-.046-.5-.073a.917.917,0,0,0-.717.219,1.7,1.7,0,0,0-.581,1.571,2.306,2.306,0,0,0,.815,1.231,2.366,2.366,0,0,0,.45.281.329.329,0,0,0-.033.037,1.345,1.345,0,0,0-.7,1.058,2.174,2.174,0,0,0,1.05,1.895,1.789,1.789,0,0,0,.405.177.649.649,0,0,0,.044.1,1.575,1.575,0,0,0-.18.625,2.111,2.111,0,0,0,.428,1.325,2.9,2.9,0,0,0,1.131.986,3.648,3.648,0,0,0,1.192.316,5.053,5.053,0,0,0,1.024,2.078,2.025,2.025,0,0,0,.684.538,1.077,1.077,0,0,0,.852.03,1.586,1.586,0,0,0,.738-.985,9.975,9.975,0,0,0,.517-2.245,5.228,5.228,0,0,0,.982-.584,2.978,2.978,0,0,0,1-1.162,1.554,1.554,0,0,0-.379-1.67,1.65,1.65,0,0,0-.458-.355.527.527,0,0,0-.2-.253,5.21,5.21,0,0,0,.456-.349,4.312,4.312,0,0,0,.889-1,.84.84,0,0,0,.134-.625,1.459,1.459,0,0,0-.346-.594" transform="translate(-311.678 -965.693)" fill="#7187c3"/>
        <path id="Trazado_898851" data-name="Trazado 898851" d="M24.368,8.522c-1.006-3.02-4.2-5.011-8.2-5.157l0,0,0,0h.006A20.825,20.825,0,0,1,18.717.737c.138-.119.279-.234.42-.35-.157-.036-.315-.069-.474-.1L18.6.274q-.234-.045-.471-.082l-.066-.01c-.159-.025-.32-.047-.481-.067h-.007c-.162-.02-.326-.036-.49-.051L17,.056q-.243-.02-.488-.033l-.047,0Q16.234.01,16,.005h-.061q-.245,0-.491,0l-.089,0c-.168,0-.336.009-.5.018h0c-.167.009-.335.021-.5.035l-.09.007q-.247.022-.495.051l-.084.011q-.238.029-.476.065L13.157.2c-.167.026-.334.055-.5.086l-.1.02c-.166.032-.333.066-.5.1l-.061.014q-.233.053-.466.113l-.088.022Q11.19.623,10.943.7l-.1.031c-.17.051-.339.1-.508.16C2.861,3.376-1.541,10.356.5,16.477a15.8,15.8,0,0,0,5.038,7.11h0a16.859,16.859,0,0,1,3.826,4.482.917.917,0,0,1,.717-.219c.171.027.338.051.5.073l.126.016q.2.026.4.049l.086.01q.505.054.975.083c.326.02.64.032.941.036.123,0,.243,0,.362,0q.282,0,.548-.012c.107,0,.212-.009.316-.015q.287-.016.553-.041c.113-.011.224-.022.332-.034a14.919,14.919,0,0,1,3.861-7.452c2.81-2.72,4.576-4.579,5.388-8.271a7.665,7.665,0,0,0-.1-3.77" transform="translate(0 -0.002)" fill="#fca01f"/>
        <path id="Trazado_898852" data-name="Trazado 898852" d="M722.549,76.537a.275.275,0,0,0,.172.327c.1.049.312.067.362-.071a9.375,9.375,0,0,0-3.431-10.9,9.622,9.622,0,0,0-2.938-1.4c-.12-.034-.289.013-.3.156s.137.261.263.3a8.827,8.827,0,0,1,6.405,8.254,9.041,9.041,0,0,1-.53,3.345" transform="translate(-696.841 -62.713)" fill="#fff"/>
        <path id="Trazado_898853" data-name="Trazado 898853" d="M663.418,1030.092a.282.282,0,0,0-.27.277l.062.873a.278.278,0,0,0,.32.218.282.282,0,0,0,.27-.277l-.062-.873a.279.279,0,0,0-.32-.218" transform="translate(-645.034 -1001.952)" fill="#fff"/>
        <path id="Trazado_898854" data-name="Trazado 898854" d="M619.516,1271.009a1.9,1.9,0,0,0-.206.04c-.018.005-.077.013-.083.034a2.04,2.04,0,0,1-.729,1.065c-.025.019.025.018.033.018a1.088,1.088,0,0,0,.177-.013c.075-.01.151-.021.225-.037a.367.367,0,0,0,.132-.038,2.08,2.08,0,0,0,.748-1.084,1.664,1.664,0,0,0-.3.015" transform="translate(-601.597 -1236.272)" fill="#fff"/>
        <path id="Trazado_898855" data-name="Trazado 898855" d="M636.69,1146.36a1.9,1.9,0,0,0-.206.04c-.018.005-.077.013-.083.034a2.04,2.04,0,0,1-.729,1.065c-.025.019.025.018.033.018a1.076,1.076,0,0,0,.177-.013c.075-.01.151-.021.225-.037a.368.368,0,0,0,.132-.038,2.081,2.081,0,0,0,.748-1.084,1.675,1.675,0,0,0-.3.015" transform="translate(-618.302 -1115.028)" fill="#fff"/>
        <path id="Trazado_898856" data-name="Trazado 898856" d="M143.863,127.951c-1.006-3.02-4.2-5.011-8.2-5.157l0,0,0,0c-.155-.006-.311-.009-.468-.009a13.6,13.6,0,0,0-4.3.713,12.528,12.528,0,0,0-6.705,5.04,7.376,7.376,0,0,0-1,6.307,12.425,12.425,0,0,0,3.957,5.557l.014.011a20.091,20.091,0,0,1,3.914,4.275c.155.951.354,1.893.6,2.822.326.02.64.032.941.036.123,0,.243,0,.362,0q.282,0,.548-.012c.107,0,.212-.009.316-.015q.287-.016.553-.041c.113-.011.224-.022.332-.034a14.919,14.919,0,0,1,3.861-7.452c2.81-2.72,4.576-4.579,5.388-8.271a7.665,7.665,0,0,0-.1-3.77" transform="translate(-119.496 -119.431)" fill="#ffd87f"/>
        <path id="Trazado_898857" data-name="Trazado 898857" d="M141.455,129.7a1.651,1.651,0,0,0-1.011-1.163,2.1,2.1,0,0,0-1.618.064,4.287,4.287,0,0,0-1.37,1.088,10.924,10.924,0,0,0-1.885,2.936,15.754,15.754,0,0,0-1.125,3.9q-.652.218-1.323.37a24.625,24.625,0,0,0-.789-3.042,7.286,7.286,0,0,0-1-2.047,22.984,22.984,0,0,1,.876-2.963,21.489,21.489,0,0,1,3.456-6.047l0,0c-.155-.006-.311-.009-.468-.009a13.6,13.6,0,0,0-4.3.713,12.528,12.528,0,0,0-6.705,5.04,7.376,7.376,0,0,0-1,6.307,12.425,12.425,0,0,0,3.957,5.557l.014.011a20.091,20.091,0,0,1,3.914,4.275q.232,1.426.6,2.822c.326.02.64.032.941.036a15.8,15.8,0,0,0-1.543-2.859,34.857,34.857,0,0,1-.423-4.41q-.043-1.256-.011-2.519a14.665,14.665,0,0,0,2.087-.243q.208,1.212.318,2.438a40.767,40.767,0,0,1-.066,7.593q.282,0,.548-.012a42.482,42.482,0,0,0,.159-5.882,33.515,33.515,0,0,0-.455-4.238l.037-.008c.371-.08.738-.177,1.1-.288-.136.994-.209,2-.249,3-.1,2.466-.014,4.947-.276,7.4q.287-.016.553-.041c.152-1.561.175-3.137.2-4.7a42,42,0,0,1,.36-5.847,11.442,11.442,0,0,0,4.542-2.892,8.464,8.464,0,0,0,1.807-2.784,2.783,2.783,0,0,0,.163-1.554m-9.975,7.479c-.275.032-.555.059-.836.078a30.623,30.623,0,0,1,.556-4.849q.1.176.195.359a9.944,9.944,0,0,1,.593,1.6q.271.919.476,1.856c.057.258.109.517.158.776-.379.073-.76.132-1.142.177m9.313-6.246a6.673,6.673,0,0,1-.708,1.379,10.5,10.5,0,0,1-5.035,4c.074-.392.159-.783.26-1.171a13.474,13.474,0,0,1,1.206-3.1,10.632,10.632,0,0,1,.909-1.388,7.06,7.06,0,0,1,1.133-1.2,2.154,2.154,0,0,1,1.405-.552.973.973,0,0,1,.944.653,2.223,2.223,0,0,1-.114,1.389" transform="translate(-119.495 -119.431)" fill="#ffc53a"/>
        <path id="Trazado_898858" data-name="Trazado 898858" d="M330.748,1021.65a.156.156,0,0,0-.123-.124.342.342,0,0,0-.167,0,30.311,30.311,0,0,1-5.632.826,25.1,25.1,0,0,1-.981-2.942q-.469-.029-.975-.083l-.086-.01q-.2-.022-.4-.049l-.126-.016c-.165-.022-.333-.046-.5-.073a.917.917,0,0,0-.717.219,1.7,1.7,0,0,0-.581,1.571,2.306,2.306,0,0,0,.815,1.231,2.37,2.37,0,0,0,.45.281.329.329,0,0,0-.033.037,1.345,1.345,0,0,0-.7,1.057,2.174,2.174,0,0,0,1.05,1.895,1.794,1.794,0,0,0,.405.177.651.651,0,0,0,.044.1,1.575,1.575,0,0,0-.18.625,2.111,2.111,0,0,0,.428,1.325,2.9,2.9,0,0,0,1.131.986,3.645,3.645,0,0,0,1.192.316,5.053,5.053,0,0,0,1.025,2.078,2.023,2.023,0,0,0,.684.538,1.077,1.077,0,0,0,.852.03,1.586,1.586,0,0,0,.738-.985,9.976,9.976,0,0,0,.517-2.246c-.074.034-.149.063-.224.094a17.959,17.959,0,0,1-2.11-2.79c.633-.1,1.261-.223,1.883-.379q.795-.2,1.573-.459c.074-.024.069-.129.024-.238a.528.528,0,0,0-.2-.253.155.155,0,0,0-.124-.017,20.894,20.894,0,0,1-3.462.83c-.2-.335-.379-.667-.547-.992-.244-.471-.468-.952-.676-1.438a31.17,31.17,0,0,0,3.6-.431q.941-.169,1.87-.4c.122-.03.281-.139.272-.282Z" transform="translate(-311.677 -991.328)" fill="#4f6db2"/>
        <path id="Trazado_898859" data-name="Trazado 898859" d="M490.3,1358.454c-.147-.005-.294-.015-.441-.031a5.054,5.054,0,0,0,1.024,2.078,2.025,2.025,0,0,0,.684.537,1.077,1.077,0,0,0,.852.03,1.586,1.586,0,0,0,.738-.985,9.973,9.973,0,0,0,.517-2.245q-.175.081-.356.15a7.757,7.757,0,0,1-3.02.465" transform="translate(-476.478 -1320.75)" fill="#48160d"/>
        <path id="Trazado_898860" data-name="Trazado 898860" d="M216.8,340.043a40.769,40.769,0,0,1-.066,7.593q.282,0,.548-.012a42.484,42.484,0,0,0,.159-5.882,33.509,33.509,0,0,0-.455-4.238l.037-.007c.371-.08.738-.177,1.1-.288-.136.994-.209,2-.249,3-.1,2.466-.014,4.947-.276,7.4q.287-.016.553-.041c.152-1.561.175-3.137.2-4.7a42,42,0,0,1,.36-5.847,11.442,11.442,0,0,0,4.542-2.892,8.465,8.465,0,0,0,1.807-2.784,2.784,2.784,0,0,0,.163-1.554,1.651,1.651,0,0,0-1.011-1.163,2.1,2.1,0,0,0-1.618.064,4.287,4.287,0,0,0-1.371,1.088,10.923,10.923,0,0,0-1.885,2.936,15.755,15.755,0,0,0-1.125,3.9q-.652.218-1.323.37a24.625,24.625,0,0,0-.789-3.042,7.286,7.286,0,0,0-1-2.047,4.166,4.166,0,0,0-.939-.933,2.962,2.962,0,0,0-3.182-.3,4.157,4.157,0,0,0-1.91,2.674,3.327,3.327,0,0,0,.868,3.163,5.044,5.044,0,0,0,3.241,1.331,10.832,10.832,0,0,0,1.221.015,14.668,14.668,0,0,0,2.087-.243q.208,1.212.318,2.438m3.482-7.92a10.627,10.627,0,0,1,.909-1.388,7.06,7.06,0,0,1,1.133-1.2,2.154,2.154,0,0,1,1.405-.552.973.973,0,0,1,.944.653,2.223,2.223,0,0,1-.114,1.389,6.672,6.672,0,0,1-.708,1.379,10.5,10.5,0,0,1-5.035,4c.074-.392.159-.783.26-1.171a13.472,13.472,0,0,1,1.206-3.1m-5.035,5.144c-.275.032-.555.059-.836.078a7.121,7.121,0,0,1-2.806-.28,3.058,3.058,0,0,1-2-1.943,3.651,3.651,0,0,1,.71-3.081,2.655,2.655,0,0,1,2.566-1.2,3.262,3.262,0,0,1,2.091,1.652q.1.176.195.359a9.939,9.939,0,0,1,.593,1.6q.271.919.476,1.856c.057.258.109.517.158.776-.379.073-.76.132-1.142.177" transform="translate(-203.266 -319.52)" fill="#48160d"/>
        <path id="Trazado_898861" data-name="Trazado 898861" d="M373.588,1105.125a30.3,30.3,0,0,1-5.632.826c-.319.017-.639.03-.959.036q-.941.019-1.883-.021a.38.38,0,0,0-.263.114.349.349,0,0,0-.033.037.246.246,0,0,0-.042.085c-.037.146.092.205.213.21a30.718,30.718,0,0,0,3.145-.034,31.171,31.171,0,0,0,3.6-.431q.941-.169,1.87-.4c.122-.03.281-.139.272-.282l0-.017a.156.156,0,0,0-.123-.124.343.343,0,0,0-.167,0" transform="translate(-354.807 -1074.929)" fill="#48160d"/>
        <path id="Trazado_898862" data-name="Trazado 898862" d="M400.622,1209.65a21.006,21.006,0,0,1-5.561,1.042q-.812.041-1.625.018c-.092,0-.1.1-.064.209a.646.646,0,0,0,.044.1c.06.114.155.216.244.219a21.19,21.19,0,0,0,3.81-.245c.633-.1,1.261-.223,1.883-.379q.795-.2,1.573-.459c.074-.024.069-.13.024-.238a.528.528,0,0,0-.2-.253.155.155,0,0,0-.124-.017" transform="translate(-382.607 -1176.601)" fill="#48160d"/>
      </g>
    </g>
    <g id="Grupo_1108494" data-name="Grupo 1108494" transform="translate(544.25 2878.497) rotate(90)">
      <g id="Grupo_1108492-2" data-name="Grupo 1108492" transform="translate(0 0.002)" clip-path="url(#clip-path)">
        <path id="Trazado_898849-2" data-name="Trazado 898849" d="M27.55,7.462C26.336,3.821,23.116,1.306,19.135.388h0L19.077.374q-.206-.047-.414-.088L18.6.274q-.234-.045-.47-.082l-.066-.01c-.159-.025-.32-.047-.481-.067h-.007c-.162-.02-.326-.036-.49-.051L17,.056q-.243-.02-.488-.033l-.047,0Q16.234.009,16,.005h-.061q-.245,0-.491,0l-.089,0c-.168,0-.336.009-.5.018h0c-.167.009-.335.021-.5.035l-.09.007q-.247.022-.495.051l-.084.011q-.238.029-.476.065L13.156.2c-.167.026-.334.055-.5.086l-.1.02c-.166.032-.333.066-.5.1l-.061.014q-.233.053-.466.113l-.088.022q-.247.065-.494.137l-.1.031c-.17.051-.339.1-.508.16C2.861,3.375-1.541,10.356.5,16.477a15.8,15.8,0,0,0,5.038,7.11h0a16.859,16.859,0,0,1,3.826,4.482A1.7,1.7,0,0,0,8.78,29.64a2.306,2.306,0,0,0,.815,1.231,2.37,2.37,0,0,0,.45.281.344.344,0,0,0-.033.037,1.345,1.345,0,0,0-.7,1.058,2.174,2.174,0,0,0,1.05,1.895,1.79,1.79,0,0,0,.405.177.646.646,0,0,0,.044.1,1.575,1.575,0,0,0-.18.625,2.111,2.111,0,0,0,.428,1.325,2.9,2.9,0,0,0,1.131.986,3.647,3.647,0,0,0,1.192.316A5.053,5.053,0,0,0,14.4,39.754a2.025,2.025,0,0,0,.684.538,1.077,1.077,0,0,0,.852.03,1.586,1.586,0,0,0,.738-.985,9.971,9.971,0,0,0,.517-2.245,5.221,5.221,0,0,0,.982-.584,2.979,2.979,0,0,0,1-1.162,1.554,1.554,0,0,0-.379-1.67,1.65,1.65,0,0,0-.458-.355.528.528,0,0,0-.2-.253,5.193,5.193,0,0,0,.456-.349,4.311,4.311,0,0,0,.889-1,.84.84,0,0,0,.134-.625,1.458,1.458,0,0,0-.346-.594,1,1,0,0,0-.2-.172.156.156,0,0,0-.123-.124,2.64,2.64,0,0,0,.411-.459,1.935,1.935,0,0,0,.416-1.339,1.364,1.364,0,0,0-.861-1.167,10.442,10.442,0,0,1,2.5-4.261c2.82-2.73,5.3-5.2,6.341-10.009a10.989,10.989,0,0,0-.207-5.5" transform="translate(0 -0.002)" fill="#ffc53a"/>
        <path id="Trazado_898850-2" data-name="Trazado 898850" d="M330.95,996.187a1,1,0,0,0-.2-.172.156.156,0,0,0-.123-.124,2.639,2.639,0,0,0,.411-.459,1.935,1.935,0,0,0,.416-1.339,1.364,1.364,0,0,0-.861-1.167,1.873,1.873,0,0,0-.45-.114,8.7,8.7,0,0,1-3.244.9c-.108.013-.219.024-.332.034q-.266.025-.553.041c-.1.006-.208.011-.316.015q-.266.01-.548.012c-.119,0-.239,0-.362,0-.3,0-.615-.016-.941-.036s-.638-.047-.975-.083l-.086-.01q-.2-.022-.4-.049l-.126-.016c-.165-.022-.333-.046-.5-.073a.917.917,0,0,0-.717.219,1.7,1.7,0,0,0-.581,1.571,2.306,2.306,0,0,0,.815,1.231,2.366,2.366,0,0,0,.45.281.329.329,0,0,0-.033.037,1.345,1.345,0,0,0-.7,1.058,2.174,2.174,0,0,0,1.05,1.895,1.789,1.789,0,0,0,.405.177.649.649,0,0,0,.044.1,1.575,1.575,0,0,0-.18.625,2.111,2.111,0,0,0,.428,1.325,2.9,2.9,0,0,0,1.131.986,3.648,3.648,0,0,0,1.192.316,5.053,5.053,0,0,0,1.024,2.078,2.025,2.025,0,0,0,.684.538,1.077,1.077,0,0,0,.852.03,1.586,1.586,0,0,0,.738-.985,9.975,9.975,0,0,0,.517-2.245,5.228,5.228,0,0,0,.982-.584,2.978,2.978,0,0,0,1-1.162,1.554,1.554,0,0,0-.379-1.67,1.65,1.65,0,0,0-.458-.355.527.527,0,0,0-.2-.253,5.21,5.21,0,0,0,.456-.349,4.312,4.312,0,0,0,.889-1,.84.84,0,0,0,.134-.625,1.459,1.459,0,0,0-.346-.594" transform="translate(-311.678 -965.693)" fill="#7187c3"/>
        <path id="Trazado_898851-2" data-name="Trazado 898851" d="M24.368,8.522c-1.006-3.02-4.2-5.011-8.2-5.157l0,0,0,0h.006A20.825,20.825,0,0,1,18.717.737c.138-.119.279-.234.42-.35-.157-.036-.315-.069-.474-.1L18.6.274q-.234-.045-.471-.082l-.066-.01c-.159-.025-.32-.047-.481-.067h-.007c-.162-.02-.326-.036-.49-.051L17,.056q-.243-.02-.488-.033l-.047,0Q16.234.01,16,.005h-.061q-.245,0-.491,0l-.089,0c-.168,0-.336.009-.5.018h0c-.167.009-.335.021-.5.035l-.09.007q-.247.022-.495.051l-.084.011q-.238.029-.476.065L13.157.2c-.167.026-.334.055-.5.086l-.1.02c-.166.032-.333.066-.5.1l-.061.014q-.233.053-.466.113l-.088.022Q11.19.623,10.943.7l-.1.031c-.17.051-.339.1-.508.16C2.861,3.376-1.541,10.356.5,16.477a15.8,15.8,0,0,0,5.038,7.11h0a16.859,16.859,0,0,1,3.826,4.482.917.917,0,0,1,.717-.219c.171.027.338.051.5.073l.126.016q.2.026.4.049l.086.01q.505.054.975.083c.326.02.64.032.941.036.123,0,.243,0,.362,0q.282,0,.548-.012c.107,0,.212-.009.316-.015q.287-.016.553-.041c.113-.011.224-.022.332-.034a14.919,14.919,0,0,1,3.861-7.452c2.81-2.72,4.576-4.579,5.388-8.271a7.665,7.665,0,0,0-.1-3.77" transform="translate(0 -0.002)" fill="#fca01f"/>
        <path id="Trazado_898852-2" data-name="Trazado 898852" d="M722.549,76.537a.275.275,0,0,0,.172.327c.1.049.312.067.362-.071a9.375,9.375,0,0,0-3.431-10.9,9.622,9.622,0,0,0-2.938-1.4c-.12-.034-.289.013-.3.156s.137.261.263.3a8.827,8.827,0,0,1,6.405,8.254,9.041,9.041,0,0,1-.53,3.345" transform="translate(-696.841 -62.713)" fill="#fff"/>
        <path id="Trazado_898853-2" data-name="Trazado 898853" d="M663.418,1030.092a.282.282,0,0,0-.27.277l.062.873a.278.278,0,0,0,.32.218.282.282,0,0,0,.27-.277l-.062-.873a.279.279,0,0,0-.32-.218" transform="translate(-645.034 -1001.952)" fill="#fff"/>
        <path id="Trazado_898854-2" data-name="Trazado 898854" d="M619.516,1271.009a1.9,1.9,0,0,0-.206.04c-.018.005-.077.013-.083.034a2.04,2.04,0,0,1-.729,1.065c-.025.019.025.018.033.018a1.088,1.088,0,0,0,.177-.013c.075-.01.151-.021.225-.037a.367.367,0,0,0,.132-.038,2.08,2.08,0,0,0,.748-1.084,1.664,1.664,0,0,0-.3.015" transform="translate(-601.597 -1236.272)" fill="#fff"/>
        <path id="Trazado_898855-2" data-name="Trazado 898855" d="M636.69,1146.36a1.9,1.9,0,0,0-.206.04c-.018.005-.077.013-.083.034a2.04,2.04,0,0,1-.729,1.065c-.025.019.025.018.033.018a1.076,1.076,0,0,0,.177-.013c.075-.01.151-.021.225-.037a.368.368,0,0,0,.132-.038,2.081,2.081,0,0,0,.748-1.084,1.675,1.675,0,0,0-.3.015" transform="translate(-618.302 -1115.028)" fill="#fff"/>
        <path id="Trazado_898856-2" data-name="Trazado 898856" d="M143.863,127.951c-1.006-3.02-4.2-5.011-8.2-5.157l0,0,0,0c-.155-.006-.311-.009-.468-.009a13.6,13.6,0,0,0-4.3.713,12.528,12.528,0,0,0-6.705,5.04,7.376,7.376,0,0,0-1,6.307,12.425,12.425,0,0,0,3.957,5.557l.014.011a20.091,20.091,0,0,1,3.914,4.275c.155.951.354,1.893.6,2.822.326.02.64.032.941.036.123,0,.243,0,.362,0q.282,0,.548-.012c.107,0,.212-.009.316-.015q.287-.016.553-.041c.113-.011.224-.022.332-.034a14.919,14.919,0,0,1,3.861-7.452c2.81-2.72,4.576-4.579,5.388-8.271a7.665,7.665,0,0,0-.1-3.77" transform="translate(-119.496 -119.431)" fill="#ffd87f"/>
        <path id="Trazado_898857-2" data-name="Trazado 898857" d="M141.455,129.7a1.651,1.651,0,0,0-1.011-1.163,2.1,2.1,0,0,0-1.618.064,4.287,4.287,0,0,0-1.37,1.088,10.924,10.924,0,0,0-1.885,2.936,15.754,15.754,0,0,0-1.125,3.9q-.652.218-1.323.37a24.625,24.625,0,0,0-.789-3.042,7.286,7.286,0,0,0-1-2.047,22.984,22.984,0,0,1,.876-2.963,21.489,21.489,0,0,1,3.456-6.047l0,0c-.155-.006-.311-.009-.468-.009a13.6,13.6,0,0,0-4.3.713,12.528,12.528,0,0,0-6.705,5.04,7.376,7.376,0,0,0-1,6.307,12.425,12.425,0,0,0,3.957,5.557l.014.011a20.091,20.091,0,0,1,3.914,4.275q.232,1.426.6,2.822c.326.02.64.032.941.036a15.8,15.8,0,0,0-1.543-2.859,34.857,34.857,0,0,1-.423-4.41q-.043-1.256-.011-2.519a14.665,14.665,0,0,0,2.087-.243q.208,1.212.318,2.438a40.767,40.767,0,0,1-.066,7.593q.282,0,.548-.012a42.482,42.482,0,0,0,.159-5.882,33.515,33.515,0,0,0-.455-4.238l.037-.008c.371-.08.738-.177,1.1-.288-.136.994-.209,2-.249,3-.1,2.466-.014,4.947-.276,7.4q.287-.016.553-.041c.152-1.561.175-3.137.2-4.7a42,42,0,0,1,.36-5.847,11.442,11.442,0,0,0,4.542-2.892,8.464,8.464,0,0,0,1.807-2.784,2.783,2.783,0,0,0,.163-1.554m-9.975,7.479c-.275.032-.555.059-.836.078a30.623,30.623,0,0,1,.556-4.849q.1.176.195.359a9.944,9.944,0,0,1,.593,1.6q.271.919.476,1.856c.057.258.109.517.158.776-.379.073-.76.132-1.142.177m9.313-6.246a6.673,6.673,0,0,1-.708,1.379,10.5,10.5,0,0,1-5.035,4c.074-.392.159-.783.26-1.171a13.474,13.474,0,0,1,1.206-3.1,10.632,10.632,0,0,1,.909-1.388,7.06,7.06,0,0,1,1.133-1.2,2.154,2.154,0,0,1,1.405-.552.973.973,0,0,1,.944.653,2.223,2.223,0,0,1-.114,1.389" transform="translate(-119.495 -119.431)" fill="#ffc53a"/>
        <path id="Trazado_898858-2" data-name="Trazado 898858" d="M330.748,1021.65a.156.156,0,0,0-.123-.124.342.342,0,0,0-.167,0,30.311,30.311,0,0,1-5.632.826,25.1,25.1,0,0,1-.981-2.942q-.469-.029-.975-.083l-.086-.01q-.2-.022-.4-.049l-.126-.016c-.165-.022-.333-.046-.5-.073a.917.917,0,0,0-.717.219,1.7,1.7,0,0,0-.581,1.571,2.306,2.306,0,0,0,.815,1.231,2.37,2.37,0,0,0,.45.281.329.329,0,0,0-.033.037,1.345,1.345,0,0,0-.7,1.057,2.174,2.174,0,0,0,1.05,1.895,1.794,1.794,0,0,0,.405.177.651.651,0,0,0,.044.1,1.575,1.575,0,0,0-.18.625,2.111,2.111,0,0,0,.428,1.325,2.9,2.9,0,0,0,1.131.986,3.645,3.645,0,0,0,1.192.316,5.053,5.053,0,0,0,1.025,2.078,2.023,2.023,0,0,0,.684.538,1.077,1.077,0,0,0,.852.03,1.586,1.586,0,0,0,.738-.985,9.976,9.976,0,0,0,.517-2.246c-.074.034-.149.063-.224.094a17.959,17.959,0,0,1-2.11-2.79c.633-.1,1.261-.223,1.883-.379q.795-.2,1.573-.459c.074-.024.069-.129.024-.238a.528.528,0,0,0-.2-.253.155.155,0,0,0-.124-.017,20.894,20.894,0,0,1-3.462.83c-.2-.335-.379-.667-.547-.992-.244-.471-.468-.952-.676-1.438a31.17,31.17,0,0,0,3.6-.431q.941-.169,1.87-.4c.122-.03.281-.139.272-.282Z" transform="translate(-311.677 -991.328)" fill="#4f6db2"/>
        <path id="Trazado_898859-2" data-name="Trazado 898859" d="M490.3,1358.454c-.147-.005-.294-.015-.441-.031a5.054,5.054,0,0,0,1.024,2.078,2.025,2.025,0,0,0,.684.537,1.077,1.077,0,0,0,.852.03,1.586,1.586,0,0,0,.738-.985,9.973,9.973,0,0,0,.517-2.245q-.175.081-.356.15a7.757,7.757,0,0,1-3.02.465" transform="translate(-476.478 -1320.75)" fill="#48160d"/>
        <path id="Trazado_898860-2" data-name="Trazado 898860" d="M216.8,340.043a40.769,40.769,0,0,1-.066,7.593q.282,0,.548-.012a42.484,42.484,0,0,0,.159-5.882,33.509,33.509,0,0,0-.455-4.238l.037-.007c.371-.08.738-.177,1.1-.288-.136.994-.209,2-.249,3-.1,2.466-.014,4.947-.276,7.4q.287-.016.553-.041c.152-1.561.175-3.137.2-4.7a42,42,0,0,1,.36-5.847,11.442,11.442,0,0,0,4.542-2.892,8.465,8.465,0,0,0,1.807-2.784,2.784,2.784,0,0,0,.163-1.554,1.651,1.651,0,0,0-1.011-1.163,2.1,2.1,0,0,0-1.618.064,4.287,4.287,0,0,0-1.371,1.088,10.923,10.923,0,0,0-1.885,2.936,15.755,15.755,0,0,0-1.125,3.9q-.652.218-1.323.37a24.625,24.625,0,0,0-.789-3.042,7.286,7.286,0,0,0-1-2.047,4.166,4.166,0,0,0-.939-.933,2.962,2.962,0,0,0-3.182-.3,4.157,4.157,0,0,0-1.91,2.674,3.327,3.327,0,0,0,.868,3.163,5.044,5.044,0,0,0,3.241,1.331,10.832,10.832,0,0,0,1.221.015,14.668,14.668,0,0,0,2.087-.243q.208,1.212.318,2.438m3.482-7.92a10.627,10.627,0,0,1,.909-1.388,7.06,7.06,0,0,1,1.133-1.2,2.154,2.154,0,0,1,1.405-.552.973.973,0,0,1,.944.653,2.223,2.223,0,0,1-.114,1.389,6.672,6.672,0,0,1-.708,1.379,10.5,10.5,0,0,1-5.035,4c.074-.392.159-.783.26-1.171a13.472,13.472,0,0,1,1.206-3.1m-5.035,5.144c-.275.032-.555.059-.836.078a7.121,7.121,0,0,1-2.806-.28,3.058,3.058,0,0,1-2-1.943,3.651,3.651,0,0,1,.71-3.081,2.655,2.655,0,0,1,2.566-1.2,3.262,3.262,0,0,1,2.091,1.652q.1.176.195.359a9.939,9.939,0,0,1,.593,1.6q.271.919.476,1.856c.057.258.109.517.158.776-.379.073-.76.132-1.142.177" transform="translate(-203.266 -319.52)" fill="#48160d"/>
        <path id="Trazado_898861-2" data-name="Trazado 898861" d="M373.588,1105.125a30.3,30.3,0,0,1-5.632.826c-.319.017-.639.03-.959.036q-.941.019-1.883-.021a.38.38,0,0,0-.263.114.349.349,0,0,0-.033.037.246.246,0,0,0-.042.085c-.037.146.092.205.213.21a30.718,30.718,0,0,0,3.145-.034,31.171,31.171,0,0,0,3.6-.431q.941-.169,1.87-.4c.122-.03.281-.139.272-.282l0-.017a.156.156,0,0,0-.123-.124.343.343,0,0,0-.167,0" transform="translate(-354.807 -1074.929)" fill="#48160d"/>
        <path id="Trazado_898862-2" data-name="Trazado 898862" d="M400.622,1209.65a21.006,21.006,0,0,1-5.561,1.042q-.812.041-1.625.018c-.092,0-.1.1-.064.209a.646.646,0,0,0,.044.1c.06.114.155.216.244.219a21.19,21.19,0,0,0,3.81-.245c.633-.1,1.261-.223,1.883-.379q.795-.2,1.573-.459c.074-.024.069-.13.024-.238a.528.528,0,0,0-.2-.253.155.155,0,0,0-.124-.017" transform="translate(-382.607 -1176.601)" fill="#48160d"/>
      </g>
    </g>
    <g id="Grupo_1108495" data-name="Grupo 1108495" transform="translate(308.051 2921.164)">
      <g id="Grupo_1108492-3" data-name="Grupo 1108492" transform="translate(0 0.002)" clip-path="url(#clip-path)">
        <path id="Trazado_898849-3" data-name="Trazado 898849" d="M27.55,7.462C26.336,3.821,23.116,1.306,19.135.388h0L19.077.374q-.206-.047-.414-.088L18.6.274q-.234-.045-.47-.082l-.066-.01c-.159-.025-.32-.047-.481-.067h-.007c-.162-.02-.326-.036-.49-.051L17,.056q-.243-.02-.488-.033l-.047,0Q16.234.009,16,.005h-.061q-.245,0-.491,0l-.089,0c-.168,0-.336.009-.5.018h0c-.167.009-.335.021-.5.035l-.09.007q-.247.022-.495.051l-.084.011q-.238.029-.476.065L13.156.2c-.167.026-.334.055-.5.086l-.1.02c-.166.032-.333.066-.5.1l-.061.014q-.233.053-.466.113l-.088.022q-.247.065-.494.137l-.1.031c-.17.051-.339.1-.508.16C2.861,3.375-1.541,10.356.5,16.477a15.8,15.8,0,0,0,5.038,7.11h0a16.859,16.859,0,0,1,3.826,4.482A1.7,1.7,0,0,0,8.78,29.64a2.306,2.306,0,0,0,.815,1.231,2.37,2.37,0,0,0,.45.281.344.344,0,0,0-.033.037,1.345,1.345,0,0,0-.7,1.058,2.174,2.174,0,0,0,1.05,1.895,1.79,1.79,0,0,0,.405.177.646.646,0,0,0,.044.1,1.575,1.575,0,0,0-.18.625,2.111,2.111,0,0,0,.428,1.325,2.9,2.9,0,0,0,1.131.986,3.647,3.647,0,0,0,1.192.316A5.053,5.053,0,0,0,14.4,39.754a2.025,2.025,0,0,0,.684.538,1.077,1.077,0,0,0,.852.03,1.586,1.586,0,0,0,.738-.985,9.971,9.971,0,0,0,.517-2.245,5.221,5.221,0,0,0,.982-.584,2.979,2.979,0,0,0,1-1.162,1.554,1.554,0,0,0-.379-1.67,1.65,1.65,0,0,0-.458-.355.528.528,0,0,0-.2-.253,5.193,5.193,0,0,0,.456-.349,4.311,4.311,0,0,0,.889-1,.84.84,0,0,0,.134-.625,1.458,1.458,0,0,0-.346-.594,1,1,0,0,0-.2-.172.156.156,0,0,0-.123-.124,2.64,2.64,0,0,0,.411-.459,1.935,1.935,0,0,0,.416-1.339,1.364,1.364,0,0,0-.861-1.167,10.442,10.442,0,0,1,2.5-4.261c2.82-2.73,5.3-5.2,6.341-10.009a10.989,10.989,0,0,0-.207-5.5" transform="translate(0 -0.002)" fill="#ffc53a"/>
        <path id="Trazado_898850-3" data-name="Trazado 898850" d="M330.95,996.187a1,1,0,0,0-.2-.172.156.156,0,0,0-.123-.124,2.639,2.639,0,0,0,.411-.459,1.935,1.935,0,0,0,.416-1.339,1.364,1.364,0,0,0-.861-1.167,1.873,1.873,0,0,0-.45-.114,8.7,8.7,0,0,1-3.244.9c-.108.013-.219.024-.332.034q-.266.025-.553.041c-.1.006-.208.011-.316.015q-.266.01-.548.012c-.119,0-.239,0-.362,0-.3,0-.615-.016-.941-.036s-.638-.047-.975-.083l-.086-.01q-.2-.022-.4-.049l-.126-.016c-.165-.022-.333-.046-.5-.073a.917.917,0,0,0-.717.219,1.7,1.7,0,0,0-.581,1.571,2.306,2.306,0,0,0,.815,1.231,2.366,2.366,0,0,0,.45.281.329.329,0,0,0-.033.037,1.345,1.345,0,0,0-.7,1.058,2.174,2.174,0,0,0,1.05,1.895,1.789,1.789,0,0,0,.405.177.649.649,0,0,0,.044.1,1.575,1.575,0,0,0-.18.625,2.111,2.111,0,0,0,.428,1.325,2.9,2.9,0,0,0,1.131.986,3.648,3.648,0,0,0,1.192.316,5.053,5.053,0,0,0,1.024,2.078,2.025,2.025,0,0,0,.684.538,1.077,1.077,0,0,0,.852.03,1.586,1.586,0,0,0,.738-.985,9.975,9.975,0,0,0,.517-2.245,5.228,5.228,0,0,0,.982-.584,2.978,2.978,0,0,0,1-1.162,1.554,1.554,0,0,0-.379-1.67,1.65,1.65,0,0,0-.458-.355.527.527,0,0,0-.2-.253,5.21,5.21,0,0,0,.456-.349,4.312,4.312,0,0,0,.889-1,.84.84,0,0,0,.134-.625,1.459,1.459,0,0,0-.346-.594" transform="translate(-311.678 -965.693)" fill="#7187c3"/>
        <path id="Trazado_898851-3" data-name="Trazado 898851" d="M24.368,8.522c-1.006-3.02-4.2-5.011-8.2-5.157l0,0,0,0h.006A20.825,20.825,0,0,1,18.717.737c.138-.119.279-.234.42-.35-.157-.036-.315-.069-.474-.1L18.6.274q-.234-.045-.471-.082l-.066-.01c-.159-.025-.32-.047-.481-.067h-.007c-.162-.02-.326-.036-.49-.051L17,.056q-.243-.02-.488-.033l-.047,0Q16.234.01,16,.005h-.061q-.245,0-.491,0l-.089,0c-.168,0-.336.009-.5.018h0c-.167.009-.335.021-.5.035l-.09.007q-.247.022-.495.051l-.084.011q-.238.029-.476.065L13.157.2c-.167.026-.334.055-.5.086l-.1.02c-.166.032-.333.066-.5.1l-.061.014q-.233.053-.466.113l-.088.022Q11.19.623,10.943.7l-.1.031c-.17.051-.339.1-.508.16C2.861,3.376-1.541,10.356.5,16.477a15.8,15.8,0,0,0,5.038,7.11h0a16.859,16.859,0,0,1,3.826,4.482.917.917,0,0,1,.717-.219c.171.027.338.051.5.073l.126.016q.2.026.4.049l.086.01q.505.054.975.083c.326.02.64.032.941.036.123,0,.243,0,.362,0q.282,0,.548-.012c.107,0,.212-.009.316-.015q.287-.016.553-.041c.113-.011.224-.022.332-.034a14.919,14.919,0,0,1,3.861-7.452c2.81-2.72,4.576-4.579,5.388-8.271a7.665,7.665,0,0,0-.1-3.77" transform="translate(0 -0.002)" fill="#fca01f"/>
        <path id="Trazado_898852-3" data-name="Trazado 898852" d="M722.549,76.537a.275.275,0,0,0,.172.327c.1.049.312.067.362-.071a9.375,9.375,0,0,0-3.431-10.9,9.622,9.622,0,0,0-2.938-1.4c-.12-.034-.289.013-.3.156s.137.261.263.3a8.827,8.827,0,0,1,6.405,8.254,9.041,9.041,0,0,1-.53,3.345" transform="translate(-696.841 -62.713)" fill="#fff"/>
        <path id="Trazado_898853-3" data-name="Trazado 898853" d="M663.418,1030.092a.282.282,0,0,0-.27.277l.062.873a.278.278,0,0,0,.32.218.282.282,0,0,0,.27-.277l-.062-.873a.279.279,0,0,0-.32-.218" transform="translate(-645.034 -1001.952)" fill="#fff"/>
        <path id="Trazado_898854-3" data-name="Trazado 898854" d="M619.516,1271.009a1.9,1.9,0,0,0-.206.04c-.018.005-.077.013-.083.034a2.04,2.04,0,0,1-.729,1.065c-.025.019.025.018.033.018a1.088,1.088,0,0,0,.177-.013c.075-.01.151-.021.225-.037a.367.367,0,0,0,.132-.038,2.08,2.08,0,0,0,.748-1.084,1.664,1.664,0,0,0-.3.015" transform="translate(-601.597 -1236.272)" fill="#fff"/>
        <path id="Trazado_898855-3" data-name="Trazado 898855" d="M636.69,1146.36a1.9,1.9,0,0,0-.206.04c-.018.005-.077.013-.083.034a2.04,2.04,0,0,1-.729,1.065c-.025.019.025.018.033.018a1.076,1.076,0,0,0,.177-.013c.075-.01.151-.021.225-.037a.368.368,0,0,0,.132-.038,2.081,2.081,0,0,0,.748-1.084,1.675,1.675,0,0,0-.3.015" transform="translate(-618.302 -1115.028)" fill="#fff"/>
        <path id="Trazado_898856-3" data-name="Trazado 898856" d="M143.863,127.951c-1.006-3.02-4.2-5.011-8.2-5.157l0,0,0,0c-.155-.006-.311-.009-.468-.009a13.6,13.6,0,0,0-4.3.713,12.528,12.528,0,0,0-6.705,5.04,7.376,7.376,0,0,0-1,6.307,12.425,12.425,0,0,0,3.957,5.557l.014.011a20.091,20.091,0,0,1,3.914,4.275c.155.951.354,1.893.6,2.822.326.02.64.032.941.036.123,0,.243,0,.362,0q.282,0,.548-.012c.107,0,.212-.009.316-.015q.287-.016.553-.041c.113-.011.224-.022.332-.034a14.919,14.919,0,0,1,3.861-7.452c2.81-2.72,4.576-4.579,5.388-8.271a7.665,7.665,0,0,0-.1-3.77" transform="translate(-119.496 -119.431)" fill="#ffd87f"/>
        <path id="Trazado_898857-3" data-name="Trazado 898857" d="M141.455,129.7a1.651,1.651,0,0,0-1.011-1.163,2.1,2.1,0,0,0-1.618.064,4.287,4.287,0,0,0-1.37,1.088,10.924,10.924,0,0,0-1.885,2.936,15.754,15.754,0,0,0-1.125,3.9q-.652.218-1.323.37a24.625,24.625,0,0,0-.789-3.042,7.286,7.286,0,0,0-1-2.047,22.984,22.984,0,0,1,.876-2.963,21.489,21.489,0,0,1,3.456-6.047l0,0c-.155-.006-.311-.009-.468-.009a13.6,13.6,0,0,0-4.3.713,12.528,12.528,0,0,0-6.705,5.04,7.376,7.376,0,0,0-1,6.307,12.425,12.425,0,0,0,3.957,5.557l.014.011a20.091,20.091,0,0,1,3.914,4.275q.232,1.426.6,2.822c.326.02.64.032.941.036a15.8,15.8,0,0,0-1.543-2.859,34.857,34.857,0,0,1-.423-4.41q-.043-1.256-.011-2.519a14.665,14.665,0,0,0,2.087-.243q.208,1.212.318,2.438a40.767,40.767,0,0,1-.066,7.593q.282,0,.548-.012a42.482,42.482,0,0,0,.159-5.882,33.515,33.515,0,0,0-.455-4.238l.037-.008c.371-.08.738-.177,1.1-.288-.136.994-.209,2-.249,3-.1,2.466-.014,4.947-.276,7.4q.287-.016.553-.041c.152-1.561.175-3.137.2-4.7a42,42,0,0,1,.36-5.847,11.442,11.442,0,0,0,4.542-2.892,8.464,8.464,0,0,0,1.807-2.784,2.783,2.783,0,0,0,.163-1.554m-9.975,7.479c-.275.032-.555.059-.836.078a30.623,30.623,0,0,1,.556-4.849q.1.176.195.359a9.944,9.944,0,0,1,.593,1.6q.271.919.476,1.856c.057.258.109.517.158.776-.379.073-.76.132-1.142.177m9.313-6.246a6.673,6.673,0,0,1-.708,1.379,10.5,10.5,0,0,1-5.035,4c.074-.392.159-.783.26-1.171a13.474,13.474,0,0,1,1.206-3.1,10.632,10.632,0,0,1,.909-1.388,7.06,7.06,0,0,1,1.133-1.2,2.154,2.154,0,0,1,1.405-.552.973.973,0,0,1,.944.653,2.223,2.223,0,0,1-.114,1.389" transform="translate(-119.495 -119.431)" fill="#ffc53a"/>
        <path id="Trazado_898858-3" data-name="Trazado 898858" d="M330.748,1021.65a.156.156,0,0,0-.123-.124.342.342,0,0,0-.167,0,30.311,30.311,0,0,1-5.632.826,25.1,25.1,0,0,1-.981-2.942q-.469-.029-.975-.083l-.086-.01q-.2-.022-.4-.049l-.126-.016c-.165-.022-.333-.046-.5-.073a.917.917,0,0,0-.717.219,1.7,1.7,0,0,0-.581,1.571,2.306,2.306,0,0,0,.815,1.231,2.37,2.37,0,0,0,.45.281.329.329,0,0,0-.033.037,1.345,1.345,0,0,0-.7,1.057,2.174,2.174,0,0,0,1.05,1.895,1.794,1.794,0,0,0,.405.177.651.651,0,0,0,.044.1,1.575,1.575,0,0,0-.18.625,2.111,2.111,0,0,0,.428,1.325,2.9,2.9,0,0,0,1.131.986,3.645,3.645,0,0,0,1.192.316,5.053,5.053,0,0,0,1.025,2.078,2.023,2.023,0,0,0,.684.538,1.077,1.077,0,0,0,.852.03,1.586,1.586,0,0,0,.738-.985,9.976,9.976,0,0,0,.517-2.246c-.074.034-.149.063-.224.094a17.959,17.959,0,0,1-2.11-2.79c.633-.1,1.261-.223,1.883-.379q.795-.2,1.573-.459c.074-.024.069-.129.024-.238a.528.528,0,0,0-.2-.253.155.155,0,0,0-.124-.017,20.894,20.894,0,0,1-3.462.83c-.2-.335-.379-.667-.547-.992-.244-.471-.468-.952-.676-1.438a31.17,31.17,0,0,0,3.6-.431q.941-.169,1.87-.4c.122-.03.281-.139.272-.282Z" transform="translate(-311.677 -991.328)" fill="#4f6db2"/>
        <path id="Trazado_898859-3" data-name="Trazado 898859" d="M490.3,1358.454c-.147-.005-.294-.015-.441-.031a5.054,5.054,0,0,0,1.024,2.078,2.025,2.025,0,0,0,.684.537,1.077,1.077,0,0,0,.852.03,1.586,1.586,0,0,0,.738-.985,9.973,9.973,0,0,0,.517-2.245q-.175.081-.356.15a7.757,7.757,0,0,1-3.02.465" transform="translate(-476.478 -1320.75)" fill="#48160d"/>
        <path id="Trazado_898860-3" data-name="Trazado 898860" d="M216.8,340.043a40.769,40.769,0,0,1-.066,7.593q.282,0,.548-.012a42.484,42.484,0,0,0,.159-5.882,33.509,33.509,0,0,0-.455-4.238l.037-.007c.371-.08.738-.177,1.1-.288-.136.994-.209,2-.249,3-.1,2.466-.014,4.947-.276,7.4q.287-.016.553-.041c.152-1.561.175-3.137.2-4.7a42,42,0,0,1,.36-5.847,11.442,11.442,0,0,0,4.542-2.892,8.465,8.465,0,0,0,1.807-2.784,2.784,2.784,0,0,0,.163-1.554,1.651,1.651,0,0,0-1.011-1.163,2.1,2.1,0,0,0-1.618.064,4.287,4.287,0,0,0-1.371,1.088,10.923,10.923,0,0,0-1.885,2.936,15.755,15.755,0,0,0-1.125,3.9q-.652.218-1.323.37a24.625,24.625,0,0,0-.789-3.042,7.286,7.286,0,0,0-1-2.047,4.166,4.166,0,0,0-.939-.933,2.962,2.962,0,0,0-3.182-.3,4.157,4.157,0,0,0-1.91,2.674,3.327,3.327,0,0,0,.868,3.163,5.044,5.044,0,0,0,3.241,1.331,10.832,10.832,0,0,0,1.221.015,14.668,14.668,0,0,0,2.087-.243q.208,1.212.318,2.438m3.482-7.92a10.627,10.627,0,0,1,.909-1.388,7.06,7.06,0,0,1,1.133-1.2,2.154,2.154,0,0,1,1.405-.552.973.973,0,0,1,.944.653,2.223,2.223,0,0,1-.114,1.389,6.672,6.672,0,0,1-.708,1.379,10.5,10.5,0,0,1-5.035,4c.074-.392.159-.783.26-1.171a13.472,13.472,0,0,1,1.206-3.1m-5.035,5.144c-.275.032-.555.059-.836.078a7.121,7.121,0,0,1-2.806-.28,3.058,3.058,0,0,1-2-1.943,3.651,3.651,0,0,1,.71-3.081,2.655,2.655,0,0,1,2.566-1.2,3.262,3.262,0,0,1,2.091,1.652q.1.176.195.359a9.939,9.939,0,0,1,.593,1.6q.271.919.476,1.856c.057.258.109.517.158.776-.379.073-.76.132-1.142.177" transform="translate(-203.266 -319.52)" fill="#48160d"/>
        <path id="Trazado_898861-3" data-name="Trazado 898861" d="M373.588,1105.125a30.3,30.3,0,0,1-5.632.826c-.319.017-.639.03-.959.036q-.941.019-1.883-.021a.38.38,0,0,0-.263.114.349.349,0,0,0-.033.037.246.246,0,0,0-.042.085c-.037.146.092.205.213.21a30.718,30.718,0,0,0,3.145-.034,31.171,31.171,0,0,0,3.6-.431q.941-.169,1.87-.4c.122-.03.281-.139.272-.282l0-.017a.156.156,0,0,0-.123-.124.343.343,0,0,0-.167,0" transform="translate(-354.807 -1074.929)" fill="#48160d"/>
        <path id="Trazado_898862-3" data-name="Trazado 898862" d="M400.622,1209.65a21.006,21.006,0,0,1-5.561,1.042q-.812.041-1.625.018c-.092,0-.1.1-.064.209a.646.646,0,0,0,.044.1c.06.114.155.216.244.219a21.19,21.19,0,0,0,3.81-.245c.633-.1,1.261-.223,1.883-.379q.795-.2,1.573-.459c.074-.024.069-.13.024-.238a.528.528,0,0,0-.2-.253.155.155,0,0,0-.124-.017" transform="translate(-382.607 -1176.601)" fill="#48160d"/>
      </g>
    </g>
    <g id="Grupo_1108496" data-name="Grupo 1108496" transform="translate(420.815 2921.164)">
      <g id="Grupo_1108492-4" data-name="Grupo 1108492" transform="translate(0 0.002)" clip-path="url(#clip-path)">
        <path id="Trazado_898849-4" data-name="Trazado 898849" d="M27.55,7.462C26.336,3.821,23.116,1.306,19.135.388h0L19.077.374q-.206-.047-.414-.088L18.6.274q-.234-.045-.47-.082l-.066-.01c-.159-.025-.32-.047-.481-.067h-.007c-.162-.02-.326-.036-.49-.051L17,.056q-.243-.02-.488-.033l-.047,0Q16.234.009,16,.005h-.061q-.245,0-.491,0l-.089,0c-.168,0-.336.009-.5.018h0c-.167.009-.335.021-.5.035l-.09.007q-.247.022-.495.051l-.084.011q-.238.029-.476.065L13.156.2c-.167.026-.334.055-.5.086l-.1.02c-.166.032-.333.066-.5.1l-.061.014q-.233.053-.466.113l-.088.022q-.247.065-.494.137l-.1.031c-.17.051-.339.1-.508.16C2.861,3.375-1.541,10.356.5,16.477a15.8,15.8,0,0,0,5.038,7.11h0a16.859,16.859,0,0,1,3.826,4.482A1.7,1.7,0,0,0,8.78,29.64a2.306,2.306,0,0,0,.815,1.231,2.37,2.37,0,0,0,.45.281.344.344,0,0,0-.033.037,1.345,1.345,0,0,0-.7,1.058,2.174,2.174,0,0,0,1.05,1.895,1.79,1.79,0,0,0,.405.177.646.646,0,0,0,.044.1,1.575,1.575,0,0,0-.18.625,2.111,2.111,0,0,0,.428,1.325,2.9,2.9,0,0,0,1.131.986,3.647,3.647,0,0,0,1.192.316A5.053,5.053,0,0,0,14.4,39.754a2.025,2.025,0,0,0,.684.538,1.077,1.077,0,0,0,.852.03,1.586,1.586,0,0,0,.738-.985,9.971,9.971,0,0,0,.517-2.245,5.221,5.221,0,0,0,.982-.584,2.979,2.979,0,0,0,1-1.162,1.554,1.554,0,0,0-.379-1.67,1.65,1.65,0,0,0-.458-.355.528.528,0,0,0-.2-.253,5.193,5.193,0,0,0,.456-.349,4.311,4.311,0,0,0,.889-1,.84.84,0,0,0,.134-.625,1.458,1.458,0,0,0-.346-.594,1,1,0,0,0-.2-.172.156.156,0,0,0-.123-.124,2.64,2.64,0,0,0,.411-.459,1.935,1.935,0,0,0,.416-1.339,1.364,1.364,0,0,0-.861-1.167,10.442,10.442,0,0,1,2.5-4.261c2.82-2.73,5.3-5.2,6.341-10.009a10.989,10.989,0,0,0-.207-5.5" transform="translate(0 -0.002)" fill="#ffc53a"/>
        <path id="Trazado_898850-4" data-name="Trazado 898850" d="M330.95,996.187a1,1,0,0,0-.2-.172.156.156,0,0,0-.123-.124,2.639,2.639,0,0,0,.411-.459,1.935,1.935,0,0,0,.416-1.339,1.364,1.364,0,0,0-.861-1.167,1.873,1.873,0,0,0-.45-.114,8.7,8.7,0,0,1-3.244.9c-.108.013-.219.024-.332.034q-.266.025-.553.041c-.1.006-.208.011-.316.015q-.266.01-.548.012c-.119,0-.239,0-.362,0-.3,0-.615-.016-.941-.036s-.638-.047-.975-.083l-.086-.01q-.2-.022-.4-.049l-.126-.016c-.165-.022-.333-.046-.5-.073a.917.917,0,0,0-.717.219,1.7,1.7,0,0,0-.581,1.571,2.306,2.306,0,0,0,.815,1.231,2.366,2.366,0,0,0,.45.281.329.329,0,0,0-.033.037,1.345,1.345,0,0,0-.7,1.058,2.174,2.174,0,0,0,1.05,1.895,1.789,1.789,0,0,0,.405.177.649.649,0,0,0,.044.1,1.575,1.575,0,0,0-.18.625,2.111,2.111,0,0,0,.428,1.325,2.9,2.9,0,0,0,1.131.986,3.648,3.648,0,0,0,1.192.316,5.053,5.053,0,0,0,1.024,2.078,2.025,2.025,0,0,0,.684.538,1.077,1.077,0,0,0,.852.03,1.586,1.586,0,0,0,.738-.985,9.975,9.975,0,0,0,.517-2.245,5.228,5.228,0,0,0,.982-.584,2.978,2.978,0,0,0,1-1.162,1.554,1.554,0,0,0-.379-1.67,1.65,1.65,0,0,0-.458-.355.527.527,0,0,0-.2-.253,5.21,5.21,0,0,0,.456-.349,4.312,4.312,0,0,0,.889-1,.84.84,0,0,0,.134-.625,1.459,1.459,0,0,0-.346-.594" transform="translate(-311.678 -965.693)" fill="#7187c3"/>
        <path id="Trazado_898851-4" data-name="Trazado 898851" d="M24.368,8.522c-1.006-3.02-4.2-5.011-8.2-5.157l0,0,0,0h.006A20.825,20.825,0,0,1,18.717.737c.138-.119.279-.234.42-.35-.157-.036-.315-.069-.474-.1L18.6.274q-.234-.045-.471-.082l-.066-.01c-.159-.025-.32-.047-.481-.067h-.007c-.162-.02-.326-.036-.49-.051L17,.056q-.243-.02-.488-.033l-.047,0Q16.234.01,16,.005h-.061q-.245,0-.491,0l-.089,0c-.168,0-.336.009-.5.018h0c-.167.009-.335.021-.5.035l-.09.007q-.247.022-.495.051l-.084.011q-.238.029-.476.065L13.157.2c-.167.026-.334.055-.5.086l-.1.02c-.166.032-.333.066-.5.1l-.061.014q-.233.053-.466.113l-.088.022Q11.19.623,10.943.7l-.1.031c-.17.051-.339.1-.508.16C2.861,3.376-1.541,10.356.5,16.477a15.8,15.8,0,0,0,5.038,7.11h0a16.859,16.859,0,0,1,3.826,4.482.917.917,0,0,1,.717-.219c.171.027.338.051.5.073l.126.016q.2.026.4.049l.086.01q.505.054.975.083c.326.02.64.032.941.036.123,0,.243,0,.362,0q.282,0,.548-.012c.107,0,.212-.009.316-.015q.287-.016.553-.041c.113-.011.224-.022.332-.034a14.919,14.919,0,0,1,3.861-7.452c2.81-2.72,4.576-4.579,5.388-8.271a7.665,7.665,0,0,0-.1-3.77" transform="translate(0 -0.002)" fill="#fca01f"/>
        <path id="Trazado_898852-4" data-name="Trazado 898852" d="M722.549,76.537a.275.275,0,0,0,.172.327c.1.049.312.067.362-.071a9.375,9.375,0,0,0-3.431-10.9,9.622,9.622,0,0,0-2.938-1.4c-.12-.034-.289.013-.3.156s.137.261.263.3a8.827,8.827,0,0,1,6.405,8.254,9.041,9.041,0,0,1-.53,3.345" transform="translate(-696.841 -62.713)" fill="#fff"/>
        <path id="Trazado_898853-4" data-name="Trazado 898853" d="M663.418,1030.092a.282.282,0,0,0-.27.277l.062.873a.278.278,0,0,0,.32.218.282.282,0,0,0,.27-.277l-.062-.873a.279.279,0,0,0-.32-.218" transform="translate(-645.034 -1001.952)" fill="#fff"/>
        <path id="Trazado_898854-4" data-name="Trazado 898854" d="M619.516,1271.009a1.9,1.9,0,0,0-.206.04c-.018.005-.077.013-.083.034a2.04,2.04,0,0,1-.729,1.065c-.025.019.025.018.033.018a1.088,1.088,0,0,0,.177-.013c.075-.01.151-.021.225-.037a.367.367,0,0,0,.132-.038,2.08,2.08,0,0,0,.748-1.084,1.664,1.664,0,0,0-.3.015" transform="translate(-601.597 -1236.272)" fill="#fff"/>
        <path id="Trazado_898855-4" data-name="Trazado 898855" d="M636.69,1146.36a1.9,1.9,0,0,0-.206.04c-.018.005-.077.013-.083.034a2.04,2.04,0,0,1-.729,1.065c-.025.019.025.018.033.018a1.076,1.076,0,0,0,.177-.013c.075-.01.151-.021.225-.037a.368.368,0,0,0,.132-.038,2.081,2.081,0,0,0,.748-1.084,1.675,1.675,0,0,0-.3.015" transform="translate(-618.302 -1115.028)" fill="#fff"/>
        <path id="Trazado_898856-4" data-name="Trazado 898856" d="M143.863,127.951c-1.006-3.02-4.2-5.011-8.2-5.157l0,0,0,0c-.155-.006-.311-.009-.468-.009a13.6,13.6,0,0,0-4.3.713,12.528,12.528,0,0,0-6.705,5.04,7.376,7.376,0,0,0-1,6.307,12.425,12.425,0,0,0,3.957,5.557l.014.011a20.091,20.091,0,0,1,3.914,4.275c.155.951.354,1.893.6,2.822.326.02.64.032.941.036.123,0,.243,0,.362,0q.282,0,.548-.012c.107,0,.212-.009.316-.015q.287-.016.553-.041c.113-.011.224-.022.332-.034a14.919,14.919,0,0,1,3.861-7.452c2.81-2.72,4.576-4.579,5.388-8.271a7.665,7.665,0,0,0-.1-3.77" transform="translate(-119.496 -119.431)" fill="#ffd87f"/>
        <path id="Trazado_898857-4" data-name="Trazado 898857" d="M141.455,129.7a1.651,1.651,0,0,0-1.011-1.163,2.1,2.1,0,0,0-1.618.064,4.287,4.287,0,0,0-1.37,1.088,10.924,10.924,0,0,0-1.885,2.936,15.754,15.754,0,0,0-1.125,3.9q-.652.218-1.323.37a24.625,24.625,0,0,0-.789-3.042,7.286,7.286,0,0,0-1-2.047,22.984,22.984,0,0,1,.876-2.963,21.489,21.489,0,0,1,3.456-6.047l0,0c-.155-.006-.311-.009-.468-.009a13.6,13.6,0,0,0-4.3.713,12.528,12.528,0,0,0-6.705,5.04,7.376,7.376,0,0,0-1,6.307,12.425,12.425,0,0,0,3.957,5.557l.014.011a20.091,20.091,0,0,1,3.914,4.275q.232,1.426.6,2.822c.326.02.64.032.941.036a15.8,15.8,0,0,0-1.543-2.859,34.857,34.857,0,0,1-.423-4.41q-.043-1.256-.011-2.519a14.665,14.665,0,0,0,2.087-.243q.208,1.212.318,2.438a40.767,40.767,0,0,1-.066,7.593q.282,0,.548-.012a42.482,42.482,0,0,0,.159-5.882,33.515,33.515,0,0,0-.455-4.238l.037-.008c.371-.08.738-.177,1.1-.288-.136.994-.209,2-.249,3-.1,2.466-.014,4.947-.276,7.4q.287-.016.553-.041c.152-1.561.175-3.137.2-4.7a42,42,0,0,1,.36-5.847,11.442,11.442,0,0,0,4.542-2.892,8.464,8.464,0,0,0,1.807-2.784,2.783,2.783,0,0,0,.163-1.554m-9.975,7.479c-.275.032-.555.059-.836.078a30.623,30.623,0,0,1,.556-4.849q.1.176.195.359a9.944,9.944,0,0,1,.593,1.6q.271.919.476,1.856c.057.258.109.517.158.776-.379.073-.76.132-1.142.177m9.313-6.246a6.673,6.673,0,0,1-.708,1.379,10.5,10.5,0,0,1-5.035,4c.074-.392.159-.783.26-1.171a13.474,13.474,0,0,1,1.206-3.1,10.632,10.632,0,0,1,.909-1.388,7.06,7.06,0,0,1,1.133-1.2,2.154,2.154,0,0,1,1.405-.552.973.973,0,0,1,.944.653,2.223,2.223,0,0,1-.114,1.389" transform="translate(-119.495 -119.431)" fill="#ffc53a"/>
        <path id="Trazado_898858-4" data-name="Trazado 898858" d="M330.748,1021.65a.156.156,0,0,0-.123-.124.342.342,0,0,0-.167,0,30.311,30.311,0,0,1-5.632.826,25.1,25.1,0,0,1-.981-2.942q-.469-.029-.975-.083l-.086-.01q-.2-.022-.4-.049l-.126-.016c-.165-.022-.333-.046-.5-.073a.917.917,0,0,0-.717.219,1.7,1.7,0,0,0-.581,1.571,2.306,2.306,0,0,0,.815,1.231,2.37,2.37,0,0,0,.45.281.329.329,0,0,0-.033.037,1.345,1.345,0,0,0-.7,1.057,2.174,2.174,0,0,0,1.05,1.895,1.794,1.794,0,0,0,.405.177.651.651,0,0,0,.044.1,1.575,1.575,0,0,0-.18.625,2.111,2.111,0,0,0,.428,1.325,2.9,2.9,0,0,0,1.131.986,3.645,3.645,0,0,0,1.192.316,5.053,5.053,0,0,0,1.025,2.078,2.023,2.023,0,0,0,.684.538,1.077,1.077,0,0,0,.852.03,1.586,1.586,0,0,0,.738-.985,9.976,9.976,0,0,0,.517-2.246c-.074.034-.149.063-.224.094a17.959,17.959,0,0,1-2.11-2.79c.633-.1,1.261-.223,1.883-.379q.795-.2,1.573-.459c.074-.024.069-.129.024-.238a.528.528,0,0,0-.2-.253.155.155,0,0,0-.124-.017,20.894,20.894,0,0,1-3.462.83c-.2-.335-.379-.667-.547-.992-.244-.471-.468-.952-.676-1.438a31.17,31.17,0,0,0,3.6-.431q.941-.169,1.87-.4c.122-.03.281-.139.272-.282Z" transform="translate(-311.677 -991.328)" fill="#4f6db2"/>
        <path id="Trazado_898859-4" data-name="Trazado 898859" d="M490.3,1358.454c-.147-.005-.294-.015-.441-.031a5.054,5.054,0,0,0,1.024,2.078,2.025,2.025,0,0,0,.684.537,1.077,1.077,0,0,0,.852.03,1.586,1.586,0,0,0,.738-.985,9.973,9.973,0,0,0,.517-2.245q-.175.081-.356.15a7.757,7.757,0,0,1-3.02.465" transform="translate(-476.478 -1320.75)" fill="#48160d"/>
        <path id="Trazado_898860-4" data-name="Trazado 898860" d="M216.8,340.043a40.769,40.769,0,0,1-.066,7.593q.282,0,.548-.012a42.484,42.484,0,0,0,.159-5.882,33.509,33.509,0,0,0-.455-4.238l.037-.007c.371-.08.738-.177,1.1-.288-.136.994-.209,2-.249,3-.1,2.466-.014,4.947-.276,7.4q.287-.016.553-.041c.152-1.561.175-3.137.2-4.7a42,42,0,0,1,.36-5.847,11.442,11.442,0,0,0,4.542-2.892,8.465,8.465,0,0,0,1.807-2.784,2.784,2.784,0,0,0,.163-1.554,1.651,1.651,0,0,0-1.011-1.163,2.1,2.1,0,0,0-1.618.064,4.287,4.287,0,0,0-1.371,1.088,10.923,10.923,0,0,0-1.885,2.936,15.755,15.755,0,0,0-1.125,3.9q-.652.218-1.323.37a24.625,24.625,0,0,0-.789-3.042,7.286,7.286,0,0,0-1-2.047,4.166,4.166,0,0,0-.939-.933,2.962,2.962,0,0,0-3.182-.3,4.157,4.157,0,0,0-1.91,2.674,3.327,3.327,0,0,0,.868,3.163,5.044,5.044,0,0,0,3.241,1.331,10.832,10.832,0,0,0,1.221.015,14.668,14.668,0,0,0,2.087-.243q.208,1.212.318,2.438m3.482-7.92a10.627,10.627,0,0,1,.909-1.388,7.06,7.06,0,0,1,1.133-1.2,2.154,2.154,0,0,1,1.405-.552.973.973,0,0,1,.944.653,2.223,2.223,0,0,1-.114,1.389,6.672,6.672,0,0,1-.708,1.379,10.5,10.5,0,0,1-5.035,4c.074-.392.159-.783.26-1.171a13.472,13.472,0,0,1,1.206-3.1m-5.035,5.144c-.275.032-.555.059-.836.078a7.121,7.121,0,0,1-2.806-.28,3.058,3.058,0,0,1-2-1.943,3.651,3.651,0,0,1,.71-3.081,2.655,2.655,0,0,1,2.566-1.2,3.262,3.262,0,0,1,2.091,1.652q.1.176.195.359a9.939,9.939,0,0,1,.593,1.6q.271.919.476,1.856c.057.258.109.517.158.776-.379.073-.76.132-1.142.177" transform="translate(-203.266 -319.52)" fill="#48160d"/>
        <path id="Trazado_898861-4" data-name="Trazado 898861" d="M373.588,1105.125a30.3,30.3,0,0,1-5.632.826c-.319.017-.639.03-.959.036q-.941.019-1.883-.021a.38.38,0,0,0-.263.114.349.349,0,0,0-.033.037.246.246,0,0,0-.042.085c-.037.146.092.205.213.21a30.718,30.718,0,0,0,3.145-.034,31.171,31.171,0,0,0,3.6-.431q.941-.169,1.87-.4c.122-.03.281-.139.272-.282l0-.017a.156.156,0,0,0-.123-.124.343.343,0,0,0-.167,0" transform="translate(-354.807 -1074.929)" fill="#48160d"/>
        <path id="Trazado_898862-4" data-name="Trazado 898862" d="M400.622,1209.65a21.006,21.006,0,0,1-5.561,1.042q-.812.041-1.625.018c-.092,0-.1.1-.064.209a.646.646,0,0,0,.044.1c.06.114.155.216.244.219a21.19,21.19,0,0,0,3.81-.245c.633-.1,1.261-.223,1.883-.379q.795-.2,1.573-.459c.074-.024.069-.13.024-.238a.528.528,0,0,0-.2-.253.155.155,0,0,0-.124-.017" transform="translate(-382.607 -1176.601)" fill="#48160d"/>
      </g>
    </g>
    <g id="Grupo_1108498" data-name="Grupo 1108498" transform="translate(239.084 2864.024)">
      <g id="Grupo_1108497" data-name="Grupo 1108497" transform="translate(0 0.003)" clip-path="url(#clip-path-5)">
        <path id="Trazado_898863" data-name="Trazado 898863" d="M224.54,1.645V3.859H211.128V1.645A1.64,1.64,0,0,1,212.769,0H222.9a1.64,1.64,0,0,1,1.641,1.641" transform="translate(-203.764 -0.004)" fill="#d3d3d3"/>
        <path id="Trazado_898864" data-name="Trazado 898864" d="M0,100.705V87.439a3.175,3.175,0,0,1,3.171-3.171h21.8a3.175,3.175,0,0,1,3.171,3.171v13.266l-1.362,1.68H1.1Z" transform="translate(0 -81.329)" fill="#e59c5a"/>
        <path id="Trazado_898865" data-name="Trazado 898865" d="M28.141,555.492v27.836A3.175,3.175,0,0,1,24.97,586.5H3.171A3.175,3.175,0,0,1,0,583.328V555.492Z" transform="translate(0 -536.116)" fill="#3a3a3a"/>
        <path id="Trazado_898866" data-name="Trazado 898866" d="M313.109,214.875v1.44h-2.665v2.665H309v-2.665h-2.665v-1.44H309v-2.665h1.44v2.665Z" transform="translate(-295.653 -204.808)" fill="#fff"/>
        <rect id="Rectángulo_403284" data-name="Rectángulo 403284" width="6.77" height="1.44" transform="translate(10.686 26.95)" fill="#fff"/>
      </g>
    </g>
  </g>
</svg>
