<svg xmlns="http://www.w3.org/2000/svg" xmlns:xlink="http://www.w3.org/1999/xlink" width="86.65" height="86.65" viewBox="0 0 86.65 86.65">
  <defs>
    <clipPath id="clip-path">
      <rect id="Rectángulo_403289" data-name="Rectángulo 403289" width="56.137" height="50.457" fill="none"/>
    </clipPath>
  </defs>
  <g id="Grupo_1108515" data-name="Grupo 1108515" transform="translate(-453.675 -504.675)">
    <g id="Grupo_1108512" data-name="Grupo 1108512" transform="translate(34.675 -616.325)">
      <path id="Trazado_824488" data-name="Trazado 824488" d="M43.325,0A43.325,43.325,0,1,1,0,43.325,43.325,43.325,0,0,1,43.325,0Z" transform="translate(419 1121)" fill="#e3eaf7"/>
    </g>
    <g id="Grupo_1108514" data-name="Grupo 1108514" transform="translate(468.932 522.5)">
      <g id="Grupo_1108513" data-name="Grupo 1108513" clip-path="url(#clip-path)">
        <path id="Trazado_898870" data-name="Trazado 898870" d="M10.661,46.987,34.977,7.665a4.125,4.125,0,0,1,7.167.268l20.9,40.728a4.1,4.1,0,0,1-3.818,5.962L14.077,53.216a4.118,4.118,0,0,1-3.416-6.23" transform="translate(-7.356 -4.17)" fill="#1b2864"/>
        <path id="Trazado_898871" data-name="Trazado 898871" d="M.625,41.276,24.941,1.954a4.126,4.126,0,0,1,7.168.268l20.9,40.728a4.1,4.1,0,0,1-3.818,5.962L4.041,47.505a4.075,4.075,0,0,1-3.416-6.23" transform="translate(0 0)" fill="#f89c33"/>
        <path id="Trazado_898872" data-name="Trazado 898872" d="M92.158,70.1h0a2.794,2.794,0,0,0,2.814-2.613l1.072-16.01a2.836,2.836,0,0,0-2.814-3.014H91.019a2.836,2.836,0,0,0-2.813,3.014l1.139,16.01A2.841,2.841,0,0,0,92.158,70.1" transform="translate(-64.403 -35.39)" fill="#1b2864"/>
        <path id="Trazado_898873" data-name="Trazado 898873" d="M97.054,137.671a4.287,4.287,0,1,1-4.287-4.287,4.274,4.274,0,0,1,4.287,4.287" transform="translate(-64.61 -97.4)" fill="#1b2864"/>
        <path id="Trazado_898874" data-name="Trazado 898874" d="M57.43,47.193,38.674,10.551a3.774,3.774,0,0,0-3.014-2.076h-.268a3.733,3.733,0,0,0-3.416,1.809L10.137,45.652A3.841,3.841,0,0,0,10,49.538V49.6a3.9,3.9,0,0,0,3.282,2.01L53.88,52.887h.134a3.866,3.866,0,0,0,3.416-5.694m-.469,3.684a3.366,3.366,0,0,1-3.081,1.608L13.286,51.212a3.562,3.562,0,0,1-3.014-1.876c0-.067-.067-.134-.067-.2a3.334,3.334,0,0,1,.2-3.349L32.243,10.417a3.454,3.454,0,0,1,3.014-1.675h.134a3.494,3.494,0,0,1,3.014,1.943L57.162,47.327a3.717,3.717,0,0,1-.2,3.55" transform="translate(-6.966 -6.185)" fill="#fff"/>
        <path id="Trazado_898875" data-name="Trazado 898875" d="M69.765,88.281l-1.742-4.756a.67.67,0,0,1,.536-.871l1.206-.2a.692.692,0,0,1,.8.6l.536,4.957a.664.664,0,0,1-.536.737.853.853,0,0,1-.8-.469" transform="translate(-49.647 -60.202)" fill="#fff"/>
        <path id="Trazado_898876" data-name="Trazado 898876" d="M77.377,107.915a1.052,1.052,0,1,1-1.206-.871,1.154,1.154,0,0,1,1.206.871" transform="translate(-54.981 -78.161)" fill="#fff"/>
        <path id="Trazado_898877" data-name="Trazado 898877" d="M123.693,111.331l1.407-4.823a.666.666,0,0,1,.938-.4l1.072.536a.678.678,0,0,1,.268.938l-2.479,4.287a.677.677,0,0,1-.871.268.725.725,0,0,1-.335-.8" transform="translate(-90.311 -77.423)" fill="#fff"/>
        <path id="Trazado_898878" data-name="Trazado 898878" d="M121.321,131.491a1.049,1.049,0,1,1-.469-1.407,1.041,1.041,0,0,1,.469,1.407" transform="translate(-87.136 -94.905)" fill="#fff"/>
      </g>
    </g>
  </g>
</svg>
