<svg xmlns="http://www.w3.org/2000/svg" xmlns:xlink="http://www.w3.org/1999/xlink" width="489.5" height="199.859" viewBox="0 0 489.5 199.859">
  <defs>
    <clipPath id="clip-path">
      <rect id="Rectángulo_403293" data-name="Rectángulo 403293" width="152.5" height="133.859" fill="none" stroke="#ff2c29" stroke-width="4"/>
    </clipPath>
  </defs>
  <g id="Grupo_1108799" data-name="Grupo 1108799" transform="translate(2852.25 11398)">
    <g id="Grupo_1108517" data-name="Grupo 1108517" transform="translate(-2852.25 -11332)">
      <g id="Grupo_1108516" data-name="Grupo 1108516" clip-path="url(#clip-path)">
        <path id="Trazado_898879" data-name="Trazado 898879" d="M110.721,1.5H41.153a4.866,4.866,0,0,0-4.216,2.434L2.153,64.182a4.869,4.869,0,0,0,0,4.868L36.937,129.3a4.866,4.866,0,0,0,4.216,2.434h69.568a4.869,4.869,0,0,0,4.216-2.434l34.784-60.249a4.869,4.869,0,0,0,0-4.868L114.937,3.934A4.869,4.869,0,0,0,110.721,1.5Z" transform="translate(0.314 0.314)" fill="none" stroke="#ff2c29" stroke-miterlimit="10" stroke-width="4"/>
      </g>
    </g>
    <g id="Grupo_1108518" data-name="Grupo 1108518" transform="translate(-2739.25 -11398)">
      <g id="Grupo_1108516-2" data-name="Grupo 1108516" clip-path="url(#clip-path)">
        <path id="Trazado_898879-2" data-name="Trazado 898879" d="M110.721,1.5H41.153a4.866,4.866,0,0,0-4.216,2.434L2.153,64.182a4.869,4.869,0,0,0,0,4.868L36.937,129.3a4.866,4.866,0,0,0,4.216,2.434h69.568a4.869,4.869,0,0,0,4.216-2.434l34.784-60.249a4.869,4.869,0,0,0,0-4.868L114.937,3.934A4.869,4.869,0,0,0,110.721,1.5Z" transform="translate(0.314 0.314)" fill="none" stroke="#ff2c29" stroke-miterlimit="10" stroke-width="4"/>
      </g>
    </g>
    <g id="Grupo_1108519" data-name="Grupo 1108519" transform="translate(-2625.25 -11332)">
      <g id="Grupo_1108516-3" data-name="Grupo 1108516" transform="translate(-2)" clip-path="url(#clip-path)">
        <path id="Trazado_898879-3" data-name="Trazado 898879" d="M110.721,1.5H41.153a4.866,4.866,0,0,0-4.216,2.434L2.153,64.182a4.869,4.869,0,0,0,0,4.868L36.937,129.3a4.866,4.866,0,0,0,4.216,2.434h69.568a4.869,4.869,0,0,0,4.216-2.434l34.784-60.249a4.869,4.869,0,0,0,0-4.868L114.937,3.934A4.869,4.869,0,0,0,110.721,1.5Z" transform="translate(0.314 0.314)" fill="none" stroke="#ff2c29" stroke-miterlimit="10" stroke-width="4"/>
      </g>
    </g>
    <g id="Grupo_1108520" data-name="Grupo 1108520" transform="translate(-2515.25 -11398)">
      <g id="Grupo_1108516-4" data-name="Grupo 1108516" clip-path="url(#clip-path)">
        <path id="Trazado_898879-4" data-name="Trazado 898879" d="M110.721,1.5H41.153a4.866,4.866,0,0,0-4.216,2.434L2.153,64.182a4.869,4.869,0,0,0,0,4.868L36.937,129.3a4.866,4.866,0,0,0,4.216,2.434h69.568a4.869,4.869,0,0,0,4.216-2.434l34.784-60.249a4.869,4.869,0,0,0,0-4.868L114.937,3.934A4.869,4.869,0,0,0,110.721,1.5Z" transform="translate(0.314 0.314)" fill="none" stroke="#ff2c29" stroke-miterlimit="10" stroke-width="4"/>
      </g>
    </g>
    <path id="Trazado_898880" data-name="Trazado 898880" d="M-4072.051-10545.141h152.5" transform="translate(1219.801 -719)" fill="none" stroke="#ff2c29" stroke-width="4"/>
    <path id="Trazado_898881" data-name="Trazado 898881" d="M-4072.051-10545.141h152.5" transform="translate(1445.352 -719)" fill="none" stroke="#ff2c29" stroke-width="4"/>
    <path id="Trazado_898882" data-name="Trazado 898882" d="M-4072.051-10545.141h149.5" transform="translate(1335.801 -784.93)" fill="none" stroke="#ff2c29" stroke-width="4"/>
    <path id="Trazado_898883" data-name="Trazado 898883" d="M-4072.051-10545.141h149.5" transform="translate(1558.301 -784.93)" fill="none" stroke="#ff2c29" stroke-width="4"/>
    <path id="Trazado_898884" data-name="Trazado 898884" d="M-3781.25-10545.141v63.7" transform="translate(1230.801 -719)" fill="none" stroke="#ff2c29" stroke-width="4"/>
    <path id="Trazado_898885" data-name="Trazado 898885" d="M-3781.25-10545.141v63.7" transform="translate(1343.801 -784.93)" fill="none" stroke="#ff2c29" stroke-width="4"/>
    <path id="Trazado_899245" data-name="Trazado 899245" d="M6.455-3.1l3.613-11.123h2.715L7.666,0H5.273L.176-14.219H2.881Z" transform="translate(-2444.199 -11355)" fill="#12263f"/>
    <path id="Trazado_899233" data-name="Trazado 899233" d="M6.455-3.1l3.613-11.123h2.715L7.666,0H5.273L.176-14.219H2.881Z" transform="translate(-2782.199 -11291)" fill="#12263f"/>
    <path id="Trazado_899237" data-name="Trazado 899237" d="M6.455-3.1l3.613-11.123h2.715L7.666,0H5.273L.176-14.219H2.881Z" transform="translate(-2557.199 -11291)" fill="#12263f"/>
    <path id="Trazado_899243" data-name="Trazado 899243" d="M4.053,0H1.592V-14.219H4.053Z" transform="translate(-2474.199 -11291)" fill="#12263f"/>
    <path id="Trazado_899238" data-name="Trazado 899238" d="M4.053,0H1.592V-14.219H4.053Z" transform="translate(-2810.199 -11229)" fill="#12263f"/>
    <path id="Trazado_899239" data-name="Trazado 899239" d="M6.67-5.469H3.916V0H1.445V-14.219h5a5.816,5.816,0,0,1,3.8,1.1,3.907,3.907,0,0,1,1.338,3.2,4,4,0,0,1-.688,2.39A4.381,4.381,0,0,1,8.975-6.048L12.168-.127V0H9.521ZM3.916-7.461H6.455a2.824,2.824,0,0,0,1.953-.63,2.2,2.2,0,0,0,.7-1.724,2.338,2.338,0,0,0-.649-1.768,2.759,2.759,0,0,0-1.938-.645H3.916Z" transform="translate(-2753.199 -11229)" fill="#12263f"/>
    <path id="Trazado_898886" data-name="Trazado 898886" d="M-3781.25-10545.141v63.7" transform="translate(1003.801 -719)" fill="none" stroke="#ff2c29" stroke-width="4"/>
    <path id="Trazado_898887" data-name="Trazado 898887" d="M-3963.906-10613.5c.8-2.065,34.237-62.38,34.237-62.38l72.618,1,35.98,61.38Z" transform="translate(1230.801 -719)" fill="#facaca"/>
    <path id="Trazado_899231" data-name="Trazado 899231" d="M6.455-3.1l3.613-11.123h2.715L7.666,0H5.273L.176-14.219H2.881Z" transform="translate(-2667.199 -11355)" fill="#12263f"/>
    <path id="Trazado_898888" data-name="Trazado 898888" d="M-3662-10549.367c1.575-3.731,0-59.013,0-59.013h68.638l-33.689,58.838Z" transform="translate(1224.982 -719)" fill="#efcece"/>
    <path id="Trazado_899246" data-name="Trazado 899246" d="M6.67-5.469H3.916V0H1.445V-14.219h5a5.816,5.816,0,0,1,3.8,1.1,3.907,3.907,0,0,1,1.338,3.2,4,4,0,0,1-.688,2.39A4.381,4.381,0,0,1,8.975-6.048L12.168-.127V0H9.521ZM3.916-7.461H6.455a2.824,2.824,0,0,0,1.953-.63,2.2,2.2,0,0,0,.7-1.724,2.338,2.338,0,0,0-.649-1.768,2.759,2.759,0,0,0-1.938-.645H3.916Z" transform="translate(-2417.199 -11291)" fill="#12263f"/>
    <path id="Trazado_898889" data-name="Trazado 898889" d="M-3704.838-10483.437v-58.951H-3775l34.73,58.848Z" transform="translate(1152.801 -719)" fill="#facaca"/>
    <path id="Trazado_899240" data-name="Trazado 899240" d="M6.67-5.469H3.916V0H1.445V-14.219h5a5.816,5.816,0,0,1,3.8,1.1,3.907,3.907,0,0,1,1.338,3.2,4,4,0,0,1-.688,2.39A4.381,4.381,0,0,1,8.975-6.048L12.168-.127V0H9.521ZM3.916-7.461H6.455a2.824,2.824,0,0,0,1.953-.63,2.2,2.2,0,0,0,.7-1.724,2.338,2.338,0,0,0-.649-1.768,2.759,2.759,0,0,0-1.938-.645H3.916Z" transform="translate(-2527.199 -11229)" fill="#12263f"/>
    <path id="Trazado_899241" data-name="Trazado 899241" d="M4.053,0H1.592V-14.219H4.053Z" transform="translate(-2584.199 -11229)" fill="#12263f"/>
    <path id="Trazado_898890" data-name="Trazado 898890" d="M-3781.25-10545.141v20.07" transform="translate(1119.75 -784.93)" fill="none" stroke="#ff2c29" stroke-width="4"/>
    <path id="Trazado_898891" data-name="Trazado 898891" d="M-3781.25-10545.141v20.07" transform="translate(1119.75 -741.297)" fill="none" stroke="#ff2c29" stroke-width="4"/>
    <path id="Trazado_899234" data-name="Trazado 899234" d="M4.053,0H1.592V-14.219H4.053Z" transform="translate(-2695.199 -11291)" fill="#12263f"/>
    <path id="Trazado_899235" data-name="Trazado 899235" d="M6.67-5.469H3.916V0H1.445V-14.219h5a5.816,5.816,0,0,1,3.8,1.1,3.907,3.907,0,0,1,1.338,3.2,4,4,0,0,1-.688,2.39A4.381,4.381,0,0,1,8.975-6.048L12.168-.127V0H9.521ZM3.916-7.461H6.455a2.824,2.824,0,0,0,1.953-.63,2.2,2.2,0,0,0,.7-1.724,2.338,2.338,0,0,0-.649-1.768,2.759,2.759,0,0,0-1.938-.645H3.916Z" transform="translate(-2638.199 -11291)" fill="#12263f"/>
    <path id="Trazado_899236" data-name="Trazado 899236" d="M6.338-9.082l2.988-5.137h2.852l-4.3,7.051L12.275,0H9.395L6.338-5.215,3.271,0H.4L4.8-7.168.5-14.219H3.35Z" transform="translate(-2667.199 -11291)" fill="#6a6a6a"/>
    <path id="Trazado_899232" data-name="Trazado 899232" d="M4.053,0H1.592V-14.219H4.053ZM20.459-7.617H12.041V-9.59h8.418Zm0,4.141H12.041V-5.439h8.418ZM33.252-3.1l3.613-11.123H39.58L34.463,0H32.07l-5.1-14.219h2.705ZM46.6,1.221H44.736l5.6-15.439H52.2ZM64.277-5.469H61.523V0H59.053V-14.219h5a5.816,5.816,0,0,1,3.8,1.1,3.907,3.907,0,0,1,1.338,3.2,4,4,0,0,1-.688,2.39,4.381,4.381,0,0,1-1.919,1.481L69.775-.127V0H67.129ZM61.523-7.461h2.539a2.824,2.824,0,0,0,1.953-.63,2.2,2.2,0,0,0,.7-1.724,2.338,2.338,0,0,0-.649-1.768,2.759,2.759,0,0,0-1.938-.645H61.523Z" transform="translate(-2584.199 -11373)" fill="#5c6475"/>
    <path id="Trazado_899242" data-name="Trazado 899242" d="M6.455-3.1l3.613-11.123h2.715L7.666,0H5.273L.176-14.219H2.881Zm21.3-4.521H19.336V-9.59h8.418Zm0,4.141H19.336V-5.439h8.418ZM38.145,0H35.684V-14.219h2.461ZM46.6,1.221H44.736l5.6-15.439H52.2ZM64.277-5.469H61.523V0H59.053V-14.219h5a5.816,5.816,0,0,1,3.8,1.1,3.907,3.907,0,0,1,1.338,3.2,4,4,0,0,1-.688,2.39,4.381,4.381,0,0,1-1.919,1.481L69.775-.127V0H67.129ZM61.523-7.461h2.539a2.824,2.824,0,0,0,1.953-.63,2.2,2.2,0,0,0,.7-1.724,2.338,2.338,0,0,0-.649-1.768,2.759,2.759,0,0,0-1.938-.645H61.523Z" transform="translate(-2701.199 -11217)" fill="#5c6475"/>
    <path id="Trazado_899244" data-name="Trazado 899244" d="M6.67-5.469H3.916V0H1.445V-14.219h5a5.816,5.816,0,0,1,3.8,1.1,3.907,3.907,0,0,1,1.338,3.2,4,4,0,0,1-.688,2.39A4.381,4.381,0,0,1,8.975-6.048L12.168-.127V0H9.521ZM3.916-7.461H6.455a2.824,2.824,0,0,0,1.953-.63,2.2,2.2,0,0,0,.7-1.724,2.338,2.338,0,0,0-.649-1.768,2.759,2.759,0,0,0-1.938-.645H3.916Zm23.379-.156H18.877V-9.59h8.418Zm0,4.141H18.877V-5.439h8.418ZM40.088-3.1,43.7-14.219h2.715L41.3,0H38.906l-5.1-14.219h2.705Zm13.35,4.316H51.572l5.6-15.439h1.865ZM68.5,0H66.035V-14.219H68.5Z" transform="translate(-2475.199 -11217)" fill="#5c6475"/>
  </g>
</svg>
