<svg xmlns="http://www.w3.org/2000/svg" width="511.352" height="166" viewBox="0 0 511.352 166">
  <g id="Grupo_1108799" data-name="Grupo 1108799" transform="translate(5339 10114)">
    <path id="Trazado_899231" data-name="Trazado 899231" d="M0,0H295V166H0Z" transform="translate(-5339 -10114)" fill="#f4c0c0"/>
    <path id="Trazado_898892" data-name="Trazado 898892" d="M-4122.294-10046v-42.953h222.016v109.878h-83.458" transform="translate(-1182 6)" fill="none" stroke="#000" stroke-width="3"/>
    <path id="Trazado_898893" data-name="Trazado 898893" d="M-4122.294-10034.379v55.348h85.078" transform="translate(-1182 6)" fill="none" stroke="#000" stroke-width="3"/>
    <g id="Grupo_1108524" data-name="Grupo 1108524" transform="translate(-6054.051 -12427)">
      <g id="Elipse_11588" data-name="Elipse 11588" transform="translate(840.051 2325)" fill="#f4c0c0" stroke="#ff2c29" stroke-width="3">
        <circle cx="22.5" cy="22.5" r="22.5" stroke="none"/>
        <circle cx="22.5" cy="22.5" r="21" fill="none"/>
      </g>
      <path id="Trazado_898829" data-name="Trazado 898829" d="M-7803.89-9274.939l29.739,29.739" transform="translate(8651.319 11605.857)" fill="none" stroke="#ff2c29" stroke-width="3"/>
      <path id="Trazado_898830" data-name="Trazado 898830" d="M-7803.89-9274.939l29.738,29.738" transform="translate(-8398.242 10136.95) rotate(90)" fill="none" stroke="#ff2c29" stroke-width="3"/>
    </g>
    <g id="Trazado_899241" data-name="Trazado 899241" transform="translate(-5177 -9982)" fill="#fff">
      <path d="M 8.5 15.5 C 4.640190124511719 15.5 1.5 12.35980987548828 1.5 8.5 C 1.5 4.640190124511719 4.640190124511719 1.5 8.5 1.5 C 12.35980987548828 1.5 15.5 4.640190124511719 15.5 8.5 C 15.5 12.35980987548828 12.35980987548828 15.5 8.5 15.5 Z" stroke="none"/>
      <path d="M 8.5 3 C 5.467289924621582 3 3 5.467289924621582 3 8.5 C 3 11.53271007537842 5.467289924621582 14 8.5 14 C 11.53271007537842 14 14 11.53271007537842 14 8.5 C 14 5.467289924621582 11.53271007537842 3 8.5 3 M 8.5 0 C 13.19441986083984 0 17 3.805580139160156 17 8.5 C 17 13.19441986083984 13.19441986083984 17 8.5 17 C 3.805580139160156 17 0 13.19441986083984 0 8.5 C 0 3.805580139160156 3.805580139160156 0 8.5 0 Z" stroke="none" fill="#000"/>
    </g>
    <path id="Trazado_898894" data-name="Trazado 898894" d="M-7916.77-9491.5h35.737" transform="translate(6397.96 -5712.005) rotate(-30)" fill="none" stroke="#ff2c29" stroke-width="3"/>
    <g id="Trazado_899242" data-name="Trazado 899242" transform="translate(-5220 -9982)" fill="#fff">
      <path d="M 8.5 15.5 C 4.640190124511719 15.5 1.5 12.35980987548828 1.5 8.5 C 1.5 4.640190124511719 4.640190124511719 1.5 8.5 1.5 C 12.35980987548828 1.5 15.5 4.640190124511719 15.5 8.5 C 15.5 12.35980987548828 12.35980987548828 15.5 8.5 15.5 Z" stroke="none"/>
      <path d="M 8.5 3 C 5.467289924621582 3 3 5.467289924621582 3 8.5 C 3 11.53271007537842 5.467289924621582 14 8.5 14 C 11.53271007537842 14 14 11.53271007537842 14 8.5 C 14 5.467289924621582 11.53271007537842 3 8.5 3 M 8.5 0 C 13.19441986083984 0 17 3.805580139160156 17 8.5 C 17 13.19441986083984 13.19441986083984 17 8.5 17 C 3.805580139160156 17 0 13.19441986083984 0 8.5 C 0 3.805580139160156 3.805580139160156 0 8.5 0 Z" stroke="none" fill="#000"/>
    </g>
    <path id="Trazado_898833" data-name="Trazado 898833" d="M-7827.068-9340.49h26.643" transform="translate(2511.918 -689.384)" fill="none" stroke="#ff2c29" stroke-width="3"/>
    <path id="Trazado_898834" data-name="Trazado 898834" d="M-7827.068-9340.49h39.772" transform="translate(2504.918 -698.636)" fill="none" stroke="#ff2c29" stroke-width="3"/>
    <path id="Trazado_899233" data-name="Trazado 899233" d="M5.234-6.1H8.406v1.367H5.234v3.594H3.781V-4.734H.609V-6.1H3.781v-3.32H5.234Z" transform="translate(-5296 -10049)"/>
    <path id="Trazado_899236" data-name="Trazado 899236" d="M4.132-1.619,6.773-9.242H8.106L4.678,0H3.6L.178-9.242H1.5Z" transform="translate(-5321 -10014)"/>
    <path id="Trazado_899232" data-name="Trazado 899232" d="M1.016,0V-11.375h3.5A5.315,5.315,0,0,1,7.2-10.7,4.712,4.712,0,0,1,9.047-8.777a5.928,5.928,0,0,1,.664,2.832v.523A5.945,5.945,0,0,1,9.059-2.6,4.672,4.672,0,0,1,7.219-.687,5.355,5.355,0,0,1,4.539,0ZM3.359-9.477v7.594H4.492a2.545,2.545,0,0,0,2.1-.9,4.06,4.06,0,0,0,.742-2.57v-.6a4.124,4.124,0,0,0-.719-2.629,2.537,2.537,0,0,0-2.1-.895ZM16.164,0a2.507,2.507,0,0,1-.227-.758A2.732,2.732,0,0,1,13.8.156a3,3,0,0,1-2.059-.719,2.312,2.312,0,0,1-.816-1.812,2.389,2.389,0,0,1,1-2.062A4.915,4.915,0,0,1,14.8-5.164h1.039v-.484a1.393,1.393,0,0,0-.3-.937,1.183,1.183,0,0,0-.949-.352,1.345,1.345,0,0,0-.895.273.929.929,0,0,0-.324.75H11.117a2.268,2.268,0,0,1,.453-1.359,3,3,0,0,1,1.281-.98,4.669,4.669,0,0,1,1.859-.355,3.689,3.689,0,0,1,2.48.785,2.747,2.747,0,0,1,.918,2.207v3.664a4.041,4.041,0,0,0,.336,1.82V0ZM14.3-1.57a1.945,1.945,0,0,0,.922-.223,1.462,1.462,0,0,0,.625-.6V-3.844H15q-1.7,0-1.8,1.172l-.008.133a.9.9,0,0,0,.3.7A1.153,1.153,0,0,0,14.3-1.57Zm8.25-8.961v2.078h1.445V-6.8H22.547v4.219a1.007,1.007,0,0,0,.18.672.9.9,0,0,0,.688.2,3.6,3.6,0,0,0,.664-.055V-.047a4.648,4.648,0,0,1-1.367.2,2.156,2.156,0,0,1-2.422-2.4V-6.8H19.055V-8.453h1.234v-2.078ZM24.664-4.3a5.013,5.013,0,0,1,.484-2.242A3.546,3.546,0,0,1,26.543-8.07a4.069,4.069,0,0,1,2.113-.539,3.849,3.849,0,0,1,2.793,1.047,4.2,4.2,0,0,1,1.207,2.844l.016.578A4.418,4.418,0,0,1,31.586-1.02,3.775,3.775,0,0,1,28.672.156a3.793,3.793,0,0,1-2.918-1.172A4.5,4.5,0,0,1,24.664-4.2Zm2.258.16A3.16,3.16,0,0,0,27.375-2.3a1.5,1.5,0,0,0,1.3.638,1.5,1.5,0,0,0,1.281-.63,3.457,3.457,0,0,0,.461-2.015,3.128,3.128,0,0,0-.461-1.831,1.5,1.5,0,0,0-1.3-.649,1.474,1.474,0,0,0-1.281.646A3.516,3.516,0,0,0,26.922-4.144ZM38.641-2.336a.727.727,0,0,0-.41-.652,4.659,4.659,0,0,0-1.316-.426Q33.9-4.047,33.9-5.977a2.323,2.323,0,0,1,.934-1.879,3.766,3.766,0,0,1,2.441-.754,4.053,4.053,0,0,1,2.574.758,2.388,2.388,0,0,1,.965,1.969H38.555a1.092,1.092,0,0,0-.312-.8A1.322,1.322,0,0,0,37.266-7a1.351,1.351,0,0,0-.883.258.814.814,0,0,0-.312.656.7.7,0,0,0,.355.605,3.657,3.657,0,0,0,1.2.4,9.8,9.8,0,0,1,1.422.379A2.336,2.336,0,0,1,40.836-2.43a2.2,2.2,0,0,1-.992,1.871,4.28,4.28,0,0,1-2.562.715,4.47,4.47,0,0,1-1.887-.379A3.166,3.166,0,0,1,34.1-1.262a2.414,2.414,0,0,1-.469-1.426h2.141a1.179,1.179,0,0,0,.445.922,1.766,1.766,0,0,0,1.109.32,1.635,1.635,0,0,0,.98-.246A.766.766,0,0,0,38.641-2.336ZM42.4-1.109a1.137,1.137,0,0,1,.363-.875,1.289,1.289,0,0,1,.91-.336,1.3,1.3,0,0,1,.918.336,1.137,1.137,0,0,1,.363.875,1.121,1.121,0,0,1-.359.863,1.305,1.305,0,0,1-.922.332,1.294,1.294,0,0,1-.914-.332A1.121,1.121,0,0,1,42.4-1.109Zm0-6.4a1.137,1.137,0,0,1,.363-.875,1.289,1.289,0,0,1,.91-.336,1.3,1.3,0,0,1,.918.336,1.137,1.137,0,0,1,.363.875,1.121,1.121,0,0,1-.359.863,1.305,1.305,0,0,1-.922.332,1.294,1.294,0,0,1-.914-.332A1.121,1.121,0,0,1,42.4-7.508Z" transform="translate(-5009 -10095)" fill="#12263f"/>
    <path id="Trazado_899234" data-name="Trazado 899234" d="M5.086-1.992l3.25-9.383H9.977L5.758,0H4.43L.219-11.375H1.852ZM21.844-6.359H15.328V-7.617h6.516Zm0,3.242H15.328v-1.25h6.516Zm12.086-.7h1.578v1.18H33.93V0H32.477V-2.641H27.3v-.852l5.094-7.883H33.93Zm-4.992,0h3.539V-9.4l-.172.313ZM36.992-.758a.905.905,0,0,1,.223-.625.848.848,0,0,1,.668-.25.874.874,0,0,1,.676.25.887.887,0,0,1,.23.625.839.839,0,0,1-.23.6.89.89,0,0,1-.676.242.863.863,0,0,1-.668-.242A.855.855,0,0,1,36.992-.758Zm4.7-4.945.578-5.672h5.828v1.336h-4.6l-.344,3.1a3.671,3.671,0,0,1,1.9-.492A3.138,3.138,0,0,1,47.516-6.4a4.026,4.026,0,0,1,.914,2.777,3.886,3.886,0,0,1-.949,2.77A3.46,3.46,0,0,1,44.828.156,3.6,3.6,0,0,1,42.367-.68a3.337,3.337,0,0,1-1.086-2.312h1.367a2.3,2.3,0,0,0,.7,1.473,2.162,2.162,0,0,0,1.484.5,1.95,1.95,0,0,0,1.582-.687,2.874,2.874,0,0,0,.574-1.9,2.638,2.638,0,0,0-.621-1.832,2.113,2.113,0,0,0-1.652-.691,2.383,2.383,0,0,0-1.484.414l-.383.313ZM58.109-1.992l3.25-9.383H63L58.781,0H57.453L53.242-11.375h1.633Zm10.1,4.258-.82-.562a3.77,3.77,0,0,0,.766-2.109v-1.3H69.57V-.578A3.559,3.559,0,0,1,69.184,1,3.7,3.7,0,0,1,68.211,2.266ZM5.492,19.4H2.82V24H1.313V12.625H5.078a4.457,4.457,0,0,1,2.957.875A3.148,3.148,0,0,1,9.07,16.047,3.062,3.062,0,0,1,8.5,17.9a3.428,3.428,0,0,1-1.6,1.18L9.57,23.906V24H7.961ZM2.82,18.172h2.3A2.6,2.6,0,0,0,6.9,17.593a1.959,1.959,0,0,0,.66-1.55,2.062,2.062,0,0,0-.629-1.62,2.663,2.663,0,0,0-1.816-.571H2.82Zm18.7-.531H15V16.383h6.516Zm0,3.242H15v-1.25h6.516ZM33.039,19a3.536,3.536,0,0,1-1.082.867,2.936,2.936,0,0,1-1.379.328,3.031,3.031,0,0,1-1.715-.484,3.149,3.149,0,0,1-1.129-1.363,4.648,4.648,0,0,1-.4-1.941,4.735,4.735,0,0,1,.434-2.055,3.185,3.185,0,0,1,1.23-1.4,3.509,3.509,0,0,1,1.859-.484,3.177,3.177,0,0,1,2.66,1.262,5.5,5.5,0,0,1,.973,3.441v.422q0,3.32-1.312,4.848a5.043,5.043,0,0,1-3.961,1.566h-.281V22.781h.3a3.979,3.979,0,0,0,2.75-.932A4,4,0,0,0,33.039,19Zm-2.227,0a2.232,2.232,0,0,0,1.34-.445,2.625,2.625,0,0,0,.895-1.1v-.578a3.977,3.977,0,0,0-.617-2.312,1.887,1.887,0,0,0-3.094-.16,3.013,3.013,0,0,0-.578,1.926,3.136,3.136,0,0,0,.559,1.918A1.769,1.769,0,0,0,30.813,19Zm12.8.148a6.61,6.61,0,0,1-.867,3.773,3.084,3.084,0,0,1-2.711,1.234,3.107,3.107,0,0,1-2.7-1.207,6.274,6.274,0,0,1-.906-3.605v-1.93a6.463,6.463,0,0,1,.867-3.727,3.108,3.108,0,0,1,2.719-1.219,3.136,3.136,0,0,1,2.7,1.176,6.237,6.237,0,0,1,.891,3.629Zm-1.445-1.977a5.3,5.3,0,0,0-.516-2.676,1.775,1.775,0,0,0-1.633-.84,1.751,1.751,0,0,0-1.617.836,5.171,5.171,0,0,0-.523,2.57v2.313a5.381,5.381,0,0,0,.535,2.723,1.771,1.771,0,0,0,1.621.879,1.747,1.747,0,0,0,1.59-.828,5.186,5.186,0,0,0,.543-2.609Zm8.109,5.563a2.4,2.4,0,0,0,1.68-1.321,6.349,6.349,0,0,0,.625-2.94V17.425a4.389,4.389,0,0,0-.758-2.768A2.5,2.5,0,0,0,49.75,13.7a2.465,2.465,0,0,0-2.07.977,4.464,4.464,0,0,0-.75,2.768v.884a6.479,6.479,0,0,0,.613,3.034,2.464,2.464,0,0,0,1.746,1.376V24H45.445V22.773h1.727a5.5,5.5,0,0,1-1.3-2,6.715,6.715,0,0,1-.469-2.465v-.867a5.891,5.891,0,0,1,.551-2.594,4.2,4.2,0,0,1,7.574-.055,5.769,5.769,0,0,1,.578,2.516v1.016a6.675,6.675,0,0,1-.469,2.449,5.5,5.5,0,0,1-1.3,2h1.719V24H50.281Z" transform="translate(-5009 -10071)" fill="#12263f"/>
    <path id="Trazado_899235" data-name="Trazado 899235" d="M6.914-2.984A1.2,1.2,0,0,0,6.445-4a6.148,6.148,0,0,0-1.687-.75,11.963,11.963,0,0,1-1.93-.777A3.153,3.153,0,0,1,.891-8.352,2.747,2.747,0,0,1,1.41-10,3.389,3.389,0,0,1,2.9-11.125a5.616,5.616,0,0,1,2.184-.406,5.112,5.112,0,0,1,2.172.441,3.458,3.458,0,0,1,1.48,1.246,3.261,3.261,0,0,1,.527,1.828H6.922A1.534,1.534,0,0,0,6.43-9.23a2.023,2.023,0,0,0-1.383-.434A2.162,2.162,0,0,0,3.711-9.3a1.146,1.146,0,0,0-.477.957,1.1,1.1,0,0,0,.559.93,6.311,6.311,0,0,0,1.645.7A7.106,7.106,0,0,1,8.352-5.219,2.972,2.972,0,0,1,9.266-3,2.737,2.737,0,0,1,8.148-.684a4.891,4.891,0,0,1-3.008.84A5.808,5.808,0,0,1,2.75-.324,3.783,3.783,0,0,1,1.105-1.641,3.371,3.371,0,0,1,.539-3.578H2.891q0,1.883,2.25,1.883a2.189,2.189,0,0,0,1.3-.34A1.106,1.106,0,0,0,6.914-2.984ZM15.766-.859A2.831,2.831,0,0,1,13.453.156a2.67,2.67,0,0,1-2.074-.781,3.335,3.335,0,0,1-.73-2.289V-8.453h2.258v5.467q0,1.322,1.2,1.322a1.63,1.63,0,0,0,1.578-.8V-8.453h2.266V0H15.828Zm8.469-1.477a.727.727,0,0,0-.41-.652,4.659,4.659,0,0,0-1.316-.426q-3.016-.633-3.016-2.562a2.323,2.323,0,0,1,.934-1.879,3.766,3.766,0,0,1,2.441-.754,4.053,4.053,0,0,1,2.574.758,2.388,2.388,0,0,1,.965,1.969H24.148a1.092,1.092,0,0,0-.312-.8A1.322,1.322,0,0,0,22.859-7a1.351,1.351,0,0,0-.883.258.814.814,0,0,0-.312.656.7.7,0,0,0,.355.605,3.657,3.657,0,0,0,1.2.4,9.8,9.8,0,0,1,1.422.379A2.336,2.336,0,0,1,26.43-2.43a2.2,2.2,0,0,1-.992,1.871,4.28,4.28,0,0,1-2.562.715,4.47,4.47,0,0,1-1.887-.379A3.166,3.166,0,0,1,19.7-1.262a2.414,2.414,0,0,1-.469-1.426h2.141a1.179,1.179,0,0,0,.445.922,1.766,1.766,0,0,0,1.109.32,1.635,1.635,0,0,0,.98-.246A.766.766,0,0,0,24.234-2.336Zm6.352-8.2v2.078h1.445V-6.8H30.586v4.219a1.007,1.007,0,0,0,.18.672.9.9,0,0,0,.688.2,3.6,3.6,0,0,0,.664-.055V-.047a4.648,4.648,0,0,1-1.367.2,2.156,2.156,0,0,1-2.422-2.4V-6.8H27.094V-8.453h1.234v-2.078ZM35.672,0H33.406V-8.453h2.266Zm-2.4-10.641a1.112,1.112,0,0,1,.34-.836,1.277,1.277,0,0,1,.926-.328,1.28,1.28,0,0,1,.922.328,1.105,1.105,0,0,1,.344.836,1.108,1.108,0,0,1-.348.844,1.283,1.283,0,0,1-.918.328,1.283,1.283,0,0,1-.918-.328A1.108,1.108,0,0,1,33.273-10.641Zm6.961.109v2.078H41.68V-6.8H40.234v4.219a1.007,1.007,0,0,0,.18.672.9.9,0,0,0,.688.2,3.6,3.6,0,0,0,.664-.055V-.047a4.648,4.648,0,0,1-1.367.2,2.156,2.156,0,0,1-2.422-2.4V-6.8H36.742V-8.453h1.234v-2.078ZM48-.859A2.831,2.831,0,0,1,45.688.156a2.67,2.67,0,0,1-2.074-.781,3.335,3.335,0,0,1-.73-2.289V-8.453h2.258v5.467q0,1.322,1.2,1.322a1.63,1.63,0,0,0,1.578-.8V-8.453h2.266V0H48.063ZM55.047-3.2l1.563-5.258h2.422l-3.4,9.766-.187.445a2.577,2.577,0,0,1-2.5,1.656,3.552,3.552,0,0,1-1-.148V1.555l.344.008a1.857,1.857,0,0,0,.957-.2,1.283,1.283,0,0,0,.5-.648l.266-.7L51.047-8.453h2.43ZM63.813.156A4.15,4.15,0,0,1,60.785-.984a4.054,4.054,0,0,1-1.168-3.039v-.219a5.106,5.106,0,0,1,.492-2.277A3.612,3.612,0,0,1,61.5-8.066a3.914,3.914,0,0,1,2.059-.543,3.508,3.508,0,0,1,2.73,1.094,4.444,4.444,0,0,1,1,3.1v.922H61.906a2.1,2.1,0,0,0,.66,1.328,2,2,0,0,0,1.395.5A2.437,2.437,0,0,0,66-2.609l1.109,1.242A3.389,3.389,0,0,1,65.734-.246,4.511,4.511,0,0,1,63.813.156Zm-.258-6.945a1.411,1.411,0,0,0-1.09.455,2.357,2.357,0,0,0-.535,1.3H65.07v-.181a1.681,1.681,0,0,0-.406-1.165A1.456,1.456,0,0,0,63.555-6.789Zm7.094-1.664.07.977a2.951,2.951,0,0,1,2.43-1.133,2.453,2.453,0,0,1,2,.789,3.682,3.682,0,0,1,.672,2.359V0H73.563V-5.406a1.465,1.465,0,0,0-.312-1.043,1.4,1.4,0,0,0-1.039-.324,1.553,1.553,0,0,0-1.43.813V0H68.523V-8.453ZM77.18-4.289a5.094,5.094,0,0,1,.887-3.148,2.877,2.877,0,0,1,2.426-1.172,2.589,2.589,0,0,1,2.039.922V-12H84.8V0H82.758l-.109-.9A2.657,2.657,0,0,1,80.477.156,2.869,2.869,0,0,1,78.082-1.02,5.258,5.258,0,0,1,77.18-4.289Zm2.258.168A3.337,3.337,0,0,0,79.852-2.3a1.349,1.349,0,0,0,1.2.634,1.511,1.511,0,0,0,1.477-.884V-5.889a1.489,1.489,0,0,0-1.461-.884Q79.438-6.773,79.438-4.121ZM86.2-4.3a5.013,5.013,0,0,1,.484-2.242A3.546,3.546,0,0,1,88.074-8.07a4.069,4.069,0,0,1,2.113-.539A3.849,3.849,0,0,1,92.98-7.562a4.2,4.2,0,0,1,1.207,2.844l.016.578A4.418,4.418,0,0,1,93.117-1.02,3.775,3.775,0,0,1,90.2.156a3.793,3.793,0,0,1-2.918-1.172A4.5,4.5,0,0,1,86.2-4.2Zm2.258.16A3.16,3.16,0,0,0,88.906-2.3a1.5,1.5,0,0,0,1.3.638,1.5,1.5,0,0,0,1.281-.63,3.457,3.457,0,0,0,.461-2.015,3.128,3.128,0,0,0-.461-1.831,1.5,1.5,0,0,0-1.3-.649,1.474,1.474,0,0,0-1.281.646A3.516,3.516,0,0,0,88.453-4.144ZM95.7-1.109a1.137,1.137,0,0,1,.363-.875,1.289,1.289,0,0,1,.91-.336,1.3,1.3,0,0,1,.918.336,1.137,1.137,0,0,1,.363.875,1.121,1.121,0,0,1-.359.863,1.305,1.305,0,0,1-.922.332,1.294,1.294,0,0,1-.914-.332A1.121,1.121,0,0,1,95.7-1.109Zm0-6.4a1.137,1.137,0,0,1,.363-.875,1.289,1.289,0,0,1,.91-.336,1.3,1.3,0,0,1,.918.336,1.137,1.137,0,0,1,.363.875,1.121,1.121,0,0,1-.359.863,1.305,1.305,0,0,1-.922.332,1.294,1.294,0,0,1-.914-.332A1.121,1.121,0,0,1,95.7-7.508Z" transform="translate(-5009 -10013)" fill="#12263f"/>
    <path id="Trazado_899237" data-name="Trazado 899237" d="M5.086-1.992l3.25-9.383H9.977L5.758,0H4.43L.219-11.375H1.852ZM37.031-3.82h1.578v1.18H37.031V0H35.578V-2.641H30.4v-.852l5.094-7.883h1.539Zm-4.992,0h3.539V-9.4l-.172.313ZM40.094-.758a.905.905,0,0,1,.223-.625.848.848,0,0,1,.668-.25.874.874,0,0,1,.676.25.887.887,0,0,1,.23.625.839.839,0,0,1-.23.6.89.89,0,0,1-.676.242.863.863,0,0,1-.668-.242A.855.855,0,0,1,40.094-.758Zm4.7-4.945.578-5.672H51.2v1.336h-4.6l-.344,3.1a3.671,3.671,0,0,1,1.9-.492A3.138,3.138,0,0,1,50.617-6.4a4.026,4.026,0,0,1,.914,2.777,3.886,3.886,0,0,1-.949,2.77A3.46,3.46,0,0,1,47.93.156,3.6,3.6,0,0,1,45.469-.68a3.337,3.337,0,0,1-1.086-2.312H45.75a2.3,2.3,0,0,0,.7,1.473,2.162,2.162,0,0,0,1.484.5,1.95,1.95,0,0,0,1.582-.687,2.874,2.874,0,0,0,.574-1.9,2.638,2.638,0,0,0-.621-1.832,2.113,2.113,0,0,0-1.652-.691,2.383,2.383,0,0,0-1.484.414l-.383.313Zm15.82,3.7,4.617-9.367h1.656L61.008,0h-1.3l-2.3-11.375h1.539Z" transform="translate(-4978 -9984)" fill="#12263f"/>
    <path id="Trazado_898895" data-name="Trazado 898895" d="M-3842.051-10039.182h14.605" transform="translate(-1137 60)" fill="none" stroke="#000" stroke-width="1"/>
    <path id="Trazado_899243" data-name="Trazado 899243" d="M5.492-4.6H2.82V0H1.313V-11.375H5.078a4.457,4.457,0,0,1,2.957.875A3.148,3.148,0,0,1,9.07-7.953,3.062,3.062,0,0,1,8.5-6.1a3.428,3.428,0,0,1-1.6,1.18L9.57-.094V0H7.961ZM2.82-5.828h2.3A2.6,2.6,0,0,0,6.9-6.407a1.959,1.959,0,0,0,.66-1.55,2.062,2.062,0,0,0-.629-1.62,2.663,2.663,0,0,0-1.816-.571H2.82Z" transform="translate(-4977 -9961)" fill="#12263f"/>
    <path id="Trazado_898896" data-name="Trazado 898896" d="M-3842.051-10039.182h43.883" transform="translate(-1106.449 60)" fill="none" stroke="#000" stroke-width="1"/>
    <path id="Trazado_899244" data-name="Trazado 899244" d="M10.445-5a3.536,3.536,0,0,1-1.082.867A2.936,2.936,0,0,1,7.984-3.8,3.031,3.031,0,0,1,6.27-4.289,3.149,3.149,0,0,1,5.141-5.652a4.648,4.648,0,0,1-.4-1.941,4.735,4.735,0,0,1,.434-2.055,3.185,3.185,0,0,1,1.23-1.4,3.509,3.509,0,0,1,1.859-.484,3.177,3.177,0,0,1,2.66,1.262A5.5,5.5,0,0,1,11.9-6.828v.422q0,3.32-1.312,4.848A5.043,5.043,0,0,1,6.625.008H6.344V-1.219h.3A3.979,3.979,0,0,0,9.4-2.15,4,4,0,0,0,10.445-5ZM8.219-5a2.232,2.232,0,0,0,1.34-.445,2.625,2.625,0,0,0,.895-1.1v-.578a3.977,3.977,0,0,0-.617-2.312,1.842,1.842,0,0,0-1.562-.891,1.856,1.856,0,0,0-1.531.73,3.013,3.013,0,0,0-.578,1.926,3.136,3.136,0,0,0,.559,1.918A1.769,1.769,0,0,0,8.219-5Zm12.8.148a6.61,6.61,0,0,1-.867,3.773A3.084,3.084,0,0,1,17.445.156a3.107,3.107,0,0,1-2.7-1.207,6.274,6.274,0,0,1-.906-3.605v-1.93a6.463,6.463,0,0,1,.867-3.727,3.108,3.108,0,0,1,2.719-1.219,3.136,3.136,0,0,1,2.7,1.176,6.237,6.237,0,0,1,.891,3.629ZM19.578-6.828A5.3,5.3,0,0,0,19.063-9.5a1.775,1.775,0,0,0-1.633-.84,1.751,1.751,0,0,0-1.617.836,5.171,5.171,0,0,0-.523,2.57v2.313A5.381,5.381,0,0,0,15.824-1.9a1.771,1.771,0,0,0,1.621.879,1.747,1.747,0,0,0,1.59-.828,5.186,5.186,0,0,0,.543-2.609Zm8.109,5.563a2.4,2.4,0,0,0,1.68-1.321,6.349,6.349,0,0,0,.625-2.94V-6.575a4.389,4.389,0,0,0-.758-2.768,2.5,2.5,0,0,0-2.078-.962,2.465,2.465,0,0,0-2.07.977,4.464,4.464,0,0,0-.75,2.768v.884a6.479,6.479,0,0,0,.613,3.034A2.464,2.464,0,0,0,26.7-1.266V0H22.852V-1.227h1.727a5.5,5.5,0,0,1-1.3-2,6.715,6.715,0,0,1-.469-2.465v-.867a5.891,5.891,0,0,1,.551-2.594,4.149,4.149,0,0,1,1.543-1.762,4.152,4.152,0,0,1,2.25-.621,4.178,4.178,0,0,1,2.238.609A4.143,4.143,0,0,1,30.938-9.2a5.769,5.769,0,0,1,.578,2.516v1.016a6.675,6.675,0,0,1-.469,2.449,5.5,5.5,0,0,1-1.3,2h1.719V0H27.688Z" transform="translate(-4948 -9961)" fill="#12263f"/>
    <path id="Trazado_899238" data-name="Trazado 899238" d="M2.031,0H.57L2.547-11.375H4.008Zm13.93-6.359H9.445V-7.617h6.516Zm0,3.242H9.445v-1.25h6.516Z" transform="translate(-5005 -9974)" fill="#12263f"/>
    <path id="Trazado_899239" data-name="Trazado 899239" d="M7.7-6.359H1.188V-7.617H7.7Zm0,3.242H1.188v-1.25H7.7Z" transform="translate(-4893 -9974)" fill="#12263f"/>
    <path id="Trazado_899240" data-name="Trazado 899240" d="M8.078-4.852a6.61,6.61,0,0,1-.867,3.773A3.084,3.084,0,0,1,4.5.156,3.107,3.107,0,0,1,1.8-1.051,6.274,6.274,0,0,1,.9-4.656v-1.93a6.463,6.463,0,0,1,.867-3.727,3.108,3.108,0,0,1,2.719-1.219,3.136,3.136,0,0,1,2.7,1.176,6.237,6.237,0,0,1,.891,3.629ZM6.633-6.828A5.3,5.3,0,0,0,6.117-9.5a1.775,1.775,0,0,0-1.633-.84,1.751,1.751,0,0,0-1.617.836,5.171,5.171,0,0,0-.523,2.57v2.313A5.381,5.381,0,0,0,2.879-1.9,1.771,1.771,0,0,0,4.5-1.023a1.747,1.747,0,0,0,1.59-.828,5.186,5.186,0,0,0,.543-2.609Zm3.477,6.07a.905.905,0,0,1,.223-.625A.848.848,0,0,1,11-1.633a.874.874,0,0,1,.676.25.887.887,0,0,1,.23.625.839.839,0,0,1-.23.6A.89.89,0,0,1,11,.086a.863.863,0,0,1-.668-.242A.855.855,0,0,1,10.109-.758ZM21.273-4.852a6.61,6.61,0,0,1-.867,3.773A3.084,3.084,0,0,1,17.7.156,3.107,3.107,0,0,1,15-1.051a6.274,6.274,0,0,1-.906-3.605v-1.93a6.463,6.463,0,0,1,.867-3.727,3.108,3.108,0,0,1,2.719-1.219,3.136,3.136,0,0,1,2.7,1.176,6.237,6.237,0,0,1,.891,3.629ZM19.828-6.828A5.3,5.3,0,0,0,19.313-9.5a1.775,1.775,0,0,0-1.633-.84,1.751,1.751,0,0,0-1.617.836,5.171,5.171,0,0,0-.523,2.57v2.313A5.381,5.381,0,0,0,16.074-1.9a1.771,1.771,0,0,0,1.621.879,1.747,1.747,0,0,0,1.59-.828,5.186,5.186,0,0,0,.543-2.609ZM23.789-5.7l.578-5.672H30.2v1.336h-4.6l-.344,3.1a3.671,3.671,0,0,1,1.9-.492A3.138,3.138,0,0,1,29.617-6.4a4.026,4.026,0,0,1,.914,2.777,3.886,3.886,0,0,1-.949,2.77A3.46,3.46,0,0,1,26.93.156,3.6,3.6,0,0,1,24.469-.68a3.337,3.337,0,0,1-1.086-2.312H24.75a2.3,2.3,0,0,0,.7,1.473,2.162,2.162,0,0,0,1.484.5,1.95,1.95,0,0,0,1.582-.687,2.874,2.874,0,0,0,.574-1.9,2.638,2.638,0,0,0-.621-1.832,2.113,2.113,0,0,0-1.652-.691,2.383,2.383,0,0,0-1.484.414l-.383.313ZM42.727-2.977H37.961L36.891,0H35.344l4.344-11.375H41L45.352,0H43.813ZM38.414-4.2h3.867l-1.937-5.32Z" transform="translate(-4873 -9974)" fill="#12263f"/>
  </g>
</svg>
