<svg xmlns="http://www.w3.org/2000/svg" width="420" height="424" viewBox="0 0 420 424">
  <g id="Grupo_1108806" data-name="Grupo 1108806" transform="translate(-265.051 -2377)">
    <path id="Trazado_899251" data-name="Trazado 899251" d="M0,0H420V424H0Z" transform="translate(265.051 2377)" fill="#f4c0c0"/>
    <path id="Trazado_898907" data-name="Trazado 898907" d="M-4239.062-9182.8v-18.061H-4300" transform="translate(4761.051 11608)" fill="none" stroke="#000" stroke-width="3"/>
    <path id="Trazado_898908" data-name="Trazado 898908" d="M-4193.854-9202.144v30.529H-4300v-364.8h29.7" transform="translate(4715.842 11943.56)" fill="none" stroke="#000" stroke-width="3"/>
    <path id="Trazado_898913" data-name="Trazado 898913" d="M-4249.752-9209.859h14.453l6.706-16.7,4.688,26.589,6.9-23.133,4.063,23.133,8.794-23.133,6.224,13.239h10.516" transform="translate(-8688.271 6674.954) rotate(90)" fill="none" stroke="red" stroke-width="3"/>
    <path id="Trazado_899231" data-name="Trazado 899231" d="M-4249.752-9209.859h14.453l6.706-16.7,4.688,26.589,6.9-23.133,4.063,23.133,8.794-23.133,6.224,13.239h10.516" transform="translate(-8688.271 6837.527) rotate(90)" fill="none" stroke="red" stroke-width="3"/>
    <path id="Trazado_899232" data-name="Trazado 899232" d="M-4249.752-9209.859h14.453l6.706-16.7,4.688,26.589,6.9-23.133,4.063,23.133,8.794-23.133,6.224,13.239h10.516" transform="translate(-8688.271 6933.527) rotate(90)" fill="none" stroke="red" stroke-width="3"/>
    <path id="Trazado_899233" data-name="Trazado 899233" d="M-4837.062-9439.156v33.66" transform="translate(5359.051 12089.271)" fill="none" stroke="#000" stroke-width="3"/>
    <path id="Trazado_899234" data-name="Trazado 899234" d="M-4837.062-9439.156v24.721" transform="translate(5359.051 12003.741)" fill="none" stroke="#000" stroke-width="3"/>
    <path id="Trazado_899235" data-name="Trazado 899235" d="M-4249.752-9209.859h14.453l6.706-16.7,4.688,26.589,6.9-23.133,4.063,23.133,8.794-23.133,6.224,13.239h10.516" transform="translate(-8688.271 6752.527) rotate(90)" fill="none" stroke="red" stroke-width="3"/>
    <path id="Trazado_899236" data-name="Trazado 899236" d="M-4837.062-9439.156v19.906" transform="translate(5359.051 11925.741)" fill="none" stroke="#000" stroke-width="3"/>
    <path id="Trazado_899237" data-name="Trazado 899237" d="M-4915.338-9675.67v19.113" transform="translate(5360.051 12074)" fill="none" stroke="#000" stroke-width="3"/>
    <path id="Trazado_899238" data-name="Trazado 899238" d="M-4915.338-9675.67v19.113" transform="translate(5376.389 12074)" fill="none" stroke="#000" stroke-width="3"/>
    <path id="Trazado_899252" data-name="Trazado 899252" d="M7.7-6.359H1.188V-7.617H7.7Zm0,3.242H1.188v-1.25H7.7ZM18.438,0H16.984V-9.633L14.07-8.562V-9.875l4.141-1.555h.227Zm4.9-5.7.578-5.672h5.828v1.336h-4.6l-.344,3.1a3.671,3.671,0,0,1,1.9-.492A3.138,3.138,0,0,1,29.164-6.4a4.026,4.026,0,0,1,.914,2.777,3.886,3.886,0,0,1-.949,2.77A3.46,3.46,0,0,1,26.477.156,3.6,3.6,0,0,1,24.016-.68,3.337,3.337,0,0,1,22.93-2.992H24.3a2.3,2.3,0,0,0,.7,1.473,2.162,2.162,0,0,0,1.484.5,1.95,1.95,0,0,0,1.582-.687,2.874,2.874,0,0,0,.574-1.9,2.638,2.638,0,0,0-.621-1.832,2.113,2.113,0,0,0-1.652-.691,2.383,2.383,0,0,0-1.484.414l-.383.313ZM40.43-1.266a2.4,2.4,0,0,0,1.68-1.321,6.349,6.349,0,0,0,.625-2.94V-6.575a4.389,4.389,0,0,0-.758-2.768A2.5,2.5,0,0,0,39.9-10.3a2.465,2.465,0,0,0-2.07.977,4.464,4.464,0,0,0-.75,2.768v.884a6.479,6.479,0,0,0,.613,3.034,2.464,2.464,0,0,0,1.746,1.376V0H35.594V-1.227H37.32a5.5,5.5,0,0,1-1.3-2,6.715,6.715,0,0,1-.469-2.465v-.867a5.891,5.891,0,0,1,.551-2.594,4.149,4.149,0,0,1,1.543-1.762,4.152,4.152,0,0,1,2.25-.621,4.178,4.178,0,0,1,2.238.609A4.143,4.143,0,0,1,43.68-9.2a5.769,5.769,0,0,1,.578,2.516v1.016a6.675,6.675,0,0,1-.469,2.449,5.5,5.5,0,0,1-1.3,2h1.719V0H40.43Z" transform="translate(547.051 2468)" fill="#12263f"/>
    <path id="Trazado_899253" data-name="Trazado 899253" d="M7.7-6.359H1.188V-7.617H7.7Zm0,3.242H1.188v-1.25H7.7ZM18.438,0H16.984V-9.633L14.07-8.562V-9.875l4.141-1.555h.227ZM29.8-4.852a6.61,6.61,0,0,1-.867,3.773A3.084,3.084,0,0,1,26.227.156a3.107,3.107,0,0,1-2.7-1.207,6.274,6.274,0,0,1-.906-3.605v-1.93a6.463,6.463,0,0,1,.867-3.727,3.108,3.108,0,0,1,2.719-1.219,3.136,3.136,0,0,1,2.7,1.176A6.237,6.237,0,0,1,29.8-6.727ZM28.359-6.828A5.3,5.3,0,0,0,27.844-9.5a1.775,1.775,0,0,0-1.633-.84,1.751,1.751,0,0,0-1.617.836,5.171,5.171,0,0,0-.523,2.57v2.313A5.381,5.381,0,0,0,24.605-1.9a1.771,1.771,0,0,0,1.621.879,1.747,1.747,0,0,0,1.59-.828,5.186,5.186,0,0,0,.543-2.609ZM40.43-1.266a2.4,2.4,0,0,0,1.68-1.321,6.349,6.349,0,0,0,.625-2.94V-6.575a4.389,4.389,0,0,0-.758-2.768A2.5,2.5,0,0,0,39.9-10.3a2.465,2.465,0,0,0-2.07.977,4.464,4.464,0,0,0-.75,2.768v.884a6.479,6.479,0,0,0,.613,3.034,2.464,2.464,0,0,0,1.746,1.376V0H35.594V-1.227H37.32a5.5,5.5,0,0,1-1.3-2,6.715,6.715,0,0,1-.469-2.465v-.867a5.891,5.891,0,0,1,.551-2.594,4.149,4.149,0,0,1,1.543-1.762,4.152,4.152,0,0,1,2.25-.621,4.178,4.178,0,0,1,2.238.609A4.143,4.143,0,0,1,43.68-9.2a5.769,5.769,0,0,1,.578,2.516v1.016a6.675,6.675,0,0,1-.469,2.449,5.5,5.5,0,0,1-1.3,2h1.719V0H40.43Z" transform="translate(547.051 2539)" fill="#12263f"/>
    <path id="Trazado_899254" data-name="Trazado 899254" d="M7.7-6.359H1.188V-7.617H7.7Zm0,3.242H1.188v-1.25H7.7ZM14.352-5.7l.578-5.672h5.828v1.336h-4.6l-.344,3.1a3.671,3.671,0,0,1,1.9-.492A3.138,3.138,0,0,1,20.18-6.4a4.026,4.026,0,0,1,.914,2.777,3.886,3.886,0,0,1-.949,2.77A3.46,3.46,0,0,1,17.492.156,3.6,3.6,0,0,1,15.031-.68a3.337,3.337,0,0,1-1.086-2.312h1.367a2.3,2.3,0,0,0,.7,1.473,2.162,2.162,0,0,0,1.484.5,1.95,1.95,0,0,0,1.582-.687,2.874,2.874,0,0,0,.574-1.9,2.638,2.638,0,0,0-.621-1.832,2.113,2.113,0,0,0-1.652-.691,2.383,2.383,0,0,0-1.484.414l-.383.313ZM31.445-1.266a2.4,2.4,0,0,0,1.68-1.321,6.349,6.349,0,0,0,.625-2.94V-6.575a4.389,4.389,0,0,0-.758-2.768,2.5,2.5,0,0,0-2.078-.962,2.465,2.465,0,0,0-2.07.977,4.464,4.464,0,0,0-.75,2.768v.884a6.479,6.479,0,0,0,.613,3.034,2.464,2.464,0,0,0,1.746,1.376V0H26.609V-1.227h1.727a5.5,5.5,0,0,1-1.3-2,6.715,6.715,0,0,1-.469-2.465v-.867a5.891,5.891,0,0,1,.551-2.594,4.149,4.149,0,0,1,1.543-1.762,4.152,4.152,0,0,1,2.25-.621,4.178,4.178,0,0,1,2.238.609A4.143,4.143,0,0,1,34.7-9.2a5.769,5.769,0,0,1,.578,2.516v1.016A6.675,6.675,0,0,1,34.8-3.223a5.5,5.5,0,0,1-1.3,2h1.719V0H31.445Z" transform="translate(547.051 2624)" fill="#12263f"/>
    <path id="Trazado_899255" data-name="Trazado 899255" d="M7.7-6.359H1.188V-7.617H7.7Zm0,3.242H1.188v-1.25H7.7ZM21.141,0H13.688V-1.039l3.938-4.375a9.354,9.354,0,0,0,1.207-1.613,2.693,2.693,0,0,0,.332-1.285,2.041,2.041,0,0,0-.539-1.461,1.885,1.885,0,0,0-1.437-.57,2.232,2.232,0,0,0-1.676.613,2.343,2.343,0,0,0-.6,1.707H13.469a3.355,3.355,0,0,1,1.012-2.539,3.751,3.751,0,0,1,2.707-.969A3.6,3.6,0,0,1,19.7-10.7a2.838,2.838,0,0,1,.922,2.215q0,1.68-2.141,4L15.43-1.18h5.711ZM29.8-4.852a6.61,6.61,0,0,1-.867,3.773A3.084,3.084,0,0,1,26.227.156a3.107,3.107,0,0,1-2.7-1.207,6.274,6.274,0,0,1-.906-3.605v-1.93a6.463,6.463,0,0,1,.867-3.727,3.108,3.108,0,0,1,2.719-1.219,3.136,3.136,0,0,1,2.7,1.176A6.237,6.237,0,0,1,29.8-6.727ZM28.359-6.828A5.3,5.3,0,0,0,27.844-9.5a1.775,1.775,0,0,0-1.633-.84,1.751,1.751,0,0,0-1.617.836,5.171,5.171,0,0,0-.523,2.57v2.313A5.381,5.381,0,0,0,24.605-1.9a1.771,1.771,0,0,0,1.621.879,1.747,1.747,0,0,0,1.59-.828,5.186,5.186,0,0,0,.543-2.609ZM40.43-1.266a2.4,2.4,0,0,0,1.68-1.321,6.349,6.349,0,0,0,.625-2.94V-6.575a4.389,4.389,0,0,0-.758-2.768A2.5,2.5,0,0,0,39.9-10.3a2.465,2.465,0,0,0-2.07.977,4.464,4.464,0,0,0-.75,2.768v.884a6.479,6.479,0,0,0,.613,3.034,2.464,2.464,0,0,0,1.746,1.376V0H35.594V-1.227H37.32a5.5,5.5,0,0,1-1.3-2,6.715,6.715,0,0,1-.469-2.465v-.867a5.891,5.891,0,0,1,.551-2.594,4.149,4.149,0,0,1,1.543-1.762,4.152,4.152,0,0,1,2.25-.621,4.178,4.178,0,0,1,2.238.609A4.143,4.143,0,0,1,43.68-9.2a5.769,5.769,0,0,1,.578,2.516v1.016a6.675,6.675,0,0,1-.469,2.449,5.5,5.5,0,0,1-1.3,2h1.719V0H40.43Z" transform="translate(547.051 2720)" fill="#12263f"/>
    <path id="Trazado_899256" data-name="Trazado 899256" d="M1.039-4.617a12.079,12.079,0,0,1,.473-3.391,9.85,9.85,0,0,1,1.41-2.953,6,6,0,0,1,1.945-1.875l.3.953A6.222,6.222,0,0,0,3.293-9.211a11.583,11.583,0,0,0-.8,4.023l-.008.664A11.643,11.643,0,0,0,3.586.711,6.252,6.252,0,0,0,5.164,2.789l-.3.883A6.192,6.192,0,0,1,2.883,1.734,10.859,10.859,0,0,1,1.039-4.617ZM10.7-6.1h3.172v1.367H10.7v3.594H9.25V-4.734H6.078V-6.1H9.25v-3.32H10.7Zm8.266,1.563a12.084,12.084,0,0,1-.457,3.34,9.876,9.876,0,0,1-1.4,2.949,6.127,6.127,0,0,1-1.973,1.922l-.3-.883A6.281,6.281,0,0,0,16.77-.074a12.387,12.387,0,0,0,.746-4.309v-.25a12.861,12.861,0,0,0-.344-3.051,10.3,10.3,0,0,0-.957-2.527,5.838,5.838,0,0,0-1.379-1.742l.3-.883a6.1,6.1,0,0,1,1.965,1.906,9.9,9.9,0,0,1,1.4,2.945A12.363,12.363,0,0,1,18.969-4.539ZM30.68-11.383v1.227h-.266a3.805,3.805,0,0,0-2.687,1A4.161,4.161,0,0,0,26.57-6.43a3.085,3.085,0,0,1,2.453-1.031,2.95,2.95,0,0,1,2.371,1.047,4.038,4.038,0,0,1,.887,2.7A4.025,4.025,0,0,1,31.324-.9,3.3,3.3,0,0,1,28.758.156,3.247,3.247,0,0,1,26.109-1.1a4.97,4.97,0,0,1-1.016-3.23v-.555a7.488,7.488,0,0,1,1.34-4.8,4.921,4.921,0,0,1,3.988-1.7Zm-1.9,5.125a2.306,2.306,0,0,0-1.367.445A2.32,2.32,0,0,0,26.547-4.7v.531A3.731,3.731,0,0,0,27.18-1.9a1.9,1.9,0,0,0,1.578.859,1.838,1.838,0,0,0,1.535-.719,2.982,2.982,0,0,0,.559-1.883,2.983,2.983,0,0,0-.566-1.895A1.816,1.816,0,0,0,28.781-6.258ZM41.125-4.852a6.61,6.61,0,0,1-.867,3.773A3.084,3.084,0,0,1,37.547.156a3.107,3.107,0,0,1-2.7-1.207,6.274,6.274,0,0,1-.906-3.605v-1.93a6.463,6.463,0,0,1,.867-3.727,3.108,3.108,0,0,1,2.719-1.219,3.136,3.136,0,0,1,2.7,1.176,6.237,6.237,0,0,1,.891,3.629ZM39.68-6.828A5.3,5.3,0,0,0,39.164-9.5a1.775,1.775,0,0,0-1.633-.84,1.751,1.751,0,0,0-1.617.836,5.171,5.171,0,0,0-.523,2.57v2.313A5.381,5.381,0,0,0,35.926-1.9a1.771,1.771,0,0,0,1.621.879,1.747,1.747,0,0,0,1.59-.828,5.186,5.186,0,0,0,.543-2.609Zm11.4,4.836,3.25-9.383h1.641L51.75,0H50.422L46.211-11.375h1.633ZM61.172-4.617a12.079,12.079,0,0,1,.473-3.391,9.85,9.85,0,0,1,1.41-2.953A6,6,0,0,1,65-12.836l.3.953a6.222,6.222,0,0,0-1.871,2.672,11.583,11.583,0,0,0-.8,4.023l-.008.664a11.643,11.643,0,0,0,1.1,5.234A6.252,6.252,0,0,0,65.3,2.789l-.3.883a6.192,6.192,0,0,1-1.984-1.937A10.859,10.859,0,0,1,61.172-4.617Zm12.492.375H69.852v-1.18h3.813Zm8.7-.3A12.084,12.084,0,0,1,81.91-1.2a9.876,9.876,0,0,1-1.4,2.949,6.127,6.127,0,0,1-1.973,1.922l-.3-.883A6.281,6.281,0,0,0,80.168-.074a12.387,12.387,0,0,0,.746-4.309v-.25a12.861,12.861,0,0,0-.344-3.051,10.3,10.3,0,0,0-.957-2.527,5.838,5.838,0,0,0-1.379-1.742l.3-.883A6.1,6.1,0,0,1,80.5-10.93a9.9,9.9,0,0,1,1.4,2.945A12.363,12.363,0,0,1,82.367-4.539Z" transform="translate(291.051 2423)" fill="#12263f"/>
  </g>
</svg>
