<svg xmlns="http://www.w3.org/2000/svg" width="400" height="276" viewBox="0 0 400 276">
  <g id="Grupo_1108799" data-name="Grupo 1108799" transform="translate(6462 7425)">
    <path id="Trazado_899231" data-name="Trazado 899231" d="M0,0H400V276H0Z" transform="translate(-6462 -7425)" fill="#f4c0c0"/>
    <path id="Trazado_898953" data-name="Trazado 898953" d="M-3694.5-8424.692v-59.4h312.4v65.126" transform="translate(-2725 1093)" fill="none" stroke="#000" stroke-width="3"/>
    <path id="Trazado_898954" data-name="Trazado 898954" d="M-4249.752-9209.859h14.453l6.706-16.7,4.688,26.589,6.9-23.133,4.063,23.133,8.794-23.133,6.224,13.239h10.516" transform="translate(-15317.359 -3078.588) rotate(90)" fill="none" stroke="red" stroke-width="3"/>
    <path id="Trazado_898955" data-name="Trazado 898955" d="M-7827.068-9340.49h26.643" transform="translate(1394.682 2017.616)" fill="none" stroke="#ff2c29" stroke-width="3"/>
    <path id="Trazado_898956" data-name="Trazado 898956" d="M-7827.068-9340.49h39.772" transform="translate(1387.682 2010.364)" fill="none" stroke="#ff2c29" stroke-width="3"/>
    <path id="Trazado_898957" data-name="Trazado 898957" d="M-7827.067-9340.49h47.8" transform="translate(1384.175 2024.868)" fill="none" stroke="#ff2c29" stroke-width="2"/>
    <path id="Trazado_898958" data-name="Trazado 898958" d="M-7827.068-9340.49h26.643" transform="translate(1394.682 2032.12)" fill="none" stroke="#ff2c29" stroke-width="3"/>
    <path id="Trazado_898959" data-name="Trazado 898959" d="M-3694.065-8392.684v34.229" transform="translate(-2725 1093)" fill="none" stroke="#000" stroke-width="3"/>
    <path id="Trazado_898960" data-name="Trazado 898960" d="M-3694.5-8510.466v73.965h312.4v-73.965" transform="translate(-2725 1244.001)" fill="none" stroke="#000" stroke-width="3"/>
    <path id="Trazado_898961" data-name="Trazado 898961" d="M-7827.068-9340.49h26.643" transform="translate(1394.682 2083.742)" fill="none" stroke="#ff2c29" stroke-width="3"/>
    <path id="Trazado_898962" data-name="Trazado 898962" d="M-7827.068-9340.49h39.772" transform="translate(1387.682 2076.49)" fill="none" stroke="#ff2c29" stroke-width="3"/>
    <path id="Trazado_898963" data-name="Trazado 898963" d="M-7827.067-9340.49h47.8" transform="translate(1384.175 2090.994)" fill="none" stroke="#ff2c29" stroke-width="2"/>
    <path id="Trazado_898964" data-name="Trazado 898964" d="M-7827.068-9340.49h26.643" transform="translate(1394.682 2098.246)" fill="none" stroke="#ff2c29" stroke-width="3"/>
    <path id="Trazado_899232" data-name="Trazado 899232" d="M8.506-9.915H13.66v2.222H8.506v5.84H6.145v-5.84H.99V-9.915H6.145v-5.4H8.506Z" transform="translate(-6410 -7341)" fill="#12263f"/>
    <path id="Trazado_899233" data-name="Trazado 899233" d="M6.31-3.187l3.4-10.55h2.4L7.186,0H5.4L.419-13.736h2.4Z" transform="translate(-6442 -7283)" fill="#12263f"/>
    <path id="Trazado_899234" data-name="Trazado 899234" d="M8.506-9.915H13.66v2.222H8.506v5.84H6.145v-5.84H.99V-9.915H6.145v-5.4H8.506Z" transform="translate(-6410 -7272)" fill="#12263f"/>
    <path id="Trazado_899238" data-name="Trazado 899238" d="M6.31-3.187l3.4-10.55h2.4L7.186,0H5.4L.419-13.736h2.4Z" transform="translate(-6442 -7218)" fill="#12263f"/>
    <path id="Trazado_899235" data-name="Trazado 899235" d="M5.086-1.992l3.25-9.383H9.977L5.758,0H4.43L.219-11.375H1.852ZM15.875,0H14.422V-9.633l-2.914,1.07V-9.875l4.141-1.555h.227ZM27.227-4.242H23.414v-1.18h3.813ZM37.2,0H35.742V-9.633l-2.914,1.07V-9.875l4.141-1.555H37.2ZM48.883,0H41.43V-1.039l3.938-4.375a9.355,9.355,0,0,0,1.207-1.613,2.693,2.693,0,0,0,.332-1.285,2.041,2.041,0,0,0-.539-1.461,1.885,1.885,0,0,0-1.437-.57,2.232,2.232,0,0,0-1.676.613,2.343,2.343,0,0,0-.6,1.707H41.211a3.355,3.355,0,0,1,1.012-2.539,3.751,3.751,0,0,1,2.707-.969,3.6,3.6,0,0,1,2.508.832,2.838,2.838,0,0,1,.922,2.215q0,1.68-2.141,4l-3.047,3.3h5.711Zm5.672-1.992,3.25-9.383h1.641L55.227,0H53.9L49.688-11.375H51.32Z" transform="translate(-6381 -7310)" fill="#12263f"/>
    <path id="Trazado_899237" data-name="Trazado 899237" d="M5.086-1.992l3.25-9.383H9.977L5.758,0H4.43L.219-11.375H1.852ZM18.578,0H11.125V-1.039l3.938-4.375A9.354,9.354,0,0,0,16.27-7.027,2.693,2.693,0,0,0,16.6-8.312a2.041,2.041,0,0,0-.539-1.461,1.885,1.885,0,0,0-1.437-.57,2.232,2.232,0,0,0-1.676.613,2.343,2.343,0,0,0-.6,1.707H10.906a3.355,3.355,0,0,1,1.012-2.539,3.751,3.751,0,0,1,2.707-.969,3.6,3.6,0,0,1,2.508.832,2.838,2.838,0,0,1,.922,2.215q0,1.68-2.141,4l-3.047,3.3h5.711Zm8.648-4.242H23.414v-1.18h3.813ZM33.109-5.7l.578-5.672h5.828v1.336h-4.6l-.344,3.1a3.671,3.671,0,0,1,1.9-.492A3.138,3.138,0,0,1,38.938-6.4a4.026,4.026,0,0,1,.914,2.777A3.886,3.886,0,0,1,38.9-.855,3.46,3.46,0,0,1,36.25.156,3.6,3.6,0,0,1,33.789-.68,3.337,3.337,0,0,1,32.7-2.992H34.07a2.3,2.3,0,0,0,.7,1.473,2.162,2.162,0,0,0,1.484.5,1.95,1.95,0,0,0,1.582-.687,2.874,2.874,0,0,0,.574-1.9,2.638,2.638,0,0,0-.621-1.832,2.113,2.113,0,0,0-1.652-.691,2.383,2.383,0,0,0-1.484.414l-.383.313ZM45.57-1.992l3.25-9.383h1.641L46.242,0H44.914L40.7-11.375h1.633Z" transform="translate(-6381 -7242)" fill="#12263f"/>
    <path id="Trazado_899236" data-name="Trazado 899236" d="M5.492-4.6H2.82V0H1.313V-11.375H5.078a4.457,4.457,0,0,1,2.957.875A3.148,3.148,0,0,1,9.07-7.953,3.062,3.062,0,0,1,8.5-6.1a3.428,3.428,0,0,1-1.6,1.18L9.57-.094V0H7.961ZM2.82-5.828h2.3A2.6,2.6,0,0,0,6.9-6.407a1.959,1.959,0,0,0,.66-1.55,2.062,2.062,0,0,0-.629-1.62,2.663,2.663,0,0,0-1.816-.571H2.82ZM15.547,0H14.094V-9.633L11.18-8.562V-9.875L15.32-11.43h.227ZM26.9-4.242H23.086v-1.18H26.9ZM32.906,0H31.453V-9.633l-2.914,1.07V-9.875L32.68-11.43h.227ZM44.273-4.852a6.61,6.61,0,0,1-.867,3.773A3.084,3.084,0,0,1,40.7.156,3.107,3.107,0,0,1,38-1.051a6.274,6.274,0,0,1-.906-3.605v-1.93a6.463,6.463,0,0,1,.867-3.727,3.108,3.108,0,0,1,2.719-1.219,3.136,3.136,0,0,1,2.7,1.176,6.237,6.237,0,0,1,.891,3.629ZM42.828-6.828A5.3,5.3,0,0,0,42.313-9.5a1.775,1.775,0,0,0-1.633-.84,1.751,1.751,0,0,0-1.617.836,5.171,5.171,0,0,0-.523,2.57v2.313A5.381,5.381,0,0,0,39.074-1.9a1.771,1.771,0,0,0,1.621.879,1.747,1.747,0,0,0,1.59-.828,5.186,5.186,0,0,0,.543-2.609Zm6.563,1.539L48-3.844V0H46.5V-11.375H48V-5.75l5.055-5.625h1.813L50.391-6.352,55.219,0h-1.8ZM60.969-1.266a2.4,2.4,0,0,0,1.68-1.321,6.349,6.349,0,0,0,.625-2.94V-6.575a4.389,4.389,0,0,0-.758-2.768,2.5,2.5,0,0,0-2.078-.962,2.465,2.465,0,0,0-2.07.977,4.464,4.464,0,0,0-.75,2.768v.884a6.479,6.479,0,0,0,.613,3.034,2.464,2.464,0,0,0,1.746,1.376V0H56.133V-1.227h1.727a5.5,5.5,0,0,1-1.3-2,6.715,6.715,0,0,1-.469-2.465v-.867a5.891,5.891,0,0,1,.551-2.594,4.149,4.149,0,0,1,1.543-1.762,4.152,4.152,0,0,1,2.25-.621,4.178,4.178,0,0,1,2.238.609A4.143,4.143,0,0,1,64.219-9.2,5.769,5.769,0,0,1,64.8-6.687v1.016a6.675,6.675,0,0,1-.469,2.449,5.5,5.5,0,0,1-1.3,2H64.75V0H60.969Z" transform="translate(-6197 -7292)" fill="#12263f"/>
  </g>
</svg>
