<svg xmlns="http://www.w3.org/2000/svg" width="400" height="276" viewBox="0 0 400 276">
  <g id="Grupo_1108808" data-name="Grupo 1108808" transform="translate(-915.051 -3297)">
    <path id="Trazado_899265" data-name="Trazado 899265" d="M0,0H400V276H0Z" transform="translate(915.051 3297)" fill="#f4c0c0"/>
    <path id="Trazado_898953" data-name="Trazado 898953" d="M-3694.5-8424.692v-59.4h312.4v65.126" transform="translate(4652.051 11815)" fill="none" stroke="#000" stroke-width="3"/>
    <path id="Trazado_898954" data-name="Trazado 898954" d="M-4249.752-9209.859h14.453l6.706-16.7,4.688,26.589,6.9-23.133,4.063,23.133,8.794-23.133,6.224,13.239h10.516" transform="translate(-7940.309 7643.412) rotate(90)" fill="none" stroke="red" stroke-width="3"/>
    <path id="Trazado_898955" data-name="Trazado 898955" d="M-7827.068-9340.49h26.643" transform="translate(8771.732 12739.616)" fill="none" stroke="#ff2c29" stroke-width="3"/>
    <path id="Trazado_898956" data-name="Trazado 898956" d="M-7827.068-9340.49h39.772" transform="translate(8764.732 12732.364)" fill="none" stroke="#ff2c29" stroke-width="3"/>
    <path id="Trazado_898957" data-name="Trazado 898957" d="M-7827.067-9340.49h47.8" transform="translate(8761.226 12746.868)" fill="none" stroke="#ff2c29" stroke-width="2"/>
    <path id="Trazado_898958" data-name="Trazado 898958" d="M-7827.068-9340.49h26.643" transform="translate(8771.732 12754.12)" fill="none" stroke="#ff2c29" stroke-width="3"/>
    <path id="Trazado_898959" data-name="Trazado 898959" d="M-3694.065-8392.684v34.229" transform="translate(4652.051 11815)" fill="none" stroke="#000" stroke-width="3"/>
    <path id="Trazado_898960" data-name="Trazado 898960" d="M-3694.5-8510.466v73.965h312.4v-73.965" transform="translate(4652.051 11966.001)" fill="none" stroke="#000" stroke-width="3"/>
    <path id="Trazado_898961" data-name="Trazado 898961" d="M-7827.068-9340.49h26.643" transform="translate(8771.732 12805.742)" fill="none" stroke="#ff2c29" stroke-width="3"/>
    <path id="Trazado_898962" data-name="Trazado 898962" d="M-7827.068-9340.49h39.772" transform="translate(8764.732 12798.49)" fill="none" stroke="#ff2c29" stroke-width="3"/>
    <path id="Trazado_898963" data-name="Trazado 898963" d="M-7827.067-9340.49h47.8" transform="translate(8761.226 12812.994)" fill="none" stroke="#ff2c29" stroke-width="2"/>
    <path id="Trazado_898964" data-name="Trazado 898964" d="M-7827.068-9340.49h26.643" transform="translate(8771.732 12820.246)" fill="none" stroke="#ff2c29" stroke-width="3"/>
    <path id="Trazado_899266" data-name="Trazado 899266" d="M8.506-9.915H13.66v2.222H8.506v5.84H6.145v-5.84H.99V-9.915H6.145v-5.4H8.506Z" transform="translate(967.051 3381)" fill="#12263f"/>
    <path id="Trazado_899267" data-name="Trazado 899267" d="M6.31-3.187l3.4-10.55h2.4L7.186,0H5.4L.419-13.736h2.4Z" transform="translate(935.051 3439)" fill="#12263f"/>
    <path id="Trazado_899268" data-name="Trazado 899268" d="M8.506-9.915H13.66v2.222H8.506v5.84H6.145v-5.84H.99V-9.915H6.145v-5.4H8.506Z" transform="translate(967.051 3450)" fill="#12263f"/>
    <path id="Trazado_899269" data-name="Trazado 899269" d="M6.31-3.187l3.4-10.55h2.4L7.186,0H5.4L.419-13.736h2.4Z" transform="translate(935.051 3504)" fill="#12263f"/>
    <path id="Trazado_899270" data-name="Trazado 899270" d="M6.484-5A3.536,3.536,0,0,1,5.4-4.133,2.936,2.936,0,0,1,4.023-3.8a3.031,3.031,0,0,1-1.715-.484A3.149,3.149,0,0,1,1.18-5.652a4.648,4.648,0,0,1-.4-1.941,4.735,4.735,0,0,1,.434-2.055,3.185,3.185,0,0,1,1.23-1.4A3.509,3.509,0,0,1,4.3-11.531a3.177,3.177,0,0,1,2.66,1.262,5.5,5.5,0,0,1,.973,3.441v.422q0,3.32-1.312,4.848A5.043,5.043,0,0,1,2.664.008H2.383V-1.219h.3a3.979,3.979,0,0,0,2.75-.932A4,4,0,0,0,6.484-5ZM4.258-5A2.232,2.232,0,0,0,5.6-5.445a2.625,2.625,0,0,0,.895-1.1v-.578a3.977,3.977,0,0,0-.617-2.312,1.842,1.842,0,0,0-1.562-.891,1.856,1.856,0,0,0-1.531.73A3.013,3.013,0,0,0,2.2-7.672a3.136,3.136,0,0,0,.559,1.918A1.769,1.769,0,0,0,4.258-5ZM18.031-1.992l3.25-9.383h1.641L18.7,0H17.375L13.164-11.375H14.8Z" transform="translate(996.051 3412)" fill="#12263f"/>
    <path id="Trazado_899271" data-name="Trazado 899271" d="M5.7,0H4.242V-9.633L1.328-8.562V-9.875L5.469-11.43H5.7ZM17.383,0H9.93V-1.039l3.938-4.375a9.354,9.354,0,0,0,1.207-1.613,2.693,2.693,0,0,0,.332-1.285,2.041,2.041,0,0,0-.539-1.461,1.885,1.885,0,0,0-1.437-.57,2.232,2.232,0,0,0-1.676.613,2.343,2.343,0,0,0-.6,1.707H9.711a3.355,3.355,0,0,1,1.012-2.539,3.751,3.751,0,0,1,2.707-.969,3.6,3.6,0,0,1,2.508.832,2.838,2.838,0,0,1,.922,2.215q0,1.68-2.141,4l-3.047,3.3h5.711Zm9.633-1.992,3.25-9.383h1.641L27.688,0H26.359L22.148-11.375h1.633Z" transform="translate(996.051 3480)" fill="#12263f"/>
    <path id="Trazado_899272" data-name="Trazado 899272" d="M5.7,0H4.242V-9.633L1.328-8.562V-9.875L5.469-11.43H5.7Zm4.414-.758a.905.905,0,0,1,.223-.625A.848.848,0,0,1,11-1.633a.874.874,0,0,1,.676.25.887.887,0,0,1,.23.625.839.839,0,0,1-.23.6A.89.89,0,0,1,11,.086a.863.863,0,0,1-.668-.242A.855.855,0,0,1,10.109-.758ZM21.594,0H14.141V-1.039l3.938-4.375a9.354,9.354,0,0,0,1.207-1.613,2.693,2.693,0,0,0,.332-1.285,2.041,2.041,0,0,0-.539-1.461,1.885,1.885,0,0,0-1.437-.57,2.232,2.232,0,0,0-1.676.613,2.343,2.343,0,0,0-.6,1.707H13.922a3.355,3.355,0,0,1,1.012-2.539,3.751,3.751,0,0,1,2.707-.969,3.6,3.6,0,0,1,2.508.832,2.838,2.838,0,0,1,.922,2.215q0,1.68-2.141,4l-3.047,3.3h5.711Zm8.758-5.289L28.961-3.844V0h-1.5V-11.375h1.5V-5.75l5.055-5.625h1.813L31.352-6.352,36.18,0h-1.8ZM41.93-1.266a2.4,2.4,0,0,0,1.68-1.321,6.349,6.349,0,0,0,.625-2.94V-6.575a4.389,4.389,0,0,0-.758-2.768A2.5,2.5,0,0,0,41.4-10.3a2.465,2.465,0,0,0-2.07.977,4.464,4.464,0,0,0-.75,2.768v.884a6.479,6.479,0,0,0,.613,3.034,2.464,2.464,0,0,0,1.746,1.376V0H37.094V-1.227H38.82a5.5,5.5,0,0,1-1.3-2,6.715,6.715,0,0,1-.469-2.465v-.867a5.891,5.891,0,0,1,.551-2.594,4.149,4.149,0,0,1,1.543-1.762,4.152,4.152,0,0,1,2.25-.621,4.178,4.178,0,0,1,2.238.609A4.143,4.143,0,0,1,45.18-9.2a5.769,5.769,0,0,1,.578,2.516v1.016a6.675,6.675,0,0,1-.469,2.449,5.5,5.5,0,0,1-1.3,2h1.719V0H41.93Z" transform="translate(1180.051 3430)" fill="#12263f"/>
  </g>
</svg>
