<svg xmlns="http://www.w3.org/2000/svg" width="400" height="276" viewBox="0 0 400 276">
  <g id="Grupo_1108809" data-name="Grupo 1108809" transform="translate(2203 8311)">
    <path id="Trazado_899273" data-name="Trazado 899273" d="M0,0H400V276H0Z" transform="translate(-2203 -8311)" fill="#f4c0c0"/>
    <path id="Trazado_898965" data-name="Trazado 898965" d="M-3694.5-8424.692v-59.4h312.4v65.126" transform="translate(1534 207)" fill="none" stroke="#000" stroke-width="3"/>
    <path id="Trazado_898966" data-name="Trazado 898966" d="M-4249.752-9209.859h14.453l6.706-16.7,4.688,26.589,6.9-23.133,4.063,23.133,8.794-23.133,6.224,13.239h10.516" transform="translate(-11058.359 -3964.588) rotate(90)" fill="none" stroke="red" stroke-width="3"/>
    <path id="Trazado_898967" data-name="Trazado 898967" d="M-7827.068-9340.49h26.643" transform="translate(5653.682 1131.616)" fill="none" stroke="#ff2c29" stroke-width="3"/>
    <path id="Trazado_898968" data-name="Trazado 898968" d="M-7827.068-9340.49h39.772" transform="translate(5646.682 1124.364)" fill="none" stroke="#ff2c29" stroke-width="3"/>
    <path id="Trazado_898969" data-name="Trazado 898969" d="M-7827.067-9340.49h47.8" transform="translate(5643.175 1138.868)" fill="none" stroke="#ff2c29" stroke-width="2"/>
    <path id="Trazado_898970" data-name="Trazado 898970" d="M-7827.068-9340.49h26.643" transform="translate(5653.682 1146.12)" fill="none" stroke="#ff2c29" stroke-width="3"/>
    <path id="Trazado_899274" data-name="Trazado 899274" d="M3.047-6.391H4.133A2.387,2.387,0,0,0,5.742-6.93a1.8,1.8,0,0,0,.586-1.414,1.764,1.764,0,0,0-1.992-2,2.072,2.072,0,0,0-1.5.535,1.873,1.873,0,0,0-.559,1.418H.836a2.9,2.9,0,0,1,.988-2.246,3.6,3.6,0,0,1,2.512-.895,3.558,3.558,0,0,1,2.523.852,3.076,3.076,0,0,1,.914,2.367,2.5,2.5,0,0,1-.48,1.438A2.9,2.9,0,0,1,5.984-5.836a2.8,2.8,0,0,1,1.449.984,2.734,2.734,0,0,1,.512,1.68,3.1,3.1,0,0,1-1,2.43,3.745,3.745,0,0,1-2.6.9A3.844,3.844,0,0,1,1.738-.711,2.877,2.877,0,0,1,.734-3H2.188a1.859,1.859,0,0,0,.586,1.438,2.229,2.229,0,0,0,1.57.539,2.187,2.187,0,0,0,1.6-.547A2.108,2.108,0,0,0,6.5-3.141a1.912,1.912,0,0,0-.609-1.523,2.655,2.655,0,0,0-1.758-.547H3.047ZM17.063-4.852A6.61,6.61,0,0,1,16.2-1.078,3.084,3.084,0,0,1,13.484.156a3.107,3.107,0,0,1-2.7-1.207,6.274,6.274,0,0,1-.906-3.605v-1.93a6.463,6.463,0,0,1,.867-3.727,3.108,3.108,0,0,1,2.719-1.219,3.136,3.136,0,0,1,2.7,1.176,6.237,6.237,0,0,1,.891,3.629ZM15.617-6.828A5.3,5.3,0,0,0,15.1-9.5a1.775,1.775,0,0,0-1.633-.84,1.751,1.751,0,0,0-1.617.836,5.171,5.171,0,0,0-.523,2.57v2.313A5.381,5.381,0,0,0,11.863-1.9a1.771,1.771,0,0,0,1.621.879,1.747,1.747,0,0,0,1.59-.828,5.186,5.186,0,0,0,.543-2.609Zm11.4,4.836,3.25-9.383h1.641L27.688,0H26.359L22.148-11.375h1.633Z" transform="translate(-2122 -8196)" fill="#12263f"/>
    <path id="Trazado_899275" data-name="Trazado 899275" d="M5.7,0H4.242V-9.633L1.328-8.562V-9.875L5.469-11.43H5.7ZM17.063-4.852A6.61,6.61,0,0,1,16.2-1.078,3.084,3.084,0,0,1,13.484.156a3.107,3.107,0,0,1-2.7-1.207,6.274,6.274,0,0,1-.906-3.605v-1.93a6.463,6.463,0,0,1,.867-3.727,3.108,3.108,0,0,1,2.719-1.219,3.136,3.136,0,0,1,2.7,1.176,6.237,6.237,0,0,1,.891,3.629ZM15.617-6.828A5.3,5.3,0,0,0,15.1-9.5a1.775,1.775,0,0,0-1.633-.84,1.751,1.751,0,0,0-1.617.836,5.171,5.171,0,0,0-.523,2.57v2.313A5.381,5.381,0,0,0,11.863-1.9a1.771,1.771,0,0,0,1.621.879,1.747,1.747,0,0,0,1.59-.828,5.186,5.186,0,0,0,.543-2.609Zm11.4,4.836,3.25-9.383h1.641L27.688,0H26.359L22.148-11.375h1.633Z" transform="translate(-2029 -8106)" fill="#12263f"/>
    <path id="Trazado_898971" data-name="Trazado 898971" d="M-2159.993-8399v120.341h140.331" transform="translate(0 207)" fill="none" stroke="#000" stroke-width="3"/>
    <path id="Trazado_898972" data-name="Trazado 898972" d="M-7827.068-9340.49h26.643" transform="translate(-11341.164 -257.985) rotate(90)" fill="none" stroke="#ff2c29" stroke-width="3"/>
    <path id="Trazado_898973" data-name="Trazado 898973" d="M-7827.068-9340.49h39.772" transform="translate(-11333.912 -264.985) rotate(90)" fill="none" stroke="#ff2c29" stroke-width="3"/>
    <path id="Trazado_898974" data-name="Trazado 898974" d="M-7827.067-9340.49h47.8" transform="translate(-11348.416 -268.492) rotate(90)" fill="none" stroke="#ff2c29" stroke-width="2"/>
    <path id="Trazado_898975" data-name="Trazado 898975" d="M-7827.068-9340.49h26.643" transform="translate(-11355.668 -257.985) rotate(90)" fill="none" stroke="#ff2c29" stroke-width="3"/>
    <path id="Trazado_899276" data-name="Trazado 899276" d="M2.789-3.216A4.663,4.663,0,0,1,3-4.683a3.761,3.761,0,0,1,.8-1.193L4.82-6.929a2.36,2.36,0,0,0,.656-1.59A1.815,1.815,0,0,0,5.047-9.8a1.62,1.62,0,0,0-1.25-.464,1.881,1.881,0,0,0-1.281.422,1.426,1.426,0,0,0-.484,1.133H.586a2.632,2.632,0,0,1,.9-2.043A3.374,3.374,0,0,1,3.8-11.531a3.185,3.185,0,0,1,2.3.792,2.87,2.87,0,0,1,.824,2.172A3.926,3.926,0,0,1,5.656-5.876L4.8-5.034a2.623,2.623,0,0,0-.57,1.818ZM2.727-.734a.861.861,0,0,1,.215-.6.81.81,0,0,1,.637-.241.822.822,0,0,1,.641.241.852.852,0,0,1,.219.6.824.824,0,0,1-.219.588.837.837,0,0,1-.641.233.824.824,0,0,1-.637-.233A.832.832,0,0,1,2.727-.734Z" transform="translate(-1882 -8177)" fill="#12263f"/>
    <path id="Trazado_898976" data-name="Trazado 898976" d="M-1993.422-8278.731H-1848.1v-80.443" transform="translate(0 207)" fill="none" stroke="#000" stroke-width="3"/>
  </g>
</svg>
