<svg xmlns="http://www.w3.org/2000/svg" xmlns:xlink="http://www.w3.org/1999/xlink" width="77" height="77" viewBox="0 0 77 77">
  <defs>
    <clipPath id="clip-path">
      <rect id="Rectángulo_403453" data-name="Rectángulo 403453" width="60" height="60" transform="translate(0 -0.051)" fill="none"/>
    </clipPath>
  </defs>
  <g id="Grupo_1108797" data-name="Grupo 1108797" transform="translate(-972.051 -3747)">
    <g id="Elipse_11615" data-name="Elipse 11615" transform="translate(972.051 3747)" fill="#fdfbec" stroke="#707070" stroke-width="1">
      <circle cx="38.5" cy="38.5" r="38.5" stroke="none"/>
      <circle cx="38.5" cy="38.5" r="38" fill="none"/>
    </g>
    <g id="Grupo_1108796" data-name="Grupo 1108796" transform="translate(980.051 3756.051)">
      <g id="Grupo_1108795" data-name="Grupo 1108795" clip-path="url(#clip-path)">
        <path id="Trazado_899206" data-name="Trazado 899206" d="M77.148,77.561H46.109a.609.609,0,0,1-.609-.609V45.609A.609.609,0,0,1,46.109,45h31.04a.609.609,0,0,1,.609.609V76.953a.609.609,0,0,1-.609.609M46.717,76.344H76.54V46.217H46.717Z" transform="translate(-31.654 -31.306)"/>
        <path id="Trazado_899207" data-name="Trazado 899207" d="M91.391,5.782a2.891,2.891,0,1,1,2.891-2.891,2.894,2.894,0,0,1-2.891,2.891m0-4.565a1.674,1.674,0,1,0,1.674,1.674,1.676,1.676,0,0,0-1.674-1.674" transform="translate(-61.568)"/>
        <path id="Trazado_899208" data-name="Trazado 899208" d="M40.891,17.782a2.891,2.891,0,1,1,2.891-2.891,2.894,2.894,0,0,1-2.891,2.891m0-4.565a1.674,1.674,0,1,0,1.674,1.674,1.676,1.676,0,0,0-1.674-1.674" transform="translate(-26.436 -8.348)"/>
        <path id="Trazado_899209" data-name="Trazado 899209" d="M142.891,17.782a2.891,2.891,0,1,1,2.891-2.891,2.894,2.894,0,0,1-2.891,2.891m0-4.565a1.674,1.674,0,1,0,1.674,1.674,1.676,1.676,0,0,0-1.674-1.674" transform="translate(-97.396 -8.348)"/>
        <path id="Trazado_899210" data-name="Trazado 899210" d="M96.818,25.2a.609.609,0,0,1-.609-.609V15.609a.609.609,0,1,1,1.217,0V24.6a.609.609,0,0,1-.609.609" transform="translate(-66.932 -10.435)"/>
        <path id="Trazado_899211" data-name="Trazado 899211" d="M62.008,28.357a.609.609,0,0,1-.609-.609v-7h-7a.609.609,0,0,1,0-1.217h7.608a.609.609,0,0,1,.609.609v7.608a.609.609,0,0,1-.609.609" transform="translate(-37.423 -13.588)"/>
        <path id="Trazado_899212" data-name="Trazado 899212" d="M114.818,28.357a.609.609,0,0,1-.609-.609V20.141a.609.609,0,0,1,.609-.609h7.608a.609.609,0,0,1,0,1.217h-7v7a.609.609,0,0,1-.609.609" transform="translate(-79.454 -13.588)"/>
        <path id="Trazado_899213" data-name="Trazado 899213" d="M2.891,95.282a2.891,2.891,0,1,1,2.891-2.891,2.894,2.894,0,0,1-2.891,2.891m0-4.565a1.674,1.674,0,1,0,1.674,1.674,1.676,1.676,0,0,0-1.674-1.674" transform="translate(0 -62.264)"/>
        <path id="Trazado_899214" data-name="Trazado 899214" d="M14.891,145.782a2.891,2.891,0,1,1,2.891-2.891,2.894,2.894,0,0,1-2.891,2.891m0-4.565a1.674,1.674,0,1,0,1.674,1.674,1.676,1.676,0,0,0-1.674-1.674" transform="translate(-8.348 -97.396)"/>
        <path id="Trazado_899215" data-name="Trazado 899215" d="M14.891,43.782a2.891,2.891,0,1,1,2.891-2.891,2.894,2.894,0,0,1-2.891,2.891m0-4.565a1.674,1.674,0,1,0,1.674,1.674,1.676,1.676,0,0,0-1.674-1.674" transform="translate(-8.348 -26.436)"/>
        <path id="Trazado_899216" data-name="Trazado 899216" d="M24.6,98.009H15.609a.609.609,0,1,1,0-1.217H24.6a.609.609,0,1,1,0,1.217" transform="translate(-10.435 -67.337)"/>
        <path id="Trazado_899217" data-name="Trazado 899217" d="M20.142,123.033a.609.609,0,0,1-.609-.609v-7.608a.609.609,0,0,1,.609-.609h7.608a.609.609,0,0,1,0,1.217h-7v7a.609.609,0,0,1-.609.609" transform="translate(-13.589 -79.453)"/>
        <path id="Trazado_899218" data-name="Trazado 899218" d="M27.749,62.617H20.142a.609.609,0,0,1-.609-.609V54.4a.609.609,0,0,1,1.217,0v7h7a.609.609,0,1,1,0,1.217" transform="translate(-13.589 -37.423)"/>
        <path id="Trazado_899219" data-name="Trazado 899219" d="M92.391,183.782a2.891,2.891,0,1,1,2.891-2.891,2.894,2.894,0,0,1-2.891,2.891m0-4.565a1.674,1.674,0,1,0,1.674,1.674,1.676,1.676,0,0,0-1.674-1.674" transform="translate(-62.264 -123.833)"/>
        <path id="Trazado_899220" data-name="Trazado 899220" d="M142.891,171.782a2.891,2.891,0,1,1,2.891-2.891,2.894,2.894,0,0,1-2.891,2.891m0-4.565a1.674,1.674,0,1,0,1.674,1.674,1.676,1.676,0,0,0-1.674-1.674" transform="translate(-97.396 -115.484)"/>
        <path id="Trazado_899221" data-name="Trazado 899221" d="M40.891,171.782a2.891,2.891,0,1,1,2.891-2.891,2.894,2.894,0,0,1-2.891,2.891m0-4.565a1.674,1.674,0,1,0,1.674,1.674,1.676,1.676,0,0,0-1.674-1.674" transform="translate(-26.436 -115.484)"/>
        <path id="Trazado_899222" data-name="Trazado 899222" d="M97.4,158.672a.609.609,0,0,1-.609-.609v-8.987a.609.609,0,1,1,1.217,0v8.987a.609.609,0,0,1-.609.609" transform="translate(-67.337 -103.288)"/>
        <path id="Trazado_899223" data-name="Trazado 899223" d="M122.425,157.293h-7.608a.609.609,0,0,1-.609-.609v-7.608a.609.609,0,1,1,1.217,0v7h7a.609.609,0,1,1,0,1.217" transform="translate(-79.454 -103.288)"/>
        <path id="Trazado_899224" data-name="Trazado 899224" d="M62.008,157.293H54.4a.609.609,0,1,1,0-1.217h7v-7a.609.609,0,1,1,1.217,0v7.608a.609.609,0,0,1-.609.609" transform="translate(-37.423 -103.288)"/>
        <path id="Trazado_899225" data-name="Trazado 899225" d="M180.891,94.282a2.891,2.891,0,1,1,2.891-2.891,2.894,2.894,0,0,1-2.891,2.891m0-4.565a1.674,1.674,0,1,0,1.674,1.674,1.676,1.676,0,0,0-1.674-1.674" transform="translate(-123.833 -61.568)"/>
        <path id="Trazado_899226" data-name="Trazado 899226" d="M168.891,43.782a2.891,2.891,0,1,1,2.891-2.891,2.894,2.894,0,0,1-2.891,2.891m0-4.565a1.674,1.674,0,1,0,1.674,1.674,1.676,1.676,0,0,0-1.674-1.674" transform="translate(-115.484 -26.436)"/>
        <path id="Trazado_899227" data-name="Trazado 899227" d="M168.891,145.782a2.891,2.891,0,1,1,2.891-2.891,2.894,2.894,0,0,1-2.891,2.891m0-4.565a1.674,1.674,0,1,0,1.674,1.674,1.676,1.676,0,0,0-1.674-1.674" transform="translate(-115.484 -97.396)"/>
        <path id="Trazado_899228" data-name="Trazado 899228" d="M158.064,97.425h-8.987a.609.609,0,1,1,0-1.217h8.987a.609.609,0,0,1,0,1.217" transform="translate(-103.288 -66.931)"/>
        <path id="Trazado_899229" data-name="Trazado 899229" d="M156.684,62.617h-7.608a.609.609,0,1,1,0-1.217h7v-7a.609.609,0,1,1,1.217,0v7.608a.609.609,0,0,1-.609.609" transform="translate(-103.288 -37.423)"/>
        <path id="Trazado_899230" data-name="Trazado 899230" d="M156.684,123.033a.609.609,0,0,1-.609-.609v-7h-7a.609.609,0,1,1,0-1.217h7.608a.609.609,0,0,1,.609.609v7.608a.609.609,0,0,1-.609.609" transform="translate(-103.288 -79.453)"/>
      </g>
    </g>
  </g>
</svg>
