<svg xmlns="http://www.w3.org/2000/svg" width="400" height="116" viewBox="0 0 400 116">
  <g id="Grupo_1108799" data-name="Grupo 1108799" transform="translate(5175 7579)">
    <path id="Trazado_899231" data-name="Trazado 899231" d="M0,0H400V116H0Z" transform="translate(-5175 -7579)" fill="#ffdad9"/>
    <path id="Trazado_899232" data-name="Trazado 899232" d="M5.227-4.164H3.359V0H1.016V-11.375H5.242a4.778,4.778,0,0,1,3.109.9A3.1,3.1,0,0,1,9.445-7.937,3.5,3.5,0,0,1,8.941-6,3.437,3.437,0,0,1,7.414-4.758L9.875-.109V0H7.359Zm-1.867-1.9H5.25a1.936,1.936,0,0,0,1.367-.449A1.606,1.606,0,0,0,7.1-7.75a1.719,1.719,0,0,0-.457-1.266,1.9,1.9,0,0,0-1.4-.461H3.359Zm14.406-4.469v2.078h1.445V-6.8H17.766v4.219a1.007,1.007,0,0,0,.18.672.9.9,0,0,0,.688.2,3.6,3.6,0,0,0,.664-.055V-.047a4.648,4.648,0,0,1-1.367.2,2.156,2.156,0,0,1-2.422-2.4V-6.8H14.273V-8.453h1.234v-2.078ZM19.883-4.3a5.013,5.013,0,0,1,.484-2.242A3.546,3.546,0,0,1,21.762-8.07a4.069,4.069,0,0,1,2.113-.539,3.849,3.849,0,0,1,2.793,1.047,4.2,4.2,0,0,1,1.207,2.844l.016.578A4.418,4.418,0,0,1,26.8-1.02,3.775,3.775,0,0,1,23.891.156a3.793,3.793,0,0,1-2.918-1.172A4.5,4.5,0,0,1,19.883-4.2Zm2.258.16A3.16,3.16,0,0,0,22.594-2.3a1.5,1.5,0,0,0,1.3.638,1.5,1.5,0,0,0,1.281-.63,3.457,3.457,0,0,0,.461-2.015,3.128,3.128,0,0,0-.461-1.831,1.5,1.5,0,0,0-1.3-.649,1.474,1.474,0,0,0-1.281.646A3.516,3.516,0,0,0,22.141-4.144Zm9.844-6.387v2.078H33.43V-6.8H31.984v4.219a1.007,1.007,0,0,0,.18.672.9.9,0,0,0,.688.2,3.6,3.6,0,0,0,.664-.055V-.047a4.648,4.648,0,0,1-1.367.2,2.156,2.156,0,0,1-2.422-2.4V-6.8H28.492V-8.453h1.234v-2.078ZM39.586,0a2.507,2.507,0,0,1-.227-.758,2.732,2.732,0,0,1-2.133.914,3,3,0,0,1-2.059-.719,2.312,2.312,0,0,1-.816-1.812,2.389,2.389,0,0,1,1-2.062,4.915,4.915,0,0,1,2.879-.727h1.039v-.484a1.393,1.393,0,0,0-.3-.937,1.183,1.183,0,0,0-.949-.352,1.345,1.345,0,0,0-.895.273.929.929,0,0,0-.324.75H34.539a2.268,2.268,0,0,1,.453-1.359,3,3,0,0,1,1.281-.98,4.669,4.669,0,0,1,1.859-.355,3.689,3.689,0,0,1,2.48.785,2.747,2.747,0,0,1,.918,2.207v3.664a4.041,4.041,0,0,0,.336,1.82V0ZM37.719-1.57a1.945,1.945,0,0,0,.922-.223,1.462,1.462,0,0,0,.625-.6V-3.844h-.844q-1.7,0-1.8,1.172l-.008.133a.9.9,0,0,0,.3.7A1.153,1.153,0,0,0,37.719-1.57ZM45.648,0H43.383V-12h2.266ZM58.672-5.828H51.688V-7.672h6.984Zm0,3.383H51.688V-4.289h6.984Z" transform="translate(-5137 -7525)" fill="#12263f"/>
    <path id="Trazado_898992" data-name="Trazado 898992" d="M-3935.059-7507.5H-3711.2" transform="translate(-1123 -23)" fill="none" stroke="#000" stroke-width="2"/>
    <path id="Trazado_899239" data-name="Trazado 899239" d="M6.258,0H4V-8.7l-2.7.836V-9.7l4.711-1.687h.242Z" transform="translate(-4965 -7544)" fill="#12263f"/>
    <path id="Trazado_899233" data-name="Trazado 899233" d="M6.258,0H4V-8.7l-2.7.836V-9.7l4.711-1.687h.242Z" transform="translate(-5046 -7508)" fill="#12263f"/>
    <path id="Trazado_898993" data-name="Trazado 898993" d="M-3842.051-10039.182h20.582" transform="translate(-1208.977 2535)" fill="none" stroke="#000" stroke-width="1"/>
    <path id="Trazado_899234" data-name="Trazado 899234" d="M5.039-4.164H3.18L2.453,0H.164L2.141-11.375l3.766.008a4.289,4.289,0,0,1,2.91.891A2.817,2.817,0,0,1,9.719-8a3.574,3.574,0,0,1-2.5,3.258L8.82-.125V0H6.383Zm-1.531-1.9,1.7.016a2.386,2.386,0,0,0,1.5-.488A1.933,1.933,0,0,0,7.414-7.82a1.473,1.473,0,0,0-.242-1.187,1.442,1.442,0,0,0-1.117-.461L4.1-9.477ZM15.25,0h-2.2l1.5-8.656-2.766.836.344-1.93,4.75-1.641.289-.008Z" transform="translate(-5049 -7489)" fill="#12263f"/>
    <path id="Trazado_899235" data-name="Trazado 899235" d="M5.234-6.1H8.406v1.367H5.234v3.594H3.781V-4.734H.609V-6.1H3.781v-3.32H5.234Z" transform="translate(-5024 -7499)" fill="#12263f"/>
    <path id="Trazado_899237" data-name="Trazado 899237" d="M6.258,0H4V-8.7l-2.7.836V-9.7l4.711-1.687h.242Z" transform="translate(-5006 -7508)" fill="#12263f"/>
    <path id="Trazado_898994" data-name="Trazado 898994" d="M-3842.051-10039.182h20.582" transform="translate(-1168.977 2535)" fill="none" stroke="#000" stroke-width="1"/>
    <path id="Trazado_899236" data-name="Trazado 899236" d="M5.039-4.164H3.18L2.453,0H.164L2.141-11.375l3.766.008a4.289,4.289,0,0,1,2.91.891A2.817,2.817,0,0,1,9.719-8a3.574,3.574,0,0,1-2.5,3.258L8.82-.125V0H6.383Zm-1.531-1.9,1.7.016a2.386,2.386,0,0,0,1.5-.488A1.933,1.933,0,0,0,7.414-7.82a1.473,1.473,0,0,0-.242-1.187,1.442,1.442,0,0,0-1.117-.461L4.1-9.477ZM17.57,0H9.992l.258-1.641L14.289-5.43A8.947,8.947,0,0,0,15.938-7.32a2.214,2.214,0,0,0,.3-1.422,1.061,1.061,0,0,0-1.117-.992,1.6,1.6,0,0,0-1.254.523A2.453,2.453,0,0,0,13.258-7.8l-2.2.008a3.863,3.863,0,0,1,.633-1.93,3.882,3.882,0,0,1,1.52-1.348,4.405,4.405,0,0,1,2.051-.473,3.5,3.5,0,0,1,2.469.891,2.756,2.756,0,0,1,.781,2.289A5.546,5.546,0,0,1,16.609-5L15.484-3.93,13.156-1.836l4.7.016Z" transform="translate(-5009 -7489)" fill="#12263f"/>
    <path id="Trazado_899240" data-name="Trazado 899240" d="M6.258,0H4V-8.7l-2.7.836V-9.7l4.711-1.687h.242Z" transform="translate(-4962.131 -7508)" fill="#12263f"/>
    <path id="Trazado_898995" data-name="Trazado 898995" d="M-3842.051-10039.182h20.582" transform="translate(-1125.107 2535)" fill="none" stroke="#000" stroke-width="1"/>
    <path id="Trazado_899241" data-name="Trazado 899241" d="M5.039-4.164H3.18L2.453,0H.164L2.141-11.375l3.766.008a4.289,4.289,0,0,1,2.91.891A2.817,2.817,0,0,1,9.719-8a3.574,3.574,0,0,1-2.5,3.258L8.82-.125V0H6.383Zm-1.531-1.9,1.7.016a2.386,2.386,0,0,0,1.5-.488A1.933,1.933,0,0,0,7.414-7.82a1.473,1.473,0,0,0-.242-1.187,1.442,1.442,0,0,0-1.117-.461L4.1-9.477Zm9.773-.625,1.055.008a2.055,2.055,0,0,0,1.348-.445,1.737,1.737,0,0,0,.629-1.2,1.261,1.261,0,0,0-.242-1.012,1.23,1.23,0,0,0-.961-.395,1.642,1.642,0,0,0-1.1.348,1.494,1.494,0,0,0-.559.941l-2.2.016a2.952,2.952,0,0,1,1.184-2.254,4.165,4.165,0,0,1,2.707-.863,3.716,3.716,0,0,1,2.547.9,2.739,2.739,0,0,1,.852,2.3A3.078,3.078,0,0,1,16.469-5.8,2.381,2.381,0,0,1,17.59-4.754a2.826,2.826,0,0,1,.309,1.5,3.267,3.267,0,0,1-.633,1.813,3.7,3.7,0,0,1-1.547,1.2,4.962,4.962,0,0,1-2.094.395,3.557,3.557,0,0,1-2.484-.91A3.03,3.03,0,0,1,10.2-3.117h2.188a1.412,1.412,0,0,0,.355,1.035,1.385,1.385,0,0,0,1.035.418A1.933,1.933,0,0,0,15.086-2.1a1.761,1.761,0,0,0,.641-1.179,1.428,1.428,0,0,0-.277-1.2A1.553,1.553,0,0,0,14.3-4.914L13-4.922Z" transform="translate(-4965.131 -7489)" fill="#12263f"/>
    <path id="Trazado_899238" data-name="Trazado 899238" d="M5.234-6.1H8.406v1.367H5.234v3.594H3.781V-4.734H.609V-6.1H3.781v-3.32H5.234Z" transform="translate(-4982 -7499)" fill="#12263f"/>
    <path id="Trazado_899244" data-name="Trazado 899244" d="M6.258,0H4V-8.7l-2.7.836V-9.7l4.711-1.687h.242Z" transform="translate(-4920.262 -7508)" fill="#12263f"/>
    <path id="Trazado_898996" data-name="Trazado 898996" d="M-3842.051-10039.182h20.582" transform="translate(-1083.238 2535)" fill="none" stroke="#000" stroke-width="1"/>
    <path id="Trazado_899243" data-name="Trazado 899243" d="M5.039-4.164H3.18L2.453,0H.164L2.141-11.375l3.766.008a4.289,4.289,0,0,1,2.91.891A2.817,2.817,0,0,1,9.719-8a3.574,3.574,0,0,1-2.5,3.258L8.82-.125V0H6.383Zm-1.531-1.9,1.7.016a2.386,2.386,0,0,0,1.5-.488A1.933,1.933,0,0,0,7.414-7.82a1.473,1.473,0,0,0-.242-1.187,1.442,1.442,0,0,0-1.117-.461L4.1-9.477ZM17.156-4.281h1.25l-.32,1.82h-1.25L16.406,0H14.2l.43-2.461H10.117L10.273-4l5.8-7.375h2.3ZM12.563-4.3l2.391.016.773-4.047-.2.281Z" transform="translate(-4923.262 -7489)" fill="#12263f"/>
    <path id="Trazado_899242" data-name="Trazado 899242" d="M5.234-6.1H8.406v1.367H5.234v3.594H3.781V-4.734H.609V-6.1H3.781v-3.32H5.234Z" transform="translate(-4940.131 -7499)" fill="#12263f"/>
    <path id="Trazado_899245" data-name="Trazado 899245" d="M5.234-6.1H8.406v1.367H5.234v3.594H3.781V-4.734H.609V-6.1H3.781v-3.32H5.234Z" transform="translate(-4898.262 -7499)" fill="#12263f"/>
    <path id="Trazado_899246" data-name="Trazado 899246" d="M5.234-6.1H8.406v1.367H5.234v3.594H3.781V-4.734H.609V-6.1H3.781v-3.32H5.234Z" transform="translate(-4880.051 -7499)" fill="#12263f"/>
    <path id="Trazado_899247" data-name="Trazado 899247" d="M6.258,0H4V-8.7l-2.7.836V-9.7l4.711-1.687h.242Z" transform="translate(-4855.023 -7508)" fill="#12263f"/>
    <path id="Trazado_898997" data-name="Trazado 898997" d="M-3842.051-10039.182h20.582" transform="translate(-1018 2535)" fill="none" stroke="#000" stroke-width="1"/>
    <path id="Trazado_899248" data-name="Trazado 899248" d="M5.039-4.164H3.18L2.453,0H.164L2.141-11.375l3.766.008a4.289,4.289,0,0,1,2.91.891A2.817,2.817,0,0,1,9.719-8a3.574,3.574,0,0,1-2.5,3.258L8.82-.125V0H6.383Zm-1.531-1.9,1.7.016a2.386,2.386,0,0,0,1.5-.488A1.933,1.933,0,0,0,7.414-7.82a1.473,1.473,0,0,0-.242-1.187,1.442,1.442,0,0,0-1.117-.461L4.1-9.477ZM23.8-6.727H22.5l-.7,4.1a1.077,1.077,0,0,0,.063.609q.109.211.531.227a4.514,4.514,0,0,0,.672-.047L22.906-.109a3.5,3.5,0,0,1-1.258.18A2.014,2.014,0,0,1,20.035-.6a2.4,2.4,0,0,1-.441-1.8l.7-4.32H18.219L17.055,0H14.844l1.172-6.727H14.672l.3-1.727H24.1Z" transform="translate(-4858.023 -7489)" fill="#12263f"/>
  </g>
</svg>
