<svg xmlns="http://www.w3.org/2000/svg" width="210" height="69" viewBox="0 0 210 69">
  <g id="Grupo_1108807" data-name="Grupo 1108807" transform="translate(-810.051 -6788)">
    <path id="Trazado_899261" data-name="Trazado 899261" d="M0,0H210V69H0Z" transform="translate(810.051 6788)" fill="#f4c0c0"/>
    <path id="Trazado_899262" data-name="Trazado 899262" d="M7.7-6.359H1.188V-7.617H7.7Zm0,3.242H1.188v-1.25H7.7Z" transform="translate(883.801 6826)" fill="#12263f"/>
    <path id="Trazado_899263" data-name="Trazado 899263" d="M5.039-4.164H3.18L2.453,0H.164L2.141-11.375l3.766.008a4.289,4.289,0,0,1,2.91.891A2.817,2.817,0,0,1,9.719-8a3.574,3.574,0,0,1-2.5,3.258L8.82-.125V0H6.383Zm-1.531-1.9,1.7.016a2.386,2.386,0,0,0,1.5-.488A1.933,1.933,0,0,0,7.414-7.82a1.473,1.473,0,0,0-.242-1.187,1.442,1.442,0,0,0-1.117-.461L4.1-9.477ZM16.281,0H14.063l1.469-8.453H17.75Zm-.492-10.6a1.1,1.1,0,0,1,.344-.867A1.209,1.209,0,0,1,17-11.812a1.215,1.215,0,0,1,.867.3,1.1,1.1,0,0,1,.383.828,1.132,1.132,0,0,1-.324.844,1.215,1.215,0,0,1-.887.375,1.235,1.235,0,0,1-.863-.3A1.091,1.091,0,0,1,15.789-10.6Zm5.234,8.766,3.984.016L24.688,0h-6.82l.258-1.492,4.711-5.117-3.711-.016.32-1.828h6.586l-.25,1.445Zm9.3-6.781a2.346,2.346,0,0,1,2.008,1.063l.359-.906,1.969.008L32.625,3.25H30.406L31.2-.742a2.647,2.647,0,0,1-2.055.9,2.433,2.433,0,0,1-1.383-.414,2.6,2.6,0,0,1-.918-1.176,4.733,4.733,0,0,1-.355-1.691,6.527,6.527,0,0,1,.023-.961l.047-.344a6.781,6.781,0,0,1,.723-2.3A3.673,3.673,0,0,1,28.59-8.176,3.151,3.151,0,0,1,30.32-8.617ZM28.688-3.08q.078,1.393,1.109,1.416a1.881,1.881,0,0,0,1.594-.822l.641-3.521A1.242,1.242,0,0,0,30.8-6.8a1.612,1.612,0,0,0-1.367.653,3.761,3.761,0,0,0-.7,1.89A8.224,8.224,0,0,0,28.688-3.08Z" transform="translate(826.75 6826)" fill="#12263f"/>
    <path id="Trazado_899264" data-name="Trazado 899264" d="M7.172-4.281h1.25L8.1-2.461H6.852L6.422,0h-2.2l.43-2.461H.133L.289-4l5.8-7.375H8.4ZM2.578-4.3l2.391.016.773-4.047-.2.281Zm10.086.93-1.023.891L11.211,0h-2.2l2.078-12H13.3L12.156-5.484l.43-.461,2.508-2.508h2.828l-3.7,3.633L16.578,0H14.164ZM22.4-1.93a3,3,0,0,0,1.492-1.523,10.563,10.563,0,0,0,.789-3.43,7.066,7.066,0,0,0,.039-1.062q-.125-1.617-1.328-1.672a1.8,1.8,0,0,0-1.535.691A4.341,4.341,0,0,0,21.02-6.75q-.215,1.438-.254,1.941a9.02,9.02,0,0,0-.023.988q.031,1.469.883,1.883L21.328,0h-3.9l.352-1.906,1.633-.008a7.176,7.176,0,0,1-1.062-3.031,7.876,7.876,0,0,1,.164-2.1A5.992,5.992,0,0,1,19.477-9.4,5,5,0,0,1,21.238-11a4.5,4.5,0,0,1,2.277-.527,3.779,3.779,0,0,1,2.129.66,3.625,3.625,0,0,1,1.313,1.734,5.031,5.031,0,0,1,.262,2.41l-.07.547a6.113,6.113,0,0,1-2.547,4.3l1.672-.039L25.938,0H22.1Z" transform="translate(911 6816.5)" fill="#12263f"/>
    <path id="Trazado_899044" data-name="Trazado 899044" d="M-3842.051-10039.182h39" transform="translate(4746.902 16860.5)" fill="none" stroke="#000" stroke-width="1"/>
    <path id="Trazado_899265" data-name="Trazado 899265" d="M7.586,0H.008L.266-1.641,4.3-5.43A8.947,8.947,0,0,0,5.953-7.32a2.214,2.214,0,0,0,.3-1.422,1.061,1.061,0,0,0-1.117-.992,1.6,1.6,0,0,0-1.254.523A2.453,2.453,0,0,0,3.273-7.8l-2.2.008A3.863,3.863,0,0,1,1.7-9.719a3.882,3.882,0,0,1,1.52-1.348,4.405,4.405,0,0,1,2.051-.473,3.5,3.5,0,0,1,2.469.891,2.756,2.756,0,0,1,.781,2.289A5.546,5.546,0,0,1,6.625-5L5.5-3.93,3.172-1.836l4.7.016Z" transform="translate(918.852 6839.5)" fill="#12263f"/>
    <path id="Trazado_899266" data-name="Trazado 899266" d="M7.7-6.359H1.188V-7.617H7.7Zm0,3.242H1.188v-1.25H7.7Z" transform="translate(955.852 6826)" fill="#12263f"/>
    <path id="Trazado_899267" data-name="Trazado 899267" d="M7.586,0H.008L.266-1.641,4.3-5.43A8.947,8.947,0,0,0,5.953-7.32a2.214,2.214,0,0,0,.3-1.422,1.061,1.061,0,0,0-1.117-.992,1.6,1.6,0,0,0-1.254.523A2.453,2.453,0,0,0,3.273-7.8l-2.2.008A3.863,3.863,0,0,1,1.7-9.719a3.882,3.882,0,0,1,1.52-1.348,4.405,4.405,0,0,1,2.051-.473,3.5,3.5,0,0,1,2.469.891,2.756,2.756,0,0,1,.781,2.289A5.546,5.546,0,0,1,6.625-5L5.5-3.93,3.172-1.836l4.7.016Zm5.078-3.367-1.023.891L11.211,0h-2.2l2.078-12H13.3L12.156-5.484l.43-.461,2.508-2.508h2.828l-3.7,3.633L16.578,0H14.164ZM22.4-1.93a3,3,0,0,0,1.492-1.523,10.563,10.563,0,0,0,.789-3.43,7.066,7.066,0,0,0,.039-1.062q-.125-1.617-1.328-1.672a1.8,1.8,0,0,0-1.535.691A4.341,4.341,0,0,0,21.02-6.75q-.215,1.438-.254,1.941a9.02,9.02,0,0,0-.023.988q.031,1.469.883,1.883L21.328,0h-3.9l.352-1.906,1.633-.008a7.176,7.176,0,0,1-1.062-3.031,7.876,7.876,0,0,1,.164-2.1A5.992,5.992,0,0,1,19.477-9.4,5,5,0,0,1,21.238-11a4.5,4.5,0,0,1,2.277-.527,3.779,3.779,0,0,1,2.129.66,3.625,3.625,0,0,1,1.313,1.734,5.031,5.031,0,0,1,.262,2.41l-.07.547a6.113,6.113,0,0,1-2.547,4.3l1.672-.039L25.938,0H22.1Z" transform="translate(975.352 6825)" fill="#12263f"/>
  </g>
</svg>
