<svg xmlns="http://www.w3.org/2000/svg" width="505" height="69" viewBox="0 0 505 69">
  <g id="Grupo_1108799" data-name="Grupo 1108799" transform="translate(5376 3714)">
    <path id="Trazado_899231" data-name="Trazado 899231" d="M0,0H505V69H0Z" transform="translate(-5376 -3714)" fill="#f4c0c0"/>
    <path id="Trazado_899232" data-name="Trazado 899232" d="M7.7-6.359H1.188V-7.617H7.7Zm0,3.242H1.188v-1.25H7.7Z" transform="translate(-5294.051 -3676)" fill="#12263f"/>
    <path id="Trazado_899233" data-name="Trazado 899233" d="M5.039-4.164H3.18L2.453,0H.164L2.141-11.375l3.766.008a4.289,4.289,0,0,1,2.91.891A2.817,2.817,0,0,1,9.719-8a3.574,3.574,0,0,1-2.5,3.258L8.82-.125V0H6.383Zm-1.531-1.9,1.7.016a2.386,2.386,0,0,0,1.5-.488A1.933,1.933,0,0,0,7.414-7.82a1.473,1.473,0,0,0-.242-1.187,1.442,1.442,0,0,0-1.117-.461L4.1-9.477ZM23.586-9.477H20.211L18.57,0H16.281l1.641-9.477H14.586l.336-1.9h9Zm2.789.867a3.39,3.39,0,0,1,1.926.574A3.234,3.234,0,0,1,29.488-6.5a4.762,4.762,0,0,1,.27,2.176,5.143,5.143,0,0,1-1.4,3.262A3.96,3.96,0,0,1,25.336.156,3.38,3.38,0,0,1,23.43-.41a3.222,3.222,0,0,1-1.187-1.527,4.657,4.657,0,0,1-.273-2.156,5.3,5.3,0,0,1,1.422-3.328A3.878,3.878,0,0,1,26.375-8.609ZM24.148-3.294A1.95,1.95,0,0,0,24.5-2.113a1.168,1.168,0,0,0,.945.449A1.712,1.712,0,0,0,27.039-2.6a4.647,4.647,0,0,0,.539-2.531,2.122,2.122,0,0,0-.363-1.2,1.149,1.149,0,0,0-.949-.464,1.715,1.715,0,0,0-1.574.924A4.6,4.6,0,0,0,24.148-3.294Zm10.711-7.237-.367,2.078H35.9L35.609-6.8H34.2l-.719,4.234a1.077,1.077,0,0,0,.063.609q.109.211.531.227.125.008.672-.039L34.594-.039a3.706,3.706,0,0,1-1.266.18,1.985,1.985,0,0,1-1.617-.68,2.456,2.456,0,0,1-.437-1.8L32-6.8H30.8l.289-1.656h1.2l.359-2.078ZM40.6,0a2.281,2.281,0,0,1-.086-.766,2.863,2.863,0,0,1-2.156.922,2.594,2.594,0,0,1-1.84-.723,2.186,2.186,0,0,1-.684-1.746A2.527,2.527,0,0,1,37-4.434a5.266,5.266,0,0,1,2.965-.738l1.031.016.109-.508a1.764,1.764,0,0,0,.023-.492.846.846,0,0,0-.277-.574.955.955,0,0,0-.629-.215,1.345,1.345,0,0,0-.875.254,1.231,1.231,0,0,0-.461.777l-2.211.008a2.457,2.457,0,0,1,1.113-1.965A4.312,4.312,0,0,1,40.4-8.609a3.117,3.117,0,0,1,2.25.855,2.5,2.5,0,0,1,.68,2.121L42.68-1.586l-.039.5a2.412,2.412,0,0,0,.133.938L42.766,0Zm-1.7-1.555a2.017,2.017,0,0,0,1.664-.828l.273-1.461-.766-.008a2.139,2.139,0,0,0-1.758.742,1.292,1.292,0,0,0-.242.633.75.75,0,0,0,.176.668A.891.891,0,0,0,38.906-1.555ZM46.438,0H44.219L46.3-12h2.211Z" transform="translate(-5351.102 -3676)" fill="#12263f"/>
    <path id="Trazado_899234" data-name="Trazado 899234" d="M5.039-4.164H3.18L2.453,0H.164L2.141-11.375l3.766.008a4.289,4.289,0,0,1,2.91.891A2.817,2.817,0,0,1,9.719-8a3.574,3.574,0,0,1-2.5,3.258L8.82-.125V0H6.383Zm-1.531-1.9,1.7.016a2.386,2.386,0,0,0,1.5-.488A1.933,1.933,0,0,0,7.414-7.82a1.473,1.473,0,0,0-.242-1.187,1.442,1.442,0,0,0-1.117-.461L4.1-9.477ZM18.148-8.617a2.4,2.4,0,0,1,1.906.945L20.883-12h2.211L21.016,0H19.047l.125-.906a2.736,2.736,0,0,1-2.2,1.07A2.433,2.433,0,0,1,15.586-.25a2.607,2.607,0,0,1-.918-1.168,4.7,4.7,0,0,1-.355-1.7,6.4,6.4,0,0,1,.023-.953l.047-.352A6.767,6.767,0,0,1,15.105-6.7a3.766,3.766,0,0,1,1.313-1.461A3.094,3.094,0,0,1,18.148-8.617Zm-1.6,4.547a6.327,6.327,0,0,0-.039,1q.078,1.375,1.109,1.4a1.885,1.885,0,0,0,1.617-.875l.6-3.359a1.248,1.248,0,0,0-1.219-.875,1.606,1.606,0,0,0-1.34.621A4.176,4.176,0,0,0,16.547-4.07ZM26.789.156a3.677,3.677,0,0,1-1.965-.543,3.292,3.292,0,0,1-1.277-1.469,4.093,4.093,0,0,1-.328-2.059l.023-.312a5.465,5.465,0,0,1,.719-2.266,4.341,4.341,0,0,1,1.547-1.59A3.827,3.827,0,0,1,27.6-8.609a2.924,2.924,0,0,1,2.473,1.2,4.117,4.117,0,0,1,.637,2.962l-.125.962h-5.18a1.814,1.814,0,0,0,.4,1.313,1.521,1.521,0,0,0,1.172.508A2.7,2.7,0,0,0,29.086-2.6l1.008,1.25A3.135,3.135,0,0,1,28.719-.23,4.5,4.5,0,0,1,26.789.156Zm.7-6.945a1.565,1.565,0,0,0-1.082.383,3.363,3.363,0,0,0-.848,1.383h3.031l.047-.2a2.071,2.071,0,0,0,.008-.594,1.134,1.134,0,0,0-.383-.707A1.2,1.2,0,0,0,27.492-6.789Zm9.539.453a4.548,4.548,0,0,0-.742-.078,2.136,2.136,0,0,0-1.867.883L33.445,0h-2.2l1.469-8.453,2.07-.008-.2,1.031a2.325,2.325,0,0,1,1.969-1.2,3.214,3.214,0,0,1,.766.109Zm6.938-1.215-2.281-.718L42.352-9.6l2.242,1,.336-2.778h1.5L45.8-8.667l2.4-.921.2,1.506-2.562.695L47.1-5.262l-1.258.813-.984-2.289L43.125-4.566,41.961-5.5ZM57-4.164H55.141L54.414,0H52.125L54.1-11.375l3.766.008a4.289,4.289,0,0,1,2.91.891A2.817,2.817,0,0,1,61.68-8a3.574,3.574,0,0,1-2.5,3.258l1.6,4.617V0H58.344Zm-1.531-1.9,1.7.016a2.386,2.386,0,0,0,1.5-.488,1.933,1.933,0,0,0,.707-1.285,1.473,1.473,0,0,0-.242-1.187,1.442,1.442,0,0,0-1.117-.461l-1.953-.008ZM68.242,0H66.023l1.469-8.453h2.219ZM67.75-10.6a1.1,1.1,0,0,1,.344-.867,1.209,1.209,0,0,1,.867-.344,1.215,1.215,0,0,1,.867.3,1.1,1.1,0,0,1,.383.828,1.132,1.132,0,0,1-.324.844A1.215,1.215,0,0,1,69-9.461a1.235,1.235,0,0,1-.863-.3A1.091,1.091,0,0,1,67.75-10.6Zm5.234,8.766,3.984.016L76.648,0h-6.82l.258-1.492L74.8-6.609l-3.711-.016.32-1.828h6.586l-.25,1.445Zm9.3-6.781a2.346,2.346,0,0,1,2.008,1.063l.359-.906,1.969.008L84.586,3.25H82.367l.789-3.992a2.647,2.647,0,0,1-2.055.9,2.433,2.433,0,0,1-1.383-.414A2.6,2.6,0,0,1,78.8-1.434a4.733,4.733,0,0,1-.355-1.691,6.527,6.527,0,0,1,.023-.961l.047-.344a6.781,6.781,0,0,1,.723-2.3,3.673,3.673,0,0,1,1.313-1.449A3.151,3.151,0,0,1,82.281-8.617ZM80.648-3.08q.078,1.393,1.109,1.416a1.881,1.881,0,0,0,1.594-.822l.641-3.521a1.242,1.242,0,0,0-1.227-.79,1.612,1.612,0,0,0-1.367.653,3.761,3.761,0,0,0-.7,1.89A8.223,8.223,0,0,0,80.648-3.08Z" transform="translate(-5259 -3685.5)" fill="#12263f"/>
    <path id="Trazado_899046" data-name="Trazado 899046" d="M-3842.051-10039.182H-3735.1" transform="translate(-1430.949 6358.5)" fill="none" stroke="#000" stroke-width="1"/>
    <path id="Trazado_899236" data-name="Trazado 899236" d="M7.7-6.359H1.188V-7.617H7.7Zm0,3.242H1.188v-1.25H7.7Z" transform="translate(-5147.051 -3676)" fill="#12263f"/>
    <path id="Trazado_899235" data-name="Trazado 899235" d="M5.039-4.164H3.18L2.453,0H.164L2.141-11.375l3.766.008a4.289,4.289,0,0,1,2.91.891A2.817,2.817,0,0,1,9.719-8a3.574,3.574,0,0,1-2.5,3.258L8.82-.125V0H6.383Zm-1.531-1.9,1.7.016a2.386,2.386,0,0,0,1.5-.488A1.933,1.933,0,0,0,7.414-7.82a1.473,1.473,0,0,0-.242-1.187,1.442,1.442,0,0,0-1.117-.461L4.1-9.477ZM18.148-8.617a2.4,2.4,0,0,1,1.906.945L20.883-12h2.211L21.016,0H19.047l.125-.906a2.736,2.736,0,0,1-2.2,1.07A2.433,2.433,0,0,1,15.586-.25a2.607,2.607,0,0,1-.918-1.168,4.7,4.7,0,0,1-.355-1.7,6.4,6.4,0,0,1,.023-.953l.047-.352A6.767,6.767,0,0,1,15.105-6.7a3.766,3.766,0,0,1,1.313-1.461A3.094,3.094,0,0,1,18.148-8.617Zm-1.6,4.547a6.327,6.327,0,0,0-.039,1q.078,1.375,1.109,1.4a1.885,1.885,0,0,0,1.617-.875l.6-3.359a1.248,1.248,0,0,0-1.219-.875,1.606,1.606,0,0,0-1.34.621A4.176,4.176,0,0,0,16.547-4.07ZM26.789.156a3.677,3.677,0,0,1-1.965-.543,3.292,3.292,0,0,1-1.277-1.469,4.093,4.093,0,0,1-.328-2.059l.023-.312a5.465,5.465,0,0,1,.719-2.266,4.341,4.341,0,0,1,1.547-1.59A3.827,3.827,0,0,1,27.6-8.609a2.924,2.924,0,0,1,2.473,1.2,4.117,4.117,0,0,1,.637,2.962l-.125.962h-5.18a1.814,1.814,0,0,0,.4,1.313,1.521,1.521,0,0,0,1.172.508A2.7,2.7,0,0,0,29.086-2.6l1.008,1.25A3.135,3.135,0,0,1,28.719-.23,4.5,4.5,0,0,1,26.789.156Zm.7-6.945a1.565,1.565,0,0,0-1.082.383,3.363,3.363,0,0,0-.848,1.383h3.031l.047-.2a2.071,2.071,0,0,0,.008-.594,1.134,1.134,0,0,0-.383-.707A1.2,1.2,0,0,0,27.492-6.789Zm9.539.453a4.548,4.548,0,0,0-.742-.078,2.136,2.136,0,0,0-1.867.883L33.445,0h-2.2l1.469-8.453,2.07-.008-.2,1.031a2.325,2.325,0,0,1,1.969-1.2,3.214,3.214,0,0,1,.766.109Zm6.938-1.215-2.281-.718L42.352-9.6l2.242,1,.336-2.778h1.5L45.8-8.667l2.4-.921.2,1.506-2.562.695L47.1-5.262l-1.258.813-.984-2.289L43.125-4.566,41.961-5.5ZM57-4.164H55.141L54.414,0H52.125L54.1-11.375l3.766.008a4.289,4.289,0,0,1,2.91.891A2.817,2.817,0,0,1,61.68-8a3.574,3.574,0,0,1-2.5,3.258l1.6,4.617V0H58.344Zm-1.531-1.9,1.7.016a2.386,2.386,0,0,0,1.5-.488,1.933,1.933,0,0,0,.707-1.285,1.473,1.473,0,0,0-.242-1.187,1.442,1.442,0,0,0-1.117-.461l-1.953-.008ZM68.242,0H66.023l1.469-8.453h2.219ZM67.75-10.6a1.1,1.1,0,0,1,.344-.867,1.209,1.209,0,0,1,.867-.344,1.215,1.215,0,0,1,.867.3,1.1,1.1,0,0,1,.383.828,1.132,1.132,0,0,1-.324.844A1.215,1.215,0,0,1,69-9.461a1.235,1.235,0,0,1-.863-.3A1.091,1.091,0,0,1,67.75-10.6Zm5.234,8.766,3.984.016L76.648,0h-6.82l.258-1.492L74.8-6.609l-3.711-.016.32-1.828h6.586l-.25,1.445Zm9.3-6.781a2.346,2.346,0,0,1,2.008,1.063l.359-.906,1.969.008L84.586,3.25H82.367l.789-3.992a2.647,2.647,0,0,1-2.055.9,2.433,2.433,0,0,1-1.383-.414A2.6,2.6,0,0,1,78.8-1.434a4.733,4.733,0,0,1-.355-1.691,6.527,6.527,0,0,1,.023-.961l.047-.344a6.781,6.781,0,0,1,.723-2.3,3.673,3.673,0,0,1,1.313-1.449A3.151,3.151,0,0,1,82.281-8.617ZM80.648-3.08q.078,1.393,1.109,1.416a1.881,1.881,0,0,0,1.594-.822l.641-3.521a1.242,1.242,0,0,0-1.227-.79,1.612,1.612,0,0,0-1.367.653,3.761,3.761,0,0,0-.7,1.89A8.223,8.223,0,0,0,80.648-3.08Z" transform="translate(-5259 -3662.5)" fill="#12263f"/>
    <path id="Trazado_899237" data-name="Trazado 899237" d="M5.266,0h-2.2l1.5-8.656L1.8-7.82l.344-1.93,4.75-1.641L7.18-11.4Zm7.4-3.367-1.023.891L11.211,0h-2.2l2.078-12H13.3L12.156-5.484l.43-.461,2.508-2.508h2.828l-3.7,3.633L16.578,0H14.164ZM22.4-1.93a3,3,0,0,0,1.492-1.523,10.563,10.563,0,0,0,.789-3.43,7.066,7.066,0,0,0,.039-1.062q-.125-1.617-1.328-1.672a1.8,1.8,0,0,0-1.535.691A4.341,4.341,0,0,0,21.02-6.75q-.215,1.438-.254,1.941a9.02,9.02,0,0,0-.023.988q.031,1.469.883,1.883L21.328,0h-3.9l.352-1.906,1.633-.008a7.176,7.176,0,0,1-1.062-3.031,7.876,7.876,0,0,1,.164-2.1A5.992,5.992,0,0,1,19.477-9.4,5,5,0,0,1,21.238-11a4.5,4.5,0,0,1,2.277-.527,3.779,3.779,0,0,1,2.129.66,3.625,3.625,0,0,1,1.313,1.734,5.031,5.031,0,0,1,.262,2.41l-.07.547a6.113,6.113,0,0,1-2.547,4.3l1.672-.039L25.938,0H22.1ZM34.867-7.551l-2.281-.718L33.25-9.6l2.242,1,.336-2.778h1.5L36.7-8.667l2.4-.921.2,1.506-2.562.695L38-5.262l-1.258.813-.984-2.289L34.023-4.566,32.859-5.5Zm9.2,1.926,1.531-5.75h6.219l-.3,1.883H47.148L46.4-7.031a3.016,3.016,0,0,1,1.641-.437A2.693,2.693,0,0,1,50.3-6.434a3.855,3.855,0,0,1,.676,2.73,4.423,4.423,0,0,1-.66,2.023A3.852,3.852,0,0,1,48.828-.3,4.108,4.108,0,0,1,46.8.164a3.613,3.613,0,0,1-1.746-.441,3.12,3.12,0,0,1-1.223-1.2,3.409,3.409,0,0,1-.445-1.7h2.164a1.7,1.7,0,0,0,.383,1.09,1.259,1.259,0,0,0,.953.41,1.545,1.545,0,0,0,1.285-.57,2.845,2.845,0,0,0,.605-1.594,2.02,2.02,0,0,0-.27-1.406A1.3,1.3,0,0,0,47.4-5.773a2.195,2.195,0,0,0-1.531.609ZM55.633.156a2.884,2.884,0,0,1-2.281-1,4.205,4.205,0,0,1-.828-2.7A8.6,8.6,0,0,1,52.586-4.7l.32-2.133a6.638,6.638,0,0,1,1.508-3.531A3.652,3.652,0,0,1,57.3-11.531a2.9,2.9,0,0,1,2.285,1,4.161,4.161,0,0,1,.832,2.691,8.673,8.673,0,0,1-.062,1.164l-.328,2.117a6.781,6.781,0,0,1-1.5,3.551A3.63,3.63,0,0,1,55.633.156ZM58.281-8.1q0-1.552-1.094-1.606-1.578-.07-2.008,2.4l-.391,2.635A9.495,9.495,0,0,0,54.664-3.3q-.039,1.583,1.086,1.637,1.586.1,2.016-2.472l.414-2.776A8.178,8.178,0,0,0,58.281-8.1ZM64.617.156a2.884,2.884,0,0,1-2.281-1,4.205,4.205,0,0,1-.828-2.7A8.6,8.6,0,0,1,61.57-4.7l.32-2.133A6.638,6.638,0,0,1,63.4-10.367a3.652,3.652,0,0,1,2.883-1.164,2.9,2.9,0,0,1,2.285,1A4.161,4.161,0,0,1,69.4-7.844a8.673,8.673,0,0,1-.062,1.164l-.328,2.117a6.781,6.781,0,0,1-1.5,3.551A3.63,3.63,0,0,1,64.617.156ZM67.266-8.1q0-1.552-1.094-1.606-1.578-.07-2.008,2.4l-.391,2.635A9.495,9.495,0,0,0,63.648-3.3q-.039,1.583,1.086,1.637,1.586.1,2.016-2.472l.414-2.776A8.178,8.178,0,0,0,67.266-8.1ZM74.859-1.93a3,3,0,0,0,1.492-1.523,10.563,10.563,0,0,0,.789-3.43,7.066,7.066,0,0,0,.039-1.062q-.125-1.617-1.328-1.672a1.8,1.8,0,0,0-1.535.691A4.341,4.341,0,0,0,73.48-6.75q-.215,1.438-.254,1.941a9.021,9.021,0,0,0-.023.988q.031,1.469.883,1.883L73.789,0h-3.9l.352-1.906,1.633-.008a7.176,7.176,0,0,1-1.062-3.031,7.876,7.876,0,0,1,.164-2.1A5.992,5.992,0,0,1,71.938-9.4,5,5,0,0,1,73.7-11a4.5,4.5,0,0,1,2.277-.527,3.779,3.779,0,0,1,2.129.66,3.625,3.625,0,0,1,1.313,1.734,5.031,5.031,0,0,1,.262,2.41l-.07.547a6.113,6.113,0,0,1-2.547,4.3l1.672-.039L78.4,0H74.563Z" transform="translate(-5112 -3685.5)" fill="#12263f"/>
    <path id="Trazado_899047" data-name="Trazado 899047" d="M-3842.051-10039.182H-3735.1" transform="translate(-1283.949 6358.5)" fill="none" stroke="#000" stroke-width="1"/>
    <path id="Trazado_899238" data-name="Trazado 899238" d="M5.266,0h-2.2l1.5-8.656L1.8-7.82l.344-1.93,4.75-1.641L7.18-11.4Zm7.4-3.367-1.023.891L11.211,0h-2.2l2.078-12H13.3L12.156-5.484l.43-.461,2.508-2.508h2.828l-3.7,3.633L16.578,0H14.164ZM22.4-1.93a3,3,0,0,0,1.492-1.523,10.563,10.563,0,0,0,.789-3.43,7.066,7.066,0,0,0,.039-1.062q-.125-1.617-1.328-1.672a1.8,1.8,0,0,0-1.535.691A4.341,4.341,0,0,0,21.02-6.75q-.215,1.438-.254,1.941a9.02,9.02,0,0,0-.023.988q.031,1.469.883,1.883L21.328,0h-3.9l.352-1.906,1.633-.008a7.176,7.176,0,0,1-1.062-3.031,7.876,7.876,0,0,1,.164-2.1A5.992,5.992,0,0,1,19.477-9.4,5,5,0,0,1,21.238-11a4.5,4.5,0,0,1,2.277-.527,3.779,3.779,0,0,1,2.129.66,3.625,3.625,0,0,1,1.313,1.734,5.031,5.031,0,0,1,.262,2.41l-.07.547a6.113,6.113,0,0,1-2.547,4.3l1.672-.039L25.938,0H22.1ZM37.367-6.367H40.1l-.359,2.039H37.016l-.555,3.188h-2.1l.555-3.187h-2.75l.359-2.039h2.742L35.8-9.422h2.1Zm8.133.742,1.531-5.75H53.25l-.3,1.883H48.586l-.75,2.461a3.016,3.016,0,0,1,1.641-.437,2.693,2.693,0,0,1,2.262,1.035,3.855,3.855,0,0,1,.676,2.73,4.423,4.423,0,0,1-.66,2.023A3.852,3.852,0,0,1,50.266-.3a4.108,4.108,0,0,1-2.031.461,3.613,3.613,0,0,1-1.746-.441,3.12,3.12,0,0,1-1.223-1.2,3.409,3.409,0,0,1-.445-1.7h2.164a1.7,1.7,0,0,0,.383,1.09,1.259,1.259,0,0,0,.953.41,1.545,1.545,0,0,0,1.285-.57,2.845,2.845,0,0,0,.605-1.594,2.02,2.02,0,0,0-.27-1.406,1.3,1.3,0,0,0-1.105-.531,2.195,2.195,0,0,0-1.531.609ZM57.07.156a2.884,2.884,0,0,1-2.281-1,4.205,4.205,0,0,1-.828-2.7A8.6,8.6,0,0,1,54.023-4.7l.32-2.133a6.638,6.638,0,0,1,1.508-3.531,3.652,3.652,0,0,1,2.883-1.164,2.9,2.9,0,0,1,2.285,1,4.161,4.161,0,0,1,.832,2.691,8.673,8.673,0,0,1-.062,1.164l-.328,2.117a6.781,6.781,0,0,1-1.5,3.551A3.63,3.63,0,0,1,57.07.156ZM59.719-8.1q0-1.552-1.094-1.606-1.578-.07-2.008,2.4l-.391,2.635A9.495,9.495,0,0,0,56.1-3.3q-.039,1.583,1.086,1.637,1.586.1,2.016-2.472l.414-2.776A8.178,8.178,0,0,0,59.719-8.1ZM66.055.156a2.884,2.884,0,0,1-2.281-1,4.205,4.205,0,0,1-.828-2.7A8.6,8.6,0,0,1,63.008-4.7l.32-2.133a6.638,6.638,0,0,1,1.508-3.531,3.652,3.652,0,0,1,2.883-1.164,2.9,2.9,0,0,1,2.285,1,4.161,4.161,0,0,1,.832,2.691,8.673,8.673,0,0,1-.062,1.164l-.328,2.117a6.781,6.781,0,0,1-1.5,3.551A3.63,3.63,0,0,1,66.055.156ZM68.7-8.1q0-1.552-1.094-1.606-1.578-.07-2.008,2.4l-.391,2.635A9.494,9.494,0,0,0,65.086-3.3q-.039,1.583,1.086,1.637,1.586.1,2.016-2.472L68.6-6.912A8.178,8.178,0,0,0,68.7-8.1ZM76.3-1.93a3,3,0,0,0,1.492-1.523,10.563,10.563,0,0,0,.789-3.43,7.066,7.066,0,0,0,.039-1.062q-.125-1.617-1.328-1.672a1.8,1.8,0,0,0-1.535.691,4.341,4.341,0,0,0-.836,2.176q-.215,1.438-.254,1.941a9.021,9.021,0,0,0-.023.988q.031,1.469.883,1.883L75.227,0h-3.9l.352-1.906,1.633-.008A7.176,7.176,0,0,1,72.25-4.945a7.876,7.876,0,0,1,.164-2.1A5.992,5.992,0,0,1,73.375-9.4,5,5,0,0,1,75.137-11a4.5,4.5,0,0,1,2.277-.527,3.779,3.779,0,0,1,2.129.66,3.625,3.625,0,0,1,1.313,1.734,5.031,5.031,0,0,1,.262,2.41l-.07.547a6.113,6.113,0,0,1-2.547,4.3l1.672-.039L79.836,0H76Z" transform="translate(-5112 -3662.5)" fill="#12263f"/>
    <path id="Trazado_899239" data-name="Trazado 899239" d="M7.7-6.359H1.188V-7.617H7.7Zm0,3.242H1.188v-1.25H7.7Z" transform="translate(-5008.051 -3676)" fill="#12263f"/>
    <path id="Trazado_899240" data-name="Trazado 899240" d="M3.3-6.687l1.055.008A2.055,2.055,0,0,0,5.7-7.125a1.737,1.737,0,0,0,.629-1.2,1.261,1.261,0,0,0-.242-1.012,1.23,1.23,0,0,0-.961-.395,1.642,1.642,0,0,0-1.1.348,1.494,1.494,0,0,0-.559.941l-2.2.016a2.952,2.952,0,0,1,1.184-2.254,4.165,4.165,0,0,1,2.707-.863,3.716,3.716,0,0,1,2.547.9,2.739,2.739,0,0,1,.852,2.3A3.078,3.078,0,0,1,6.484-5.8,2.381,2.381,0,0,1,7.605-4.754a2.826,2.826,0,0,1,.309,1.5,3.267,3.267,0,0,1-.633,1.813,3.7,3.7,0,0,1-1.547,1.2A4.962,4.962,0,0,1,3.641.156a3.557,3.557,0,0,1-2.484-.91A3.03,3.03,0,0,1,.211-3.117H2.4a1.412,1.412,0,0,0,.355,1.035,1.385,1.385,0,0,0,1.035.418A1.933,1.933,0,0,0,5.1-2.1a1.761,1.761,0,0,0,.641-1.179,1.428,1.428,0,0,0-.277-1.2,1.553,1.553,0,0,0-1.152-.439l-1.3-.008Zm8.984,0,1.055.008a2.055,2.055,0,0,0,1.348-.445,1.737,1.737,0,0,0,.629-1.2,1.261,1.261,0,0,0-.242-1.012,1.23,1.23,0,0,0-.961-.395,1.642,1.642,0,0,0-1.1.348,1.494,1.494,0,0,0-.559.941l-2.2.016a2.952,2.952,0,0,1,1.184-2.254,4.165,4.165,0,0,1,2.707-.863,3.716,3.716,0,0,1,2.547.9,2.739,2.739,0,0,1,.852,2.3A3.078,3.078,0,0,1,15.469-5.8,2.381,2.381,0,0,1,16.59-4.754a2.826,2.826,0,0,1,.309,1.5,3.267,3.267,0,0,1-.633,1.813,3.7,3.7,0,0,1-1.547,1.2,4.962,4.962,0,0,1-2.094.395,3.557,3.557,0,0,1-2.484-.91A3.03,3.03,0,0,1,9.2-3.117h2.188a1.412,1.412,0,0,0,.355,1.035,1.385,1.385,0,0,0,1.035.418A1.933,1.933,0,0,0,14.086-2.1a1.761,1.761,0,0,0,.641-1.179,1.428,1.428,0,0,0-.277-1.2A1.553,1.553,0,0,0,13.3-4.914L12-4.922Zm8.984,0,1.055.008a2.055,2.055,0,0,0,1.348-.445,1.737,1.737,0,0,0,.629-1.2,1.261,1.261,0,0,0-.242-1.012,1.23,1.23,0,0,0-.961-.395,1.642,1.642,0,0,0-1.1.348,1.494,1.494,0,0,0-.559.941l-2.2.016a2.952,2.952,0,0,1,1.184-2.254,4.165,4.165,0,0,1,2.707-.863,3.716,3.716,0,0,1,2.547.9,2.739,2.739,0,0,1,.852,2.3A3.078,3.078,0,0,1,24.453-5.8a2.381,2.381,0,0,1,1.121,1.043,2.826,2.826,0,0,1,.309,1.5,3.267,3.267,0,0,1-.633,1.813A3.7,3.7,0,0,1,23.7-.238a4.962,4.962,0,0,1-2.094.395,3.557,3.557,0,0,1-2.484-.91,3.03,3.03,0,0,1-.945-2.363h2.188a1.412,1.412,0,0,0,.355,1.035,1.385,1.385,0,0,0,1.035.418A1.933,1.933,0,0,0,23.07-2.1a1.761,1.761,0,0,0,.641-1.179,1.428,1.428,0,0,0-.277-1.2,1.553,1.553,0,0,0-1.152-.439l-1.3-.008Zm7.25,4.359A1.22,1.22,0,0,1,29.41-2a1.111,1.111,0,0,1,.371.855,1.151,1.151,0,0,1-.344.879,1.194,1.194,0,0,1-.883.363,1.2,1.2,0,0,1-.883-.312A1.149,1.149,0,0,1,27.3-1.07a1.161,1.161,0,0,1,.336-.883A1.238,1.238,0,0,1,28.516-2.328Zm6.32-4.359,1.055.008a2.055,2.055,0,0,0,1.348-.445,1.737,1.737,0,0,0,.629-1.2,1.261,1.261,0,0,0-.242-1.012,1.23,1.23,0,0,0-.961-.395,1.642,1.642,0,0,0-1.1.348,1.494,1.494,0,0,0-.559.941l-2.2.016a2.952,2.952,0,0,1,1.184-2.254,4.165,4.165,0,0,1,2.707-.863,3.716,3.716,0,0,1,2.547.9,2.739,2.739,0,0,1,.852,2.3A3.078,3.078,0,0,1,38.023-5.8a2.381,2.381,0,0,1,1.121,1.043,2.826,2.826,0,0,1,.309,1.5,3.267,3.267,0,0,1-.633,1.813,3.7,3.7,0,0,1-1.547,1.2A4.962,4.962,0,0,1,35.18.156,3.557,3.557,0,0,1,32.7-.754a3.03,3.03,0,0,1-.945-2.363h2.188a1.412,1.412,0,0,0,.355,1.035,1.385,1.385,0,0,0,1.035.418A1.933,1.933,0,0,0,36.641-2.1a1.761,1.761,0,0,0,.641-1.179A1.428,1.428,0,0,0,37-4.475a1.553,1.553,0,0,0-1.152-.439l-1.3-.008ZM45.57-1.93a3,3,0,0,0,1.492-1.523,10.563,10.563,0,0,0,.789-3.43,7.066,7.066,0,0,0,.039-1.062q-.125-1.617-1.328-1.672a1.8,1.8,0,0,0-1.535.691,4.341,4.341,0,0,0-.836,2.176q-.215,1.438-.254,1.941a9.019,9.019,0,0,0-.023.988q.031,1.469.883,1.883L44.5,0H40.6l.352-1.906,1.633-.008a7.176,7.176,0,0,1-1.062-3.031,7.877,7.877,0,0,1,.164-2.1A5.992,5.992,0,0,1,42.648-9.4,5,5,0,0,1,44.41-11a4.5,4.5,0,0,1,2.277-.527,3.779,3.779,0,0,1,2.129.66,3.625,3.625,0,0,1,1.313,1.734,5.031,5.031,0,0,1,.262,2.41l-.07.547a6.113,6.113,0,0,1-2.547,4.3l1.672-.039L49.109,0H45.273Z" transform="translate(-4984 -3676)" fill="#12263f"/>
  </g>
</svg>
