<svg xmlns="http://www.w3.org/2000/svg" width="467" height="82" viewBox="0 0 467 82">
  <g id="Grupo_1108799" data-name="Grupo 1108799" transform="translate(-810.051 -9158)">
    <path id="Trazado_899231" data-name="Trazado 899231" d="M0,0H467V82H0Z" transform="translate(810.051 9158)" fill="#f4c0c0"/>
    <path id="Trazado_899232" data-name="Trazado 899232" d="M5.227-4.164H3.359V0H1.016V-11.375H5.242a4.778,4.778,0,0,1,3.109.9A3.1,3.1,0,0,1,9.445-7.937,3.5,3.5,0,0,1,8.941-6,3.437,3.437,0,0,1,7.414-4.758L9.875-.109V0H7.359Zm-1.867-1.9H5.25a1.936,1.936,0,0,0,1.367-.449A1.606,1.606,0,0,0,7.1-7.75a1.719,1.719,0,0,0-.457-1.266,1.9,1.9,0,0,0-1.4-.461H3.359Zm13.75-5.43v1.859h-.219a3.836,3.836,0,0,0-2.465.8A3.238,3.238,0,0,0,13.3-6.687a3.075,3.075,0,0,1,2.289-.922,2.9,2.9,0,0,1,2.359,1.063,4.259,4.259,0,0,1,.875,2.8,4.19,4.19,0,0,1-.48,2.008,3.446,3.446,0,0,1-1.359,1.4A3.949,3.949,0,0,1,15,.156a3.689,3.689,0,0,1-2.9-1.25A4.852,4.852,0,0,1,10.992-4.43v-.812a7.3,7.3,0,0,1,.7-3.27,5.127,5.127,0,0,1,2.008-2.2,5.884,5.884,0,0,1,3.035-.785Zm-2.2,5.7a1.8,1.8,0,0,0-.992.285,1.715,1.715,0,0,0-.656.753v.686A3.04,3.04,0,0,0,13.7-2.3a1.439,1.439,0,0,0,1.25.635,1.423,1.423,0,0,0,1.176-.573,2.337,2.337,0,0,0,.449-1.485,2.333,2.333,0,0,0-.453-1.5A1.477,1.477,0,0,0,14.906-5.789ZM27.9-10.115,23.5,0H21.117l4.406-9.555H19.867v-1.82H27.9ZM40.6-5.828H33.617V-7.672H40.6Zm0,3.383H33.617V-4.289H40.6Z" transform="translate(834.949 9204.5)" fill="#12263f"/>
    <path id="Trazado_899084" data-name="Trazado 899084" d="M-4340.051-2586h105" transform="translate(5235.051 11786)" fill="none" stroke="#000" stroke-width="1"/>
    <path id="Trazado_899233" data-name="Trazado 899233" d="M5.227-4.164H3.359V0H1.016V-11.375H5.242a4.778,4.778,0,0,1,3.109.9A3.1,3.1,0,0,1,9.445-7.937,3.5,3.5,0,0,1,8.941-6,3.437,3.437,0,0,1,7.414-4.758L9.875-.109V0H7.359Zm-1.867-1.9H5.25a1.936,1.936,0,0,0,1.367-.449A1.606,1.606,0,0,0,7.1-7.75a1.719,1.719,0,0,0-.457-1.266,1.9,1.9,0,0,0-1.4-.461H3.359Zm13.75-5.43v1.859h-.219a3.836,3.836,0,0,0-2.465.8A3.238,3.238,0,0,0,13.3-6.687a3.075,3.075,0,0,1,2.289-.922,2.9,2.9,0,0,1,2.359,1.063,4.259,4.259,0,0,1,.875,2.8,4.19,4.19,0,0,1-.48,2.008,3.446,3.446,0,0,1-1.359,1.4A3.949,3.949,0,0,1,15,.156a3.689,3.689,0,0,1-2.9-1.25A4.852,4.852,0,0,1,10.992-4.43v-.812a7.3,7.3,0,0,1,.7-3.27,5.127,5.127,0,0,1,2.008-2.2,5.884,5.884,0,0,1,3.035-.785Zm-2.2,5.7a1.8,1.8,0,0,0-.992.285,1.715,1.715,0,0,0-.656.753v.686A3.04,3.04,0,0,0,13.7-2.3a1.439,1.439,0,0,0,1.25.635,1.423,1.423,0,0,0,1.176-.573,2.337,2.337,0,0,0,.449-1.485,2.333,2.333,0,0,0-.453-1.5A1.477,1.477,0,0,0,14.906-5.789ZM26.039-7.52l-2.453-.695.461-1.413,2.43.976-.156-2.724h1.531L27.7-8.6l2.367-.96.461,1.428-2.5.695,1.641,2.078-1.242.883L27-6.754l-1.406,2.2-1.242-.844Zm13.8,3.355H37.969V0H35.625V-11.375h4.227a4.778,4.778,0,0,1,3.109.9,3.1,3.1,0,0,1,1.094,2.539A3.5,3.5,0,0,1,43.551-6a3.437,3.437,0,0,1-1.527,1.238L44.484-.109V0H41.969Zm-1.867-1.9h1.891a1.936,1.936,0,0,0,1.367-.449,1.606,1.606,0,0,0,.484-1.238,1.719,1.719,0,0,0-.457-1.266,1.9,1.9,0,0,0-1.4-.461H37.969Zm15.359-4.052L48.93,0H46.547l4.406-9.555H45.3v-1.82h8.031Z" transform="translate(915 9192)" fill="#12263f"/>
    <path id="Trazado_899234" data-name="Trazado 899234" d="M5.227-4.164H3.359V0H1.016V-11.375H5.242a4.778,4.778,0,0,1,3.109.9A3.1,3.1,0,0,1,9.445-7.937,3.5,3.5,0,0,1,8.941-6,3.437,3.437,0,0,1,7.414-4.758L9.875-.109V0H7.359Zm-1.867-1.9H5.25a1.936,1.936,0,0,0,1.367-.449A1.606,1.606,0,0,0,7.1-7.75a1.719,1.719,0,0,0-.457-1.266,1.9,1.9,0,0,0-1.4-.461H3.359Zm13.75-5.43v1.859h-.219a3.836,3.836,0,0,0-2.465.8A3.238,3.238,0,0,0,13.3-6.687a3.075,3.075,0,0,1,2.289-.922,2.9,2.9,0,0,1,2.359,1.063,4.259,4.259,0,0,1,.875,2.8,4.19,4.19,0,0,1-.48,2.008,3.446,3.446,0,0,1-1.359,1.4A3.949,3.949,0,0,1,15,.156a3.689,3.689,0,0,1-2.9-1.25A4.852,4.852,0,0,1,10.992-4.43v-.812a7.3,7.3,0,0,1,.7-3.27,5.127,5.127,0,0,1,2.008-2.2,5.884,5.884,0,0,1,3.035-.785Zm-2.2,5.7a1.8,1.8,0,0,0-.992.285,1.715,1.715,0,0,0-.656.753v.686A3.04,3.04,0,0,0,13.7-2.3a1.439,1.439,0,0,0,1.25.635,1.423,1.423,0,0,0,1.176-.573,2.337,2.337,0,0,0,.449-1.485,2.333,2.333,0,0,0-.453-1.5A1.477,1.477,0,0,0,14.906-5.789ZM28.8-6.367h2.82v2.039H28.8v3.188H26.648V-4.328H23.82V-6.367h2.828V-9.422H28.8Zm12.523,2.2H39.453V0H37.109V-11.375h4.227a4.778,4.778,0,0,1,3.109.9,3.1,3.1,0,0,1,1.094,2.539A3.5,3.5,0,0,1,45.035-6a3.437,3.437,0,0,1-1.527,1.238L45.969-.109V0H43.453Zm-1.867-1.9h1.891a1.936,1.936,0,0,0,1.367-.449A1.606,1.606,0,0,0,43.2-7.75a1.719,1.719,0,0,0-.457-1.266,1.9,1.9,0,0,0-1.4-.461H39.453Zm15.359-4.052L50.414,0H48.031l4.406-9.555H46.781v-1.82h8.031Z" transform="translate(915 9219)" fill="#12263f"/>
    <path id="Trazado_899235" data-name="Trazado 899235" d="M8.047-5.828H1.063V-7.672H8.047Zm0,3.383H1.063V-4.289H8.047Z" transform="translate(1008.949 9204.5)" fill="#12263f"/>
    <path id="Trazado_899085" data-name="Trazado 899085" d="M-4340.051-2586h105" transform="translate(5372.051 11786)" fill="none" stroke="#000" stroke-width="1"/>
    <path id="Trazado_899236" data-name="Trazado 899236" d="M8.188-8.352a2.646,2.646,0,0,1-.414,1.469A2.98,2.98,0,0,1,6.633-5.859a3.3,3.3,0,0,1,1.313,1.1A2.816,2.816,0,0,1,8.43-3.117,2.981,2.981,0,0,1,7.4-.723a4.183,4.183,0,0,1-2.8.879A4.2,4.2,0,0,1,1.781-.727,2.974,2.974,0,0,1,.742-3.117a2.834,2.834,0,0,1,.484-1.648,3.239,3.239,0,0,1,1.3-1.094A2.95,2.95,0,0,1,1.395-6.883a2.664,2.664,0,0,1-.41-1.469,2.948,2.948,0,0,1,.969-2.316,3.814,3.814,0,0,1,2.633-.863,3.839,3.839,0,0,1,2.629.855A2.937,2.937,0,0,1,8.188-8.352ZM6.164-3.281a1.638,1.638,0,0,0-.43-1.187,1.532,1.532,0,0,0-1.156-.445,1.529,1.529,0,0,0-1.148.441A1.635,1.635,0,0,0,3-3.281a1.634,1.634,0,0,0,.422,1.172,1.537,1.537,0,0,0,1.172.445,1.533,1.533,0,0,0,1.152-.43A1.631,1.631,0,0,0,6.164-3.281ZM5.93-8.242a1.563,1.563,0,0,0-.352-1.066,1.247,1.247,0,0,0-.992-.4A1.256,1.256,0,0,0,3.6-9.32,1.553,1.553,0,0,0,3.25-8.242,1.633,1.633,0,0,0,3.6-7.148a1.23,1.23,0,0,0,.992.414,1.219,1.219,0,0,0,.988-.414A1.645,1.645,0,0,0,5.93-8.242ZM17.75,0h-7.8V-1.547l3.68-3.922a9.078,9.078,0,0,0,1.121-1.445,2.322,2.322,0,0,0,.363-1.172,1.738,1.738,0,0,0-.383-1.191,1.382,1.382,0,0,0-1.094-.434,1.49,1.49,0,0,0-1.207.527A2.089,2.089,0,0,0,11.992-7.8H9.727a3.729,3.729,0,0,1,.5-1.9,3.5,3.5,0,0,1,1.4-1.348,4.262,4.262,0,0,1,2.055-.488,4.036,4.036,0,0,1,2.73.844A2.985,2.985,0,0,1,17.383-8.3a3.825,3.825,0,0,1-.437,1.719,9.551,9.551,0,0,1-1.5,2.039L12.859-1.82H17.75Zm7.258-7.52-2.453-.695.461-1.413,2.43.976-.156-2.724H26.82L26.664-8.6l2.367-.96.461,1.428-2.5.695,1.641,2.078-1.242.883L25.969-6.754l-1.406,2.2L23.32-5.395ZM39.836,0H37.578V-8.7l-2.7.836V-9.7l4.711-1.687h.242Zm4.031-5.594.656-5.781H50.9v1.883H46.375l-.281,2.445a3.58,3.58,0,0,1,1.711-.43,3.279,3.279,0,0,1,2.547,1.008,4.026,4.026,0,0,1,.922,2.82,4.124,4.124,0,0,1-.465,1.973A3.281,3.281,0,0,1,49.477-.324a4.158,4.158,0,0,1-2.047.48,4.416,4.416,0,0,1-1.914-.418,3.4,3.4,0,0,1-1.395-1.176,3.2,3.2,0,0,1-.543-1.727h2.234a1.669,1.669,0,0,0,.5,1.105,1.573,1.573,0,0,0,1.113.395,1.388,1.388,0,0,0,1.18-.551,2.551,2.551,0,0,0,.414-1.559,2.11,2.11,0,0,0-.477-1.484,1.749,1.749,0,0,0-1.352-.516,1.954,1.954,0,0,0-1.3.422l-.219.2Zm16.5.891a5.762,5.762,0,0,1-.977,3.609A3.409,3.409,0,0,1,56.531.156,3.433,3.433,0,0,1,53.688-1.07,5.594,5.594,0,0,1,52.68-4.586V-6.68a5.687,5.687,0,0,1,.988-3.617,3.434,3.434,0,0,1,2.848-1.234,3.437,3.437,0,0,1,2.844,1.223A5.576,5.576,0,0,1,60.367-6.8Zm-2.258-2.3a4.165,4.165,0,0,0-.387-2.061,1.307,1.307,0,0,0-1.207-.645A1.284,1.284,0,0,0,55.34-9.1a3.9,3.9,0,0,0-.4,1.92v2.768a4.372,4.372,0,0,0,.379,2.068,1.29,1.29,0,0,0,1.215.676,1.268,1.268,0,0,0,1.2-.649A4.268,4.268,0,0,0,58.109-4.3Z" transform="translate(1052 9192)" fill="#12263f"/>
    <path id="Trazado_899237" data-name="Trazado 899237" d="M8.188-8.352a2.646,2.646,0,0,1-.414,1.469A2.98,2.98,0,0,1,6.633-5.859a3.3,3.3,0,0,1,1.313,1.1A2.816,2.816,0,0,1,8.43-3.117,2.981,2.981,0,0,1,7.4-.723a4.183,4.183,0,0,1-2.8.879A4.2,4.2,0,0,1,1.781-.727,2.974,2.974,0,0,1,.742-3.117a2.834,2.834,0,0,1,.484-1.648,3.239,3.239,0,0,1,1.3-1.094A2.95,2.95,0,0,1,1.395-6.883a2.664,2.664,0,0,1-.41-1.469,2.948,2.948,0,0,1,.969-2.316,3.814,3.814,0,0,1,2.633-.863,3.839,3.839,0,0,1,2.629.855A2.937,2.937,0,0,1,8.188-8.352ZM6.164-3.281a1.638,1.638,0,0,0-.43-1.187,1.532,1.532,0,0,0-1.156-.445,1.529,1.529,0,0,0-1.148.441A1.635,1.635,0,0,0,3-3.281a1.634,1.634,0,0,0,.422,1.172,1.537,1.537,0,0,0,1.172.445,1.533,1.533,0,0,0,1.152-.43A1.631,1.631,0,0,0,6.164-3.281ZM5.93-8.242a1.563,1.563,0,0,0-.352-1.066,1.247,1.247,0,0,0-.992-.4A1.256,1.256,0,0,0,3.6-9.32,1.553,1.553,0,0,0,3.25-8.242,1.633,1.633,0,0,0,3.6-7.148a1.23,1.23,0,0,0,.992.414,1.219,1.219,0,0,0,.988-.414A1.645,1.645,0,0,0,5.93-8.242ZM17.75,0h-7.8V-1.547l3.68-3.922a9.078,9.078,0,0,0,1.121-1.445,2.322,2.322,0,0,0,.363-1.172,1.738,1.738,0,0,0-.383-1.191,1.382,1.382,0,0,0-1.094-.434,1.49,1.49,0,0,0-1.207.527A2.089,2.089,0,0,0,11.992-7.8H9.727a3.729,3.729,0,0,1,.5-1.9,3.5,3.5,0,0,1,1.4-1.348,4.262,4.262,0,0,1,2.055-.488,4.036,4.036,0,0,1,2.73.844A2.985,2.985,0,0,1,17.383-8.3a3.825,3.825,0,0,1-.437,1.719,9.551,9.551,0,0,1-1.5,2.039L12.859-1.82H17.75ZM27.766-6.367h2.82v2.039h-2.82v3.188H25.617V-4.328H22.789V-6.367h2.828V-9.422h2.148ZM41.32,0H39.063V-8.7l-2.7.836V-9.7l4.711-1.687h.242Zm4.031-5.594.656-5.781h6.375v1.883H47.859l-.281,2.445a3.58,3.58,0,0,1,1.711-.43,3.279,3.279,0,0,1,2.547,1.008,4.026,4.026,0,0,1,.922,2.82,4.124,4.124,0,0,1-.465,1.973A3.281,3.281,0,0,1,50.961-.324a4.158,4.158,0,0,1-2.047.48A4.416,4.416,0,0,1,47-.262a3.4,3.4,0,0,1-1.395-1.176,3.2,3.2,0,0,1-.543-1.727H47.3a1.669,1.669,0,0,0,.5,1.105,1.573,1.573,0,0,0,1.113.395,1.388,1.388,0,0,0,1.18-.551A2.551,2.551,0,0,0,50.5-3.773a2.11,2.11,0,0,0-.477-1.484,1.749,1.749,0,0,0-1.352-.516,1.954,1.954,0,0,0-1.3.422l-.219.2Zm16.5.891a5.762,5.762,0,0,1-.977,3.609A3.409,3.409,0,0,1,58.016.156,3.433,3.433,0,0,1,55.172-1.07a5.594,5.594,0,0,1-1.008-3.516V-6.68a5.687,5.687,0,0,1,.988-3.617A3.434,3.434,0,0,1,58-11.531a3.437,3.437,0,0,1,2.844,1.223A5.576,5.576,0,0,1,61.852-6.8Zm-2.258-2.3a4.165,4.165,0,0,0-.387-2.061A1.307,1.307,0,0,0,58-9.711a1.284,1.284,0,0,0-1.176.614,3.9,3.9,0,0,0-.4,1.92v2.768A4.372,4.372,0,0,0,56.8-2.341a1.29,1.29,0,0,0,1.215.676,1.268,1.268,0,0,0,1.2-.649A4.268,4.268,0,0,0,59.594-4.3Z" transform="translate(1052 9219)" fill="#12263f"/>
    <path id="Trazado_899238" data-name="Trazado 899238" d="M8.047-5.828H1.063V-7.672H8.047Zm0,3.383H1.063V-4.289H8.047Z" transform="translate(1153.949 9204.5)" fill="#12263f"/>
    <path id="Trazado_899239" data-name="Trazado 899239" d="M1.109-5.594l.656-5.781H8.141v1.883H3.617L3.336-7.047a3.58,3.58,0,0,1,1.711-.43A3.279,3.279,0,0,1,7.594-6.469a4.026,4.026,0,0,1,.922,2.82,4.124,4.124,0,0,1-.465,1.973A3.281,3.281,0,0,1,6.719-.324a4.158,4.158,0,0,1-2.047.48A4.416,4.416,0,0,1,2.758-.262,3.4,3.4,0,0,1,1.363-1.437,3.2,3.2,0,0,1,.82-3.164H3.055a1.669,1.669,0,0,0,.5,1.105,1.573,1.573,0,0,0,1.113.395,1.388,1.388,0,0,0,1.18-.551,2.551,2.551,0,0,0,.414-1.559,2.11,2.11,0,0,0-.477-1.484A1.749,1.749,0,0,0,4.43-5.773a1.954,1.954,0,0,0-1.3.422l-.219.2ZM12.25-6.687h1.2a1.7,1.7,0,0,0,1.273-.43,1.574,1.574,0,0,0,.414-1.141,1.392,1.392,0,0,0-.41-1.07A1.59,1.59,0,0,0,13.6-9.711a1.666,1.666,0,0,0-1.086.355,1.137,1.137,0,0,0-.437.926H9.82a2.777,2.777,0,0,1,.48-1.6,3.2,3.2,0,0,1,1.344-1.105,4.485,4.485,0,0,1,1.9-.4,4.253,4.253,0,0,1,2.828.863A2.945,2.945,0,0,1,17.4-8.289a2.394,2.394,0,0,1-.477,1.438,3.1,3.1,0,0,1-1.25,1.008,2.826,2.826,0,0,1,1.434,1.031,2.8,2.8,0,0,1,.473,1.625,2.994,2.994,0,0,1-1.105,2.43,4.445,4.445,0,0,1-2.926.914,4.214,4.214,0,0,1-2.785-.9A2.934,2.934,0,0,1,9.68-3.117h2.258a1.308,1.308,0,0,0,.48,1.047,1.771,1.771,0,0,0,1.184.406,1.779,1.779,0,0,0,1.262-.426,1.47,1.47,0,0,0,.457-1.129q0-1.7-1.875-1.7h-1.2Zm7.094,5.578a1.137,1.137,0,0,1,.363-.875,1.289,1.289,0,0,1,.91-.336,1.3,1.3,0,0,1,.918.336,1.137,1.137,0,0,1,.363.875,1.121,1.121,0,0,1-.359.863,1.305,1.305,0,0,1-.922.332A1.294,1.294,0,0,1,19.7-.246,1.121,1.121,0,0,1,19.344-1.109ZM31.438-4.7a5.763,5.763,0,0,1-.977,3.609A3.409,3.409,0,0,1,27.6.156,3.433,3.433,0,0,1,24.758-1.07,5.594,5.594,0,0,1,23.75-4.586V-6.68a5.687,5.687,0,0,1,.988-3.617,3.434,3.434,0,0,1,2.848-1.234,3.437,3.437,0,0,1,2.844,1.223A5.576,5.576,0,0,1,31.438-6.8Zm-2.258-2.3a4.165,4.165,0,0,0-.387-2.061,1.307,1.307,0,0,0-1.207-.645A1.284,1.284,0,0,0,26.41-9.1a3.9,3.9,0,0,0-.4,1.92v2.768a4.373,4.373,0,0,0,.379,2.068,1.29,1.29,0,0,0,1.215.676,1.268,1.268,0,0,0,1.2-.649A4.268,4.268,0,0,0,29.18-4.3ZM38.445,0H36.188V-8.7l-2.7.836V-9.7L38.2-11.391h.242ZM51.094-1.937q1.359-.586,1.453-3.656l.008-1.141a3.793,3.793,0,0,0-.5-2.152,1.6,1.6,0,0,0-1.4-.723,1.6,1.6,0,0,0-1.387.723,3.77,3.77,0,0,0-.5,2.152v.68a8.269,8.269,0,0,0,.383,2.793,2.067,2.067,0,0,0,1.133,1.324V0h-4V-1.906h1.7a5.423,5.423,0,0,1-1.336-1.855,5.605,5.605,0,0,1-.492-2.262v-.7a5.323,5.323,0,0,1,.57-2.484,4.165,4.165,0,0,1,1.6-1.711,4.5,4.5,0,0,1,2.336-.609,4.521,4.521,0,0,1,2.316.6,4.162,4.162,0,0,1,1.6,1.672,5.247,5.247,0,0,1,.6,2.418v.781a5.527,5.527,0,0,1-.492,2.3,5.48,5.48,0,0,1-1.336,1.848h1.688V0H51.094Z" transform="translate(1181 9204.5)" fill="#12263f"/>
  </g>
</svg>
