<svg xmlns="http://www.w3.org/2000/svg" width="505" height="82" viewBox="0 0 505 82">
  <g id="Grupo_1108806" data-name="Grupo 1108806" transform="translate(2227 595)">
    <path id="Trazado_899251" data-name="Trazado 899251" d="M0,0H505V82H0Z" transform="translate(-2227 -595)" fill="#f4c0c0"/>
    <path id="Trazado_899252" data-name="Trazado 899252" d="M5.227-4.164H3.359V0H1.016V-11.375H5.242a4.778,4.778,0,0,1,3.109.9A3.1,3.1,0,0,1,9.445-7.937,3.5,3.5,0,0,1,8.941-6,3.437,3.437,0,0,1,7.414-4.758L9.875-.109V0H7.359Zm-1.867-1.9H5.25a1.936,1.936,0,0,0,1.367-.449A1.606,1.606,0,0,0,7.1-7.75a1.719,1.719,0,0,0-.457-1.266,1.9,1.9,0,0,0-1.4-.461H3.359Zm16.8,2.273A4.025,4.025,0,0,1,18.8-.9,4.76,4.76,0,0,1,15.578.156a4.28,4.28,0,0,1-3.441-1.473,6.038,6.038,0,0,1-1.254-4.043v-.7a6.819,6.819,0,0,1,.578-2.891,4.332,4.332,0,0,1,1.652-1.918,4.629,4.629,0,0,1,2.5-.668,4.637,4.637,0,0,1,3.172,1.055,4.326,4.326,0,0,1,1.391,2.961H17.828a2.376,2.376,0,0,0-.613-1.6,2.271,2.271,0,0,0-1.605-.5,1.991,1.991,0,0,0-1.754.84,4.707,4.707,0,0,0-.6,2.605V-5.3a5.038,5.038,0,0,0,.559,2.7,1.954,1.954,0,0,0,1.762.852,2.314,2.314,0,0,0,1.621-.5,2.241,2.241,0,0,0,.613-1.535ZM32.711-5.828H25.727V-7.672h6.984Zm0,3.383H25.727V-4.289h6.984Z" transform="translate(-2187.051 -548.5)" fill="#12263f"/>
    <path id="Trazado_899253" data-name="Trazado 899253" d="M5.227-4.164H3.359V0H1.016V-11.375H5.242a4.778,4.778,0,0,1,3.109.9A3.1,3.1,0,0,1,9.445-7.937,3.5,3.5,0,0,1,8.941-6,3.437,3.437,0,0,1,7.414-4.758L9.875-.109V0H7.359Zm-1.867-1.9H5.25a1.936,1.936,0,0,0,1.367-.449A1.606,1.606,0,0,0,7.1-7.75a1.719,1.719,0,0,0-.457-1.266,1.9,1.9,0,0,0-1.4-.461H3.359ZM17.648-2.344H13.539L12.758,0H10.266L14.5-11.375h2.172L20.93,0H18.438Zm-3.477-1.9h2.844L15.586-8.5ZM27.625-7.52l-2.453-.695.461-1.413,2.43.976-.156-2.724h1.531L29.281-8.6l2.367-.96.461,1.428-2.5.695L31.25-5.355l-1.242.883L28.586-6.754l-1.406,2.2-1.242-.844Zm13.8,3.355H39.555V0H37.211V-11.375h4.227a4.778,4.778,0,0,1,3.109.9,3.1,3.1,0,0,1,1.094,2.539A3.5,3.5,0,0,1,45.137-6a3.437,3.437,0,0,1-1.527,1.238L46.07-.109V0H43.555Zm-1.867-1.9h1.891a1.936,1.936,0,0,0,1.367-.449A1.606,1.606,0,0,0,43.3-7.75a1.719,1.719,0,0,0-.457-1.266,1.9,1.9,0,0,0-1.4-.461H39.555ZM47.422,0V-11.375h3.984a5.232,5.232,0,0,1,3.141.793,2.712,2.712,0,0,1,1.07,2.324,2.57,2.57,0,0,1-.43,1.473,2.482,2.482,0,0,1-1.2.934,2.4,2.4,0,0,1,1.379.883,2.61,2.61,0,0,1,.5,1.625A3,3,0,0,1,54.828-.859,4.713,4.713,0,0,1,51.844,0Zm2.344-4.953v3.07h2.008a1.938,1.938,0,0,0,1.293-.395,1.353,1.353,0,0,0,.465-1.09,1.428,1.428,0,0,0-1.617-1.586Zm0-1.656H51.5q1.773-.031,1.773-1.414a1.307,1.307,0,0,0-.449-1.113,2.363,2.363,0,0,0-1.418-.34H49.766Z" transform="translate(-2122.051 -560.5)" fill="#12263f"/>
    <path id="Trazado_899112" data-name="Trazado 899112" d="M-4340.051-2586h105" transform="translate(2198 2032)" fill="none" stroke="#000" stroke-width="1"/>
    <path id="Trazado_899254" data-name="Trazado 899254" d="M5.227-4.164H3.359V0H1.016V-11.375H5.242a4.778,4.778,0,0,1,3.109.9A3.1,3.1,0,0,1,9.445-7.937,3.5,3.5,0,0,1,8.941-6,3.437,3.437,0,0,1,7.414-4.758L9.875-.109V0H7.359Zm-1.867-1.9H5.25a1.936,1.936,0,0,0,1.367-.449A1.606,1.606,0,0,0,7.1-7.75a1.719,1.719,0,0,0-.457-1.266,1.9,1.9,0,0,0-1.4-.461H3.359ZM17.648-2.344H13.539L12.758,0H10.266L14.5-11.375h2.172L20.93,0H18.438Zm-3.477-1.9h2.844L15.586-8.5ZM27.625-7.52l-2.453-.695.461-1.413,2.43.976-.156-2.724h1.531L29.281-8.6l2.367-.96.461,1.428-2.5.695L31.25-5.355l-1.242.883L28.586-6.754l-1.406,2.2-1.242-.844Zm13.8,3.355H39.555V0H37.211V-11.375h4.227a4.778,4.778,0,0,1,3.109.9,3.1,3.1,0,0,1,1.094,2.539A3.5,3.5,0,0,1,45.137-6a3.437,3.437,0,0,1-1.527,1.238L46.07-.109V0H43.555Zm-1.867-1.9h1.891a1.936,1.936,0,0,0,1.367-.449A1.606,1.606,0,0,0,43.3-7.75a1.719,1.719,0,0,0-.457-1.266,1.9,1.9,0,0,0-1.4-.461H39.555ZM47.422,0V-11.375h3.984a5.232,5.232,0,0,1,3.141.793,2.712,2.712,0,0,1,1.07,2.324,2.57,2.57,0,0,1-.43,1.473,2.482,2.482,0,0,1-1.2.934,2.4,2.4,0,0,1,1.379.883,2.61,2.61,0,0,1,.5,1.625A3,3,0,0,1,54.828-.859,4.713,4.713,0,0,1,51.844,0Zm2.344-4.953v3.07h2.008a1.938,1.938,0,0,0,1.293-.395,1.353,1.353,0,0,0,.465-1.09,1.428,1.428,0,0,0-1.617-1.586Zm0-1.656H51.5q1.773-.031,1.773-1.414a1.307,1.307,0,0,0-.449-1.113,2.363,2.363,0,0,0-1.418-.34H49.766Z" transform="translate(-2122.051 -536.5)" fill="#12263f"/>
    <path id="Trazado_899255" data-name="Trazado 899255" d="M8.047-5.828H1.063V-7.672H8.047Zm0,3.383H1.063V-4.289H8.047Z" transform="translate(-2027.051 -548.5)" fill="#12263f"/>
    <path id="Trazado_899113" data-name="Trazado 899113" d="M-4340.051-2586h123.5" transform="translate(2337 2032)" fill="none" stroke="#000" stroke-width="1"/>
    <path id="Trazado_899256" data-name="Trazado 899256" d="M8.57,0H.773V-1.547l3.68-3.922A9.078,9.078,0,0,0,5.574-6.914a2.322,2.322,0,0,0,.363-1.172,1.738,1.738,0,0,0-.383-1.191,1.382,1.382,0,0,0-1.094-.434,1.49,1.49,0,0,0-1.207.527A2.089,2.089,0,0,0,2.813-7.8H.547a3.729,3.729,0,0,1,.5-1.9,3.5,3.5,0,0,1,1.4-1.348A4.262,4.262,0,0,1,4.5-11.531a4.036,4.036,0,0,1,2.73.844A2.985,2.985,0,0,1,8.2-8.3a3.825,3.825,0,0,1-.437,1.719,9.551,9.551,0,0,1-1.5,2.039L3.68-1.82H8.57Zm9.117-10.115L13.289,0H10.906l4.406-9.555H9.656v-1.82h8.031Zm7.57-1.377v1.859h-.219a3.836,3.836,0,0,0-2.465.8,3.238,3.238,0,0,0-1.121,2.148,3.075,3.075,0,0,1,2.289-.922A2.9,2.9,0,0,1,26.1-6.547a4.259,4.259,0,0,1,.875,2.8,4.19,4.19,0,0,1-.48,2.008,3.446,3.446,0,0,1-1.359,1.4,3.949,3.949,0,0,1-1.988.5,3.689,3.689,0,0,1-2.9-1.25A4.852,4.852,0,0,1,19.141-4.43v-.812a7.3,7.3,0,0,1,.7-3.27,5.127,5.127,0,0,1,2.008-2.2,5.884,5.884,0,0,1,3.035-.785Zm-2.2,5.7a1.8,1.8,0,0,0-.992.285,1.715,1.715,0,0,0-.656.753v.686A3.04,3.04,0,0,0,21.852-2.3a1.439,1.439,0,0,0,1.25.635,1.423,1.423,0,0,0,1.176-.573,2.337,2.337,0,0,0,.449-1.485,2.333,2.333,0,0,0-.453-1.5A1.477,1.477,0,0,0,23.055-5.789Zm5.469,4.68a1.137,1.137,0,0,1,.363-.875,1.289,1.289,0,0,1,.91-.336,1.3,1.3,0,0,1,.918.336,1.137,1.137,0,0,1,.363.875,1.121,1.121,0,0,1-.359.863A1.305,1.305,0,0,1,29.8.086a1.294,1.294,0,0,1-.914-.332A1.121,1.121,0,0,1,28.523-1.109ZM39.086-11.492v1.859h-.219a3.836,3.836,0,0,0-2.465.8,3.238,3.238,0,0,0-1.121,2.148,3.075,3.075,0,0,1,2.289-.922A2.9,2.9,0,0,1,39.93-6.547a4.259,4.259,0,0,1,.875,2.8,4.19,4.19,0,0,1-.48,2.008,3.446,3.446,0,0,1-1.359,1.4,3.949,3.949,0,0,1-1.988.5,3.689,3.689,0,0,1-2.9-1.25A4.852,4.852,0,0,1,32.969-4.43v-.812a7.3,7.3,0,0,1,.7-3.27,5.127,5.127,0,0,1,2.008-2.2,5.884,5.884,0,0,1,3.035-.785Zm-2.2,5.7a1.8,1.8,0,0,0-.992.285,1.715,1.715,0,0,0-.656.753v.686A3.04,3.04,0,0,0,35.68-2.3a1.439,1.439,0,0,0,1.25.635,1.423,1.423,0,0,0,1.176-.573,2.337,2.337,0,0,0,.449-1.485,2.333,2.333,0,0,0-.453-1.5A1.477,1.477,0,0,0,36.883-5.789Zm12.992-4.326L45.477,0H43.094L47.5-9.555H41.844v-1.82h8.031Zm6.414,8.177q1.359-.586,1.453-3.656l.008-1.141a3.793,3.793,0,0,0-.5-2.152,1.6,1.6,0,0,0-1.4-.723,1.6,1.6,0,0,0-1.387.723,3.77,3.77,0,0,0-.5,2.152v.68a8.269,8.269,0,0,0,.383,2.793,2.067,2.067,0,0,0,1.133,1.324V0h-4V-1.906h1.7a5.423,5.423,0,0,1-1.336-1.855,5.605,5.605,0,0,1-.492-2.262v-.7a5.323,5.323,0,0,1,.57-2.484,4.165,4.165,0,0,1,1.6-1.711,4.5,4.5,0,0,1,2.336-.609,4.521,4.521,0,0,1,2.316.6,4.162,4.162,0,0,1,1.6,1.672,5.247,5.247,0,0,1,.6,2.418v.781a5.527,5.527,0,0,1-.492,2.3,5.48,5.48,0,0,1-1.336,1.848h1.688V0H56.289ZM67.945-7.52l-2.453-.695.461-1.413,2.43.976-.156-2.724h1.531L69.6-8.6l2.367-.96.461,1.428-2.5.695L71.57-5.355l-1.242.883L68.906-6.754,67.5-4.551l-1.242-.844ZM82.773,0H80.516V-8.7l-2.7.836V-9.7l4.711-1.687h.242ZM91.75-4.547a2.851,2.851,0,0,1-2.062.867,3.049,3.049,0,0,1-2.414-1.035,4.091,4.091,0,0,1-.906-2.793,4.357,4.357,0,0,1,.488-2.051,3.582,3.582,0,0,1,1.363-1.453,3.782,3.782,0,0,1,1.969-.52,3.617,3.617,0,0,1,2,.563,3.7,3.7,0,0,1,1.359,1.617,5.806,5.806,0,0,1,.492,2.414V-6.1a6.579,6.579,0,0,1-1.414,4.469A5.346,5.346,0,0,1,88.617.1l-.555.008V-1.773l.5-.008Q91.508-1.914,91.75-4.547Zm-1.508-.859a1.579,1.579,0,0,0,.941-.281,1.879,1.879,0,0,0,.6-.68V-7.3a3.1,3.1,0,0,0-.437-1.781,1.358,1.358,0,0,0-1.172-.633,1.318,1.318,0,0,0-1.117.621,2.641,2.641,0,0,0-.437,1.559A2.57,2.57,0,0,0,89.043-6,1.387,1.387,0,0,0,90.242-5.406Zm13.063.7a5.763,5.763,0,0,1-.977,3.609A3.409,3.409,0,0,1,99.469.156,3.433,3.433,0,0,1,96.625-1.07a5.594,5.594,0,0,1-1.008-3.516V-6.68a5.687,5.687,0,0,1,.988-3.617,3.434,3.434,0,0,1,2.848-1.234,3.437,3.437,0,0,1,2.844,1.223A5.576,5.576,0,0,1,103.3-6.8Zm-2.258-2.3a4.165,4.165,0,0,0-.387-2.061,1.307,1.307,0,0,0-1.207-.645,1.284,1.284,0,0,0-1.176.614,3.9,3.9,0,0,0-.4,1.92v2.768a4.373,4.373,0,0,0,.379,2.068,1.29,1.29,0,0,0,1.215.676,1.268,1.268,0,0,0,1.2-.649,4.268,4.268,0,0,0,.383-1.986Zm8.75,5.068q1.359-.586,1.453-3.656l.008-1.141a3.793,3.793,0,0,0-.5-2.152,1.6,1.6,0,0,0-1.4-.723,1.6,1.6,0,0,0-1.387.723,3.77,3.77,0,0,0-.5,2.152v.68a8.269,8.269,0,0,0,.383,2.793,2.067,2.067,0,0,0,1.133,1.324V0h-4V-1.906h1.7a5.423,5.423,0,0,1-1.336-1.855,5.605,5.605,0,0,1-.492-2.262v-.7a5.323,5.323,0,0,1,.57-2.484,4.165,4.165,0,0,1,1.6-1.711,4.5,4.5,0,0,1,2.336-.609,4.521,4.521,0,0,1,2.316.6,4.162,4.162,0,0,1,1.6,1.672,5.247,5.247,0,0,1,.6,2.418v.781a5.527,5.527,0,0,1-.492,2.3,5.48,5.48,0,0,1-1.336,1.848h1.688V0H109.8Z" transform="translate(-1999.345 -560.5)" fill="#12263f"/>
    <path id="Trazado_899257" data-name="Trazado 899257" d="M8.57,0H.773V-1.547l3.68-3.922A9.078,9.078,0,0,0,5.574-6.914a2.322,2.322,0,0,0,.363-1.172,1.738,1.738,0,0,0-.383-1.191,1.382,1.382,0,0,0-1.094-.434,1.49,1.49,0,0,0-1.207.527A2.089,2.089,0,0,0,2.813-7.8H.547a3.729,3.729,0,0,1,.5-1.9,3.5,3.5,0,0,1,1.4-1.348A4.262,4.262,0,0,1,4.5-11.531a4.036,4.036,0,0,1,2.73.844A2.985,2.985,0,0,1,8.2-8.3a3.825,3.825,0,0,1-.437,1.719,9.551,9.551,0,0,1-1.5,2.039L3.68-1.82H8.57Zm9.117-10.115L13.289,0H10.906l4.406-9.555H9.656v-1.82h8.031Zm7.57-1.377v1.859h-.219a3.836,3.836,0,0,0-2.465.8,3.238,3.238,0,0,0-1.121,2.148,3.075,3.075,0,0,1,2.289-.922A2.9,2.9,0,0,1,26.1-6.547a4.259,4.259,0,0,1,.875,2.8,4.19,4.19,0,0,1-.48,2.008,3.446,3.446,0,0,1-1.359,1.4,3.949,3.949,0,0,1-1.988.5,3.689,3.689,0,0,1-2.9-1.25A4.852,4.852,0,0,1,19.141-4.43v-.812a7.3,7.3,0,0,1,.7-3.27,5.127,5.127,0,0,1,2.008-2.2,5.884,5.884,0,0,1,3.035-.785Zm-2.2,5.7a1.8,1.8,0,0,0-.992.285,1.715,1.715,0,0,0-.656.753v.686A3.04,3.04,0,0,0,21.852-2.3a1.439,1.439,0,0,0,1.25.635,1.423,1.423,0,0,0,1.176-.573,2.337,2.337,0,0,0,.449-1.485,2.333,2.333,0,0,0-.453-1.5A1.477,1.477,0,0,0,23.055-5.789Zm5.469,4.68a1.137,1.137,0,0,1,.363-.875,1.289,1.289,0,0,1,.91-.336,1.3,1.3,0,0,1,.918.336,1.137,1.137,0,0,1,.363.875,1.121,1.121,0,0,1-.359.863A1.305,1.305,0,0,1,29.8.086a1.294,1.294,0,0,1-.914-.332A1.121,1.121,0,0,1,28.523-1.109ZM39.086-11.492v1.859h-.219a3.836,3.836,0,0,0-2.465.8,3.238,3.238,0,0,0-1.121,2.148,3.075,3.075,0,0,1,2.289-.922A2.9,2.9,0,0,1,39.93-6.547a4.259,4.259,0,0,1,.875,2.8,4.19,4.19,0,0,1-.48,2.008,3.446,3.446,0,0,1-1.359,1.4,3.949,3.949,0,0,1-1.988.5,3.689,3.689,0,0,1-2.9-1.25A4.852,4.852,0,0,1,32.969-4.43v-.812a7.3,7.3,0,0,1,.7-3.27,5.127,5.127,0,0,1,2.008-2.2,5.884,5.884,0,0,1,3.035-.785Zm-2.2,5.7a1.8,1.8,0,0,0-.992.285,1.715,1.715,0,0,0-.656.753v.686A3.04,3.04,0,0,0,35.68-2.3a1.439,1.439,0,0,0,1.25.635,1.423,1.423,0,0,0,1.176-.573,2.337,2.337,0,0,0,.449-1.485,2.333,2.333,0,0,0-.453-1.5A1.477,1.477,0,0,0,36.883-5.789Zm12.992-4.326L45.477,0H43.094L47.5-9.555H41.844v-1.82h8.031Zm6.414,8.177q1.359-.586,1.453-3.656l.008-1.141a3.793,3.793,0,0,0-.5-2.152,1.6,1.6,0,0,0-1.4-.723,1.6,1.6,0,0,0-1.387.723,3.77,3.77,0,0,0-.5,2.152v.68a8.269,8.269,0,0,0,.383,2.793,2.067,2.067,0,0,0,1.133,1.324V0h-4V-1.906h1.7a5.423,5.423,0,0,1-1.336-1.855,5.605,5.605,0,0,1-.492-2.262v-.7a5.323,5.323,0,0,1,.57-2.484,4.165,4.165,0,0,1,1.6-1.711,4.5,4.5,0,0,1,2.336-.609,4.521,4.521,0,0,1,2.316.6,4.162,4.162,0,0,1,1.6,1.672,5.247,5.247,0,0,1,.6,2.418v.781a5.527,5.527,0,0,1-.492,2.3,5.48,5.48,0,0,1-1.336,1.848h1.688V0H56.289ZM67.945-7.52l-2.453-.695.461-1.413,2.43.976-.156-2.724h1.531L69.6-8.6l2.367-.96.461,1.428-2.5.695L71.57-5.355l-1.242.883L68.906-6.754,67.5-4.551l-1.242-.844ZM82.773,0H80.516V-8.7l-2.7.836V-9.7l4.711-1.687h.242ZM91.75-4.547a2.851,2.851,0,0,1-2.062.867,3.049,3.049,0,0,1-2.414-1.035,4.091,4.091,0,0,1-.906-2.793,4.357,4.357,0,0,1,.488-2.051,3.582,3.582,0,0,1,1.363-1.453,3.782,3.782,0,0,1,1.969-.52,3.617,3.617,0,0,1,2,.563,3.7,3.7,0,0,1,1.359,1.617,5.806,5.806,0,0,1,.492,2.414V-6.1a6.579,6.579,0,0,1-1.414,4.469A5.346,5.346,0,0,1,88.617.1l-.555.008V-1.773l.5-.008Q91.508-1.914,91.75-4.547Zm-1.508-.859a1.579,1.579,0,0,0,.941-.281,1.879,1.879,0,0,0,.6-.68V-7.3a3.1,3.1,0,0,0-.437-1.781,1.358,1.358,0,0,0-1.172-.633,1.318,1.318,0,0,0-1.117.621,2.641,2.641,0,0,0-.437,1.559A2.57,2.57,0,0,0,89.043-6,1.387,1.387,0,0,0,90.242-5.406Zm13.063.7a5.763,5.763,0,0,1-.977,3.609A3.409,3.409,0,0,1,99.469.156,3.433,3.433,0,0,1,96.625-1.07a5.594,5.594,0,0,1-1.008-3.516V-6.68a5.687,5.687,0,0,1,.988-3.617,3.434,3.434,0,0,1,2.848-1.234,3.437,3.437,0,0,1,2.844,1.223A5.576,5.576,0,0,1,103.3-6.8Zm-2.258-2.3a4.165,4.165,0,0,0-.387-2.061,1.307,1.307,0,0,0-1.207-.645,1.284,1.284,0,0,0-1.176.614,3.9,3.9,0,0,0-.4,1.92v2.768a4.373,4.373,0,0,0,.379,2.068,1.29,1.29,0,0,0,1.215.676,1.268,1.268,0,0,0,1.2-.649,4.268,4.268,0,0,0,.383-1.986Zm8.75,5.068q1.359-.586,1.453-3.656l.008-1.141a3.793,3.793,0,0,0-.5-2.152,1.6,1.6,0,0,0-1.4-.723,1.6,1.6,0,0,0-1.387.723,3.77,3.77,0,0,0-.5,2.152v.68a8.269,8.269,0,0,0,.383,2.793,2.067,2.067,0,0,0,1.133,1.324V0h-4V-1.906h1.7a5.423,5.423,0,0,1-1.336-1.855,5.605,5.605,0,0,1-.492-2.262v-.7a5.323,5.323,0,0,1,.57-2.484,4.165,4.165,0,0,1,1.6-1.711,4.5,4.5,0,0,1,2.336-.609,4.521,4.521,0,0,1,2.316.6,4.162,4.162,0,0,1,1.6,1.672,5.247,5.247,0,0,1,.6,2.418v.781a5.527,5.527,0,0,1-.492,2.3,5.48,5.48,0,0,1-1.336,1.848h1.688V0H109.8Z" transform="translate(-1999.345 -536.5)" fill="#12263f"/>
    <path id="Trazado_899258" data-name="Trazado 899258" d="M8.047-5.828H1.063V-7.672H8.047Zm0,3.383H1.063V-4.289H8.047Z" transform="translate(-1868.051 -548.5)" fill="#12263f"/>
    <path id="Trazado_899259" data-name="Trazado 899259" d="M6.258,0H4V-8.7l-2.7.836V-9.7l4.711-1.687h.242Zm9.18,0H13.18V-8.7l-2.7.836V-9.7L15.2-11.391h.242ZM21.43-6.687h1.2a1.7,1.7,0,0,0,1.273-.43,1.574,1.574,0,0,0,.414-1.141,1.392,1.392,0,0,0-.41-1.07,1.59,1.59,0,0,0-1.129-.383,1.666,1.666,0,0,0-1.086.355,1.137,1.137,0,0,0-.437.926H19a2.777,2.777,0,0,1,.48-1.6,3.2,3.2,0,0,1,1.344-1.105,4.485,4.485,0,0,1,1.9-.4,4.253,4.253,0,0,1,2.828.863,2.945,2.945,0,0,1,1.023,2.379A2.394,2.394,0,0,1,26.1-6.852a3.1,3.1,0,0,1-1.25,1.008,2.826,2.826,0,0,1,1.434,1.031,2.8,2.8,0,0,1,.473,1.625,2.994,2.994,0,0,1-1.105,2.43,4.445,4.445,0,0,1-2.926.914,4.214,4.214,0,0,1-2.785-.9,2.934,2.934,0,0,1-1.082-2.375h2.258A1.308,1.308,0,0,0,21.6-2.07a1.771,1.771,0,0,0,1.184.406,1.779,1.779,0,0,0,1.262-.426A1.47,1.47,0,0,0,24.5-3.219q0-1.7-1.875-1.7h-1.2Zm7.094,5.578a1.137,1.137,0,0,1,.363-.875,1.289,1.289,0,0,1,.91-.336,1.3,1.3,0,0,1,.918.336,1.137,1.137,0,0,1,.363.875,1.121,1.121,0,0,1-.359.863A1.305,1.305,0,0,1,29.8.086a1.294,1.294,0,0,1-.914-.332A1.121,1.121,0,0,1,28.523-1.109ZM40.617-4.7a5.762,5.762,0,0,1-.977,3.609A3.409,3.409,0,0,1,36.781.156,3.433,3.433,0,0,1,33.938-1.07,5.594,5.594,0,0,1,32.93-4.586V-6.68a5.687,5.687,0,0,1,.988-3.617,3.434,3.434,0,0,1,2.848-1.234,3.437,3.437,0,0,1,2.844,1.223A5.576,5.576,0,0,1,40.617-6.8Zm-2.258-2.3a4.165,4.165,0,0,0-.387-2.061,1.307,1.307,0,0,0-1.207-.645A1.284,1.284,0,0,0,35.59-9.1a3.9,3.9,0,0,0-.4,1.92v2.768a4.372,4.372,0,0,0,.379,2.068,1.29,1.29,0,0,0,1.215.676,1.268,1.268,0,0,0,1.2-.649A4.268,4.268,0,0,0,38.359-4.3ZM49.938,0h-7.8V-1.547l3.68-3.922a9.078,9.078,0,0,0,1.121-1.445A2.322,2.322,0,0,0,47.3-8.086a1.738,1.738,0,0,0-.383-1.191,1.382,1.382,0,0,0-1.094-.434,1.49,1.49,0,0,0-1.207.527A2.089,2.089,0,0,0,44.18-7.8H41.914a3.729,3.729,0,0,1,.5-1.9,3.5,3.5,0,0,1,1.4-1.348,4.262,4.262,0,0,1,2.055-.488,4.036,4.036,0,0,1,2.73.844A2.985,2.985,0,0,1,49.57-8.3a3.825,3.825,0,0,1-.437,1.719,9.551,9.551,0,0,1-1.5,2.039L45.047-1.82h4.891ZM60.273-1.937q1.359-.586,1.453-3.656l.008-1.141a3.793,3.793,0,0,0-.5-2.152,1.6,1.6,0,0,0-1.4-.723,1.6,1.6,0,0,0-1.387.723,3.77,3.77,0,0,0-.5,2.152v.68a8.269,8.269,0,0,0,.383,2.793,2.067,2.067,0,0,0,1.133,1.324V0h-4V-1.906h1.7A5.423,5.423,0,0,1,55.82-3.762a5.605,5.605,0,0,1-.492-2.262v-.7A5.323,5.323,0,0,1,55.9-9.2a4.165,4.165,0,0,1,1.6-1.711,4.5,4.5,0,0,1,2.336-.609,4.521,4.521,0,0,1,2.316.6,4.162,4.162,0,0,1,1.6,1.672,5.247,5.247,0,0,1,.6,2.418v.781a5.527,5.527,0,0,1-.492,2.3,5.48,5.48,0,0,1-1.336,1.848h1.688V0H60.273Z" transform="translate(-1848.051 -548.5)" fill="#12263f"/>
  </g>
</svg>
