<svg xmlns="http://www.w3.org/2000/svg" width="406" height="82" viewBox="0 0 406 82">
  <g id="Grupo_1108806" data-name="Grupo 1108806" transform="translate(2227 109)">
    <path id="Trazado_899251" data-name="Trazado 899251" d="M0,0H406V82H0Z" transform="translate(-2227 -109)" fill="#f4c0c0"/>
    <path id="Trazado_899252" data-name="Trazado 899252" d="M5.227-4.164H3.359V0H1.016V-11.375H5.242a4.778,4.778,0,0,1,3.109.9A3.1,3.1,0,0,1,9.445-7.937,3.5,3.5,0,0,1,8.941-6,3.437,3.437,0,0,1,7.414-4.758L9.875-.109V0H7.359Zm-1.867-1.9H5.25a1.936,1.936,0,0,0,1.367-.449A1.606,1.606,0,0,0,7.1-7.75a1.719,1.719,0,0,0-.457-1.266,1.9,1.9,0,0,0-1.4-.461H3.359ZM11.227,0V-11.375h3.5a5.315,5.315,0,0,1,2.684.676,4.712,4.712,0,0,1,1.848,1.922,5.928,5.928,0,0,1,.664,2.832v.523A5.945,5.945,0,0,1,19.27-2.6,4.672,4.672,0,0,1,17.43-.687,5.355,5.355,0,0,1,14.75,0ZM13.57-9.477v7.594H14.7a2.545,2.545,0,0,0,2.1-.9,4.06,4.06,0,0,0,.742-2.57v-.6a4.124,4.124,0,0,0-.719-2.629,2.537,2.537,0,0,0-2.1-.895Zm19.07,3.648H25.656V-7.672h6.984Zm0,3.383H25.656V-4.289h6.984Z" transform="translate(-2187.051 -62.5)" fill="#12263f"/>
    <path id="Trazado_899253" data-name="Trazado 899253" d="M5.227-4.164H3.359V0H1.016V-11.375H5.242a4.778,4.778,0,0,1,3.109.9A3.1,3.1,0,0,1,9.445-7.937,3.5,3.5,0,0,1,8.941-6,3.437,3.437,0,0,1,7.414-4.758L9.875-.109V0H7.359Zm-1.867-1.9H5.25a1.936,1.936,0,0,0,1.367-.449A1.606,1.606,0,0,0,7.1-7.75a1.719,1.719,0,0,0-.457-1.266,1.9,1.9,0,0,0-1.4-.461H3.359ZM16.266-4.547A2.851,2.851,0,0,1,14.2-3.68a3.049,3.049,0,0,1-2.414-1.035,4.091,4.091,0,0,1-.906-2.793,4.357,4.357,0,0,1,.488-2.051,3.582,3.582,0,0,1,1.363-1.453,3.782,3.782,0,0,1,1.969-.52,3.617,3.617,0,0,1,2,.563,3.7,3.7,0,0,1,1.359,1.617,5.806,5.806,0,0,1,.492,2.414V-6.1a6.579,6.579,0,0,1-1.414,4.469A5.346,5.346,0,0,1,13.133.1l-.555.008V-1.773l.5-.008Q16.023-1.914,16.266-4.547Zm-1.508-.859a1.579,1.579,0,0,0,.941-.281,1.879,1.879,0,0,0,.6-.68V-7.3a3.1,3.1,0,0,0-.437-1.781,1.358,1.358,0,0,0-1.172-.633,1.318,1.318,0,0,0-1.117.621,2.641,2.641,0,0,0-.437,1.559A2.57,2.57,0,0,0,13.559-6,1.387,1.387,0,0,0,14.758-5.406ZM26.039-7.52l-2.453-.695.461-1.413,2.43.976-.156-2.724h1.531L27.7-8.6l2.367-.96.461,1.428-2.5.695,1.641,2.078-1.242.883L27-6.754l-1.406,2.2-1.242-.844Zm13.8,3.355H37.969V0H35.625V-11.375h4.227a4.778,4.778,0,0,1,3.109.9,3.1,3.1,0,0,1,1.094,2.539A3.5,3.5,0,0,1,43.551-6a3.437,3.437,0,0,1-1.527,1.238L44.484-.109V0H41.969Zm-1.867-1.9h1.891a1.936,1.936,0,0,0,1.367-.449,1.606,1.606,0,0,0,.484-1.238,1.719,1.719,0,0,0-.457-1.266,1.9,1.9,0,0,0-1.4-.461H37.969ZM51.078,0H48.82V-8.7l-2.7.836V-9.7l4.711-1.687h.242ZM62.43-4.7a5.762,5.762,0,0,1-.977,3.609A3.409,3.409,0,0,1,58.594.156,3.433,3.433,0,0,1,55.75-1.07a5.594,5.594,0,0,1-1.008-3.516V-6.68A5.687,5.687,0,0,1,55.73-10.3a3.434,3.434,0,0,1,2.848-1.234,3.437,3.437,0,0,1,2.844,1.223A5.576,5.576,0,0,1,62.43-6.8Zm-2.258-2.3a4.165,4.165,0,0,0-.387-2.061,1.307,1.307,0,0,0-1.207-.645A1.284,1.284,0,0,0,57.4-9.1a3.9,3.9,0,0,0-.4,1.92v2.768a4.372,4.372,0,0,0,.379,2.068,1.29,1.29,0,0,0,1.215.676,1.268,1.268,0,0,0,1.2-.649A4.268,4.268,0,0,0,60.172-4.3Z" transform="translate(-2122.051 -74.5)" fill="#12263f"/>
    <path id="Trazado_899115" data-name="Trazado 899115" d="M-4340.051-2586h105" transform="translate(2198 2518)" fill="none" stroke="#000" stroke-width="1"/>
    <path id="Trazado_899254" data-name="Trazado 899254" d="M5.227-4.164H3.359V0H1.016V-11.375H5.242a4.778,4.778,0,0,1,3.109.9A3.1,3.1,0,0,1,9.445-7.937,3.5,3.5,0,0,1,8.941-6,3.437,3.437,0,0,1,7.414-4.758L9.875-.109V0H7.359Zm-1.867-1.9H5.25a1.936,1.936,0,0,0,1.367-.449A1.606,1.606,0,0,0,7.1-7.75a1.719,1.719,0,0,0-.457-1.266,1.9,1.9,0,0,0-1.4-.461H3.359ZM16.266-4.547A2.851,2.851,0,0,1,14.2-3.68a3.049,3.049,0,0,1-2.414-1.035,4.091,4.091,0,0,1-.906-2.793,4.357,4.357,0,0,1,.488-2.051,3.582,3.582,0,0,1,1.363-1.453,3.782,3.782,0,0,1,1.969-.52,3.617,3.617,0,0,1,2,.563,3.7,3.7,0,0,1,1.359,1.617,5.806,5.806,0,0,1,.492,2.414V-6.1a6.579,6.579,0,0,1-1.414,4.469A5.346,5.346,0,0,1,13.133.1l-.555.008V-1.773l.5-.008Q16.023-1.914,16.266-4.547Zm-1.508-.859a1.579,1.579,0,0,0,.941-.281,1.879,1.879,0,0,0,.6-.68V-7.3a3.1,3.1,0,0,0-.437-1.781,1.358,1.358,0,0,0-1.172-.633,1.318,1.318,0,0,0-1.117.621,2.641,2.641,0,0,0-.437,1.559A2.57,2.57,0,0,0,13.559-6,1.387,1.387,0,0,0,14.758-5.406ZM26.039-7.52l-2.453-.695.461-1.413,2.43.976-.156-2.724h1.531L27.7-8.6l2.367-.96.461,1.428-2.5.695,1.641,2.078-1.242.883L27-6.754l-1.406,2.2-1.242-.844Zm13.8,3.355H37.969V0H35.625V-11.375h4.227a4.778,4.778,0,0,1,3.109.9,3.1,3.1,0,0,1,1.094,2.539A3.5,3.5,0,0,1,43.551-6a3.437,3.437,0,0,1-1.527,1.238L44.484-.109V0H41.969Zm-1.867-1.9h1.891a1.936,1.936,0,0,0,1.367-.449,1.606,1.606,0,0,0,.484-1.238,1.719,1.719,0,0,0-.457-1.266,1.9,1.9,0,0,0-1.4-.461H37.969ZM51.078,0H48.82V-8.7l-2.7.836V-9.7l4.711-1.687h.242ZM62.43-4.7a5.762,5.762,0,0,1-.977,3.609A3.409,3.409,0,0,1,58.594.156,3.433,3.433,0,0,1,55.75-1.07a5.594,5.594,0,0,1-1.008-3.516V-6.68A5.687,5.687,0,0,1,55.73-10.3a3.434,3.434,0,0,1,2.848-1.234,3.437,3.437,0,0,1,2.844,1.223A5.576,5.576,0,0,1,62.43-6.8Zm-2.258-2.3a4.165,4.165,0,0,0-.387-2.061,1.307,1.307,0,0,0-1.207-.645A1.284,1.284,0,0,0,57.4-9.1a3.9,3.9,0,0,0-.4,1.92v2.768a4.372,4.372,0,0,0,.379,2.068,1.29,1.29,0,0,0,1.215.676,1.268,1.268,0,0,0,1.2-.649A4.268,4.268,0,0,0,60.172-4.3Z" transform="translate(-2122.051 -50.5)" fill="#12263f"/>
    <path id="Trazado_899255" data-name="Trazado 899255" d="M8.047-5.828H1.063V-7.672H8.047Zm0,3.383H1.063V-4.289H8.047Z" transform="translate(-2027.051 -62.5)" fill="#12263f"/>
    <path id="Trazado_899116" data-name="Trazado 899116" d="M-4340.051-2586h83.03" transform="translate(2337 2518)" fill="none" stroke="#000" stroke-width="1"/>
    <path id="Trazado_899256" data-name="Trazado 899256" d="M6.9-11.492v1.859H6.68a3.836,3.836,0,0,0-2.465.8A3.238,3.238,0,0,0,3.094-6.687a3.075,3.075,0,0,1,2.289-.922A2.9,2.9,0,0,1,7.742-6.547a4.259,4.259,0,0,1,.875,2.8,4.19,4.19,0,0,1-.48,2.008,3.446,3.446,0,0,1-1.359,1.4,3.949,3.949,0,0,1-1.988.5,3.689,3.689,0,0,1-2.9-1.25A4.852,4.852,0,0,1,.781-4.43v-.812a7.3,7.3,0,0,1,.7-3.27,5.127,5.127,0,0,1,2.008-2.2,5.884,5.884,0,0,1,3.035-.785Zm-2.2,5.7A1.8,1.8,0,0,0,3.7-5.5a1.715,1.715,0,0,0-.656.753v.686A3.04,3.04,0,0,0,3.492-2.3a1.439,1.439,0,0,0,1.25.635,1.423,1.423,0,0,0,1.176-.573,2.337,2.337,0,0,0,.449-1.485,2.333,2.333,0,0,0-.453-1.5A1.477,1.477,0,0,0,4.7-5.789ZM17.609-4.7a5.763,5.763,0,0,1-.977,3.609A3.409,3.409,0,0,1,13.773.156,3.433,3.433,0,0,1,10.93-1.07,5.594,5.594,0,0,1,9.922-4.586V-6.68A5.687,5.687,0,0,1,10.91-10.3a3.434,3.434,0,0,1,2.848-1.234A3.437,3.437,0,0,1,16.6-10.309,5.576,5.576,0,0,1,17.609-6.8Zm-2.258-2.3a4.165,4.165,0,0,0-.387-2.061,1.307,1.307,0,0,0-1.207-.645,1.284,1.284,0,0,0-1.176.614,3.9,3.9,0,0,0-.4,1.92v2.768a4.372,4.372,0,0,0,.379,2.068,1.29,1.29,0,0,0,1.215.676,1.268,1.268,0,0,0,1.2-.649A4.268,4.268,0,0,0,15.352-4.3ZM24.1-1.937q1.359-.586,1.453-3.656l.008-1.141a3.793,3.793,0,0,0-.5-2.152,1.6,1.6,0,0,0-1.4-.723,1.6,1.6,0,0,0-1.387.723,3.77,3.77,0,0,0-.5,2.152v.68a8.269,8.269,0,0,0,.383,2.793,2.067,2.067,0,0,0,1.133,1.324V0h-4V-1.906h1.7a5.423,5.423,0,0,1-1.336-1.855,5.605,5.605,0,0,1-.492-2.262v-.7a5.323,5.323,0,0,1,.57-2.484,4.165,4.165,0,0,1,1.6-1.711,4.5,4.5,0,0,1,2.336-.609,4.521,4.521,0,0,1,2.316.6,4.162,4.162,0,0,1,1.6,1.672,5.247,5.247,0,0,1,.6,2.418v.781a5.527,5.527,0,0,1-.492,2.3,5.48,5.48,0,0,1-1.336,1.848h1.688V0H24.1ZM35.758-7.52,33.3-8.214l.461-1.413,2.43.976-.156-2.724H37.57L37.414-8.6l2.367-.96.461,1.428-2.5.695,1.641,2.078-1.242.883L36.719-6.754l-1.406,2.2L34.07-5.395ZM50.586,0H48.328V-8.7l-2.7.836V-9.7l4.711-1.687h.242ZM60.961-4.281H62.25v1.82H60.961V0H58.7V-2.461H54.039l-.1-1.422,4.742-7.492h2.281Zm-4.773,0H58.7V-8.3l-.148.258ZM71.117-4.7a5.763,5.763,0,0,1-.977,3.609A3.409,3.409,0,0,1,67.281.156,3.433,3.433,0,0,1,64.438-1.07,5.594,5.594,0,0,1,63.43-4.586V-6.68a5.687,5.687,0,0,1,.988-3.617,3.434,3.434,0,0,1,2.848-1.234,3.437,3.437,0,0,1,2.844,1.223A5.576,5.576,0,0,1,71.117-6.8Zm-2.258-2.3a4.165,4.165,0,0,0-.387-2.061,1.307,1.307,0,0,0-1.207-.645A1.284,1.284,0,0,0,66.09-9.1a3.9,3.9,0,0,0-.4,1.92v2.768a4.373,4.373,0,0,0,.379,2.068,1.29,1.29,0,0,0,1.215.676,1.268,1.268,0,0,0,1.2-.649A4.268,4.268,0,0,0,68.859-4.3Zm8.75,5.068q1.359-.586,1.453-3.656l.008-1.141a3.793,3.793,0,0,0-.5-2.152,1.6,1.6,0,0,0-1.4-.723,1.6,1.6,0,0,0-1.387.723,3.77,3.77,0,0,0-.5,2.152v.68a8.269,8.269,0,0,0,.383,2.793A2.067,2.067,0,0,0,76.8-1.937V0h-4V-1.906h1.7a5.423,5.423,0,0,1-1.336-1.855,5.605,5.605,0,0,1-.492-2.262v-.7a5.323,5.323,0,0,1,.57-2.484,4.165,4.165,0,0,1,1.6-1.711,4.5,4.5,0,0,1,2.336-.609,4.521,4.521,0,0,1,2.316.6,4.162,4.162,0,0,1,1.6,1.672,5.247,5.247,0,0,1,.6,2.418v.781a5.527,5.527,0,0,1-.492,2.3,5.48,5.48,0,0,1-1.336,1.848h1.688V0H77.609Z" transform="translate(-1999.345 -74.5)" fill="#12263f"/>
    <path id="Trazado_899257" data-name="Trazado 899257" d="M6.9-11.492v1.859H6.68a3.836,3.836,0,0,0-2.465.8A3.238,3.238,0,0,0,3.094-6.687a3.075,3.075,0,0,1,2.289-.922A2.9,2.9,0,0,1,7.742-6.547a4.259,4.259,0,0,1,.875,2.8,4.19,4.19,0,0,1-.48,2.008,3.446,3.446,0,0,1-1.359,1.4,3.949,3.949,0,0,1-1.988.5,3.689,3.689,0,0,1-2.9-1.25A4.852,4.852,0,0,1,.781-4.43v-.812a7.3,7.3,0,0,1,.7-3.27,5.127,5.127,0,0,1,2.008-2.2,5.884,5.884,0,0,1,3.035-.785Zm-2.2,5.7A1.8,1.8,0,0,0,3.7-5.5a1.715,1.715,0,0,0-.656.753v.686A3.04,3.04,0,0,0,3.492-2.3a1.439,1.439,0,0,0,1.25.635,1.423,1.423,0,0,0,1.176-.573,2.337,2.337,0,0,0,.449-1.485,2.333,2.333,0,0,0-.453-1.5A1.477,1.477,0,0,0,4.7-5.789ZM17.609-4.7a5.763,5.763,0,0,1-.977,3.609A3.409,3.409,0,0,1,13.773.156,3.433,3.433,0,0,1,10.93-1.07,5.594,5.594,0,0,1,9.922-4.586V-6.68A5.687,5.687,0,0,1,10.91-10.3a3.434,3.434,0,0,1,2.848-1.234A3.437,3.437,0,0,1,16.6-10.309,5.576,5.576,0,0,1,17.609-6.8Zm-2.258-2.3a4.165,4.165,0,0,0-.387-2.061,1.307,1.307,0,0,0-1.207-.645,1.284,1.284,0,0,0-1.176.614,3.9,3.9,0,0,0-.4,1.92v2.768a4.372,4.372,0,0,0,.379,2.068,1.29,1.29,0,0,0,1.215.676,1.268,1.268,0,0,0,1.2-.649A4.268,4.268,0,0,0,15.352-4.3ZM24.1-1.937q1.359-.586,1.453-3.656l.008-1.141a3.793,3.793,0,0,0-.5-2.152,1.6,1.6,0,0,0-1.4-.723,1.6,1.6,0,0,0-1.387.723,3.77,3.77,0,0,0-.5,2.152v.68a8.269,8.269,0,0,0,.383,2.793,2.067,2.067,0,0,0,1.133,1.324V0h-4V-1.906h1.7a5.423,5.423,0,0,1-1.336-1.855,5.605,5.605,0,0,1-.492-2.262v-.7a5.323,5.323,0,0,1,.57-2.484,4.165,4.165,0,0,1,1.6-1.711,4.5,4.5,0,0,1,2.336-.609,4.521,4.521,0,0,1,2.316.6,4.162,4.162,0,0,1,1.6,1.672,5.247,5.247,0,0,1,.6,2.418v.781a5.527,5.527,0,0,1-.492,2.3,5.48,5.48,0,0,1-1.336,1.848h1.688V0H24.1Zm14.414-4.43h2.82v2.039h-2.82v3.188H36.367V-4.328H33.539V-6.367h2.828V-9.422h2.148ZM52.07,0H49.813V-8.7l-2.7.836V-9.7l4.711-1.687h.242ZM62.445-4.281h1.289v1.82H62.445V0H60.188V-2.461H55.523l-.1-1.422,4.742-7.492h2.281Zm-4.773,0h2.516V-8.3l-.148.258ZM72.6-4.7a5.763,5.763,0,0,1-.977,3.609A3.409,3.409,0,0,1,68.766.156,3.433,3.433,0,0,1,65.922-1.07a5.594,5.594,0,0,1-1.008-3.516V-6.68A5.687,5.687,0,0,1,65.9-10.3a3.434,3.434,0,0,1,2.848-1.234,3.437,3.437,0,0,1,2.844,1.223A5.576,5.576,0,0,1,72.6-6.8Zm-2.258-2.3a4.165,4.165,0,0,0-.387-2.061,1.307,1.307,0,0,0-1.207-.645,1.284,1.284,0,0,0-1.176.614,3.9,3.9,0,0,0-.4,1.92v2.768a4.373,4.373,0,0,0,.379,2.068,1.29,1.29,0,0,0,1.215.676,1.268,1.268,0,0,0,1.2-.649A4.268,4.268,0,0,0,70.344-4.3Zm8.75,5.068q1.359-.586,1.453-3.656l.008-1.141a3.793,3.793,0,0,0-.5-2.152,1.6,1.6,0,0,0-1.4-.723,1.6,1.6,0,0,0-1.387.723,3.77,3.77,0,0,0-.5,2.152v.68a8.269,8.269,0,0,0,.383,2.793,2.067,2.067,0,0,0,1.133,1.324V0h-4V-1.906h1.7a5.423,5.423,0,0,1-1.336-1.855,5.605,5.605,0,0,1-.492-2.262v-.7a5.323,5.323,0,0,1,.57-2.484,4.165,4.165,0,0,1,1.6-1.711,4.5,4.5,0,0,1,2.336-.609,4.521,4.521,0,0,1,2.316.6,4.162,4.162,0,0,1,1.6,1.672,5.247,5.247,0,0,1,.6,2.418v.781a5.527,5.527,0,0,1-.492,2.3,5.48,5.48,0,0,1-1.336,1.848h1.688V0H79.094Z" transform="translate(-1999.345 -50.5)" fill="#12263f"/>
    <path id="Trazado_899258" data-name="Trazado 899258" d="M8.047-5.828H1.063V-7.672H8.047Zm0,3.383H1.063V-4.289H8.047Z" transform="translate(-1904.345 -62.5)" fill="#12263f"/>
    <path id="Trazado_899259" data-name="Trazado 899259" d="M7.453-4.281H8.742v1.82H7.453V0H5.2V-2.461H.531L.43-3.883l4.742-7.492H7.453Zm-4.773,0H5.2V-8.3l-.148.258ZM17.75,0h-7.8V-1.547l3.68-3.922a9.078,9.078,0,0,0,1.121-1.445,2.322,2.322,0,0,0,.363-1.172,1.738,1.738,0,0,0-.383-1.191,1.382,1.382,0,0,0-1.094-.434,1.49,1.49,0,0,0-1.207.527A2.089,2.089,0,0,0,11.992-7.8H9.727a3.729,3.729,0,0,1,.5-1.9,3.5,3.5,0,0,1,1.4-1.348,4.262,4.262,0,0,1,2.055-.488,4.036,4.036,0,0,1,2.73.844A2.985,2.985,0,0,1,17.383-8.3a3.825,3.825,0,0,1-.437,1.719,9.551,9.551,0,0,1-1.5,2.039L12.859-1.82H17.75ZM24.1-1.937q1.359-.586,1.453-3.656l.008-1.141a3.793,3.793,0,0,0-.5-2.152,1.6,1.6,0,0,0-1.4-.723,1.6,1.6,0,0,0-1.387.723,3.77,3.77,0,0,0-.5,2.152v.68a8.269,8.269,0,0,0,.383,2.793,2.067,2.067,0,0,0,1.133,1.324V0h-4V-1.906h1.7a5.423,5.423,0,0,1-1.336-1.855,5.605,5.605,0,0,1-.492-2.262v-.7a5.323,5.323,0,0,1,.57-2.484,4.165,4.165,0,0,1,1.6-1.711,4.5,4.5,0,0,1,2.336-.609,4.521,4.521,0,0,1,2.316.6,4.162,4.162,0,0,1,1.6,1.672,5.247,5.247,0,0,1,.6,2.418v.781a5.527,5.527,0,0,1-.492,2.3,5.48,5.48,0,0,1-1.336,1.848h1.688V0H24.1Z" transform="translate(-1883.051 -62.5)" fill="#12263f"/>
  </g>
</svg>
