<svg xmlns="http://www.w3.org/2000/svg" width="505" height="82" viewBox="0 0 505 82">
  <g id="Grupo_1108799" data-name="Grupo 1108799" transform="translate(2280 810)">
    <path id="Trazado_899231" data-name="Trazado 899231" d="M0,0H505V82H0Z" transform="translate(-2280 -810)" fill="#f4c0c0"/>
    <path id="Trazado_899232" data-name="Trazado 899232" d="M5.227-4.164H3.359V0H1.016V-11.375H5.242a4.778,4.778,0,0,1,3.109.9A3.1,3.1,0,0,1,9.445-7.937,3.5,3.5,0,0,1,8.941-6,3.437,3.437,0,0,1,7.414-4.758L9.875-.109V0H7.359Zm-1.867-1.9H5.25a1.936,1.936,0,0,0,1.367-.449A1.606,1.606,0,0,0,7.1-7.75a1.719,1.719,0,0,0-.457-1.266,1.9,1.9,0,0,0-1.4-.461H3.359Zm16.8,2.273A4.025,4.025,0,0,1,18.8-.9,4.76,4.76,0,0,1,15.578.156a4.28,4.28,0,0,1-3.441-1.473,6.038,6.038,0,0,1-1.254-4.043v-.7a6.819,6.819,0,0,1,.578-2.891,4.332,4.332,0,0,1,1.652-1.918,4.629,4.629,0,0,1,2.5-.668,4.637,4.637,0,0,1,3.172,1.055,4.326,4.326,0,0,1,1.391,2.961H17.828a2.376,2.376,0,0,0-.613-1.6,2.271,2.271,0,0,0-1.605-.5,1.991,1.991,0,0,0-1.754.84,4.707,4.707,0,0,0-.6,2.605V-5.3a5.038,5.038,0,0,0,.559,2.7,1.954,1.954,0,0,0,1.762.852,2.314,2.314,0,0,0,1.621-.5,2.241,2.241,0,0,0,.613-1.535ZM32.711-5.828H25.727V-7.672h6.984Zm0,3.383H25.727V-4.289h6.984Z" transform="translate(-2240.051 -763.5)" fill="#12263f"/>
    <path id="Trazado_899233" data-name="Trazado 899233" d="M5.227-4.164H3.359V0H1.016V-11.375H5.242a4.778,4.778,0,0,1,3.109.9A3.1,3.1,0,0,1,9.445-7.937,3.5,3.5,0,0,1,8.941-6,3.437,3.437,0,0,1,7.414-4.758L9.875-.109V0H7.359Zm-1.867-1.9H5.25a1.936,1.936,0,0,0,1.367-.449A1.606,1.606,0,0,0,7.1-7.75a1.719,1.719,0,0,0-.457-1.266,1.9,1.9,0,0,0-1.4-.461H3.359ZM16.266-4.547A2.851,2.851,0,0,1,14.2-3.68a3.049,3.049,0,0,1-2.414-1.035,4.091,4.091,0,0,1-.906-2.793,4.357,4.357,0,0,1,.488-2.051,3.582,3.582,0,0,1,1.363-1.453,3.782,3.782,0,0,1,1.969-.52,3.617,3.617,0,0,1,2,.563,3.7,3.7,0,0,1,1.359,1.617,5.806,5.806,0,0,1,.492,2.414V-6.1a6.579,6.579,0,0,1-1.414,4.469A5.346,5.346,0,0,1,13.133.1l-.555.008V-1.773l.5-.008Q16.023-1.914,16.266-4.547Zm-1.508-.859a1.579,1.579,0,0,0,.941-.281,1.879,1.879,0,0,0,.6-.68V-7.3a3.1,3.1,0,0,0-.437-1.781,1.358,1.358,0,0,0-1.172-.633,1.318,1.318,0,0,0-1.117.621,2.641,2.641,0,0,0-.437,1.559A2.57,2.57,0,0,0,13.559-6,1.387,1.387,0,0,0,14.758-5.406ZM26.039-7.52l-2.453-.695.461-1.413,2.43.976-.156-2.724h1.531L27.7-8.6l2.367-.96.461,1.428-2.5.695,1.641,2.078-1.242.883L27-6.754l-1.406,2.2-1.242-.844Zm13.8,3.355H37.969V0H35.625V-11.375h4.227a4.778,4.778,0,0,1,3.109.9,3.1,3.1,0,0,1,1.094,2.539A3.5,3.5,0,0,1,43.551-6a3.437,3.437,0,0,1-1.527,1.238L44.484-.109V0H41.969Zm-1.867-1.9h1.891a1.936,1.936,0,0,0,1.367-.449,1.606,1.606,0,0,0,.484-1.238,1.719,1.719,0,0,0-.457-1.266,1.9,1.9,0,0,0-1.4-.461H37.969ZM51.078,0H48.82V-8.7l-2.7.836V-9.7l4.711-1.687h.242ZM62.43-4.7a5.762,5.762,0,0,1-.977,3.609A3.409,3.409,0,0,1,58.594.156,3.433,3.433,0,0,1,55.75-1.07a5.594,5.594,0,0,1-1.008-3.516V-6.68A5.687,5.687,0,0,1,55.73-10.3a3.434,3.434,0,0,1,2.848-1.234,3.437,3.437,0,0,1,2.844,1.223A5.576,5.576,0,0,1,62.43-6.8Zm-2.258-2.3a4.165,4.165,0,0,0-.387-2.061,1.307,1.307,0,0,0-1.207-.645A1.284,1.284,0,0,0,57.4-9.1a3.9,3.9,0,0,0-.4,1.92v2.768a4.372,4.372,0,0,0,.379,2.068,1.29,1.29,0,0,0,1.215.676,1.268,1.268,0,0,0,1.2-.649A4.268,4.268,0,0,0,60.172-4.3Z" transform="translate(-2175.051 -775.5)" fill="#12263f"/>
    <path id="Trazado_899115" data-name="Trazado 899115" d="M-4340.051-2586h105" transform="translate(2145 1817)" fill="none" stroke="#000" stroke-width="1"/>
    <path id="Trazado_899234" data-name="Trazado 899234" d="M5.227-4.164H3.359V0H1.016V-11.375H5.242a4.778,4.778,0,0,1,3.109.9A3.1,3.1,0,0,1,9.445-7.937,3.5,3.5,0,0,1,8.941-6,3.437,3.437,0,0,1,7.414-4.758L9.875-.109V0H7.359Zm-1.867-1.9H5.25a1.936,1.936,0,0,0,1.367-.449A1.606,1.606,0,0,0,7.1-7.75a1.719,1.719,0,0,0-.457-1.266,1.9,1.9,0,0,0-1.4-.461H3.359ZM16.266-4.547A2.851,2.851,0,0,1,14.2-3.68a3.049,3.049,0,0,1-2.414-1.035,4.091,4.091,0,0,1-.906-2.793,4.357,4.357,0,0,1,.488-2.051,3.582,3.582,0,0,1,1.363-1.453,3.782,3.782,0,0,1,1.969-.52,3.617,3.617,0,0,1,2,.563,3.7,3.7,0,0,1,1.359,1.617,5.806,5.806,0,0,1,.492,2.414V-6.1a6.579,6.579,0,0,1-1.414,4.469A5.346,5.346,0,0,1,13.133.1l-.555.008V-1.773l.5-.008Q16.023-1.914,16.266-4.547Zm-1.508-.859a1.579,1.579,0,0,0,.941-.281,1.879,1.879,0,0,0,.6-.68V-7.3a3.1,3.1,0,0,0-.437-1.781,1.358,1.358,0,0,0-1.172-.633,1.318,1.318,0,0,0-1.117.621,2.641,2.641,0,0,0-.437,1.559A2.57,2.57,0,0,0,13.559-6,1.387,1.387,0,0,0,14.758-5.406ZM26.039-7.52l-2.453-.695.461-1.413,2.43.976-.156-2.724h1.531L27.7-8.6l2.367-.96.461,1.428-2.5.695,1.641,2.078-1.242.883L27-6.754l-1.406,2.2-1.242-.844Zm13.8,3.355H37.969V0H35.625V-11.375h4.227a4.778,4.778,0,0,1,3.109.9,3.1,3.1,0,0,1,1.094,2.539A3.5,3.5,0,0,1,43.551-6a3.437,3.437,0,0,1-1.527,1.238L44.484-.109V0H41.969Zm-1.867-1.9h1.891a1.936,1.936,0,0,0,1.367-.449,1.606,1.606,0,0,0,.484-1.238,1.719,1.719,0,0,0-.457-1.266,1.9,1.9,0,0,0-1.4-.461H37.969ZM51.078,0H48.82V-8.7l-2.7.836V-9.7l4.711-1.687h.242ZM62.43-4.7a5.762,5.762,0,0,1-.977,3.609A3.409,3.409,0,0,1,58.594.156,3.433,3.433,0,0,1,55.75-1.07a5.594,5.594,0,0,1-1.008-3.516V-6.68A5.687,5.687,0,0,1,55.73-10.3a3.434,3.434,0,0,1,2.848-1.234,3.437,3.437,0,0,1,2.844,1.223A5.576,5.576,0,0,1,62.43-6.8Zm-2.258-2.3a4.165,4.165,0,0,0-.387-2.061,1.307,1.307,0,0,0-1.207-.645A1.284,1.284,0,0,0,57.4-9.1a3.9,3.9,0,0,0-.4,1.92v2.768a4.372,4.372,0,0,0,.379,2.068,1.29,1.29,0,0,0,1.215.676,1.268,1.268,0,0,0,1.2-.649A4.268,4.268,0,0,0,60.172-4.3Z" transform="translate(-2175.051 -751.5)" fill="#12263f"/>
    <path id="Trazado_899235" data-name="Trazado 899235" d="M8.047-5.828H1.063V-7.672H8.047Zm0,3.383H1.063V-4.289H8.047Z" transform="translate(-2080.051 -763.5)" fill="#12263f"/>
    <path id="Trazado_899116" data-name="Trazado 899116" d="M-4340.051-2586h83.03" transform="translate(2284 1817)" fill="none" stroke="#000" stroke-width="1"/>
    <path id="Trazado_899236" data-name="Trazado 899236" d="M1.109-5.594l.656-5.781H8.141v1.883H3.617L3.336-7.047a3.58,3.58,0,0,1,1.711-.43A3.279,3.279,0,0,1,7.594-6.469a4.026,4.026,0,0,1,.922,2.82,4.124,4.124,0,0,1-.465,1.973A3.281,3.281,0,0,1,6.719-.324a4.158,4.158,0,0,1-2.047.48A4.416,4.416,0,0,1,2.758-.262,3.4,3.4,0,0,1,1.363-1.437,3.2,3.2,0,0,1,.82-3.164H3.055a1.669,1.669,0,0,0,.5,1.105,1.573,1.573,0,0,0,1.113.395,1.388,1.388,0,0,0,1.18-.551,2.551,2.551,0,0,0,.414-1.559,2.11,2.11,0,0,0-.477-1.484A1.749,1.749,0,0,0,4.43-5.773a1.954,1.954,0,0,0-1.3.422l-.219.2ZM15.438,0H13.18V-8.7l-2.7.836V-9.7L15.2-11.391h.242Zm9.57-7.52-2.453-.695.461-1.413,2.43.976-.156-2.724H26.82L26.664-8.6l2.367-.96.461,1.428-2.5.695,1.641,2.078-1.242.883L25.969-6.754l-1.406,2.2L23.32-5.395ZM39.836,0H37.578V-8.7l-2.7.836V-9.7l4.711-1.687h.242Zm5.992-6.687h1.2a1.7,1.7,0,0,0,1.273-.43,1.574,1.574,0,0,0,.414-1.141,1.392,1.392,0,0,0-.41-1.07,1.59,1.59,0,0,0-1.129-.383,1.666,1.666,0,0,0-1.086.355,1.137,1.137,0,0,0-.437.926H43.4a2.777,2.777,0,0,1,.48-1.6,3.2,3.2,0,0,1,1.344-1.105,4.485,4.485,0,0,1,1.9-.4,4.253,4.253,0,0,1,2.828.863,2.945,2.945,0,0,1,1.023,2.379A2.394,2.394,0,0,1,50.5-6.852a3.1,3.1,0,0,1-1.25,1.008,2.826,2.826,0,0,1,1.434,1.031,2.8,2.8,0,0,1,.473,1.625,2.994,2.994,0,0,1-1.105,2.43,4.445,4.445,0,0,1-2.926.914,4.214,4.214,0,0,1-2.785-.9,2.934,2.934,0,0,1-1.082-2.375h2.258A1.308,1.308,0,0,0,46-2.07a1.771,1.771,0,0,0,1.184.406,1.779,1.779,0,0,0,1.262-.426A1.47,1.47,0,0,0,48.9-3.219q0-1.7-1.875-1.7h-1.2ZM60.367-4.7a5.762,5.762,0,0,1-.977,3.609A3.409,3.409,0,0,1,56.531.156,3.433,3.433,0,0,1,53.688-1.07,5.594,5.594,0,0,1,52.68-4.586V-6.68a5.687,5.687,0,0,1,.988-3.617,3.434,3.434,0,0,1,2.848-1.234,3.437,3.437,0,0,1,2.844,1.223A5.576,5.576,0,0,1,60.367-6.8Zm-2.258-2.3a4.165,4.165,0,0,0-.387-2.061,1.307,1.307,0,0,0-1.207-.645A1.284,1.284,0,0,0,55.34-9.1a3.9,3.9,0,0,0-.4,1.92v2.768a4.372,4.372,0,0,0,.379,2.068,1.29,1.29,0,0,0,1.215.676,1.268,1.268,0,0,0,1.2-.649A4.268,4.268,0,0,0,58.109-4.3Z" transform="translate(-2052.345 -775.5)" fill="#12263f"/>
    <path id="Trazado_899237" data-name="Trazado 899237" d="M1.109-5.594l.656-5.781H8.141v1.883H3.617L3.336-7.047a3.58,3.58,0,0,1,1.711-.43A3.279,3.279,0,0,1,7.594-6.469a4.026,4.026,0,0,1,.922,2.82,4.124,4.124,0,0,1-.465,1.973A3.281,3.281,0,0,1,6.719-.324a4.158,4.158,0,0,1-2.047.48A4.416,4.416,0,0,1,2.758-.262,3.4,3.4,0,0,1,1.363-1.437,3.2,3.2,0,0,1,.82-3.164H3.055a1.669,1.669,0,0,0,.5,1.105,1.573,1.573,0,0,0,1.113.395,1.388,1.388,0,0,0,1.18-.551,2.551,2.551,0,0,0,.414-1.559,2.11,2.11,0,0,0-.477-1.484A1.749,1.749,0,0,0,4.43-5.773a1.954,1.954,0,0,0-1.3.422l-.219.2ZM15.438,0H13.18V-8.7l-2.7.836V-9.7L15.2-11.391h.242ZM27.766-6.367h2.82v2.039h-2.82v3.188H25.617V-4.328H22.789V-6.367h2.828V-9.422h2.148ZM41.32,0H39.063V-8.7l-2.7.836V-9.7l4.711-1.687h.242Zm5.992-6.687h1.2a1.7,1.7,0,0,0,1.273-.43A1.574,1.574,0,0,0,50.2-8.258a1.392,1.392,0,0,0-.41-1.07,1.59,1.59,0,0,0-1.129-.383,1.666,1.666,0,0,0-1.086.355,1.137,1.137,0,0,0-.437.926H44.883a2.777,2.777,0,0,1,.48-1.6,3.2,3.2,0,0,1,1.344-1.105,4.485,4.485,0,0,1,1.9-.4,4.253,4.253,0,0,1,2.828.863,2.945,2.945,0,0,1,1.023,2.379,2.394,2.394,0,0,1-.477,1.438,3.1,3.1,0,0,1-1.25,1.008,2.826,2.826,0,0,1,1.434,1.031,2.8,2.8,0,0,1,.473,1.625,2.994,2.994,0,0,1-1.105,2.43,4.445,4.445,0,0,1-2.926.914,4.214,4.214,0,0,1-2.785-.9,2.934,2.934,0,0,1-1.082-2.375H47a1.308,1.308,0,0,0,.48,1.047,1.771,1.771,0,0,0,1.184.406,1.779,1.779,0,0,0,1.262-.426,1.47,1.47,0,0,0,.457-1.129q0-1.7-1.875-1.7h-1.2ZM61.852-4.7a5.762,5.762,0,0,1-.977,3.609A3.409,3.409,0,0,1,58.016.156,3.433,3.433,0,0,1,55.172-1.07a5.594,5.594,0,0,1-1.008-3.516V-6.68a5.687,5.687,0,0,1,.988-3.617A3.434,3.434,0,0,1,58-11.531a3.437,3.437,0,0,1,2.844,1.223A5.576,5.576,0,0,1,61.852-6.8Zm-2.258-2.3a4.165,4.165,0,0,0-.387-2.061A1.307,1.307,0,0,0,58-9.711a1.284,1.284,0,0,0-1.176.614,3.9,3.9,0,0,0-.4,1.92v2.768A4.372,4.372,0,0,0,56.8-2.341a1.29,1.29,0,0,0,1.215.676,1.268,1.268,0,0,0,1.2-.649A4.268,4.268,0,0,0,59.594-4.3Z" transform="translate(-2052.345 -751.5)" fill="#12263f"/>
    <path id="Trazado_899238" data-name="Trazado 899238" d="M8.047-5.828H1.063V-7.672H8.047Zm0,3.383H1.063V-4.289H8.047Z" transform="translate(-1957.345 -763.5)" fill="#12263f"/>
    <path id="Trazado_899239" data-name="Trazado 899239" d="M3.07-6.687h1.2a1.7,1.7,0,0,0,1.273-.43,1.574,1.574,0,0,0,.414-1.141,1.392,1.392,0,0,0-.41-1.07,1.59,1.59,0,0,0-1.129-.383,1.666,1.666,0,0,0-1.086.355A1.137,1.137,0,0,0,2.9-8.43H.641a2.777,2.777,0,0,1,.48-1.6,3.2,3.2,0,0,1,1.344-1.105,4.485,4.485,0,0,1,1.9-.4,4.253,4.253,0,0,1,2.828.863A2.945,2.945,0,0,1,8.219-8.289a2.394,2.394,0,0,1-.477,1.438,3.1,3.1,0,0,1-1.25,1.008A2.826,2.826,0,0,1,7.926-4.812,2.8,2.8,0,0,1,8.4-3.187,2.994,2.994,0,0,1,7.293-.758,4.445,4.445,0,0,1,4.367.156a4.214,4.214,0,0,1-2.785-.9A2.934,2.934,0,0,1,.5-3.117H2.758a1.308,1.308,0,0,0,.48,1.047,1.771,1.771,0,0,0,1.184.406A1.779,1.779,0,0,0,5.684-2.09a1.47,1.47,0,0,0,.457-1.129q0-1.7-1.875-1.7H3.07Zm13.008-4.8v1.859h-.219a3.836,3.836,0,0,0-2.465.8,3.238,3.238,0,0,0-1.121,2.148,3.075,3.075,0,0,1,2.289-.922,2.9,2.9,0,0,1,2.359,1.063,4.259,4.259,0,0,1,.875,2.8,4.19,4.19,0,0,1-.48,2.008,3.446,3.446,0,0,1-1.359,1.4,3.949,3.949,0,0,1-1.988.5,3.689,3.689,0,0,1-2.9-1.25A4.852,4.852,0,0,1,9.961-4.43v-.812a7.3,7.3,0,0,1,.7-3.27,5.127,5.127,0,0,1,2.008-2.2,5.884,5.884,0,0,1,3.035-.785Zm-2.2,5.7a1.8,1.8,0,0,0-.992.285,1.715,1.715,0,0,0-.656.753v.686A3.04,3.04,0,0,0,12.672-2.3a1.439,1.439,0,0,0,1.25.635A1.423,1.423,0,0,0,15.1-2.237a2.337,2.337,0,0,0,.449-1.485,2.333,2.333,0,0,0-.453-1.5A1.477,1.477,0,0,0,13.875-5.789Zm5.469,4.68a1.137,1.137,0,0,1,.363-.875,1.289,1.289,0,0,1,.91-.336,1.3,1.3,0,0,1,.918.336,1.137,1.137,0,0,1,.363.875,1.121,1.121,0,0,1-.359.863,1.305,1.305,0,0,1-.922.332A1.294,1.294,0,0,1,19.7-.246,1.121,1.121,0,0,1,19.344-1.109ZM29.906-11.492v1.859h-.219a3.836,3.836,0,0,0-2.465.8A3.238,3.238,0,0,0,26.1-6.687a3.075,3.075,0,0,1,2.289-.922A2.9,2.9,0,0,1,30.75-6.547a4.259,4.259,0,0,1,.875,2.8,4.19,4.19,0,0,1-.48,2.008,3.446,3.446,0,0,1-1.359,1.4,3.949,3.949,0,0,1-1.988.5,3.689,3.689,0,0,1-2.9-1.25A4.852,4.852,0,0,1,23.789-4.43v-.812a7.3,7.3,0,0,1,.7-3.27,5.127,5.127,0,0,1,2.008-2.2,5.884,5.884,0,0,1,3.035-.785Zm-2.2,5.7a1.8,1.8,0,0,0-.992.285,1.715,1.715,0,0,0-.656.753v.686A3.04,3.04,0,0,0,26.5-2.3a1.439,1.439,0,0,0,1.25.635,1.423,1.423,0,0,0,1.176-.573,2.337,2.337,0,0,0,.449-1.485,2.333,2.333,0,0,0-.453-1.5A1.477,1.477,0,0,0,27.7-5.789ZM40.758,0h-7.8V-1.547l3.68-3.922a9.078,9.078,0,0,0,1.121-1.445,2.322,2.322,0,0,0,.363-1.172,1.738,1.738,0,0,0-.383-1.191,1.382,1.382,0,0,0-1.094-.434,1.49,1.49,0,0,0-1.207.527A2.089,2.089,0,0,0,35-7.8H32.734a3.729,3.729,0,0,1,.5-1.9,3.5,3.5,0,0,1,1.4-1.348,4.262,4.262,0,0,1,2.055-.488,4.036,4.036,0,0,1,2.73.844A2.985,2.985,0,0,1,40.391-8.3a3.825,3.825,0,0,1-.437,1.719,9.551,9.551,0,0,1-1.5,2.039L35.867-1.82h4.891ZM51.094-1.937q1.359-.586,1.453-3.656l.008-1.141a3.793,3.793,0,0,0-.5-2.152,1.6,1.6,0,0,0-1.4-.723,1.6,1.6,0,0,0-1.387.723,3.77,3.77,0,0,0-.5,2.152v.68a8.269,8.269,0,0,0,.383,2.793,2.067,2.067,0,0,0,1.133,1.324V0h-4V-1.906h1.7a5.423,5.423,0,0,1-1.336-1.855,5.605,5.605,0,0,1-.492-2.262v-.7a5.323,5.323,0,0,1,.57-2.484,4.165,4.165,0,0,1,1.6-1.711,4.5,4.5,0,0,1,2.336-.609,4.521,4.521,0,0,1,2.316.6,4.162,4.162,0,0,1,1.6,1.672,5.247,5.247,0,0,1,.6,2.418v.781a5.527,5.527,0,0,1-.492,2.3,5.48,5.48,0,0,1-1.336,1.848h1.688V0H51.094Z" transform="translate(-1936.051 -763.5)" fill="#12263f"/>
  </g>
</svg>
