<svg xmlns="http://www.w3.org/2000/svg" width="505" height="82" viewBox="0 0 505 82">
  <g id="Grupo_1108799" data-name="Grupo 1108799" transform="translate(2280 810)">
    <path id="Trazado_899231" data-name="Trazado 899231" d="M0,0H505V82H0Z" transform="translate(-2280 -810)" fill="#f4c0c0"/>
    <path id="Trazado_899232" data-name="Trazado 899232" d="M5.227,12.836H3.359V17H1.016V5.625H5.242a4.778,4.778,0,0,1,3.109.9A3.1,3.1,0,0,1,9.445,9.063,3.5,3.5,0,0,1,8.941,11a3.437,3.437,0,0,1-1.527,1.238l2.461,4.648V17H7.359Zm-1.867-1.9H5.25a1.936,1.936,0,0,0,1.367-.449A1.606,1.606,0,0,0,7.1,9.25a1.719,1.719,0,0,0-.457-1.266,1.9,1.9,0,0,0-1.4-.461H3.359ZM19.4,7.523H15.914V17H13.57V7.523H10.133v-1.9H19.4Zm11.883,3.648H24.3V9.328h6.984Zm0,3.383H24.3V12.711h6.984ZM41.6,12.836H39.734V17H37.391V5.625h4.227a4.778,4.778,0,0,1,3.109.9A3.1,3.1,0,0,1,45.82,9.063a3.5,3.5,0,0,1-.5,1.941,3.437,3.437,0,0,1-1.527,1.238l2.461,4.648V17H43.734Zm-1.867-1.9h1.891a1.936,1.936,0,0,0,1.367-.449,1.606,1.606,0,0,0,.484-1.238,1.719,1.719,0,0,0-.457-1.266,1.9,1.9,0,0,0-1.4-.461H39.734ZM52.844,17H50.586V8.3l-2.7.836V7.3L52.6,5.609h.242Zm12.328-6.367h2.82v2.039h-2.82v3.188H63.023V12.672H60.2V10.633h2.828V7.578h2.148Zm12.523,2.2H75.828V17H73.484V5.625h4.227a4.778,4.778,0,0,1,3.109.9,3.1,3.1,0,0,1,1.094,2.539A3.5,3.5,0,0,1,81.41,11a3.437,3.437,0,0,1-1.527,1.238l2.461,4.648V17H79.828Zm-1.867-1.9h1.891a1.936,1.936,0,0,0,1.367-.449A1.606,1.606,0,0,0,79.57,9.25a1.719,1.719,0,0,0-.457-1.266,1.9,1.9,0,0,0-1.4-.461H75.828ZM91.25,17h-7.8V15.453l3.68-3.922a9.078,9.078,0,0,0,1.121-1.445,2.322,2.322,0,0,0,.363-1.172,1.738,1.738,0,0,0-.383-1.191,1.382,1.382,0,0,0-1.094-.434,1.49,1.49,0,0,0-1.207.527A2.089,2.089,0,0,0,85.492,9.2H83.227a3.729,3.729,0,0,1,.5-1.9,3.5,3.5,0,0,1,1.4-1.348,4.262,4.262,0,0,1,2.055-.488,4.036,4.036,0,0,1,2.73.844A2.985,2.985,0,0,1,90.883,8.7a3.825,3.825,0,0,1-.437,1.719,9.551,9.551,0,0,1-1.5,2.039L86.359,15.18H91.25Zm10.016-6.367h2.82v2.039h-2.82v3.188H99.117V12.672H96.289V10.633h2.828V7.578h2.148Zm12.523,2.2h-1.867V17h-2.344V5.625H113.8a4.778,4.778,0,0,1,3.109.9,3.1,3.1,0,0,1,1.094,2.539A3.5,3.5,0,0,1,117.5,11a3.437,3.437,0,0,1-1.527,1.238l2.461,4.648V17h-2.516Zm-1.867-1.9h1.891a1.936,1.936,0,0,0,1.367-.449,1.606,1.606,0,0,0,.484-1.238,1.719,1.719,0,0,0-.457-1.266,1.9,1.9,0,0,0-1.4-.461h-1.883Zm14.289,3.719H122.1L121.32,17h-2.492l4.234-11.375h2.172L129.492,17H127Zm-3.477-1.9h2.844L124.148,8.5ZM130.555,17V5.625h3.984a5.232,5.232,0,0,1,3.141.793,2.711,2.711,0,0,1,1.07,2.324,2.57,2.57,0,0,1-.43,1.473,2.482,2.482,0,0,1-1.2.934,2.4,2.4,0,0,1,1.379.883,2.61,2.61,0,0,1,.5,1.625,3,3,0,0,1-1.047,2.484,4.713,4.713,0,0,1-2.984.859Zm2.344-4.953v3.07h2.008a1.938,1.938,0,0,0,1.293-.395,1.353,1.353,0,0,0,.465-1.09,1.428,1.428,0,0,0-1.617-1.586Zm0-1.656h1.734q1.773-.031,1.773-1.414a1.307,1.307,0,0,0-.449-1.113,2.363,2.363,0,0,0-1.418-.34H132.9Zm16.258.242h2.82v2.039h-2.82v3.188h-2.148V12.672H144.18V10.633h2.828V7.578h2.148Zm12.523,2.2h-1.867V17h-2.344V5.625H161.7a4.778,4.778,0,0,1,3.109.9A3.1,3.1,0,0,1,165.9,9.063a3.5,3.5,0,0,1-.5,1.941,3.437,3.437,0,0,1-1.527,1.238l2.461,4.648V17h-2.516Zm-1.867-1.9H161.7a1.936,1.936,0,0,0,1.367-.449,1.606,1.606,0,0,0,.484-1.238,1.719,1.719,0,0,0-.457-1.266,1.9,1.9,0,0,0-1.4-.461h-1.883Zm16.8,2.273a4.025,4.025,0,0,1-1.355,2.891,4.76,4.76,0,0,1-3.223,1.055,4.281,4.281,0,0,1-3.441-1.473,6.038,6.038,0,0,1-1.254-4.043v-.7a6.819,6.819,0,0,1,.578-2.891,4.332,4.332,0,0,1,1.652-1.918,5.164,5.164,0,0,1,5.668.387,4.326,4.326,0,0,1,1.391,2.961h-2.344a2.376,2.376,0,0,0-.613-1.6,2.271,2.271,0,0,0-1.605-.5,1.991,1.991,0,0,0-1.754.84,4.707,4.707,0,0,0-.6,2.605V11.7a5.038,5.038,0,0,0,.559,2.7,1.954,1.954,0,0,0,1.762.852,2.314,2.314,0,0,0,1.621-.5,2.241,2.241,0,0,0,.613-1.535ZM5.227,33.836H3.359V38H1.016V26.625H5.242a4.778,4.778,0,0,1,3.109.9,3.1,3.1,0,0,1,1.094,2.539A3.5,3.5,0,0,1,8.941,32a3.437,3.437,0,0,1-1.527,1.238l2.461,4.648V38H7.359Zm-1.867-1.9H5.25a1.936,1.936,0,0,0,1.367-.449A1.606,1.606,0,0,0,7.1,30.25a1.719,1.719,0,0,0-.457-1.266,1.9,1.9,0,0,0-1.4-.461H3.359ZM19.4,28.523H15.914V38H13.57V28.523H10.133v-1.9H19.4Zm11.883,3.648H24.3V30.328h6.984Zm0,3.383H24.3V33.711h6.984ZM42.633,38H40.375V29.3l-2.7.836V28.3l4.711-1.687h.242Zm7.5-4.562L48.914,34.75V38H46.57V26.625h2.344v5.156l1.031-1.414,2.9-3.742h2.883L51.688,31.68,55.844,38H53.055Zm14.984-1.8h2.82v2.039h-2.82v3.188H62.969V33.672H60.141V31.633h2.828V28.578h2.148Zm10.367-.32h1.2a1.7,1.7,0,0,0,1.273-.43,1.575,1.575,0,0,0,.414-1.141,1.392,1.392,0,0,0-.41-1.07,1.59,1.59,0,0,0-1.129-.383,1.666,1.666,0,0,0-1.086.355,1.137,1.137,0,0,0-.437.926H73.055a2.777,2.777,0,0,1,.48-1.6,3.2,3.2,0,0,1,1.344-1.105,4.485,4.485,0,0,1,1.9-.4,4.253,4.253,0,0,1,2.828.863,2.945,2.945,0,0,1,1.023,2.379,2.394,2.394,0,0,1-.477,1.438,3.1,3.1,0,0,1-1.25,1.008,2.826,2.826,0,0,1,1.434,1.031,2.8,2.8,0,0,1,.473,1.625,2.994,2.994,0,0,1-1.105,2.43,4.445,4.445,0,0,1-2.926.914,4.214,4.214,0,0,1-2.785-.9,2.934,2.934,0,0,1-1.082-2.375h2.258a1.308,1.308,0,0,0,.48,1.047,2,2,0,0,0,2.445-.02,1.47,1.47,0,0,0,.457-1.129q0-1.7-1.875-1.7h-1.2Zm10.688,2.125L84.953,34.75V38H82.609V26.625h2.344v5.156l1.031-1.414,2.9-3.742h2.883L87.727,31.68,91.883,38H89.094Zm14.984-1.8h2.82v2.039h-2.82v3.188H99.008V33.672H96.18V31.633h2.828V28.578h2.148Zm15.8-3.748L112.563,38H110.18l4.406-9.555H108.93v-1.82h8.031Zm9.18,0L121.742,38h-2.383l4.406-9.555h-5.656v-1.82h8.031Zm1.656,9.005a1.137,1.137,0,0,1,.363-.875,1.412,1.412,0,0,1,1.828,0,1.137,1.137,0,0,1,.363.875,1.121,1.121,0,0,1-.359.863,1.435,1.435,0,0,1-1.836,0A1.121,1.121,0,0,1,127.8,36.891Zm4.773-4.484.656-5.781H139.6v1.883h-4.523l-.281,2.445a3.58,3.58,0,0,1,1.711-.43,3.279,3.279,0,0,1,2.547,1.008,4.026,4.026,0,0,1,.922,2.82,4.124,4.124,0,0,1-.465,1.973,3.281,3.281,0,0,1-1.332,1.352,4.158,4.158,0,0,1-2.047.48,4.416,4.416,0,0,1-1.914-.418,3.4,3.4,0,0,1-1.395-1.176,3.2,3.2,0,0,1-.543-1.727h2.234a1.669,1.669,0,0,0,.5,1.105,1.573,1.573,0,0,0,1.113.395,1.388,1.388,0,0,0,1.18-.551,2.551,2.551,0,0,0,.414-1.559,2.11,2.11,0,0,0-.477-1.484,1.749,1.749,0,0,0-1.352-.516,1.954,1.954,0,0,0-1.3.422l-.219.2Zm16.258-2.758a2.646,2.646,0,0,1-.414,1.469,2.98,2.98,0,0,1-1.141,1.023,3.3,3.3,0,0,1,1.313,1.1,2.816,2.816,0,0,1,.484,1.645,2.981,2.981,0,0,1-1.031,2.395,4.918,4.918,0,0,1-5.617,0,2.974,2.974,0,0,1-1.039-2.391,2.834,2.834,0,0,1,.484-1.648,3.239,3.239,0,0,1,1.3-1.094,2.95,2.95,0,0,1-1.137-1.023,2.664,2.664,0,0,1-.41-1.469,2.948,2.948,0,0,1,.969-2.316,4.457,4.457,0,0,1,5.262-.008A2.937,2.937,0,0,1,148.828,29.648Zm-2.023,5.07a1.638,1.638,0,0,0-.43-1.187,1.719,1.719,0,0,0-2.3,0,1.853,1.853,0,0,0-.008,2.363,1.762,1.762,0,0,0,2.324.016A1.631,1.631,0,0,0,146.8,34.719Zm-.234-4.961a1.563,1.563,0,0,0-.352-1.066,1.43,1.43,0,0,0-1.977-.012,1.553,1.553,0,0,0-.352,1.078,1.633,1.633,0,0,0,.352,1.094,1.391,1.391,0,0,0,1.98,0A1.645,1.645,0,0,0,146.57,29.758Zm12.656,1.875h2.82v2.039h-2.82v3.188h-2.148V33.672H154.25V31.633h2.828V28.578h2.148Zm10.367-.32h1.2a1.7,1.7,0,0,0,1.273-.43,1.574,1.574,0,0,0,.414-1.141,1.392,1.392,0,0,0-.41-1.07,1.59,1.59,0,0,0-1.129-.383,1.666,1.666,0,0,0-1.086.355,1.137,1.137,0,0,0-.437.926h-2.258a2.777,2.777,0,0,1,.48-1.6,3.2,3.2,0,0,1,1.344-1.105,4.485,4.485,0,0,1,1.9-.4,4.253,4.253,0,0,1,2.828.863,2.945,2.945,0,0,1,1.023,2.379,2.394,2.394,0,0,1-.477,1.438,3.1,3.1,0,0,1-1.25,1.008,2.826,2.826,0,0,1,1.434,1.031,2.8,2.8,0,0,1,.473,1.625,2.994,2.994,0,0,1-1.105,2.43,4.445,4.445,0,0,1-2.926.914,4.214,4.214,0,0,1-2.785-.9,2.934,2.934,0,0,1-1.082-2.375h2.258a1.308,1.308,0,0,0,.48,1.047,2,2,0,0,0,2.445-.02,1.47,1.47,0,0,0,.457-1.129q0-1.7-1.875-1.7h-1.2Zm13.008-4.8v1.859h-.219a3.836,3.836,0,0,0-2.465.8,3.238,3.238,0,0,0-1.121,2.148,3.075,3.075,0,0,1,2.289-.922,2.9,2.9,0,0,1,2.359,1.063,4.259,4.259,0,0,1,.875,2.8,4.19,4.19,0,0,1-.48,2.008,3.446,3.446,0,0,1-1.359,1.4,3.949,3.949,0,0,1-1.988.5,3.689,3.689,0,0,1-2.9-1.25,4.852,4.852,0,0,1-1.105-3.336v-.812a7.3,7.3,0,0,1,.7-3.27,5.127,5.127,0,0,1,2.008-2.2,5.884,5.884,0,0,1,3.035-.785Zm-2.2,5.7a1.8,1.8,0,0,0-.992.285,1.715,1.715,0,0,0-.656.753v.686A3.04,3.04,0,0,0,179.2,35.7a1.439,1.439,0,0,0,1.25.635,1.423,1.423,0,0,0,1.176-.573,2.69,2.69,0,0,0,0-2.983A1.477,1.477,0,0,0,180.4,32.211Zm5.469,4.68a1.137,1.137,0,0,1,.363-.875,1.412,1.412,0,0,1,1.828,0,1.137,1.137,0,0,1,.363.875,1.121,1.121,0,0,1-.359.863,1.435,1.435,0,0,1-1.836,0A1.121,1.121,0,0,1,185.867,36.891ZM196.43,26.508v1.859h-.219a3.836,3.836,0,0,0-2.465.8,3.238,3.238,0,0,0-1.121,2.148,3.075,3.075,0,0,1,2.289-.922,2.9,2.9,0,0,1,2.359,1.063,4.259,4.259,0,0,1,.875,2.8,4.19,4.19,0,0,1-.48,2.008,3.446,3.446,0,0,1-1.359,1.4,3.949,3.949,0,0,1-1.988.5,3.689,3.689,0,0,1-2.9-1.25,4.852,4.852,0,0,1-1.105-3.336v-.812a7.3,7.3,0,0,1,.7-3.27,5.127,5.127,0,0,1,2.008-2.2,5.884,5.884,0,0,1,3.035-.785Zm-2.2,5.7a1.8,1.8,0,0,0-.992.285,1.715,1.715,0,0,0-.656.753v.686a3.04,3.04,0,0,0,.445,1.766,1.439,1.439,0,0,0,1.25.635,1.423,1.423,0,0,0,1.176-.573,2.69,2.69,0,0,0,0-2.983A1.477,1.477,0,0,0,194.227,32.211ZM207.281,38h-7.8V36.453l3.68-3.922a9.078,9.078,0,0,0,1.121-1.445,2.322,2.322,0,0,0,.363-1.172,1.738,1.738,0,0,0-.383-1.191,1.382,1.382,0,0,0-1.094-.434,1.49,1.49,0,0,0-1.207.527,2.089,2.089,0,0,0-.441,1.387h-2.266a3.729,3.729,0,0,1,.5-1.9,3.5,3.5,0,0,1,1.4-1.348,4.262,4.262,0,0,1,2.055-.488,4.036,4.036,0,0,1,2.73.844,2.985,2.985,0,0,1,.973,2.383,3.825,3.825,0,0,1-.437,1.719,9.552,9.552,0,0,1-1.5,2.039l-2.586,2.727h4.891Zm12.641-5.828h-6.984V30.328h6.984Zm0,3.383h-6.984V33.711h6.984Zm12.547-1.836h1.289v1.82h-1.289V38h-2.258V35.539h-4.664l-.1-1.422,4.742-7.492h2.281Zm-4.773,0h2.516V29.7l-.148.258ZM240.453,38H238.2V29.3l-2.7.836V28.3l4.711-1.687h.242Zm9.18,0h-2.258V29.3l-2.7.836V28.3l4.711-1.687h.242Zm10.375-4.281H261.3v1.82h-1.289V38H257.75V35.539h-4.664l-.1-1.422,4.742-7.492h2.281Zm-4.773,0h2.516V29.7l-.148.258Zm7.484,3.172a1.137,1.137,0,0,1,.363-.875,1.412,1.412,0,0,1,1.828,0,1.137,1.137,0,0,1,.363.875,1.121,1.121,0,0,1-.359.863,1.435,1.435,0,0,1-1.836,0A1.121,1.121,0,0,1,262.719,36.891ZM274.953,38h-7.8V36.453l3.68-3.922a9.077,9.077,0,0,0,1.121-1.445,2.322,2.322,0,0,0,.363-1.172,1.737,1.737,0,0,0-.383-1.191,1.382,1.382,0,0,0-1.094-.434,1.49,1.49,0,0,0-1.207.527A2.089,2.089,0,0,0,269.2,30.2H266.93a3.729,3.729,0,0,1,.5-1.9,3.5,3.5,0,0,1,1.4-1.348,4.262,4.262,0,0,1,2.055-.488,4.036,4.036,0,0,1,2.73.844,2.985,2.985,0,0,1,.973,2.383,3.825,3.825,0,0,1-.437,1.719,9.551,9.551,0,0,1-1.5,2.039l-2.586,2.727h4.891Zm10.336-1.937q1.359-.586,1.453-3.656l.008-1.141a3.793,3.793,0,0,0-.5-2.152,1.7,1.7,0,0,0-2.785,0,3.77,3.77,0,0,0-.5,2.152v.68a8.269,8.269,0,0,0,.383,2.793,2.067,2.067,0,0,0,1.133,1.324V38h-4V36.094h1.7a5.422,5.422,0,0,1-1.336-1.855,5.606,5.606,0,0,1-.492-2.262v-.7a5.323,5.323,0,0,1,.57-2.484,4.165,4.165,0,0,1,1.6-1.711,4.785,4.785,0,0,1,4.652-.012,4.162,4.162,0,0,1,1.6,1.672,5.247,5.247,0,0,1,.6,2.418v.781a5.618,5.618,0,0,1-1.828,4.148h1.688V38h-3.937Z" transform="translate(-2213 -790)" fill="#12263f"/>
  </g>
</svg>
