<svg xmlns="http://www.w3.org/2000/svg" width="588" height="69" viewBox="0 0 588 69">
  <g id="Grupo_1108806" data-name="Grupo 1108806" transform="translate(-327.051 -5760)">
    <path id="Trazado_899251" data-name="Trazado 899251" d="M0,0H588V69H0Z" transform="translate(327.051 5760)" fill="#f4c0c0"/>
    <path id="Trazado_899252" data-name="Trazado 899252" d="M5.039-4.164H3.18L2.453,0H.164L2.141-11.375l3.766.008a4.289,4.289,0,0,1,2.91.891A2.817,2.817,0,0,1,9.719-8a3.574,3.574,0,0,1-2.5,3.258L8.82-.125V0H6.383Zm-1.531-1.9,1.7.016a2.386,2.386,0,0,0,1.5-.488A1.933,1.933,0,0,0,7.414-7.82a1.473,1.473,0,0,0-.242-1.187,1.442,1.442,0,0,0-1.117-.461L4.1-9.477Zm14.914-4.469-.367,2.078h1.406L19.172-6.8H17.766l-.719,4.234a1.077,1.077,0,0,0,.063.609q.109.211.531.227.125.008.672-.039L18.156-.039a3.706,3.706,0,0,1-1.266.18,1.985,1.985,0,0,1-1.617-.68,2.456,2.456,0,0,1-.437-1.8L15.563-6.8h-1.2l.289-1.656h1.2l.359-2.078Zm5.453,1.922a3.39,3.39,0,0,1,1.926.574A3.234,3.234,0,0,1,26.988-6.5a4.762,4.762,0,0,1,.27,2.176,5.143,5.143,0,0,1-1.4,3.262A3.96,3.96,0,0,1,22.836.156,3.38,3.38,0,0,1,20.93-.41a3.222,3.222,0,0,1-1.187-1.527,4.657,4.657,0,0,1-.273-2.156,5.3,5.3,0,0,1,1.422-3.328A3.878,3.878,0,0,1,23.875-8.609ZM21.648-3.294A1.95,1.95,0,0,0,22-2.113a1.168,1.168,0,0,0,.945.449A1.712,1.712,0,0,0,24.539-2.6a4.647,4.647,0,0,0,.539-2.531,2.122,2.122,0,0,0-.363-1.2,1.149,1.149,0,0,0-.949-.464,1.715,1.715,0,0,0-1.574.924A4.6,4.6,0,0,0,21.648-3.294Zm10.711-7.237-.367,2.078H33.4L33.109-6.8H31.7l-.719,4.234a1.077,1.077,0,0,0,.063.609q.109.211.531.227.125.008.672-.039L32.094-.039a3.706,3.706,0,0,1-1.266.18,1.985,1.985,0,0,1-1.617-.68,2.456,2.456,0,0,1-.437-1.8L29.5-6.8H28.3l.289-1.656h1.2l.359-2.078ZM38.1,0a2.281,2.281,0,0,1-.086-.766,2.863,2.863,0,0,1-2.156.922,2.594,2.594,0,0,1-1.84-.723,2.186,2.186,0,0,1-.684-1.746A2.527,2.527,0,0,1,34.5-4.434a5.266,5.266,0,0,1,2.965-.738l1.031.016.109-.508a1.764,1.764,0,0,0,.023-.492.846.846,0,0,0-.277-.574.955.955,0,0,0-.629-.215,1.345,1.345,0,0,0-.875.254,1.231,1.231,0,0,0-.461.777l-2.211.008a2.457,2.457,0,0,1,1.113-1.965A4.312,4.312,0,0,1,37.9-8.609a3.117,3.117,0,0,1,2.25.855,2.5,2.5,0,0,1,.68,2.121L40.18-1.586l-.039.5a2.412,2.412,0,0,0,.133.938L40.266,0Zm-1.7-1.555a2.017,2.017,0,0,0,1.664-.828l.273-1.461-.766-.008a2.139,2.139,0,0,0-1.758.742,1.292,1.292,0,0,0-.242.633.75.75,0,0,0,.176.668A.891.891,0,0,0,36.406-1.555ZM43.938,0H41.719L43.8-12h2.211Zm13.8-5.828H50.945l.328-1.844h6.789Zm-.586,3.383H50.359l.328-1.844h6.789Z" transform="translate(347 5786)" fill="#12263f"/>
    <path id="Trazado_899239" data-name="Trazado 899239" d="M-3842.051-10039.182h156.494" transform="translate(4259.395 15821.682)" fill="none" stroke="#000" stroke-width="1"/>
    <path id="Trazado_899253" data-name="Trazado 899253" d="M5.266,0h-2.2l1.5-8.656L1.8-7.82l.344-1.93,4.75-1.641L7.18-11.4Z" transform="translate(455.051 5777)" fill="#12263f"/>
    <path id="Trazado_899254" data-name="Trazado 899254" d="M5.266,0h-2.2l1.5-8.656L1.8-7.82l.344-1.93,4.75-1.641L7.18-11.4Z" transform="translate(425.051 5799)" fill="#12263f"/>
    <path id="Trazado_899240" data-name="Trazado 899240" d="M-3842.051-10039.182h27.314" transform="translate(4258.395 15841.682)" fill="none" stroke="#000" stroke-width="1"/>
    <path id="Trazado_899255" data-name="Trazado 899255" d="M5.039-4.164H3.18L2.453,0H.164L2.141-11.375l3.766.008a4.289,4.289,0,0,1,2.91.891A2.817,2.817,0,0,1,9.719-8a3.574,3.574,0,0,1-2.5,3.258L8.82-.125V0H6.383Zm-1.531-1.9,1.7.016a2.386,2.386,0,0,0,1.5-.488A1.933,1.933,0,0,0,7.414-7.82a1.473,1.473,0,0,0-.242-1.187,1.442,1.442,0,0,0-1.117-.461L4.1-9.477ZM15.25,0h-2.2l1.5-8.656-2.766.836.344-1.93,4.75-1.641.289-.008Z" transform="translate(421.051 5817)" fill="#12263f"/>
    <path id="Trazado_899256" data-name="Trazado 899256" d="M5.563-6.367H8.3L7.938-4.328H5.211L4.656-1.141h-2.1l.555-3.187H.359L.719-6.367H3.461l.531-3.055h2.1Z" transform="translate(448.051 5807)" fill="#12263f"/>
    <path id="Trazado_899257" data-name="Trazado 899257" d="M5.266,0h-2.2l1.5-8.656L1.8-7.82l.344-1.93,4.75-1.641L7.18-11.4Z" transform="translate(468.258 5799)" fill="#12263f"/>
    <path id="Trazado_899241" data-name="Trazado 899241" d="M-3842.051-10039.182h27.314" transform="translate(4301.602 15841.682)" fill="none" stroke="#000" stroke-width="1"/>
    <path id="Trazado_899258" data-name="Trazado 899258" d="M5.039-4.164H3.18L2.453,0H.164L2.141-11.375l3.766.008a4.289,4.289,0,0,1,2.91.891A2.817,2.817,0,0,1,9.719-8a3.574,3.574,0,0,1-2.5,3.258L8.82-.125V0H6.383Zm-1.531-1.9,1.7.016a2.386,2.386,0,0,0,1.5-.488A1.933,1.933,0,0,0,7.414-7.82a1.473,1.473,0,0,0-.242-1.187,1.442,1.442,0,0,0-1.117-.461L4.1-9.477ZM17.57,0H9.992l.258-1.641L14.289-5.43A8.947,8.947,0,0,0,15.938-7.32a2.214,2.214,0,0,0,.3-1.422,1.061,1.061,0,0,0-1.117-.992,1.6,1.6,0,0,0-1.254.523A2.453,2.453,0,0,0,13.258-7.8l-2.2.008a3.863,3.863,0,0,1,.633-1.93,3.882,3.882,0,0,1,1.52-1.348,4.405,4.405,0,0,1,2.051-.473,3.5,3.5,0,0,1,2.469.891,2.756,2.756,0,0,1,.781,2.289A5.546,5.546,0,0,1,16.609-5L15.484-3.93,13.156-1.836l4.7.016Z" transform="translate(464.258 5817)" fill="#12263f"/>
    <path id="Trazado_899259" data-name="Trazado 899259" d="M5.563-6.367H8.3L7.938-4.328H5.211L4.656-1.141h-2.1l.555-3.187H.359L.719-6.367H3.461l.531-3.055h2.1Z" transform="translate(495 5807)" fill="#12263f"/>
    <path id="Trazado_899260" data-name="Trazado 899260" d="M5.266,0h-2.2l1.5-8.656L1.8-7.82l.344-1.93,4.75-1.641L7.18-11.4Z" transform="translate(515.207 5799)" fill="#12263f"/>
    <path id="Trazado_899261" data-name="Trazado 899261" d="M5.039-4.164H3.18L2.453,0H.164L2.141-11.375l3.766.008a4.289,4.289,0,0,1,2.91.891A2.817,2.817,0,0,1,9.719-8a3.574,3.574,0,0,1-2.5,3.258L8.82-.125V0H6.383Zm-1.531-1.9,1.7.016a2.386,2.386,0,0,0,1.5-.488A1.933,1.933,0,0,0,7.414-7.82a1.473,1.473,0,0,0-.242-1.187,1.442,1.442,0,0,0-1.117-.461L4.1-9.477Zm9.773-.625,1.055.008a2.055,2.055,0,0,0,1.348-.445,1.737,1.737,0,0,0,.629-1.2,1.261,1.261,0,0,0-.242-1.012,1.23,1.23,0,0,0-.961-.395,1.642,1.642,0,0,0-1.1.348,1.494,1.494,0,0,0-.559.941l-2.2.016a2.952,2.952,0,0,1,1.184-2.254,4.165,4.165,0,0,1,2.707-.863,3.716,3.716,0,0,1,2.547.9,2.739,2.739,0,0,1,.852,2.3A3.078,3.078,0,0,1,16.469-5.8,2.381,2.381,0,0,1,17.59-4.754a2.826,2.826,0,0,1,.309,1.5,3.267,3.267,0,0,1-.633,1.813,3.7,3.7,0,0,1-1.547,1.2,4.962,4.962,0,0,1-2.094.395,3.557,3.557,0,0,1-2.484-.91A3.03,3.03,0,0,1,10.2-3.117h2.188a1.412,1.412,0,0,0,.355,1.035,1.385,1.385,0,0,0,1.035.418A1.933,1.933,0,0,0,15.086-2.1a1.761,1.761,0,0,0,.641-1.179,1.428,1.428,0,0,0-.277-1.2A1.553,1.553,0,0,0,14.3-4.914L13-4.922Z" transform="translate(511.207 5817)" fill="#12263f"/>
    <path id="Trazado_899242" data-name="Trazado 899242" d="M-3842.051-10039.182h27.314" transform="translate(4348.551 15841.682)" fill="none" stroke="#000" stroke-width="1"/>
    <path id="Trazado_899262" data-name="Trazado 899262" d="M5.266,0h-2.2l1.5-8.656L1.8-7.82l.344-1.93,4.75-1.641L7.18-11.4Z" transform="translate(561.393 5799)" fill="#12263f"/>
    <path id="Trazado_899263" data-name="Trazado 899263" d="M5.039-4.164H3.18L2.453,0H.164L2.141-11.375l3.766.008a4.289,4.289,0,0,1,2.91.891A2.817,2.817,0,0,1,9.719-8a3.574,3.574,0,0,1-2.5,3.258L8.82-.125V0H6.383Zm-1.531-1.9,1.7.016a2.386,2.386,0,0,0,1.5-.488A1.933,1.933,0,0,0,7.414-7.82a1.473,1.473,0,0,0-.242-1.187,1.442,1.442,0,0,0-1.117-.461L4.1-9.477ZM17.156-4.281h1.25l-.32,1.82h-1.25L16.406,0H14.2l.43-2.461H10.117L10.273-4l5.8-7.375h2.3ZM12.563-4.3l2.391.016.773-4.047-.2.281Z" transform="translate(557.393 5817)" fill="#12263f"/>
    <path id="Trazado_899243" data-name="Trazado 899243" d="M-3842.051-10039.182h27.314" transform="translate(4394.736 15841.682)" fill="none" stroke="#000" stroke-width="1"/>
    <path id="Trazado_899264" data-name="Trazado 899264" d="M5.563-6.367H8.3L7.938-4.328H5.211L4.656-1.141h-2.1l.555-3.187H.359L.719-6.367H3.461l.531-3.055h2.1Z" transform="translate(541.949 5807)" fill="#12263f"/>
    <path id="Trazado_899265" data-name="Trazado 899265" d="M5.039-4.164H3.18L2.453,0H.164L2.141-11.375l3.766.008a4.289,4.289,0,0,1,2.91.891A2.817,2.817,0,0,1,9.719-8a3.574,3.574,0,0,1-2.5,3.258L8.82-.125V0H6.383Zm-1.531-1.9,1.7.016a2.386,2.386,0,0,0,1.5-.488A1.933,1.933,0,0,0,7.414-7.82a1.473,1.473,0,0,0-.242-1.187,1.442,1.442,0,0,0-1.117-.461L4.1-9.477Zm14.914-4.469-.367,2.078h1.406L19.172-6.8H17.766l-.719,4.234a1.077,1.077,0,0,0,.063.609q.109.211.531.227.125.008.672-.039L18.156-.039a3.706,3.706,0,0,1-1.266.18,1.985,1.985,0,0,1-1.617-.68,2.456,2.456,0,0,1-.437-1.8L15.563-6.8h-1.2l.289-1.656h1.2l.359-2.078Zm5.453,1.922a3.39,3.39,0,0,1,1.926.574A3.234,3.234,0,0,1,26.988-6.5a4.762,4.762,0,0,1,.27,2.176,5.143,5.143,0,0,1-1.4,3.262A3.96,3.96,0,0,1,22.836.156,3.38,3.38,0,0,1,20.93-.41a3.222,3.222,0,0,1-1.187-1.527,4.657,4.657,0,0,1-.273-2.156,5.3,5.3,0,0,1,1.422-3.328A3.878,3.878,0,0,1,23.875-8.609ZM21.648-3.294A1.95,1.95,0,0,0,22-2.113a1.168,1.168,0,0,0,.945.449A1.712,1.712,0,0,0,24.539-2.6a4.647,4.647,0,0,0,.539-2.531,2.122,2.122,0,0,0-.363-1.2,1.149,1.149,0,0,0-.949-.464,1.715,1.715,0,0,0-1.574.924A4.6,4.6,0,0,0,21.648-3.294Zm10.711-7.237-.367,2.078H33.4L33.109-6.8H31.7l-.719,4.234a1.077,1.077,0,0,0,.063.609q.109.211.531.227.125.008.672-.039L32.094-.039a3.706,3.706,0,0,1-1.266.18,1.985,1.985,0,0,1-1.617-.68,2.456,2.456,0,0,1-.437-1.8L29.5-6.8H28.3l.289-1.656h1.2l.359-2.078ZM38.1,0a2.281,2.281,0,0,1-.086-.766,2.863,2.863,0,0,1-2.156.922,2.594,2.594,0,0,1-1.84-.723,2.186,2.186,0,0,1-.684-1.746A2.527,2.527,0,0,1,34.5-4.434a5.266,5.266,0,0,1,2.965-.738l1.031.016.109-.508a1.764,1.764,0,0,0,.023-.492.846.846,0,0,0-.277-.574.955.955,0,0,0-.629-.215,1.345,1.345,0,0,0-.875.254,1.231,1.231,0,0,0-.461.777l-2.211.008a2.457,2.457,0,0,1,1.113-1.965A4.312,4.312,0,0,1,37.9-8.609a3.117,3.117,0,0,1,2.25.855,2.5,2.5,0,0,1,.68,2.121L40.18-1.586l-.039.5a2.412,2.412,0,0,0,.133.938L40.266,0Zm-1.7-1.555a2.017,2.017,0,0,0,1.664-.828l.273-1.461-.766-.008a2.139,2.139,0,0,0-1.758.742,1.292,1.292,0,0,0-.242.633.75.75,0,0,0,.176.668A.891.891,0,0,0,36.406-1.555ZM43.938,0H41.719L43.8-12h2.211Zm13.8-5.828H50.945l.328-1.844h6.789Zm-.586,3.383H50.359l.328-1.844h6.789Z" transform="translate(585 5786)" fill="#12263f"/>
    <path id="Trazado_899244" data-name="Trazado 899244" d="M-3842.051-10039.182h221.1" transform="translate(4497.395 15821.682)" fill="none" stroke="#000" stroke-width="1"/>
    <path id="Trazado_899266" data-name="Trazado 899266" d="M5.266,0h-2.2l1.5-8.656L1.8-7.82l.344-1.93,4.75-1.641L7.18-11.4Z" transform="translate(773.051 5777)" fill="#12263f"/>
    <path id="Trazado_899267" data-name="Trazado 899267" d="M5.266,0h-2.2l1.5-8.656L1.8-7.82l.344-1.93,4.75-1.641L7.18-11.4Z" transform="translate(663.051 5799)" fill="#12263f"/>
    <path id="Trazado_899245" data-name="Trazado 899245" d="M-3842.051-10039.182h27.314" transform="translate(4496.395 15841.682)" fill="none" stroke="#000" stroke-width="1"/>
    <path id="Trazado_899268" data-name="Trazado 899268" d="M7.586,0H.008L.266-1.641,4.3-5.43A8.947,8.947,0,0,0,5.953-7.32a2.214,2.214,0,0,0,.3-1.422,1.061,1.061,0,0,0-1.117-.992,1.6,1.6,0,0,0-1.254.523A2.453,2.453,0,0,0,3.273-7.8l-2.2.008A3.863,3.863,0,0,1,1.7-9.719a3.882,3.882,0,0,1,1.52-1.348,4.405,4.405,0,0,1,2.051-.473,3.5,3.5,0,0,1,2.469.891,2.756,2.756,0,0,1,.781,2.289A5.546,5.546,0,0,1,6.625-5L5.5-3.93,3.172-1.836l4.7.016Zm5.9-4.539-1.5,1.391L11.438,0H9.148l1.977-11.375h2.289l-.875,5.016L13.7-7.672l3.422-3.7h2.984L15.2-6.2,18.125,0H15.516ZM23.961-1.93a3,3,0,0,0,1.492-1.523,10.563,10.563,0,0,0,.789-3.43,7.066,7.066,0,0,0,.039-1.062q-.125-1.617-1.328-1.672a1.8,1.8,0,0,0-1.535.691,4.341,4.341,0,0,0-.836,2.176q-.215,1.438-.254,1.941a9.02,9.02,0,0,0-.023.988q.031,1.469.883,1.883L22.891,0h-3.9l.352-1.906,1.633-.008a7.176,7.176,0,0,1-1.062-3.031,7.876,7.876,0,0,1,.164-2.1A5.992,5.992,0,0,1,21.039-9.4,5,5,0,0,1,22.8-11a4.5,4.5,0,0,1,2.277-.527,3.779,3.779,0,0,1,2.129.66A3.625,3.625,0,0,1,28.52-9.129a5.031,5.031,0,0,1,.262,2.41l-.07.547a6.113,6.113,0,0,1-2.547,4.3l1.672-.039L27.5,0H23.664Z" transform="translate(653.051 5817)" fill="#12263f"/>
    <path id="Trazado_899269" data-name="Trazado 899269" d="M5.563-6.367H8.3L7.938-4.328H5.211L4.656-1.141h-2.1l.555-3.187H.359L.719-6.367H3.461l.531-3.055h2.1Z" transform="translate(686.051 5807)" fill="#12263f"/>
    <path id="Trazado_899270" data-name="Trazado 899270" d="M5.266,0h-2.2l1.5-8.656L1.8-7.82l.344-1.93,4.75-1.641L7.18-11.4Z" transform="translate(706.258 5799)" fill="#12263f"/>
    <path id="Trazado_899246" data-name="Trazado 899246" d="M-3842.051-10039.182h27.314" transform="translate(4539.602 15841.682)" fill="none" stroke="#000" stroke-width="1"/>
    <path id="Trazado_899271" data-name="Trazado 899271" d="M7.586,0H.008L.266-1.641,4.3-5.43A8.947,8.947,0,0,0,5.953-7.32a2.214,2.214,0,0,0,.3-1.422,1.061,1.061,0,0,0-1.117-.992,1.6,1.6,0,0,0-1.254.523A2.453,2.453,0,0,0,3.273-7.8l-2.2.008A3.863,3.863,0,0,1,1.7-9.719a3.882,3.882,0,0,1,1.52-1.348,4.405,4.405,0,0,1,2.051-.473,3.5,3.5,0,0,1,2.469.891,2.756,2.756,0,0,1,.781,2.289A5.546,5.546,0,0,1,6.625-5L5.5-3.93,3.172-1.836l4.7.016Zm5.9-4.539-1.5,1.391L11.438,0H9.148l1.977-11.375h2.289l-.875,5.016L13.7-7.672l3.422-3.7h2.984L15.2-6.2,18.125,0H15.516ZM23.961-1.93a3,3,0,0,0,1.492-1.523,10.563,10.563,0,0,0,.789-3.43,7.066,7.066,0,0,0,.039-1.062q-.125-1.617-1.328-1.672a1.8,1.8,0,0,0-1.535.691,4.341,4.341,0,0,0-.836,2.176q-.215,1.438-.254,1.941a9.02,9.02,0,0,0-.023.988q.031,1.469.883,1.883L22.891,0h-3.9l.352-1.906,1.633-.008a7.176,7.176,0,0,1-1.062-3.031,7.876,7.876,0,0,1,.164-2.1A5.992,5.992,0,0,1,21.039-9.4,5,5,0,0,1,22.8-11a4.5,4.5,0,0,1,2.277-.527,3.779,3.779,0,0,1,2.129.66A3.625,3.625,0,0,1,28.52-9.129a5.031,5.031,0,0,1,.262,2.41l-.07.547a6.113,6.113,0,0,1-2.547,4.3l1.672-.039L27.5,0H23.664Z" transform="translate(702.258 5817)" fill="#12263f"/>
    <path id="Trazado_899272" data-name="Trazado 899272" d="M5.563-6.367H8.3L7.938-4.328H5.211L4.656-1.141h-2.1l.555-3.187H.359L.719-6.367H3.461l.531-3.055h2.1Z" transform="translate(743 5807)" fill="#12263f"/>
    <path id="Trazado_899273" data-name="Trazado 899273" d="M5.266,0h-2.2l1.5-8.656L1.8-7.82l.344-1.93,4.75-1.641L7.18-11.4Z" transform="translate(763.207 5799)" fill="#12263f"/>
    <path id="Trazado_899274" data-name="Trazado 899274" d="M7.172-4.281h1.25L8.1-2.461H6.852L6.422,0h-2.2l.43-2.461H.133L.289-4l5.8-7.375H8.4ZM2.578-4.3l2.391.016.773-4.047-.2.281Zm7.969,1.969A1.22,1.22,0,0,1,11.441-2a1.111,1.111,0,0,1,.371.855,1.151,1.151,0,0,1-.344.879,1.194,1.194,0,0,1-.883.363A1.2,1.2,0,0,1,9.7-.219a1.149,1.149,0,0,1-.375-.852,1.161,1.161,0,0,1,.336-.883A1.238,1.238,0,0,1,10.547-2.328ZM22.664-10,16.883,0h-2.43l5.766-9.555H14.781l.289-1.82h7.8Zm4.391,5.459-1.5,1.391L25.008,0H22.719L24.7-11.375h2.289l-.875,5.016,1.164-1.312,3.422-3.7H33.68L28.766-6.2,31.7,0H29.086ZM37.531-1.93a3,3,0,0,0,1.492-1.523,10.563,10.563,0,0,0,.789-3.43,7.066,7.066,0,0,0,.039-1.062q-.125-1.617-1.328-1.672a1.8,1.8,0,0,0-1.535.691,4.341,4.341,0,0,0-.836,2.176q-.215,1.438-.254,1.941a9.019,9.019,0,0,0-.023.988q.031,1.469.883,1.883L36.461,0h-3.9l.352-1.906,1.633-.008a7.176,7.176,0,0,1-1.062-3.031,7.877,7.877,0,0,1,.164-2.1A5.992,5.992,0,0,1,34.609-9.4,5,5,0,0,1,36.371-11a4.5,4.5,0,0,1,2.277-.527,3.779,3.779,0,0,1,2.129.66A3.625,3.625,0,0,1,42.09-9.129a5.031,5.031,0,0,1,.262,2.41l-.07.547a6.113,6.113,0,0,1-2.547,4.3l1.672-.039L41.07,0H37.234Z" transform="translate(756.207 5817)" fill="#12263f"/>
    <path id="Trazado_899247" data-name="Trazado 899247" d="M-3842.051-10039.182h47.707" transform="translate(4596.551 15841.682)" fill="none" stroke="#000" stroke-width="1"/>
    <path id="Trazado_899275" data-name="Trazado 899275" d="M5.266,0h-2.2l1.5-8.656L1.8-7.82l.344-1.93,4.75-1.641L7.18-11.4Z" transform="translate(829.443 5799)" fill="#12263f"/>
    <path id="Trazado_899276" data-name="Trazado 899276" d="M5.266,0h-2.2l1.5-8.656L1.8-7.82l.344-1.93,4.75-1.641L7.18-11.4Zm7.508.156a2.884,2.884,0,0,1-2.281-1,4.205,4.205,0,0,1-.828-2.7A8.6,8.6,0,0,1,9.727-4.7l.32-2.133a6.638,6.638,0,0,1,1.508-3.531,3.652,3.652,0,0,1,2.883-1.164,2.9,2.9,0,0,1,2.285,1,4.161,4.161,0,0,1,.832,2.691,8.673,8.673,0,0,1-.062,1.164l-.328,2.117a6.781,6.781,0,0,1-1.5,3.551A3.63,3.63,0,0,1,12.773.156ZM15.422-8.1q0-1.552-1.094-1.606-1.578-.07-2.008,2.4L11.93-4.674A9.495,9.495,0,0,0,11.8-3.3q-.039,1.583,1.086,1.637,1.586.1,2.016-2.472l.414-2.776A8.178,8.178,0,0,0,15.422-8.1ZM21.758.156a2.884,2.884,0,0,1-2.281-1,4.205,4.205,0,0,1-.828-2.7A8.6,8.6,0,0,1,18.711-4.7l.32-2.133a6.638,6.638,0,0,1,1.508-3.531,3.652,3.652,0,0,1,2.883-1.164,2.9,2.9,0,0,1,2.285,1,4.161,4.161,0,0,1,.832,2.691,8.673,8.673,0,0,1-.062,1.164l-.328,2.117a6.781,6.781,0,0,1-1.5,3.551A3.63,3.63,0,0,1,21.758.156ZM24.406-8.1q0-1.552-1.094-1.606-1.578-.07-2.008,2.4l-.391,2.635A9.494,9.494,0,0,0,20.789-3.3q-.039,1.583,1.086,1.637,1.586.1,2.016-2.472L24.3-6.912A8.178,8.178,0,0,0,24.406-8.1ZM35.4-4.539,33.9-3.148,33.352,0H31.063l1.977-11.375h2.289l-.875,5.016,1.164-1.312,3.422-3.7h2.984L37.109-6.2,40.039,0H37.43ZM45.875-1.93a3,3,0,0,0,1.492-1.523,10.563,10.563,0,0,0,.789-3.43A7.066,7.066,0,0,0,48.2-7.945q-.125-1.617-1.328-1.672a1.8,1.8,0,0,0-1.535.691A4.341,4.341,0,0,0,44.5-6.75q-.215,1.438-.254,1.941a9.019,9.019,0,0,0-.023.988q.031,1.469.883,1.883L44.8,0h-3.9l.352-1.906,1.633-.008a7.176,7.176,0,0,1-1.062-3.031,7.877,7.877,0,0,1,.164-2.1A5.992,5.992,0,0,1,42.953-9.4,5,5,0,0,1,44.715-11a4.5,4.5,0,0,1,2.277-.527,3.779,3.779,0,0,1,2.129.66,3.625,3.625,0,0,1,1.313,1.734,5.031,5.031,0,0,1,.262,2.41l-.07.547a6.113,6.113,0,0,1-2.547,4.3l1.672-.039L49.414,0H45.578Z" transform="translate(825.443 5817)" fill="#12263f"/>
    <path id="Trazado_899248" data-name="Trazado 899248" d="M-3842.051-10039.182h55.707" transform="translate(4666.787 15841.682)" fill="none" stroke="#000" stroke-width="1"/>
    <path id="Trazado_899277" data-name="Trazado 899277" d="M5.563-6.367H8.3L7.938-4.328H5.211L4.656-1.141h-2.1l.555-3.187H.359L.719-6.367H3.461l.531-3.055h2.1Z" transform="translate(810 5807)" fill="#12263f"/>
  </g>
</svg>
